<svg xmlns="http://www.w3.org/2000/svg" xmlns:xlink="http://www.w3.org/1999/xlink" xmlns:lucid="lucid" width="844" height="104"><g transform="translate(-286 -428)" lucid:page-tab-id="ff2x_g_ze3Ta"><path d="M306 453c0-2.76 2.24-5 5-5h214c2.76 0 5 2.24 5 5v54c0 2.76-2.24 5-5 5H311c-2.76 0-5-2.24-5-5z" stroke="#000" stroke-width="2" fill="#ffbbb1"/><path d="M520 458h-15v20h15z" stroke="#000" fill="#ffbbb1"/><path d="M510 461.33h-10v3.34h10zm0 10h-10v3.34h10z" stroke="#000" fill="#ffbbb1"/><use xlink:href="#a" transform="matrix(1,0,0,1,326,448) translate(26.525000000000006 24.799999999999997)"/><use xlink:href="#b" transform="matrix(1,0,0,1,326,448) translate(17.200000000000003 46.4)"/><path d="M612 453c0-2.76 2.24-5 5-5h198c2.76 0 5 2.24 5 5v54c0 2.76-2.24 5-5 5H617c-2.76 0-5-2.24-5-5z" stroke="#000" stroke-width="2" fill="#c7e8ac"/><path d="M810 458h-15v20h15z" stroke="#000" fill="#c7e8ac"/><path d="M800 461.33h-10v3.34h10zm0 10h-10v3.34h10z" stroke="#000" fill="#c7e8ac"/><use xlink:href="#a" transform="matrix(1,0,0,1,632,448) translate(18.525000000000006 24.799999999999997)"/><use xlink:href="#c" transform="matrix(1,0,0,1,632,448) translate(26.15 46.4)"/><path d="M596 480h-11M551 480h-5" stroke="#000" stroke-width="2" fill="none"/><path d="M571 494c-7.73 0-14-6.27-14-14s6.27-14 14-14 14 6.27 14 14-6.27 14-14 14z" stroke="#000" stroke-width="2" fill="#fff"/><path d="M571 460c-11.05 0-20 8.95-20 20s8.95 20 20 20" stroke="#000" stroke-width="2" fill="none"/><path d="M596 480c0 .44-.36.8-.8.8h-9.4c-.44 0-.8-.36-.8-.8 0-.44.36-.8.8-.8h9.4c.44 0 .8.36.8.8z" fill="none"/><path d="M597 480h13" stroke="#000" stroke-width="2" fill="none"/><path d="M597.03 481H596v-2h1.03zM611 481h-1.03v-2H611z"/><path d="M902 453c0-2.76 2.24-5 5-5h198c2.76 0 5 2.24 5 5v54c0 2.76-2.24 5-5 5H907c-2.76 0-5-2.24-5-5z" stroke="#000" stroke-width="2" fill="#c7e8ac"/><path d="M1100 458h-15v20h15z" stroke="#000" fill="#c7e8ac"/><path d="M1090 461.33h-10v3.34h10zm0 10h-10v3.34h10z" stroke="#000" fill="#c7e8ac"/><use xlink:href="#a" transform="matrix(1,0,0,1,922,448) translate(18.525000000000006 24.799999999999997)"/><use xlink:href="#d" transform="matrix(1,0,0,1,922,448) translate(43.12499999999999 46.4)"/><path d="M886 480h-11M841 480h-5" stroke="#000" stroke-width="2" fill="none"/><path d="M861 494c-7.73 0-14-6.27-14-14s6.27-14 14-14 14 6.27 14 14-6.27 14-14 14z" stroke="#000" stroke-width="2" fill="#fff"/><path d="M861 460c-11.05 0-20 8.95-20 20s8.95 20 20 20" stroke="#000" stroke-width="2" fill="none"/><path d="M886 480c0 .44-.36.8-.8.8h-9.4c-.44 0-.8-.36-.8-.8 0-.44.36-.8.8-.8h9.4c.44 0 .8.36.8.8z" fill="none"/><path d="M887 480h13" stroke="#000" stroke-width="2" fill="none"/><path d="M887.03 481H886v-2h1.03zM901 481h-1.03v-2H901z"/><path d="M835 480h-13" stroke="#000" stroke-width="2" fill="none"/><path d="M836 481h3-4.03v-2H836zM822.03 481H821v-2h1.03z"/><path d="M532 480h13" stroke="#000" stroke-width="2" fill="none"/><path d="M532.03 481H531v-2h1.03zM546 481h-1.03v-2H546z"/><defs><path d="M18-100v-36l175-74v27L42-118l151 64v27" id="e"/><path d="M96-169c-40 0-48 33-48 73s9 75 48 75c24 0 41-14 43-38l32 2c-6 37-31 61-74 61-59 0-76-41-82-99-10-93 101-131 147-64 4 7 5 14 7 22l-32 3c-4-21-16-35-41-35" id="f"/><path d="M100-194c62-1 85 37 85 99 1 63-27 99-86 99S16-35 15-95c0-66 28-99 85-99zM99-20c44 1 53-31 53-75 0-43-8-75-51-75s-53 32-53 75 10 74 51 75" id="g"/><path d="M210-169c-67 3-38 105-44 169h-31v-121c0-29-5-50-35-48C34-165 62-65 56 0H25l-1-190h30c1 10-1 24 2 32 10-44 99-50 107 0 11-21 27-35 58-36 85-2 47 119 55 194h-31v-121c0-29-5-49-35-48" id="h"/><path d="M115-194c55 1 70 41 70 98S169 2 115 4C84 4 66-9 55-30l1 105H24l-1-265h31l2 30c10-21 28-34 59-34zm-8 174c40 0 45-34 45-75s-6-73-45-74c-42 0-51 32-51 76 0 43 10 73 51 73" id="i"/><path d="M117-194c89-4 53 116 60 194h-32v-121c0-31-8-49-39-48C34-167 62-67 57 0H25l-1-190h30c1 10-1 24 2 32 11-22 29-35 61-36" id="j"/><path d="M100-194c63 0 86 42 84 106H49c0 40 14 67 53 68 26 1 43-12 49-29l28 8c-11 28-37 45-77 45C44 4 14-33 15-96c1-61 26-98 85-98zm52 81c6-60-76-77-97-28-3 7-6 17-6 28h103" id="k"/><path d="M59-47c-2 24 18 29 38 22v24C64 9 27 4 27-40v-127H5v-23h24l9-43h21v43h35v23H59v120" id="l"/><path d="M18-27v-27l151-64-151-65v-27l175 74v36" id="m"/><g id="a"><use transform="matrix(0.05,0,0,0.05,0,0)" xlink:href="#e"/><use transform="matrix(0.05,0,0,0.05,10.5,0)" xlink:href="#e"/><use transform="matrix(0.05,0,0,0.05,21,0)" xlink:href="#f"/><use transform="matrix(0.05,0,0,0.05,30,0)" xlink:href="#g"/><use transform="matrix(0.05,0,0,0.05,40,0)" xlink:href="#h"/><use transform="matrix(0.05,0,0,0.05,54.95,0)" xlink:href="#i"/><use transform="matrix(0.05,0,0,0.05,64.95,0)" xlink:href="#g"/><use transform="matrix(0.05,0,0,0.05,74.95,0)" xlink:href="#j"/><use transform="matrix(0.05,0,0,0.05,84.95,0)" xlink:href="#k"/><use transform="matrix(0.05,0,0,0.05,94.95,0)" xlink:href="#j"/><use transform="matrix(0.05,0,0,0.05,104.95,0)" xlink:href="#l"/><use transform="matrix(0.05,0,0,0.05,109.95,0)" xlink:href="#m"/><use transform="matrix(0.05,0,0,0.05,120.45,0)" xlink:href="#m"/></g><path d="M67-125c0 53 21 87 73 88 37 1 54-22 65-47l45 17C233-25 199 4 140 4 58 4 20-42 15-125 8-235 124-281 211-232c18 10 29 29 36 50l-46 12c-8-25-30-41-62-41-52 0-71 34-72 86" id="n"/><path d="M110-194c64 0 96 36 96 99 0 64-35 99-97 99-61 0-95-36-95-99 0-62 34-99 96-99zm-1 164c35 0 45-28 45-65 0-40-10-65-43-65-34 0-45 26-45 65 0 36 10 65 43 65" id="o"/><path d="M135-150c-39-12-60 13-60 57V0H25l-1-190h47c2 13-1 29 3 40 6-28 27-53 61-41v41" id="p"/><path d="M185-48c-13 30-37 53-82 52C43 2 14-33 14-96s30-98 90-98c62 0 83 45 84 108H66c0 31 8 55 39 56 18 0 30-7 34-22zm-45-69c5-46-57-63-70-21-2 6-4 13-4 21h74" id="q"/><path d="M24-248c93 1 206-16 204 79-1 75-69 88-152 82V0H24v-248zm52 121c47 0 100 7 100-41 0-47-54-39-100-39v80" id="r"/><path d="M25 0v-261h50V0H25" id="s"/><path d="M85 4C-2 5 27-109 22-190h50c7 57-23 150 33 157 60-5 35-97 40-157h50l1 190h-47c-2-12 1-28-3-38-12 25-28 42-61 42" id="t"/><path d="M195-6C206 82 75 100 31 46c-4-6-6-13-8-21l49-6c3 16 16 24 34 25 40 0 42-37 40-79-11 22-30 35-61 35-53 0-70-43-70-97 0-56 18-96 73-97 30 0 46 14 59 34l2-30h47zm-90-29c32 0 41-27 41-63 0-35-9-62-40-62-32 0-39 29-40 63 0 36 9 62 39 62" id="u"/><path d="M25-224v-37h50v37H25zM25 0v-190h50V0H25" id="v"/><path d="M135-194c87-1 58 113 63 194h-50c-7-57 23-157-34-157-59 0-34 97-39 157H25l-1-190h47c2 12-1 28 3 38 12-26 28-41 61-42" id="w"/><path d="M67-125c0 54 23 88 75 88 28 0 53-7 68-21v-34h-60v-39h108v91C232-14 192 4 140 4 58 4 20-42 15-125 8-236 126-280 215-234c19 10 29 26 37 47l-47 15c-11-23-29-39-63-39-53 1-75 33-75 86" id="x"/><path d="M135-194c53 0 70 44 70 98 0 56-19 98-73 100-31 1-45-17-59-34 3 33 2 69 2 105H25l-1-265h48c2 10 0 23 3 31 11-24 29-35 60-35zM114-30c33 0 39-31 40-66 0-38-9-64-40-64-56 0-55 130 0 130" id="y"/><g id="b"><use transform="matrix(0.05,0,0,0.05,0,0)" xlink:href="#n"/><use transform="matrix(0.05,0,0,0.05,12.950000000000001,0)" xlink:href="#o"/><use transform="matrix(0.05,0,0,0.05,23.900000000000002,0)" xlink:href="#p"/><use transform="matrix(0.05,0,0,0.05,30.900000000000002,0)" xlink:href="#q"/><use transform="matrix(0.05,0,0,0.05,40.900000000000006,0)" xlink:href="#r"/><use transform="matrix(0.05,0,0,0.05,52.900000000000006,0)" xlink:href="#s"/><use transform="matrix(0.05,0,0,0.05,57.900000000000006,0)" xlink:href="#t"/><use transform="matrix(0.05,0,0,0.05,68.85000000000001,0)" xlink:href="#u"/><use transform="matrix(0.05,0,0,0.05,79.80000000000001,0)" xlink:href="#v"/><use transform="matrix(0.05,0,0,0.05,84.80000000000001,0)" xlink:href="#w"/><use transform="matrix(0.05,0,0,0.05,95.75000000000001,0)" xlink:href="#x"/><use transform="matrix(0.05,0,0,0.05,109.75,0)" xlink:href="#p"/><use transform="matrix(0.05,0,0,0.05,116.75,0)" xlink:href="#o"/><use transform="matrix(0.05,0,0,0.05,127.7,0)" xlink:href="#t"/><use transform="matrix(0.05,0,0,0.05,138.65,0)" xlink:href="#y"/></g><path d="M133-34C117-15 103 5 69 4 32 3 11-16 11-54c-1-60 55-63 116-61 1-26-3-47-28-47-18 1-26 9-28 27l-52-2c7-38 36-58 82-57s74 22 75 68l1 82c-1 14 12 18 25 15v27c-30 8-71 5-69-32zm-48 3c29 0 43-24 42-57-32 0-66-3-65 30 0 17 8 27 23 27" id="z"/><path d="M115-3C79 11 28 4 28-45v-112H4v-33h27l15-45h31v45h36v33H77v99c-1 23 16 31 38 25v30" id="A"/><g id="c"><use transform="matrix(0.05,0,0,0.05,0,0)" xlink:href="#r"/><use transform="matrix(0.05,0,0,0.05,12,0)" xlink:href="#z"/><use transform="matrix(0.05,0,0,0.05,22,0)" xlink:href="#A"/><use transform="matrix(0.05,0,0,0.05,27.950000000000003,0)" xlink:href="#A"/><use transform="matrix(0.05,0,0,0.05,33.9,0)" xlink:href="#q"/><use transform="matrix(0.05,0,0,0.05,43.9,0)" xlink:href="#p"/><use transform="matrix(0.05,0,0,0.05,50.9,0)" xlink:href="#w"/><use transform="matrix(0.05,0,0,0.05,61.85,0)" xlink:href="#x"/><use transform="matrix(0.05,0,0,0.05,75.85,0)" xlink:href="#p"/><use transform="matrix(0.05,0,0,0.05,82.85,0)" xlink:href="#o"/><use transform="matrix(0.05,0,0,0.05,93.8,0)" xlink:href="#t"/><use transform="matrix(0.05,0,0,0.05,104.75,0)" xlink:href="#y"/></g><path d="M24-248c120-7 223 5 221 122C244-46 201 0 124 0H24v-248zM76-40c74 7 117-18 117-86 0-67-45-88-117-82v168" id="B"/><path d="M230 0l2-204L168 0h-37L68-204 70 0H24v-248h70l56 185 57-185h69V0h-46" id="C"/><g id="d"><use transform="matrix(0.05,0,0,0.05,0,0)" xlink:href="#B"/><use transform="matrix(0.05,0,0,0.05,12.950000000000001,0)" xlink:href="#C"/><use transform="matrix(0.05,0,0,0.05,27.900000000000002,0)" xlink:href="#x"/><use transform="matrix(0.05,0,0,0.05,41.900000000000006,0)" xlink:href="#p"/><use transform="matrix(0.05,0,0,0.05,48.900000000000006,0)" xlink:href="#o"/><use transform="matrix(0.05,0,0,0.05,59.85,0)" xlink:href="#t"/><use transform="matrix(0.05,0,0,0.05,70.80000000000001,0)" xlink:href="#y"/></g></defs></g></svg>