<svg xmlns="http://www.w3.org/2000/svg" xmlns:xlink="http://www.w3.org/1999/xlink" xmlns:lucid="lucid" width="1144" height="488"><g transform="translate(-76 -524)" lucid:page-tab-id="gJvti0G8YP9Q"><path d="M480 549c0-2.76 2.24-5 5-5h710c2.76 0 5 2.24 5 5v438c0 2.76-2.24 5-5 5H485c-2.76 0-5-2.24-5-5z" stroke="#000" stroke-width="2" fill="#fff"/><path d="M1190 554h-15v20h15z" stroke="#000" fill="#fff"/><path d="M1180 557.33h-10v3.34h10zm0 10h-10v3.34h10z" stroke="#000" fill="#fff"/><use xlink:href="#a" transform="matrix(1,0,0,1,500,544) translate(340 14.4)"/><use xlink:href="#b" transform="matrix(1,0,0,1,500,544) translate(274.525 36)"/><use xlink:href="#c" transform="matrix(1,0,0,1,500,544) translate(304 57.6)"/><path d="M528 750c0-2.76 2.24-5 5-5h262c2.76 0 5 2.24 5 5v54c0 2.76-2.24 5-5 5H533c-2.76 0-5-2.24-5-5z" stroke="#000" stroke-width="2" fill="#f0f0f0"/><path d="M790 755h-15v20h15z" stroke="#000" fill="#f0f0f0"/><path d="M780 758.33h-10v3.34h10zm0 10h-10v3.34h10z" stroke="#000" fill="#f0f0f0"/><use xlink:href="#d" transform="matrix(1,0,0,1,548,745) translate(50.525000000000006 24.799999999999997)"/><use xlink:href="#e" transform="matrix(1,0,0,1,548,745) translate(9.300000000000011 46.4)"/><path d="M528 613c0-2.76 2.24-5 5-5h262c2.76 0 5 2.24 5 5v54c0 2.76-2.24 5-5 5H533c-2.76 0-5-2.24-5-5z" stroke="#000" stroke-width="2" fill="#ffdba9"/><path d="M790 618h-15v20h15z" stroke="#000" fill="#ffdba9"/><path d="M780 621.33h-10v3.34h10zm0 10h-10v3.34h10z" stroke="#000" fill="#ffdba9"/><use xlink:href="#d" transform="matrix(1,0,0,1,548,608) translate(50.525000000000006 24.799999999999997)"/><use xlink:href="#f" transform="matrix(1,0,0,1,548,608) translate(42.599999999999994 46.4)"/><path d="M912 750c0-2.76 2.24-5 5-5h262c2.76 0 5 2.24 5 5v54c0 2.76-2.24 5-5 5H917c-2.76 0-5-2.24-5-5z" stroke="#000" stroke-width="2" fill="#ffdba9"/><path d="M1174 755h-15v20h15z" stroke="#000" fill="#ffdba9"/><path d="M1164 758.33h-10v3.34h10zm0 10h-10v3.34h10z" stroke="#000" fill="#ffdba9"/><use xlink:href="#d" transform="matrix(1,0,0,1,932,745) translate(50.525000000000006 24.799999999999997)"/><use xlink:href="#g" transform="matrix(1,0,0,1,932,745) translate(5.775000000000006 46.4)"/><path d="M881 777h-11M836 777h-5" stroke="#000" stroke-width="2" fill="none"/><path d="M856 791c-7.73 0-14-6.27-14-14s6.27-14 14-14 14 6.27 14 14-6.27 14-14 14z" stroke="#000" stroke-width="2" fill="#fff"/><path d="M856 757c-11.05 0-20 8.95-20 20s8.95 20 20 20" stroke="#000" stroke-width="2" fill="none"/><path d="M881 777c0 .44-.36.8-.8.8h-9.4c-.44 0-.8-.36-.8-.8 0-.44.36-.8.8-.8h9.4c.44 0 .8.36.8.8z" fill="none"/><path d="M830 777h-28" stroke="#000" stroke-width="2" fill="none"/><path d="M831 778h3-4.03v-2H831zM802.03 778H801v-2h1.03z"/><path d="M910 777h-28" stroke="#000" stroke-width="2" fill="none"/><path d="M911 778h-1.03v-2H911zM882.03 778H881v-2h1.03z"/><path d="M664 683.5v11M664 728.5v5" stroke="#000" stroke-width="2" fill="none"/><path d="M678 708.5c0 7.73-6.27 14-14 14s-14-6.27-14-14 6.27-14 14-14 14 6.27 14 14z" stroke="#000" stroke-width="2" fill="#fff"/><path d="M644 708.5c0 11.05 8.95 20 20 20s20-8.95 20-20" stroke="#000" stroke-width="2" fill="none"/><path d="M664 683.5c.44 0 .8.36.8.8v9.4c0 .44-.36.8-.8.8-.44 0-.8-.36-.8-.8v-9.4c0-.44.36-.8.8-.8z" fill="none"/><path d="M664 734.5v8.5" stroke="#000" stroke-width="2" fill="none"/><path d="M665 734.53h-2v-1.03h2v-3zM665 744h-2v-1.03h2z"/><path d="M664 674v8.5" stroke="#000" stroke-width="2" fill="none"/><path d="M665 674.03h-2V673h2zM663 683.5v-1.03h2v1.03z"/><path d="M395 777h11M440 777h5" stroke="#000" stroke-width="2" fill="none"/><path d="M420 763c7.73 0 14 6.27 14 14s-6.27 14-14 14-14-6.27-14-14 6.27-14 14-14z" stroke="#000" stroke-width="2" fill="#fff"/><path d="M420 797c11.05 0 20-8.95 20-20s-8.95-20-20-20" stroke="#000" stroke-width="2" fill="none"/><path d="M395 777c0-.44.36-.8.8-.8h9.4c.44 0 .8.36.8.8 0 .44-.36.8-.8.8h-9.4c-.44 0-.8-.36-.8-.8z" fill="none"/><path d="M446 777h24" stroke="#000" stroke-width="2" fill="none"/><path d="M446.03 778H445v-2h-3 4.03zM471 778h-1.03v-2H471z"/><path d="M490 777h36" stroke="#000" stroke-width="2" fill="none"/><path d="M490.03 778H489v-2h1.03zM527 778h-1.03v-2H527z"/><path d="M96 750c0-2.76 2.24-5 5-5h262c2.76 0 5 2.24 5 5v54c0 2.76-2.24 5-5 5H101c-2.76 0-5-2.24-5-5z" stroke="#000" stroke-width="2" fill="#ffbbb1"/><path d="M358 755h-15v20h15z" stroke="#000" fill="#ffbbb1"/><path d="M348 758.33h-10v3.34h10zm0 10h-10v3.34h10z" stroke="#000" fill="#ffbbb1"/><use xlink:href="#d" transform="matrix(1,0,0,1,116,745) translate(50.525000000000006 24.799999999999997)"/><use xlink:href="#h" transform="matrix(1,0,0,1,116,745) translate(76.14999999999999 46.4)"/><path d="M370 777h24" stroke="#000" stroke-width="2" fill="none"/><path d="M370.03 778H369v-2h1.03zM395 778h-1.03v-2H395z"/><path d="M472 769h16v16h-16z" stroke="#000" stroke-width="2" fill="#fff"/><path d="M528 897c0-2.76 2.24-5 5-5h262c2.76 0 5 2.24 5 5v54c0 2.76-2.24 5-5 5H533c-2.76 0-5-2.24-5-5z" stroke="#000" stroke-width="2" fill="#c1e4f7"/><path d="M790 902h-15v20h15z" stroke="#000" fill="#c1e4f7"/><path d="M780 905.33h-10v3.34h10zm0 10h-10v3.34h10z" stroke="#000" fill="#c1e4f7"/><g><use xlink:href="#d" transform="matrix(1,0,0,1,548,892) translate(50.525000000000006 24.799999999999997)"/><use xlink:href="#i" transform="matrix(1,0,0,1,548,892) translate(50.099999999999994 46.4)"/></g><g><path d="M664 875.5v-11M664 830.5v-5" stroke="#000" stroke-width="2" fill="none"/><path d="M650 850.5c0-7.73 6.27-14 14-14s14 6.27 14 14-6.27 14-14 14-14-6.27-14-14z" stroke="#000" stroke-width="2" fill="#fff"/><path d="M684 850.5c0-11.05-8.95-20-20-20s-20 8.95-20 20" stroke="#000" stroke-width="2" fill="none"/><path d="M664 875.5c-.44 0-.8-.36-.8-.8v-9.4c0-.44.36-.8.8-.8.44 0 .8.36.8.8v9.4c0 .44-.36.8-.8.8z" fill="none"/></g><path d="M664 824.5V811" stroke="#000" stroke-width="2" fill="none"/><path d="M665 825.5h-2v3-4.03h2zM665 811.03h-2V810h2z"/><path d="M664 876.5V890" stroke="#000" stroke-width="2" fill="none"/><path d="M663 875.5h2v1.03h-2v-4.03zM665 891h-2v-1.03h2z"/><defs><path d="M18-100v-36l175-74v27L42-118l151 64v27" id="j"/><path d="M96-169c-40 0-48 33-48 73s9 75 48 75c24 0 41-14 43-38l32 2c-6 37-31 61-74 61-59 0-76-41-82-99-10-93 101-131 147-64 4 7 5 14 7 22l-32 3c-4-21-16-35-41-35" id="k"/><path d="M100-194c62-1 85 37 85 99 1 63-27 99-86 99S16-35 15-95c0-66 28-99 85-99zM99-20c44 1 53-31 53-75 0-43-8-75-51-75s-53 32-53 75 10 74 51 75" id="l"/><path d="M210-169c-67 3-38 105-44 169h-31v-121c0-29-5-50-35-48C34-165 62-65 56 0H25l-1-190h30c1 10-1 24 2 32 10-44 99-50 107 0 11-21 27-35 58-36 85-2 47 119 55 194h-31v-121c0-29-5-49-35-48" id="m"/><path d="M115-194c55 1 70 41 70 98S169 2 115 4C84 4 66-9 55-30l1 105H24l-1-265h31l2 30c10-21 28-34 59-34zm-8 174c40 0 45-34 45-75s-6-73-45-74c-42 0-51 32-51 76 0 43 10 73 51 73" id="n"/><path d="M117-194c89-4 53 116 60 194h-32v-121c0-31-8-49-39-48C34-167 62-67 57 0H25l-1-190h30c1 10-1 24 2 32 11-22 29-35 61-36" id="o"/><path d="M100-194c63 0 86 42 84 106H49c0 40 14 67 53 68 26 1 43-12 49-29l28 8c-11 28-37 45-77 45C44 4 14-33 15-96c1-61 26-98 85-98zm52 81c6-60-76-77-97-28-3 7-6 17-6 28h103" id="p"/><path d="M59-47c-2 24 18 29 38 22v24C64 9 27 4 27-40v-127H5v-23h24l9-43h21v43h35v23H59v120" id="q"/><path d="M18-27v-27l151-64-151-65v-27l175 74v36" id="r"/><g id="b"><use transform="matrix(0.05,0,0,0.05,0,0)" xlink:href="#j"/><use transform="matrix(0.05,0,0,0.05,10.5,0)" xlink:href="#j"/><use transform="matrix(0.05,0,0,0.05,21,0)" xlink:href="#k"/><use transform="matrix(0.05,0,0,0.05,30,0)" xlink:href="#l"/><use transform="matrix(0.05,0,0,0.05,40,0)" xlink:href="#m"/><use transform="matrix(0.05,0,0,0.05,54.95,0)" xlink:href="#n"/><use transform="matrix(0.05,0,0,0.05,64.95,0)" xlink:href="#l"/><use transform="matrix(0.05,0,0,0.05,74.95,0)" xlink:href="#o"/><use transform="matrix(0.05,0,0,0.05,84.95,0)" xlink:href="#p"/><use transform="matrix(0.05,0,0,0.05,94.95,0)" xlink:href="#o"/><use transform="matrix(0.05,0,0,0.05,104.95,0)" xlink:href="#q"/><use transform="matrix(0.05,0,0,0.05,109.95,0)" xlink:href="#r"/><use transform="matrix(0.05,0,0,0.05,120.45,0)" xlink:href="#r"/></g><path d="M160-131c35 5 61 23 61 61C221 17 115-2 30 0v-248c76 3 177-17 177 60 0 33-19 50-47 57zm-97-11c50-1 110 9 110-42 0-47-63-36-110-37v79zm0 115c55-2 124 14 124-45 0-56-70-42-124-44v89" id="s"/><path d="M141-36C126-15 110 5 73 4 37 3 15-17 15-53c-1-64 63-63 125-63 3-35-9-54-41-54-24 1-41 7-42 31l-33-3c5-37 33-52 76-52 45 0 72 20 72 64v82c-1 20 7 32 28 27v20c-31 9-61-2-59-35zM48-53c0 20 12 33 32 33 41-3 63-29 60-74-43 2-92-5-92 41" id="t"/><path d="M143 0L79-87 56-68V0H24v-261h32v163l83-92h37l-77 82L181 0h-38" id="u"/><path d="M30 0v-248h187v28H63v79h144v27H63v87h162V0H30" id="v"/><path d="M85-194c31 0 48 13 60 33l-1-100h32l1 261h-30c-2-10 0-23-3-31C134-8 116 4 85 4 32 4 16-35 15-94c0-66 23-100 70-100zm9 24c-40 0-46 34-46 75 0 40 6 74 45 74 42 0 51-32 51-76 0-42-9-74-50-73" id="w"/><g id="c"><use transform="matrix(0.05,0,0,0.05,0,0)" xlink:href="#s"/><use transform="matrix(0.05,0,0,0.05,12,0)" xlink:href="#t"/><use transform="matrix(0.05,0,0,0.05,22,0)" xlink:href="#k"/><use transform="matrix(0.05,0,0,0.05,31,0)" xlink:href="#u"/><use transform="matrix(0.05,0,0,0.05,40,0)" xlink:href="#v"/><use transform="matrix(0.05,0,0,0.05,52,0)" xlink:href="#o"/><use transform="matrix(0.05,0,0,0.05,62,0)" xlink:href="#w"/></g><g id="d"><use transform="matrix(0.05,0,0,0.05,0,0)" xlink:href="#j"/><use transform="matrix(0.05,0,0,0.05,10.5,0)" xlink:href="#j"/><use transform="matrix(0.05,0,0,0.05,21,0)" xlink:href="#k"/><use transform="matrix(0.05,0,0,0.05,30,0)" xlink:href="#l"/><use transform="matrix(0.05,0,0,0.05,40,0)" xlink:href="#m"/><use transform="matrix(0.05,0,0,0.05,54.95,0)" xlink:href="#n"/><use transform="matrix(0.05,0,0,0.05,64.95,0)" xlink:href="#l"/><use transform="matrix(0.05,0,0,0.05,74.95,0)" xlink:href="#o"/><use transform="matrix(0.05,0,0,0.05,84.95,0)" xlink:href="#p"/><use transform="matrix(0.05,0,0,0.05,94.95,0)" xlink:href="#o"/><use transform="matrix(0.05,0,0,0.05,104.95,0)" xlink:href="#q"/><use transform="matrix(0.05,0,0,0.05,109.95,0)" xlink:href="#r"/><use transform="matrix(0.05,0,0,0.05,120.45,0)" xlink:href="#r"/></g><path d="M230 0l2-204L168 0h-37L68-204 70 0H24v-248h70l56 185 57-185h69V0h-46" id="x"/><path d="M110-194c64 0 96 36 96 99 0 64-35 99-97 99-61 0-95-36-95-99 0-62 34-99 96-99zm-1 164c35 0 45-28 45-65 0-40-10-65-43-65-34 0-45 26-45 65 0 36 10 65 43 65" id="y"/><path d="M88-194c31-1 46 15 58 34l-1-101h50l1 261h-48c-2-10 0-23-3-31C134-8 116 4 84 4 32 4 16-41 15-95c0-56 19-97 73-99zm17 164c33 0 40-30 41-66 1-37-9-64-41-64s-38 30-39 65c0 43 13 65 39 65" id="z"/><path d="M25-224v-37h50v37H25zM25 0v-190h50V0H25" id="A"/><path d="M121-226c-27-7-43 5-38 36h38v33H83V0H34v-157H6v-33h28c-9-59 32-81 87-68v32" id="B"/><path d="M190-63c-7 42-38 67-86 67-59 0-84-38-90-98-12-110 154-137 174-36l-49 2c-2-19-15-32-35-32-30 0-35 28-38 64-6 74 65 87 74 30" id="C"/><path d="M133-34C117-15 103 5 69 4 32 3 11-16 11-54c-1-60 55-63 116-61 1-26-3-47-28-47-18 1-26 9-28 27l-52-2c7-38 36-58 82-57s74 22 75 68l1 82c-1 14 12 18 25 15v27c-30 8-71 5-69-32zm-48 3c29 0 43-24 42-57-32 0-66-3-65 30 0 17 8 27 23 27" id="D"/><path d="M115-3C79 11 28 4 28-45v-112H4v-33h27l15-45h31v45h36v33H77v99c-1 23 16 31 38 25v30" id="E"/><path d="M135-194c87-1 58 113 63 194h-50c-7-57 23-157-34-157-59 0-34 97-39 157H25l-1-190h47c2 12-1 28 3 38 12-26 28-41 61-42" id="F"/><path d="M182-130c37 4 62 22 62 59C244 23 116-4 24 0v-248c84 5 203-23 205 63 0 31-19 50-47 55zM76-148c40-3 101 13 101-30 0-44-60-28-101-31v61zm0 110c48-3 116 14 116-37 0-48-69-32-116-35v72" id="G"/><path d="M85 4C-2 5 27-109 22-190h50c7 57-23 150 33 157 60-5 35-97 40-157h50l1 190h-47c-2-12 1-28-3-38-12 25-28 42-61 42" id="H"/><path d="M137-138c1-29-70-34-71-4 15 46 118 7 119 86 1 83-164 76-172 9l43-7c4 19 20 25 44 25 33 8 57-30 24-41C81-84 22-81 20-136c-2-80 154-74 161-7" id="I"/><path d="M195-6C206 82 75 100 31 46c-4-6-6-13-8-21l49-6c3 16 16 24 34 25 40 0 42-37 40-79-11 22-30 35-61 35-53 0-70-43-70-97 0-56 18-96 73-97 30 0 46 14 59 34l2-30h47zm-90-29c32 0 41-27 41-63 0-35-9-62-40-62-32 0-39 29-40 63 0 36 9 62 39 62" id="J"/><path d="M185-48c-13 30-37 53-82 52C43 2 14-33 14-96s30-98 90-98c62 0 83 45 84 108H66c0 31 8 55 39 56 18 0 30-7 34-22zm-45-69c5-46-57-63-70-21-2 6-4 13-4 21h74" id="K"/><path d="M135-150c-39-12-60 13-60 57V0H25l-1-190h47c2 13-1 29 3 40 6-28 27-53 61-41v41" id="L"/><g id="e"><use transform="matrix(0.05,0,0,0.05,0,0)" xlink:href="#x"/><use transform="matrix(0.05,0,0,0.05,14.950000000000001,0)" xlink:href="#y"/><use transform="matrix(0.05,0,0,0.05,25.900000000000002,0)" xlink:href="#z"/><use transform="matrix(0.05,0,0,0.05,36.85,0)" xlink:href="#A"/><use transform="matrix(0.05,0,0,0.05,41.85,0)" xlink:href="#B"/><use transform="matrix(0.05,0,0,0.05,47.800000000000004,0)" xlink:href="#A"/><use transform="matrix(0.05,0,0,0.05,52.800000000000004,0)" xlink:href="#C"/><use transform="matrix(0.05,0,0,0.05,62.800000000000004,0)" xlink:href="#D"/><use transform="matrix(0.05,0,0,0.05,72.80000000000001,0)" xlink:href="#E"/><use transform="matrix(0.05,0,0,0.05,78.75000000000001,0)" xlink:href="#A"/><use transform="matrix(0.05,0,0,0.05,83.75000000000001,0)" xlink:href="#y"/><use transform="matrix(0.05,0,0,0.05,94.70000000000002,0)" xlink:href="#F"/><use transform="matrix(0.05,0,0,0.05,105.65000000000003,0)" xlink:href="#G"/><use transform="matrix(0.05,0,0,0.05,118.60000000000002,0)" xlink:href="#H"/><use transform="matrix(0.05,0,0,0.05,129.55,0)" xlink:href="#I"/><use transform="matrix(0.05,0,0,0.05,139.55,0)" xlink:href="#x"/><use transform="matrix(0.05,0,0,0.05,154.5,0)" xlink:href="#D"/><use transform="matrix(0.05,0,0,0.05,164.5,0)" xlink:href="#F"/><use transform="matrix(0.05,0,0,0.05,175.45,0)" xlink:href="#D"/><use transform="matrix(0.05,0,0,0.05,185.45,0)" xlink:href="#J"/><use transform="matrix(0.05,0,0,0.05,196.39999999999998,0)" xlink:href="#K"/><use transform="matrix(0.05,0,0,0.05,206.39999999999998,0)" xlink:href="#L"/></g><path d="M169-182c-1-43-94-46-97-3 18 66 151 10 154 114 3 95-165 93-204 36-6-8-10-19-12-30l50-8c3 46 112 56 116 5-17-69-150-10-154-114-4-87 153-88 188-35 5 8 8 18 10 28" id="M"/><path d="M135-194c53 0 70 44 70 98 0 56-19 98-73 100-31 1-45-17-59-34 3 33 2 69 2 105H25l-1-265h48c2 10 0 23 3 31 11-24 29-35 60-35zM114-30c33 0 39-31 40-66 0-38-9-64-40-64-56 0-55 130 0 130" id="N"/><path d="M25 0v-261h50V0H25" id="O"/><path d="M24-248c93 1 206-16 204 79-1 75-69 88-152 82V0H24v-248zm52 121c47 0 100 7 100-41 0-47-54-39-100-39v80" id="P"/><g id="f"><use transform="matrix(0.05,0,0,0.05,0,0)" xlink:href="#M"/><use transform="matrix(0.05,0,0,0.05,12,0)" xlink:href="#N"/><use transform="matrix(0.05,0,0,0.05,22.950000000000003,0)" xlink:href="#D"/><use transform="matrix(0.05,0,0,0.05,32.95,0)" xlink:href="#E"/><use transform="matrix(0.05,0,0,0.05,38.900000000000006,0)" xlink:href="#A"/><use transform="matrix(0.05,0,0,0.05,43.900000000000006,0)" xlink:href="#D"/><use transform="matrix(0.05,0,0,0.05,53.900000000000006,0)" xlink:href="#O"/><use transform="matrix(0.05,0,0,0.05,58.900000000000006,0)" xlink:href="#P"/><use transform="matrix(0.05,0,0,0.05,70.9,0)" xlink:href="#L"/><use transform="matrix(0.05,0,0,0.05,77.9,0)" xlink:href="#y"/><use transform="matrix(0.05,0,0,0.05,88.85000000000001,0)" xlink:href="#C"/><use transform="matrix(0.05,0,0,0.05,98.85000000000001,0)" xlink:href="#K"/><use transform="matrix(0.05,0,0,0.05,108.85000000000001,0)" xlink:href="#I"/><use transform="matrix(0.05,0,0,0.05,118.85000000000001,0)" xlink:href="#I"/><use transform="matrix(0.05,0,0,0.05,128.85000000000002,0)" xlink:href="#y"/><use transform="matrix(0.05,0,0,0.05,139.8,0)" xlink:href="#L"/></g><path d="M67-125c0 53 21 87 73 88 37 1 54-22 65-47l45 17C233-25 199 4 140 4 58 4 20-42 15-125 8-235 124-281 211-232c18 10 29 29 36 50l-46 12c-8-25-30-41-62-41-52 0-71 34-72 86" id="Q"/><path d="M24 0v-248h195v40H76v63h132v40H76v65h150V0H24" id="R"/><g id="g"><use transform="matrix(0.05,0,0,0.05,0,0)" xlink:href="#Q"/><use transform="matrix(0.05,0,0,0.05,12.950000000000001,0)" xlink:href="#y"/><use transform="matrix(0.05,0,0,0.05,23.900000000000002,0)" xlink:href="#F"/><use transform="matrix(0.05,0,0,0.05,34.85,0)" xlink:href="#F"/><use transform="matrix(0.05,0,0,0.05,45.800000000000004,0)" xlink:href="#K"/><use transform="matrix(0.05,0,0,0.05,55.800000000000004,0)" xlink:href="#C"/><use transform="matrix(0.05,0,0,0.05,65.80000000000001,0)" xlink:href="#E"/><use transform="matrix(0.05,0,0,0.05,71.75000000000001,0)" xlink:href="#A"/><use transform="matrix(0.05,0,0,0.05,76.75000000000001,0)" xlink:href="#y"/><use transform="matrix(0.05,0,0,0.05,87.70000000000002,0)" xlink:href="#F"/><use transform="matrix(0.05,0,0,0.05,98.65000000000002,0)" xlink:href="#R"/><use transform="matrix(0.05,0,0,0.05,110.65000000000003,0)" xlink:href="#F"/><use transform="matrix(0.05,0,0,0.05,121.60000000000002,0)" xlink:href="#z"/><use transform="matrix(0.05,0,0,0.05,132.55,0)" xlink:href="#P"/><use transform="matrix(0.05,0,0,0.05,144.55,0)" xlink:href="#L"/><use transform="matrix(0.05,0,0,0.05,151.55,0)" xlink:href="#y"/><use transform="matrix(0.05,0,0,0.05,162.5,0)" xlink:href="#C"/><use transform="matrix(0.05,0,0,0.05,172.5,0)" xlink:href="#K"/><use transform="matrix(0.05,0,0,0.05,182.5,0)" xlink:href="#I"/><use transform="matrix(0.05,0,0,0.05,192.5,0)" xlink:href="#I"/><use transform="matrix(0.05,0,0,0.05,202.5,0)" xlink:href="#y"/><use transform="matrix(0.05,0,0,0.05,213.44999999999996,0)" xlink:href="#L"/></g><path d="M76-208v77h127v40H76V0H24v-248h183v40H76" id="S"/><g id="h"><use transform="matrix(0.05,0,0,0.05,0,0)" xlink:href="#S"/><use transform="matrix(0.05,0,0,0.05,10.950000000000001,0)" xlink:href="#L"/><use transform="matrix(0.05,0,0,0.05,17.950000000000003,0)" xlink:href="#y"/><use transform="matrix(0.05,0,0,0.05,28.900000000000006,0)" xlink:href="#F"/><use transform="matrix(0.05,0,0,0.05,39.85000000000001,0)" xlink:href="#E"/><use transform="matrix(0.05,0,0,0.05,45.80000000000001,0)" xlink:href="#R"/><use transform="matrix(0.05,0,0,0.05,57.80000000000001,0)" xlink:href="#F"/><use transform="matrix(0.05,0,0,0.05,68.75000000000001,0)" xlink:href="#z"/></g><g id="i"><use transform="matrix(0.05,0,0,0.05,0,0)" xlink:href="#M"/><use transform="matrix(0.05,0,0,0.05,12,0)" xlink:href="#E"/><use transform="matrix(0.05,0,0,0.05,17.95,0)" xlink:href="#D"/><use transform="matrix(0.05,0,0,0.05,27.950000000000003,0)" xlink:href="#E"/><use transform="matrix(0.05,0,0,0.05,33.9,0)" xlink:href="#K"/><use transform="matrix(0.05,0,0,0.05,43.9,0)" xlink:href="#P"/><use transform="matrix(0.05,0,0,0.05,55.900000000000006,0)" xlink:href="#L"/><use transform="matrix(0.05,0,0,0.05,62.900000000000006,0)" xlink:href="#y"/><use transform="matrix(0.05,0,0,0.05,73.85,0)" xlink:href="#C"/><use transform="matrix(0.05,0,0,0.05,83.85,0)" xlink:href="#K"/><use transform="matrix(0.05,0,0,0.05,93.85,0)" xlink:href="#I"/><use transform="matrix(0.05,0,0,0.05,103.84999999999998,0)" xlink:href="#I"/><use transform="matrix(0.05,0,0,0.05,113.84999999999998,0)" xlink:href="#y"/><use transform="matrix(0.05,0,0,0.05,124.80000000000001,0)" xlink:href="#L"/></g></defs></g></svg>