<svg xmlns="http://www.w3.org/2000/svg" xmlns:xlink="http://www.w3.org/1999/xlink" xmlns:lucid="lucid" width="1269.82" height="592.73"><g transform="translate(101.33333333333394 -96.93333333333348)" lucid:page-tab-id="aHUh7kBOv0_B"><path d="M180 120h200v60H180z" stroke="#333" stroke-width="2" fill="#fff"/><use xlink:href="#a" transform="matrix(1,0,0,1,188,128) translate(45.074999999999996 25.6)"/><path d="M540 120h190v60H540z" stroke="#333" stroke-width="2" fill="#fff"/><use xlink:href="#b" transform="matrix(1,0,0,1,548,128.00000000000009) translate(19.14999999999999 25.6)"/><path d="M411.38 150H522.6" stroke="#333" fill="none"/><path d="M381.7 150l14.86-14.85L411.7 150l-15.14 14.85zM537.38 150l-14.26 4.64v-9.28z" stroke="#333" fill="#333"/><use xlink:href="#c" transform="matrix(1,0,0,1,477.4718853109806,124.40000000000008) translate(0 14.4)"/><path d="M580 260h160v60H580z" stroke="#333" stroke-width="2" fill="#fff"/><use xlink:href="#d" transform="matrix(1,0,0,1,588,268) translate(32.55 25.6)"/><path d="M220 260h160v60H220z" stroke="#333" stroke-width="2" fill="#fff"/><use xlink:href="#e" transform="matrix(1,0,0,1,228,268) translate(37.949999999999996 25.6)"/><path d="M635 258.5v-61.12" stroke="#333" fill="none"/><path d="M635.5 259h-1v-.5h1z" fill="#333"/><path d="M635 182.62l4.64 14.26h-9.28z" stroke="#333" fill="#fff"/><path d="M300 258.5V220h335v-22.62" stroke="#333" fill="none"/><path d="M300.5 259h-1v-.5h1z" fill="#333"/><path d="M635 182.62l4.64 14.26h-9.28z" stroke="#333" fill="#fff"/><path d="M720 368.5h160v60H720z" stroke="#333" stroke-width="2" fill="#f9d2de"/><use xlink:href="#f" transform="matrix(1,0,0,1,728,376.49999999999994) translate(36.55 25.6)"/><path d="M660 351.38v47.12h42.62" stroke="#333" fill="none"/><path d="M660 321.7l14.85 14.86L660 351.7l-14.85-15.14zM717.38 398.5l-14.26 4.64v-9.28z" stroke="#333" fill="#333"/><use xlink:href="#g" transform="matrix(1,0,0,1,633.1467922773274,402.49999999999994) translate(0 14.4)"/><path d="M520 508.5h160v60H520z" stroke="#333" stroke-width="2" fill="#f9d2de"/><use xlink:href="#h" transform="matrix(1,0,0,1,528,516.5000000000001) translate(56 25.6)"/><path d="M720 508.5h160v60H720z" stroke="#333" stroke-width="2" fill="#f9d2de"/><use xlink:href="#i" transform="matrix(1,0,0,1,728,516.5000000000001) translate(41.525 25.6)"/><path d="M920 508.5h160v60H920z" stroke="#333" stroke-width="2" fill="#f9d2de"/><use xlink:href="#j" transform="matrix(1,0,0,1,928,516.5000000000001) translate(22.049999999999997 25.6)"/><path d="M1000 507v-38.5H800v-22.62" stroke="#333" fill="none"/><path d="M1000.5 507.5h-1v-.5h1z" fill="#333"/><path d="M800 431.12l4.64 14.26h-9.28z" stroke="#333" fill="#fff"/><path d="M800 507v-61.12" stroke="#333" fill="none"/><path d="M800.5 507.5h-1v-.5h1z" fill="#333"/><path d="M800 431.12l4.64 14.26h-9.28z" stroke="#333" fill="#fff"/><path d="M600 507v-38.5h200v-22.62" stroke="#333" fill="none"/><path d="M600.5 507.5h-1v-.5h1z" fill="#333"/><path d="M800 431.12l4.64 14.26h-9.28z" stroke="#333" fill="#fff"/><path d="M300 400h160v60H300z" stroke="#333" stroke-width="2" fill="#fff"/><use xlink:href="#k" transform="matrix(1,0,0,1,308,408) translate(41.05 25.6)"/><path d="M80 400h160v60H80z" stroke="#333" stroke-width="2" fill="#c1e4f7"/><use xlink:href="#l" transform="matrix(1,0,0,1,88,408) translate(8.29999999999999 25.6)"/><path d="M160 398.5V360h142v-22.62" stroke="#333" fill="none"/><path d="M160.5 399h-1v-.5h1z" fill="#333"/><path d="M302 322.62l4.64 14.26h-9.28z" stroke="#333" fill="#fff"/><path d="M380 398.5V360h-78v-22.62" stroke="#333" fill="none"/><path d="M380.5 399h-1v-.5h1z" fill="#333"/><path d="M302 322.62l4.64 14.26h-9.28z" stroke="#333" fill="#fff"/><path d="M771.38 271.2H781V168.53h-33.62" stroke="#333" fill="none"/><path d="M741.7 271.2l14.86-14.85 15.15 14.85-15.14 14.85zM732.62 168.53l14.26-4.63v9.27z" stroke="#333" fill="#333"/><use xlink:href="#m" transform="matrix(1,0,0,1,745.6006877137569,172.53333333333353) translate(0 14.4)"/><path d="M771.38 312.53H840v-184h-92.62" stroke="#333" fill="none"/><path d="M741.7 312.53l14.86-14.85 15.15 14.85-15.14 14.85zM732.62 128.53l14.26-4.63v9.27z" stroke="#333" fill="#333"/><use xlink:href="#n" transform="matrix(1,0,0,1,741.461150482325,102.93333333333348) translate(0 14.4)"/><path d="M-81.33 609.67h160v60h-160z" stroke="#333" stroke-width="2" fill="#c1e4f7"/><use xlink:href="#o" transform="matrix(1,0,0,1,-73.33333333333394,617.666666666667) translate(4.650000000000006 25.6)"/><path d="M99.33 609.67h180v60h-180z" stroke="#333" stroke-width="2" fill="#c1e4f7"/><use xlink:href="#p" transform="matrix(1,0,0,1,107.33333333333303,617.666666666667) translate(-2.9000000000000057 25.6)"/><path d="M300 609.67h160v60H300z" stroke="#333" stroke-width="2" fill="#c1e4f7"/><use xlink:href="#q" transform="matrix(1,0,0,1,308,617.666666666667) translate(9.074999999999996 25.6)"/><path d="M189.33 608.17V477.38" stroke="#333" fill="none"/><path d="M189.83 608.67h-1v-.52h1z" fill="#333"/><path d="M189.33 462.62l4.64 14.26h-9.27z" stroke="#333" fill="#fff"/><path d="M380 608.17v-73.34H188.92v-57.45" stroke="#333" fill="none"/><path d="M380.5 608.67h-1v-.52h1z" fill="#333"/><path d="M188.92 462.62l4.63 14.26h-9.27z" stroke="#333" fill="#fff"/><path d="M-1.33 608.17v-73.34h190.25v-57.45" stroke="#333" fill="none"/><path d="M-.83 608.67h-1v-.52h1z" fill="#333"/><path d="M188.92 462.62l4.63 14.26h-9.27z" stroke="#333" fill="#fff"/><path d="M-80 120H80v60H-80z" stroke="#333" stroke-width="2" fill="#c7e8ac"/><use xlink:href="#r" transform="matrix(1,0,0,1,-72,128.00000000000009) translate(43.025 25.6)"/><path d="M78.5 430H0V181.5" stroke="#333" fill="none"/><path d="M79 430.5h-.5v-1h.5zM.5 181.5h-1v-.5h1z" fill="#333"/><use xlink:href="#s" transform="matrix(1,0,0,1,8,199.38565286087805) translate(0 14.4)"/><path d="M500 644.38c0 2.42-1.9 4.4-4.24 4.4-2.34 0-4.24-1.98-4.24-4.4 0-2.42 1.9-4.38 4.24-4.38 2.34 0 4.24 1.96 4.24 4.38zM520 644.38c0 2.42-1.9 4.4-4.24 4.4-2.34 0-4.24-1.98-4.24-4.4 0-2.42 1.9-4.38 4.24-4.38 2.34 0 4.24 1.96 4.24 4.38zM540 644.38c0 2.42-1.9 4.4-4.24 4.4-2.34 0-4.24-1.98-4.24-4.4 0-2.42 1.9-4.38 4.24-4.38 2.34 0 4.24 1.96 4.24 4.38zM1108.48 538.5c0 2.42-1.9 4.38-4.24 4.38-2.34 0-4.24-1.96-4.24-4.38s1.9-4.38 4.24-4.38c2.34 0 4.24 1.96 4.24 4.38zM1128.48 538.5c0 2.42-1.9 4.38-4.24 4.38-2.34 0-4.24-1.96-4.24-4.38s1.9-4.38 4.24-4.38c2.34 0 4.24 1.96 4.24 4.38zM1148.48 538.5c0 2.42-1.9 4.38-4.24 4.38-2.34 0-4.24-1.96-4.24-4.38s1.9-4.38 4.24-4.38c2.34 0 4.24 1.96 4.24 4.38z" stroke="#000" stroke-width="2"/><defs><path d="M30 0v-248h33v221h125V0H30" id="t"/><path d="M141-36C126-15 110 5 73 4 37 3 15-17 15-53c-1-64 63-63 125-63 3-35-9-54-41-54-24 1-41 7-42 31l-33-3c5-37 33-52 76-52 45 0 72 20 72 64v82c-1 20 7 32 28 27v20c-31 9-61-2-59-35zM48-53c0 20 12 33 32 33 41-3 63-29 60-74-43 2-92-5-92 41" id="u"/><path d="M115-194c53 0 69 39 70 98 0 66-23 100-70 100C84 3 66-7 56-30L54 0H23l1-261h32v101c10-23 28-34 59-34zm-8 174c40 0 45-34 45-75 0-40-5-75-45-74-42 0-51 32-51 76 0 43 10 73 51 73" id="v"/><path d="M100-194c63 0 86 42 84 106H49c0 40 14 67 53 68 26 1 43-12 49-29l28 8c-11 28-37 45-77 45C44 4 14-33 15-96c1-61 26-98 85-98zm52 81c6-60-76-77-97-28-3 7-6 17-6 28h103" id="w"/><path d="M24 0v-261h32V0H24" id="x"/><path d="M30-248c87 1 191-15 191 75 0 78-77 80-158 76V0H30v-248zm33 125c57 0 124 11 124-50 0-59-68-47-124-48v98" id="y"/><path d="M84 4C-5 8 30-112 23-190h32v120c0 31 7 50 39 49 72-2 45-101 50-169h31l1 190h-30c-1-10 1-25-2-33-11 22-28 36-60 37" id="z"/><path d="M177-190C167-65 218 103 67 71c-23-6-38-20-44-43l32-5c15 47 100 32 89-28v-30C133-14 115 1 83 1 29 1 15-40 15-95c0-56 16-97 71-98 29-1 48 16 59 35 1-10 0-23 2-32h30zM94-22c36 0 50-32 50-73 0-42-14-75-50-75-39 0-46 34-46 75s6 73 46 73" id="A"/><path d="M24-231v-30h32v30H24zM24 0v-190h32V0H24" id="B"/><path d="M117-194c89-4 53 116 60 194h-32v-121c0-31-8-49-39-48C34-167 62-67 57 0H25l-1-190h30c1 10-1 24 2 32 11-22 29-35 61-36" id="C"/><g id="a"><use transform="matrix(0.05,0,0,0.05,0,0)" xlink:href="#t"/><use transform="matrix(0.05,0,0,0.05,10,0)" xlink:href="#u"/><use transform="matrix(0.05,0,0,0.05,20,0)" xlink:href="#v"/><use transform="matrix(0.05,0,0,0.05,30,0)" xlink:href="#w"/><use transform="matrix(0.05,0,0,0.05,40,0)" xlink:href="#x"/><use transform="matrix(0.05,0,0,0.05,43.95,0)" xlink:href="#y"/><use transform="matrix(0.05,0,0,0.05,55.95,0)" xlink:href="#x"/><use transform="matrix(0.05,0,0,0.05,59.900000000000006,0)" xlink:href="#z"/><use transform="matrix(0.05,0,0,0.05,69.9,0)" xlink:href="#A"/><use transform="matrix(0.05,0,0,0.05,79.9,0)" xlink:href="#B"/><use transform="matrix(0.05,0,0,0.05,83.85000000000001,0)" xlink:href="#C"/></g><path d="M125-24c46 0 70-25 89-51l25 16C214-24 183 4 123 4 8 4-5-146 60-208c32-50 158-61 191-5 5 7 9 14 11 22l-32 10c-9-28-33-43-69-43-74 0-108 51-108 125 0 46 24 75 72 75" id="D"/><path d="M165-48c-4 18 1 34 23 27l-3 20c-29 8-62 0-52-35h-2C116-14 99 4 63 4 30 4 8-16 8-49c0-68 71-67 138-67 10-26 0-56-31-54-26 1-42 9-47 31l-32-5c8-67 160-71 144 15-5 28-9 54-15 81zM42-50c3 52 80 24 89-6 7-12 7-24 11-38-47 1-103-4-100 44" id="E"/><path d="M6 0l50-261h32L37 0H6" id="F"/><path d="M44-68c0 29 11 47 38 47 30 0 42-19 51-41l28 9C148-21 126 4 82 4 31 4 10-29 12-85c3-77 74-140 146-93 12 8 15 23 18 40l-31 5c-1-22-13-36-36-36-52 0-65 49-65 101" id="G"/><path d="M67 3c-93-2-31-127-26-193h32L48-50c-3 39 53 32 70 12 30-34 30-101 43-152h32L157 0h-30c1-10 6-24 4-33-14 20-29 37-64 36" id="H"/><path d="M51-54c-9 22 5 41 31 30L79-1C43 14 10-4 19-52l22-115H19l5-23h22l19-43h21l-9 43h35l-4 23H73" id="I"/><path d="M50-231l6-30h32l-6 30H50zM6 0l37-190h31L37 0H6" id="J"/><path d="M30-147c31-64 166-65 159 27C183-49 158 1 86 4 9 8 1-88 30-147zM88-20c53 0 68-48 68-100 0-31-11-51-44-50-52 1-68 46-68 97 0 32 13 53 44 53" id="K"/><path d="M67-158c22-48 132-52 116 29L158 0h-32l25-140c3-38-53-32-70-12C52-117 51-52 38 0H6l36-190h30" id="L"/><path d="M67-158c15-20 31-36 64-36 94 0 33 127 27 194h-32l25-140c3-38-53-32-70-12C52-117 51-51 37 0H6l51-261h31" id="M"/><g id="b"><use transform="matrix(0.05,0,0,0.05,0,0)" xlink:href="#D"/><use transform="matrix(0.05,0,0,0.05,12.950000000000001,0)" xlink:href="#E"/><use transform="matrix(0.05,0,0,0.05,22.950000000000003,0)" xlink:href="#F"/><use transform="matrix(0.05,0,0,0.05,26.900000000000002,0)" xlink:href="#G"/><use transform="matrix(0.05,0,0,0.05,35.900000000000006,0)" xlink:href="#H"/><use transform="matrix(0.05,0,0,0.05,45.900000000000006,0)" xlink:href="#F"/><use transform="matrix(0.05,0,0,0.05,49.85000000000001,0)" xlink:href="#E"/><use transform="matrix(0.05,0,0,0.05,59.85,0)" xlink:href="#I"/><use transform="matrix(0.05,0,0,0.05,64.85000000000001,0)" xlink:href="#J"/><use transform="matrix(0.05,0,0,0.05,68.80000000000001,0)" xlink:href="#K"/><use transform="matrix(0.05,0,0,0.05,78.80000000000001,0)" xlink:href="#L"/><use transform="matrix(0.05,0,0,0.05,88.80000000000001,0)" xlink:href="#D"/><use transform="matrix(0.05,0,0,0.05,101.75000000000001,0)" xlink:href="#M"/><use transform="matrix(0.05,0,0,0.05,111.75,0)" xlink:href="#E"/><use transform="matrix(0.05,0,0,0.05,121.75,0)" xlink:href="#J"/><use transform="matrix(0.05,0,0,0.05,125.7,0)" xlink:href="#L"/></g><path d="M96-169c-40 0-48 33-48 73s9 75 48 75c24 0 41-14 43-38l32 2c-6 37-31 61-74 61-59 0-76-41-82-99-10-93 101-131 147-64 4 7 5 14 7 22l-32 3c-4-21-16-35-41-35" id="N"/><path d="M100-194c62-1 85 37 85 99 1 63-27 99-86 99S16-35 15-95c0-66 28-99 85-99zM99-20c44 1 53-31 53-75 0-43-8-75-51-75s-53 32-53 75 10 74 51 75" id="O"/><path d="M101-234c-31-9-42 10-38 44h38v23H63V0H32v-167H5v-23h27c-7-52 17-82 69-68v24" id="P"/><g id="c"><use transform="matrix(0.05,0,0,0.05,0,0)" xlink:href="#N"/><use transform="matrix(0.05,0,0,0.05,9,0)" xlink:href="#O"/><use transform="matrix(0.05,0,0,0.05,19,0)" xlink:href="#C"/><use transform="matrix(0.05,0,0,0.05,29,0)" xlink:href="#P"/><use transform="matrix(0.05,0,0,0.05,34,0)" xlink:href="#B"/><use transform="matrix(0.05,0,0,0.05,37.95,0)" xlink:href="#A"/></g><path d="M140-251c81 0 123 46 123 126C263-46 219 4 140 4 59 4 17-45 17-125s42-126 123-126zm0 227c63 0 89-41 89-101s-29-99-89-99c-61 0-89 39-89 99S79-25 140-24" id="Q"/><path d="M115-194c55 1 70 41 70 98S169 2 115 4C84 4 66-9 55-30l1 105H24l-1-265h31l2 30c10-21 28-34 59-34zm-8 174c40 0 45-34 45-75s-6-73-45-74c-42 0-51 32-51 76 0 43 10 73 51 73" id="R"/><path d="M114-163C36-179 61-72 57 0H25l-1-190h30c1 12-1 29 2 39 6-27 23-49 58-41v29" id="S"/><path d="M59-47c-2 24 18 29 38 22v24C64 9 27 4 27-40v-127H5v-23h24l9-43h21v43h35v23H59v120" id="T"/><g id="d"><use transform="matrix(0.05,0,0,0.05,0,0)" xlink:href="#Q"/><use transform="matrix(0.05,0,0,0.05,14,0)" xlink:href="#R"/><use transform="matrix(0.05,0,0,0.05,24,0)" xlink:href="#w"/><use transform="matrix(0.05,0,0,0.05,34,0)" xlink:href="#S"/><use transform="matrix(0.05,0,0,0.05,39.95,0)" xlink:href="#u"/><use transform="matrix(0.05,0,0,0.05,49.95,0)" xlink:href="#T"/><use transform="matrix(0.05,0,0,0.05,54.95,0)" xlink:href="#B"/><use transform="matrix(0.05,0,0,0.05,58.900000000000006,0)" xlink:href="#O"/><use transform="matrix(0.05,0,0,0.05,68.9,0)" xlink:href="#C"/></g><path d="M151-220L108 0H75l42-220H32l6-28h203l-5 28h-85" id="U"/><path d="M111-194c62-3 86 47 72 106H45c-7 38 6 69 45 68 27-1 43-14 53-32l24 11C152-15 129 4 87 4 38 3 12-23 12-71c0-70 32-119 99-123zm44 81c14-66-71-72-95-28-4 8-8 17-11 28h106" id="V"/><path d="M66-151c12-25 30-51 66-40l-6 26C45-176 58-65 38 0H6l36-190h30" id="W"/><path d="M248-111c6-24 9-61-24-58-72 9-57 108-77 169h-31l26-142c3-37-50-30-64-10C52-115 50-51 37 0H6l36-190h30c-1 10-6 24-4 32 13-43 101-52 105 5 13-22 29-41 61-41 90 0 28 129 23 194h-31" id="X"/><g id="e"><use transform="matrix(0.05,0,0,0.05,0,0)" xlink:href="#U"/><use transform="matrix(0.05,0,0,0.05,9.3,0)" xlink:href="#V"/><use transform="matrix(0.05,0,0,0.05,19.3,0)" xlink:href="#W"/><use transform="matrix(0.05,0,0,0.05,25.25,0)" xlink:href="#X"/><use transform="matrix(0.05,0,0,0.05,40.2,0)" xlink:href="#J"/><use transform="matrix(0.05,0,0,0.05,44.150000000000006,0)" xlink:href="#L"/><use transform="matrix(0.05,0,0,0.05,54.150000000000006,0)" xlink:href="#E"/><use transform="matrix(0.05,0,0,0.05,64.15,0)" xlink:href="#F"/></g><g id="f"><use transform="matrix(0.05,0,0,0.05,0,0)" xlink:href="#Q"/><use transform="matrix(0.05,0,0,0.05,14,0)" xlink:href="#R"/><use transform="matrix(0.05,0,0,0.05,24,0)" xlink:href="#w"/><use transform="matrix(0.05,0,0,0.05,34,0)" xlink:href="#S"/><use transform="matrix(0.05,0,0,0.05,39.95,0)" xlink:href="#u"/><use transform="matrix(0.05,0,0,0.05,49.95,0)" xlink:href="#T"/><use transform="matrix(0.05,0,0,0.05,54.95,0)" xlink:href="#O"/><use transform="matrix(0.05,0,0,0.05,64.95,0)" xlink:href="#S"/></g><g id="g"><use transform="matrix(0.05,0,0,0.05,0,0)" xlink:href="#O"/><use transform="matrix(0.05,0,0,0.05,10,0)" xlink:href="#R"/><use transform="matrix(0.05,0,0,0.05,20,0)" xlink:href="#w"/><use transform="matrix(0.05,0,0,0.05,30,0)" xlink:href="#S"/><use transform="matrix(0.05,0,0,0.05,35.95,0)" xlink:href="#u"/><use transform="matrix(0.05,0,0,0.05,45.95,0)" xlink:href="#T"/><use transform="matrix(0.05,0,0,0.05,50.95,0)" xlink:href="#O"/><use transform="matrix(0.05,0,0,0.05,60.95,0)" xlink:href="#S"/></g><path d="M205 0l-28-72H64L36 0H1l101-248h38L239 0h-34zm-38-99l-47-123c-12 45-31 82-46 123h93" id="Y"/><path d="M85-194c31 0 48 13 60 33l-1-100h32l1 261h-30c-2-10 0-23-3-31C134-8 116 4 85 4 32 4 16-35 15-94c0-66 23-100 70-100zm9 24c-40 0-46 34-46 75 0 40 6 74 45 74 42 0 51-32 51-76 0-42-9-74-50-73" id="Z"/><g id="h"><use transform="matrix(0.05,0,0,0.05,0,0)" xlink:href="#Y"/><use transform="matrix(0.05,0,0,0.05,12,0)" xlink:href="#C"/><use transform="matrix(0.05,0,0,0.05,22,0)" xlink:href="#Z"/></g><path d="M33 0v-248h34V0H33" id="aa"/><path d="M30 0v-248h187v28H63v79h144v27H63v87h162V0H30" id="ab"/><path d="M210-169c-67 3-38 105-44 169h-31v-121c0-29-5-50-35-48C34-165 62-65 56 0H25l-1-190h30c1 10-1 24 2 32 10-44 99-50 107 0 11-21 27-35 58-36 85-2 47 119 55 194h-31v-121c0-29-5-49-35-48" id="ac"/><path d="M179-190L93 31C79 59 56 82 12 73V49c39 6 53-20 64-50L1-190h34L92-34l54-156h33" id="ad"/><g id="i"><use transform="matrix(0.05,0,0,0.05,0,0)" xlink:href="#aa"/><use transform="matrix(0.05,0,0,0.05,5,0)" xlink:href="#P"/><use transform="matrix(0.05,0,0,0.05,10,0)" xlink:href="#ab"/><use transform="matrix(0.05,0,0,0.05,22,0)" xlink:href="#ac"/><use transform="matrix(0.05,0,0,0.05,36.95,0)" xlink:href="#R"/><use transform="matrix(0.05,0,0,0.05,46.95,0)" xlink:href="#T"/><use transform="matrix(0.05,0,0,0.05,51.95,0)" xlink:href="#ad"/></g><path d="M135-143c-3-34-86-38-87 0 15 53 115 12 119 90S17 21 10-45l28-5c4 36 97 45 98 0-10-56-113-15-118-90-4-57 82-63 122-42 12 7 21 19 24 35" id="ae"/><g id="j"><use transform="matrix(0.05,0,0,0.05,0,0)" xlink:href="#aa"/><use transform="matrix(0.05,0,0,0.05,5,0)" xlink:href="#P"/><use transform="matrix(0.05,0,0,0.05,10,0)" xlink:href="#Y"/><use transform="matrix(0.05,0,0,0.05,22,0)" xlink:href="#ac"/><use transform="matrix(0.05,0,0,0.05,36.95,0)" xlink:href="#v"/><use transform="matrix(0.05,0,0,0.05,46.95,0)" xlink:href="#B"/><use transform="matrix(0.05,0,0,0.05,50.900000000000006,0)" xlink:href="#A"/><use transform="matrix(0.05,0,0,0.05,60.900000000000006,0)" xlink:href="#z"/><use transform="matrix(0.05,0,0,0.05,70.9,0)" xlink:href="#O"/><use transform="matrix(0.05,0,0,0.05,80.9,0)" xlink:href="#z"/><use transform="matrix(0.05,0,0,0.05,90.9,0)" xlink:href="#ae"/></g><path d="M190 0L58-211 59 0H30v-248h39L202-35l-2-213h31V0h-41" id="af"/><path d="M106-169C34-169 62-67 57 0H25v-261h32l-1 103c12-21 28-36 61-36 89 0 53 116 60 194h-32v-121c2-32-8-49-39-48" id="ag"/><g id="k"><use transform="matrix(0.05,0,0,0.05,0,0)" xlink:href="#af"/><use transform="matrix(0.05,0,0,0.05,12.950000000000001,0)" xlink:href="#O"/><use transform="matrix(0.05,0,0,0.05,22.950000000000003,0)" xlink:href="#T"/><use transform="matrix(0.05,0,0,0.05,27.950000000000003,0)" xlink:href="#ag"/><use transform="matrix(0.05,0,0,0.05,37.95,0)" xlink:href="#B"/><use transform="matrix(0.05,0,0,0.05,41.900000000000006,0)" xlink:href="#C"/><use transform="matrix(0.05,0,0,0.05,51.900000000000006,0)" xlink:href="#A"/></g><path d="M198-190L69 30C53 58 25 83-20 72c4-11-1-27 19-22 33-1 43-29 59-52L20-190h32L79-34l84-156h35" id="ah"/><path d="M67-162c32-53 139-36 121 50C175-51 163 2 97 4 68 4 52-11 42-31 38 6 28 39 22 75H-9l50-265h29c-1 10 0 20-3 28zm89 36c0-26-10-43-35-43-54 0-67 50-69 103-1 29 14 45 42 46 53 0 62-58 62-106" id="ai"/><g id="l"><use transform="matrix(0.05,0,0,0.05,0,0)" xlink:href="#D"/><use transform="matrix(0.05,0,0,0.05,12.950000000000001,0)" xlink:href="#E"/><use transform="matrix(0.05,0,0,0.05,22.950000000000003,0)" xlink:href="#F"/><use transform="matrix(0.05,0,0,0.05,26.900000000000002,0)" xlink:href="#G"/><use transform="matrix(0.05,0,0,0.05,35.900000000000006,0)" xlink:href="#H"/><use transform="matrix(0.05,0,0,0.05,45.900000000000006,0)" xlink:href="#F"/><use transform="matrix(0.05,0,0,0.05,49.85000000000001,0)" xlink:href="#E"/><use transform="matrix(0.05,0,0,0.05,59.85,0)" xlink:href="#I"/><use transform="matrix(0.05,0,0,0.05,64.85000000000001,0)" xlink:href="#J"/><use transform="matrix(0.05,0,0,0.05,68.80000000000001,0)" xlink:href="#K"/><use transform="matrix(0.05,0,0,0.05,78.80000000000001,0)" xlink:href="#L"/><use transform="matrix(0.05,0,0,0.05,88.80000000000001,0)" xlink:href="#U"/><use transform="matrix(0.05,0,0,0.05,98.40000000000002,0)" xlink:href="#ah"/><use transform="matrix(0.05,0,0,0.05,107.40000000000003,0)" xlink:href="#ai"/><use transform="matrix(0.05,0,0,0.05,117.40000000000003,0)" xlink:href="#V"/></g><g id="m"><use transform="matrix(0.05,0,0,0.05,0,0)" xlink:href="#x"/><use transform="matrix(0.05,0,0,0.05,3.95,0)" xlink:href="#w"/><use transform="matrix(0.05,0,0,0.05,13.949999999999998,0)" xlink:href="#P"/><use transform="matrix(0.05,0,0,0.05,18.95,0)" xlink:href="#T"/></g><g id="n"><use transform="matrix(0.05,0,0,0.05,0,0)" xlink:href="#S"/><use transform="matrix(0.05,0,0,0.05,5.95,0)" xlink:href="#B"/><use transform="matrix(0.05,0,0,0.05,9.9,0)" xlink:href="#A"/><use transform="matrix(0.05,0,0,0.05,19.9,0)" xlink:href="#ag"/><use transform="matrix(0.05,0,0,0.05,29.899999999999995,0)" xlink:href="#T"/></g><path d="M212-179c-10-28-35-45-73-45-59 0-87 40-87 99 0 60 29 101 89 101 43 0 62-24 78-52l27 14C228-24 195 4 139 4 59 4 22-46 18-125c-6-104 99-153 187-111 19 9 31 26 39 46" id="aj"/><g id="o"><use transform="matrix(0.05,0,0,0.05,0,0)" xlink:href="#aj"/><use transform="matrix(0.05,0,0,0.05,12.950000000000001,0)" xlink:href="#B"/><use transform="matrix(0.05,0,0,0.05,16.900000000000002,0)" xlink:href="#S"/><use transform="matrix(0.05,0,0,0.05,22.85,0)" xlink:href="#N"/><use transform="matrix(0.05,0,0,0.05,31.85,0)" xlink:href="#x"/><use transform="matrix(0.05,0,0,0.05,35.800000000000004,0)" xlink:href="#w"/><use transform="matrix(0.05,0,0,0.05,45.800000000000004,0)" xlink:href="#Q"/><use transform="matrix(0.05,0,0,0.05,59.800000000000004,0)" xlink:href="#z"/><use transform="matrix(0.05,0,0,0.05,69.80000000000001,0)" xlink:href="#T"/><use transform="matrix(0.05,0,0,0.05,74.80000000000001,0)" xlink:href="#w"/><use transform="matrix(0.05,0,0,0.05,84.80000000000001,0)" xlink:href="#S"/><use transform="matrix(0.05,0,0,0.05,90.75000000000001,0)" xlink:href="#t"/><use transform="matrix(0.05,0,0,0.05,100.75000000000001,0)" xlink:href="#u"/><use transform="matrix(0.05,0,0,0.05,110.75,0)" xlink:href="#v"/><use transform="matrix(0.05,0,0,0.05,120.75,0)" xlink:href="#w"/><use transform="matrix(0.05,0,0,0.05,130.75,0)" xlink:href="#x"/></g><path d="M233-177c-1 41-23 64-60 70L243 0h-38l-65-103H63V0H30v-248c88 3 205-21 203 71zM63-129c60-2 137 13 137-47 0-61-80-42-137-45v92" id="ak"/><g id="p"><use transform="matrix(0.05,0,0,0.05,0,0)" xlink:href="#ak"/><use transform="matrix(0.05,0,0,0.05,12.950000000000001,0)" xlink:href="#w"/><use transform="matrix(0.05,0,0,0.05,22.950000000000003,0)" xlink:href="#N"/><use transform="matrix(0.05,0,0,0.05,31.950000000000003,0)" xlink:href="#T"/><use transform="matrix(0.05,0,0,0.05,36.95,0)" xlink:href="#u"/><use transform="matrix(0.05,0,0,0.05,46.95,0)" xlink:href="#C"/><use transform="matrix(0.05,0,0,0.05,56.95,0)" xlink:href="#A"/><use transform="matrix(0.05,0,0,0.05,66.95,0)" xlink:href="#x"/><use transform="matrix(0.05,0,0,0.05,70.9,0)" xlink:href="#w"/><use transform="matrix(0.05,0,0,0.05,80.9,0)" xlink:href="#Q"/><use transform="matrix(0.05,0,0,0.05,94.9,0)" xlink:href="#z"/><use transform="matrix(0.05,0,0,0.05,104.9,0)" xlink:href="#T"/><use transform="matrix(0.05,0,0,0.05,109.9,0)" xlink:href="#w"/><use transform="matrix(0.05,0,0,0.05,119.9,0)" xlink:href="#S"/><use transform="matrix(0.05,0,0,0.05,125.85000000000001,0)" xlink:href="#t"/><use transform="matrix(0.05,0,0,0.05,135.85000000000002,0)" xlink:href="#u"/><use transform="matrix(0.05,0,0,0.05,145.85000000000002,0)" xlink:href="#v"/><use transform="matrix(0.05,0,0,0.05,155.85000000000002,0)" xlink:href="#w"/><use transform="matrix(0.05,0,0,0.05,165.85000000000002,0)" xlink:href="#x"/></g><g id="q"><use transform="matrix(0.05,0,0,0.05,0,0)" xlink:href="#aj"/><use transform="matrix(0.05,0,0,0.05,12.950000000000001,0)" xlink:href="#O"/><use transform="matrix(0.05,0,0,0.05,22.950000000000003,0)" xlink:href="#C"/><use transform="matrix(0.05,0,0,0.05,32.95,0)" xlink:href="#T"/><use transform="matrix(0.05,0,0,0.05,37.95,0)" xlink:href="#u"/><use transform="matrix(0.05,0,0,0.05,47.95,0)" xlink:href="#B"/><use transform="matrix(0.05,0,0,0.05,51.900000000000006,0)" xlink:href="#C"/><use transform="matrix(0.05,0,0,0.05,61.900000000000006,0)" xlink:href="#w"/><use transform="matrix(0.05,0,0,0.05,71.9,0)" xlink:href="#Z"/><use transform="matrix(0.05,0,0,0.05,81.9,0)" xlink:href="#t"/><use transform="matrix(0.05,0,0,0.05,91.9,0)" xlink:href="#u"/><use transform="matrix(0.05,0,0,0.05,101.9,0)" xlink:href="#v"/><use transform="matrix(0.05,0,0,0.05,111.9,0)" xlink:href="#w"/><use transform="matrix(0.05,0,0,0.05,121.9,0)" xlink:href="#x"/></g><g id="r"><use transform="matrix(0.05,0,0,0.05,0,0)" xlink:href="#y"/><use transform="matrix(0.05,0,0,0.05,12,0)" xlink:href="#u"/><use transform="matrix(0.05,0,0,0.05,22,0)" xlink:href="#T"/><use transform="matrix(0.05,0,0,0.05,27,0)" xlink:href="#T"/><use transform="matrix(0.05,0,0,0.05,32,0)" xlink:href="#w"/><use transform="matrix(0.05,0,0,0.05,42,0)" xlink:href="#S"/><use transform="matrix(0.05,0,0,0.05,47.95,0)" xlink:href="#C"/></g><g id="s"><use transform="matrix(0.05,0,0,0.05,0,0)" xlink:href="#P"/><use transform="matrix(0.05,0,0,0.05,5,0)" xlink:href="#B"/><use transform="matrix(0.05,0,0,0.05,8.95,0)" xlink:href="#x"/><use transform="matrix(0.05,0,0,0.05,12.899999999999999,0)" xlink:href="#T"/><use transform="matrix(0.05,0,0,0.05,17.9,0)" xlink:href="#w"/><use transform="matrix(0.05,0,0,0.05,27.899999999999995,0)" xlink:href="#S"/></g></defs></g></svg>