<svg xmlns="http://www.w3.org/2000/svg" xmlns:xlink="http://www.w3.org/1999/xlink" xmlns:lucid="lucid" width="1114.9" height="673"><g transform="translate(-345.09999999999997 0)" lucid:page-tab-id="iv5sKg8FVdhz"><path d="M960 20h220v60H960z" stroke="#333" stroke-width="2" fill="#c1e4f7"/><use xlink:href="#a" transform="matrix(1,0,0,1,968,28) translate(0.5499999999999972 25.6)"/><path d="M720 359h220v60H720z" stroke="#333" stroke-width="2" fill="#c1e4f7"/><use xlink:href="#b" transform="matrix(1,0,0,1,728,367) translate(48.05 25.6)"/><path d="M960 140h220v60H960z" stroke="#333" stroke-width="2" fill="#c1e4f7"/><use xlink:href="#c" transform="matrix(1,0,0,1,968,148) translate(44.599999999999994 25.6)"/><path d="M1330 357.5v-78h-260v-62.12" stroke="#333" fill="none"/><path d="M1330.5 358h-1v-.5h1z" fill="#333"/><path d="M1070 202.62l4.64 14.26h-9.28z" stroke="#333" fill="#fff"/><path d="M830 357.5v-78h240v-62.12" stroke="#333" fill="none"/><path d="M830.5 358h-1v-.5h1z" fill="#333"/><path d="M1070 202.62l4.64 14.26h-9.28z" stroke="#333" fill="#fff"/><path d="M1070 111.38v11.24" stroke="#333" fill="none"/><path d="M1070 81.7l14.85 14.86L1070 111.7l-14.85-15.14zM1070 137.38l-4.64-14.26h9.28z" stroke="#333" fill="#333"/><path d="M941.5 366.67h277" stroke="#333" fill="none"/><path d="M941.5 367.17h-.5v-1h.5zM1219 367.17h-.5v-1h.5z" fill="#333"/><use xlink:href="#d" transform="matrix(1,0,0,1,940.525,370.6666666666667) translate(0 14.4)"/><use xlink:href="#e" transform="matrix(1,0,0,1,940.525,370.6666666666667) translate(45 14.4)"/><use xlink:href="#f" transform="matrix(1,0,0,1,1108.5250000000005,341.0666666666667) translate(0 14.4)"/><use xlink:href="#g" transform="matrix(1,0,0,1,1108.5250000000005,341.0666666666667) translate(42 14.4)"/><path d="M941.5 408h277" stroke="#333" fill="none"/><path d="M941.5 408.5h-.5v-1h.5zM1219 408.5h-.5v-1h.5z" fill="#333"/><use xlink:href="#d" transform="matrix(1,0,0,1,940.5249999999999,411.99999999999994) translate(0 14.4)"/><use xlink:href="#h" transform="matrix(1,0,0,1,940.5249999999999,411.99999999999994) translate(45 14.4)"/><use xlink:href="#f" transform="matrix(1,0,0,1,1106.0750000000005,382.4) translate(0 14.4)"/><use xlink:href="#i" transform="matrix(1,0,0,1,1106.0750000000005,382.4) translate(42 14.4)"/><path d="M600 559h220v75H600z" stroke="#333" stroke-width="2" fill="#c1e4f7"/><path d="M600 596.6h220" stroke="#333" stroke-width="2" fill="none"/><use xlink:href="#j" transform="matrix(1,0,0,1,608,567) translate(81 14.6)"/><use xlink:href="#k" transform="matrix(1,0,0,1,612,604.6) translate(0 14.4)"/><use xlink:href="#l" transform="matrix(1,0,0,1,612,604.6) translate(65.45 14.4)"/><path d="M840 559h220v75H840z" stroke="#333" stroke-width="2" fill="#c1e4f7"/><path d="M840 596.6h220" stroke="#333" stroke-width="2" fill="none"/><use xlink:href="#m" transform="matrix(1,0,0,1,848,567) translate(50.5 14.6)"/><use xlink:href="#n" transform="matrix(1,0,0,1,852,604.6) translate(0 14.4)"/><use xlink:href="#o" transform="matrix(1,0,0,1,852,604.6) translate(53.45 14.4)"/><path d="M950 557.5V489H830v-52.62" stroke="#333" fill="none"/><path d="M950.5 558h-1v-.5h1z" fill="#333"/><path d="M830 421.62l4.64 14.26h-9.28z" stroke="#333" fill="#fff"/><path d="M710 557.5V489h120v-52.62" stroke="#333" fill="none"/><path d="M710.5 558h-1v-.5h1z" fill="#333"/><path d="M830 421.62l4.64 14.26h-9.28z" stroke="#333" fill="#fff"/><path d="M460.5 618.5h138v1h-139V436.38h1zM599 619.5h-.5v-1h.5zM464.64 435.88h-9.28l4.64-14.26z" fill="#333"/><path d="M465.32 436.38h-10.64L460 420zm-9.27-1h7.9L460 423.24z" fill="#333"/><use xlink:href="#p" transform="matrix(1,0,0,1,351.09999999999997,446.12882993766357) translate(0 14.4)"/><use xlink:href="#q" transform="matrix(1,0,0,1,351.09999999999997,446.12882993766357) translate(42 14.4)"/><path d="M1200 503h180v150h-180z" stroke="#333" stroke-width="2" fill="#c1e4f7"/><path d="M1200 562.2h180" stroke="#333" stroke-width="2" fill="none"/><use xlink:href="#r" transform="matrix(1,0,0,1,1208,511) translate(11.074999999999989 14.799999999999999)"/><use xlink:href="#s" transform="matrix(1,0,0,1,1208,511) translate(12.525000000000006 36.4)"/><use xlink:href="#t" transform="matrix(1,0,0,1,1212,570.2) translate(0 14.4)"/><use xlink:href="#u" transform="matrix(1,0,0,1,1212,570.2) translate(0 36)"/><use xlink:href="#v" transform="matrix(1,0,0,1,1212,570.2) translate(0 57.6)"/><path d="M380 359h160v60H380z" stroke="#333" stroke-width="2" fill="#c1e4f7"/><use xlink:href="#w" transform="matrix(1,0,0,1,388,367) translate(43.55 25.6)"/><path d="M541.5 389h161.12" stroke="#333" fill="none"/><path d="M541.5 389.5h-.5v-1h.5z" fill="#333"/><path d="M717.38 389l-14.26 4.64v-9.28z" stroke="#333" fill="#333"/><use xlink:href="#p" transform="matrix(1,0,0,1,595.0833333333334,363.4) translate(0 14.4)"/><use xlink:href="#x" transform="matrix(1,0,0,1,595.0833333333334,363.4) translate(42 14.4)"/><path d="M460 357.5v-78h610v-62.12" stroke="#333" fill="none"/><path d="M460.5 358h-1v-.5h1z" fill="#333"/><path d="M1070 202.62l4.64 14.26h-9.28z" stroke="#333" fill="#fff"/><path d="M623.7 557.5h-1v-60.03h1zm78.92-146.33H623.7v64.7h-1v-65.7h79.92zM623.7 558h-1v-.5h1zM717.38 410.67l-14.26 4.63v-9.27z" fill="#333"/><path d="M719 410.67L702.62 416v-10.66zm-15.38 3.94l12.14-3.93-12.14-3.95z" fill="#333"/><g><use xlink:href="#p" transform="matrix(1,0,0,1,565.7500000000001,475.8666666666667) translate(0 14.4)"/><use xlink:href="#x" transform="matrix(1,0,0,1,565.7500000000001,475.8666666666667) translate(42 14.4)"/></g><path d="M1220 359h220v75h-220z" stroke="#333" stroke-width="2" fill="#c1e4f7"/><path d="M1220 396.6h220" stroke="#333" stroke-width="2" fill="none"/><g><use xlink:href="#y" transform="matrix(1,0,0,1,1228,367) translate(62.925 14.6)"/></g><g><use xlink:href="#k" transform="matrix(1,0,0,1,1232,404.6) translate(0 14.4)"/><use xlink:href="#l" transform="matrix(1,0,0,1,1232,404.6) translate(65.45 14.4)"/></g><defs><path d="M185-189c-5-48-123-54-124 2 14 75 158 14 163 119 3 78-121 87-175 55-17-10-28-26-33-46l33-7c5 56 141 63 141-1 0-78-155-14-162-118-5-82 145-84 179-34 5 7 8 16 11 25" id="z"/><path d="M59-47c-2 24 18 29 38 22v24C64 9 27 4 27-40v-127H5v-23h24l9-43h21v43h35v23H59v120" id="A"/><path d="M141-36C126-15 110 5 73 4 37 3 15-17 15-53c-1-64 63-63 125-63 3-35-9-54-41-54-24 1-41 7-42 31l-33-3c5-37 33-52 76-52 45 0 72 20 72 64v82c-1 20 7 32 28 27v20c-31 9-61-2-59-35zM48-53c0 20 12 33 32 33 41-3 63-29 60-74-43 2-92-5-92 41" id="B"/><path d="M100-194c63 0 86 42 84 106H49c0 40 14 67 53 68 26 1 43-12 49-29l28 8c-11 28-37 45-77 45C44 4 14-33 15-96c1-61 26-98 85-98zm52 81c6-60-76-77-97-28-3 7-6 17-6 28h103" id="C"/><path d="M96-169c-40 0-48 33-48 73s9 75 48 75c24 0 41-14 43-38l32 2c-6 37-31 61-74 61-59 0-76-41-82-99-10-93 101-131 147-64 4 7 5 14 7 22l-32 3c-4-21-16-35-41-35" id="D"/><path d="M106-169C34-169 62-67 57 0H25v-261h32l-1 103c12-21 28-36 61-36 89 0 53 116 60 194h-32v-121c2-32-8-49-39-48" id="E"/><path d="M114-163C36-179 61-72 57 0H25l-1-190h30c1 12-1 29 2 39 6-27 23-49 58-41v29" id="F"/><path d="M205 0l-28-72H64L36 0H1l101-248h38L239 0h-34zm-38-99l-47-123c-12 45-31 82-46 123h93" id="G"/><path d="M115-194c53 0 69 39 70 98 0 66-23 100-70 100C84 3 66-7 56-30L54 0H23l1-261h32v101c10-23 28-34 59-34zm-8 174c40 0 45-34 45-75 0-40-5-75-45-74-42 0-51 32-51 76 0 43 10 73 51 73" id="H"/><path d="M135-143c-3-34-86-38-87 0 15 53 115 12 119 90S17 21 10-45l28-5c4 36 97 45 98 0-10-56-113-15-118-90-4-57 82-63 122-42 12 7 21 19 24 35" id="I"/><path d="M179-190L93 31C79 59 56 82 12 73V49c39 6 53-20 64-50L1-190h34L92-34l54-156h33" id="J"/><path d="M117-194c89-4 53 116 60 194h-32v-121c0-31-8-49-39-48C34-167 62-67 57 0H25l-1-190h30c1 10-1 24 2 32 11-22 29-35 61-36" id="K"/><path d="M141 0L90-78 38 0H4l68-98-65-92h35l48 74 47-74h35l-64 92 68 98h-35" id="L"/><g id="a"><use transform="matrix(0.05,0,0,0.05,0,0)" xlink:href="#z"/><use transform="matrix(0.05,0,0,0.05,12,0)" xlink:href="#A"/><use transform="matrix(0.05,0,0,0.05,17,0)" xlink:href="#B"/><use transform="matrix(0.05,0,0,0.05,27,0)" xlink:href="#A"/><use transform="matrix(0.05,0,0,0.05,32,0)" xlink:href="#C"/><use transform="matrix(0.05,0,0,0.05,42,0)" xlink:href="#D"/><use transform="matrix(0.05,0,0,0.05,51,0)" xlink:href="#E"/><use transform="matrix(0.05,0,0,0.05,61,0)" xlink:href="#B"/><use transform="matrix(0.05,0,0,0.05,71,0)" xlink:href="#F"/><use transform="matrix(0.05,0,0,0.05,76.95,0)" xlink:href="#A"/><use transform="matrix(0.05,0,0,0.05,81.95,0)" xlink:href="#G"/><use transform="matrix(0.05,0,0,0.05,93.95,0)" xlink:href="#H"/><use transform="matrix(0.05,0,0,0.05,103.95,0)" xlink:href="#I"/><use transform="matrix(0.05,0,0,0.05,112.95,0)" xlink:href="#A"/><use transform="matrix(0.05,0,0,0.05,117.95,0)" xlink:href="#F"/><use transform="matrix(0.05,0,0,0.05,123.9,0)" xlink:href="#B"/><use transform="matrix(0.05,0,0,0.05,133.9,0)" xlink:href="#D"/><use transform="matrix(0.05,0,0,0.05,142.9,0)" xlink:href="#A"/><use transform="matrix(0.05,0,0,0.05,147.9,0)" xlink:href="#z"/><use transform="matrix(0.05,0,0,0.05,159.9,0)" xlink:href="#J"/><use transform="matrix(0.05,0,0,0.05,168.9,0)" xlink:href="#K"/><use transform="matrix(0.05,0,0,0.05,178.9,0)" xlink:href="#A"/><use transform="matrix(0.05,0,0,0.05,183.9,0)" xlink:href="#B"/><use transform="matrix(0.05,0,0,0.05,193.9,0)" xlink:href="#L"/></g><path d="M30 0v-248h187v28H63v79h144v27H63v87h162V0H30" id="M"/><path d="M24 0v-261h32V0H24" id="N"/><path d="M210-169c-67 3-38 105-44 169h-31v-121c0-29-5-50-35-48C34-165 62-65 56 0H25l-1-190h30c1 10-1 24 2 32 10-44 99-50 107 0 11-21 27-35 58-36 85-2 47 119 55 194h-31v-121c0-29-5-49-35-48" id="O"/><g id="b"><use transform="matrix(0.05,0,0,0.05,0,0)" xlink:href="#z"/><use transform="matrix(0.05,0,0,0.05,12,0)" xlink:href="#A"/><use transform="matrix(0.05,0,0,0.05,17,0)" xlink:href="#B"/><use transform="matrix(0.05,0,0,0.05,27,0)" xlink:href="#A"/><use transform="matrix(0.05,0,0,0.05,32,0)" xlink:href="#C"/><use transform="matrix(0.05,0,0,0.05,42,0)" xlink:href="#M"/><use transform="matrix(0.05,0,0,0.05,54,0)" xlink:href="#N"/><use transform="matrix(0.05,0,0,0.05,57.95,0)" xlink:href="#C"/><use transform="matrix(0.05,0,0,0.05,67.95,0)" xlink:href="#O"/><use transform="matrix(0.05,0,0,0.05,82.9,0)" xlink:href="#C"/><use transform="matrix(0.05,0,0,0.05,92.9,0)" xlink:href="#K"/><use transform="matrix(0.05,0,0,0.05,102.9,0)" xlink:href="#A"/></g><path d="M240 0l2-218c-23 76-54 145-80 218h-23L58-218 59 0H30v-248h44l77 211c21-75 51-140 76-211h43V0h-30" id="P"/><path d="M100-194c62-1 85 37 85 99 1 63-27 99-86 99S16-35 15-95c0-66 28-99 85-99zM99-20c44 1 53-31 53-75 0-43-8-75-51-75s-53 32-53 75 10 74 51 75" id="Q"/><path d="M85-194c31 0 48 13 60 33l-1-100h32l1 261h-30c-2-10 0-23-3-31C134-8 116 4 85 4 32 4 16-35 15-94c0-66 23-100 70-100zm9 24c-40 0-46 34-46 75 0 40 6 74 45 74 42 0 51-32 51-76 0-42-9-74-50-73" id="R"/><g id="c"><use transform="matrix(0.05,0,0,0.05,0,0)" xlink:href="#P"/><use transform="matrix(0.05,0,0,0.05,14.950000000000001,0)" xlink:href="#Q"/><use transform="matrix(0.05,0,0,0.05,24.950000000000003,0)" xlink:href="#R"/><use transform="matrix(0.05,0,0,0.05,34.95,0)" xlink:href="#C"/><use transform="matrix(0.05,0,0,0.05,44.95,0)" xlink:href="#N"/><use transform="matrix(0.05,0,0,0.05,48.900000000000006,0)" xlink:href="#M"/><use transform="matrix(0.05,0,0,0.05,60.900000000000006,0)" xlink:href="#N"/><use transform="matrix(0.05,0,0,0.05,64.85000000000001,0)" xlink:href="#C"/><use transform="matrix(0.05,0,0,0.05,74.85000000000001,0)" xlink:href="#O"/><use transform="matrix(0.05,0,0,0.05,89.80000000000001,0)" xlink:href="#C"/><use transform="matrix(0.05,0,0,0.05,99.80000000000001,0)" xlink:href="#K"/><use transform="matrix(0.05,0,0,0.05,109.80000000000001,0)" xlink:href="#A"/></g><path d="M26 75v-336h71v23H56V52h41v23H26" id="S"/><path d="M101-251c68 0 85 55 85 127S166 4 100 4C33 4 14-52 14-124c0-73 17-127 87-127zm-1 229c47 0 54-49 54-102s-4-102-53-102c-51 0-55 48-55 102 0 53 5 102 54 102" id="T"/><path d="M33 0v-38h34V0H33" id="U"/><path d="M27 0v-27h64v-190l-56 39v-29l58-41h29v221h61V0H27" id="V"/><path d="M3 75V52h41v-290H3v-23h71V75H3" id="W"/><g id="d"><use transform="matrix(0.05,0,0,0.05,0,0)" xlink:href="#S"/><use transform="matrix(0.05,0,0,0.05,5,0)" xlink:href="#T"/><use transform="matrix(0.05,0,0,0.05,15,0)" xlink:href="#U"/><use transform="matrix(0.05,0,0,0.05,20,0)" xlink:href="#U"/><use transform="matrix(0.05,0,0,0.05,25,0)" xlink:href="#V"/><use transform="matrix(0.05,0,0,0.05,35,0)" xlink:href="#W"/></g><path d="M84 4C-5 8 30-112 23-190h32v120c0 31 7 50 39 49 72-2 45-101 50-169h31l1 190h-30c-1-10 1-25-2-33-11 22-28 36-60 37" id="X"/><g id="e"><use transform="matrix(0.05,0,0,0.05,0,0)" xlink:href="#I"/><use transform="matrix(0.05,0,0,0.05,9,0)" xlink:href="#Q"/><use transform="matrix(0.05,0,0,0.05,19,0)" xlink:href="#X"/><use transform="matrix(0.05,0,0,0.05,29,0)" xlink:href="#F"/><use transform="matrix(0.05,0,0,0.05,34.95,0)" xlink:href="#D"/><use transform="matrix(0.05,0,0,0.05,43.95,0)" xlink:href="#C"/></g><path d="M80-196l47-18 7 23-49 13 32 44-20 13-27-46-27 45-21-12 33-44-49-13 8-23 47 19-2-53h23" id="Y"/><g id="f"><use transform="matrix(0.05,0,0,0.05,0,0)" xlink:href="#S"/><use transform="matrix(0.05,0,0,0.05,5,0)" xlink:href="#T"/><use transform="matrix(0.05,0,0,0.05,15,0)" xlink:href="#U"/><use transform="matrix(0.05,0,0,0.05,20,0)" xlink:href="#U"/><use transform="matrix(0.05,0,0,0.05,25,0)" xlink:href="#Y"/><use transform="matrix(0.05,0,0,0.05,32,0)" xlink:href="#W"/></g><path d="M177-190C167-65 218 103 67 71c-23-6-38-20-44-43l32-5c15 47 100 32 89-28v-30C133-14 115 1 83 1 29 1 15-40 15-95c0-56 16-97 71-98 29-1 48 16 59 35 1-10 0-23 2-32h30zM94-22c36 0 50-32 50-73 0-42-14-75-50-75-39 0-46 34-46 75s6 73 46 73" id="Z"/><path d="M24-231v-30h32v30H24zM24 0v-190h32V0H24" id="aa"/><g id="g"><use transform="matrix(0.05,0,0,0.05,0,0)" xlink:href="#Q"/><use transform="matrix(0.05,0,0,0.05,10,0)" xlink:href="#X"/><use transform="matrix(0.05,0,0,0.05,20,0)" xlink:href="#A"/><use transform="matrix(0.05,0,0,0.05,25,0)" xlink:href="#Z"/><use transform="matrix(0.05,0,0,0.05,35,0)" xlink:href="#Q"/><use transform="matrix(0.05,0,0,0.05,45,0)" xlink:href="#aa"/><use transform="matrix(0.05,0,0,0.05,48.95,0)" xlink:href="#K"/><use transform="matrix(0.05,0,0,0.05,58.95,0)" xlink:href="#Z"/></g><g id="h"><use transform="matrix(0.05,0,0,0.05,0,0)" xlink:href="#A"/><use transform="matrix(0.05,0,0,0.05,5,0)" xlink:href="#B"/><use transform="matrix(0.05,0,0,0.05,15,0)" xlink:href="#F"/><use transform="matrix(0.05,0,0,0.05,20.95,0)" xlink:href="#Z"/><use transform="matrix(0.05,0,0,0.05,30.950000000000003,0)" xlink:href="#C"/><use transform="matrix(0.05,0,0,0.05,40.95,0)" xlink:href="#A"/></g><g id="i"><use transform="matrix(0.05,0,0,0.05,0,0)" xlink:href="#aa"/><use transform="matrix(0.05,0,0,0.05,3.95,0)" xlink:href="#K"/><use transform="matrix(0.05,0,0,0.05,13.949999999999998,0)" xlink:href="#D"/><use transform="matrix(0.05,0,0,0.05,22.95,0)" xlink:href="#Q"/><use transform="matrix(0.05,0,0,0.05,32.95,0)" xlink:href="#O"/><use transform="matrix(0.05,0,0,0.05,47.900000000000006,0)" xlink:href="#aa"/><use transform="matrix(0.05,0,0,0.05,51.85,0)" xlink:href="#K"/><use transform="matrix(0.05,0,0,0.05,61.85,0)" xlink:href="#Z"/></g><g id="j"><use transform="matrix(0.05,0,0,0.05,0,0)" xlink:href="#z"/><use transform="matrix(0.05,0,0,0.05,12,0)" xlink:href="#A"/><use transform="matrix(0.05,0,0,0.05,17,0)" xlink:href="#B"/><use transform="matrix(0.05,0,0,0.05,27,0)" xlink:href="#A"/><use transform="matrix(0.05,0,0,0.05,32,0)" xlink:href="#C"/></g><path fill="#333" d="M118-107v75H92v-75H18v-26h74v-75h26v75h74v26h-74" id="ab"/><path fill="#333" d="M117-194c89-4 53 116 60 194h-32v-121c0-31-8-49-39-48C34-167 62-67 57 0H25l-1-190h30c1 10-1 24 2 32 11-22 29-35 61-36" id="ac"/><path fill="#333" d="M141-36C126-15 110 5 73 4 37 3 15-17 15-53c-1-64 63-63 125-63 3-35-9-54-41-54-24 1-41 7-42 31l-33-3c5-37 33-52 76-52 45 0 72 20 72 64v82c-1 20 7 32 28 27v20c-31 9-61-2-59-35zM48-53c0 20 12 33 32 33 41-3 63-29 60-74-43 2-92-5-92 41" id="ad"/><path fill="#333" d="M210-169c-67 3-38 105-44 169h-31v-121c0-29-5-50-35-48C34-165 62-65 56 0H25l-1-190h30c1 10-1 24 2 32 10-44 99-50 107 0 11-21 27-35 58-36 85-2 47 119 55 194h-31v-121c0-29-5-49-35-48" id="ae"/><path fill="#333" d="M100-194c63 0 86 42 84 106H49c0 40 14 67 53 68 26 1 43-12 49-29l28 8c-11 28-37 45-77 45C44 4 14-33 15-96c1-61 26-98 85-98zm52 81c6-60-76-77-97-28-3 7-6 17-6 28h103" id="af"/><path fill="#333" d="M33-154v-36h34v36H33zM33 0v-36h34V0H33" id="ag"/><g id="k"><use transform="matrix(0.05,0,0,0.05,0,0)" xlink:href="#ab"/><use transform="matrix(0.05,0,0,0.05,10.5,0)" xlink:href="#ac"/><use transform="matrix(0.05,0,0,0.05,20.5,0)" xlink:href="#ad"/><use transform="matrix(0.05,0,0,0.05,30.5,0)" xlink:href="#ae"/><use transform="matrix(0.05,0,0,0.05,45.45,0)" xlink:href="#af"/><use transform="matrix(0.05,0,0,0.05,55.45,0)" xlink:href="#ag"/></g><path fill="#333" d="M185-189c-5-48-123-54-124 2 14 75 158 14 163 119 3 78-121 87-175 55-17-10-28-26-33-46l33-7c5 56 141 63 141-1 0-78-155-14-162-118-5-82 145-84 179-34 5 7 8 16 11 25" id="ah"/><path fill="#333" d="M59-47c-2 24 18 29 38 22v24C64 9 27 4 27-40v-127H5v-23h24l9-43h21v43h35v23H59v120" id="ai"/><path fill="#333" d="M114-163C36-179 61-72 57 0H25l-1-190h30c1 12-1 29 2 39 6-27 23-49 58-41v29" id="aj"/><path fill="#333" d="M24-231v-30h32v30H24zM24 0v-190h32V0H24" id="ak"/><path fill="#333" d="M177-190C167-65 218 103 67 71c-23-6-38-20-44-43l32-5c15 47 100 32 89-28v-30C133-14 115 1 83 1 29 1 15-40 15-95c0-56 16-97 71-98 29-1 48 16 59 35 1-10 0-23 2-32h30zM94-22c36 0 50-32 50-73 0-42-14-75-50-75-39 0-46 34-46 75s6 73 46 73" id="al"/><g id="l"><use transform="matrix(0.05,0,0,0.05,0,0)" xlink:href="#ah"/><use transform="matrix(0.05,0,0,0.05,12,0)" xlink:href="#ai"/><use transform="matrix(0.05,0,0,0.05,17,0)" xlink:href="#aj"/><use transform="matrix(0.05,0,0,0.05,22.95,0)" xlink:href="#ak"/><use transform="matrix(0.05,0,0,0.05,26.899999999999995,0)" xlink:href="#ac"/><use transform="matrix(0.05,0,0,0.05,36.9,0)" xlink:href="#al"/></g><path d="M30-248c87 1 191-15 191 75 0 78-77 80-158 76V0H30v-248zm33 125c57 0 124 11 124-50 0-59-68-47-124-48v98" id="am"/><g id="m"><use transform="matrix(0.05,0,0,0.05,0,0)" xlink:href="#am"/><use transform="matrix(0.05,0,0,0.05,12,0)" xlink:href="#I"/><use transform="matrix(0.05,0,0,0.05,21,0)" xlink:href="#C"/><use transform="matrix(0.05,0,0,0.05,31,0)" xlink:href="#X"/><use transform="matrix(0.05,0,0,0.05,41,0)" xlink:href="#R"/><use transform="matrix(0.05,0,0,0.05,51,0)" xlink:href="#Q"/><use transform="matrix(0.05,0,0,0.05,61,0)" xlink:href="#z"/><use transform="matrix(0.05,0,0,0.05,73,0)" xlink:href="#A"/><use transform="matrix(0.05,0,0,0.05,78,0)" xlink:href="#B"/><use transform="matrix(0.05,0,0,0.05,88,0)" xlink:href="#A"/><use transform="matrix(0.05,0,0,0.05,93,0)" xlink:href="#C"/></g><path fill="#333" d="M143 0L79-87 56-68V0H24v-261h32v163l83-92h37l-77 82L181 0h-38" id="an"/><path fill="#333" d="M85-194c31 0 48 13 60 33l-1-100h32l1 261h-30c-2-10 0-23-3-31C134-8 116 4 85 4 32 4 16-35 15-94c0-66 23-100 70-100zm9 24c-40 0-46 34-46 75 0 40 6 74 45 74 42 0 51-32 51-76 0-42-9-74-50-73" id="ao"/><g id="n"><use transform="matrix(0.05,0,0,0.05,0,0)" xlink:href="#ab"/><use transform="matrix(0.05,0,0,0.05,10.5,0)" xlink:href="#an"/><use transform="matrix(0.05,0,0,0.05,19.5,0)" xlink:href="#ak"/><use transform="matrix(0.05,0,0,0.05,23.45,0)" xlink:href="#ac"/><use transform="matrix(0.05,0,0,0.05,33.45,0)" xlink:href="#ao"/><use transform="matrix(0.05,0,0,0.05,43.45,0)" xlink:href="#ag"/></g><path fill="#333" d="M30-248c87 1 191-15 191 75 0 78-77 80-158 76V0H30v-248zm33 125c57 0 124 11 124-50 0-59-68-47-124-48v98" id="ap"/><path fill="#333" d="M135-143c-3-34-86-38-87 0 15 53 115 12 119 90S17 21 10-45l28-5c4 36 97 45 98 0-10-56-113-15-118-90-4-57 82-63 122-42 12 7 21 19 24 35" id="aq"/><path fill="#333" d="M84 4C-5 8 30-112 23-190h32v120c0 31 7 50 39 49 72-2 45-101 50-169h31l1 190h-30c-1-10 1-25-2-33-11 22-28 36-60 37" id="ar"/><path fill="#333" d="M100-194c62-1 85 37 85 99 1 63-27 99-86 99S16-35 15-95c0-66 28-99 85-99zM99-20c44 1 53-31 53-75 0-43-8-75-51-75s-53 32-53 75 10 74 51 75" id="as"/><path fill="#333" d="M194 0L95-120 63-95V0H30v-248h33v124l119-124h40L117-140 236 0h-42" id="at"/><g id="o"><use transform="matrix(0.05,0,0,0.05,0,0)" xlink:href="#ap"/><use transform="matrix(0.05,0,0,0.05,12,0)" xlink:href="#aq"/><use transform="matrix(0.05,0,0,0.05,21,0)" xlink:href="#af"/><use transform="matrix(0.05,0,0,0.05,31,0)" xlink:href="#ar"/><use transform="matrix(0.05,0,0,0.05,41,0)" xlink:href="#ao"/><use transform="matrix(0.05,0,0,0.05,51,0)" xlink:href="#as"/><use transform="matrix(0.05,0,0,0.05,61,0)" xlink:href="#ah"/><use transform="matrix(0.05,0,0,0.05,73,0)" xlink:href="#ai"/><use transform="matrix(0.05,0,0,0.05,78,0)" xlink:href="#ad"/><use transform="matrix(0.05,0,0,0.05,88,0)" xlink:href="#ai"/><use transform="matrix(0.05,0,0,0.05,93,0)" xlink:href="#af"/><use transform="matrix(0.05,0,0,0.05,103,0)" xlink:href="#at"/><use transform="matrix(0.05,0,0,0.05,115,0)" xlink:href="#ak"/><use transform="matrix(0.05,0,0,0.05,118.95,0)" xlink:href="#ac"/><use transform="matrix(0.05,0,0,0.05,128.95,0)" xlink:href="#ao"/></g><g id="p"><use transform="matrix(0.05,0,0,0.05,0,0)" xlink:href="#S"/><use transform="matrix(0.05,0,0,0.05,5,0)" xlink:href="#T"/><use transform="matrix(0.05,0,0,0.05,15,0)" xlink:href="#U"/><use transform="matrix(0.05,0,0,0.05,20,0)" xlink:href="#U"/><use transform="matrix(0.05,0,0,0.05,25,0)" xlink:href="#Y"/><use transform="matrix(0.05,0,0,0.05,32,0)" xlink:href="#W"/></g><g id="q"><use transform="matrix(0.05,0,0,0.05,0,0)" xlink:href="#F"/><use transform="matrix(0.05,0,0,0.05,5.95,0)" xlink:href="#C"/><use transform="matrix(0.05,0,0,0.05,15.949999999999998,0)" xlink:href="#Z"/><use transform="matrix(0.05,0,0,0.05,25.950000000000003,0)" xlink:href="#aa"/><use transform="matrix(0.05,0,0,0.05,29.899999999999995,0)" xlink:href="#Q"/><use transform="matrix(0.05,0,0,0.05,39.9,0)" xlink:href="#K"/><use transform="matrix(0.05,0,0,0.05,49.9,0)" xlink:href="#I"/></g><path d="M18-100v-36l175-74v27L42-118l151 64v27" id="au"/><path d="M18-27v-27l151-64-151-65v-27l175 74v36" id="av"/><g id="r"><use transform="matrix(0.05,0,0,0.05,0,0)" xlink:href="#au"/><use transform="matrix(0.05,0,0,0.05,10.5,0)" xlink:href="#au"/><use transform="matrix(0.05,0,0,0.05,21,0)" xlink:href="#C"/><use transform="matrix(0.05,0,0,0.05,31,0)" xlink:href="#K"/><use transform="matrix(0.05,0,0,0.05,41,0)" xlink:href="#X"/><use transform="matrix(0.05,0,0,0.05,51,0)" xlink:href="#O"/><use transform="matrix(0.05,0,0,0.05,65.95,0)" xlink:href="#C"/><use transform="matrix(0.05,0,0,0.05,75.95,0)" xlink:href="#F"/><use transform="matrix(0.05,0,0,0.05,81.9,0)" xlink:href="#B"/><use transform="matrix(0.05,0,0,0.05,91.9,0)" xlink:href="#A"/><use transform="matrix(0.05,0,0,0.05,96.9,0)" xlink:href="#aa"/><use transform="matrix(0.05,0,0,0.05,100.85000000000001,0)" xlink:href="#Q"/><use transform="matrix(0.05,0,0,0.05,110.85000000000001,0)" xlink:href="#K"/><use transform="matrix(0.05,0,0,0.05,120.85000000000001,0)" xlink:href="#av"/><use transform="matrix(0.05,0,0,0.05,131.35000000000002,0)" xlink:href="#av"/></g><path d="M194 0L95-120 63-95V0H30v-248h33v124l119-124h40L117-140 236 0h-42" id="aw"/><g id="s"><use transform="matrix(0.05,0,0,0.05,0,0)" xlink:href="#am"/><use transform="matrix(0.05,0,0,0.05,12,0)" xlink:href="#I"/><use transform="matrix(0.05,0,0,0.05,21,0)" xlink:href="#C"/><use transform="matrix(0.05,0,0,0.05,31,0)" xlink:href="#X"/><use transform="matrix(0.05,0,0,0.05,41,0)" xlink:href="#R"/><use transform="matrix(0.05,0,0,0.05,51,0)" xlink:href="#Q"/><use transform="matrix(0.05,0,0,0.05,61,0)" xlink:href="#z"/><use transform="matrix(0.05,0,0,0.05,73,0)" xlink:href="#A"/><use transform="matrix(0.05,0,0,0.05,78,0)" xlink:href="#B"/><use transform="matrix(0.05,0,0,0.05,88,0)" xlink:href="#A"/><use transform="matrix(0.05,0,0,0.05,93,0)" xlink:href="#C"/><use transform="matrix(0.05,0,0,0.05,103,0)" xlink:href="#aw"/><use transform="matrix(0.05,0,0,0.05,115,0)" xlink:href="#aa"/><use transform="matrix(0.05,0,0,0.05,118.95,0)" xlink:href="#K"/><use transform="matrix(0.05,0,0,0.05,128.95,0)" xlink:href="#R"/></g><path fill="#333" d="M33 0v-248h34V0H33" id="ax"/><path fill="#333" d="M24 0v-261h32V0H24" id="ay"/><g id="t"><use transform="matrix(0.05,0,0,0.05,0,0)" xlink:href="#ax"/><use transform="matrix(0.05,0,0,0.05,5,0)" xlink:href="#ac"/><use transform="matrix(0.05,0,0,0.05,15,0)" xlink:href="#ak"/><use transform="matrix(0.05,0,0,0.05,18.95,0)" xlink:href="#ai"/><use transform="matrix(0.05,0,0,0.05,23.95,0)" xlink:href="#ak"/><use transform="matrix(0.05,0,0,0.05,27.899999999999995,0)" xlink:href="#ad"/><use transform="matrix(0.05,0,0,0.05,37.9,0)" xlink:href="#ay"/></g><path fill="#333" d="M63-220v92h138v28H63V0H30v-248h175v28H63" id="az"/><g id="u"><use transform="matrix(0.05,0,0,0.05,0,0)" xlink:href="#az"/><use transform="matrix(0.05,0,0,0.05,10.950000000000001,0)" xlink:href="#ak"/><use transform="matrix(0.05,0,0,0.05,14.9,0)" xlink:href="#ac"/><use transform="matrix(0.05,0,0,0.05,24.900000000000002,0)" xlink:href="#ad"/><use transform="matrix(0.05,0,0,0.05,34.900000000000006,0)" xlink:href="#ay"/></g><path fill="#333" d="M115-194c55 1 70 41 70 98S169 2 115 4C84 4 66-9 55-30l1 105H24l-1-265h31l2 30c10-21 28-34 59-34zm-8 174c40 0 45-34 45-75s-6-73-45-74c-42 0-51 32-51 76 0 43 10 73 51 73" id="aA"/><g id="v"><use transform="matrix(0.05,0,0,0.05,0,0)" xlink:href="#ah"/><use transform="matrix(0.05,0,0,0.05,12,0)" xlink:href="#aA"/><use transform="matrix(0.05,0,0,0.05,22,0)" xlink:href="#ay"/><use transform="matrix(0.05,0,0,0.05,25.950000000000003,0)" xlink:href="#ak"/><use transform="matrix(0.05,0,0,0.05,29.899999999999995,0)" xlink:href="#ai"/></g><path d="M233-177c-1 41-23 64-60 70L243 0h-38l-65-103H63V0H30v-248c88 3 205-21 203 71zM63-129c60-2 137 13 137-47 0-61-80-42-137-45v92" id="aB"/><g id="w"><use transform="matrix(0.05,0,0,0.05,0,0)" xlink:href="#aB"/><use transform="matrix(0.05,0,0,0.05,12.950000000000001,0)" xlink:href="#C"/><use transform="matrix(0.05,0,0,0.05,22.950000000000003,0)" xlink:href="#Z"/><use transform="matrix(0.05,0,0,0.05,32.95,0)" xlink:href="#aa"/><use transform="matrix(0.05,0,0,0.05,36.900000000000006,0)" xlink:href="#Q"/><use transform="matrix(0.05,0,0,0.05,46.900000000000006,0)" xlink:href="#K"/></g><g id="x"><use transform="matrix(0.05,0,0,0.05,0,0)" xlink:href="#C"/><use transform="matrix(0.05,0,0,0.05,10,0)" xlink:href="#N"/><use transform="matrix(0.05,0,0,0.05,13.949999999999998,0)" xlink:href="#C"/><use transform="matrix(0.05,0,0,0.05,23.95,0)" xlink:href="#O"/><use transform="matrix(0.05,0,0,0.05,38.9,0)" xlink:href="#C"/><use transform="matrix(0.05,0,0,0.05,48.9,0)" xlink:href="#K"/><use transform="matrix(0.05,0,0,0.05,58.900000000000006,0)" xlink:href="#A"/><use transform="matrix(0.05,0,0,0.05,63.900000000000006,0)" xlink:href="#I"/></g><path d="M127-220V0H93v-220H8v-28h204v28h-85" id="aC"/><g id="y"><use transform="matrix(0.05,0,0,0.05,0,0)" xlink:href="#aC"/><use transform="matrix(0.05,0,0,0.05,10.3,0)" xlink:href="#F"/><use transform="matrix(0.05,0,0,0.05,16.25,0)" xlink:href="#B"/><use transform="matrix(0.05,0,0,0.05,26.25,0)" xlink:href="#K"/><use transform="matrix(0.05,0,0,0.05,36.25,0)" xlink:href="#I"/><use transform="matrix(0.05,0,0,0.05,45.25,0)" xlink:href="#aa"/><use transform="matrix(0.05,0,0,0.05,49.2,0)" xlink:href="#A"/><use transform="matrix(0.05,0,0,0.05,54.2,0)" xlink:href="#aa"/><use transform="matrix(0.05,0,0,0.05,58.150000000000006,0)" xlink:href="#Q"/><use transform="matrix(0.05,0,0,0.05,68.15,0)" xlink:href="#K"/></g></defs></g></svg>