<svg xmlns="http://www.w3.org/2000/svg" xmlns:xlink="http://www.w3.org/1999/xlink" xmlns:lucid="lucid" width="580" height="322"><g transform="translate(-160 -40)" lucid:page-tab-id="yhKhh7.hH.-W"><path d="M360 60h160v60H360z" stroke="#333" stroke-width="2" fill="#c1e4f7"/><use xlink:href="#a" transform="matrix(1,0,0,1,368,68) translate(12.074999999999996 25.6)"/><path d="M180 240h140v102H180z" stroke="#333" stroke-width="2" fill="#c1e4f7"/><path d="M180 277.6h140" stroke="#333" stroke-width="2" fill="none"/><use xlink:href="#b" transform="matrix(1,0,0,1,188,248) translate(39.525 14.6)"/><use xlink:href="#c" transform="matrix(1,0,0,1,192,285.6) translate(0 14.4)"/><use xlink:href="#d" transform="matrix(1,0,0,1,192,285.6) translate(65.45 14.4)"/><use xlink:href="#e" transform="matrix(1,0,0,1,192,285.6) translate(0 36)"/><use xlink:href="#f" transform="matrix(1,0,0,1,192,285.6) translate(73.5 36)"/><path d="M580 240h140v100H580z" stroke="#333" stroke-width="2" fill="#c1e4f7"/><path d="M580 277.6h140" stroke="#333" stroke-width="2" fill="none"/><use xlink:href="#g" transform="matrix(1,0,0,1,588,248) translate(22.924999999999997 14.6)"/><use xlink:href="#c" transform="matrix(1,0,0,1,592,285.6) translate(0 14.4)"/><use xlink:href="#h" transform="matrix(1,0,0,1,592,285.6) translate(65.45 14.4)"/><path d="M321.5 253.94h257" stroke="#333" fill="none"/><path d="M321.5 254.44h-.5v-1h.5zM579 254.44h-.5v-1h.5z" fill="#333"/><use xlink:href="#i" transform="matrix(1,0,0,1,329.4823394495413,257.94000000000005) translate(0 14.4)"/><use xlink:href="#j" transform="matrix(1,0,0,1,329.4823394495413,257.94000000000005) translate(76.85000000000001 14.4)"/><use xlink:href="#k" transform="matrix(1,0,0,1,460.32683486238545,228.34000000000006) translate(0 14.4)"/><use xlink:href="#j" transform="matrix(1,0,0,1,460.32683486238545,228.34000000000006) translate(73.95 14.4)"/><path d="M578.5 315.14h-257" stroke="#333" fill="none"/><path d="M579 315.64h-.5v-1h.5zM321.5 315.64h-.5v-1h.5z" fill="#333"/><use xlink:href="#i" transform="matrix(1,0,0,1,456.96071428571435,289.5400000000001) translate(0 14.4)"/><use xlink:href="#j" transform="matrix(1,0,0,1,456.96071428571435,289.5400000000001) translate(76.85000000000001 14.4)"/><use xlink:href="#k" transform="matrix(1,0,0,1,328.32668067226894,319.1400000000001) translate(0 14.4)"/><use xlink:href="#j" transform="matrix(1,0,0,1,328.32668067226894,319.1400000000001) translate(73.95 14.4)"/><path d="M440 151.38V180H250v42.62" stroke="#333" fill="none"/><path d="M440 121.7l14.85 14.86L440 151.7l-14.85-15.14zM250 237.38l-4.64-14.26h9.28z" stroke="#333" fill="#333"/><g><use xlink:href="#l" transform="matrix(1,0,0,1,283.79536731668,154.39999999999998) translate(0 14.4)"/><use xlink:href="#m" transform="matrix(1,0,0,1,283.79536731668,154.39999999999998) translate(42 14.4)"/></g><path d="M440 151.38V180h210v42.62" stroke="#333" fill="none"/><path d="M440 121.7l14.85 14.86L440 151.7l-14.85-15.14zM650 237.38l-4.64-14.26h9.28z" stroke="#333" fill="#333"/><g><use xlink:href="#l" transform="matrix(1,0,0,1,485.01950365734143,154.39999999999998) translate(0 14.4)"/><use xlink:href="#n" transform="matrix(1,0,0,1,485.01950365734143,154.39999999999998) translate(42 14.4)"/></g><defs><path d="M30-248c87 1 191-15 191 75 0 78-77 80-158 76V0H30v-248zm33 125c57 0 124 11 124-50 0-59-68-47-124-48v98" id="o"/><path d="M100-194c63 0 86 42 84 106H49c0 40 14 67 53 68 26 1 43-12 49-29l28 8c-11 28-37 45-77 45C44 4 14-33 15-96c1-61 26-98 85-98zm52 81c6-60-76-77-97-28-3 7-6 17-6 28h103" id="p"/><path d="M59-47c-2 24 18 29 38 22v24C64 9 27 4 27-40v-127H5v-23h24l9-43h21v43h35v23H59v120" id="q"/><path d="M114-163C36-179 61-72 57 0H25l-1-190h30c1 12-1 29 2 39 6-27 23-49 58-41v29" id="r"/><path d="M24-231v-30h32v30H24zM24 0v-190h32V0H24" id="s"/><path d="M190 0L58-211 59 0H30v-248h39L202-35l-2-213h31V0h-41" id="t"/><path d="M185-189c-5-48-123-54-124 2 14 75 158 14 163 119 3 78-121 87-175 55-17-10-28-26-33-46l33-7c5 56 141 63 141-1 0-78-155-14-162-118-5-82 145-84 179-34 5 7 8 16 11 25" id="u"/><path d="M179-190L93 31C79 59 56 82 12 73V49c39 6 53-20 64-50L1-190h34L92-34l54-156h33" id="v"/><path d="M117-194c89-4 53 116 60 194h-32v-121c0-31-8-49-39-48C34-167 62-67 57 0H25l-1-190h30c1 10-1 24 2 32 11-22 29-35 61-36" id="w"/><path d="M141-36C126-15 110 5 73 4 37 3 15-17 15-53c-1-64 63-63 125-63 3-35-9-54-41-54-24 1-41 7-42 31l-33-3c5-37 33-52 76-52 45 0 72 20 72 64v82c-1 20 7 32 28 27v20c-31 9-61-2-59-35zM48-53c0 20 12 33 32 33 41-3 63-29 60-74-43 2-92-5-92 41" id="x"/><path d="M141 0L90-78 38 0H4l68-98-65-92h35l48 74 47-74h35l-64 92 68 98h-35" id="y"/><g id="a"><use transform="matrix(0.05,0,0,0.05,0,0)" xlink:href="#o"/><use transform="matrix(0.05,0,0,0.05,12,0)" xlink:href="#p"/><use transform="matrix(0.05,0,0,0.05,22,0)" xlink:href="#q"/><use transform="matrix(0.05,0,0,0.05,27,0)" xlink:href="#r"/><use transform="matrix(0.05,0,0,0.05,32.95,0)" xlink:href="#s"/><use transform="matrix(0.05,0,0,0.05,36.900000000000006,0)" xlink:href="#t"/><use transform="matrix(0.05,0,0,0.05,49.85000000000001,0)" xlink:href="#p"/><use transform="matrix(0.05,0,0,0.05,59.85,0)" xlink:href="#q"/><use transform="matrix(0.05,0,0,0.05,64.85000000000001,0)" xlink:href="#u"/><use transform="matrix(0.05,0,0,0.05,76.85000000000001,0)" xlink:href="#v"/><use transform="matrix(0.05,0,0,0.05,85.85000000000001,0)" xlink:href="#w"/><use transform="matrix(0.05,0,0,0.05,95.85000000000001,0)" xlink:href="#q"/><use transform="matrix(0.05,0,0,0.05,100.85000000000001,0)" xlink:href="#x"/><use transform="matrix(0.05,0,0,0.05,110.85000000000001,0)" xlink:href="#y"/></g><path d="M24 0v-261h32V0H24" id="z"/><path d="M96-169c-40 0-48 33-48 73s9 75 48 75c24 0 41-14 43-38l32 2c-6 37-31 61-74 61-59 0-76-41-82-99-10-93 101-131 147-64 4 7 5 14 7 22l-32 3c-4-21-16-35-41-35" id="A"/><g id="b"><use transform="matrix(0.05,0,0,0.05,0,0)" xlink:href="#o"/><use transform="matrix(0.05,0,0,0.05,12,0)" xlink:href="#z"/><use transform="matrix(0.05,0,0,0.05,15.949999999999998,0)" xlink:href="#x"/><use transform="matrix(0.05,0,0,0.05,25.950000000000003,0)" xlink:href="#A"/><use transform="matrix(0.05,0,0,0.05,34.95,0)" xlink:href="#p"/></g><path fill="#333" d="M118-107v75H92v-75H18v-26h74v-75h26v75h74v26h-74" id="B"/><path fill="#333" d="M117-194c89-4 53 116 60 194h-32v-121c0-31-8-49-39-48C34-167 62-67 57 0H25l-1-190h30c1 10-1 24 2 32 11-22 29-35 61-36" id="C"/><path fill="#333" d="M141-36C126-15 110 5 73 4 37 3 15-17 15-53c-1-64 63-63 125-63 3-35-9-54-41-54-24 1-41 7-42 31l-33-3c5-37 33-52 76-52 45 0 72 20 72 64v82c-1 20 7 32 28 27v20c-31 9-61-2-59-35zM48-53c0 20 12 33 32 33 41-3 63-29 60-74-43 2-92-5-92 41" id="D"/><path fill="#333" d="M210-169c-67 3-38 105-44 169h-31v-121c0-29-5-50-35-48C34-165 62-65 56 0H25l-1-190h30c1 10-1 24 2 32 10-44 99-50 107 0 11-21 27-35 58-36 85-2 47 119 55 194h-31v-121c0-29-5-49-35-48" id="E"/><path fill="#333" d="M100-194c63 0 86 42 84 106H49c0 40 14 67 53 68 26 1 43-12 49-29l28 8c-11 28-37 45-77 45C44 4 14-33 15-96c1-61 26-98 85-98zm52 81c6-60-76-77-97-28-3 7-6 17-6 28h103" id="F"/><path fill="#333" d="M33-154v-36h34v36H33zM33 0v-36h34V0H33" id="G"/><g id="c"><use transform="matrix(0.05,0,0,0.05,0,0)" xlink:href="#B"/><use transform="matrix(0.05,0,0,0.05,10.5,0)" xlink:href="#C"/><use transform="matrix(0.05,0,0,0.05,20.5,0)" xlink:href="#D"/><use transform="matrix(0.05,0,0,0.05,30.5,0)" xlink:href="#E"/><use transform="matrix(0.05,0,0,0.05,45.45,0)" xlink:href="#F"/><use transform="matrix(0.05,0,0,0.05,55.45,0)" xlink:href="#G"/></g><path fill="#333" d="M185-189c-5-48-123-54-124 2 14 75 158 14 163 119 3 78-121 87-175 55-17-10-28-26-33-46l33-7c5 56 141 63 141-1 0-78-155-14-162-118-5-82 145-84 179-34 5 7 8 16 11 25" id="H"/><path fill="#333" d="M59-47c-2 24 18 29 38 22v24C64 9 27 4 27-40v-127H5v-23h24l9-43h21v43h35v23H59v120" id="I"/><path fill="#333" d="M114-163C36-179 61-72 57 0H25l-1-190h30c1 12-1 29 2 39 6-27 23-49 58-41v29" id="J"/><path fill="#333" d="M24-231v-30h32v30H24zM24 0v-190h32V0H24" id="K"/><path fill="#333" d="M177-190C167-65 218 103 67 71c-23-6-38-20-44-43l32-5c15 47 100 32 89-28v-30C133-14 115 1 83 1 29 1 15-40 15-95c0-56 16-97 71-98 29-1 48 16 59 35 1-10 0-23 2-32h30zM94-22c36 0 50-32 50-73 0-42-14-75-50-75-39 0-46 34-46 75s6 73 46 73" id="L"/><g id="d"><use transform="matrix(0.05,0,0,0.05,0,0)" xlink:href="#H"/><use transform="matrix(0.05,0,0,0.05,12,0)" xlink:href="#I"/><use transform="matrix(0.05,0,0,0.05,17,0)" xlink:href="#J"/><use transform="matrix(0.05,0,0,0.05,22.95,0)" xlink:href="#K"/><use transform="matrix(0.05,0,0,0.05,26.899999999999995,0)" xlink:href="#C"/><use transform="matrix(0.05,0,0,0.05,36.9,0)" xlink:href="#L"/></g><path fill="#333" d="M100-194c62-1 85 37 85 99 1 63-27 99-86 99S16-35 15-95c0-66 28-99 85-99zM99-20c44 1 53-31 53-75 0-43-8-75-51-75s-53 32-53 75 10 74 51 75" id="M"/><path fill="#333" d="M143 0L79-87 56-68V0H24v-261h32v163l83-92h37l-77 82L181 0h-38" id="N"/><path fill="#333" d="M135-143c-3-34-86-38-87 0 15 53 115 12 119 90S17 21 10-45l28-5c4 36 97 45 98 0-10-56-113-15-118-90-4-57 82-63 122-42 12 7 21 19 24 35" id="O"/><g id="e"><use transform="matrix(0.05,0,0,0.05,0,0)" xlink:href="#B"/><use transform="matrix(0.05,0,0,0.05,10.5,0)" xlink:href="#I"/><use transform="matrix(0.05,0,0,0.05,15.5,0)" xlink:href="#M"/><use transform="matrix(0.05,0,0,0.05,25.5,0)" xlink:href="#N"/><use transform="matrix(0.05,0,0,0.05,34.5,0)" xlink:href="#F"/><use transform="matrix(0.05,0,0,0.05,44.5,0)" xlink:href="#C"/><use transform="matrix(0.05,0,0,0.05,54.5,0)" xlink:href="#O"/><use transform="matrix(0.05,0,0,0.05,63.5,0)" xlink:href="#G"/></g><path fill="#333" d="M33 0v-248h34V0H33" id="P"/><g id="f"><use transform="matrix(0.05,0,0,0.05,0,0)" xlink:href="#P"/><use transform="matrix(0.05,0,0,0.05,5,0)" xlink:href="#C"/><use transform="matrix(0.05,0,0,0.05,15,0)" xlink:href="#I"/></g><path d="M127-220V0H93v-220H8v-28h204v28h-85" id="Q"/><path d="M135-143c-3-34-86-38-87 0 15 53 115 12 119 90S17 21 10-45l28-5c4 36 97 45 98 0-10-56-113-15-118-90-4-57 82-63 122-42 12 7 21 19 24 35" id="R"/><path d="M100-194c62-1 85 37 85 99 1 63-27 99-86 99S16-35 15-95c0-66 28-99 85-99zM99-20c44 1 53-31 53-75 0-43-8-75-51-75s-53 32-53 75 10 74 51 75" id="S"/><g id="g"><use transform="matrix(0.05,0,0,0.05,0,0)" xlink:href="#Q"/><use transform="matrix(0.05,0,0,0.05,10.3,0)" xlink:href="#r"/><use transform="matrix(0.05,0,0,0.05,16.25,0)" xlink:href="#x"/><use transform="matrix(0.05,0,0,0.05,26.25,0)" xlink:href="#w"/><use transform="matrix(0.05,0,0,0.05,36.25,0)" xlink:href="#R"/><use transform="matrix(0.05,0,0,0.05,45.25,0)" xlink:href="#s"/><use transform="matrix(0.05,0,0,0.05,49.2,0)" xlink:href="#q"/><use transform="matrix(0.05,0,0,0.05,54.2,0)" xlink:href="#s"/><use transform="matrix(0.05,0,0,0.05,58.150000000000006,0)" xlink:href="#S"/><use transform="matrix(0.05,0,0,0.05,68.15,0)" xlink:href="#w"/></g><g id="h"><use transform="matrix(0.05,0,0,0.05,0,0)" xlink:href="#H"/><use transform="matrix(0.05,0,0,0.05,12,0)" xlink:href="#I"/><use transform="matrix(0.05,0,0,0.05,17,0)" xlink:href="#J"/><use transform="matrix(0.05,0,0,0.05,22.95,0)" xlink:href="#K"/><use transform="matrix(0.05,0,0,0.05,26.899999999999995,0)" xlink:href="#C"/><use transform="matrix(0.05,0,0,0.05,36.9,0)" xlink:href="#L"/></g><path d="M210-169c-67 3-38 105-44 169h-31v-121c0-29-5-50-35-48C34-165 62-65 56 0H25l-1-190h30c1 10-1 24 2 32 10-44 99-50 107 0 11-21 27-35 58-36 85-2 47 119 55 194h-31v-121c0-29-5-49-35-48" id="T"/><path d="M177-190C167-65 218 103 67 71c-23-6-38-20-44-43l32-5c15 47 100 32 89-28v-30C133-14 115 1 83 1 29 1 15-40 15-95c0-56 16-97 71-98 29-1 48 16 59 35 1-10 0-23 2-32h30zM94-22c36 0 50-32 50-73 0-42-14-75-50-75-39 0-46 34-46 75s6 73 46 73" id="U"/><g id="i"><use transform="matrix(0.05,0,0,0.05,0,0)" xlink:href="#s"/><use transform="matrix(0.05,0,0,0.05,3.95,0)" xlink:href="#w"/><use transform="matrix(0.05,0,0,0.05,13.949999999999998,0)" xlink:href="#A"/><use transform="matrix(0.05,0,0,0.05,22.95,0)" xlink:href="#S"/><use transform="matrix(0.05,0,0,0.05,32.95,0)" xlink:href="#T"/><use transform="matrix(0.05,0,0,0.05,47.900000000000006,0)" xlink:href="#s"/><use transform="matrix(0.05,0,0,0.05,51.85,0)" xlink:href="#w"/><use transform="matrix(0.05,0,0,0.05,61.85,0)" xlink:href="#U"/></g><path d="M26 75v-336h71v23H56V52h41v23H26" id="V"/><path d="M101-251c68 0 85 55 85 127S166 4 100 4C33 4 14-52 14-124c0-73 17-127 87-127zm-1 229c47 0 54-49 54-102s-4-102-53-102c-51 0-55 48-55 102 0 53 5 102 54 102" id="W"/><path d="M33 0v-38h34V0H33" id="X"/><path d="M80-196l47-18 7 23-49 13 32 44-20 13-27-46-27 45-21-12 33-44-49-13 8-23 47 19-2-53h23" id="Y"/><path d="M3 75V52h41v-290H3v-23h71V75H3" id="Z"/><g id="j"><use transform="matrix(0.05,0,0,0.05,0,0)" xlink:href="#V"/><use transform="matrix(0.05,0,0,0.05,5,0)" xlink:href="#W"/><use transform="matrix(0.05,0,0,0.05,15,0)" xlink:href="#X"/><use transform="matrix(0.05,0,0,0.05,20,0)" xlink:href="#X"/><use transform="matrix(0.05,0,0,0.05,25,0)" xlink:href="#Y"/><use transform="matrix(0.05,0,0,0.05,32,0)" xlink:href="#Z"/></g><path d="M84 4C-5 8 30-112 23-190h32v120c0 31 7 50 39 49 72-2 45-101 50-169h31l1 190h-30c-1-10 1-25-2-33-11 22-28 36-60 37" id="aa"/><g id="k"><use transform="matrix(0.05,0,0,0.05,0,0)" xlink:href="#S"/><use transform="matrix(0.05,0,0,0.05,10,0)" xlink:href="#aa"/><use transform="matrix(0.05,0,0,0.05,20,0)" xlink:href="#q"/><use transform="matrix(0.05,0,0,0.05,25,0)" xlink:href="#U"/><use transform="matrix(0.05,0,0,0.05,35,0)" xlink:href="#S"/><use transform="matrix(0.05,0,0,0.05,45,0)" xlink:href="#s"/><use transform="matrix(0.05,0,0,0.05,48.95,0)" xlink:href="#w"/><use transform="matrix(0.05,0,0,0.05,58.95,0)" xlink:href="#U"/></g><g id="l"><use transform="matrix(0.05,0,0,0.05,0,0)" xlink:href="#V"/><use transform="matrix(0.05,0,0,0.05,5,0)" xlink:href="#W"/><use transform="matrix(0.05,0,0,0.05,15,0)" xlink:href="#X"/><use transform="matrix(0.05,0,0,0.05,20,0)" xlink:href="#X"/><use transform="matrix(0.05,0,0,0.05,25,0)" xlink:href="#Y"/><use transform="matrix(0.05,0,0,0.05,32,0)" xlink:href="#Z"/></g><path d="M115-194c55 1 70 41 70 98S169 2 115 4C84 4 66-9 55-30l1 105H24l-1-265h31l2 30c10-21 28-34 59-34zm-8 174c40 0 45-34 45-75s-6-73-45-74c-42 0-51 32-51 76 0 43 10 73 51 73" id="ab"/><g id="m"><use transform="matrix(0.05,0,0,0.05,0,0)" xlink:href="#ab"/><use transform="matrix(0.05,0,0,0.05,10,0)" xlink:href="#z"/><use transform="matrix(0.05,0,0,0.05,13.949999999999998,0)" xlink:href="#x"/><use transform="matrix(0.05,0,0,0.05,23.95,0)" xlink:href="#A"/><use transform="matrix(0.05,0,0,0.05,32.95,0)" xlink:href="#p"/><use transform="matrix(0.05,0,0,0.05,42.95,0)" xlink:href="#R"/></g><g id="n"><use transform="matrix(0.05,0,0,0.05,0,0)" xlink:href="#q"/><use transform="matrix(0.05,0,0,0.05,5,0)" xlink:href="#r"/><use transform="matrix(0.05,0,0,0.05,10.95,0)" xlink:href="#x"/><use transform="matrix(0.05,0,0,0.05,20.95,0)" xlink:href="#w"/><use transform="matrix(0.05,0,0,0.05,30.950000000000003,0)" xlink:href="#R"/><use transform="matrix(0.05,0,0,0.05,39.95,0)" xlink:href="#s"/><use transform="matrix(0.05,0,0,0.05,43.900000000000006,0)" xlink:href="#q"/><use transform="matrix(0.05,0,0,0.05,48.900000000000006,0)" xlink:href="#s"/><use transform="matrix(0.05,0,0,0.05,52.85,0)" xlink:href="#S"/><use transform="matrix(0.05,0,0,0.05,62.85,0)" xlink:href="#w"/><use transform="matrix(0.05,0,0,0.05,72.85000000000001,0)" xlink:href="#R"/></g></defs></g></svg>