<svg xmlns="http://www.w3.org/2000/svg" xmlns:xlink="http://www.w3.org/1999/xlink" xmlns:lucid="lucid" width="700" height="240"><g transform="translate(-540 -20)" lucid:page-tab-id="bNWqHbxniAoA"><path d="M780 40h220v60H780z" stroke="#333" stroke-width="2" fill="#fff"/><use xlink:href="#a" transform="matrix(1,0,0,1,788,48) translate(12.150000000000006 25.6)"/><path d="M1060 180h160v60h-160z" stroke="#333" stroke-width="2" fill="#c1e4f7"/><use xlink:href="#b" transform="matrix(1,0,0,1,1068,188) translate(-3.424999999999997 25.6)"/><path d="M1031.38 70H1140v92.62" stroke="#333" fill="none"/><path d="M1001.7 70l14.86-14.85L1031.7 70l-15.14 14.85zM1140 177.38l-4.64-14.26h9.28z" stroke="#333" fill="#333"/><use xlink:href="#c" transform="matrix(1,0,0,1,1001,74.00000000000001) translate(0 14.4)"/><use xlink:href="#d" transform="matrix(1,0,0,1,1039.4230337613449,44.400000000000006) translate(0.0049999999999954525 14.4)"/><use xlink:href="#e" transform="matrix(1,0,0,1,1039.4230337613449,44.400000000000006) translate(45.004999999999995 14.4)"/><path d="M560 180h160v60H560z" stroke="#333" stroke-width="2" fill="#ffbbb1"/><use xlink:href="#f" transform="matrix(1,0,0,1,568,188) translate(27.599999999999994 25.6)"/><path d="M748.63 70H640v92.62" stroke="#333" fill="none"/><path d="M778.3 70l-14.86 14.85L748.3 70l15.14-14.85zM640 177.38l-4.64-14.26h9.28z" stroke="#333" fill="#333"/><use xlink:href="#g" transform="matrix(1,0,0,1,577.0557546639697,44.400000000000006) translate(0 14.4)"/><use xlink:href="#h" transform="matrix(1,0,0,1,577.0557546639697,44.400000000000006) translate(45 14.4)"/><path d="M780 180h220v60H780z" stroke="#333" stroke-width="2" fill="#c7e8ac"/><use xlink:href="#i" transform="matrix(1,0,0,1,788,188) translate(23.10000000000001 25.6)"/><path d="M890.5 162.62h-1v-7.02h1zm0-28.62h-1v-2.63h1z" fill="#333"/><path d="M904.85 116.56L890 131.7l-14.85-15.14L890 101.7z" fill="#333"/><path d="M905.55 116.55L890 132.42l-15.55-15.87L890 101zm-29.7 0L890 131l14.15-14.44L890 102.4zM890 177.38l-4.64-14.26h9.28z" fill="#333"/><path d="M890 179l-5.32-16.38h10.64zm-3.95-15.38l3.95 12.14 3.95-12.14z" fill="#333"/><use xlink:href="#g" transform="matrix(1,0,0,1,818.075,134.00000000000003) translate(0 14.4)"/><use xlink:href="#j" transform="matrix(1,0,0,1,818.075,134.00000000000003) translate(45 14.4)"/><path d="M778.5 210h-4.72m-4.7 0h-9.44m-4.72 0h-9.43m-4.73 0h-9.43m-4.72 0h-4.7" stroke="#333" fill="none"/><path d="M779 210.5h-.5v-1h.5z" fill="#333"/><path d="M739.2 199.82L721.98 210l17.22 10.18M1001.5 210h4.72m4.7 0h9.44m4.72 0h9.43m4.73 0h9.43m4.7 0h4.73" stroke="#333" fill="none"/><path d="M1001.5 210.5h-.5v-1h.5z" fill="#333"/><path d="M1040.8 220.18l17.22-10.18-17.22-10.18" stroke="#333" fill="none"/><defs><path fill="#333" d="M212-179c-10-28-35-45-73-45-59 0-87 40-87 99 0 60 29 101 89 101 43 0 62-24 78-52l27 14C228-24 195 4 139 4 59 4 22-46 18-125c-6-104 99-153 187-111 19 9 31 26 39 46" id="k"/><path fill="#333" d="M100-194c62-1 85 37 85 99 1 63-27 99-86 99S16-35 15-95c0-66 28-99 85-99zM99-20c44 1 53-31 53-75 0-43-8-75-51-75s-53 32-53 75 10 74 51 75" id="l"/><path fill="#333" d="M84 4C-5 8 30-112 23-190h32v120c0 31 7 50 39 49 72-2 45-101 50-169h31l1 190h-30c-1-10 1-25-2-33-11 22-28 36-60 37" id="m"/><path fill="#333" d="M96-169c-40 0-48 33-48 73s9 75 48 75c24 0 41-14 43-38l32 2c-6 37-31 61-74 61-59 0-76-41-82-99-10-93 101-131 147-64 4 7 5 14 7 22l-32 3c-4-21-16-35-41-35" id="n"/><path fill="#333" d="M106-169C34-169 62-67 57 0H25v-261h32l-1 103c12-21 28-36 61-36 89 0 53 116 60 194h-32v-121c2-32-8-49-39-48" id="o"/><path fill="#333" d="M30 0v-248h187v28H63v79h144v27H63v87h162V0H30" id="p"/><path fill="#333" d="M85-194c31 0 48 13 60 33l-1-100h32l1 261h-30c-2-10 0-23-3-31C134-8 116 4 85 4 32 4 16-35 15-94c0-66 23-100 70-100zm9 24c-40 0-46 34-46 75 0 40 6 74 45 74 42 0 51-32 51-76 0-42-9-74-50-73" id="q"/><path fill="#333" d="M24-231v-30h32v30H24zM24 0v-190h32V0H24" id="r"/><path fill="#333" d="M59-47c-2 24 18 29 38 22v24C64 9 27 4 27-40v-127H5v-23h24l9-43h21v43h35v23H59v120" id="s"/><path fill="#333" d="M101-234c-31-9-42 10-38 44h38v23H63V0H32v-167H5v-23h27c-7-52 17-82 69-68v24" id="t"/><path fill="#333" d="M177-190C167-65 218 103 67 71c-23-6-38-20-44-43l32-5c15 47 100 32 89-28v-30C133-14 115 1 83 1 29 1 15-40 15-95c0-56 16-97 71-98 29-1 48 16 59 35 1-10 0-23 2-32h30zM94-22c36 0 50-32 50-73 0-42-14-75-50-75-39 0-46 34-46 75s6 73 46 73" id="u"/><path fill="#333" d="M114-163C36-179 61-72 57 0H25l-1-190h30c1 12-1 29 2 39 6-27 23-49 58-41v29" id="v"/><path fill="#333" d="M141-36C126-15 110 5 73 4 37 3 15-17 15-53c-1-64 63-63 125-63 3-35-9-54-41-54-24 1-41 7-42 31l-33-3c5-37 33-52 76-52 45 0 72 20 72 64v82c-1 20 7 32 28 27v20c-31 9-61-2-59-35zM48-53c0 20 12 33 32 33 41-3 63-29 60-74-43 2-92-5-92 41" id="w"/><path fill="#333" d="M117-194c89-4 53 116 60 194h-32v-121c0-31-8-49-39-48C34-167 62-67 57 0H25l-1-190h30c1 10-1 24 2 32 11-22 29-35 61-36" id="x"/><g id="a"><use transform="matrix(0.05,0,0,0.05,0,0)" xlink:href="#k"/><use transform="matrix(0.05,0,0,0.05,12.950000000000001,0)" xlink:href="#l"/><use transform="matrix(0.05,0,0,0.05,22.950000000000003,0)" xlink:href="#m"/><use transform="matrix(0.05,0,0,0.05,32.95,0)" xlink:href="#n"/><use transform="matrix(0.05,0,0,0.05,41.95,0)" xlink:href="#o"/><use transform="matrix(0.05,0,0,0.05,51.95,0)" xlink:href="#p"/><use transform="matrix(0.05,0,0,0.05,63.95,0)" xlink:href="#q"/><use transform="matrix(0.05,0,0,0.05,73.95,0)" xlink:href="#r"/><use transform="matrix(0.05,0,0,0.05,77.9,0)" xlink:href="#s"/><use transform="matrix(0.05,0,0,0.05,82.9,0)" xlink:href="#k"/><use transform="matrix(0.05,0,0,0.05,95.85000000000001,0)" xlink:href="#l"/><use transform="matrix(0.05,0,0,0.05,105.85000000000001,0)" xlink:href="#t"/><use transform="matrix(0.05,0,0,0.05,110.85000000000001,0)" xlink:href="#r"/><use transform="matrix(0.05,0,0,0.05,114.80000000000001,0)" xlink:href="#u"/><use transform="matrix(0.05,0,0,0.05,124.80000000000001,0)" xlink:href="#m"/><use transform="matrix(0.05,0,0,0.05,134.8,0)" xlink:href="#v"/><use transform="matrix(0.05,0,0,0.05,140.75,0)" xlink:href="#w"/><use transform="matrix(0.05,0,0,0.05,150.75,0)" xlink:href="#s"/><use transform="matrix(0.05,0,0,0.05,155.75,0)" xlink:href="#r"/><use transform="matrix(0.05,0,0,0.05,159.7,0)" xlink:href="#l"/><use transform="matrix(0.05,0,0,0.05,169.7,0)" xlink:href="#x"/></g><path fill="#333" d="M205 0l-28-72H64L36 0H1l101-248h38L239 0h-34zm-38-99l-47-123c-12 45-31 82-46 123h93" id="y"/><path fill="#333" d="M115-194c53 0 69 39 70 98 0 66-23 100-70 100C84 3 66-7 56-30L54 0H23l1-261h32v101c10-23 28-34 59-34zm-8 174c40 0 45-34 45-75 0-40-5-75-45-74-42 0-51 32-51 76 0 43 10 73 51 73" id="z"/><path fill="#333" d="M135-143c-3-34-86-38-87 0 15 53 115 12 119 90S17 21 10-45l28-5c4 36 97 45 98 0-10-56-113-15-118-90-4-57 82-63 122-42 12 7 21 19 24 35" id="A"/><path fill="#333" d="M185-189c-5-48-123-54-124 2 14 75 158 14 163 119 3 78-121 87-175 55-17-10-28-26-33-46l33-7c5 56 141 63 141-1 0-78-155-14-162-118-5-82 145-84 179-34 5 7 8 16 11 25" id="B"/><path fill="#333" d="M179-190L93 31C79 59 56 82 12 73V49c39 6 53-20 64-50L1-190h34L92-34l54-156h33" id="C"/><path fill="#333" d="M141 0L90-78 38 0H4l68-98-65-92h35l48 74 47-74h35l-64 92 68 98h-35" id="D"/><path fill="#333" d="M240 0l2-218c-23 76-54 145-80 218h-23L58-218 59 0H30v-248h44l77 211c21-75 51-140 76-211h43V0h-30" id="E"/><g id="b"><use transform="matrix(0.05,0,0,0.05,0,0)" xlink:href="#y"/><use transform="matrix(0.05,0,0,0.05,12,0)" xlink:href="#z"/><use transform="matrix(0.05,0,0,0.05,22,0)" xlink:href="#A"/><use transform="matrix(0.05,0,0,0.05,31,0)" xlink:href="#s"/><use transform="matrix(0.05,0,0,0.05,36,0)" xlink:href="#v"/><use transform="matrix(0.05,0,0,0.05,41.95,0)" xlink:href="#w"/><use transform="matrix(0.05,0,0,0.05,51.95,0)" xlink:href="#n"/><use transform="matrix(0.05,0,0,0.05,60.95,0)" xlink:href="#s"/><use transform="matrix(0.05,0,0,0.05,65.95,0)" xlink:href="#B"/><use transform="matrix(0.05,0,0,0.05,77.95,0)" xlink:href="#C"/><use transform="matrix(0.05,0,0,0.05,86.95,0)" xlink:href="#x"/><use transform="matrix(0.05,0,0,0.05,96.95,0)" xlink:href="#s"/><use transform="matrix(0.05,0,0,0.05,101.95,0)" xlink:href="#w"/><use transform="matrix(0.05,0,0,0.05,111.95,0)" xlink:href="#D"/><use transform="matrix(0.05,0,0,0.05,120.95,0)" xlink:href="#E"/><use transform="matrix(0.05,0,0,0.05,135.9,0)" xlink:href="#E"/></g><path fill="#333" d="M26 75v-336h71v23H56V52h41v23H26" id="F"/><path fill="#333" d="M27 0v-27h64v-190l-56 39v-29l58-41h29v221h61V0H27" id="G"/><path fill="#333" d="M33 0v-38h34V0H33" id="H"/><path fill="#333" d="M3 75V52h41v-290H3v-23h71V75H3" id="I"/><g id="d"><use transform="matrix(0.05,0,0,0.05,0,0)" xlink:href="#F"/><use transform="matrix(0.05,0,0,0.05,5,0)" xlink:href="#G"/><use transform="matrix(0.05,0,0,0.05,15,0)" xlink:href="#H"/><use transform="matrix(0.05,0,0,0.05,20,0)" xlink:href="#H"/><use transform="matrix(0.05,0,0,0.05,25,0)" xlink:href="#G"/><use transform="matrix(0.05,0,0,0.05,35,0)" xlink:href="#I"/></g><g id="e"><use transform="matrix(0.05,0,0,0.05,0,0)" xlink:href="#w"/><use transform="matrix(0.05,0,0,0.05,10,0)" xlink:href="#z"/><use transform="matrix(0.05,0,0,0.05,20,0)" xlink:href="#A"/><use transform="matrix(0.05,0,0,0.05,29,0)" xlink:href="#s"/><use transform="matrix(0.05,0,0,0.05,34,0)" xlink:href="#v"/><use transform="matrix(0.05,0,0,0.05,39.95,0)" xlink:href="#w"/><use transform="matrix(0.05,0,0,0.05,49.95,0)" xlink:href="#n"/><use transform="matrix(0.05,0,0,0.05,58.95,0)" xlink:href="#s"/><use transform="matrix(0.05,0,0,0.05,63.95,0)" xlink:href="#B"/><use transform="matrix(0.05,0,0,0.05,75.95,0)" xlink:href="#C"/><use transform="matrix(0.05,0,0,0.05,84.95,0)" xlink:href="#x"/><use transform="matrix(0.05,0,0,0.05,94.95,0)" xlink:href="#s"/><use transform="matrix(0.05,0,0,0.05,99.95,0)" xlink:href="#w"/><use transform="matrix(0.05,0,0,0.05,109.95,0)" xlink:href="#D"/></g><path d="M233-177c-1 41-23 64-60 70L243 0h-38l-65-103H63V0H30v-248c88 3 205-21 203 71zM63-129c60-2 137 13 137-47 0-61-80-42-137-45v92" id="J"/><path d="M100-194c63 0 86 42 84 106H49c0 40 14 67 53 68 26 1 43-12 49-29l28 8c-11 28-37 45-77 45C44 4 14-33 15-96c1-61 26-98 85-98zm52 81c6-60-76-77-97-28-3 7-6 17-6 28h103" id="K"/><path d="M117-194c89-4 53 116 60 194h-32v-121c0-31-8-49-39-48C34-167 62-67 57 0H25l-1-190h30c1 10-1 24 2 32 11-22 29-35 61-36" id="L"/><path d="M85-194c31 0 48 13 60 33l-1-100h32l1 261h-30c-2-10 0-23-3-31C134-8 116 4 85 4 32 4 16-35 15-94c0-66 23-100 70-100zm9 24c-40 0-46 34-46 75 0 40 6 74 45 74 42 0 51-32 51-76 0-42-9-74-50-73" id="M"/><path d="M114-163C36-179 61-72 57 0H25l-1-190h30c1 12-1 29 2 39 6-27 23-49 58-41v29" id="N"/><path d="M240 0l2-218c-23 76-54 145-80 218h-23L58-218 59 0H30v-248h44l77 211c21-75 51-140 76-211h43V0h-30" id="O"/><g id="f"><use transform="matrix(0.05,0,0,0.05,0,0)" xlink:href="#J"/><use transform="matrix(0.05,0,0,0.05,12.950000000000001,0)" xlink:href="#K"/><use transform="matrix(0.05,0,0,0.05,22.950000000000003,0)" xlink:href="#L"/><use transform="matrix(0.05,0,0,0.05,32.95,0)" xlink:href="#M"/><use transform="matrix(0.05,0,0,0.05,42.95,0)" xlink:href="#K"/><use transform="matrix(0.05,0,0,0.05,52.95,0)" xlink:href="#N"/><use transform="matrix(0.05,0,0,0.05,58.900000000000006,0)" xlink:href="#O"/><use transform="matrix(0.05,0,0,0.05,73.85000000000001,0)" xlink:href="#O"/></g><path d="M26 75v-336h71v23H56V52h41v23H26" id="P"/><path d="M27 0v-27h64v-190l-56 39v-29l58-41h29v221h61V0H27" id="Q"/><path d="M33 0v-38h34V0H33" id="R"/><path d="M3 75V52h41v-290H3v-23h71V75H3" id="S"/><g id="g"><use transform="matrix(0.05,0,0,0.05,0,0)" xlink:href="#P"/><use transform="matrix(0.05,0,0,0.05,5,0)" xlink:href="#Q"/><use transform="matrix(0.05,0,0,0.05,15,0)" xlink:href="#R"/><use transform="matrix(0.05,0,0,0.05,20,0)" xlink:href="#R"/><use transform="matrix(0.05,0,0,0.05,25,0)" xlink:href="#Q"/><use transform="matrix(0.05,0,0,0.05,35,0)" xlink:href="#S"/></g><path d="M185-189c-5-48-123-54-124 2 14 75 158 14 163 119 3 78-121 87-175 55-17-10-28-26-33-46l33-7c5 56 141 63 141-1 0-78-155-14-162-118-5-82 145-84 179-34 5 7 8 16 11 25" id="T"/><path d="M179-190L93 31C79 59 56 82 12 73V49c39 6 53-20 64-50L1-190h34L92-34l54-156h33" id="U"/><path d="M59-47c-2 24 18 29 38 22v24C64 9 27 4 27-40v-127H5v-23h24l9-43h21v43h35v23H59v120" id="V"/><path d="M141-36C126-15 110 5 73 4 37 3 15-17 15-53c-1-64 63-63 125-63 3-35-9-54-41-54-24 1-41 7-42 31l-33-3c5-37 33-52 76-52 45 0 72 20 72 64v82c-1 20 7 32 28 27v20c-31 9-61-2-59-35zM48-53c0 20 12 33 32 33 41-3 63-29 60-74-43 2-92-5-92 41" id="W"/><path d="M141 0L90-78 38 0H4l68-98-65-92h35l48 74 47-74h35l-64 92 68 98h-35" id="X"/><g id="h"><use transform="matrix(0.05,0,0,0.05,0,0)" xlink:href="#N"/><use transform="matrix(0.05,0,0,0.05,5.95,0)" xlink:href="#K"/><use transform="matrix(0.05,0,0,0.05,15.949999999999998,0)" xlink:href="#L"/><use transform="matrix(0.05,0,0,0.05,25.950000000000003,0)" xlink:href="#M"/><use transform="matrix(0.05,0,0,0.05,35.95,0)" xlink:href="#K"/><use transform="matrix(0.05,0,0,0.05,45.95,0)" xlink:href="#N"/><use transform="matrix(0.05,0,0,0.05,51.900000000000006,0)" xlink:href="#T"/><use transform="matrix(0.05,0,0,0.05,63.900000000000006,0)" xlink:href="#U"/><use transform="matrix(0.05,0,0,0.05,72.9,0)" xlink:href="#L"/><use transform="matrix(0.05,0,0,0.05,82.9,0)" xlink:href="#V"/><use transform="matrix(0.05,0,0,0.05,87.9,0)" xlink:href="#W"/><use transform="matrix(0.05,0,0,0.05,97.9,0)" xlink:href="#X"/></g><path fill="#333" d="M100-194c63 0 86 42 84 106H49c0 40 14 67 53 68 26 1 43-12 49-29l28 8c-11 28-37 45-77 45C44 4 14-33 15-96c1-61 26-98 85-98zm52 81c6-60-76-77-97-28-3 7-6 17-6 28h103" id="Y"/><g id="i"><use transform="matrix(0.05,0,0,0.05,0,0)" xlink:href="#k"/><use transform="matrix(0.05,0,0,0.05,12.950000000000001,0)" xlink:href="#l"/><use transform="matrix(0.05,0,0,0.05,22.950000000000003,0)" xlink:href="#x"/><use transform="matrix(0.05,0,0,0.05,32.95,0)" xlink:href="#n"/><use transform="matrix(0.05,0,0,0.05,41.95,0)" xlink:href="#v"/><use transform="matrix(0.05,0,0,0.05,47.900000000000006,0)" xlink:href="#Y"/><use transform="matrix(0.05,0,0,0.05,57.900000000000006,0)" xlink:href="#s"/><use transform="matrix(0.05,0,0,0.05,62.900000000000006,0)" xlink:href="#Y"/><use transform="matrix(0.05,0,0,0.05,72.9,0)" xlink:href="#B"/><use transform="matrix(0.05,0,0,0.05,84.9,0)" xlink:href="#C"/><use transform="matrix(0.05,0,0,0.05,93.9,0)" xlink:href="#x"/><use transform="matrix(0.05,0,0,0.05,103.9,0)" xlink:href="#s"/><use transform="matrix(0.05,0,0,0.05,108.9,0)" xlink:href="#w"/><use transform="matrix(0.05,0,0,0.05,118.9,0)" xlink:href="#D"/><use transform="matrix(0.05,0,0,0.05,127.9,0)" xlink:href="#E"/><use transform="matrix(0.05,0,0,0.05,142.85,0)" xlink:href="#E"/></g><path d="M96-169c-40 0-48 33-48 73s9 75 48 75c24 0 41-14 43-38l32 2c-6 37-31 61-74 61-59 0-76-41-82-99-10-93 101-131 147-64 4 7 5 14 7 22l-32 3c-4-21-16-35-41-35" id="Z"/><path d="M100-194c62-1 85 37 85 99 1 63-27 99-86 99S16-35 15-95c0-66 28-99 85-99zM99-20c44 1 53-31 53-75 0-43-8-75-51-75s-53 32-53 75 10 74 51 75" id="aa"/><g id="j"><use transform="matrix(0.05,0,0,0.05,0,0)" xlink:href="#Z"/><use transform="matrix(0.05,0,0,0.05,9,0)" xlink:href="#aa"/><use transform="matrix(0.05,0,0,0.05,19,0)" xlink:href="#L"/><use transform="matrix(0.05,0,0,0.05,29,0)" xlink:href="#Z"/><use transform="matrix(0.05,0,0,0.05,38,0)" xlink:href="#N"/><use transform="matrix(0.05,0,0,0.05,43.95,0)" xlink:href="#K"/><use transform="matrix(0.05,0,0,0.05,53.95,0)" xlink:href="#V"/><use transform="matrix(0.05,0,0,0.05,58.95,0)" xlink:href="#K"/><use transform="matrix(0.05,0,0,0.05,68.95,0)" xlink:href="#O"/><use transform="matrix(0.05,0,0,0.05,83.9,0)" xlink:href="#O"/></g></defs></g></svg>