<svg xmlns="http://www.w3.org/2000/svg" xmlns:xlink="http://www.w3.org/1999/xlink" xmlns:lucid="lucid" width="920" height="272"><g transform="translate(-280 -180)" lucid:page-tab-id="Ad.lY61vpkFx"><path d="M1020 304h160v60h-160z" stroke="#333" stroke-width="2" fill="#c1e4f7"/><use xlink:href="#a" transform="matrix(1,0,0,1,1028,312.00000000000006) translate(49.525 25.6)"/><path d="M1020 204h160v60h-160z" stroke="#333" stroke-width="2" fill="#c1e4f7"/><use xlink:href="#b" transform="matrix(1,0,0,1,1028,212.00000000000006) translate(14.599999999999994 25.6)"/><path d="M1100 302.5v-21.12" stroke="#333" fill="none"/><path d="M1100.5 303h-1v-.5h1z" fill="#333"/><path d="M1100 266.62l4.64 14.26h-9.28z" stroke="#333" fill="#fff"/><path d="M800 300h160v60H800z" stroke="#333" stroke-width="2" fill="#c7e8ac"/><use xlink:href="#c" transform="matrix(1,0,0,1,808,308) translate(35.574999999999996 25.6)"/><path d="M800 200h160v60H800z" stroke="#333" stroke-width="2" fill="#c7e8ac"/><use xlink:href="#d" transform="matrix(1,0,0,1,808,208) translate(7.125 25.6)"/><path d="M880 298.5v-21.12" stroke="#333" fill="none"/><path d="M880.5 299h-1v-.5h1z" fill="#333"/><path d="M880 262.62l4.64 14.26h-9.28z" stroke="#333" fill="#fff"/><path d="M580 200h160v60H580z" stroke="#333" stroke-width="2" fill="#c7e8ac"/><use xlink:href="#e" transform="matrix(1,0,0,1,588,208) translate(20.124999999999993 25.6)"/><path d="M580 300h160v60H580z" stroke="#333" stroke-width="2" fill="#c7e8ac"/><use xlink:href="#f" transform="matrix(1,0,0,1,588,308) translate(-2.3500000000000085 25.6)"/><path d="M300 308h160v44H300z" stroke="#333" stroke-width="2" fill="#ffbbb1"/><use xlink:href="#g" transform="matrix(1,0,0,1,308,316) translate(31.025 17.6)"/><path d="M548.63 330h-71.25" stroke="#333" fill="none"/><path d="M578.3 330l-14.86 14.85L548.3 330l15.14-14.85zM462.62 330l14.26-4.64v9.28z" stroke="#333" fill="#333"/><use xlink:href="#h" transform="matrix(1,0,0,1,469.85719373219365,304.4) translate(0 14.4)"/><use xlink:href="#i" transform="matrix(1,0,0,1,474.642735042735,333.99999999999994) translate(0 14.4)"/><path d="M798.5 330h-41.12" stroke="#333" fill="none"/><path d="M799 330.5h-.5v-1h.5z" fill="#333"/><path d="M742.62 330l14.26-4.64v9.28z" stroke="#333" fill="#333"/><use xlink:href="#j" transform="matrix(1,0,0,1,746.7333333333332,333.99999999999994) translate(0 14.4)"/><use xlink:href="#k" transform="matrix(1,0,0,1,746.7333333333332,333.99999999999994) translate(15 14.4)"/><path d="M961.5 330h57" stroke="#333" fill="none"/><path d="M961.5 330.5h-.5v-1h.5zM1019 330.5h-.5v-1h.5z" fill="#333"/><use xlink:href="#l" transform="matrix(1,0,0,1,963.2583333333332,334.00000000000006) translate(0 14.4)"/><use xlink:href="#m" transform="matrix(1,0,0,1,1004.0666666666666,304.4000000000001) translate(0 14.4)"/><use xlink:href="#n" transform="matrix(1,0,0,1,966.7333333333333,304.4000000000001) translate(0 14.4)"/><use xlink:href="#o" transform="matrix(1,0,0,1,993.9249999999998,334.00000000000006) translate(0 14.4)"/><path d="M660 298.5v-21.12" stroke="#333" fill="none"/><path d="M660.5 299h-1v-.5h1z" fill="#333"/><path d="M660 262.62l4.64 14.26h-9.28z" stroke="#333" fill="#fff"/><path d="M300 226h160v44H300z" stroke="#333" stroke-width="2" fill="#ffbbb1"/><use xlink:href="#p" transform="matrix(1,0,0,1,308,234) translate(30.099999999999994 17.6)"/><path d="M578.5 330H520v-82h-42.62" stroke="#333" fill="none"/><path d="M579 330.5h-.5v-1h.5z" fill="#333"/><path d="M462.62 248l14.26-4.64v9.28z" stroke="#333" fill="#333"/><use xlink:href="#q" transform="matrix(1,0,0,1,478.6230889131614,222.39999999999998) translate(0 14.4)"/><use xlink:href="#n" transform="matrix(1,0,0,1,489.7888942516388,251.99999999999994) translate(0 14.4)"/><path d="M300 388h160v44H300z" stroke="#333" stroke-width="2" fill="#ffbbb1"/><use xlink:href="#p" transform="matrix(1,0,0,1,308,396) translate(30.099999999999994 17.6)"/><path d="M578.5 330H520v80h-42.62" stroke="#333" fill="none"/><path d="M579 330.5h-.5v-1h.5z" fill="#333"/><path d="M462.62 410l14.26-4.64v9.28z" stroke="#333" fill="#333"/><use xlink:href="#r" transform="matrix(1,0,0,1,468.0432688811799,414) translate(0.004999999999999005 14.4)"/><use xlink:href="#s" transform="matrix(1,0,0,1,475.5719450303021,384.4) translate(0 14.4)"/><defs><path d="M30-248c87 1 191-15 191 75 0 78-77 80-158 76V0H30v-248zm33 125c57 0 124 11 124-50 0-59-68-47-124-48v98" id="t"/><path d="M24 0v-261h32V0H24" id="u"/><path d="M141-36C126-15 110 5 73 4 37 3 15-17 15-53c-1-64 63-63 125-63 3-35-9-54-41-54-24 1-41 7-42 31l-33-3c5-37 33-52 76-52 45 0 72 20 72 64v82c-1 20 7 32 28 27v20c-31 9-61-2-59-35zM48-53c0 20 12 33 32 33 41-3 63-29 60-74-43 2-92-5-92 41" id="v"/><path d="M96-169c-40 0-48 33-48 73s9 75 48 75c24 0 41-14 43-38l32 2c-6 37-31 61-74 61-59 0-76-41-82-99-10-93 101-131 147-64 4 7 5 14 7 22l-32 3c-4-21-16-35-41-35" id="w"/><path d="M100-194c63 0 86 42 84 106H49c0 40 14 67 53 68 26 1 43-12 49-29l28 8c-11 28-37 45-77 45C44 4 14-33 15-96c1-61 26-98 85-98zm52 81c6-60-76-77-97-28-3 7-6 17-6 28h103" id="x"/><g id="a"><use transform="matrix(0.05,0,0,0.05,0,0)" xlink:href="#t"/><use transform="matrix(0.05,0,0,0.05,12,0)" xlink:href="#u"/><use transform="matrix(0.05,0,0,0.05,15.949999999999998,0)" xlink:href="#v"/><use transform="matrix(0.05,0,0,0.05,25.950000000000003,0)" xlink:href="#w"/><use transform="matrix(0.05,0,0,0.05,34.95,0)" xlink:href="#x"/></g><path d="M240 0l2-218c-23 76-54 145-80 218h-23L58-218 59 0H30v-248h44l77 211c21-75 51-140 76-211h43V0h-30" id="y"/><path d="M100-194c62-1 85 37 85 99 1 63-27 99-86 99S16-35 15-95c0-66 28-99 85-99zM99-20c44 1 53-31 53-75 0-43-8-75-51-75s-53 32-53 75 10 74 51 75" id="z"/><path d="M85-194c31 0 48 13 60 33l-1-100h32l1 261h-30c-2-10 0-23-3-31C134-8 116 4 85 4 32 4 16-35 15-94c0-66 23-100 70-100zm9 24c-40 0-46 34-46 75 0 40 6 74 45 74 42 0 51-32 51-76 0-42-9-74-50-73" id="A"/><path d="M30 0v-248h187v28H63v79h144v27H63v87h162V0H30" id="B"/><path d="M210-169c-67 3-38 105-44 169h-31v-121c0-29-5-50-35-48C34-165 62-65 56 0H25l-1-190h30c1 10-1 24 2 32 10-44 99-50 107 0 11-21 27-35 58-36 85-2 47 119 55 194h-31v-121c0-29-5-49-35-48" id="C"/><path d="M117-194c89-4 53 116 60 194h-32v-121c0-31-8-49-39-48C34-167 62-67 57 0H25l-1-190h30c1 10-1 24 2 32 11-22 29-35 61-36" id="D"/><path d="M59-47c-2 24 18 29 38 22v24C64 9 27 4 27-40v-127H5v-23h24l9-43h21v43h35v23H59v120" id="E"/><g id="b"><use transform="matrix(0.05,0,0,0.05,0,0)" xlink:href="#y"/><use transform="matrix(0.05,0,0,0.05,14.950000000000001,0)" xlink:href="#z"/><use transform="matrix(0.05,0,0,0.05,24.950000000000003,0)" xlink:href="#A"/><use transform="matrix(0.05,0,0,0.05,34.95,0)" xlink:href="#x"/><use transform="matrix(0.05,0,0,0.05,44.95,0)" xlink:href="#u"/><use transform="matrix(0.05,0,0,0.05,48.900000000000006,0)" xlink:href="#B"/><use transform="matrix(0.05,0,0,0.05,60.900000000000006,0)" xlink:href="#u"/><use transform="matrix(0.05,0,0,0.05,64.85000000000001,0)" xlink:href="#x"/><use transform="matrix(0.05,0,0,0.05,74.85000000000001,0)" xlink:href="#C"/><use transform="matrix(0.05,0,0,0.05,89.80000000000001,0)" xlink:href="#x"/><use transform="matrix(0.05,0,0,0.05,99.80000000000001,0)" xlink:href="#D"/><use transform="matrix(0.05,0,0,0.05,109.80000000000001,0)" xlink:href="#E"/></g><path d="M30-248c118-7 216 8 213 122C240-48 200 0 122 0H30v-248zM63-27c89 8 146-16 146-99s-60-101-146-95v194" id="F"/><g id="c"><use transform="matrix(0.05,0,0,0.05,0,0)" xlink:href="#t"/><use transform="matrix(0.05,0,0,0.05,12,0)" xlink:href="#u"/><use transform="matrix(0.05,0,0,0.05,15.949999999999998,0)" xlink:href="#v"/><use transform="matrix(0.05,0,0,0.05,25.950000000000003,0)" xlink:href="#w"/><use transform="matrix(0.05,0,0,0.05,34.95,0)" xlink:href="#x"/><use transform="matrix(0.05,0,0,0.05,44.95,0)" xlink:href="#F"/><use transform="matrix(0.05,0,0,0.05,57.900000000000006,0)" xlink:href="#y"/></g><path d="M24-231v-30h32v30H24zM24 0v-190h32V0H24" id="G"/><path d="M135-143c-3-34-86-38-87 0 15 53 115 12 119 90S17 21 10-45l28-5c4 36 97 45 98 0-10-56-113-15-118-90-4-57 82-63 122-42 12 7 21 19 24 35" id="H"/><path d="M115-194c55 1 70 41 70 98S169 2 115 4C84 4 66-9 55-30l1 105H24l-1-265h31l2 30c10-21 28-34 59-34zm-8 174c40 0 45-34 45-75s-6-73-45-74c-42 0-51 32-51 76 0 43 10 73 51 73" id="I"/><path d="M179-190L93 31C79 59 56 82 12 73V49c39 6 53-20 64-50L1-190h34L92-34l54-156h33" id="J"/><path d="M177-190C167-65 218 103 67 71c-23-6-38-20-44-43l32-5c15 47 100 32 89-28v-30C133-14 115 1 83 1 29 1 15-40 15-95c0-56 16-97 71-98 29-1 48 16 59 35 1-10 0-23 2-32h30zM94-22c36 0 50-32 50-73 0-42-14-75-50-75-39 0-46 34-46 75s6 73 46 73" id="K"/><path d="M114-163C36-179 61-72 57 0H25l-1-190h30c1 12-1 29 2 39 6-27 23-49 58-41v29" id="L"/><g id="d"><use transform="matrix(0.05,0,0,0.05,0,0)" xlink:href="#F"/><use transform="matrix(0.05,0,0,0.05,12.950000000000001,0)" xlink:href="#G"/><use transform="matrix(0.05,0,0,0.05,16.900000000000002,0)" xlink:href="#H"/><use transform="matrix(0.05,0,0,0.05,25.900000000000002,0)" xlink:href="#I"/><use transform="matrix(0.05,0,0,0.05,35.900000000000006,0)" xlink:href="#u"/><use transform="matrix(0.05,0,0,0.05,39.85000000000001,0)" xlink:href="#v"/><use transform="matrix(0.05,0,0,0.05,49.85000000000001,0)" xlink:href="#J"/><use transform="matrix(0.05,0,0,0.05,58.85,0)" xlink:href="#y"/><use transform="matrix(0.05,0,0,0.05,73.80000000000001,0)" xlink:href="#v"/><use transform="matrix(0.05,0,0,0.05,83.80000000000001,0)" xlink:href="#D"/><use transform="matrix(0.05,0,0,0.05,93.80000000000001,0)" xlink:href="#v"/><use transform="matrix(0.05,0,0,0.05,103.80000000000001,0)" xlink:href="#K"/><use transform="matrix(0.05,0,0,0.05,113.80000000000001,0)" xlink:href="#x"/><use transform="matrix(0.05,0,0,0.05,123.80000000000001,0)" xlink:href="#L"/></g><path d="M212-179c-10-28-35-45-73-45-59 0-87 40-87 99 0 60 29 101 89 101 43 0 62-24 78-52l27 14C228-24 195 4 139 4 59 4 22-46 18-125c-6-104 99-153 187-111 19 9 31 26 39 46" id="M"/><g id="e"><use transform="matrix(0.05,0,0,0.05,0,0)" xlink:href="#F"/><use transform="matrix(0.05,0,0,0.05,12.950000000000001,0)" xlink:href="#G"/><use transform="matrix(0.05,0,0,0.05,16.900000000000002,0)" xlink:href="#H"/><use transform="matrix(0.05,0,0,0.05,25.900000000000002,0)" xlink:href="#I"/><use transform="matrix(0.05,0,0,0.05,35.900000000000006,0)" xlink:href="#u"/><use transform="matrix(0.05,0,0,0.05,39.85000000000001,0)" xlink:href="#v"/><use transform="matrix(0.05,0,0,0.05,49.85000000000001,0)" xlink:href="#J"/><use transform="matrix(0.05,0,0,0.05,58.85,0)" xlink:href="#M"/><use transform="matrix(0.05,0,0,0.05,71.80000000000001,0)" xlink:href="#u"/><use transform="matrix(0.05,0,0,0.05,75.75000000000001,0)" xlink:href="#v"/><use transform="matrix(0.05,0,0,0.05,85.75000000000001,0)" xlink:href="#H"/><use transform="matrix(0.05,0,0,0.05,94.75000000000001,0)" xlink:href="#H"/></g><g id="f"><use transform="matrix(0.05,0,0,0.05,0,0)" xlink:href="#t"/><use transform="matrix(0.05,0,0,0.05,12,0)" xlink:href="#u"/><use transform="matrix(0.05,0,0,0.05,15.949999999999998,0)" xlink:href="#v"/><use transform="matrix(0.05,0,0,0.05,25.950000000000003,0)" xlink:href="#w"/><use transform="matrix(0.05,0,0,0.05,34.95,0)" xlink:href="#x"/><use transform="matrix(0.05,0,0,0.05,44.95,0)" xlink:href="#F"/><use transform="matrix(0.05,0,0,0.05,57.900000000000006,0)" xlink:href="#G"/><use transform="matrix(0.05,0,0,0.05,61.85,0)" xlink:href="#H"/><use transform="matrix(0.05,0,0,0.05,70.85000000000001,0)" xlink:href="#I"/><use transform="matrix(0.05,0,0,0.05,80.85000000000001,0)" xlink:href="#u"/><use transform="matrix(0.05,0,0,0.05,84.80000000000001,0)" xlink:href="#v"/><use transform="matrix(0.05,0,0,0.05,94.80000000000001,0)" xlink:href="#J"/><use transform="matrix(0.05,0,0,0.05,103.80000000000001,0)" xlink:href="#M"/><use transform="matrix(0.05,0,0,0.05,116.75,0)" xlink:href="#u"/><use transform="matrix(0.05,0,0,0.05,120.7,0)" xlink:href="#v"/><use transform="matrix(0.05,0,0,0.05,130.70000000000002,0)" xlink:href="#H"/><use transform="matrix(0.05,0,0,0.05,139.70000000000002,0)" xlink:href="#H"/></g><path d="M185-189c-5-48-123-54-124 2 14 75 158 14 163 119 3 78-121 87-175 55-17-10-28-26-33-46l33-7c5 56 141 63 141-1 0-78-155-14-162-118-5-82 145-84 179-34 5 7 8 16 11 25" id="N"/><path d="M137 0h-34L2-248h35l83 218 83-218h36" id="O"/><path d="M143 4C61 4 22-44 18-125c-5-107 100-154 193-111 17 8 29 25 37 43l-32 9c-13-25-37-40-76-40-61 0-88 39-88 99 0 61 29 100 91 101 35 0 62-11 79-27v-45h-74v-28h105v86C228-13 192 4 143 4" id="P"/><path d="M30 0v-248h33v221h125V0H30" id="Q"/><path d="M115-194c53 0 69 39 70 98 0 66-23 100-70 100C84 3 66-7 56-30L54 0H23l1-261h32v101c10-23 28-34 59-34zm-8 174c40 0 45-34 45-75 0-40-5-75-45-74-42 0-51 32-51 76 0 43 10 73 51 73" id="R"/><g id="g"><use transform="matrix(0.05,0,0,0.05,0,0)" xlink:href="#N"/><use transform="matrix(0.05,0,0,0.05,12,0)" xlink:href="#O"/><use transform="matrix(0.05,0,0,0.05,24,0)" xlink:href="#P"/><use transform="matrix(0.05,0,0,0.05,38,0)" xlink:href="#Q"/><use transform="matrix(0.05,0,0,0.05,48,0)" xlink:href="#v"/><use transform="matrix(0.05,0,0,0.05,58,0)" xlink:href="#R"/><use transform="matrix(0.05,0,0,0.05,68,0)" xlink:href="#x"/><use transform="matrix(0.05,0,0,0.05,78,0)" xlink:href="#u"/></g><g id="h"><use transform="matrix(0.05,0,0,0.05,0,0)" xlink:href="#D"/><use transform="matrix(0.05,0,0,0.05,10,0)" xlink:href="#v"/><use transform="matrix(0.05,0,0,0.05,20,0)" xlink:href="#C"/><use transform="matrix(0.05,0,0,0.05,34.95,0)" xlink:href="#x"/></g><path d="M101-251c68 0 85 55 85 127S166 4 100 4C33 4 14-52 14-124c0-73 17-127 87-127zm-1 229c47 0 54-49 54-102s-4-102-53-102c-51 0-55 48-55 102 0 53 5 102 54 102" id="S"/><path d="M33 0v-38h34V0H33" id="T"/><path d="M27 0v-27h64v-190l-56 39v-29l58-41h29v221h61V0H27" id="U"/><g id="i"><use transform="matrix(0.05,0,0,0.05,0,0)" xlink:href="#S"/><use transform="matrix(0.05,0,0,0.05,10,0)" xlink:href="#T"/><use transform="matrix(0.05,0,0,0.05,15,0)" xlink:href="#T"/><use transform="matrix(0.05,0,0,0.05,20,0)" xlink:href="#U"/></g><use transform="matrix(0.05,0,0,0.05,0,0)" xlink:href="#U" id="j"/><path d="M108 0H70L1-190h34L89-25l56-165h34" id="V"/><g id="k"><use transform="matrix(0.05,0,0,0.05,0,0)" xlink:href="#V"/><use transform="matrix(0.05,0,0,0.05,9,0)" xlink:href="#z"/></g><g id="l"><use transform="matrix(0.05,0,0,0.05,0,0)" xlink:href="#A"/><use transform="matrix(0.05,0,0,0.05,10,0)" xlink:href="#C"/></g><use transform="matrix(0.05,0,0,0.05,0,0)" xlink:href="#U" id="m"/><use transform="matrix(0.05,0,0,0.05,0,0)" xlink:href="#U" id="n"/><g id="o"><use transform="matrix(0.05,0,0,0.05,0,0)" xlink:href="#C"/><use transform="matrix(0.05,0,0,0.05,14.950000000000001,0)" xlink:href="#x"/></g><g id="p"><use transform="matrix(0.05,0,0,0.05,0,0)" xlink:href="#N"/><use transform="matrix(0.05,0,0,0.05,12,0)" xlink:href="#O"/><use transform="matrix(0.05,0,0,0.05,24,0)" xlink:href="#P"/><use transform="matrix(0.05,0,0,0.05,38,0)" xlink:href="#M"/><use transform="matrix(0.05,0,0,0.05,50.95,0)" xlink:href="#G"/><use transform="matrix(0.05,0,0,0.05,54.900000000000006,0)" xlink:href="#L"/><use transform="matrix(0.05,0,0,0.05,60.85,0)" xlink:href="#w"/><use transform="matrix(0.05,0,0,0.05,69.85000000000001,0)" xlink:href="#u"/><use transform="matrix(0.05,0,0,0.05,73.80000000000001,0)" xlink:href="#x"/></g><g id="q"><use transform="matrix(0.05,0,0,0.05,0,0)" xlink:href="#R"/><use transform="matrix(0.05,0,0,0.05,10,0)" xlink:href="#z"/><use transform="matrix(0.05,0,0,0.05,20,0)" xlink:href="#A"/><use transform="matrix(0.05,0,0,0.05,30,0)" xlink:href="#J"/></g><path d="M143 0L79-87 56-68V0H24v-261h32v163l83-92h37l-77 82L181 0h-38" id="W"/><g id="r"><use transform="matrix(0.05,0,0,0.05,0,0)" xlink:href="#E"/><use transform="matrix(0.05,0,0,0.05,5,0)" xlink:href="#z"/><use transform="matrix(0.05,0,0,0.05,15,0)" xlink:href="#W"/><use transform="matrix(0.05,0,0,0.05,24,0)" xlink:href="#x"/><use transform="matrix(0.05,0,0,0.05,34,0)" xlink:href="#D"/><use transform="matrix(0.05,0,0,0.05,44,0)" xlink:href="#H"/></g><path d="M80-196l47-18 7 23-49 13 32 44-20 13-27-46-27 45-21-12 33-44-49-13 8-23 47 19-2-53h23" id="X"/><g id="s"><use transform="matrix(0.05,0,0,0.05,0,0)" xlink:href="#S"/><use transform="matrix(0.05,0,0,0.05,10,0)" xlink:href="#T"/><use transform="matrix(0.05,0,0,0.05,15,0)" xlink:href="#T"/><use transform="matrix(0.05,0,0,0.05,20,0)" xlink:href="#X"/></g></defs></g></svg>