<svg xmlns="http://www.w3.org/2000/svg" xmlns:xlink="http://www.w3.org/1999/xlink" xmlns:lucid="lucid" width="760" height="499"><g transform="translate(-820 -80)" lucid:page-tab-id="9XjrTxExOFtd"><path d="M1119 499h160v60h-160z" stroke="#333" stroke-width="2" fill="#c7e8ac"/><use xlink:href="#a" transform="matrix(1,0,0,1,1127,507) translate(53.55 25.6)"/><path d="M840 499h160v60H840z" stroke="#333" stroke-width="2" fill="#c7e8ac"/><use xlink:href="#b" transform="matrix(1,0,0,1,848,507) translate(31.074999999999996 25.6)"/><path d="M1009.6 351.38V459H920v22.62" stroke="#333" fill="none"/><path d="M1009.6 321.7l14.85 14.86-14.85 15.15-14.85-15.14zM920 496.38l-4.64-14.26h9.28z" stroke="#333" fill="#333"/><use xlink:href="#c" transform="matrix(1,0,0,1,854.8444230133308,433.45970243542047) translate(0 14.4)"/><use xlink:href="#d" transform="matrix(1,0,0,1,854.8444230133308,433.45970243542047) translate(42 14.4)"/><path d="M1096.28 351.38V459H1199v22.62" stroke="#333" fill="none"/><path d="M1096.28 321.7l14.85 14.86-14.85 15.15-14.84-15.14zM1199 496.38l-4.64-14.26h9.28z" stroke="#333" fill="#333"/><use xlink:href="#e" transform="matrix(1,0,0,1,1104.284541429385,430.73691612842464) translate(0 14.4)"/><use xlink:href="#f" transform="matrix(1,0,0,1,1104.284541429385,430.73691612842464) translate(42 14.4)"/><path d="M980 260h160v60H980z" stroke="#333" stroke-width="2" fill="#c7e8ac"/><use xlink:href="#g" transform="matrix(1,0,0,1,988,268) translate(7.125 25.6)"/><path d="M900 100h180v60H900z" stroke="#333" stroke-width="2" fill="#c7e8ac"/><use xlink:href="#h" transform="matrix(1,0,0,1,908,108) translate(3.1000000000000085 25.6)"/><path d="M1380 100h180v60h-180z" stroke="#333" stroke-width="2" fill="#c1e4f7"/><use xlink:href="#i" transform="matrix(1,0,0,1,1388,108) translate(6.575000000000003 25.6)"/><path d="M1141.5 290h5.08m5.1 0h10.16m5.08 0h10.17m5.08 0h10.16m5.1 0h10.16m5.08 0h10.17m5.1 0h10.16m5.1 0h10.16m5.08 0h10.17m5.1 0h10.17m5.08 0h10.17m5.08 0h5.8v-4.37m0-5.1v-10.16m0-5.08V255.1m0-5.08v-10.17m0-5.1v-10.16m0-5.07v-10.17m0-5.08V194.1m0-5.08v-10.17m0-5.08V163.6m0-5.1v-10.15m0-5.1V133.1m2-3.1h10.16m5.1 0h10.15m5.1 0h10.17m5.08 0h10.17m5.1 0h5.07" stroke="#333" fill="none"/><path d="M1141.5 290.5h-.5v-1h.5z" fill="#333"/><path d="M1360.8 140.18l17.22-10.18-17.22-10.18" stroke="#333" fill="none"/><use xlink:href="#j" transform="matrix(1,0,0,1,1187.2,264.4) translate(0 14.4)"/><path d="M990 191.38V210h70v32.62" stroke="#333" fill="none"/><path d="M990 161.7l14.85 14.86L990 191.7l-14.85-15.14zM1060 257.38l-4.64-14.26h9.28z" stroke="#333" fill="#333"/><g><use xlink:href="#e" transform="matrix(1,0,0,1,998.9108621218819,186.15944909007368) translate(0 14.4)"/><use xlink:href="#k" transform="matrix(1,0,0,1,998.9108621218819,186.15944909007368) translate(42 14.4)"/></g><defs><path d="M233-177c-1 41-23 64-60 70L243 0h-38l-65-103H63V0H30v-248c88 3 205-21 203 71zM63-129c60-2 137 13 137-47 0-61-80-42-137-45v92" id="l"/><path d="M84 4C-5 8 30-112 23-190h32v120c0 31 7 50 39 49 72-2 45-101 50-169h31l1 190h-30c-1-10 1-25-2-33-11 22-28 36-60 37" id="m"/><path d="M24 0v-261h32V0H24" id="n"/><path d="M100-194c63 0 86 42 84 106H49c0 40 14 67 53 68 26 1 43-12 49-29l28 8c-11 28-37 45-77 45C44 4 14-33 15-96c1-61 26-98 85-98zm52 81c6-60-76-77-97-28-3 7-6 17-6 28h103" id="o"/><g id="a"><use transform="matrix(0.05,0,0,0.05,0,0)" xlink:href="#l"/><use transform="matrix(0.05,0,0,0.05,12.950000000000001,0)" xlink:href="#m"/><use transform="matrix(0.05,0,0,0.05,22.950000000000003,0)" xlink:href="#n"/><use transform="matrix(0.05,0,0,0.05,26.900000000000002,0)" xlink:href="#o"/></g><path d="M212-179c-10-28-35-45-73-45-59 0-87 40-87 99 0 60 29 101 89 101 43 0 62-24 78-52l27 14C228-24 195 4 139 4 59 4 22-46 18-125c-6-104 99-153 187-111 19 9 31 26 39 46" id="p"/><path d="M100-194c62-1 85 37 85 99 1 63-27 99-86 99S16-35 15-95c0-66 28-99 85-99zM99-20c44 1 53-31 53-75 0-43-8-75-51-75s-53 32-53 75 10 74 51 75" id="q"/><path d="M117-194c89-4 53 116 60 194h-32v-121c0-31-8-49-39-48C34-167 62-67 57 0H25l-1-190h30c1 10-1 24 2 32 11-22 29-35 61-36" id="r"/><path d="M135-143c-3-34-86-38-87 0 15 53 115 12 119 90S17 21 10-45l28-5c4 36 97 45 98 0-10-56-113-15-118-90-4-57 82-63 122-42 12 7 21 19 24 35" id="s"/><path d="M59-47c-2 24 18 29 38 22v24C64 9 27 4 27-40v-127H5v-23h24l9-43h21v43h35v23H59v120" id="t"/><path d="M114-163C36-179 61-72 57 0H25l-1-190h30c1 12-1 29 2 39 6-27 23-49 58-41v29" id="u"/><path d="M141-36C126-15 110 5 73 4 37 3 15-17 15-53c-1-64 63-63 125-63 3-35-9-54-41-54-24 1-41 7-42 31l-33-3c5-37 33-52 76-52 45 0 72 20 72 64v82c-1 20 7 32 28 27v20c-31 9-61-2-59-35zM48-53c0 20 12 33 32 33 41-3 63-29 60-74-43 2-92-5-92 41" id="v"/><path d="M24-231v-30h32v30H24zM24 0v-190h32V0H24" id="w"/><g id="b"><use transform="matrix(0.05,0,0,0.05,0,0)" xlink:href="#p"/><use transform="matrix(0.05,0,0,0.05,12.950000000000001,0)" xlink:href="#q"/><use transform="matrix(0.05,0,0,0.05,22.950000000000003,0)" xlink:href="#r"/><use transform="matrix(0.05,0,0,0.05,32.95,0)" xlink:href="#s"/><use transform="matrix(0.05,0,0,0.05,41.95,0)" xlink:href="#t"/><use transform="matrix(0.05,0,0,0.05,46.95,0)" xlink:href="#u"/><use transform="matrix(0.05,0,0,0.05,52.900000000000006,0)" xlink:href="#v"/><use transform="matrix(0.05,0,0,0.05,62.900000000000006,0)" xlink:href="#w"/><use transform="matrix(0.05,0,0,0.05,66.85000000000001,0)" xlink:href="#r"/><use transform="matrix(0.05,0,0,0.05,76.85000000000001,0)" xlink:href="#t"/></g><path d="M26 75v-336h71v23H56V52h41v23H26" id="x"/><path d="M27 0v-27h64v-190l-56 39v-29l58-41h29v221h61V0H27" id="y"/><path d="M33 0v-38h34V0H33" id="z"/><path d="M80-196l47-18 7 23-49 13 32 44-20 13-27-46-27 45-21-12 33-44-49-13 8-23 47 19-2-53h23" id="A"/><path d="M3 75V52h41v-290H3v-23h71V75H3" id="B"/><g id="c"><use transform="matrix(0.05,0,0,0.05,0,0)" xlink:href="#x"/><use transform="matrix(0.05,0,0,0.05,5,0)" xlink:href="#y"/><use transform="matrix(0.05,0,0,0.05,15,0)" xlink:href="#z"/><use transform="matrix(0.05,0,0,0.05,20,0)" xlink:href="#z"/><use transform="matrix(0.05,0,0,0.05,25,0)" xlink:href="#A"/><use transform="matrix(0.05,0,0,0.05,32,0)" xlink:href="#B"/></g><path d="M96-169c-40 0-48 33-48 73s9 75 48 75c24 0 41-14 43-38l32 2c-6 37-31 61-74 61-59 0-76-41-82-99-10-93 101-131 147-64 4 7 5 14 7 22l-32 3c-4-21-16-35-41-35" id="C"/><g id="d"><use transform="matrix(0.05,0,0,0.05,0,0)" xlink:href="#C"/><use transform="matrix(0.05,0,0,0.05,9,0)" xlink:href="#q"/><use transform="matrix(0.05,0,0,0.05,19,0)" xlink:href="#r"/><use transform="matrix(0.05,0,0,0.05,29,0)" xlink:href="#s"/><use transform="matrix(0.05,0,0,0.05,38,0)" xlink:href="#t"/><use transform="matrix(0.05,0,0,0.05,43,0)" xlink:href="#u"/><use transform="matrix(0.05,0,0,0.05,48.95,0)" xlink:href="#v"/><use transform="matrix(0.05,0,0,0.05,58.95,0)" xlink:href="#w"/><use transform="matrix(0.05,0,0,0.05,62.900000000000006,0)" xlink:href="#r"/><use transform="matrix(0.05,0,0,0.05,72.9,0)" xlink:href="#t"/><use transform="matrix(0.05,0,0,0.05,77.9,0)" xlink:href="#s"/></g><path d="M101-251c68 0 85 55 85 127S166 4 100 4C33 4 14-52 14-124c0-73 17-127 87-127zm-1 229c47 0 54-49 54-102s-4-102-53-102c-51 0-55 48-55 102 0 53 5 102 54 102" id="D"/><g id="e"><use transform="matrix(0.05,0,0,0.05,0,0)" xlink:href="#x"/><use transform="matrix(0.05,0,0,0.05,5,0)" xlink:href="#D"/><use transform="matrix(0.05,0,0,0.05,15,0)" xlink:href="#z"/><use transform="matrix(0.05,0,0,0.05,20,0)" xlink:href="#z"/><use transform="matrix(0.05,0,0,0.05,25,0)" xlink:href="#A"/><use transform="matrix(0.05,0,0,0.05,32,0)" xlink:href="#B"/></g><g id="f"><use transform="matrix(0.05,0,0,0.05,0,0)" xlink:href="#u"/><use transform="matrix(0.05,0,0,0.05,5.95,0)" xlink:href="#m"/><use transform="matrix(0.05,0,0,0.05,15.949999999999998,0)" xlink:href="#n"/><use transform="matrix(0.05,0,0,0.05,19.9,0)" xlink:href="#o"/><use transform="matrix(0.05,0,0,0.05,29.899999999999995,0)" xlink:href="#s"/></g><path d="M30-248c118-7 216 8 213 122C240-48 200 0 122 0H30v-248zM63-27c89 8 146-16 146-99s-60-101-146-95v194" id="E"/><path d="M115-194c55 1 70 41 70 98S169 2 115 4C84 4 66-9 55-30l1 105H24l-1-265h31l2 30c10-21 28-34 59-34zm-8 174c40 0 45-34 45-75s-6-73-45-74c-42 0-51 32-51 76 0 43 10 73 51 73" id="F"/><path d="M179-190L93 31C79 59 56 82 12 73V49c39 6 53-20 64-50L1-190h34L92-34l54-156h33" id="G"/><path d="M240 0l2-218c-23 76-54 145-80 218h-23L58-218 59 0H30v-248h44l77 211c21-75 51-140 76-211h43V0h-30" id="H"/><path d="M177-190C167-65 218 103 67 71c-23-6-38-20-44-43l32-5c15 47 100 32 89-28v-30C133-14 115 1 83 1 29 1 15-40 15-95c0-56 16-97 71-98 29-1 48 16 59 35 1-10 0-23 2-32h30zM94-22c36 0 50-32 50-73 0-42-14-75-50-75-39 0-46 34-46 75s6 73 46 73" id="I"/><g id="g"><use transform="matrix(0.05,0,0,0.05,0,0)" xlink:href="#E"/><use transform="matrix(0.05,0,0,0.05,12.950000000000001,0)" xlink:href="#w"/><use transform="matrix(0.05,0,0,0.05,16.900000000000002,0)" xlink:href="#s"/><use transform="matrix(0.05,0,0,0.05,25.900000000000002,0)" xlink:href="#F"/><use transform="matrix(0.05,0,0,0.05,35.900000000000006,0)" xlink:href="#n"/><use transform="matrix(0.05,0,0,0.05,39.85000000000001,0)" xlink:href="#v"/><use transform="matrix(0.05,0,0,0.05,49.85000000000001,0)" xlink:href="#G"/><use transform="matrix(0.05,0,0,0.05,58.85,0)" xlink:href="#H"/><use transform="matrix(0.05,0,0,0.05,73.80000000000001,0)" xlink:href="#v"/><use transform="matrix(0.05,0,0,0.05,83.80000000000001,0)" xlink:href="#r"/><use transform="matrix(0.05,0,0,0.05,93.80000000000001,0)" xlink:href="#v"/><use transform="matrix(0.05,0,0,0.05,103.80000000000001,0)" xlink:href="#I"/><use transform="matrix(0.05,0,0,0.05,113.80000000000001,0)" xlink:href="#o"/><use transform="matrix(0.05,0,0,0.05,123.80000000000001,0)" xlink:href="#u"/></g><path d="M185-189c-5-48-123-54-124 2 14 75 158 14 163 119 3 78-121 87-175 55-17-10-28-26-33-46l33-7c5 56 141 63 141-1 0-78-155-14-162-118-5-82 145-84 179-34 5 7 8 16 11 25" id="J"/><path d="M141 0L90-78 38 0H4l68-98-65-92h35l48 74 47-74h35l-64 92 68 98h-35" id="K"/><g id="h"><use transform="matrix(0.05,0,0,0.05,0,0)" xlink:href="#p"/><use transform="matrix(0.05,0,0,0.05,12.950000000000001,0)" xlink:href="#q"/><use transform="matrix(0.05,0,0,0.05,22.950000000000003,0)" xlink:href="#r"/><use transform="matrix(0.05,0,0,0.05,32.95,0)" xlink:href="#C"/><use transform="matrix(0.05,0,0,0.05,41.95,0)" xlink:href="#u"/><use transform="matrix(0.05,0,0,0.05,47.900000000000006,0)" xlink:href="#o"/><use transform="matrix(0.05,0,0,0.05,57.900000000000006,0)" xlink:href="#t"/><use transform="matrix(0.05,0,0,0.05,62.900000000000006,0)" xlink:href="#o"/><use transform="matrix(0.05,0,0,0.05,72.9,0)" xlink:href="#J"/><use transform="matrix(0.05,0,0,0.05,84.9,0)" xlink:href="#G"/><use transform="matrix(0.05,0,0,0.05,93.9,0)" xlink:href="#r"/><use transform="matrix(0.05,0,0,0.05,103.9,0)" xlink:href="#t"/><use transform="matrix(0.05,0,0,0.05,108.9,0)" xlink:href="#v"/><use transform="matrix(0.05,0,0,0.05,118.9,0)" xlink:href="#K"/><use transform="matrix(0.05,0,0,0.05,127.9,0)" xlink:href="#H"/><use transform="matrix(0.05,0,0,0.05,142.85,0)" xlink:href="#H"/></g><path d="M205 0l-28-72H64L36 0H1l101-248h38L239 0h-34zm-38-99l-47-123c-12 45-31 82-46 123h93" id="L"/><path d="M115-194c53 0 69 39 70 98 0 66-23 100-70 100C84 3 66-7 56-30L54 0H23l1-261h32v101c10-23 28-34 59-34zm-8 174c40 0 45-34 45-75 0-40-5-75-45-74-42 0-51 32-51 76 0 43 10 73 51 73" id="M"/><g id="i"><use transform="matrix(0.05,0,0,0.05,0,0)" xlink:href="#L"/><use transform="matrix(0.05,0,0,0.05,12,0)" xlink:href="#M"/><use transform="matrix(0.05,0,0,0.05,22,0)" xlink:href="#s"/><use transform="matrix(0.05,0,0,0.05,31,0)" xlink:href="#t"/><use transform="matrix(0.05,0,0,0.05,36,0)" xlink:href="#u"/><use transform="matrix(0.05,0,0,0.05,41.95,0)" xlink:href="#v"/><use transform="matrix(0.05,0,0,0.05,51.95,0)" xlink:href="#C"/><use transform="matrix(0.05,0,0,0.05,60.95,0)" xlink:href="#t"/><use transform="matrix(0.05,0,0,0.05,65.95,0)" xlink:href="#J"/><use transform="matrix(0.05,0,0,0.05,77.95,0)" xlink:href="#G"/><use transform="matrix(0.05,0,0,0.05,86.95,0)" xlink:href="#r"/><use transform="matrix(0.05,0,0,0.05,96.95,0)" xlink:href="#t"/><use transform="matrix(0.05,0,0,0.05,101.95,0)" xlink:href="#v"/><use transform="matrix(0.05,0,0,0.05,111.95,0)" xlink:href="#K"/><use transform="matrix(0.05,0,0,0.05,120.95,0)" xlink:href="#H"/><use transform="matrix(0.05,0,0,0.05,135.9,0)" xlink:href="#H"/></g><path d="M210-169c-67 3-38 105-44 169h-31v-121c0-29-5-50-35-48C34-165 62-65 56 0H25l-1-190h30c1 10-1 24 2 32 10-44 99-50 107 0 11-21 27-35 58-36 85-2 47 119 55 194h-31v-121c0-29-5-49-35-48" id="N"/><path d="M85-194c31 0 48 13 60 33l-1-100h32l1 261h-30c-2-10 0-23-3-31C134-8 116 4 85 4 32 4 16-35 15-94c0-66 23-100 70-100zm9 24c-40 0-46 34-46 75 0 40 6 74 45 74 42 0 51-32 51-76 0-42-9-74-50-73" id="O"/><path d="M30 0v-248h187v28H63v79h144v27H63v87h162V0H30" id="P"/><g id="j"><use transform="matrix(0.05,0,0,0.05,0,0)" xlink:href="#N"/><use transform="matrix(0.05,0,0,0.05,14.950000000000001,0)" xlink:href="#q"/><use transform="matrix(0.05,0,0,0.05,24.950000000000003,0)" xlink:href="#O"/><use transform="matrix(0.05,0,0,0.05,34.95,0)" xlink:href="#o"/><use transform="matrix(0.05,0,0,0.05,44.95,0)" xlink:href="#n"/><use transform="matrix(0.05,0,0,0.05,48.900000000000006,0)" xlink:href="#P"/><use transform="matrix(0.05,0,0,0.05,60.900000000000006,0)" xlink:href="#n"/><use transform="matrix(0.05,0,0,0.05,64.85000000000001,0)" xlink:href="#o"/><use transform="matrix(0.05,0,0,0.05,74.85000000000001,0)" xlink:href="#N"/><use transform="matrix(0.05,0,0,0.05,89.80000000000001,0)" xlink:href="#o"/><use transform="matrix(0.05,0,0,0.05,99.80000000000001,0)" xlink:href="#r"/><use transform="matrix(0.05,0,0,0.05,109.80000000000001,0)" xlink:href="#t"/></g><g id="k"><use transform="matrix(0.05,0,0,0.05,0,0)" xlink:href="#O"/><use transform="matrix(0.05,0,0,0.05,10,0)" xlink:href="#w"/><use transform="matrix(0.05,0,0,0.05,13.949999999999998,0)" xlink:href="#s"/><use transform="matrix(0.05,0,0,0.05,22.95,0)" xlink:href="#F"/><use transform="matrix(0.05,0,0,0.05,32.95,0)" xlink:href="#n"/><use transform="matrix(0.05,0,0,0.05,36.900000000000006,0)" xlink:href="#v"/><use transform="matrix(0.05,0,0,0.05,46.900000000000006,0)" xlink:href="#G"/><use transform="matrix(0.05,0,0,0.05,55.900000000000006,0)" xlink:href="#H"/><use transform="matrix(0.05,0,0,0.05,70.85000000000001,0)" xlink:href="#v"/><use transform="matrix(0.05,0,0,0.05,80.85000000000001,0)" xlink:href="#r"/><use transform="matrix(0.05,0,0,0.05,90.85000000000001,0)" xlink:href="#v"/><use transform="matrix(0.05,0,0,0.05,100.85000000000001,0)" xlink:href="#I"/><use transform="matrix(0.05,0,0,0.05,110.85000000000001,0)" xlink:href="#o"/><use transform="matrix(0.05,0,0,0.05,120.85000000000001,0)" xlink:href="#u"/><use transform="matrix(0.05,0,0,0.05,126.80000000000001,0)" xlink:href="#s"/></g></defs></g></svg>