<svg xmlns="http://www.w3.org/2000/svg" xmlns:xlink="http://www.w3.org/1999/xlink" xmlns:lucid="lucid" width="830" height="260"><g transform="translate(-100 -60)" lucid:page-tab-id="rt9l9DCacO.-"><path d="M120 100h160v60H120z" stroke="#333" stroke-width="2" fill="#ffbbb1"/><use xlink:href="#a" transform="matrix(1,0,0,1,128,108) translate(14.574999999999996 25.6)"/><path d="M330 80h160v60H330z" stroke="#333" stroke-width="2" fill="#c7e8ac"/><use xlink:href="#b" transform="matrix(1,0,0,1,338,88) translate(42.574999999999996 14.799999999999999)"/><use xlink:href="#c" transform="matrix(1,0,0,1,338,88) translate(49.55 36.4)"/><path d="M330 240h160v60H330z" stroke="#333" stroke-width="2" fill="#c7e8ac"/><use xlink:href="#d" transform="matrix(1,0,0,1,338,248) translate(16.599999999999994 25.6)"/><path d="M540 240h160v60H540z" stroke="#333" stroke-width="2" fill="#c7e8ac"/><use xlink:href="#e" transform="matrix(1,0,0,1,548,248) translate(7.125 25.6)"/><path d="M540 80h160v60H540z" stroke="#333" stroke-width="2" fill="#c7e8ac"/><use xlink:href="#f" transform="matrix(1,0,0,1,548,88) translate(7.125 14.799999999999999)"/><use xlink:href="#c" transform="matrix(1,0,0,1,548,88) translate(49.55 36.4)"/><path d="M750 240h160v60H750z" stroke="#333" stroke-width="2" fill="#c1e4f7"/><use xlink:href="#g" transform="matrix(1,0,0,1,758,248) translate(14.599999999999994 25.6)"/><path d="M750 80h160v60H750z" stroke="#333" stroke-width="2" fill="#c1e4f7"/><use xlink:href="#h" transform="matrix(1,0,0,1,758,88) translate(14.599999999999994 14.799999999999999)"/><use xlink:href="#c" transform="matrix(1,0,0,1,758,88) translate(49.55 36.4)"/><path d="M491.5 270h47" stroke="#333" fill="none"/><path d="M491.5 270.5h-.5v-1h.5zM539 270.5h-.5v-1h.5z" fill="#333"/><path d="M701.5 270h47" stroke="#333" fill="none"/><path d="M701.5 270.5h-.5v-1h.5zM749 270.5h-.5v-1h.5z" fill="#333"/><path d="M200 161.5v4.93m0 4.93v9.86m0 4.92V196m0 4.93v9.86m0 4.92v9.86m0 4.93v9.86m0 4.93v9.85m0 4.93v9.86m4.87.06h9.85m4.93 0h9.86m4.94 0h9.86m4.93 0h9.86m4.9 0h9.87m4.93 0h9.86m4.93 0h9.85m4.93 0h9.85m4.93 0h4.93" stroke="#333" fill="none"/><path d="M200.5 161.5h-1v-.5h1z" fill="#333"/><path d="M310.8 280.18L328.02 270l-17.22-10.18" stroke="#333" fill="none"/><use xlink:href="#i" transform="matrix(1,0,0,1,208,236.825) translate(0 14.4)"/><path d="M410.5 238.5h-1v-5.37h1zm0-10.73h-1v-10.73h1zm0-16.1h-1v-10.73h1zm0-32.47h-1v-10.46h1zm0-15.83h-1v-10.73h1zm0-16.1h-1v-5.36h1zM410.5 239h-1v-.5h1z" fill="#333"/><path d="M420.6 158.94l-.85.5-9.75-16.48-9.75 16.5-.86-.52L410 141z" fill="#333"/><use xlink:href="#j" transform="matrix(1,0,0,1,367.025,179.2) translate(0 14.4)"/><path d="M620.5 238.5h-1v-5.37h1zm0-10.73h-1v-10.73h1zm0-16.1h-1v-10.73h1zm0-32.47h-1v-10.46h1zm0-15.83h-1v-10.73h1zm0-16.1h-1v-5.36h1zM620.5 239h-1v-.5h1z" fill="#333"/><path d="M630.6 158.94l-.85.5-9.75-16.48-9.75 16.5-.86-.52L620 141z" fill="#333"/><use xlink:href="#j" transform="matrix(1,0,0,1,577.025,179.2) translate(0 14.4)"/><path d="M830.5 238.5h-1v-5.37h1zm0-10.73h-1v-10.73h1zm0-16.1h-1v-10.73h1zm0-32.47h-1v-10.46h1zm0-15.83h-1v-10.73h1zm0-16.1h-1v-5.36h1zM830.5 239h-1v-.5h1z" fill="#333"/><path d="M840.6 158.94l-.85.5-9.75-16.48-9.75 16.5-.86-.52L830 141z" fill="#333"/><g><use xlink:href="#j" transform="matrix(1,0,0,1,787.025,179.2) translate(0 14.4)"/></g><defs><path d="M143 4C61 4 22-44 18-125c-5-107 100-154 193-111 17 8 29 25 37 43l-32 9c-13-25-37-40-76-40-61 0-88 39-88 99 0 61 29 100 91 101 35 0 62-11 79-27v-45h-74v-28h105v86C228-13 192 4 143 4" id="k"/><path d="M114-163C36-179 61-72 57 0H25l-1-190h30c1 12-1 29 2 39 6-27 23-49 58-41v29" id="l"/><path d="M141-36C126-15 110 5 73 4 37 3 15-17 15-53c-1-64 63-63 125-63 3-35-9-54-41-54-24 1-41 7-42 31l-33-3c5-37 33-52 76-52 45 0 72 20 72 64v82c-1 20 7 32 28 27v20c-31 9-61-2-59-35zM48-53c0 20 12 33 32 33 41-3 63-29 60-74-43 2-92-5-92 41" id="m"/><path d="M115-194c55 1 70 41 70 98S169 2 115 4C84 4 66-9 55-30l1 105H24l-1-265h31l2 30c10-21 28-34 59-34zm-8 174c40 0 45-34 45-75s-6-73-45-74c-42 0-51 32-51 76 0 43 10 73 51 73" id="n"/><path d="M106-169C34-169 62-67 57 0H25v-261h32l-1 103c12-21 28-36 61-36 89 0 53 116 60 194h-32v-121c2-32-8-49-39-48" id="o"/><path d="M24-231v-30h32v30H24zM24 0v-190h32V0H24" id="p"/><path d="M96-169c-40 0-48 33-48 73s9 75 48 75c24 0 41-14 43-38l32 2c-6 37-31 61-74 61-59 0-76-41-82-99-10-93 101-131 147-64 4 7 5 14 7 22l-32 3c-4-21-16-35-41-35" id="q"/><path d="M140-251c81 0 123 46 123 126C263-46 219 4 140 4 59 4 17-45 17-125s42-126 123-126zm0 227c63 0 89-41 89-101s-29-99-89-99c-61 0-89 39-89 99S79-25 140-24" id="r"/><path d="M115-194c53 0 69 39 70 98 0 66-23 100-70 100C84 3 66-7 56-30L54 0H23l1-261h32v101c10-23 28-34 59-34zm-8 174c40 0 45-34 45-75 0-40-5-75-45-74-42 0-51 32-51 76 0 43 10 73 51 73" id="s"/><path d="M24-231v-30h32v30H24zM-9 49c24 4 33-6 33-30v-209h32V24c2 40-23 58-65 49V49" id="t"/><path d="M100-194c63 0 86 42 84 106H49c0 40 14 67 53 68 26 1 43-12 49-29l28 8c-11 28-37 45-77 45C44 4 14-33 15-96c1-61 26-98 85-98zm52 81c6-60-76-77-97-28-3 7-6 17-6 28h103" id="u"/><path d="M59-47c-2 24 18 29 38 22v24C64 9 27 4 27-40v-127H5v-23h24l9-43h21v43h35v23H59v120" id="v"/><g id="a"><use transform="matrix(0.05,0,0,0.05,0,0)" xlink:href="#k"/><use transform="matrix(0.05,0,0,0.05,14,0)" xlink:href="#l"/><use transform="matrix(0.05,0,0,0.05,19.95,0)" xlink:href="#m"/><use transform="matrix(0.05,0,0,0.05,29.950000000000003,0)" xlink:href="#n"/><use transform="matrix(0.05,0,0,0.05,39.95,0)" xlink:href="#o"/><use transform="matrix(0.05,0,0,0.05,49.95,0)" xlink:href="#p"/><use transform="matrix(0.05,0,0,0.05,53.900000000000006,0)" xlink:href="#q"/><use transform="matrix(0.05,0,0,0.05,62.900000000000006,0)" xlink:href="#r"/><use transform="matrix(0.05,0,0,0.05,76.9,0)" xlink:href="#s"/><use transform="matrix(0.05,0,0,0.05,86.9,0)" xlink:href="#t"/><use transform="matrix(0.05,0,0,0.05,90.85000000000001,0)" xlink:href="#u"/><use transform="matrix(0.05,0,0,0.05,100.85000000000001,0)" xlink:href="#q"/><use transform="matrix(0.05,0,0,0.05,109.85000000000001,0)" xlink:href="#v"/></g><path d="M30-248c118-7 216 8 213 122C240-48 200 0 122 0H30v-248zM63-27c89 8 146-16 146-99s-60-101-146-95v194" id="w"/><path d="M135-143c-3-34-86-38-87 0 15 53 115 12 119 90S17 21 10-45l28-5c4 36 97 45 98 0-10-56-113-15-118-90-4-57 82-63 122-42 12 7 21 19 24 35" id="x"/><path d="M24 0v-261h32V0H24" id="y"/><path d="M179-190L93 31C79 59 56 82 12 73V49c39 6 53-20 64-50L1-190h34L92-34l54-156h33" id="z"/><g id="b"><use transform="matrix(0.05,0,0,0.05,0,0)" xlink:href="#w"/><use transform="matrix(0.05,0,0,0.05,12.950000000000001,0)" xlink:href="#p"/><use transform="matrix(0.05,0,0,0.05,16.900000000000002,0)" xlink:href="#x"/><use transform="matrix(0.05,0,0,0.05,25.900000000000002,0)" xlink:href="#n"/><use transform="matrix(0.05,0,0,0.05,35.900000000000006,0)" xlink:href="#y"/><use transform="matrix(0.05,0,0,0.05,39.85000000000001,0)" xlink:href="#m"/><use transform="matrix(0.05,0,0,0.05,49.85000000000001,0)" xlink:href="#z"/></g><path d="M212-179c-10-28-35-45-73-45-59 0-87 40-87 99 0 60 29 101 89 101 43 0 62-24 78-52l27 14C228-24 195 4 139 4 59 4 22-46 18-125c-6-104 99-153 187-111 19 9 31 26 39 46" id="A"/><g id="c"><use transform="matrix(0.05,0,0,0.05,0,0)" xlink:href="#A"/><use transform="matrix(0.05,0,0,0.05,12.950000000000001,0)" xlink:href="#y"/><use transform="matrix(0.05,0,0,0.05,16.900000000000002,0)" xlink:href="#m"/><use transform="matrix(0.05,0,0,0.05,26.900000000000002,0)" xlink:href="#x"/><use transform="matrix(0.05,0,0,0.05,35.900000000000006,0)" xlink:href="#x"/></g><g id="d"><use transform="matrix(0.05,0,0,0.05,0,0)" xlink:href="#w"/><use transform="matrix(0.05,0,0,0.05,12.950000000000001,0)" xlink:href="#p"/><use transform="matrix(0.05,0,0,0.05,16.900000000000002,0)" xlink:href="#x"/><use transform="matrix(0.05,0,0,0.05,25.900000000000002,0)" xlink:href="#n"/><use transform="matrix(0.05,0,0,0.05,35.900000000000006,0)" xlink:href="#y"/><use transform="matrix(0.05,0,0,0.05,39.85000000000001,0)" xlink:href="#m"/><use transform="matrix(0.05,0,0,0.05,49.85000000000001,0)" xlink:href="#z"/><use transform="matrix(0.05,0,0,0.05,58.85,0)" xlink:href="#r"/><use transform="matrix(0.05,0,0,0.05,72.85000000000001,0)" xlink:href="#s"/><use transform="matrix(0.05,0,0,0.05,82.85000000000001,0)" xlink:href="#t"/><use transform="matrix(0.05,0,0,0.05,86.80000000000001,0)" xlink:href="#u"/><use transform="matrix(0.05,0,0,0.05,96.80000000000001,0)" xlink:href="#q"/><use transform="matrix(0.05,0,0,0.05,105.80000000000001,0)" xlink:href="#v"/></g><path d="M240 0l2-218c-23 76-54 145-80 218h-23L58-218 59 0H30v-248h44l77 211c21-75 51-140 76-211h43V0h-30" id="B"/><path d="M117-194c89-4 53 116 60 194h-32v-121c0-31-8-49-39-48C34-167 62-67 57 0H25l-1-190h30c1 10-1 24 2 32 11-22 29-35 61-36" id="C"/><path d="M177-190C167-65 218 103 67 71c-23-6-38-20-44-43l32-5c15 47 100 32 89-28v-30C133-14 115 1 83 1 29 1 15-40 15-95c0-56 16-97 71-98 29-1 48 16 59 35 1-10 0-23 2-32h30zM94-22c36 0 50-32 50-73 0-42-14-75-50-75-39 0-46 34-46 75s6 73 46 73" id="D"/><g id="e"><use transform="matrix(0.05,0,0,0.05,0,0)" xlink:href="#w"/><use transform="matrix(0.05,0,0,0.05,12.950000000000001,0)" xlink:href="#p"/><use transform="matrix(0.05,0,0,0.05,16.900000000000002,0)" xlink:href="#x"/><use transform="matrix(0.05,0,0,0.05,25.900000000000002,0)" xlink:href="#n"/><use transform="matrix(0.05,0,0,0.05,35.900000000000006,0)" xlink:href="#y"/><use transform="matrix(0.05,0,0,0.05,39.85000000000001,0)" xlink:href="#m"/><use transform="matrix(0.05,0,0,0.05,49.85000000000001,0)" xlink:href="#z"/><use transform="matrix(0.05,0,0,0.05,58.85,0)" xlink:href="#B"/><use transform="matrix(0.05,0,0,0.05,73.80000000000001,0)" xlink:href="#m"/><use transform="matrix(0.05,0,0,0.05,83.80000000000001,0)" xlink:href="#C"/><use transform="matrix(0.05,0,0,0.05,93.80000000000001,0)" xlink:href="#m"/><use transform="matrix(0.05,0,0,0.05,103.80000000000001,0)" xlink:href="#D"/><use transform="matrix(0.05,0,0,0.05,113.80000000000001,0)" xlink:href="#u"/><use transform="matrix(0.05,0,0,0.05,123.80000000000001,0)" xlink:href="#l"/></g><g id="f"><use transform="matrix(0.05,0,0,0.05,0,0)" xlink:href="#w"/><use transform="matrix(0.05,0,0,0.05,12.950000000000001,0)" xlink:href="#p"/><use transform="matrix(0.05,0,0,0.05,16.900000000000002,0)" xlink:href="#x"/><use transform="matrix(0.05,0,0,0.05,25.900000000000002,0)" xlink:href="#n"/><use transform="matrix(0.05,0,0,0.05,35.900000000000006,0)" xlink:href="#y"/><use transform="matrix(0.05,0,0,0.05,39.85000000000001,0)" xlink:href="#m"/><use transform="matrix(0.05,0,0,0.05,49.85000000000001,0)" xlink:href="#z"/><use transform="matrix(0.05,0,0,0.05,58.85,0)" xlink:href="#B"/><use transform="matrix(0.05,0,0,0.05,73.80000000000001,0)" xlink:href="#m"/><use transform="matrix(0.05,0,0,0.05,83.80000000000001,0)" xlink:href="#C"/><use transform="matrix(0.05,0,0,0.05,93.80000000000001,0)" xlink:href="#m"/><use transform="matrix(0.05,0,0,0.05,103.80000000000001,0)" xlink:href="#D"/><use transform="matrix(0.05,0,0,0.05,113.80000000000001,0)" xlink:href="#u"/><use transform="matrix(0.05,0,0,0.05,123.80000000000001,0)" xlink:href="#l"/></g><path d="M100-194c62-1 85 37 85 99 1 63-27 99-86 99S16-35 15-95c0-66 28-99 85-99zM99-20c44 1 53-31 53-75 0-43-8-75-51-75s-53 32-53 75 10 74 51 75" id="E"/><path d="M85-194c31 0 48 13 60 33l-1-100h32l1 261h-30c-2-10 0-23-3-31C134-8 116 4 85 4 32 4 16-35 15-94c0-66 23-100 70-100zm9 24c-40 0-46 34-46 75 0 40 6 74 45 74 42 0 51-32 51-76 0-42-9-74-50-73" id="F"/><path d="M30 0v-248h187v28H63v79h144v27H63v87h162V0H30" id="G"/><path d="M210-169c-67 3-38 105-44 169h-31v-121c0-29-5-50-35-48C34-165 62-65 56 0H25l-1-190h30c1 10-1 24 2 32 10-44 99-50 107 0 11-21 27-35 58-36 85-2 47 119 55 194h-31v-121c0-29-5-49-35-48" id="H"/><g id="g"><use transform="matrix(0.05,0,0,0.05,0,0)" xlink:href="#B"/><use transform="matrix(0.05,0,0,0.05,14.950000000000001,0)" xlink:href="#E"/><use transform="matrix(0.05,0,0,0.05,24.950000000000003,0)" xlink:href="#F"/><use transform="matrix(0.05,0,0,0.05,34.95,0)" xlink:href="#u"/><use transform="matrix(0.05,0,0,0.05,44.95,0)" xlink:href="#y"/><use transform="matrix(0.05,0,0,0.05,48.900000000000006,0)" xlink:href="#G"/><use transform="matrix(0.05,0,0,0.05,60.900000000000006,0)" xlink:href="#y"/><use transform="matrix(0.05,0,0,0.05,64.85000000000001,0)" xlink:href="#u"/><use transform="matrix(0.05,0,0,0.05,74.85000000000001,0)" xlink:href="#H"/><use transform="matrix(0.05,0,0,0.05,89.80000000000001,0)" xlink:href="#u"/><use transform="matrix(0.05,0,0,0.05,99.80000000000001,0)" xlink:href="#C"/><use transform="matrix(0.05,0,0,0.05,109.80000000000001,0)" xlink:href="#v"/></g><g id="h"><use transform="matrix(0.05,0,0,0.05,0,0)" xlink:href="#B"/><use transform="matrix(0.05,0,0,0.05,14.950000000000001,0)" xlink:href="#E"/><use transform="matrix(0.05,0,0,0.05,24.950000000000003,0)" xlink:href="#F"/><use transform="matrix(0.05,0,0,0.05,34.95,0)" xlink:href="#u"/><use transform="matrix(0.05,0,0,0.05,44.95,0)" xlink:href="#y"/><use transform="matrix(0.05,0,0,0.05,48.900000000000006,0)" xlink:href="#G"/><use transform="matrix(0.05,0,0,0.05,60.900000000000006,0)" xlink:href="#y"/><use transform="matrix(0.05,0,0,0.05,64.85000000000001,0)" xlink:href="#u"/><use transform="matrix(0.05,0,0,0.05,74.85000000000001,0)" xlink:href="#H"/><use transform="matrix(0.05,0,0,0.05,89.80000000000001,0)" xlink:href="#u"/><use transform="matrix(0.05,0,0,0.05,99.80000000000001,0)" xlink:href="#C"/><use transform="matrix(0.05,0,0,0.05,109.80000000000001,0)" xlink:href="#v"/></g><path d="M127-220V0H93v-220H8v-28h204v28h-85" id="I"/><g id="i"><use transform="matrix(0.05,0,0,0.05,0,0)" xlink:href="#H"/><use transform="matrix(0.05,0,0,0.05,14.950000000000001,0)" xlink:href="#m"/><use transform="matrix(0.05,0,0,0.05,24.950000000000003,0)" xlink:href="#n"/><use transform="matrix(0.05,0,0,0.05,34.95,0)" xlink:href="#n"/><use transform="matrix(0.05,0,0,0.05,44.95,0)" xlink:href="#u"/><use transform="matrix(0.05,0,0,0.05,54.95,0)" xlink:href="#F"/><use transform="matrix(0.05,0,0,0.05,64.95,0)" xlink:href="#I"/><use transform="matrix(0.05,0,0,0.05,73.9,0)" xlink:href="#E"/></g><path d="M101-234c-31-9-42 10-38 44h38v23H63V0H32v-167H5v-23h27c-7-52 17-82 69-68v24" id="J"/><g id="j"><use transform="matrix(0.05,0,0,0.05,0,0)" xlink:href="#p"/><use transform="matrix(0.05,0,0,0.05,3.95,0)" xlink:href="#C"/><use transform="matrix(0.05,0,0,0.05,13.949999999999998,0)" xlink:href="#x"/><use transform="matrix(0.05,0,0,0.05,22.95,0)" xlink:href="#v"/><use transform="matrix(0.05,0,0,0.05,27.950000000000003,0)" xlink:href="#m"/><use transform="matrix(0.05,0,0,0.05,37.95,0)" xlink:href="#C"/><use transform="matrix(0.05,0,0,0.05,47.95,0)" xlink:href="#q"/><use transform="matrix(0.05,0,0,0.05,56.95,0)" xlink:href="#u"/><use transform="matrix(0.05,0,0,0.05,66.95,0)" xlink:href="#r"/><use transform="matrix(0.05,0,0,0.05,80.95,0)" xlink:href="#J"/></g></defs></g></svg>