<svg xmlns="http://www.w3.org/2000/svg" xmlns:xlink="http://www.w3.org/1999/xlink" xmlns:lucid="lucid" width="480" height="437"><g transform="translate(-40 -40)" lucid:page-tab-id="UWKhEwr-Rhhh"><path d="M220 60h140v97H220z" stroke="#333" stroke-width="2" fill="#c1e4f7"/><path d="M220 97.6h140" stroke="#333" stroke-width="2" fill="none"/><use xlink:href="#a" transform="matrix(1,0,0,1,228,68) translate(37.025 14.6)"/><use xlink:href="#b" transform="matrix(1,0,0,1,232,105.6) translate(0 14.4)"/><use xlink:href="#c" transform="matrix(1,0,0,1,232,105.6) translate(49.95 14.4)"/><use xlink:href="#d" transform="matrix(1,0,0,1,232,105.6) translate(65.45 14.4)"/><use xlink:href="#e" transform="matrix(1,0,0,1,232,105.6) translate(0 36)"/><use xlink:href="#c" transform="matrix(1,0,0,1,232,105.6) translate(58 36)"/><use xlink:href="#f" transform="matrix(1,0,0,1,232,105.6) translate(73.5 36)"/><path d="M60 360h140v97H60z" stroke="#333" stroke-width="2" fill="#c1e4f7"/><path d="M60 397.6h140" stroke="#333" stroke-width="2" fill="none"/><use xlink:href="#a" transform="matrix(1,0,0,1,68,368) translate(37.025 14.6)"/><use xlink:href="#b" transform="matrix(1,0,0,1,72,405.6) translate(0 14.4)"/><use xlink:href="#c" transform="matrix(1,0,0,1,72,405.6) translate(49.95 14.4)"/><use xlink:href="#g" transform="matrix(1,0,0,1,72,405.6) translate(65.45 14.4)"/><use xlink:href="#e" transform="matrix(1,0,0,1,72,405.6) translate(0 36)"/><use xlink:href="#c" transform="matrix(1,0,0,1,72,405.6) translate(58 36)"/><use xlink:href="#h" transform="matrix(1,0,0,1,72,405.6) translate(73.5 36)"/><path d="M360 360h140v97H360z" stroke="#333" stroke-width="2" fill="#c1e4f7"/><path d="M360 397.6h140" stroke="#333" stroke-width="2" fill="none"/><use xlink:href="#a" transform="matrix(1,0,0,1,368,368) translate(37.025 14.6)"/><use xlink:href="#b" transform="matrix(1,0,0,1,372,405.6) translate(0 14.4)"/><use xlink:href="#c" transform="matrix(1,0,0,1,372,405.6) translate(49.95 14.4)"/><use xlink:href="#i" transform="matrix(1,0,0,1,372,405.6) translate(65.45 14.4)"/><use xlink:href="#e" transform="matrix(1,0,0,1,372,405.6) translate(0 36)"/><use xlink:href="#c" transform="matrix(1,0,0,1,372,405.6) translate(58 36)"/><use xlink:href="#h" transform="matrix(1,0,0,1,372,405.6) translate(73.5 36)"/><path d="M220 221h140v75H220z" stroke="#333" stroke-width="2" fill="#c1e4f7"/><path d="M220 258.6h140" stroke="#333" stroke-width="2" fill="none"/><use xlink:href="#j" transform="matrix(1,0,0,1,228,229) translate(22.4 14.6)"/><use xlink:href="#b" transform="matrix(1,0,0,1,232,266.6) translate(0 14.4)"/><use xlink:href="#c" transform="matrix(1,0,0,1,232,266.6) translate(49.95 14.4)"/><use xlink:href="#k" transform="matrix(1,0,0,1,232,266.6) translate(65.45 14.4)"/><path d="M429.1 358.6l-138.2-61.2" stroke="#000" stroke-width="2" fill="none"/><path d="M432.47 359h-3.6l.6-1.33zM290.53 298.33l-3-1.33h3.6z"/><g><use xlink:href="#l" transform="matrix(1,0,0,1,427.0775488880461,338.23857850758196) translate(0 14.4)"/></g><g><use xlink:href="#m" transform="matrix(1,0,0,1,331.4128456698766,296.00703656633976) translate(0 14.4)"/></g><path d="M130.93 358.64l158.14-61.28" stroke="#000" stroke-width="2" fill="none"/><path d="M131.1 359h-3.87l3.37-1.3zM289.4 298.3l-.5-1.3h3.87z"/><g><use xlink:href="#l" transform="matrix(1,0,0,1,178.39324965878149,338.22315825435066) translate(0 14.4)"/></g><g><use xlink:href="#m" transform="matrix(1,0,0,1,170.54504148413832,296.01232050572077) translate(0 14.4)"/></g><path d="M290 159v60" stroke="#000" stroke-width="2" fill="none"/><path d="M291 159.03h-2V158h2zM291 220h-2v-1.03h2z"/><g><use xlink:href="#l" transform="matrix(1,0,0,1,213.04999999999998,199.2) translate(0 14.4)"/></g><g><use xlink:href="#m" transform="matrix(1,0,0,1,298,160.91216931216937) translate(0 14.4)"/></g><defs><path d="M33-154v-36h34v36H33zM33 0v-36h34V0H33" id="n"/><path d="M30-248c87 1 191-15 191 75 0 78-77 80-158 76V0H30v-248zm33 125c57 0 124 11 124-50 0-59-68-47-124-48v98" id="o"/><path d="M24 0v-261h32V0H24" id="p"/><path d="M141-36C126-15 110 5 73 4 37 3 15-17 15-53c-1-64 63-63 125-63 3-35-9-54-41-54-24 1-41 7-42 31l-33-3c5-37 33-52 76-52 45 0 72 20 72 64v82c-1 20 7 32 28 27v20c-31 9-61-2-59-35zM48-53c0 20 12 33 32 33 41-3 63-29 60-74-43 2-92-5-92 41" id="q"/><path d="M96-169c-40 0-48 33-48 73s9 75 48 75c24 0 41-14 43-38l32 2c-6 37-31 61-74 61-59 0-76-41-82-99-10-93 101-131 147-64 4 7 5 14 7 22l-32 3c-4-21-16-35-41-35" id="r"/><path d="M100-194c63 0 86 42 84 106H49c0 40 14 67 53 68 26 1 43-12 49-29l28 8c-11 28-37 45-77 45C44 4 14-33 15-96c1-61 26-98 85-98zm52 81c6-60-76-77-97-28-3 7-6 17-6 28h103" id="s"/><g id="a"><use transform="matrix(0.05,0,0,0.05,0,0)" xlink:href="#n"/><use transform="matrix(0.05,0,0,0.05,5,0)" xlink:href="#o"/><use transform="matrix(0.05,0,0,0.05,17,0)" xlink:href="#p"/><use transform="matrix(0.05,0,0,0.05,20.95,0)" xlink:href="#q"/><use transform="matrix(0.05,0,0,0.05,30.950000000000003,0)" xlink:href="#r"/><use transform="matrix(0.05,0,0,0.05,39.95,0)" xlink:href="#s"/></g><path fill="#333" d="M117-194c89-4 53 116 60 194h-32v-121c0-31-8-49-39-48C34-167 62-67 57 0H25l-1-190h30c1 10-1 24 2 32 11-22 29-35 61-36" id="t"/><path fill="#333" d="M141-36C126-15 110 5 73 4 37 3 15-17 15-53c-1-64 63-63 125-63 3-35-9-54-41-54-24 1-41 7-42 31l-33-3c5-37 33-52 76-52 45 0 72 20 72 64v82c-1 20 7 32 28 27v20c-31 9-61-2-59-35zM48-53c0 20 12 33 32 33 41-3 63-29 60-74-43 2-92-5-92 41" id="u"/><path fill="#333" d="M210-169c-67 3-38 105-44 169h-31v-121c0-29-5-50-35-48C34-165 62-65 56 0H25l-1-190h30c1 10-1 24 2 32 10-44 99-50 107 0 11-21 27-35 58-36 85-2 47 119 55 194h-31v-121c0-29-5-49-35-48" id="v"/><path fill="#333" d="M100-194c63 0 86 42 84 106H49c0 40 14 67 53 68 26 1 43-12 49-29l28 8c-11 28-37 45-77 45C44 4 14-33 15-96c1-61 26-98 85-98zm52 81c6-60-76-77-97-28-3 7-6 17-6 28h103" id="w"/><g id="b"><use transform="matrix(0.05,0,0,0.05,0,0)" xlink:href="#t"/><use transform="matrix(0.05,0,0,0.05,10,0)" xlink:href="#u"/><use transform="matrix(0.05,0,0,0.05,20,0)" xlink:href="#v"/><use transform="matrix(0.05,0,0,0.05,34.95,0)" xlink:href="#w"/></g><path fill="#333" d="M18-150v-26h174v26H18zm0 90v-26h174v26H18" id="x"/><use transform="matrix(0.05,0,0,0.05,0,0)" xlink:href="#x" id="c"/><path fill="#333" d="M109-170H84l-4-78h32zm-65 0H19l-4-78h33" id="y"/><path fill="#333" d="M30-248c87 1 191-15 191 75 0 78-77 80-158 76V0H30v-248zm33 125c57 0 124 11 124-50 0-59-68-47-124-48v98" id="z"/><path fill="#333" d="M27 0v-27h64v-190l-56 39v-29l58-41h29v221h61V0H27" id="A"/><g id="d"><use transform="matrix(0.05,0,0,0.05,0,0)" xlink:href="#y"/><use transform="matrix(0.05,0,0,0.05,6.3500000000000005,0)" xlink:href="#z"/><use transform="matrix(0.05,0,0,0.05,18.35,0)" xlink:href="#A"/><use transform="matrix(0.05,0,0,0.05,28.35,0)" xlink:href="#y"/></g><path fill="#333" d="M59-47c-2 24 18 29 38 22v24C64 9 27 4 27-40v-127H5v-23h24l9-43h21v43h35v23H59v120" id="B"/><path fill="#333" d="M100-194c62-1 85 37 85 99 1 63-27 99-86 99S16-35 15-95c0-66 28-99 85-99zM99-20c44 1 53-31 53-75 0-43-8-75-51-75s-53 32-53 75 10 74 51 75" id="C"/><path fill="#333" d="M143 0L79-87 56-68V0H24v-261h32v163l83-92h37l-77 82L181 0h-38" id="D"/><path fill="#333" d="M135-143c-3-34-86-38-87 0 15 53 115 12 119 90S17 21 10-45l28-5c4 36 97 45 98 0-10-56-113-15-118-90-4-57 82-63 122-42 12 7 21 19 24 35" id="E"/><g id="e"><use transform="matrix(0.05,0,0,0.05,0,0)" xlink:href="#B"/><use transform="matrix(0.05,0,0,0.05,5,0)" xlink:href="#C"/><use transform="matrix(0.05,0,0,0.05,15,0)" xlink:href="#D"/><use transform="matrix(0.05,0,0,0.05,24,0)" xlink:href="#w"/><use transform="matrix(0.05,0,0,0.05,34,0)" xlink:href="#t"/><use transform="matrix(0.05,0,0,0.05,44,0)" xlink:href="#E"/></g><use transform="matrix(0.05,0,0,0.05,0,0)" xlink:href="#A" id="f"/><path fill="#333" d="M101-251c82-7 93 87 43 132L82-64C71-53 59-42 53-27h129V0H18c2-99 128-94 128-182 0-28-16-43-45-43s-46 15-49 41l-32-3c6-41 34-60 81-64" id="F"/><g id="g"><use transform="matrix(0.05,0,0,0.05,0,0)" xlink:href="#y"/><use transform="matrix(0.05,0,0,0.05,6.3500000000000005,0)" xlink:href="#z"/><use transform="matrix(0.05,0,0,0.05,18.35,0)" xlink:href="#F"/><use transform="matrix(0.05,0,0,0.05,28.35,0)" xlink:href="#y"/></g><path fill="#333" d="M101-251c68 0 85 55 85 127S166 4 100 4C33 4 14-52 14-124c0-73 17-127 87-127zm-1 229c47 0 54-49 54-102s-4-102-53-102c-51 0-55 48-55 102 0 53 5 102 54 102" id="G"/><use transform="matrix(0.05,0,0,0.05,0,0)" xlink:href="#G" id="h"/><path fill="#333" d="M126-127c33 6 58 20 58 59 0 88-139 92-164 29-3-8-5-16-6-25l32-3c6 27 21 44 54 44 32 0 52-15 52-46 0-38-36-46-79-43v-28c39 1 72-4 72-42 0-27-17-43-46-43-28 0-47 15-49 41l-32-3c6-42 35-63 81-64 48-1 79 21 79 65 0 36-21 52-52 59" id="H"/><g id="i"><use transform="matrix(0.05,0,0,0.05,0,0)" xlink:href="#y"/><use transform="matrix(0.05,0,0,0.05,6.3500000000000005,0)" xlink:href="#z"/><use transform="matrix(0.05,0,0,0.05,18.35,0)" xlink:href="#H"/><use transform="matrix(0.05,0,0,0.05,28.35,0)" xlink:href="#y"/></g><path d="M127-220V0H93v-220H8v-28h204v28h-85" id="I"/><path d="M114-163C36-179 61-72 57 0H25l-1-190h30c1 12-1 29 2 39 6-27 23-49 58-41v29" id="J"/><path d="M117-194c89-4 53 116 60 194h-32v-121c0-31-8-49-39-48C34-167 62-67 57 0H25l-1-190h30c1 10-1 24 2 32 11-22 29-35 61-36" id="K"/><path d="M135-143c-3-34-86-38-87 0 15 53 115 12 119 90S17 21 10-45l28-5c4 36 97 45 98 0-10-56-113-15-118-90-4-57 82-63 122-42 12 7 21 19 24 35" id="L"/><path d="M24-231v-30h32v30H24zM24 0v-190h32V0H24" id="M"/><path d="M59-47c-2 24 18 29 38 22v24C64 9 27 4 27-40v-127H5v-23h24l9-43h21v43h35v23H59v120" id="N"/><path d="M100-194c62-1 85 37 85 99 1 63-27 99-86 99S16-35 15-95c0-66 28-99 85-99zM99-20c44 1 53-31 53-75 0-43-8-75-51-75s-53 32-53 75 10 74 51 75" id="O"/><g id="j"><use transform="matrix(0.05,0,0,0.05,0,0)" xlink:href="#n"/><use transform="matrix(0.05,0,0,0.05,5,0)" xlink:href="#I"/><use transform="matrix(0.05,0,0,0.05,15.3,0)" xlink:href="#J"/><use transform="matrix(0.05,0,0,0.05,21.25,0)" xlink:href="#q"/><use transform="matrix(0.05,0,0,0.05,31.25,0)" xlink:href="#K"/><use transform="matrix(0.05,0,0,0.05,41.25,0)" xlink:href="#L"/><use transform="matrix(0.05,0,0,0.05,50.25,0)" xlink:href="#M"/><use transform="matrix(0.05,0,0,0.05,54.2,0)" xlink:href="#N"/><use transform="matrix(0.05,0,0,0.05,59.2,0)" xlink:href="#O"/><use transform="matrix(0.05,0,0,0.05,69.2,0)" xlink:href="#K"/></g><path fill="#333" d="M127-220V0H93v-220H8v-28h204v28h-85" id="P"/><g id="k"><use transform="matrix(0.05,0,0,0.05,0,0)" xlink:href="#y"/><use transform="matrix(0.05,0,0,0.05,6.3500000000000005,0)" xlink:href="#P"/><use transform="matrix(0.05,0,0,0.05,17.3,0)" xlink:href="#A"/><use transform="matrix(0.05,0,0,0.05,27.3,0)" xlink:href="#y"/></g><path d="M84 4C-5 8 30-112 23-190h32v120c0 31 7 50 39 49 72-2 45-101 50-169h31l1 190h-30c-1-10 1-25-2-33-11 22-28 36-60 37" id="Q"/><path d="M177-190C167-65 218 103 67 71c-23-6-38-20-44-43l32-5c15 47 100 32 89-28v-30C133-14 115 1 83 1 29 1 15-40 15-95c0-56 16-97 71-98 29-1 48 16 59 35 1-10 0-23 2-32h30zM94-22c36 0 50-32 50-73 0-42-14-75-50-75-39 0-46 34-46 75s6 73 46 73" id="R"/><g id="l"><use transform="matrix(0.05,0,0,0.05,0,0)" xlink:href="#O"/><use transform="matrix(0.05,0,0,0.05,10,0)" xlink:href="#Q"/><use transform="matrix(0.05,0,0,0.05,20,0)" xlink:href="#N"/><use transform="matrix(0.05,0,0,0.05,25,0)" xlink:href="#R"/><use transform="matrix(0.05,0,0,0.05,35,0)" xlink:href="#O"/><use transform="matrix(0.05,0,0,0.05,45,0)" xlink:href="#M"/><use transform="matrix(0.05,0,0,0.05,48.95,0)" xlink:href="#K"/><use transform="matrix(0.05,0,0,0.05,58.95,0)" xlink:href="#R"/></g><path d="M210-169c-67 3-38 105-44 169h-31v-121c0-29-5-50-35-48C34-165 62-65 56 0H25l-1-190h30c1 10-1 24 2 32 10-44 99-50 107 0 11-21 27-35 58-36 85-2 47 119 55 194h-31v-121c0-29-5-49-35-48" id="S"/><g id="m"><use transform="matrix(0.05,0,0,0.05,0,0)" xlink:href="#M"/><use transform="matrix(0.05,0,0,0.05,3.95,0)" xlink:href="#K"/><use transform="matrix(0.05,0,0,0.05,13.949999999999998,0)" xlink:href="#r"/><use transform="matrix(0.05,0,0,0.05,22.95,0)" xlink:href="#O"/><use transform="matrix(0.05,0,0,0.05,32.95,0)" xlink:href="#S"/><use transform="matrix(0.05,0,0,0.05,47.900000000000006,0)" xlink:href="#M"/><use transform="matrix(0.05,0,0,0.05,51.85,0)" xlink:href="#K"/><use transform="matrix(0.05,0,0,0.05,61.85,0)" xlink:href="#R"/></g></defs></g></svg>