<svg xmlns="http://www.w3.org/2000/svg" xmlns:xlink="http://www.w3.org/1999/xlink" xmlns:lucid="lucid" width="981.33" height="366.61"><g transform="translate(-80 -60)" lucid:page-tab-id="84zhaCwm_CY~"><path d="M800 118.75h227.37v100H800z" stroke="#333" stroke-width="2" fill="#99d2f2"/><path d="M800 156.35h227.37" stroke="#333" stroke-width="2" fill="none"/><use xlink:href="#a" transform="matrix(1,0,0,1,808,126.75028203835711) translate(31.599999999999994 14.6)"/><use xlink:href="#b" transform="matrix(1,0,0,1,812,164.3502820383571) translate(0 14.4)"/><use xlink:href="#c" transform="matrix(1,0,0,1,812,164.3502820383571) translate(29.45 14.4)"/><use xlink:href="#d" transform="matrix(1,0,0,1,812,164.3502820383571) translate(39.45 14.4)"/><use xlink:href="#e" transform="matrix(1,0,0,1,812,164.3502820383571) translate(0 36)"/><use xlink:href="#f" transform="matrix(1,0,0,1,812,164.3502820383571) translate(54.5 36)"/><path d="M921.33 101h120v26.6h-120z" fill="#fff"/><path d="M932.58 101h7.5m7.5 0h7.5m7.5 0h7.5m7.5 0h7.5m7.5 0h7.5m7.5 0h7.5m7.5 0h7.5m7.5 0h3.75v3.33m0 6.65v6.65m0 6.65v3.33h-3.75m-7.5 0h-7.5m-7.5 0h-7.5m-7.5 0h-7.5m-7.5 0h-7.5m-7.5 0h-7.5m-7.5 0h-7.5m-7.5 0h-7.5m-7.5 0h-3.75v-3.32m0-6.65v-6.65m0-6.65V101h3.75" stroke="#333" stroke-width="2" fill="none"/><use xlink:href="#g" transform="matrix(1,0,0,1,926.3333333333335,105.99999999999993) translate(9.75 14.4)"/><use xlink:href="#h" transform="matrix(1,0,0,1,926.3333333333335,105.99999999999993) translate(25.35 14.4)"/><use xlink:href="#i" transform="matrix(1,0,0,1,926.3333333333335,105.99999999999993) translate(35.35 14.4)"/><path d="M577.37 305.1V254.4" stroke="#333" fill="none"/><path d="M577.87 305.6h-1v-.5h1z" fill="#333"/><path d="M577.37 239.62l4.63 14.26h-9.27z" stroke="#333" fill="#fff"/><path d="M100 80h252.5v178H100z" stroke="#333" stroke-width="2" fill="#99d2f2"/><path d="M100 139.2h252.5M100 176.8h252.5" stroke="#333" stroke-width="2" fill="none"/><use xlink:href="#j" transform="matrix(1,0,0,1,108,88) translate(60.074999999999996 14.799999999999999)"/><use xlink:href="#k" transform="matrix(1,0,0,1,108,88) translate(83.55 36.4)"/><use xlink:href="#l" transform="matrix(1,0,0,1,112,147.2) translate(0 14.6)"/><use xlink:href="#h" transform="matrix(1,0,0,1,112,147.2) translate(29.45 14.6)"/><use xlink:href="#m" transform="matrix(1,0,0,1,112,147.2) translate(39.45 14.6)"/><use xlink:href="#n" transform="matrix(1,0,0,1,112,184.79999999999998) translate(0 14.500000000000002)"/><use xlink:href="#o" transform="matrix(1,0,0,1,112,184.79999999999998) translate(15.5 14.500000000000002)"/><use xlink:href="#h" transform="matrix(1,0,0,1,112,184.79999999999998) translate(70.4 14.500000000000002)"/><use xlink:href="#p" transform="matrix(1,0,0,1,112,184.79999999999998) translate(80.4 14.500000000000002)"/><use xlink:href="#n" transform="matrix(1,0,0,1,112,184.79999999999998) translate(0 36.1)"/><use xlink:href="#q" transform="matrix(1,0,0,1,112,184.79999999999998) translate(15.5 36.1)"/><use xlink:href="#h" transform="matrix(1,0,0,1,112,184.79999999999998) translate(85.35000000000001 36.1)"/><use xlink:href="#r" transform="matrix(1,0,0,1,112,184.79999999999998) translate(95.35000000000001 36.1)"/><use xlink:href="#n" transform="matrix(1,0,0,1,112,184.79999999999998) translate(0 57.7)"/><use xlink:href="#s" transform="matrix(1,0,0,1,112,184.79999999999998) translate(15.5 57.7)"/><use xlink:href="#h" transform="matrix(1,0,0,1,112,184.79999999999998) translate(114.30000000000001 57.7)"/><use xlink:href="#t" transform="matrix(1,0,0,1,112,184.79999999999998) translate(124.30000000000001 57.7)"/><path d="M462.18 117.33h-4.5m-4.5 0h-9.03m-4.5 0h-9.02m-4.5 0h-9.03m-4.5 0h-8.76m-4.25 0h-8.5m-4.24 0h-8.5m-4.24 0h-4.25" stroke="#333" fill="none"/><path d="M462.68 117.83h-.5v-1h.5z" fill="#333"/><path d="M355.1 117.33l14.27-4.63v9.27z" stroke="#333" fill="#fff"/><path d="M462.18 169h-5.13m-5.13 0h-10.27m-5.13 0h-10.26m-5.14 0h-10.26m-5.14 0h-10.26m-5.13 0h-10.27m-5.13 0h-10.27m-5.13 0h-5.13" stroke="#333" fill="none"/><path d="M462.68 169.5h-.5v-1h.5z" fill="#333"/><path d="M371.7 158.82L354.46 169l17.22 10.18" stroke="#333" fill="none"/><use xlink:href="#u" transform="matrix(1,0,0,1,395.2666666666667,143.39999999999998) translate(0 14.4)"/><use xlink:href="#v" transform="matrix(1,0,0,1,395.2666666666667,143.39999999999998) translate(32 14.4)"/><path d="M462.18 213.33h-5.13m-5.13 0h-10.27m-5.13 0h-10.26m-5.14 0h-10.26m-5.14 0h-10.26m-5.13 0h-10.27m-5.13 0h-10.27m-5.13 0h-5.13" stroke="#333" fill="none"/><path d="M462.68 213.83h-.5v-1h.5z" fill="#333"/><path d="M371.7 203.15l-17.23 10.18 17.22 10.18" stroke="#333" fill="none"/><use xlink:href="#u" transform="matrix(1,0,0,1,396.6000000000001,187.73333333333332) translate(0 14.4)"/><use xlink:href="#w" transform="matrix(1,0,0,1,396.6000000000001,187.73333333333332) translate(32 14.4)"/><path d="M463.68 101h227.37v136H463.68z" stroke="#333" stroke-width="2" fill="#f9d2de"/><path d="M463.68 138.6h227.37" stroke="#333" stroke-width="2" fill="none"/><use xlink:href="#x" transform="matrix(1,0,0,1,471.68421052631584,108.99999999999994) translate(73.07499999999999 14.6)"/><g><use xlink:href="#y" transform="matrix(1,0,0,1,475.68421052631584,146.59999999999994) translate(0 14.4)"/><use xlink:href="#z" transform="matrix(1,0,0,1,475.68421052631584,146.59999999999994) translate(84.4 14.4)"/></g><path d="M487.37 306.6h180v100h-180z" stroke="#333" stroke-width="2" fill="#f9d2de"/><g><use xlink:href="#A" transform="matrix(1,0,0,1,495.3684210526317,314.6064184729123) translate(5.599999999999994 45.6)"/></g><path d="M692.55 190.67h90.07" stroke="#333" fill="none"/><path d="M692.57 191.17h-.52v-1h.52z" fill="#333"/><path d="M797.38 190.67l-14.26 4.63v-9.27z" stroke="#333" fill="#333"/><g><use xlink:href="#B" transform="matrix(1,0,0,1,770.306510677974,194.66666666666663) translate(0 14.4)"/></g><g><use xlink:href="#C" transform="matrix(1,0,0,1,778.1174635431881,165.06666666666663) translate(0 14.4)"/></g><path d="M692.55 138.67h90.08" stroke="#333" fill="none"/><path d="M692.57 139.17h-.52v-1h.52z" fill="#333"/><path d="M797.38 138.67l-14.26 4.63v-9.27z" stroke="#333" fill="#333"/><g><use xlink:href="#B" transform="matrix(1,0,0,1,768.2383692736167,142.6666666666666) translate(0 14.4)"/></g><g><use xlink:href="#D" transform="matrix(1,0,0,1,776.4400271338329,113.0666666666666) translate(0 14.4)"/></g><path d="M485.87 380H481m-4.87 0h-9.74m-4.88 0h-9.74m-4.87 0h-9.73m-4.87 0h-9.74m-4.87 0h-9.75m-4.88 0h-9.74m-4.87 0h-9.74m-4.87 0h-9.74m-4.86 0h-9.74m-4.87 0h-9.74m-4.88 0h-9.74m-4.87 0h-9.73m-4.87 0h-9.74m-4.87 0h-9.75m-4.87 0h-9.74m-4.87 0h-9.74m-4.87 0h-9.74m-4.87 0H218m-4.86 0h-4.87l-3.12-.4-2.87-1.2m-4.4-4.4l-1.2-2.9-.4-3.1v-5.15m0-5.14v-10.3m0-5.14v-10.3m0-5.14v-10.3m0-5.14v-10.3m0-5.14v-10.3m0-5.14v-10.3m0-5.14v-5.15" stroke="#333" fill="none"/><path d="M486.37 380.5h-.5v-1h.5z" fill="#333"/><path d="M206.45 277.2l-10.18-17.22-10.18 17.22" stroke="#333" fill="none"/><g><use xlink:href="#E" transform="matrix(1,0,0,1,373.035282409342,354.4) translate(0 14.4)"/><use xlink:href="#w" transform="matrix(1,0,0,1,373.035282409342,354.4) translate(15 14.4)"/></g><path d="M485.87 330.67H481m-4.86 0h-9.73m-4.85 0h-9.73m-4.86 0h-9.73m-4.86 0h-9.73m-4.86 0h-9.73m-4.86 0h-9.74m-4.86 0h-9.73m-4.86 0h-9.72m-4.86 0h-9.73m-4.87 0h-9.73m-4.86 0h-9.73m-4.86 0h-9.72m-4.87 0h-9.72m-4.87 0h-4.86l-3.1-.4-2.9-1.2m-4.4-4.4l-1.2-2.9-.4-3.1v-4.9m0-4.9v-9.8m0-4.9v-9.78m0-4.9v-9.8m0-4.9v-4.9" stroke="#333" fill="none"/><path d="M486.37 331.17h-.5v-1h.5z" fill="#333"/><path d="M279.78 277.2l-10.18-17.22-10.18 17.22" stroke="#333" fill="none"/><g><use xlink:href="#E" transform="matrix(1,0,0,1,366.2640611173734,305.06666666666666) translate(0 14.4)"/><use xlink:href="#v" transform="matrix(1,0,0,1,366.2640611173734,305.06666666666666) translate(15 14.4)"/></g><defs><path d="M30 0v-248h187v28H63v79h144v27H63v87h162V0H30" id="F"/><path d="M24 0v-261h32V0H24" id="G"/><path d="M100-194c63 0 86 42 84 106H49c0 40 14 67 53 68 26 1 43-12 49-29l28 8c-11 28-37 45-77 45C44 4 14-33 15-96c1-61 26-98 85-98zm52 81c6-60-76-77-97-28-3 7-6 17-6 28h103" id="H"/><path d="M210-169c-67 3-38 105-44 169h-31v-121c0-29-5-50-35-48C34-165 62-65 56 0H25l-1-190h30c1 10-1 24 2 32 10-44 99-50 107 0 11-21 27-35 58-36 85-2 47 119 55 194h-31v-121c0-29-5-49-35-48" id="I"/><path d="M117-194c89-4 53 116 60 194h-32v-121c0-31-8-49-39-48C34-167 62-67 57 0H25l-1-190h30c1 10-1 24 2 32 11-22 29-35 61-36" id="J"/><path d="M59-47c-2 24 18 29 38 22v24C64 9 27 4 27-40v-127H5v-23h24l9-43h21v43h35v23H59v120" id="K"/><path d="M233-177c-1 41-23 64-60 70L243 0h-38l-65-103H63V0H30v-248c88 3 205-21 203 71zM63-129c60-2 137 13 137-47 0-61-80-42-137-45v92" id="L"/><path d="M101-234c-31-9-42 10-38 44h38v23H63V0H32v-167H5v-23h27c-7-52 17-82 69-68v24" id="M"/><path d="M114-163C36-179 61-72 57 0H25l-1-190h30c1 12-1 29 2 39 6-27 23-49 58-41v29" id="N"/><path d="M96-169c-40 0-48 33-48 73s9 75 48 75c24 0 41-14 43-38l32 2c-6 37-31 61-74 61-59 0-76-41-82-99-10-93 101-131 147-64 4 7 5 14 7 22l-32 3c-4-21-16-35-41-35" id="O"/><g id="a"><use transform="matrix(0.05,0,0,0.05,0,0)" xlink:href="#F"/><use transform="matrix(0.05,0,0,0.05,12,0)" xlink:href="#G"/><use transform="matrix(0.05,0,0,0.05,15.949999999999998,0)" xlink:href="#H"/><use transform="matrix(0.05,0,0,0.05,25.950000000000003,0)" xlink:href="#I"/><use transform="matrix(0.05,0,0,0.05,40.9,0)" xlink:href="#H"/><use transform="matrix(0.05,0,0,0.05,50.9,0)" xlink:href="#J"/><use transform="matrix(0.05,0,0,0.05,60.900000000000006,0)" xlink:href="#K"/><use transform="matrix(0.05,0,0,0.05,65.9,0)" xlink:href="#L"/><use transform="matrix(0.05,0,0,0.05,78.85000000000001,0)" xlink:href="#H"/><use transform="matrix(0.05,0,0,0.05,88.85000000000001,0)" xlink:href="#M"/><use transform="matrix(0.05,0,0,0.05,93.85000000000001,0)" xlink:href="#H"/><use transform="matrix(0.05,0,0,0.05,103.85000000000001,0)" xlink:href="#N"/><use transform="matrix(0.05,0,0,0.05,109.80000000000001,0)" xlink:href="#H"/><use transform="matrix(0.05,0,0,0.05,119.80000000000001,0)" xlink:href="#J"/><use transform="matrix(0.05,0,0,0.05,129.8,0)" xlink:href="#O"/><use transform="matrix(0.05,0,0,0.05,138.8,0)" xlink:href="#H"/></g><path fill="#333" d="M118-107v75H92v-75H18v-26h74v-75h26v75h74v26h-74" id="P"/><path fill="#333" d="M24-231v-30h32v30H24zM24 0v-190h32V0H24" id="Q"/><path fill="#333" d="M85-194c31 0 48 13 60 33l-1-100h32l1 261h-30c-2-10 0-23-3-31C134-8 116 4 85 4 32 4 16-35 15-94c0-66 23-100 70-100zm9 24c-40 0-46 34-46 75 0 40 6 74 45 74 42 0 51-32 51-76 0-42-9-74-50-73" id="R"/><g id="b"><use transform="matrix(0.05,0,0,0.05,0,0)" xlink:href="#P"/><use transform="matrix(0.05,0,0,0.05,10.5,0)" xlink:href="#Q"/><use transform="matrix(0.05,0,0,0.05,14.449999999999998,0)" xlink:href="#R"/></g><path fill="#333" d="M33-154v-36h34v36H33zM33 0v-36h34V0H33" id="S"/><use transform="matrix(0.05,0,0,0.05,0,0)" xlink:href="#S" id="c"/><path fill="#333" d="M185-189c-5-48-123-54-124 2 14 75 158 14 163 119 3 78-121 87-175 55-17-10-28-26-33-46l33-7c5 56 141 63 141-1 0-78-155-14-162-118-5-82 145-84 179-34 5 7 8 16 11 25" id="T"/><path fill="#333" d="M59-47c-2 24 18 29 38 22v24C64 9 27 4 27-40v-127H5v-23h24l9-43h21v43h35v23H59v120" id="U"/><path fill="#333" d="M114-163C36-179 61-72 57 0H25l-1-190h30c1 12-1 29 2 39 6-27 23-49 58-41v29" id="V"/><path fill="#333" d="M117-194c89-4 53 116 60 194h-32v-121c0-31-8-49-39-48C34-167 62-67 57 0H25l-1-190h30c1 10-1 24 2 32 11-22 29-35 61-36" id="W"/><path fill="#333" d="M177-190C167-65 218 103 67 71c-23-6-38-20-44-43l32-5c15 47 100 32 89-28v-30C133-14 115 1 83 1 29 1 15-40 15-95c0-56 16-97 71-98 29-1 48 16 59 35 1-10 0-23 2-32h30zM94-22c36 0 50-32 50-73 0-42-14-75-50-75-39 0-46 34-46 75s6 73 46 73" id="X"/><g id="d"><use transform="matrix(0.05,0,0,0.05,0,0)" xlink:href="#T"/><use transform="matrix(0.05,0,0,0.05,12,0)" xlink:href="#U"/><use transform="matrix(0.05,0,0,0.05,17,0)" xlink:href="#V"/><use transform="matrix(0.05,0,0,0.05,22.95,0)" xlink:href="#Q"/><use transform="matrix(0.05,0,0,0.05,26.899999999999995,0)" xlink:href="#W"/><use transform="matrix(0.05,0,0,0.05,36.9,0)" xlink:href="#X"/></g><path fill="#333" d="M179-190L93 31C79 59 56 82 12 73V49c39 6 53-20 64-50L1-190h34L92-34l54-156h33" id="Y"/><path fill="#333" d="M115-194c55 1 70 41 70 98S169 2 115 4C84 4 66-9 55-30l1 105H24l-1-265h31l2 30c10-21 28-34 59-34zm-8 174c40 0 45-34 45-75s-6-73-45-74c-42 0-51 32-51 76 0 43 10 73 51 73" id="Z"/><path fill="#333" d="M100-194c63 0 86 42 84 106H49c0 40 14 67 53 68 26 1 43-12 49-29l28 8c-11 28-37 45-77 45C44 4 14-33 15-96c1-61 26-98 85-98zm52 81c6-60-76-77-97-28-3 7-6 17-6 28h103" id="aa"/><g id="e"><use transform="matrix(0.05,0,0,0.05,0,0)" xlink:href="#P"/><use transform="matrix(0.05,0,0,0.05,10.5,0)" xlink:href="#U"/><use transform="matrix(0.05,0,0,0.05,15.5,0)" xlink:href="#Y"/><use transform="matrix(0.05,0,0,0.05,24.5,0)" xlink:href="#Z"/><use transform="matrix(0.05,0,0,0.05,34.5,0)" xlink:href="#aa"/><use transform="matrix(0.05,0,0,0.05,44.5,0)" xlink:href="#S"/></g><path fill="#333" d="M96-169c-40 0-48 33-48 73s9 75 48 75c24 0 41-14 43-38l32 2c-6 37-31 61-74 61-59 0-76-41-82-99-10-93 101-131 147-64 4 7 5 14 7 22l-32 3c-4-21-16-35-41-35" id="ab"/><path fill="#333" d="M24 0v-261h32V0H24" id="ac"/><path fill="#333" d="M141-36C126-15 110 5 73 4 37 3 15-17 15-53c-1-64 63-63 125-63 3-35-9-54-41-54-24 1-41 7-42 31l-33-3c5-37 33-52 76-52 45 0 72 20 72 64v82c-1 20 7 32 28 27v20c-31 9-61-2-59-35zM48-53c0 20 12 33 32 33 41-3 63-29 60-74-43 2-92-5-92 41" id="ad"/><path fill="#333" d="M135-143c-3-34-86-38-87 0 15 53 115 12 119 90S17 21 10-45l28-5c4 36 97 45 98 0-10-56-113-15-118-90-4-57 82-63 122-42 12 7 21 19 24 35" id="ae"/><path fill="#333" d="M18-100v-36l175-74v27L42-118l151 64v27" id="af"/><path fill="#333" d="M127-220V0H93v-220H8v-28h204v28h-85" id="ag"/><path fill="#333" d="M18-27v-27l151-64-151-65v-27l175 74v36" id="ah"/><g id="f"><use transform="matrix(0.05,0,0,0.05,0,0)" xlink:href="#ab"/><use transform="matrix(0.05,0,0,0.05,9,0)" xlink:href="#ac"/><use transform="matrix(0.05,0,0,0.05,12.949999999999998,0)" xlink:href="#ad"/><use transform="matrix(0.05,0,0,0.05,22.95,0)" xlink:href="#ae"/><use transform="matrix(0.05,0,0,0.05,31.950000000000003,0)" xlink:href="#ae"/><use transform="matrix(0.05,0,0,0.05,40.95,0)" xlink:href="#af"/><use transform="matrix(0.05,0,0,0.05,51.45,0)" xlink:href="#ag"/><use transform="matrix(0.05,0,0,0.05,62.400000000000006,0)" xlink:href="#ah"/></g><path d="M127-220V0H93v-220H8v-28h204v28h-85" id="ai"/><use transform="matrix(0.05,0,0,0.05,0,0)" xlink:href="#ai" id="g"/><path d="M33-154v-36h34v36H33zM33 0v-36h34V0H33" id="aj"/><use transform="matrix(0.05,0,0,0.05,0,0)" xlink:href="#aj" id="h"/><g id="i"><use transform="matrix(0.05,0,0,0.05,0,0)" xlink:href="#F"/><use transform="matrix(0.05,0,0,0.05,12,0)" xlink:href="#G"/><use transform="matrix(0.05,0,0,0.05,15.949999999999998,0)" xlink:href="#H"/><use transform="matrix(0.05,0,0,0.05,25.950000000000003,0)" xlink:href="#I"/><use transform="matrix(0.05,0,0,0.05,40.9,0)" xlink:href="#H"/><use transform="matrix(0.05,0,0,0.05,50.9,0)" xlink:href="#J"/><use transform="matrix(0.05,0,0,0.05,60.900000000000006,0)" xlink:href="#K"/></g><path d="M15-91v-56l181-69v40L49-119l147 57v40" id="ak"/><path d="M24 0v-248h52V0H24" id="al"/><path d="M135-194c87-1 58 113 63 194h-50c-7-57 23-157-34-157-59 0-34 97-39 157H25l-1-190h47c2 12-1 28 3 38 12-26 28-41 61-42" id="am"/><path d="M115-3C79 11 28 4 28-45v-112H4v-33h27l15-45h31v45h36v33H77v99c-1 23 16 31 38 25v30" id="an"/><path d="M185-48c-13 30-37 53-82 52C43 2 14-33 14-96s30-98 90-98c62 0 83 45 84 108H66c0 31 8 55 39 56 18 0 30-7 34-22zm-45-69c5-46-57-63-70-21-2 6-4 13-4 21h74" id="ao"/><path d="M135-150c-39-12-60 13-60 57V0H25l-1-190h47c2 13-1 29 3 40 6-28 27-53 61-41v41" id="ap"/><path d="M121-226c-27-7-43 5-38 36h38v33H83V0H34v-157H6v-33h28c-9-59 32-81 87-68v32" id="aq"/><path d="M133-34C117-15 103 5 69 4 32 3 11-16 11-54c-1-60 55-63 116-61 1-26-3-47-28-47-18 1-26 9-28 27l-52-2c7-38 36-58 82-57s74 22 75 68l1 82c-1 14 12 18 25 15v27c-30 8-71 5-69-32zm-48 3c29 0 43-24 42-57-32 0-66-3-65 30 0 17 8 27 23 27" id="ar"/><path d="M190-63c-7 42-38 67-86 67-59 0-84-38-90-98-12-110 154-137 174-36l-49 2c-2-19-15-32-35-32-30 0-35 28-38 64-6 74 65 87 74 30" id="as"/><path d="M15-22v-40l146-57-146-57v-40l181 69v56" id="at"/><g id="j"><use transform="matrix(0.05,0,0,0.05,0,0)" xlink:href="#ak"/><use transform="matrix(0.05,0,0,0.05,10.5,0)" xlink:href="#ak"/><use transform="matrix(0.05,0,0,0.05,21,0)" xlink:href="#al"/><use transform="matrix(0.05,0,0,0.05,26,0)" xlink:href="#am"/><use transform="matrix(0.05,0,0,0.05,36.95,0)" xlink:href="#an"/><use transform="matrix(0.05,0,0,0.05,42.900000000000006,0)" xlink:href="#ao"/><use transform="matrix(0.05,0,0,0.05,52.900000000000006,0)" xlink:href="#ap"/><use transform="matrix(0.05,0,0,0.05,59.900000000000006,0)" xlink:href="#aq"/><use transform="matrix(0.05,0,0,0.05,65.85000000000001,0)" xlink:href="#ar"/><use transform="matrix(0.05,0,0,0.05,75.85000000000001,0)" xlink:href="#as"/><use transform="matrix(0.05,0,0,0.05,85.85000000000001,0)" xlink:href="#ao"/><use transform="matrix(0.05,0,0,0.05,95.85000000000001,0)" xlink:href="#at"/><use transform="matrix(0.05,0,0,0.05,106.35000000000001,0)" xlink:href="#at"/></g><path d="M24 0v-248h195v40H76v63h132v40H76v65h150V0H24" id="au"/><path d="M25 0v-261h50V0H25" id="av"/><path d="M220-157c-53 9-28 100-34 157h-49v-107c1-27-5-49-29-50C55-147 81-57 75 0H25l-1-190h47c2 12-1 28 3 38 10-53 101-56 108 0 13-22 24-43 59-42 82 1 51 116 57 194h-49v-107c-1-25-5-48-29-50" id="aw"/><g id="k"><use transform="matrix(0.05,0,0,0.05,0,0)" xlink:href="#au"/><use transform="matrix(0.05,0,0,0.05,12,0)" xlink:href="#av"/><use transform="matrix(0.05,0,0,0.05,17,0)" xlink:href="#ao"/><use transform="matrix(0.05,0,0,0.05,27,0)" xlink:href="#aw"/><use transform="matrix(0.05,0,0,0.05,43,0)" xlink:href="#ao"/><use transform="matrix(0.05,0,0,0.05,53,0)" xlink:href="#am"/><use transform="matrix(0.05,0,0,0.05,63.95,0)" xlink:href="#an"/></g><path d="M118-107v75H92v-75H18v-26h74v-75h26v75h74v26h-74" id="ax"/><path d="M24-231v-30h32v30H24zM24 0v-190h32V0H24" id="ay"/><path d="M85-194c31 0 48 13 60 33l-1-100h32l1 261h-30c-2-10 0-23-3-31C134-8 116 4 85 4 32 4 16-35 15-94c0-66 23-100 70-100zm9 24c-40 0-46 34-46 75 0 40 6 74 45 74 42 0 51-32 51-76 0-42-9-74-50-73" id="az"/><g id="l"><use transform="matrix(0.05,0,0,0.05,0,0)" xlink:href="#ax"/><use transform="matrix(0.05,0,0,0.05,10.5,0)" xlink:href="#ay"/><use transform="matrix(0.05,0,0,0.05,14.449999999999998,0)" xlink:href="#az"/></g><path d="M185-189c-5-48-123-54-124 2 14 75 158 14 163 119 3 78-121 87-175 55-17-10-28-26-33-46l33-7c5 56 141 63 141-1 0-78-155-14-162-118-5-82 145-84 179-34 5 7 8 16 11 25" id="aA"/><path d="M177-190C167-65 218 103 67 71c-23-6-38-20-44-43l32-5c15 47 100 32 89-28v-30C133-14 115 1 83 1 29 1 15-40 15-95c0-56 16-97 71-98 29-1 48 16 59 35 1-10 0-23 2-32h30zM94-22c36 0 50-32 50-73 0-42-14-75-50-75-39 0-46 34-46 75s6 73 46 73" id="aB"/><g id="m"><use transform="matrix(0.05,0,0,0.05,0,0)" xlink:href="#aA"/><use transform="matrix(0.05,0,0,0.05,12,0)" xlink:href="#K"/><use transform="matrix(0.05,0,0,0.05,17,0)" xlink:href="#N"/><use transform="matrix(0.05,0,0,0.05,22.95,0)" xlink:href="#ay"/><use transform="matrix(0.05,0,0,0.05,26.899999999999995,0)" xlink:href="#J"/><use transform="matrix(0.05,0,0,0.05,36.9,0)" xlink:href="#aB"/></g><use transform="matrix(0.05,0,0,0.05,0,0)" xlink:href="#ax" id="n"/><path d="M100-194c62-1 85 37 85 99 1 63-27 99-86 99S16-35 15-95c0-66 28-99 85-99zM99-20c44 1 53-31 53-75 0-43-8-75-51-75s-53 32-53 75 10 74 51 75" id="aC"/><path d="M115-194c55 1 70 41 70 98S169 2 115 4C84 4 66-9 55-30l1 105H24l-1-265h31l2 30c10-21 28-34 59-34zm-8 174c40 0 45-34 45-75s-6-73-45-74c-42 0-51 32-51 76 0 43 10 73 51 73" id="aD"/><path d="M179-190L93 31C79 59 56 82 12 73V49c39 6 53-20 64-50L1-190h34L92-34l54-156h33" id="aE"/><path d="M87 75C49 33 22-17 22-94c0-76 28-126 65-167h31c-38 41-64 92-64 168S80 34 118 75H87" id="aF"/><path d="M33-261c38 41 65 92 65 168S71 34 33 75H2C39 34 66-17 66-93S39-220 2-261h31" id="aG"/><g id="o"><use transform="matrix(0.05,0,0,0.05,0,0)" xlink:href="#O"/><use transform="matrix(0.05,0,0,0.05,9,0)" xlink:href="#aC"/><use transform="matrix(0.05,0,0,0.05,19,0)" xlink:href="#aD"/><use transform="matrix(0.05,0,0,0.05,29,0)" xlink:href="#aE"/><use transform="matrix(0.05,0,0,0.05,38,0)" xlink:href="#aF"/><use transform="matrix(0.05,0,0,0.05,43.95,0)" xlink:href="#aG"/></g><g id="p"><use transform="matrix(0.05,0,0,0.05,0,0)" xlink:href="#F"/><use transform="matrix(0.05,0,0,0.05,12,0)" xlink:href="#G"/><use transform="matrix(0.05,0,0,0.05,15.949999999999998,0)" xlink:href="#H"/><use transform="matrix(0.05,0,0,0.05,25.950000000000003,0)" xlink:href="#I"/><use transform="matrix(0.05,0,0,0.05,40.9,0)" xlink:href="#H"/><use transform="matrix(0.05,0,0,0.05,50.9,0)" xlink:href="#J"/><use transform="matrix(0.05,0,0,0.05,60.900000000000006,0)" xlink:href="#K"/></g><path d="M145-31C134-9 116 4 85 4 32 4 16-35 15-94c0-59 17-99 70-100 32-1 48 14 60 33 0-11-1-24 2-32h30l-1 268h-32zM93-21c41 0 51-33 51-76s-8-73-50-73c-40 0-46 35-46 75s5 74 45 74" id="aH"/><path d="M84 4C-5 8 30-112 23-190h32v120c0 31 7 50 39 49 72-2 45-101 50-169h31l1 190h-30c-1-10 1-25-2-33-11 22-28 36-60 37" id="aI"/><path d="M141-36C126-15 110 5 73 4 37 3 15-17 15-53c-1-64 63-63 125-63 3-35-9-54-41-54-24 1-41 7-42 31l-33-3c5-37 33-52 76-52 45 0 72 20 72 64v82c-1 20 7 32 28 27v20c-31 9-61-2-59-35zM48-53c0 20 12 33 32 33 41-3 63-29 60-74-43 2-92-5-92 41" id="aJ"/><path d="M135-143c-3-34-86-38-87 0 15 53 115 12 119 90S17 21 10-45l28-5c4 36 97 45 98 0-10-56-113-15-118-90-4-57 82-63 122-42 12 7 21 19 24 35" id="aK"/><g id="q"><use transform="matrix(0.05,0,0,0.05,0,0)" xlink:href="#H"/><use transform="matrix(0.05,0,0,0.05,10,0)" xlink:href="#aH"/><use transform="matrix(0.05,0,0,0.05,20,0)" xlink:href="#aI"/><use transform="matrix(0.05,0,0,0.05,30,0)" xlink:href="#aJ"/><use transform="matrix(0.05,0,0,0.05,40,0)" xlink:href="#G"/><use transform="matrix(0.05,0,0,0.05,43.95,0)" xlink:href="#aK"/><use transform="matrix(0.05,0,0,0.05,52.95,0)" xlink:href="#aF"/><use transform="matrix(0.05,0,0,0.05,58.900000000000006,0)" xlink:href="#aG"/></g><path d="M115-194c53 0 69 39 70 98 0 66-23 100-70 100C84 3 66-7 56-30L54 0H23l1-261h32v101c10-23 28-34 59-34zm-8 174c40 0 45-34 45-75 0-40-5-75-45-74-42 0-51 32-51 76 0 43 10 73 51 73" id="aL"/><g id="r"><use transform="matrix(0.05,0,0,0.05,0,0)" xlink:href="#aL"/><use transform="matrix(0.05,0,0,0.05,10,0)" xlink:href="#aC"/><use transform="matrix(0.05,0,0,0.05,20,0)" xlink:href="#aC"/><use transform="matrix(0.05,0,0,0.05,30,0)" xlink:href="#G"/><use transform="matrix(0.05,0,0,0.05,33.95,0)" xlink:href="#H"/><use transform="matrix(0.05,0,0,0.05,43.95,0)" xlink:href="#aJ"/><use transform="matrix(0.05,0,0,0.05,53.95,0)" xlink:href="#J"/></g><path d="M108 0H70L1-190h34L89-25l56-165h34" id="aM"/><g id="s"><use transform="matrix(0.05,0,0,0.05,0,0)" xlink:href="#H"/><use transform="matrix(0.05,0,0,0.05,10,0)" xlink:href="#aH"/><use transform="matrix(0.05,0,0,0.05,20,0)" xlink:href="#aI"/><use transform="matrix(0.05,0,0,0.05,30,0)" xlink:href="#ay"/><use transform="matrix(0.05,0,0,0.05,33.95,0)" xlink:href="#aM"/><use transform="matrix(0.05,0,0,0.05,42.95,0)" xlink:href="#aJ"/><use transform="matrix(0.05,0,0,0.05,52.95,0)" xlink:href="#G"/><use transform="matrix(0.05,0,0,0.05,56.900000000000006,0)" xlink:href="#H"/><use transform="matrix(0.05,0,0,0.05,66.9,0)" xlink:href="#J"/><use transform="matrix(0.05,0,0,0.05,76.9,0)" xlink:href="#K"/><use transform="matrix(0.05,0,0,0.05,81.9,0)" xlink:href="#aF"/><use transform="matrix(0.05,0,0,0.05,87.85000000000001,0)" xlink:href="#aG"/></g><g id="t"><use transform="matrix(0.05,0,0,0.05,0,0)" xlink:href="#aL"/><use transform="matrix(0.05,0,0,0.05,10,0)" xlink:href="#aC"/><use transform="matrix(0.05,0,0,0.05,20,0)" xlink:href="#aC"/><use transform="matrix(0.05,0,0,0.05,30,0)" xlink:href="#G"/><use transform="matrix(0.05,0,0,0.05,33.95,0)" xlink:href="#H"/><use transform="matrix(0.05,0,0,0.05,43.95,0)" xlink:href="#aJ"/><use transform="matrix(0.05,0,0,0.05,53.95,0)" xlink:href="#J"/></g><path d="M27 0v-27h64v-190l-56 39v-29l58-41h29v221h61V0H27" id="aN"/><path d="M33 0v-38h34V0H33" id="aO"/><path d="M80-196l47-18 7 23-49 13 32 44-20 13-27-46-27 45-21-12 33-44-49-13 8-23 47 19-2-53h23" id="aP"/><g id="u"><use transform="matrix(0.05,0,0,0.05,0,0)" xlink:href="#aN"/><use transform="matrix(0.05,0,0,0.05,10,0)" xlink:href="#aO"/><use transform="matrix(0.05,0,0,0.05,15,0)" xlink:href="#aO"/><use transform="matrix(0.05,0,0,0.05,20,0)" xlink:href="#aP"/></g><use transform="matrix(0.05,0,0,0.05,0,0)" xlink:href="#aJ" id="v"/><use transform="matrix(0.05,0,0,0.05,0,0)" xlink:href="#aL" id="w"/><g id="x"><use transform="matrix(0.05,0,0,0.05,0,0)" xlink:href="#L"/><use transform="matrix(0.05,0,0,0.05,12.950000000000001,0)" xlink:href="#H"/><use transform="matrix(0.05,0,0,0.05,22.950000000000003,0)" xlink:href="#G"/><use transform="matrix(0.05,0,0,0.05,26.900000000000002,0)" xlink:href="#aJ"/><use transform="matrix(0.05,0,0,0.05,36.900000000000006,0)" xlink:href="#K"/><use transform="matrix(0.05,0,0,0.05,41.900000000000006,0)" xlink:href="#ay"/><use transform="matrix(0.05,0,0,0.05,45.85000000000001,0)" xlink:href="#aC"/><use transform="matrix(0.05,0,0,0.05,55.85,0)" xlink:href="#J"/></g><g id="y"><use transform="matrix(0.05,0,0,0.05,0,0)" xlink:href="#P"/><use transform="matrix(0.05,0,0,0.05,10.5,0)" xlink:href="#R"/><use transform="matrix(0.05,0,0,0.05,20.5,0)" xlink:href="#Q"/><use transform="matrix(0.05,0,0,0.05,24.45,0)" xlink:href="#V"/><use transform="matrix(0.05,0,0,0.05,30.399999999999995,0)" xlink:href="#aa"/><use transform="matrix(0.05,0,0,0.05,40.4,0)" xlink:href="#ab"/><use transform="matrix(0.05,0,0,0.05,49.4,0)" xlink:href="#U"/><use transform="matrix(0.05,0,0,0.05,54.400000000000006,0)" xlink:href="#aa"/><use transform="matrix(0.05,0,0,0.05,64.4,0)" xlink:href="#R"/><use transform="matrix(0.05,0,0,0.05,74.4,0)" xlink:href="#S"/></g><path fill="#333" d="M115-194c53 0 69 39 70 98 0 66-23 100-70 100C84 3 66-7 56-30L54 0H23l1-261h32v101c10-23 28-34 59-34zm-8 174c40 0 45-34 45-75 0-40-5-75-45-74-42 0-51 32-51 76 0 43 10 73 51 73" id="aQ"/><path fill="#333" d="M100-194c62-1 85 37 85 99 1 63-27 99-86 99S16-35 15-95c0-66 28-99 85-99zM99-20c44 1 53-31 53-75 0-43-8-75-51-75s-53 32-53 75 10 74 51 75" id="aR"/><g id="z"><use transform="matrix(0.05,0,0,0.05,0,0)" xlink:href="#aQ"/><use transform="matrix(0.05,0,0,0.05,10,0)" xlink:href="#aR"/><use transform="matrix(0.05,0,0,0.05,20,0)" xlink:href="#aR"/><use transform="matrix(0.05,0,0,0.05,30,0)" xlink:href="#ac"/><use transform="matrix(0.05,0,0,0.05,33.95,0)" xlink:href="#aa"/><use transform="matrix(0.05,0,0,0.05,43.95,0)" xlink:href="#ad"/><use transform="matrix(0.05,0,0,0.05,53.95,0)" xlink:href="#W"/></g><path d="M140-251c81 0 123 46 123 126C263-46 219 4 140 4 59 4 17-45 17-125s42-126 123-126zm0 227c63 0 89-41 89-101s-29-99-89-99c-61 0-89 39-89 99S79-25 140-24" id="aS"/><g id="A"><use transform="matrix(0.05,0,0,0.05,0,0)" xlink:href="#aS"/><use transform="matrix(0.05,0,0,0.05,14,0)" xlink:href="#J"/><use transform="matrix(0.05,0,0,0.05,24,0)" xlink:href="#H"/><use transform="matrix(0.05,0,0,0.05,34,0)" xlink:href="#ai"/><use transform="matrix(0.05,0,0,0.05,42.95,0)" xlink:href="#aC"/><use transform="matrix(0.05,0,0,0.05,52.95,0)" xlink:href="#aS"/><use transform="matrix(0.05,0,0,0.05,66.95,0)" xlink:href="#J"/><use transform="matrix(0.05,0,0,0.05,76.95,0)" xlink:href="#H"/><use transform="matrix(0.05,0,0,0.05,86.95,0)" xlink:href="#L"/><use transform="matrix(0.05,0,0,0.05,99.9,0)" xlink:href="#H"/><use transform="matrix(0.05,0,0,0.05,109.9,0)" xlink:href="#G"/><use transform="matrix(0.05,0,0,0.05,113.85000000000001,0)" xlink:href="#aJ"/><use transform="matrix(0.05,0,0,0.05,123.85000000000001,0)" xlink:href="#K"/><use transform="matrix(0.05,0,0,0.05,128.85000000000002,0)" xlink:href="#ay"/><use transform="matrix(0.05,0,0,0.05,132.8,0)" xlink:href="#aC"/><use transform="matrix(0.05,0,0,0.05,142.8,0)" xlink:href="#J"/></g><g id="B"><use transform="matrix(0.05,0,0,0.05,0,0)" xlink:href="#aN"/><use transform="matrix(0.05,0,0,0.05,10,0)" xlink:href="#aO"/><use transform="matrix(0.05,0,0,0.05,15,0)" xlink:href="#aO"/><use transform="matrix(0.05,0,0,0.05,20,0)" xlink:href="#aP"/></g><use transform="matrix(0.05,0,0,0.05,0,0)" xlink:href="#aJ" id="C"/><use transform="matrix(0.05,0,0,0.05,0,0)" xlink:href="#aL" id="D"/><use transform="matrix(0.05,0,0,0.05,0,0)" xlink:href="#aN" id="E"/></defs></g></svg>