<svg xmlns="http://www.w3.org/2000/svg" xmlns:xlink="http://www.w3.org/1999/xlink" xmlns:lucid="lucid" width="520" height="380"><g transform="translate(-80 -40)" lucid:page-tab-id="bCXqlZhTdBv7"><path d="M380 60h160v60H380z" stroke="#333" stroke-width="2" fill="#ffbbb1"/><use xlink:href="#a" transform="matrix(1,0,0,1,388,68) translate(0.10000000000000853 25.6)"/><path d="M360 219h200v39H360z" stroke="#333" stroke-width="2" fill="#ffbbb1"/><use xlink:href="#b" transform="matrix(1,0,0,1,368,227) translate(-2.8249999999999886 15.1)"/><path d="M460.5 201.62h-1v-11.7h1zm0-33.3h-1V151.4h1z" fill="#333"/><path d="M474.85 136.56L460 151.7l-14.85-15.14L460 121.7z" fill="#333"/><path d="M475.55 136.55L460 152.42l-15.55-15.87L460 121zm-29.7 0L460 151l14.15-14.44L460 122.4zM460 216.38l-4.64-14.26h9.28z" fill="#333"/><path d="M460 218l-5.32-16.38h10.64zm-3.95-15.38l3.95 12.14 3.95-12.14z" fill="#333"/><use xlink:href="#c" transform="matrix(1,0,0,1,398.575,168.3340136054421) translate(0 14.4)"/><use xlink:href="#d" transform="matrix(1,0,0,1,398.575,168.3340136054421) translate(42 14.4)"/><path d="M460 318.5v-43.12" stroke="#333" fill="none"/><path d="M460.5 319h-1v-.5h1z" fill="#333"/><path d="M460 260.62l4.64 14.26h-9.28z" stroke="#333" fill="#fff"/><path d="M340 320h240v80H340z" stroke="#333" stroke-width="2" fill="#ffbbb1"/><path d="M340 357.6h240" stroke="#333" stroke-width="2" fill="none"/><use xlink:href="#e" transform="matrix(1,0,0,1,348,328) translate(14.250000000000014 14.6)"/><use xlink:href="#f" transform="matrix(1,0,0,1,352,365.6) translate(0 14.4)"/><use xlink:href="#g" transform="matrix(1,0,0,1,352,365.6) translate(44 14.4)"/><path d="M100 97h200v183H100z" stroke="#333" stroke-width="2" fill="#ffbbb1"/><path d="M100 156.2h200" stroke="#333" stroke-width="2" fill="none"/><use xlink:href="#h" transform="matrix(1,0,0,1,108,105) translate(20.07499999999999 14.799999999999999)"/><use xlink:href="#i" transform="matrix(1,0,0,1,108,105) translate(6.699999999999989 36.4)"/><g><use xlink:href="#j" transform="matrix(1,0,0,1,112,164.2) translate(0 14.4)"/><use xlink:href="#k" transform="matrix(1,0,0,1,112,164.2) translate(0 36)"/><use xlink:href="#l" transform="matrix(1,0,0,1,112,164.2) translate(0 57.6)"/><use xlink:href="#m" transform="matrix(1,0,0,1,112,164.2) translate(0 79.20000000000002)"/><use xlink:href="#n" transform="matrix(1,0,0,1,112,164.2) translate(0 100.80000000000001)"/></g><defs><path d="M233-177c-1 41-23 64-60 70L243 0h-38l-65-103H63V0H30v-248c88 3 205-21 203 71zM63-129c60-2 137 13 137-47 0-61-80-42-137-45v92" id="o"/><path d="M100-194c63 0 86 42 84 106H49c0 40 14 67 53 68 26 1 43-12 49-29l28 8c-11 28-37 45-77 45C44 4 14-33 15-96c1-61 26-98 85-98zm52 81c6-60-76-77-97-28-3 7-6 17-6 28h103" id="p"/><path d="M117-194c89-4 53 116 60 194h-32v-121c0-31-8-49-39-48C34-167 62-67 57 0H25l-1-190h30c1 10-1 24 2 32 11-22 29-35 61-36" id="q"/><path d="M85-194c31 0 48 13 60 33l-1-100h32l1 261h-30c-2-10 0-23-3-31C134-8 116 4 85 4 32 4 16-35 15-94c0-66 23-100 70-100zm9 24c-40 0-46 34-46 75 0 40 6 74 45 74 42 0 51-32 51-76 0-42-9-74-50-73" id="r"/><path d="M114-163C36-179 61-72 57 0H25l-1-190h30c1 12-1 29 2 39 6-27 23-49 58-41v29" id="s"/><path d="M185-189c-5-48-123-54-124 2 14 75 158 14 163 119 3 78-121 87-175 55-17-10-28-26-33-46l33-7c5 56 141 63 141-1 0-78-155-14-162-118-5-82 145-84 179-34 5 7 8 16 11 25" id="t"/><path d="M179-190L93 31C79 59 56 82 12 73V49c39 6 53-20 64-50L1-190h34L92-34l54-156h33" id="u"/><path d="M59-47c-2 24 18 29 38 22v24C64 9 27 4 27-40v-127H5v-23h24l9-43h21v43h35v23H59v120" id="v"/><path d="M141-36C126-15 110 5 73 4 37 3 15-17 15-53c-1-64 63-63 125-63 3-35-9-54-41-54-24 1-41 7-42 31l-33-3c5-37 33-52 76-52 45 0 72 20 72 64v82c-1 20 7 32 28 27v20c-31 9-61-2-59-35zM48-53c0 20 12 33 32 33 41-3 63-29 60-74-43 2-92-5-92 41" id="w"/><path d="M141 0L90-78 38 0H4l68-98-65-92h35l48 74 47-74h35l-64 92 68 98h-35" id="x"/><path d="M240 0l2-218c-23 76-54 145-80 218h-23L58-218 59 0H30v-248h44l77 211c21-75 51-140 76-211h43V0h-30" id="y"/><g id="a"><use transform="matrix(0.05,0,0,0.05,0,0)" xlink:href="#o"/><use transform="matrix(0.05,0,0,0.05,12.950000000000001,0)" xlink:href="#p"/><use transform="matrix(0.05,0,0,0.05,22.950000000000003,0)" xlink:href="#q"/><use transform="matrix(0.05,0,0,0.05,32.95,0)" xlink:href="#r"/><use transform="matrix(0.05,0,0,0.05,42.95,0)" xlink:href="#p"/><use transform="matrix(0.05,0,0,0.05,52.95,0)" xlink:href="#s"/><use transform="matrix(0.05,0,0,0.05,58.900000000000006,0)" xlink:href="#t"/><use transform="matrix(0.05,0,0,0.05,70.9,0)" xlink:href="#u"/><use transform="matrix(0.05,0,0,0.05,79.9,0)" xlink:href="#q"/><use transform="matrix(0.05,0,0,0.05,89.9,0)" xlink:href="#v"/><use transform="matrix(0.05,0,0,0.05,94.9,0)" xlink:href="#w"/><use transform="matrix(0.05,0,0,0.05,104.9,0)" xlink:href="#x"/><use transform="matrix(0.05,0,0,0.05,113.9,0)" xlink:href="#y"/><use transform="matrix(0.05,0,0,0.05,128.85,0)" xlink:href="#y"/></g><path d="M52-101C46-14 166-7 216-51l9-45h-74l6-28h105l-18 87C217-12 181 4 130 4 60 4 18-31 18-101c0-106 78-167 188-146 30 6 48 27 59 54l-34 9c-10-26-31-41-67-40-75 1-107 50-112 123" id="z"/><path d="M66-151c12-25 30-51 66-40l-6 26C45-176 58-65 38 0H6l36-190h30" id="A"/><path d="M165-48c-4 18 1 34 23 27l-3 20c-29 8-62 0-52-35h-2C116-14 99 4 63 4 30 4 8-16 8-49c0-68 71-67 138-67 10-26 0-56-31-54-26 1-42 9-47 31l-32-5c8-67 160-71 144 15-5 28-9 54-15 81zM42-50c3 52 80 24 89-6 7-12 7-24 11-38-47 1-103-4-100 44" id="B"/><path d="M67-162c32-53 139-36 121 50C175-51 163 2 97 4 68 4 52-11 42-31 38 6 28 39 22 75H-9l50-265h29c-1 10 0 20-3 28zm89 36c0-26-10-43-35-43-54 0-67 50-69 103-1 29 14 45 42 46 53 0 62-58 62-106" id="C"/><path d="M67-158c15-20 31-36 64-36 94 0 33 127 27 194h-32l25-140c3-38-53-32-70-12C52-117 51-51 37 0H6l51-261h31" id="D"/><path d="M50-231l6-30h32l-6 30H50zM6 0l37-190h31L37 0H6" id="E"/><path d="M44-68c0 29 11 47 38 47 30 0 42-19 51-41l28 9C148-21 126 4 82 4 31 4 10-29 12-85c3-77 74-140 146-93 12 8 15 23 18 40l-31 5c-1-22-13-36-36-36-52 0-65 49-65 101" id="F"/><path d="M20-101c0-91 52-143 145-150 126-9 127 168 53 223-23 17-55 32-93 32C57 4 20-33 20-101zm216-33c5-57-18-91-73-90-77 1-110 51-110 125 0 49 23 75 73 75 72-1 104-45 110-110" id="G"/><path d="M68-162c25-46 127-43 121 31C183-60 169 1 98 4 69 5 53-11 43-31L36 0H5l52-261h31zm88 36c2-27-9-43-34-43-55 0-70 51-70 103 0 29 15 45 43 46 52 0 58-58 61-106" id="H"/><path d="M51-231l6-30h31l-6 30H51zM33 24C28 60 2 84-40 72c3-12-1-29 18-22C-5 49-1 37 2 19l41-209h32" id="I"/><path d="M111-194c62-3 86 47 72 106H45c-7 38 6 69 45 68 27-1 43-14 53-32l24 11C152-15 129 4 87 4 38 3 12-23 12-71c0-70 32-119 99-123zm44 81c14-66-71-72-95-28-4 8-8 17-11 28h106" id="J"/><path d="M51-54c-9 22 5 41 31 30L79-1C43 14 10-4 19-52l22-115H19l5-23h22l19-43h21l-9 43h35l-4 23H73" id="K"/><path d="M248-139C247-14 144 9 11 0l48-248c105-6 190 8 189 109zm-34 0c1-70-52-87-126-82L50-27c98 7 163-21 164-112" id="L"/><path d="M76-167L44 0H12l33-167H18l4-23h27c3-47 25-81 82-69l-4 24c-35-8-44 15-46 45h37l-5 23H76" id="M"/><path d="M67-158c22-48 132-52 116 29L158 0h-32l25-140c3-38-53-32-70-12C52-117 51-52 38 0H6l36-190h30" id="N"/><path d="M30-147c31-64 166-65 159 27C183-49 158 1 86 4 9 8 1-88 30-147zM88-20c53 0 68-48 68-100 0-31-11-51-44-50-52 1-68 46-68 97 0 32 13 53 44 53" id="O"/><g id="b"><use transform="matrix(0.05,0,0,0.05,0,0)" xlink:href="#z"/><use transform="matrix(0.05,0,0,0.05,14,0)" xlink:href="#A"/><use transform="matrix(0.05,0,0,0.05,19.95,0)" xlink:href="#B"/><use transform="matrix(0.05,0,0,0.05,29.950000000000003,0)" xlink:href="#C"/><use transform="matrix(0.05,0,0,0.05,39.95,0)" xlink:href="#D"/><use transform="matrix(0.05,0,0,0.05,49.95,0)" xlink:href="#E"/><use transform="matrix(0.05,0,0,0.05,53.900000000000006,0)" xlink:href="#F"/><use transform="matrix(0.05,0,0,0.05,62.900000000000006,0)" xlink:href="#G"/><use transform="matrix(0.05,0,0,0.05,76.9,0)" xlink:href="#H"/><use transform="matrix(0.05,0,0,0.05,86.9,0)" xlink:href="#I"/><use transform="matrix(0.05,0,0,0.05,90.85000000000001,0)" xlink:href="#J"/><use transform="matrix(0.05,0,0,0.05,100.85000000000001,0)" xlink:href="#F"/><use transform="matrix(0.05,0,0,0.05,109.85000000000001,0)" xlink:href="#K"/><use transform="matrix(0.05,0,0,0.05,114.85000000000001,0)" xlink:href="#L"/><use transform="matrix(0.05,0,0,0.05,127.80000000000001,0)" xlink:href="#J"/><use transform="matrix(0.05,0,0,0.05,137.8,0)" xlink:href="#M"/><use transform="matrix(0.05,0,0,0.05,142.8,0)" xlink:href="#E"/><use transform="matrix(0.05,0,0,0.05,146.75,0)" xlink:href="#N"/><use transform="matrix(0.05,0,0,0.05,156.75,0)" xlink:href="#E"/><use transform="matrix(0.05,0,0,0.05,160.7,0)" xlink:href="#K"/><use transform="matrix(0.05,0,0,0.05,165.7,0)" xlink:href="#E"/><use transform="matrix(0.05,0,0,0.05,169.64999999999998,0)" xlink:href="#O"/><use transform="matrix(0.05,0,0,0.05,179.64999999999998,0)" xlink:href="#N"/></g><path d="M26 75v-336h71v23H56V52h41v23H26" id="P"/><path d="M27 0v-27h64v-190l-56 39v-29l58-41h29v221h61V0H27" id="Q"/><path d="M33 0v-38h34V0H33" id="R"/><path d="M80-196l47-18 7 23-49 13 32 44-20 13-27-46-27 45-21-12 33-44-49-13 8-23 47 19-2-53h23" id="S"/><path d="M3 75V52h41v-290H3v-23h71V75H3" id="T"/><g id="c"><use transform="matrix(0.05,0,0,0.05,0,0)" xlink:href="#P"/><use transform="matrix(0.05,0,0,0.05,5,0)" xlink:href="#Q"/><use transform="matrix(0.05,0,0,0.05,15,0)" xlink:href="#R"/><use transform="matrix(0.05,0,0,0.05,20,0)" xlink:href="#R"/><use transform="matrix(0.05,0,0,0.05,25,0)" xlink:href="#S"/><use transform="matrix(0.05,0,0,0.05,32,0)" xlink:href="#T"/></g><path d="M101-234c-31-9-42 10-38 44h38v23H63V0H32v-167H5v-23h27c-7-52 17-82 69-68v24" id="U"/><path d="M24-231v-30h32v30H24zM24 0v-190h32V0H24" id="V"/><path d="M100-194c62-1 85 37 85 99 1 63-27 99-86 99S16-35 15-95c0-66 28-99 85-99zM99-20c44 1 53-31 53-75 0-43-8-75-51-75s-53 32-53 75 10 74 51 75" id="W"/><path d="M135-143c-3-34-86-38-87 0 15 53 115 12 119 90S17 21 10-45l28-5c4 36 97 45 98 0-10-56-113-15-118-90-4-57 82-63 122-42 12 7 21 19 24 35" id="X"/><g id="d"><use transform="matrix(0.05,0,0,0.05,0,0)" xlink:href="#r"/><use transform="matrix(0.05,0,0,0.05,10,0)" xlink:href="#p"/><use transform="matrix(0.05,0,0,0.05,20,0)" xlink:href="#U"/><use transform="matrix(0.05,0,0,0.05,25,0)" xlink:href="#V"/><use transform="matrix(0.05,0,0,0.05,28.950000000000003,0)" xlink:href="#q"/><use transform="matrix(0.05,0,0,0.05,38.95,0)" xlink:href="#V"/><use transform="matrix(0.05,0,0,0.05,42.900000000000006,0)" xlink:href="#v"/><use transform="matrix(0.05,0,0,0.05,47.900000000000006,0)" xlink:href="#V"/><use transform="matrix(0.05,0,0,0.05,51.85,0)" xlink:href="#W"/><use transform="matrix(0.05,0,0,0.05,61.85,0)" xlink:href="#q"/><use transform="matrix(0.05,0,0,0.05,71.85000000000001,0)" xlink:href="#X"/></g><path d="M30-248c87 1 191-15 191 75 0 78-77 80-158 76V0H30v-248zm33 125c57 0 124 11 124-50 0-59-68-47-124-48v98" id="Y"/><path d="M210-169c-67 3-38 105-44 169h-31v-121c0-29-5-50-35-48C34-165 62-65 56 0H25l-1-190h30c1 10-1 24 2 32 10-44 99-50 107 0 11-21 27-35 58-36 85-2 47 119 55 194h-31v-121c0-29-5-49-35-48" id="Z"/><path d="M108 0H70L1-190h34L89-25l56-165h34" id="aa"/><path d="M140-251c81 0 123 46 123 126C263-46 219 4 140 4 59 4 17-45 17-125s42-126 123-126zm0 227c63 0 89-41 89-101s-29-99-89-99c-61 0-89 39-89 99S79-25 140-24" id="ab"/><path d="M115-194c53 0 69 39 70 98 0 66-23 100-70 100C84 3 66-7 56-30L54 0H23l1-261h32v101c10-23 28-34 59-34zm-8 174c40 0 45-34 45-75 0-40-5-75-45-74-42 0-51 32-51 76 0 43 10 73 51 73" id="ac"/><path d="M24-231v-30h32v30H24zM-9 49c24 4 33-6 33-30v-209h32V24c2 40-23 58-65 49V49" id="ad"/><path d="M96-169c-40 0-48 33-48 73s9 75 48 75c24 0 41-14 43-38l32 2c-6 37-31 61-74 61-59 0-76-41-82-99-10-93 101-131 147-64 4 7 5 14 7 22l-32 3c-4-21-16-35-41-35" id="ae"/><path d="M30-248c118-7 216 8 213 122C240-48 200 0 122 0H30v-248zM63-27c89 8 146-16 146-99s-60-101-146-95v194" id="af"/><g id="e"><use transform="matrix(0.05,0,0,0.05,0,0)" xlink:href="#Y"/><use transform="matrix(0.05,0,0,0.05,12,0)" xlink:href="#s"/><use transform="matrix(0.05,0,0,0.05,17.95,0)" xlink:href="#V"/><use transform="matrix(0.05,0,0,0.05,21.9,0)" xlink:href="#Z"/><use transform="matrix(0.05,0,0,0.05,36.85,0)" xlink:href="#V"/><use transform="matrix(0.05,0,0,0.05,40.800000000000004,0)" xlink:href="#v"/><use transform="matrix(0.05,0,0,0.05,45.800000000000004,0)" xlink:href="#V"/><use transform="matrix(0.05,0,0,0.05,49.75000000000001,0)" xlink:href="#aa"/><use transform="matrix(0.05,0,0,0.05,58.75,0)" xlink:href="#p"/><use transform="matrix(0.05,0,0,0.05,68.75,0)" xlink:href="#ab"/><use transform="matrix(0.05,0,0,0.05,82.75,0)" xlink:href="#ac"/><use transform="matrix(0.05,0,0,0.05,92.75,0)" xlink:href="#ad"/><use transform="matrix(0.05,0,0,0.05,96.7,0)" xlink:href="#p"/><use transform="matrix(0.05,0,0,0.05,106.7,0)" xlink:href="#ae"/><use transform="matrix(0.05,0,0,0.05,115.7,0)" xlink:href="#v"/><use transform="matrix(0.05,0,0,0.05,120.7,0)" xlink:href="#af"/><use transform="matrix(0.05,0,0,0.05,133.65,0)" xlink:href="#p"/><use transform="matrix(0.05,0,0,0.05,143.65,0)" xlink:href="#U"/><use transform="matrix(0.05,0,0,0.05,148.65,0)" xlink:href="#V"/><use transform="matrix(0.05,0,0,0.05,152.6,0)" xlink:href="#q"/><use transform="matrix(0.05,0,0,0.05,162.6,0)" xlink:href="#V"/><use transform="matrix(0.05,0,0,0.05,166.54999999999998,0)" xlink:href="#v"/><use transform="matrix(0.05,0,0,0.05,171.54999999999998,0)" xlink:href="#V"/><use transform="matrix(0.05,0,0,0.05,175.49999999999997,0)" xlink:href="#W"/><use transform="matrix(0.05,0,0,0.05,185.49999999999997,0)" xlink:href="#q"/></g><path fill="#333" d="M59-47c-2 24 18 29 38 22v24C64 9 27 4 27-40v-127H5v-23h24l9-43h21v43h35v23H59v120" id="ag"/><path fill="#333" d="M179-190L93 31C79 59 56 82 12 73V49c39 6 53-20 64-50L1-190h34L92-34l54-156h33" id="ah"/><path fill="#333" d="M115-194c55 1 70 41 70 98S169 2 115 4C84 4 66-9 55-30l1 105H24l-1-265h31l2 30c10-21 28-34 59-34zm-8 174c40 0 45-34 45-75s-6-73-45-74c-42 0-51 32-51 76 0 43 10 73 51 73" id="ai"/><path fill="#333" d="M100-194c63 0 86 42 84 106H49c0 40 14 67 53 68 26 1 43-12 49-29l28 8c-11 28-37 45-77 45C44 4 14-33 15-96c1-61 26-98 85-98zm52 81c6-60-76-77-97-28-3 7-6 17-6 28h103" id="aj"/><path fill="#333" d="M33-154v-36h34v36H33zM33 0v-36h34V0H33" id="ak"/><g id="f"><use transform="matrix(0.05,0,0,0.05,0,0)" xlink:href="#ag"/><use transform="matrix(0.05,0,0,0.05,5,0)" xlink:href="#ah"/><use transform="matrix(0.05,0,0,0.05,14,0)" xlink:href="#ai"/><use transform="matrix(0.05,0,0,0.05,24,0)" xlink:href="#aj"/><use transform="matrix(0.05,0,0,0.05,34,0)" xlink:href="#ak"/></g><path fill="#333" d="M143 4C61 4 22-44 18-125c-5-107 100-154 193-111 17 8 29 25 37 43l-32 9c-13-25-37-40-76-40-61 0-88 39-88 99 0 61 29 100 91 101 35 0 62-11 79-27v-45h-74v-28h105v86C228-13 192 4 143 4" id="al"/><path fill="#333" d="M114-163C36-179 61-72 57 0H25l-1-190h30c1 12-1 29 2 39 6-27 23-49 58-41v29" id="am"/><path fill="#333" d="M141-36C126-15 110 5 73 4 37 3 15-17 15-53c-1-64 63-63 125-63 3-35-9-54-41-54-24 1-41 7-42 31l-33-3c5-37 33-52 76-52 45 0 72 20 72 64v82c-1 20 7 32 28 27v20c-31 9-61-2-59-35zM48-53c0 20 12 33 32 33 41-3 63-29 60-74-43 2-92-5-92 41" id="an"/><path fill="#333" d="M106-169C34-169 62-67 57 0H25v-261h32l-1 103c12-21 28-36 61-36 89 0 53 116 60 194h-32v-121c2-32-8-49-39-48" id="ao"/><path fill="#333" d="M24-231v-30h32v30H24zM24 0v-190h32V0H24" id="ap"/><path fill="#333" d="M96-169c-40 0-48 33-48 73s9 75 48 75c24 0 41-14 43-38l32 2c-6 37-31 61-74 61-59 0-76-41-82-99-10-93 101-131 147-64 4 7 5 14 7 22l-32 3c-4-21-16-35-41-35" id="aq"/><path fill="#333" d="M30-248c87 1 191-15 191 75 0 78-77 80-158 76V0H30v-248zm33 125c57 0 124 11 124-50 0-59-68-47-124-48v98" id="ar"/><path fill="#333" d="M210-169c-67 3-38 105-44 169h-31v-121c0-29-5-50-35-48C34-165 62-65 56 0H25l-1-190h30c1 10-1 24 2 32 10-44 99-50 107 0 11-21 27-35 58-36 85-2 47 119 55 194h-31v-121c0-29-5-49-35-48" id="as"/><path fill="#333" d="M108 0H70L1-190h34L89-25l56-165h34" id="at"/><path fill="#333" d="M127-220V0H93v-220H8v-28h204v28h-85" id="au"/><g id="g"><use transform="matrix(0.05,0,0,0.05,0,0)" xlink:href="#al"/><use transform="matrix(0.05,0,0,0.05,14,0)" xlink:href="#am"/><use transform="matrix(0.05,0,0,0.05,19.95,0)" xlink:href="#an"/><use transform="matrix(0.05,0,0,0.05,29.950000000000003,0)" xlink:href="#ai"/><use transform="matrix(0.05,0,0,0.05,39.95,0)" xlink:href="#ao"/><use transform="matrix(0.05,0,0,0.05,49.95,0)" xlink:href="#ap"/><use transform="matrix(0.05,0,0,0.05,53.900000000000006,0)" xlink:href="#aq"/><use transform="matrix(0.05,0,0,0.05,62.900000000000006,0)" xlink:href="#ar"/><use transform="matrix(0.05,0,0,0.05,74.9,0)" xlink:href="#am"/><use transform="matrix(0.05,0,0,0.05,80.85000000000001,0)" xlink:href="#ap"/><use transform="matrix(0.05,0,0,0.05,84.80000000000001,0)" xlink:href="#as"/><use transform="matrix(0.05,0,0,0.05,99.75000000000001,0)" xlink:href="#ap"/><use transform="matrix(0.05,0,0,0.05,103.7,0)" xlink:href="#ag"/><use transform="matrix(0.05,0,0,0.05,108.7,0)" xlink:href="#ap"/><use transform="matrix(0.05,0,0,0.05,112.65000000000003,0)" xlink:href="#at"/><use transform="matrix(0.05,0,0,0.05,121.65000000000003,0)" xlink:href="#aj"/><use transform="matrix(0.05,0,0,0.05,131.65000000000003,0)" xlink:href="#au"/><use transform="matrix(0.05,0,0,0.05,141.60000000000002,0)" xlink:href="#ah"/><use transform="matrix(0.05,0,0,0.05,150.60000000000002,0)" xlink:href="#ai"/><use transform="matrix(0.05,0,0,0.05,160.60000000000002,0)" xlink:href="#aj"/></g><path d="M18-100v-36l175-74v27L42-118l151 64v27" id="av"/><path d="M30 0v-248h187v28H63v79h144v27H63v87h162V0H30" id="aw"/><path d="M84 4C-5 8 30-112 23-190h32v120c0 31 7 50 39 49 72-2 45-101 50-169h31l1 190h-30c-1-10 1-25-2-33-11 22-28 36-60 37" id="ax"/><path d="M18-27v-27l151-64-151-65v-27l175 74v36" id="ay"/><g id="h"><use transform="matrix(0.05,0,0,0.05,0,0)" xlink:href="#av"/><use transform="matrix(0.05,0,0,0.05,10.5,0)" xlink:href="#av"/><use transform="matrix(0.05,0,0,0.05,21,0)" xlink:href="#aw"/><use transform="matrix(0.05,0,0,0.05,33,0)" xlink:href="#q"/><use transform="matrix(0.05,0,0,0.05,43,0)" xlink:href="#ax"/><use transform="matrix(0.05,0,0,0.05,53,0)" xlink:href="#Z"/><use transform="matrix(0.05,0,0,0.05,67.95,0)" xlink:href="#p"/><use transform="matrix(0.05,0,0,0.05,77.95,0)" xlink:href="#s"/><use transform="matrix(0.05,0,0,0.05,83.9,0)" xlink:href="#w"/><use transform="matrix(0.05,0,0,0.05,93.9,0)" xlink:href="#v"/><use transform="matrix(0.05,0,0,0.05,98.9,0)" xlink:href="#V"/><use transform="matrix(0.05,0,0,0.05,102.85000000000001,0)" xlink:href="#W"/><use transform="matrix(0.05,0,0,0.05,112.85000000000001,0)" xlink:href="#q"/><use transform="matrix(0.05,0,0,0.05,122.85000000000001,0)" xlink:href="#ay"/><use transform="matrix(0.05,0,0,0.05,133.35000000000002,0)" xlink:href="#ay"/></g><path d="M143 4C61 4 22-44 18-125c-5-107 100-154 193-111 17 8 29 25 37 43l-32 9c-13-25-37-40-76-40-61 0-88 39-88 99 0 61 29 100 91 101 35 0 62-11 79-27v-45h-74v-28h105v86C228-13 192 4 143 4" id="az"/><path d="M115-194c55 1 70 41 70 98S169 2 115 4C84 4 66-9 55-30l1 105H24l-1-265h31l2 30c10-21 28-34 59-34zm-8 174c40 0 45-34 45-75s-6-73-45-74c-42 0-51 32-51 76 0 43 10 73 51 73" id="aA"/><path d="M106-169C34-169 62-67 57 0H25v-261h32l-1 103c12-21 28-36 61-36 89 0 53 116 60 194h-32v-121c2-32-8-49-39-48" id="aB"/><path d="M127-220V0H93v-220H8v-28h204v28h-85" id="aC"/><g id="i"><use transform="matrix(0.05,0,0,0.05,0,0)" xlink:href="#az"/><use transform="matrix(0.05,0,0,0.05,14,0)" xlink:href="#s"/><use transform="matrix(0.05,0,0,0.05,19.95,0)" xlink:href="#w"/><use transform="matrix(0.05,0,0,0.05,29.950000000000003,0)" xlink:href="#aA"/><use transform="matrix(0.05,0,0,0.05,39.95,0)" xlink:href="#aB"/><use transform="matrix(0.05,0,0,0.05,49.95,0)" xlink:href="#V"/><use transform="matrix(0.05,0,0,0.05,53.900000000000006,0)" xlink:href="#ae"/><use transform="matrix(0.05,0,0,0.05,62.900000000000006,0)" xlink:href="#Y"/><use transform="matrix(0.05,0,0,0.05,74.9,0)" xlink:href="#s"/><use transform="matrix(0.05,0,0,0.05,80.85000000000001,0)" xlink:href="#V"/><use transform="matrix(0.05,0,0,0.05,84.80000000000001,0)" xlink:href="#Z"/><use transform="matrix(0.05,0,0,0.05,99.75000000000001,0)" xlink:href="#V"/><use transform="matrix(0.05,0,0,0.05,103.7,0)" xlink:href="#v"/><use transform="matrix(0.05,0,0,0.05,108.7,0)" xlink:href="#V"/><use transform="matrix(0.05,0,0,0.05,112.65000000000003,0)" xlink:href="#aa"/><use transform="matrix(0.05,0,0,0.05,121.65000000000003,0)" xlink:href="#p"/><use transform="matrix(0.05,0,0,0.05,131.65000000000003,0)" xlink:href="#aC"/><use transform="matrix(0.05,0,0,0.05,141.60000000000002,0)" xlink:href="#u"/><use transform="matrix(0.05,0,0,0.05,150.60000000000002,0)" xlink:href="#aA"/><use transform="matrix(0.05,0,0,0.05,160.60000000000002,0)" xlink:href="#p"/></g><path fill="#333" d="M30 0v-248h33v221h125V0H30" id="aD"/><path fill="#333" d="M117-194c89-4 53 116 60 194h-32v-121c0-31-8-49-39-48C34-167 62-67 57 0H25l-1-190h30c1 10-1 24 2 32 11-22 29-35 61-36" id="aE"/><g id="j"><use transform="matrix(0.05,0,0,0.05,0,0)" xlink:href="#aD"/><use transform="matrix(0.05,0,0,0.05,10,0)" xlink:href="#ap"/><use transform="matrix(0.05,0,0,0.05,13.949999999999998,0)" xlink:href="#aE"/><use transform="matrix(0.05,0,0,0.05,23.95,0)" xlink:href="#aj"/></g><path fill="#333" d="M233-177c-1 41-23 64-60 70L243 0h-38l-65-103H63V0H30v-248c88 3 205-21 203 71zM63-129c60-2 137 13 137-47 0-61-80-42-137-45v92" id="aF"/><path fill="#333" d="M177-190C167-65 218 103 67 71c-23-6-38-20-44-43l32-5c15 47 100 32 89-28v-30C133-14 115 1 83 1 29 1 15-40 15-95c0-56 16-97 71-98 29-1 48 16 59 35 1-10 0-23 2-32h30zM94-22c36 0 50-32 50-73 0-42-14-75-50-75-39 0-46 34-46 75s6 73 46 73" id="aG"/><path fill="#333" d="M24 0v-261h32V0H24" id="aH"/><g id="k"><use transform="matrix(0.05,0,0,0.05,0,0)" xlink:href="#aF"/><use transform="matrix(0.05,0,0,0.05,12.950000000000001,0)" xlink:href="#aj"/><use transform="matrix(0.05,0,0,0.05,22.950000000000003,0)" xlink:href="#aq"/><use transform="matrix(0.05,0,0,0.05,31.950000000000003,0)" xlink:href="#ag"/><use transform="matrix(0.05,0,0,0.05,36.95,0)" xlink:href="#an"/><use transform="matrix(0.05,0,0,0.05,46.95,0)" xlink:href="#aE"/><use transform="matrix(0.05,0,0,0.05,56.95,0)" xlink:href="#aG"/><use transform="matrix(0.05,0,0,0.05,66.95,0)" xlink:href="#aH"/><use transform="matrix(0.05,0,0,0.05,70.9,0)" xlink:href="#aj"/></g><path fill="#333" d="M115-194c53 0 69 39 70 98 0 66-23 100-70 100C84 3 66-7 56-30L54 0H23l1-261h32v101c10-23 28-34 59-34zm-8 174c40 0 45-34 45-75 0-40-5-75-45-74-42 0-51 32-51 76 0 43 10 73 51 73" id="aI"/><g id="l"><use transform="matrix(0.05,0,0,0.05,0,0)" xlink:href="#aD"/><use transform="matrix(0.05,0,0,0.05,10,0)" xlink:href="#an"/><use transform="matrix(0.05,0,0,0.05,20,0)" xlink:href="#aI"/><use transform="matrix(0.05,0,0,0.05,30,0)" xlink:href="#aj"/><use transform="matrix(0.05,0,0,0.05,40,0)" xlink:href="#aH"/></g><path fill="#333" d="M212-179c-10-28-35-45-73-45-59 0-87 40-87 99 0 60 29 101 89 101 43 0 62-24 78-52l27 14C228-24 195 4 139 4 59 4 22-46 18-125c-6-104 99-153 187-111 19 9 31 26 39 46" id="aJ"/><g id="m"><use transform="matrix(0.05,0,0,0.05,0,0)" xlink:href="#aJ"/><use transform="matrix(0.05,0,0,0.05,12.950000000000001,0)" xlink:href="#ap"/><use transform="matrix(0.05,0,0,0.05,16.900000000000002,0)" xlink:href="#am"/><use transform="matrix(0.05,0,0,0.05,22.85,0)" xlink:href="#aq"/><use transform="matrix(0.05,0,0,0.05,31.85,0)" xlink:href="#aH"/><use transform="matrix(0.05,0,0,0.05,35.800000000000004,0)" xlink:href="#aj"/></g><path fill="#333" d="M33 0v-38h34V0H33" id="aK"/><g id="n"><use transform="matrix(0.05,0,0,0.05,0,0)" xlink:href="#aK"/><use transform="matrix(0.05,0,0,0.05,5,0)" xlink:href="#aK"/><use transform="matrix(0.05,0,0,0.05,10,0)" xlink:href="#aK"/></g></defs></g></svg>