<svg xmlns="http://www.w3.org/2000/svg" xmlns:xlink="http://www.w3.org/1999/xlink" xmlns:lucid="lucid" width="340" height="420"><g transform="translate(-320 -200)" lucid:page-tab-id="0_0"><path d="M520 260c0 22.1-17.9 40-40 40s-40-17.9-40-40 17.9-40 40-40 40 17.9 40 40z" stroke="#000" stroke-width="2" fill="#fff"/><path d="M520 240h40v40h-40z" stroke="#000" stroke-opacity="0" stroke-width="2" fill="#fff" fill-opacity="0"/><use xlink:href="#a" transform="matrix(1,0,0,1,525,245) translate(4 18.15)"/><path d="M430 400h100v20H430z" stroke="#000" stroke-width="2" fill="#fff"/><path d="M530 390h40v40h-40z" stroke="#000" stroke-opacity="0" stroke-width="2" fill="#fff" fill-opacity="0"/><use xlink:href="#b" transform="matrix(1,0,0,1,535,395) translate(4.524999999999999 18.15)"/><path d="M473.33 258.82c0 5.52-4.47 10-10 10-5.52 0-10-4.48-10-10s4.48-10 10-10c5.53 0 10 4.48 10 10z" stroke="#000" stroke-width="2"/><path d="M480 302v78.5" stroke="#000" stroke-width="2" fill="none"/><path d="M480 301l1-.03v1.06h-2v-1.1z"/><path d="M480 395.76l-4.64-14.26h9.28z" stroke="#000" stroke-width="2"/><path d="M600 560c0 22.1-17.9 40-40 40s-40-17.9-40-40 17.9-40 40-40 40 17.9 40 40z" stroke="#000" stroke-width="2" fill="#fff"/><path d="M600 533.4h40v53.2h-40z" stroke="#000" stroke-opacity="0" stroke-width="2" fill="#fff" fill-opacity="0"/><use xlink:href="#c" transform="matrix(1,0,0,1,605,538.4) translate(4 25.4)"/><path d="M420 560c0 22.1-17.9 40-40 40s-40-17.9-40-40 17.9-40 40-40 40 17.9 40 40z" stroke="#000" stroke-width="2" fill="#fff"/><path d="M420 540h40v40h-40z" stroke="#000" stroke-opacity="0" stroke-width="2" fill="#fff" fill-opacity="0"/><use xlink:href="#d" transform="matrix(1,0,0,1,425,545) translate(4 18.15)"/><path d="M454.46 421.88l-46.37 85.68" stroke="#000" stroke-width="2" fill="none"/><path d="M455.32 422.38l-1.75-.95.23-.43h2.27z"/><path d="M400.83 521l2.7-14.76 8.17 4.4z" stroke="#000" stroke-width="2"/><path d="M502.04 421.9l40.46 81.64" stroke="#000" stroke-width="2" fill="none"/><path d="M502.95 421.47l-1.8.9-.67-1.37h2.24z"/><path d="M549.28 517.22l-10.5-10.73 8.32-4.12zM505.04 258.82c0 5.52-4.48 10-10 10s-10-4.48-10-10 4.48-10 10-10 10 4.48 10 10zM390 560c0 5.52-4.48 10-10 10s-10-4.48-10-10 4.48-10 10-10 10 4.48 10 10z" stroke="#000" stroke-width="2"/><defs><path d="M30-248c87 1 191-15 191 75 0 78-77 80-158 76V0H30v-248zm33 125c57 0 124 11 124-50 0-59-68-47-124-48v98" id="e"/><path d="M27 0v-27h64v-190l-56 39v-29l58-41h29v221h61V0H27" id="f"/><g id="a"><use transform="matrix(0.05,0,0,0.05,0,0)" xlink:href="#e"/><use transform="matrix(0.05,0,0,0.05,12,0)" xlink:href="#f"/></g><path d="M127-220V0H93v-220H8v-28h204v28h-85" id="g"/><g id="b"><use transform="matrix(0.05,0,0,0.05,0,0)" xlink:href="#g"/><use transform="matrix(0.05,0,0,0.05,10.950000000000001,0)" xlink:href="#f"/></g><path d="M126-127c33 6 58 20 58 59 0 88-139 92-164 29-3-8-5-16-6-25l32-3c6 27 21 44 54 44 32 0 52-15 52-46 0-38-36-46-79-43v-28c39 1 72-4 72-42 0-27-17-43-46-43-28 0-47 15-49 41l-32-3c6-42 35-63 81-64 48-1 79 21 79 65 0 36-21 52-52 59" id="h"/><g id="c"><use transform="matrix(0.05,0,0,0.05,0,0)" xlink:href="#e"/><use transform="matrix(0.05,0,0,0.05,12,0)" xlink:href="#h"/></g><path d="M101-251c82-7 93 87 43 132L82-64C71-53 59-42 53-27h129V0H18c2-99 128-94 128-182 0-28-16-43-45-43s-46 15-49 41l-32-3c6-41 34-60 81-64" id="i"/><g id="d"><use transform="matrix(0.05,0,0,0.05,0,0)" xlink:href="#e"/><use transform="matrix(0.05,0,0,0.05,12,0)" xlink:href="#i"/></g></defs></g></svg>