<svg xmlns="http://www.w3.org/2000/svg" xmlns:xlink="http://www.w3.org/1999/xlink" xmlns:lucid="lucid" width="1520" height="760"><g transform="translate(-220 -80)" lucid:page-tab-id="_-oq3GPincz7"><path d="M709.58 390.67H992v98.66H709.58z" stroke="#19967d" stroke-width="5" fill-opacity="0"/><path d="M249.33 580h940.43v231.33H249.33z" fill-opacity="0"/><path d="M297.56 580h48.23m24.1 0h48.23m24.1 0h48.24m24.1 0h48.24m24.12 0h48.23m24.1 0h48.24m24.1 0h48.23m24.1 0h48.24m24.12 0h48.2m24.13 0h48.22m24.12 0h48.22m24.1 0h48.23m24.12 0h24.1v25.7m0 25.7v51.4m0 25.7v51.42m0 25.7v25.7h-24.1m-24.12 0h-48.22m-24.1 0h-48.23m-24.12 0h-48.22m-24.12 0h-48.2m-24.13 0h-48.23m-24.1 0H731.6m-24.1 0h-48.24m-24.1 0H586.9m-24.1 0h-48.24m-24.1 0h-48.24m-24.1 0H369.9m-24.1 0h-48.24m-24.1 0h-24.13v-25.7m0-25.7v-51.4m0-25.7v-51.4m0-25.72V580h24.12" stroke="#19967d" stroke-width="5" fill="none"/><path d="M780 200c0 22.1-17.9 40-40 40s-40-17.9-40-40 17.9-40 40-40 40 17.9 40 40z" stroke="#000" stroke-width="2" fill="#fff"/><path d="M780 180h40v40h-40z" stroke="#000" stroke-opacity="0" stroke-width="2" fill="#fff" fill-opacity="0"/><path d="M799.5 200H899" stroke="#5abaa7" stroke-width="2" fill="none"/><path d="M784.24 200l14.26-4.64v9.28z" stroke="#5abaa7" stroke-width="2" fill="#5abaa7"/><path d="M898.97 200H900" stroke="#5abaa7" stroke-width="2" fill="none"/><path d="M260 398.04h260v75H260z" stroke="#333" stroke-width="2" fill="#ffbbb1"/><path d="M260 435.64h260" stroke="#333" stroke-width="2" fill="none"/><use xlink:href="#a" transform="matrix(1,0,0,1,268,406.04166666666674) translate(27.700000000000003 14.6)"/><use xlink:href="#b" transform="matrix(1,0,0,1,272,443.64166666666677) translate(0 14.4)"/><path d="M868.67 299.33v47.07h18.66L850 380l-37.33-33.6h18.66v-47.07z" stroke="#000" stroke-opacity="0" stroke-width="2" fill="#5e5e5e"/><path d="M240 380h1220v440H240z" stroke="#000" stroke-width="2" fill-opacity="0"/><path d="M1460 100h140v60h-140z" fill="none"/><use xlink:href="#c" transform="matrix(1,0,0,1,1460,100) translate(8.574999999999996 33.6)"/><use xlink:href="#d" transform="matrix(1,0,0,1,1460,100) translate(90.42500000000001 33.6)"/><path d="M240 100h1220v200H240z" stroke="#000" stroke-width="2" fill-opacity="0"/><path d="M1460 380h180v40h-180z" fill="none"/><use xlink:href="#e" transform="matrix(1,0,0,1,1460,380) translate(10.974999999999994 23.6)"/><path d="M1540 740h180v23.38h-180z" fill="none"/><use xlink:href="#f" transform="matrix(1,0,0,1,1539.9999999999998,740) translate(0 15.6)"/><use xlink:href="#g" transform="matrix(1,0,0,1,1539.9999999999998,740) translate(68.9 15.6)"/><use xlink:href="#h" transform="matrix(1,0,0,1,1539.9999999999998,740) translate(92.9 15.6)"/><path d="M1480 740h40v23.38h-40z" stroke="#19967d" stroke-width="5" fill-opacity="0"/><path d="M1480 785h40v23.4h-40z" fill-opacity="0"/><path d="M1482.5 785c0 1.4-1.12 2.5-2.5 2.5s-2.5-1.1-2.5-2.5c0-1.37 1.12-2.5 2.5-2.5s2.5 1.13 2.5 2.5zm10 0c0 1.4-1.12 2.5-2.5 2.5s-2.5-1.1-2.5-2.5c0-1.37 1.12-2.5 2.5-2.5s2.5 1.13 2.5 2.5zm10 0c0 1.4-1.12 2.5-2.5 2.5s-2.5-1.1-2.5-2.5c0-1.37 1.12-2.5 2.5-2.5s2.5 1.13 2.5 2.5zm10 0c0 1.4-1.12 2.5-2.5 2.5s-2.5-1.1-2.5-2.5c0-1.37 1.12-2.5 2.5-2.5s2.5 1.13 2.5 2.5zm10 0c0 1.4-1.12 2.5-2.5 2.5s-2.5-1.1-2.5-2.5c0-1.37 1.12-2.5 2.5-2.5s2.5 1.13 2.5 2.5zm0 11.7c0 1.4-1.12 2.5-2.5 2.5s-2.5-1.1-2.5-2.5c0-1.38 1.12-2.5 2.5-2.5s2.5 1.12 2.5 2.5zm0 11.7c0 1.38-1.12 2.5-2.5 2.5s-2.5-1.12-2.5-2.5 1.12-2.5 2.5-2.5 2.5 1.12 2.5 2.5zm-10 0c0 1.38-1.12 2.5-2.5 2.5s-2.5-1.12-2.5-2.5 1.12-2.5 2.5-2.5 2.5 1.12 2.5 2.5zm-10 0c0 1.38-1.12 2.5-2.5 2.5s-2.5-1.12-2.5-2.5 1.12-2.5 2.5-2.5 2.5 1.12 2.5 2.5zm-10 0c0 1.38-1.12 2.5-2.5 2.5s-2.5-1.12-2.5-2.5 1.12-2.5 2.5-2.5 2.5 1.12 2.5 2.5zm-10 0c0 1.38-1.12 2.5-2.5 2.5s-2.5-1.12-2.5-2.5 1.12-2.5 2.5-2.5 2.5 1.12 2.5 2.5zm0-11.7c0 1.4-1.12 2.5-2.5 2.5s-2.5-1.1-2.5-2.5c0-1.38 1.12-2.5 2.5-2.5s2.5 1.12 2.5 2.5z" fill="#19967d"/><path d="M1540 785h180v23.4h-180z" fill="none"/><use xlink:href="#f" transform="matrix(1,0,0,1,1539.9999999999998,785.0132860938884) translate(0 15.6)"/><use xlink:href="#i" transform="matrix(1,0,0,1,1539.9999999999998,785.0132860938884) translate(68.9 15.6)"/><path d="M1540 700h180v23.38h-180z" fill="none"/><use xlink:href="#j" transform="matrix(1,0,0,1,1540,700) translate(0 15.6)"/><use xlink:href="#g" transform="matrix(1,0,0,1,1540,700) translate(73 15.6)"/><use xlink:href="#h" transform="matrix(1,0,0,1,1540,700) translate(97 15.6)"/><path d="M1480 700h40v23.38h-40z" stroke="#fcc438" stroke-width="5" fill-opacity="0"/><path d="M900 190h100v20H900z" stroke="#000" stroke-width="2" fill="#fff"/><path d="M780 705.97h260v75H780z" stroke="#333" stroke-width="2" fill="#ffbbb1"/><path d="M780 743.57h260" stroke="#333" stroke-width="2" fill="none"/><use xlink:href="#a" transform="matrix(1,0,0,1,788,713.9715234720994) translate(27.700000000000003 14.6)"/><use xlink:href="#k" transform="matrix(1,0,0,1,792,751.5715234720994) translate(0 14.4)"/><path d="M1180 398.92h260v75h-260z" stroke="#333" stroke-width="2" fill="#ffbbb1"/><path d="M1180 436.52h260" stroke="#333" stroke-width="2" fill="none"/><use xlink:href="#a" transform="matrix(1,0,0,1,1188,406.9166666666665) translate(27.700000000000003 14.6)"/><use xlink:href="#l" transform="matrix(1,0,0,1,1192,444.51666666666654) translate(0 14.4)"/><path d="M768.75 588.93l128.75 38.04L768.75 665 640 626.98z" stroke="#000" stroke-width="2" fill="#ffdba9"/><use xlink:href="#m" transform="matrix(1,0,0,1,645,593.9299527605549) translate(59.555 37.43125)"/><path d="M1048.75 588.93l128.75 38.04L1048.75 665 920 626.98z" stroke="#000" stroke-width="2" fill="#ffdba9"/><use xlink:href="#m" transform="matrix(1,0,0,1,925,593.9299527605549) translate(59.555 37.43125)"/><path d="M674.66 614.8L534.64 486.54" stroke="#000" stroke-width="2" fill="none"/><path d="M676.5 615.14l-2.23.66-.3-.28 1.34-1.48z"/><path d="M523.4 476.23l13.64 6.22-6.27 6.83z" stroke="#000" stroke-width="2"/><path d="M769.54 666.66l35.24 27.05" stroke="#000" stroke-width="2" fill="none"/><path d="M768.75 666.06l1.2-.35.22.2-1.22 1.57-2.87-2.2z"/><path d="M816.9 703l-14.15-5 5.64-7.36z" stroke="#000" stroke-width="2"/><path d="M1048 666.7l-31.27 26.35" stroke="#000" stroke-width="2" fill="none"/><path d="M1048.6 667.48l-1.28-1.53.28-.23 1.15.34 2.4-.7z"/><path d="M1005.05 702.9l7.92-12.75 5.98 7.1z" stroke="#000" stroke-width="2"/><path d="M1133.4 611.86l39.83-121.22" stroke="#000" stroke-width="2" fill="none"/><path d="M1134.37 612.15l-.3.94-1.93-.57.33-1z"/><path d="M1178 476.14l-.06 15-8.8-2.9z" stroke="#000" stroke-width="2"/><path d="M850 398.92l128.75 38.04L850 475l-128.75-38.04z" stroke="#000" stroke-width="2" fill="#c7e8ac"/><use xlink:href="#n" transform="matrix(1,0,0,1,726.25,403.9166666666665) translate(66.07999999999998 37.43125)"/><path d="M539.5 435.54h182.02" stroke="#000" stroke-width="2" fill="none"/><path d="M524.24 435.54l14.26-4.63v9.28z" stroke="#000" stroke-width="2"/><path d="M725.52 434.66l-4.03 1.18v-1.3h4.02z"/><path d="M997.25 436.96H1178" stroke="#000" stroke-width="2" fill="none"/><path d="M982 436.96l14.25-4.64v9.27z" stroke="#000" stroke-width="2"/><path d="M1179 437.96h-1.03v-2h1.03z"/><path d="M260 692.65h260v110H260z" stroke="#333" stroke-width="2" fill="#ffbbb1"/><path d="M260 730.25h260" stroke="#333" stroke-width="2" fill="none"/><use xlink:href="#o" transform="matrix(1,0,0,1,268,700.6500000000002) translate(64.57499999999999 14.6)"/><use xlink:href="#p" transform="matrix(1,0,0,1,272,738.2500000000002) translate(0 12.622222222222224)"/><use xlink:href="#q" transform="matrix(1,0,0,1,272,738.2500000000002) translate(0 31.55555555555556)"/><use xlink:href="#r" transform="matrix(1,0,0,1,272,738.2500000000002) translate(0 50.488888888888894)"/><path d="M650 709.6l90 38.05-90 38.04-90-38.05z" stroke="#000" stroke-width="2" fill="#ffbbb1"/><g><use xlink:href="#s" transform="matrix(1,0,0,1,565,714.6083333333335) translate(31.105 37.43125)"/></g><path d="M522 747.65h19.5" stroke="#000" stroke-width="2" fill="none"/><path d="M522.03 748.65H521v-2h1.03z"/><path d="M556.76 747.65l-14.26 4.64V743z" stroke="#000" stroke-width="2"/><path d="M743.57 747.65h16.93" stroke="#000" stroke-width="2" fill="none"/><path d="M743.6 748.65h-3.4l2.37-1-2.37-1h3.4z"/><path d="M775.76 747.65l-14.26 4.64V743z" stroke="#000" stroke-width="2"/><defs><path d="M33-154v-36h34v36H33zM33 0v-36h34V0H33" id="t"/><path d="M30-248c87 1 191-15 191 75 0 78-77 80-158 76V0H30v-248zm33 125c57 0 124 11 124-50 0-59-68-47-124-48v98" id="u"/><path d="M114-163C36-179 61-72 57 0H25l-1-190h30c1 12-1 29 2 39 6-27 23-49 58-41v29" id="v"/><path d="M24-231v-30h32v30H24zM24 0v-190h32V0H24" id="w"/><path d="M210-169c-67 3-38 105-44 169h-31v-121c0-29-5-50-35-48C34-165 62-65 56 0H25l-1-190h30c1 10-1 24 2 32 10-44 99-50 107 0 11-21 27-35 58-36 85-2 47 119 55 194h-31v-121c0-29-5-49-35-48" id="x"/><path d="M59-47c-2 24 18 29 38 22v24C64 9 27 4 27-40v-127H5v-23h24l9-43h21v43h35v23H59v120" id="y"/><path d="M108 0H70L1-190h34L89-25l56-165h34" id="z"/><path d="M100-194c63 0 86 42 84 106H49c0 40 14 67 53 68 26 1 43-12 49-29l28 8c-11 28-37 45-77 45C44 4 14-33 15-96c1-61 26-98 85-98zm52 81c6-60-76-77-97-28-3 7-6 17-6 28h103" id="A"/><path d="M143 4C61 4 22-44 18-125c-5-107 100-154 193-111 17 8 29 25 37 43l-32 9c-13-25-37-40-76-40-61 0-88 39-88 99 0 61 29 100 91 101 35 0 62-11 79-27v-45h-74v-28h105v86C228-13 192 4 143 4" id="B"/><path d="M141-36C126-15 110 5 73 4 37 3 15-17 15-53c-1-64 63-63 125-63 3-35-9-54-41-54-24 1-41 7-42 31l-33-3c5-37 33-52 76-52 45 0 72 20 72 64v82c-1 20 7 32 28 27v20c-31 9-61-2-59-35zM48-53c0 20 12 33 32 33 41-3 63-29 60-74-43 2-92-5-92 41" id="C"/><path d="M115-194c55 1 70 41 70 98S169 2 115 4C84 4 66-9 55-30l1 105H24l-1-265h31l2 30c10-21 28-34 59-34zm-8 174c40 0 45-34 45-75s-6-73-45-74c-42 0-51 32-51 76 0 43 10 73 51 73" id="D"/><path d="M106-169C34-169 62-67 57 0H25v-261h32l-1 103c12-21 28-36 61-36 89 0 53 116 60 194h-32v-121c2-32-8-49-39-48" id="E"/><path d="M96-169c-40 0-48 33-48 73s9 75 48 75c24 0 41-14 43-38l32 2c-6 37-31 61-74 61-59 0-76-41-82-99-10-93 101-131 147-64 4 7 5 14 7 22l-32 3c-4-21-16-35-41-35" id="F"/><path d="M140-251c81 0 123 46 123 126C263-46 219 4 140 4 59 4 17-45 17-125s42-126 123-126zm0 227c63 0 89-41 89-101s-29-99-89-99c-61 0-89 39-89 99S79-25 140-24" id="G"/><path d="M115-194c53 0 69 39 70 98 0 66-23 100-70 100C84 3 66-7 56-30L54 0H23l1-261h32v101c10-23 28-34 59-34zm-8 174c40 0 45-34 45-75 0-40-5-75-45-74-42 0-51 32-51 76 0 43 10 73 51 73" id="H"/><path d="M24-231v-30h32v30H24zM-9 49c24 4 33-6 33-30v-209h32V24c2 40-23 58-65 49V49" id="I"/><g id="a"><use transform="matrix(0.05,0,0,0.05,0,0)" xlink:href="#t"/><use transform="matrix(0.05,0,0,0.05,5,0)" xlink:href="#u"/><use transform="matrix(0.05,0,0,0.05,17,0)" xlink:href="#v"/><use transform="matrix(0.05,0,0,0.05,22.95,0)" xlink:href="#w"/><use transform="matrix(0.05,0,0,0.05,26.899999999999995,0)" xlink:href="#x"/><use transform="matrix(0.05,0,0,0.05,41.85,0)" xlink:href="#w"/><use transform="matrix(0.05,0,0,0.05,45.800000000000004,0)" xlink:href="#y"/><use transform="matrix(0.05,0,0,0.05,50.800000000000004,0)" xlink:href="#w"/><use transform="matrix(0.05,0,0,0.05,54.75,0)" xlink:href="#z"/><use transform="matrix(0.05,0,0,0.05,63.75,0)" xlink:href="#A"/><use transform="matrix(0.05,0,0,0.05,73.75,0)" xlink:href="#B"/><use transform="matrix(0.05,0,0,0.05,87.75,0)" xlink:href="#v"/><use transform="matrix(0.05,0,0,0.05,93.7,0)" xlink:href="#C"/><use transform="matrix(0.05,0,0,0.05,103.7,0)" xlink:href="#D"/><use transform="matrix(0.05,0,0,0.05,113.7,0)" xlink:href="#E"/><use transform="matrix(0.05,0,0,0.05,123.7,0)" xlink:href="#w"/><use transform="matrix(0.05,0,0,0.05,127.65,0)" xlink:href="#F"/><use transform="matrix(0.05,0,0,0.05,136.65,0)" xlink:href="#G"/><use transform="matrix(0.05,0,0,0.05,150.65,0)" xlink:href="#H"/><use transform="matrix(0.05,0,0,0.05,160.65,0)" xlink:href="#I"/><use transform="matrix(0.05,0,0,0.05,164.6,0)" xlink:href="#A"/><use transform="matrix(0.05,0,0,0.05,174.6,0)" xlink:href="#F"/><use transform="matrix(0.05,0,0,0.05,183.6,0)" xlink:href="#y"/></g><path fill="#333" d="M135-143c-3-34-86-38-87 0 15 53 115 12 119 90S17 21 10-45l28-5c4 36 97 45 98 0-10-56-113-15-118-90-4-57 82-63 122-42 12 7 21 19 24 35" id="J"/><path fill="#333" d="M106-169C34-169 62-67 57 0H25v-261h32l-1 103c12-21 28-36 61-36 89 0 53 116 60 194h-32v-121c2-32-8-49-39-48" id="K"/><path fill="#333" d="M141-36C126-15 110 5 73 4 37 3 15-17 15-53c-1-64 63-63 125-63 3-35-9-54-41-54-24 1-41 7-42 31l-33-3c5-37 33-52 76-52 45 0 72 20 72 64v82c-1 20 7 32 28 27v20c-31 9-61-2-59-35zM48-53c0 20 12 33 32 33 41-3 63-29 60-74-43 2-92-5-92 41" id="L"/><path fill="#333" d="M115-194c55 1 70 41 70 98S169 2 115 4C84 4 66-9 55-30l1 105H24l-1-265h31l2 30c10-21 28-34 59-34zm-8 174c40 0 45-34 45-75s-6-73-45-74c-42 0-51 32-51 76 0 43 10 73 51 73" id="M"/><path fill="#333" d="M100-194c63 0 86 42 84 106H49c0 40 14 67 53 68 26 1 43-12 49-29l28 8c-11 28-37 45-77 45C44 4 14-33 15-96c1-61 26-98 85-98zm52 81c6-60-76-77-97-28-3 7-6 17-6 28h103" id="N"/><path fill="#333" d="M18-150v-26h174v26H18zm0 90v-26h174v26H18" id="O"/><path fill="#333" d="M212-179c-10-28-35-45-73-45-59 0-87 40-87 99 0 60 29 101 89 101 43 0 62-24 78-52l27 14C228-24 195 4 139 4 59 4 22-46 18-125c-6-104 99-153 187-111 19 9 31 26 39 46" id="P"/><path fill="#333" d="M24-231v-30h32v30H24zM24 0v-190h32V0H24" id="Q"/><path fill="#333" d="M114-163C36-179 61-72 57 0H25l-1-190h30c1 12-1 29 2 39 6-27 23-49 58-41v29" id="R"/><path fill="#333" d="M96-169c-40 0-48 33-48 73s9 75 48 75c24 0 41-14 43-38l32 2c-6 37-31 61-74 61-59 0-76-41-82-99-10-93 101-131 147-64 4 7 5 14 7 22l-32 3c-4-21-16-35-41-35" id="S"/><path fill="#333" d="M24 0v-261h32V0H24" id="T"/><path fill="#333" d="M87 75C49 33 22-17 22-94c0-76 28-126 65-167h31c-38 41-64 92-64 168S80 34 118 75H87" id="U"/><path fill="#333" d="M33 0v-38h34V0H33" id="V"/><path fill="#333" d="M33-261c38 41 65 92 65 168S71 34 33 75H2C39 34 66-17 66-93S39-220 2-261h31" id="W"/><g id="b"><use transform="matrix(0.05,0,0,0.05,0,0)" xlink:href="#J"/><use transform="matrix(0.05,0,0,0.05,9,0)" xlink:href="#K"/><use transform="matrix(0.05,0,0,0.05,19,0)" xlink:href="#L"/><use transform="matrix(0.05,0,0,0.05,29,0)" xlink:href="#M"/><use transform="matrix(0.05,0,0,0.05,39,0)" xlink:href="#N"/><use transform="matrix(0.05,0,0,0.05,49,0)" xlink:href="#O"/><use transform="matrix(0.05,0,0,0.05,59.5,0)" xlink:href="#P"/><use transform="matrix(0.05,0,0,0.05,72.45,0)" xlink:href="#Q"/><use transform="matrix(0.05,0,0,0.05,76.4,0)" xlink:href="#R"/><use transform="matrix(0.05,0,0,0.05,82.35000000000001,0)" xlink:href="#S"/><use transform="matrix(0.05,0,0,0.05,91.35000000000001,0)" xlink:href="#T"/><use transform="matrix(0.05,0,0,0.05,95.30000000000001,0)" xlink:href="#N"/><use transform="matrix(0.05,0,0,0.05,105.30000000000001,0)" xlink:href="#U"/><use transform="matrix(0.05,0,0,0.05,111.25,0)" xlink:href="#V"/><use transform="matrix(0.05,0,0,0.05,116.25,0)" xlink:href="#V"/><use transform="matrix(0.05,0,0,0.05,121.25,0)" xlink:href="#V"/><use transform="matrix(0.05,0,0,0.05,126.25,0)" xlink:href="#W"/></g><path d="M24 0v-261h32V0H24" id="X"/><g id="c"><use transform="matrix(0.05,0,0,0.05,0,0)" xlink:href="#B"/><use transform="matrix(0.05,0,0,0.05,14,0)" xlink:href="#v"/><use transform="matrix(0.05,0,0,0.05,19.95,0)" xlink:href="#C"/><use transform="matrix(0.05,0,0,0.05,29.950000000000003,0)" xlink:href="#D"/><use transform="matrix(0.05,0,0,0.05,39.95,0)" xlink:href="#E"/><use transform="matrix(0.05,0,0,0.05,49.95,0)" xlink:href="#w"/><use transform="matrix(0.05,0,0,0.05,53.900000000000006,0)" xlink:href="#F"/><use transform="matrix(0.05,0,0,0.05,62.900000000000006,0)" xlink:href="#C"/><use transform="matrix(0.05,0,0,0.05,72.9,0)" xlink:href="#X"/></g><path d="M185-189c-5-48-123-54-124 2 14 75 158 14 163 119 3 78-121 87-175 55-17-10-28-26-33-46l33-7c5 56 141 63 141-1 0-78-155-14-162-118-5-82 145-84 179-34 5 7 8 16 11 25" id="Y"/><g id="d"><use transform="matrix(0.05,0,0,0.05,0,0)" xlink:href="#Y"/><use transform="matrix(0.05,0,0,0.05,12,0)" xlink:href="#y"/><use transform="matrix(0.05,0,0,0.05,17,0)" xlink:href="#C"/><use transform="matrix(0.05,0,0,0.05,27,0)" xlink:href="#y"/><use transform="matrix(0.05,0,0,0.05,32,0)" xlink:href="#A"/></g><path d="M127-220V0H93v-220H8v-28h204v28h-85" id="Z"/><path d="M117-194c89-4 53 116 60 194h-32v-121c0-31-8-49-39-48C34-167 62-67 57 0H25l-1-190h30c1 10-1 24 2 32 11-22 29-35 61-36" id="aa"/><path d="M135-143c-3-34-86-38-87 0 15 53 115 12 119 90S17 21 10-45l28-5c4 36 97 45 98 0-10-56-113-15-118-90-4-57 82-63 122-42 12 7 21 19 24 35" id="ab"/><path d="M100-194c62-1 85 37 85 99 1 63-27 99-86 99S16-35 15-95c0-66 28-99 85-99zM99-20c44 1 53-31 53-75 0-43-8-75-51-75s-53 32-53 75 10 74 51 75" id="ac"/><g id="e"><use transform="matrix(0.05,0,0,0.05,0,0)" xlink:href="#Z"/><use transform="matrix(0.05,0,0,0.05,10.3,0)" xlink:href="#v"/><use transform="matrix(0.05,0,0,0.05,16.25,0)" xlink:href="#C"/><use transform="matrix(0.05,0,0,0.05,26.25,0)" xlink:href="#aa"/><use transform="matrix(0.05,0,0,0.05,36.25,0)" xlink:href="#ab"/><use transform="matrix(0.05,0,0,0.05,45.25,0)" xlink:href="#w"/><use transform="matrix(0.05,0,0,0.05,49.2,0)" xlink:href="#y"/><use transform="matrix(0.05,0,0,0.05,54.2,0)" xlink:href="#w"/><use transform="matrix(0.05,0,0,0.05,58.150000000000006,0)" xlink:href="#ac"/><use transform="matrix(0.05,0,0,0.05,68.15,0)" xlink:href="#aa"/><use transform="matrix(0.05,0,0,0.05,78.15,0)" xlink:href="#u"/><use transform="matrix(0.05,0,0,0.05,90.15,0)" xlink:href="#v"/><use transform="matrix(0.05,0,0,0.05,96.10000000000001,0)" xlink:href="#ac"/><use transform="matrix(0.05,0,0,0.05,106.10000000000001,0)" xlink:href="#F"/><use transform="matrix(0.05,0,0,0.05,115.10000000000001,0)" xlink:href="#A"/><use transform="matrix(0.05,0,0,0.05,125.10000000000001,0)" xlink:href="#ab"/><use transform="matrix(0.05,0,0,0.05,134.10000000000002,0)" xlink:href="#ab"/><use transform="matrix(0.05,0,0,0.05,143.10000000000002,0)" xlink:href="#ac"/><use transform="matrix(0.05,0,0,0.05,153.10000000000002,0)" xlink:href="#v"/></g><path d="M85-194c31 0 48 13 60 33l-1-100h32l1 261h-30c-2-10 0-23-3-31C134-8 116 4 85 4 32 4 16-35 15-94c0-66 23-100 70-100zm9 24c-40 0-46 34-46 75 0 40 6 74 45 74 42 0 51-32 51-76 0-42-9-74-50-73" id="ad"/><g id="f"><use transform="matrix(0.05,0,0,0.05,0,0)" xlink:href="#w"/><use transform="matrix(0.05,0,0,0.05,3.95,0)" xlink:href="#aa"/><use transform="matrix(0.05,0,0,0.05,13.949999999999998,0)" xlink:href="#ab"/><use transform="matrix(0.05,0,0,0.05,22.95,0)" xlink:href="#A"/><use transform="matrix(0.05,0,0,0.05,32.95,0)" xlink:href="#v"/><use transform="matrix(0.05,0,0,0.05,38.900000000000006,0)" xlink:href="#y"/><use transform="matrix(0.05,0,0,0.05,43.900000000000006,0)" xlink:href="#A"/><use transform="matrix(0.05,0,0,0.05,53.900000000000006,0)" xlink:href="#ad"/></g><path d="M179-190L93 31C79 59 56 82 12 73V49c39 6 53-20 64-50L1-190h34L92-34l54-156h33" id="ae"/><g id="g"><use transform="matrix(0.05,0,0,0.05,0,0)" xlink:href="#H"/><use transform="matrix(0.05,0,0,0.05,10,0)" xlink:href="#ae"/></g><g id="h"><use transform="matrix(0.05,0,0,0.05,0,0)" xlink:href="#u"/><use transform="matrix(0.05,0,0,0.05,12,0)" xlink:href="#v"/><use transform="matrix(0.05,0,0,0.05,17.95,0)" xlink:href="#ac"/><use transform="matrix(0.05,0,0,0.05,27.950000000000003,0)" xlink:href="#F"/><use transform="matrix(0.05,0,0,0.05,36.95,0)" xlink:href="#A"/><use transform="matrix(0.05,0,0,0.05,46.95,0)" xlink:href="#ab"/><use transform="matrix(0.05,0,0,0.05,55.95,0)" xlink:href="#ab"/><use transform="matrix(0.05,0,0,0.05,64.95,0)" xlink:href="#ac"/><use transform="matrix(0.05,0,0,0.05,74.95,0)" xlink:href="#v"/></g><path d="M141 0L90-78 38 0H4l68-98-65-92h35l48 74 47-74h35l-64 92 68 98h-35" id="af"/><g id="i"><use transform="matrix(0.05,0,0,0.05,0,0)" xlink:href="#A"/><use transform="matrix(0.05,0,0,0.05,10,0)" xlink:href="#af"/><use transform="matrix(0.05,0,0,0.05,19,0)" xlink:href="#y"/><use transform="matrix(0.05,0,0,0.05,24,0)" xlink:href="#A"/><use transform="matrix(0.05,0,0,0.05,34,0)" xlink:href="#v"/><use transform="matrix(0.05,0,0,0.05,39.95,0)" xlink:href="#aa"/><use transform="matrix(0.05,0,0,0.05,49.95,0)" xlink:href="#C"/><use transform="matrix(0.05,0,0,0.05,59.95,0)" xlink:href="#X"/><use transform="matrix(0.05,0,0,0.05,63.900000000000006,0)" xlink:href="#X"/><use transform="matrix(0.05,0,0,0.05,67.85000000000001,0)" xlink:href="#ae"/></g><path d="M177-190C167-65 218 103 67 71c-23-6-38-20-44-43l32-5c15 47 100 32 89-28v-30C133-14 115 1 83 1 29 1 15-40 15-95c0-56 16-97 71-98 29-1 48 16 59 35 1-10 0-23 2-32h30zM94-22c36 0 50-32 50-73 0-42-14-75-50-75-39 0-46 34-46 75s6 73 46 73" id="ag"/><g id="j"><use transform="matrix(0.05,0,0,0.05,0,0)" xlink:href="#F"/><use transform="matrix(0.05,0,0,0.05,9,0)" xlink:href="#E"/><use transform="matrix(0.05,0,0,0.05,19,0)" xlink:href="#C"/><use transform="matrix(0.05,0,0,0.05,29,0)" xlink:href="#aa"/><use transform="matrix(0.05,0,0,0.05,39,0)" xlink:href="#ag"/><use transform="matrix(0.05,0,0,0.05,49,0)" xlink:href="#A"/><use transform="matrix(0.05,0,0,0.05,59,0)" xlink:href="#ab"/></g><path fill="#333" d="M30 0v-248h33v221h125V0H30" id="ah"/><path fill="#333" d="M117-194c89-4 53 116 60 194h-32v-121c0-31-8-49-39-48C34-167 62-67 57 0H25l-1-190h30c1 10-1 24 2 32 11-22 29-35 61-36" id="ai"/><g id="k"><use transform="matrix(0.05,0,0,0.05,0,0)" xlink:href="#J"/><use transform="matrix(0.05,0,0,0.05,9,0)" xlink:href="#K"/><use transform="matrix(0.05,0,0,0.05,19,0)" xlink:href="#L"/><use transform="matrix(0.05,0,0,0.05,29,0)" xlink:href="#M"/><use transform="matrix(0.05,0,0,0.05,39,0)" xlink:href="#N"/><use transform="matrix(0.05,0,0,0.05,49,0)" xlink:href="#O"/><use transform="matrix(0.05,0,0,0.05,59.5,0)" xlink:href="#ah"/><use transform="matrix(0.05,0,0,0.05,69.5,0)" xlink:href="#Q"/><use transform="matrix(0.05,0,0,0.05,73.45,0)" xlink:href="#ai"/><use transform="matrix(0.05,0,0,0.05,83.45,0)" xlink:href="#N"/><use transform="matrix(0.05,0,0,0.05,93.45,0)" xlink:href="#U"/><use transform="matrix(0.05,0,0,0.05,99.4,0)" xlink:href="#V"/><use transform="matrix(0.05,0,0,0.05,104.4,0)" xlink:href="#V"/><use transform="matrix(0.05,0,0,0.05,109.4,0)" xlink:href="#V"/><use transform="matrix(0.05,0,0,0.05,114.4,0)" xlink:href="#W"/></g><path fill="#333" d="M233-177c-1 41-23 64-60 70L243 0h-38l-65-103H63V0H30v-248c88 3 205-21 203 71zM63-129c60-2 137 13 137-47 0-61-80-42-137-45v92" id="aj"/><path fill="#333" d="M59-47c-2 24 18 29 38 22v24C64 9 27 4 27-40v-127H5v-23h24l9-43h21v43h35v23H59v120" id="ak"/><path fill="#333" d="M177-190C167-65 218 103 67 71c-23-6-38-20-44-43l32-5c15 47 100 32 89-28v-30C133-14 115 1 83 1 29 1 15-40 15-95c0-56 16-97 71-98 29-1 48 16 59 35 1-10 0-23 2-32h30zM94-22c36 0 50-32 50-73 0-42-14-75-50-75-39 0-46 34-46 75s6 73 46 73" id="al"/><g id="l"><use transform="matrix(0.05,0,0,0.05,0,0)" xlink:href="#J"/><use transform="matrix(0.05,0,0,0.05,9,0)" xlink:href="#K"/><use transform="matrix(0.05,0,0,0.05,19,0)" xlink:href="#L"/><use transform="matrix(0.05,0,0,0.05,29,0)" xlink:href="#M"/><use transform="matrix(0.05,0,0,0.05,39,0)" xlink:href="#N"/><use transform="matrix(0.05,0,0,0.05,49,0)" xlink:href="#O"/><use transform="matrix(0.05,0,0,0.05,59.5,0)" xlink:href="#aj"/><use transform="matrix(0.05,0,0,0.05,72.45,0)" xlink:href="#N"/><use transform="matrix(0.05,0,0,0.05,82.45,0)" xlink:href="#S"/><use transform="matrix(0.05,0,0,0.05,91.45,0)" xlink:href="#ak"/><use transform="matrix(0.05,0,0,0.05,96.45,0)" xlink:href="#L"/><use transform="matrix(0.05,0,0,0.05,106.45,0)" xlink:href="#ai"/><use transform="matrix(0.05,0,0,0.05,116.45,0)" xlink:href="#al"/><use transform="matrix(0.05,0,0,0.05,126.45,0)" xlink:href="#T"/><use transform="matrix(0.05,0,0,0.05,130.4,0)" xlink:href="#N"/><use transform="matrix(0.05,0,0,0.05,140.4,0)" xlink:href="#U"/><use transform="matrix(0.05,0,0,0.05,146.35,0)" xlink:href="#V"/><use transform="matrix(0.05,0,0,0.05,151.35,0)" xlink:href="#V"/><use transform="matrix(0.05,0,0,0.05,156.35,0)" xlink:href="#V"/><use transform="matrix(0.05,0,0,0.05,161.35,0)" xlink:href="#W"/></g><path d="M212-179c-10-28-35-45-73-45-59 0-87 40-87 99 0 60 29 101 89 101 43 0 62-24 78-52l27 14C228-24 195 4 139 4 59 4 22-46 18-125c-6-104 99-153 187-111 19 9 31 26 39 46" id="am"/><path d="M30 0v-248h187v28H63v79h144v27H63v87h162V0H30" id="an"/><g id="m"><use transform="matrix(0.05,0,0,0.05,0,0)" xlink:href="#t"/><use transform="matrix(0.05,0,0,0.05,5,0)" xlink:href="#am"/><use transform="matrix(0.05,0,0,0.05,17.950000000000003,0)" xlink:href="#ac"/><use transform="matrix(0.05,0,0,0.05,27.950000000000003,0)" xlink:href="#aa"/><use transform="matrix(0.05,0,0,0.05,37.95,0)" xlink:href="#aa"/><use transform="matrix(0.05,0,0,0.05,47.95,0)" xlink:href="#A"/><use transform="matrix(0.05,0,0,0.05,57.95,0)" xlink:href="#F"/><use transform="matrix(0.05,0,0,0.05,66.95,0)" xlink:href="#y"/><use transform="matrix(0.05,0,0,0.05,71.95,0)" xlink:href="#w"/><use transform="matrix(0.05,0,0,0.05,75.9,0)" xlink:href="#ac"/><use transform="matrix(0.05,0,0,0.05,85.9,0)" xlink:href="#aa"/><use transform="matrix(0.05,0,0,0.05,95.9,0)" xlink:href="#an"/><use transform="matrix(0.05,0,0,0.05,107.9,0)" xlink:href="#aa"/><use transform="matrix(0.05,0,0,0.05,117.9,0)" xlink:href="#ad"/></g><g id="n"><use transform="matrix(0.05,0,0,0.05,0,0)" xlink:href="#t"/><use transform="matrix(0.05,0,0,0.05,5,0)" xlink:href="#am"/><use transform="matrix(0.05,0,0,0.05,17.950000000000003,0)" xlink:href="#ac"/><use transform="matrix(0.05,0,0,0.05,27.950000000000003,0)" xlink:href="#aa"/><use transform="matrix(0.05,0,0,0.05,37.95,0)" xlink:href="#aa"/><use transform="matrix(0.05,0,0,0.05,47.95,0)" xlink:href="#A"/><use transform="matrix(0.05,0,0,0.05,57.95,0)" xlink:href="#F"/><use transform="matrix(0.05,0,0,0.05,66.95,0)" xlink:href="#y"/><use transform="matrix(0.05,0,0,0.05,71.95,0)" xlink:href="#w"/><use transform="matrix(0.05,0,0,0.05,75.9,0)" xlink:href="#ac"/><use transform="matrix(0.05,0,0,0.05,85.9,0)" xlink:href="#aa"/><use transform="matrix(0.05,0,0,0.05,95.9,0)" xlink:href="#Z"/><use transform="matrix(0.05,0,0,0.05,104.85000000000001,0)" xlink:href="#ac"/></g><path d="M30 0v-248h33v221h125V0H30" id="ao"/><path d="M205 0l-28-72H64L36 0H1l101-248h38L239 0h-34zm-38-99l-47-123c-12 45-31 82-46 123h93" id="ap"/><path d="M84 4C-5 8 30-112 23-190h32v120c0 31 7 50 39 49 72-2 45-101 50-169h31l1 190h-30c-1-10 1-25-2-33-11 22-28 36-60 37" id="aq"/><g id="o"><use transform="matrix(0.05,0,0,0.05,0,0)" xlink:href="#t"/><use transform="matrix(0.05,0,0,0.05,5,0)" xlink:href="#ao"/><use transform="matrix(0.05,0,0,0.05,15,0)" xlink:href="#w"/><use transform="matrix(0.05,0,0,0.05,18.95,0)" xlink:href="#aa"/><use transform="matrix(0.05,0,0,0.05,28.950000000000003,0)" xlink:href="#A"/><use transform="matrix(0.05,0,0,0.05,38.95,0)" xlink:href="#ap"/><use transform="matrix(0.05,0,0,0.05,50.95,0)" xlink:href="#y"/><use transform="matrix(0.05,0,0,0.05,55.95,0)" xlink:href="#y"/><use transform="matrix(0.05,0,0,0.05,60.95,0)" xlink:href="#v"/><use transform="matrix(0.05,0,0,0.05,66.9,0)" xlink:href="#w"/><use transform="matrix(0.05,0,0,0.05,70.85000000000001,0)" xlink:href="#H"/><use transform="matrix(0.05,0,0,0.05,80.85000000000001,0)" xlink:href="#aq"/><use transform="matrix(0.05,0,0,0.05,90.85000000000001,0)" xlink:href="#y"/><use transform="matrix(0.05,0,0,0.05,95.85000000000001,0)" xlink:href="#A"/><use transform="matrix(0.05,0,0,0.05,105.85000000000001,0)" xlink:href="#ab"/></g><path fill="#333" d="M-5 72V49h209v23H-5" id="ar"/><path fill="#333" d="M179-190L93 31C79 59 56 82 12 73V49c39 6 53-20 64-50L1-190h34L92-34l54-156h33" id="as"/><path fill="#333" d="M190 0L58-211 59 0H30v-248h39L202-35l-2-213h31V0h-41" id="at"/><path fill="#333" d="M140-251c81 0 123 46 123 126C263-46 219 4 140 4 59 4 17-45 17-125s42-126 123-126zm0 227c63 0 89-41 89-101s-29-99-89-99c-61 0-89 39-89 99S79-25 140-24" id="au"/><path fill="#333" d="M30 0v-248h187v28H63v79h144v27H63v87h162V0H30" id="av"/><g id="p"><use transform="matrix(0.043827160493827164,0,0,0.043827160493827164,0,0)" xlink:href="#T"/><use transform="matrix(0.043827160493827164,0,0,0.043827160493827164,3.462345679012346,0)" xlink:href="#Q"/><use transform="matrix(0.043827160493827164,0,0,0.043827160493827164,6.924691358024692,0)" xlink:href="#ai"/><use transform="matrix(0.043827160493827164,0,0,0.043827160493827164,15.690123456790124,0)" xlink:href="#N"/><use transform="matrix(0.043827160493827164,0,0,0.043827160493827164,24.455555555555556,0)" xlink:href="#ar"/><use transform="matrix(0.043827160493827164,0,0,0.043827160493827164,33.220987654320986,0)" xlink:href="#J"/><use transform="matrix(0.043827160493827164,0,0,0.043827160493827164,41.10987654320988,0)" xlink:href="#ak"/><use transform="matrix(0.043827160493827164,0,0,0.043827160493827164,45.492592592592594,0)" xlink:href="#L"/><use transform="matrix(0.043827160493827164,0,0,0.043827160493827164,54.25802469135803,0)" xlink:href="#R"/><use transform="matrix(0.043827160493827164,0,0,0.043827160493827164,59.473456790123464,0)" xlink:href="#ak"/><use transform="matrix(0.043827160493827164,0,0,0.043827160493827164,63.856172839506165,0)" xlink:href="#ar"/><use transform="matrix(0.043827160493827164,0,0,0.043827160493827164,72.6216049382716,0)" xlink:href="#J"/><use transform="matrix(0.043827160493827164,0,0,0.043827160493827164,80.51049382716049,0)" xlink:href="#ak"/><use transform="matrix(0.043827160493827164,0,0,0.043827160493827164,84.89320987654321,0)" xlink:href="#as"/><use transform="matrix(0.043827160493827164,0,0,0.043827160493827164,92.78209876543211,0)" xlink:href="#T"/><use transform="matrix(0.043827160493827164,0,0,0.043827160493827164,96.24444444444443,0)" xlink:href="#N"/><use transform="matrix(0.043827160493827164,0,0,0.043827160493827164,105.00987654320987,0)" xlink:href="#O"/><use transform="matrix(0.043827160493827164,0,0,0.043827160493827164,114.2135802469136,0)" xlink:href="#at"/><use transform="matrix(0.043827160493827164,0,0,0.043827160493827164,125.56481481481481,0)" xlink:href="#au"/><use transform="matrix(0.043827160493827164,0,0,0.043827160493827164,137.8364197530864,0)" xlink:href="#at"/><use transform="matrix(0.043827160493827164,0,0,0.043827160493827164,149.18765432098763,0)" xlink:href="#av"/></g><path fill="#333" d="M85-194c31 0 48 13 60 33l-1-100h32l1 261h-30c-2-10 0-23-3-31C134-8 116 4 85 4 32 4 16-35 15-94c0-66 23-100 70-100zm9 24c-40 0-46 34-46 75 0 40 6 74 45 74 42 0 51-32 51-76 0-42-9-74-50-73" id="aw"/><path fill="#333" d="M185-189c-5-48-123-54-124 2 14 75 158 14 163 119 3 78-121 87-175 55-17-10-28-26-33-46l33-7c5 56 141 63 141-1 0-78-155-14-162-118-5-82 145-84 179-34 5 7 8 16 11 25" id="ax"/><path fill="#333" d="M33 0v-248h34V0H33" id="ay"/><path fill="#333" d="M30-248c118-7 216 8 213 122C240-48 200 0 122 0H30v-248zM63-27c89 8 146-16 146-99s-60-101-146-95v194" id="az"/><path fill="#333" d="M205 0l-28-72H64L36 0H1l101-248h38L239 0h-34zm-38-99l-47-123c-12 45-31 82-46 123h93" id="aA"/><path fill="#333" d="M266 0h-40l-56-210L115 0H75L2-248h35L96-30l15-64 43-154h32l59 218 59-218h35" id="aB"/><g id="q"><use transform="matrix(0.043827160493827164,0,0,0.043827160493827164,0,0)" xlink:href="#T"/><use transform="matrix(0.043827160493827164,0,0,0.043827160493827164,3.462345679012346,0)" xlink:href="#Q"/><use transform="matrix(0.043827160493827164,0,0,0.043827160493827164,6.924691358024692,0)" xlink:href="#ai"/><use transform="matrix(0.043827160493827164,0,0,0.043827160493827164,15.690123456790124,0)" xlink:href="#aw"/><use transform="matrix(0.043827160493827164,0,0,0.043827160493827164,24.455555555555556,0)" xlink:href="#ar"/><use transform="matrix(0.043827160493827164,0,0,0.043827160493827164,33.220987654320986,0)" xlink:href="#N"/><use transform="matrix(0.043827160493827164,0,0,0.043827160493827164,41.986419753086416,0)" xlink:href="#ai"/><use transform="matrix(0.043827160493827164,0,0,0.043827160493827164,50.751851851851846,0)" xlink:href="#aw"/><use transform="matrix(0.043827160493827164,0,0,0.043827160493827164,59.517283950617276,0)" xlink:href="#ar"/><use transform="matrix(0.043827160493827164,0,0,0.043827160493827164,68.28271604938271,0)" xlink:href="#J"/><use transform="matrix(0.043827160493827164,0,0,0.043827160493827164,76.1716049382716,0)" xlink:href="#ak"/><use transform="matrix(0.043827160493827164,0,0,0.043827160493827164,80.55432098765432,0)" xlink:href="#as"/><use transform="matrix(0.043827160493827164,0,0,0.043827160493827164,88.44320987654321,0)" xlink:href="#T"/><use transform="matrix(0.043827160493827164,0,0,0.043827160493827164,91.90555555555554,0)" xlink:href="#N"/><use transform="matrix(0.043827160493827164,0,0,0.043827160493827164,100.67098765432098,0)" xlink:href="#O"/><use transform="matrix(0.043827160493827164,0,0,0.043827160493827164,109.8746913580247,0)" xlink:href="#ax"/><use transform="matrix(0.043827160493827164,0,0,0.043827160493827164,120.39320987654322,0)" xlink:href="#au"/><use transform="matrix(0.043827160493827164,0,0,0.043827160493827164,132.6648148148148,0)" xlink:href="#ah"/><use transform="matrix(0.043827160493827164,0,0,0.043827160493827164,141.43024691358025,0)" xlink:href="#ay"/><use transform="matrix(0.043827160493827164,0,0,0.043827160493827164,145.81296296296296,0)" xlink:href="#az"/><use transform="matrix(0.043827160493827164,0,0,0.043827160493827164,157.1641975308642,0)" xlink:href="#aA"/><use transform="matrix(0.043827160493827164,0,0,0.043827160493827164,167.6827160493827,0)" xlink:href="#aj"/><use transform="matrix(0.043827160493827164,0,0,0.043827160493827164,179.03395061728392,0)" xlink:href="#aj"/><use transform="matrix(0.043827160493827164,0,0,0.043827160493827164,190.38518518518515,0)" xlink:href="#au"/><use transform="matrix(0.043827160493827164,0,0,0.043827160493827164,202.65679012345672,0)" xlink:href="#aB"/></g><g id="r"><use transform="matrix(0.043827160493827164,0,0,0.043827160493827164,0,0)" xlink:href="#T"/><use transform="matrix(0.043827160493827164,0,0,0.043827160493827164,3.462345679012346,0)" xlink:href="#Q"/><use transform="matrix(0.043827160493827164,0,0,0.043827160493827164,6.924691358024692,0)" xlink:href="#ai"/><use transform="matrix(0.043827160493827164,0,0,0.043827160493827164,15.690123456790124,0)" xlink:href="#N"/><use transform="matrix(0.043827160493827164,0,0,0.043827160493827164,24.455555555555556,0)" xlink:href="#ar"/><use transform="matrix(0.043827160493827164,0,0,0.043827160493827164,33.220987654320986,0)" xlink:href="#J"/><use transform="matrix(0.043827160493827164,0,0,0.043827160493827164,41.10987654320988,0)" xlink:href="#ak"/><use transform="matrix(0.043827160493827164,0,0,0.043827160493827164,45.492592592592594,0)" xlink:href="#as"/><use transform="matrix(0.043827160493827164,0,0,0.043827160493827164,53.38148148148149,0)" xlink:href="#T"/><use transform="matrix(0.043827160493827164,0,0,0.043827160493827164,56.84382716049383,0)" xlink:href="#N"/><use transform="matrix(0.043827160493827164,0,0,0.043827160493827164,65.60925925925926,0)" xlink:href="#O"/><use transform="matrix(0.043827160493827164,0,0,0.043827160493827164,74.81296296296297,0)" xlink:href="#ax"/><use transform="matrix(0.043827160493827164,0,0,0.043827160493827164,85.33148148148149,0)" xlink:href="#au"/><use transform="matrix(0.043827160493827164,0,0,0.043827160493827164,97.6030864197531,0)" xlink:href="#ah"/><use transform="matrix(0.043827160493827164,0,0,0.043827160493827164,106.36851851851853,0)" xlink:href="#ay"/><use transform="matrix(0.043827160493827164,0,0,0.043827160493827164,110.75123456790124,0)" xlink:href="#az"/></g><path d="M63-220v92h138v28H63V0H30v-248h175v28H63" id="aC"/><g id="s"><use transform="matrix(0.05,0,0,0.05,0,0)" xlink:href="#t"/><use transform="matrix(0.05,0,0,0.05,5,0)" xlink:href="#ap"/><use transform="matrix(0.05,0,0,0.05,17,0)" xlink:href="#y"/><use transform="matrix(0.05,0,0,0.05,22,0)" xlink:href="#y"/><use transform="matrix(0.05,0,0,0.05,27,0)" xlink:href="#v"/><use transform="matrix(0.05,0,0,0.05,32.95,0)" xlink:href="#w"/><use transform="matrix(0.05,0,0,0.05,36.900000000000006,0)" xlink:href="#H"/><use transform="matrix(0.05,0,0,0.05,46.900000000000006,0)" xlink:href="#aq"/><use transform="matrix(0.05,0,0,0.05,56.900000000000006,0)" xlink:href="#y"/><use transform="matrix(0.05,0,0,0.05,61.900000000000006,0)" xlink:href="#A"/><use transform="matrix(0.05,0,0,0.05,71.9,0)" xlink:href="#ab"/><use transform="matrix(0.05,0,0,0.05,80.9,0)" xlink:href="#aC"/><use transform="matrix(0.05,0,0,0.05,91.85000000000001,0)" xlink:href="#ac"/><use transform="matrix(0.05,0,0,0.05,101.85000000000001,0)" xlink:href="#v"/></g></defs></g></svg>