<svg xmlns="http://www.w3.org/2000/svg" xmlns:xlink="http://www.w3.org/1999/xlink" xmlns:lucid="lucid" width="595" height="703.38"><g transform="translate(-295 -80)" lucid:page-tab-id="ZUiqVhBf18.i"><path d="M325.58 510.67h278.84v240H325.58z" stroke="#19967d" stroke-width="5" fill-opacity="0"/><path d="M315 380h300v383.38H315z" stroke="#000" stroke-width="2" fill-opacity="0"/><path d="M325.17 391.2H604v94.22H325.17z" fill-opacity="0"/><path d="M371.64 391.2h46.47m23.25 0h46.47m23.24 0h46.47m23.23 0H604v31.4m0 31.4v31.42h-23.24m-23.23 0h-46.47m-23.24 0h-46.47m-23.24 0h-46.46m-23.24 0h-23.23v-31.4m0-31.4V391.2h23.23" stroke="#19967d" stroke-width="5" fill="none"/><path d="M615 100h145v60H615z" fill="none"/><use xlink:href="#a" transform="matrix(1,0,0,1,615,100) translate(10.574999999999996 33.6)"/><use xlink:href="#b" transform="matrix(1,0,0,1,615,100) translate(92.42500000000001 33.6)"/><path d="M315 100h300v200H315z" stroke="#000" stroke-width="2" fill-opacity="0"/><path d="M335 400h260v75H335z" stroke="#333" stroke-width="2" fill="#ffbbb1"/><path d="M335 437.6h260" stroke="#333" stroke-width="2" fill="none"/><use xlink:href="#c" transform="matrix(1,0,0,1,343,408) translate(27.700000000000003 14.6)"/><use xlink:href="#d" transform="matrix(1,0,0,1,347,445.6) translate(0 14.4)"/><path d="M335 660h260v76H335z" stroke="#333" stroke-width="2" fill="#c7e8ac"/><path d="M335 697.6h260" stroke="#333" stroke-width="2" fill="none"/><use xlink:href="#e" transform="matrix(1,0,0,1,343,668) translate(71.05 14.6)"/><use xlink:href="#f" transform="matrix(1,0,0,1,347,705.6) translate(0 14.4)"/><path d="M466.25 494.5v38.12" stroke="#000" stroke-width="2" fill="none"/><path d="M466.25 479.24l4.64 14.26h-9.3z" stroke="#000" stroke-width="2"/><path d="M467.25 533.92l-1-.3-1 .3v-1.32h2z"/><path d="M466.26 640.5V612.8" stroke="#000" stroke-width="2" fill="none"/><path d="M466.26 655.76l-4.64-14.26h9.27z" stroke="#000" stroke-width="2"/><path d="M467.25 612.82h-2v-1.32l1 .3 1-.3z"/><path d="M483.67 300v47.07h18.66L465 380.67l-37.33-33.6h18.66V300z" stroke="#000" stroke-opacity="0" stroke-width="2" fill="#5e5e5e"/><path d="M466.25 534.67L595 572.7l-128.75 38.05L337.5 572.7z" stroke="#000" stroke-width="2" fill="#c7e8ac"/><use xlink:href="#g" transform="matrix(1,0,0,1,342.5,539.6666666666667) translate(78.57999999999998 37.43125)"/><path d="M615 380h255v40H615z" fill="none"/><use xlink:href="#h" transform="matrix(1,0,0,1,615,380) translate(19 23.6)"/><path d="M690 683.8h180v23.4H690z" fill="none"/><use xlink:href="#i" transform="matrix(1,0,0,1,689.9999999999997,683.8015943312666) translate(0 15.6)"/><use xlink:href="#j" transform="matrix(1,0,0,1,689.9999999999997,683.8015943312666) translate(68.9 15.6)"/><use xlink:href="#k" transform="matrix(1,0,0,1,689.9999999999997,683.8015943312666) translate(92.9 15.6)"/><path d="M630 683.8h40v23.4h-40z" stroke="#19967d" stroke-width="5" fill-opacity="0"/><path d="M630 728.8h40v23.4h-40z" fill-opacity="0"/><path d="M632.5 728.8c0 1.4-1.12 2.5-2.5 2.5s-2.5-1.1-2.5-2.5c0-1.37 1.12-2.5 2.5-2.5s2.5 1.13 2.5 2.5zm10 0c0 1.4-1.12 2.5-2.5 2.5s-2.5-1.1-2.5-2.5c0-1.37 1.12-2.5 2.5-2.5s2.5 1.13 2.5 2.5zm10 0c0 1.4-1.12 2.5-2.5 2.5s-2.5-1.1-2.5-2.5c0-1.37 1.12-2.5 2.5-2.5s2.5 1.13 2.5 2.5zm10 0c0 1.4-1.12 2.5-2.5 2.5s-2.5-1.1-2.5-2.5c0-1.37 1.12-2.5 2.5-2.5s2.5 1.13 2.5 2.5zm10 0c0 1.4-1.12 2.5-2.5 2.5s-2.5-1.1-2.5-2.5c0-1.37 1.12-2.5 2.5-2.5s2.5 1.13 2.5 2.5zm0 11.7c0 1.4-1.12 2.5-2.5 2.5s-2.5-1.1-2.5-2.5c0-1.37 1.12-2.5 2.5-2.5s2.5 1.13 2.5 2.5zm0 11.7c0 1.38-1.12 2.5-2.5 2.5s-2.5-1.12-2.5-2.5 1.12-2.5 2.5-2.5 2.5 1.12 2.5 2.5zm-10 0c0 1.38-1.12 2.5-2.5 2.5s-2.5-1.12-2.5-2.5 1.12-2.5 2.5-2.5 2.5 1.12 2.5 2.5zm-10 0c0 1.38-1.12 2.5-2.5 2.5s-2.5-1.12-2.5-2.5 1.12-2.5 2.5-2.5 2.5 1.12 2.5 2.5zm-10 0c0 1.38-1.12 2.5-2.5 2.5s-2.5-1.12-2.5-2.5 1.12-2.5 2.5-2.5 2.5 1.12 2.5 2.5zm-10 0c0 1.38-1.12 2.5-2.5 2.5s-2.5-1.12-2.5-2.5 1.12-2.5 2.5-2.5 2.5 1.12 2.5 2.5zm0-11.7c0 1.4-1.12 2.5-2.5 2.5s-2.5-1.1-2.5-2.5c0-1.37 1.12-2.5 2.5-2.5s2.5 1.13 2.5 2.5z" fill="#19967d"/><path d="M690 728.8h180v23.4H690z" fill="none"/><use xlink:href="#i" transform="matrix(1,0,0,1,689.9999999999997,728.814880425155) translate(0 15.6)"/><use xlink:href="#l" transform="matrix(1,0,0,1,689.9999999999997,728.814880425155) translate(68.9 15.6)"/><path d="M690 643.8h180v23.4H690z" fill="none"/><use xlink:href="#m" transform="matrix(1,0,0,1,689.9999999999999,643.8015943312666) translate(0 15.6)"/><use xlink:href="#j" transform="matrix(1,0,0,1,689.9999999999999,643.8015943312666) translate(73 15.6)"/><use xlink:href="#k" transform="matrix(1,0,0,1,689.9999999999999,643.8015943312666) translate(97 15.6)"/><path d="M630 643.8h40v23.4h-40z" stroke="#fcc438" stroke-width="5" fill-opacity="0"/><path d="M420 190h100v20H420z" stroke="#19967d" stroke-width="2" fill="#fff"/><path d="M520 180h40v40h-40z" stroke="#000" stroke-opacity="0" stroke-width="2" fill="#fff" fill-opacity="0"/><defs><path d="M143 4C61 4 22-44 18-125c-5-107 100-154 193-111 17 8 29 25 37 43l-32 9c-13-25-37-40-76-40-61 0-88 39-88 99 0 61 29 100 91 101 35 0 62-11 79-27v-45h-74v-28h105v86C228-13 192 4 143 4" id="n"/><path d="M114-163C36-179 61-72 57 0H25l-1-190h30c1 12-1 29 2 39 6-27 23-49 58-41v29" id="o"/><path d="M141-36C126-15 110 5 73 4 37 3 15-17 15-53c-1-64 63-63 125-63 3-35-9-54-41-54-24 1-41 7-42 31l-33-3c5-37 33-52 76-52 45 0 72 20 72 64v82c-1 20 7 32 28 27v20c-31 9-61-2-59-35zM48-53c0 20 12 33 32 33 41-3 63-29 60-74-43 2-92-5-92 41" id="p"/><path d="M115-194c55 1 70 41 70 98S169 2 115 4C84 4 66-9 55-30l1 105H24l-1-265h31l2 30c10-21 28-34 59-34zm-8 174c40 0 45-34 45-75s-6-73-45-74c-42 0-51 32-51 76 0 43 10 73 51 73" id="q"/><path d="M106-169C34-169 62-67 57 0H25v-261h32l-1 103c12-21 28-36 61-36 89 0 53 116 60 194h-32v-121c2-32-8-49-39-48" id="r"/><path d="M24-231v-30h32v30H24zM24 0v-190h32V0H24" id="s"/><path d="M96-169c-40 0-48 33-48 73s9 75 48 75c24 0 41-14 43-38l32 2c-6 37-31 61-74 61-59 0-76-41-82-99-10-93 101-131 147-64 4 7 5 14 7 22l-32 3c-4-21-16-35-41-35" id="t"/><path d="M24 0v-261h32V0H24" id="u"/><g id="a"><use transform="matrix(0.05,0,0,0.05,0,0)" xlink:href="#n"/><use transform="matrix(0.05,0,0,0.05,14,0)" xlink:href="#o"/><use transform="matrix(0.05,0,0,0.05,19.95,0)" xlink:href="#p"/><use transform="matrix(0.05,0,0,0.05,29.950000000000003,0)" xlink:href="#q"/><use transform="matrix(0.05,0,0,0.05,39.95,0)" xlink:href="#r"/><use transform="matrix(0.05,0,0,0.05,49.95,0)" xlink:href="#s"/><use transform="matrix(0.05,0,0,0.05,53.900000000000006,0)" xlink:href="#t"/><use transform="matrix(0.05,0,0,0.05,62.900000000000006,0)" xlink:href="#p"/><use transform="matrix(0.05,0,0,0.05,72.9,0)" xlink:href="#u"/></g><path d="M185-189c-5-48-123-54-124 2 14 75 158 14 163 119 3 78-121 87-175 55-17-10-28-26-33-46l33-7c5 56 141 63 141-1 0-78-155-14-162-118-5-82 145-84 179-34 5 7 8 16 11 25" id="v"/><path d="M59-47c-2 24 18 29 38 22v24C64 9 27 4 27-40v-127H5v-23h24l9-43h21v43h35v23H59v120" id="w"/><path d="M100-194c63 0 86 42 84 106H49c0 40 14 67 53 68 26 1 43-12 49-29l28 8c-11 28-37 45-77 45C44 4 14-33 15-96c1-61 26-98 85-98zm52 81c6-60-76-77-97-28-3 7-6 17-6 28h103" id="x"/><g id="b"><use transform="matrix(0.05,0,0,0.05,0,0)" xlink:href="#v"/><use transform="matrix(0.05,0,0,0.05,12,0)" xlink:href="#w"/><use transform="matrix(0.05,0,0,0.05,17,0)" xlink:href="#p"/><use transform="matrix(0.05,0,0,0.05,27,0)" xlink:href="#w"/><use transform="matrix(0.05,0,0,0.05,32,0)" xlink:href="#x"/></g><path d="M33-154v-36h34v36H33zM33 0v-36h34V0H33" id="y"/><path d="M30-248c87 1 191-15 191 75 0 78-77 80-158 76V0H30v-248zm33 125c57 0 124 11 124-50 0-59-68-47-124-48v98" id="z"/><path d="M210-169c-67 3-38 105-44 169h-31v-121c0-29-5-50-35-48C34-165 62-65 56 0H25l-1-190h30c1 10-1 24 2 32 10-44 99-50 107 0 11-21 27-35 58-36 85-2 47 119 55 194h-31v-121c0-29-5-49-35-48" id="A"/><path d="M108 0H70L1-190h34L89-25l56-165h34" id="B"/><path d="M140-251c81 0 123 46 123 126C263-46 219 4 140 4 59 4 17-45 17-125s42-126 123-126zm0 227c63 0 89-41 89-101s-29-99-89-99c-61 0-89 39-89 99S79-25 140-24" id="C"/><path d="M115-194c53 0 69 39 70 98 0 66-23 100-70 100C84 3 66-7 56-30L54 0H23l1-261h32v101c10-23 28-34 59-34zm-8 174c40 0 45-34 45-75 0-40-5-75-45-74-42 0-51 32-51 76 0 43 10 73 51 73" id="D"/><path d="M24-231v-30h32v30H24zM-9 49c24 4 33-6 33-30v-209h32V24c2 40-23 58-65 49V49" id="E"/><g id="c"><use transform="matrix(0.05,0,0,0.05,0,0)" xlink:href="#y"/><use transform="matrix(0.05,0,0,0.05,5,0)" xlink:href="#z"/><use transform="matrix(0.05,0,0,0.05,17,0)" xlink:href="#o"/><use transform="matrix(0.05,0,0,0.05,22.95,0)" xlink:href="#s"/><use transform="matrix(0.05,0,0,0.05,26.899999999999995,0)" xlink:href="#A"/><use transform="matrix(0.05,0,0,0.05,41.85,0)" xlink:href="#s"/><use transform="matrix(0.05,0,0,0.05,45.800000000000004,0)" xlink:href="#w"/><use transform="matrix(0.05,0,0,0.05,50.800000000000004,0)" xlink:href="#s"/><use transform="matrix(0.05,0,0,0.05,54.75,0)" xlink:href="#B"/><use transform="matrix(0.05,0,0,0.05,63.75,0)" xlink:href="#x"/><use transform="matrix(0.05,0,0,0.05,73.75,0)" xlink:href="#n"/><use transform="matrix(0.05,0,0,0.05,87.75,0)" xlink:href="#o"/><use transform="matrix(0.05,0,0,0.05,93.7,0)" xlink:href="#p"/><use transform="matrix(0.05,0,0,0.05,103.7,0)" xlink:href="#q"/><use transform="matrix(0.05,0,0,0.05,113.7,0)" xlink:href="#r"/><use transform="matrix(0.05,0,0,0.05,123.7,0)" xlink:href="#s"/><use transform="matrix(0.05,0,0,0.05,127.65,0)" xlink:href="#t"/><use transform="matrix(0.05,0,0,0.05,136.65,0)" xlink:href="#C"/><use transform="matrix(0.05,0,0,0.05,150.65,0)" xlink:href="#D"/><use transform="matrix(0.05,0,0,0.05,160.65,0)" xlink:href="#E"/><use transform="matrix(0.05,0,0,0.05,164.6,0)" xlink:href="#x"/><use transform="matrix(0.05,0,0,0.05,174.6,0)" xlink:href="#t"/><use transform="matrix(0.05,0,0,0.05,183.6,0)" xlink:href="#w"/></g><path fill="#333" d="M135-143c-3-34-86-38-87 0 15 53 115 12 119 90S17 21 10-45l28-5c4 36 97 45 98 0-10-56-113-15-118-90-4-57 82-63 122-42 12 7 21 19 24 35" id="F"/><path fill="#333" d="M106-169C34-169 62-67 57 0H25v-261h32l-1 103c12-21 28-36 61-36 89 0 53 116 60 194h-32v-121c2-32-8-49-39-48" id="G"/><path fill="#333" d="M141-36C126-15 110 5 73 4 37 3 15-17 15-53c-1-64 63-63 125-63 3-35-9-54-41-54-24 1-41 7-42 31l-33-3c5-37 33-52 76-52 45 0 72 20 72 64v82c-1 20 7 32 28 27v20c-31 9-61-2-59-35zM48-53c0 20 12 33 32 33 41-3 63-29 60-74-43 2-92-5-92 41" id="H"/><path fill="#333" d="M115-194c55 1 70 41 70 98S169 2 115 4C84 4 66-9 55-30l1 105H24l-1-265h31l2 30c10-21 28-34 59-34zm-8 174c40 0 45-34 45-75s-6-73-45-74c-42 0-51 32-51 76 0 43 10 73 51 73" id="I"/><path fill="#333" d="M100-194c63 0 86 42 84 106H49c0 40 14 67 53 68 26 1 43-12 49-29l28 8c-11 28-37 45-77 45C44 4 14-33 15-96c1-61 26-98 85-98zm52 81c6-60-76-77-97-28-3 7-6 17-6 28h103" id="J"/><path fill="#333" d="M18-150v-26h174v26H18zm0 90v-26h174v26H18" id="K"/><path fill="#333" d="M233-177c-1 41-23 64-60 70L243 0h-38l-65-103H63V0H30v-248c88 3 205-21 203 71zM63-129c60-2 137 13 137-47 0-61-80-42-137-45v92" id="L"/><path fill="#333" d="M96-169c-40 0-48 33-48 73s9 75 48 75c24 0 41-14 43-38l32 2c-6 37-31 61-74 61-59 0-76-41-82-99-10-93 101-131 147-64 4 7 5 14 7 22l-32 3c-4-21-16-35-41-35" id="M"/><path fill="#333" d="M59-47c-2 24 18 29 38 22v24C64 9 27 4 27-40v-127H5v-23h24l9-43h21v43h35v23H59v120" id="N"/><path fill="#333" d="M117-194c89-4 53 116 60 194h-32v-121c0-31-8-49-39-48C34-167 62-67 57 0H25l-1-190h30c1 10-1 24 2 32 11-22 29-35 61-36" id="O"/><path fill="#333" d="M177-190C167-65 218 103 67 71c-23-6-38-20-44-43l32-5c15 47 100 32 89-28v-30C133-14 115 1 83 1 29 1 15-40 15-95c0-56 16-97 71-98 29-1 48 16 59 35 1-10 0-23 2-32h30zM94-22c36 0 50-32 50-73 0-42-14-75-50-75-39 0-46 34-46 75s6 73 46 73" id="P"/><path fill="#333" d="M24 0v-261h32V0H24" id="Q"/><path fill="#333" d="M87 75C49 33 22-17 22-94c0-76 28-126 65-167h31c-38 41-64 92-64 168S80 34 118 75H87" id="R"/><path fill="#333" d="M33 0v-38h34V0H33" id="S"/><path fill="#333" d="M33-261c38 41 65 92 65 168S71 34 33 75H2C39 34 66-17 66-93S39-220 2-261h31" id="T"/><g id="d"><use transform="matrix(0.05,0,0,0.05,0,0)" xlink:href="#F"/><use transform="matrix(0.05,0,0,0.05,9,0)" xlink:href="#G"/><use transform="matrix(0.05,0,0,0.05,19,0)" xlink:href="#H"/><use transform="matrix(0.05,0,0,0.05,29,0)" xlink:href="#I"/><use transform="matrix(0.05,0,0,0.05,39,0)" xlink:href="#J"/><use transform="matrix(0.05,0,0,0.05,49,0)" xlink:href="#K"/><use transform="matrix(0.05,0,0,0.05,59.5,0)" xlink:href="#L"/><use transform="matrix(0.05,0,0,0.05,72.45,0)" xlink:href="#J"/><use transform="matrix(0.05,0,0,0.05,82.45,0)" xlink:href="#M"/><use transform="matrix(0.05,0,0,0.05,91.45,0)" xlink:href="#N"/><use transform="matrix(0.05,0,0,0.05,96.45,0)" xlink:href="#H"/><use transform="matrix(0.05,0,0,0.05,106.45,0)" xlink:href="#O"/><use transform="matrix(0.05,0,0,0.05,116.45,0)" xlink:href="#P"/><use transform="matrix(0.05,0,0,0.05,126.45,0)" xlink:href="#Q"/><use transform="matrix(0.05,0,0,0.05,130.4,0)" xlink:href="#J"/><use transform="matrix(0.05,0,0,0.05,140.4,0)" xlink:href="#R"/><use transform="matrix(0.05,0,0,0.05,146.35,0)" xlink:href="#S"/><use transform="matrix(0.05,0,0,0.05,151.35,0)" xlink:href="#S"/><use transform="matrix(0.05,0,0,0.05,156.35,0)" xlink:href="#S"/><use transform="matrix(0.05,0,0,0.05,161.35,0)" xlink:href="#T"/></g><path d="M117-194c89-4 53 116 60 194h-32v-121c0-31-8-49-39-48C34-167 62-67 57 0H25l-1-190h30c1 10-1 24 2 32 11-22 29-35 61-36" id="U"/><path d="M127-220V0H93v-220H8v-28h204v28h-85" id="V"/><path d="M179-190L93 31C79 59 56 82 12 73V49c39 6 53-20 64-50L1-190h34L92-34l54-156h33" id="W"/><g id="e"><use transform="matrix(0.05,0,0,0.05,0,0)" xlink:href="#y"/><use transform="matrix(0.05,0,0,0.05,5,0)" xlink:href="#z"/><use transform="matrix(0.05,0,0,0.05,17,0)" xlink:href="#p"/><use transform="matrix(0.05,0,0,0.05,27,0)" xlink:href="#w"/><use transform="matrix(0.05,0,0,0.05,32,0)" xlink:href="#w"/><use transform="matrix(0.05,0,0,0.05,37,0)" xlink:href="#x"/><use transform="matrix(0.05,0,0,0.05,47,0)" xlink:href="#o"/><use transform="matrix(0.05,0,0,0.05,52.95,0)" xlink:href="#U"/><use transform="matrix(0.05,0,0,0.05,62.95,0)" xlink:href="#V"/><use transform="matrix(0.05,0,0,0.05,72.9,0)" xlink:href="#W"/><use transform="matrix(0.05,0,0,0.05,81.9,0)" xlink:href="#q"/><use transform="matrix(0.05,0,0,0.05,91.9,0)" xlink:href="#x"/></g><path fill="#333" d="M108 0H70L1-190h34L89-25l56-165h34" id="X"/><path fill="#333" d="M84 4C-5 8 30-112 23-190h32v120c0 31 7 50 39 49 72-2 45-101 50-169h31l1 190h-30c-1-10 1-25-2-33-11 22-28 36-60 37" id="Y"/><path fill="#333" d="M127-220V0H93v-220H8v-28h204v28h-85" id="Z"/><path fill="#333" d="M114-163C36-179 61-72 57 0H25l-1-190h30c1 12-1 29 2 39 6-27 23-49 58-41v29" id="aa"/><path fill="#333" d="M24-231v-30h32v30H24zM24 0v-190h32V0H24" id="ab"/><path fill="#333" d="M100-194c62-1 85 37 85 99 1 63-27 99-86 99S16-35 15-95c0-66 28-99 85-99zM99-20c44 1 53-31 53-75 0-43-8-75-51-75s-53 32-53 75 10 74 51 75" id="ac"/><g id="f"><use transform="matrix(0.05,0,0,0.05,0,0)" xlink:href="#X"/><use transform="matrix(0.05,0,0,0.05,9,0)" xlink:href="#H"/><use transform="matrix(0.05,0,0,0.05,19,0)" xlink:href="#Q"/><use transform="matrix(0.05,0,0,0.05,22.95,0)" xlink:href="#Y"/><use transform="matrix(0.05,0,0,0.05,32.95,0)" xlink:href="#J"/><use transform="matrix(0.05,0,0,0.05,42.95,0)" xlink:href="#K"/><use transform="matrix(0.05,0,0,0.05,53.45,0)" xlink:href="#Z"/><use transform="matrix(0.05,0,0,0.05,63.75,0)" xlink:href="#aa"/><use transform="matrix(0.05,0,0,0.05,69.7,0)" xlink:href="#H"/><use transform="matrix(0.05,0,0,0.05,79.7,0)" xlink:href="#O"/><use transform="matrix(0.05,0,0,0.05,89.7,0)" xlink:href="#F"/><use transform="matrix(0.05,0,0,0.05,98.7,0)" xlink:href="#ab"/><use transform="matrix(0.05,0,0,0.05,102.65,0)" xlink:href="#N"/><use transform="matrix(0.05,0,0,0.05,107.65,0)" xlink:href="#ab"/><use transform="matrix(0.05,0,0,0.05,111.60000000000001,0)" xlink:href="#ac"/><use transform="matrix(0.05,0,0,0.05,121.60000000000001,0)" xlink:href="#O"/></g><path d="M63-220v92h138v28H63V0H30v-248h175v28H63" id="ad"/><path d="M100-194c62-1 85 37 85 99 1 63-27 99-86 99S16-35 15-95c0-66 28-99 85-99zM99-20c44 1 53-31 53-75 0-43-8-75-51-75s-53 32-53 75 10 74 51 75" id="ae"/><g id="g"><use transform="matrix(0.05,0,0,0.05,0,0)" xlink:href="#y"/><use transform="matrix(0.05,0,0,0.05,5,0)" xlink:href="#z"/><use transform="matrix(0.05,0,0,0.05,17,0)" xlink:href="#p"/><use transform="matrix(0.05,0,0,0.05,27,0)" xlink:href="#w"/><use transform="matrix(0.05,0,0,0.05,32,0)" xlink:href="#w"/><use transform="matrix(0.05,0,0,0.05,37,0)" xlink:href="#x"/><use transform="matrix(0.05,0,0,0.05,47,0)" xlink:href="#o"/><use transform="matrix(0.05,0,0,0.05,52.95,0)" xlink:href="#U"/><use transform="matrix(0.05,0,0,0.05,62.95,0)" xlink:href="#ad"/><use transform="matrix(0.05,0,0,0.05,73.9,0)" xlink:href="#ae"/><use transform="matrix(0.05,0,0,0.05,83.9,0)" xlink:href="#o"/></g><path d="M135-143c-3-34-86-38-87 0 15 53 115 12 119 90S17 21 10-45l28-5c4 36 97 45 98 0-10-56-113-15-118-90-4-57 82-63 122-42 12 7 21 19 24 35" id="af"/><g id="h"><use transform="matrix(0.05,0,0,0.05,0,0)" xlink:href="#V"/><use transform="matrix(0.05,0,0,0.05,10.3,0)" xlink:href="#o"/><use transform="matrix(0.05,0,0,0.05,16.25,0)" xlink:href="#p"/><use transform="matrix(0.05,0,0,0.05,26.25,0)" xlink:href="#U"/><use transform="matrix(0.05,0,0,0.05,36.25,0)" xlink:href="#af"/><use transform="matrix(0.05,0,0,0.05,45.25,0)" xlink:href="#s"/><use transform="matrix(0.05,0,0,0.05,49.2,0)" xlink:href="#w"/><use transform="matrix(0.05,0,0,0.05,54.2,0)" xlink:href="#s"/><use transform="matrix(0.05,0,0,0.05,58.150000000000006,0)" xlink:href="#ae"/><use transform="matrix(0.05,0,0,0.05,68.15,0)" xlink:href="#U"/><use transform="matrix(0.05,0,0,0.05,78.15,0)" xlink:href="#z"/><use transform="matrix(0.05,0,0,0.05,90.15,0)" xlink:href="#p"/><use transform="matrix(0.05,0,0,0.05,100.15,0)" xlink:href="#w"/><use transform="matrix(0.05,0,0,0.05,105.15,0)" xlink:href="#w"/><use transform="matrix(0.05,0,0,0.05,110.15,0)" xlink:href="#x"/><use transform="matrix(0.05,0,0,0.05,120.15,0)" xlink:href="#o"/><use transform="matrix(0.05,0,0,0.05,126.10000000000001,0)" xlink:href="#U"/><use transform="matrix(0.05,0,0,0.05,136.10000000000002,0)" xlink:href="#z"/><use transform="matrix(0.05,0,0,0.05,148.10000000000002,0)" xlink:href="#o"/><use transform="matrix(0.05,0,0,0.05,154.05,0)" xlink:href="#ae"/><use transform="matrix(0.05,0,0,0.05,164.05,0)" xlink:href="#t"/><use transform="matrix(0.05,0,0,0.05,173.05,0)" xlink:href="#x"/><use transform="matrix(0.05,0,0,0.05,183.05,0)" xlink:href="#af"/><use transform="matrix(0.05,0,0,0.05,192.05,0)" xlink:href="#af"/><use transform="matrix(0.05,0,0,0.05,201.05,0)" xlink:href="#ae"/><use transform="matrix(0.05,0,0,0.05,211.05,0)" xlink:href="#o"/></g><path d="M85-194c31 0 48 13 60 33l-1-100h32l1 261h-30c-2-10 0-23-3-31C134-8 116 4 85 4 32 4 16-35 15-94c0-66 23-100 70-100zm9 24c-40 0-46 34-46 75 0 40 6 74 45 74 42 0 51-32 51-76 0-42-9-74-50-73" id="ag"/><g id="i"><use transform="matrix(0.05,0,0,0.05,0,0)" xlink:href="#s"/><use transform="matrix(0.05,0,0,0.05,3.95,0)" xlink:href="#U"/><use transform="matrix(0.05,0,0,0.05,13.949999999999998,0)" xlink:href="#af"/><use transform="matrix(0.05,0,0,0.05,22.95,0)" xlink:href="#x"/><use transform="matrix(0.05,0,0,0.05,32.95,0)" xlink:href="#o"/><use transform="matrix(0.05,0,0,0.05,38.900000000000006,0)" xlink:href="#w"/><use transform="matrix(0.05,0,0,0.05,43.900000000000006,0)" xlink:href="#x"/><use transform="matrix(0.05,0,0,0.05,53.900000000000006,0)" xlink:href="#ag"/></g><g id="j"><use transform="matrix(0.05,0,0,0.05,0,0)" xlink:href="#D"/><use transform="matrix(0.05,0,0,0.05,10,0)" xlink:href="#W"/></g><g id="k"><use transform="matrix(0.05,0,0,0.05,0,0)" xlink:href="#z"/><use transform="matrix(0.05,0,0,0.05,12,0)" xlink:href="#o"/><use transform="matrix(0.05,0,0,0.05,17.95,0)" xlink:href="#ae"/><use transform="matrix(0.05,0,0,0.05,27.950000000000003,0)" xlink:href="#t"/><use transform="matrix(0.05,0,0,0.05,36.95,0)" xlink:href="#x"/><use transform="matrix(0.05,0,0,0.05,46.95,0)" xlink:href="#af"/><use transform="matrix(0.05,0,0,0.05,55.95,0)" xlink:href="#af"/><use transform="matrix(0.05,0,0,0.05,64.95,0)" xlink:href="#ae"/><use transform="matrix(0.05,0,0,0.05,74.95,0)" xlink:href="#o"/></g><path d="M141 0L90-78 38 0H4l68-98-65-92h35l48 74 47-74h35l-64 92 68 98h-35" id="ah"/><g id="l"><use transform="matrix(0.05,0,0,0.05,0,0)" xlink:href="#x"/><use transform="matrix(0.05,0,0,0.05,10,0)" xlink:href="#ah"/><use transform="matrix(0.05,0,0,0.05,19,0)" xlink:href="#w"/><use transform="matrix(0.05,0,0,0.05,24,0)" xlink:href="#x"/><use transform="matrix(0.05,0,0,0.05,34,0)" xlink:href="#o"/><use transform="matrix(0.05,0,0,0.05,39.95,0)" xlink:href="#U"/><use transform="matrix(0.05,0,0,0.05,49.95,0)" xlink:href="#p"/><use transform="matrix(0.05,0,0,0.05,59.95,0)" xlink:href="#u"/><use transform="matrix(0.05,0,0,0.05,63.900000000000006,0)" xlink:href="#u"/><use transform="matrix(0.05,0,0,0.05,67.85000000000001,0)" xlink:href="#W"/></g><path d="M177-190C167-65 218 103 67 71c-23-6-38-20-44-43l32-5c15 47 100 32 89-28v-30C133-14 115 1 83 1 29 1 15-40 15-95c0-56 16-97 71-98 29-1 48 16 59 35 1-10 0-23 2-32h30zM94-22c36 0 50-32 50-73 0-42-14-75-50-75-39 0-46 34-46 75s6 73 46 73" id="ai"/><g id="m"><use transform="matrix(0.05,0,0,0.05,0,0)" xlink:href="#t"/><use transform="matrix(0.05,0,0,0.05,9,0)" xlink:href="#r"/><use transform="matrix(0.05,0,0,0.05,19,0)" xlink:href="#p"/><use transform="matrix(0.05,0,0,0.05,29,0)" xlink:href="#U"/><use transform="matrix(0.05,0,0,0.05,39,0)" xlink:href="#ai"/><use transform="matrix(0.05,0,0,0.05,49,0)" xlink:href="#x"/><use transform="matrix(0.05,0,0,0.05,59,0)" xlink:href="#af"/></g></defs></g></svg>