<svg xmlns="http://www.w3.org/2000/svg" xmlns:xlink="http://www.w3.org/1999/xlink" xmlns:lucid="lucid" width="1100" height="876.6"><g transform="translate(-300 -43.180610355101074)" lucid:page-tab-id="9Qknka5tbfKY"><path d="M573.32 389.85h551.1V610.5H573.3z" fill-opacity="0"/><path d="M625.8 389.85h52.5m26.23 0h52.5m26.23 0h52.5m26.23 0h52.47m26.25 0h52.48m26.24 0h52.5m26.23 0h26.24v24.52m0 24.52v49.02m0 24.52v49.03m0 24.52v24.5h-26.23m-26.24 0h-52.5m-26.23 0h-52.48m-26.25 0H862m-26.25 0h-52.5m-26.23 0h-52.5m-26.23 0h-52.5m-26.24 0h-26.24V586m0-24.53v-49.03m0-24.52V438.9m0-24.53v-24.52h26.24" stroke="#19967d" stroke-width="5" fill="none"/><path d="M332 626.25h228.73v155.3H332z" stroke="#fcc438" stroke-width="5" fill-opacity="0"/><path d="M780 200c0 22.1-17.9 40-40 40s-40-17.9-40-40 17.9-40 40-40 40 17.9 40 40z" stroke="#000" stroke-width="2" fill="#fff"/><path d="M780 180h40v40h-40z" stroke="#000" stroke-opacity="0" stroke-width="2" fill="#fff" fill-opacity="0"/><path d="M799.5 200H899" stroke="#5abaa7" stroke-width="2" fill="none"/><path d="M784.24 200l14.26-4.64v9.28z" stroke="#5abaa7" stroke-width="2" fill="#5abaa7"/><path d="M898.97 200H900" stroke="#5abaa7" stroke-width="2" fill="none"/><path d="M340 398.04h210.5v75H340z" stroke="#333" stroke-width="2" fill="#ffbbb1"/><path d="M340 435.64h210.5" stroke="#333" stroke-width="2" fill="none"/><use xlink:href="#a" transform="matrix(1,0,0,1,348,406.04166666666674) translate(3.200000000000003 14.6)"/><use xlink:href="#b" transform="matrix(1,0,0,1,352,443.64166666666677) translate(0 14.4)"/><path d="M340 635.93h210.5v140H340z" stroke="#333" stroke-width="2" fill="#c1e4f7"/><path d="M340 673.53h210.5" stroke="#333" stroke-width="2" fill="none"/><use xlink:href="#c" transform="matrix(1,0,0,1,348,643.9331115629278) translate(72.525 14.6)"/><use xlink:href="#d" transform="matrix(1,0,0,1,352,681.5331115629278) translate(0 14.4)"/><use xlink:href="#e" transform="matrix(1,0,0,1,352,681.5331115629278) translate(0 36)"/><use xlink:href="#f" transform="matrix(1,0,0,1,352,681.5331115629278) translate(0 57.6)"/><use xlink:href="#g" transform="matrix(1,0,0,1,352,681.5331115629278) translate(0 79.20000000000002)"/><path d="M446.27 492.54v31.92" stroke="#000" stroke-width="2" fill="none"/><path d="M446.27 477.28l4.63 14.26h-9.27z" stroke="#000" stroke-width="2"/><path d="M447.27 525.82l-1-.36-1 .36v-1.4h2z"/><path d="M446.27 616.44v-11.77" stroke="#000" stroke-width="2" fill="none"/><path d="M446.26 631.7l-4.63-14.27h9.27z" stroke="#000" stroke-width="2"/><path d="M446.27 603.67l1-.37v1.4h-2v-1.4z"/><path d="M868.67 299.33v47.07h18.66L850 380l-37.33-33.6h18.66v-47.07z" stroke="#000" stroke-opacity="0" stroke-width="2" fill="#5e5e5e"/><path d="M446.27 526.52l104.24 38.04-104.23 38.04-104.25-38.04z" stroke="#000" stroke-width="2" fill="#c7e8ac"/><use xlink:href="#h" transform="matrix(1,0,0,1,347.0241199478488,531.5208333333333) translate(60.58 37.43125)"/><path d="M320 380h1060v414.35H320z" stroke="#000" stroke-width="2" fill-opacity="0"/><path d="M1240 63.18h140V100h-140z" fill="none"/><use xlink:href="#i" transform="matrix(1,0,0,1,1239.9999999999998,63.180610355101074) translate(8.574999999999996 22.1)"/><use xlink:href="#j" transform="matrix(1,0,0,1,1239.9999999999998,63.180610355101074) translate(90.42500000000001 22.1)"/><path d="M320 100h1060v200H320z" stroke="#000" stroke-width="2" fill-opacity="0"/><path d="M1200 343.18h180V380h-180z" fill="none"/><use xlink:href="#k" transform="matrix(1,0,0,1,1199.9999999999995,343.18061035510107) translate(7.575000000000003 22.1)"/><path d="M1200 836.82h180v21.52h-180z" fill="none"/><use xlink:href="#l" transform="matrix(1,0,0,1,1199.9999999999998,836.8193896448989) translate(0 14.6)"/><use xlink:href="#m" transform="matrix(1,0,0,1,1199.9999999999998,836.8193896448989) translate(68.9 14.6)"/><use xlink:href="#n" transform="matrix(1,0,0,1,1199.9999999999998,836.8193896448989) translate(92.9 14.6)"/><path d="M1140 836.82h40v21.52h-40z" stroke="#19967d" stroke-width="5" fill-opacity="0"/><path d="M1140 878.25h40v21.53h-40z" fill-opacity="0"/><path d="M1142.5 878.25c0 1.38-1.12 2.5-2.5 2.5s-2.5-1.12-2.5-2.5 1.12-2.5 2.5-2.5 2.5 1.12 2.5 2.5zm10 0c0 1.38-1.12 2.5-2.5 2.5s-2.5-1.12-2.5-2.5 1.12-2.5 2.5-2.5 2.5 1.12 2.5 2.5zm10 0c0 1.38-1.12 2.5-2.5 2.5s-2.5-1.12-2.5-2.5 1.12-2.5 2.5-2.5 2.5 1.12 2.5 2.5zm10 0c0 1.38-1.12 2.5-2.5 2.5s-2.5-1.12-2.5-2.5 1.12-2.5 2.5-2.5 2.5 1.12 2.5 2.5zm10 0c0 1.38-1.12 2.5-2.5 2.5s-2.5-1.12-2.5-2.5 1.12-2.5 2.5-2.5 2.5 1.12 2.5 2.5zm0 10.77c0 1.38-1.12 2.5-2.5 2.5s-2.5-1.12-2.5-2.5c0-1.4 1.12-2.5 2.5-2.5s2.5 1.1 2.5 2.5zm0 10.76c0 1.38-1.12 2.5-2.5 2.5s-2.5-1.12-2.5-2.5 1.12-2.5 2.5-2.5 2.5 1.12 2.5 2.5zm-10 0c0 1.38-1.12 2.5-2.5 2.5s-2.5-1.12-2.5-2.5 1.12-2.5 2.5-2.5 2.5 1.12 2.5 2.5zm-10 0c0 1.38-1.12 2.5-2.5 2.5s-2.5-1.12-2.5-2.5 1.12-2.5 2.5-2.5 2.5 1.12 2.5 2.5zm-10 0c0 1.38-1.12 2.5-2.5 2.5s-2.5-1.12-2.5-2.5 1.12-2.5 2.5-2.5 2.5 1.12 2.5 2.5zm-10 0c0 1.38-1.12 2.5-2.5 2.5s-2.5-1.12-2.5-2.5 1.12-2.5 2.5-2.5 2.5 1.12 2.5 2.5zm0-10.76c0 1.38-1.12 2.5-2.5 2.5s-2.5-1.12-2.5-2.5c0-1.4 1.12-2.5 2.5-2.5s2.5 1.1 2.5 2.5z" fill="#19967d"/><path d="M1200 878.25h180v21.53h-180z" fill="none"/><use xlink:href="#l" transform="matrix(1,0,0,1,1199.9999999999998,878.2534326421036) translate(0 14.6)"/><use xlink:href="#o" transform="matrix(1,0,0,1,1199.9999999999998,878.2534326421036) translate(68.9 14.6)"/><path d="M1200 800h180v21.52h-180z" fill="none"/><use xlink:href="#p" transform="matrix(1,0,0,1,1200,800) translate(0 14.6)"/><use xlink:href="#m" transform="matrix(1,0,0,1,1200,800) translate(73 14.6)"/><use xlink:href="#n" transform="matrix(1,0,0,1,1200,800) translate(97 14.6)"/><path d="M1140 800h40v21.52h-40z" stroke="#fcc438" stroke-width="5" fill-opacity="0"/><path d="M900 190h100v20H900z" stroke="#000" stroke-width="2" fill="#fff"/><path d="M720 520h260v75H720z" stroke="#333" stroke-width="2" fill="#ffbbb1"/><path d="M720 557.6h260" stroke="#333" stroke-width="2" fill="none"/><use xlink:href="#a" transform="matrix(1,0,0,1,728,528) translate(27.700000000000003 14.6)"/><use xlink:href="#q" transform="matrix(1,0,0,1,732,565.6) translate(0 14.4)"/><path d="M1149.18 398.92H1360v75h-210.82z" stroke="#333" stroke-width="2" fill="#ffbbb1"/><path d="M1149.18 436.52H1360" stroke="#333" stroke-width="2" fill="none"/><use xlink:href="#a" transform="matrix(1,0,0,1,1157.1803278688526,406.9166666666665) translate(3.200000000000003 14.6)"/><use xlink:href="#r" transform="matrix(1,0,0,1,1161.1803278688526,444.51666666666654) translate(0 14.4)"/><path d="M1149.18 634.94H1360v118h-210.82z" stroke="#333" stroke-width="2" fill="#c1e4f7"/><path d="M1149.18 672.54H1360" stroke="#333" stroke-width="2" fill="none"/><use xlink:href="#s" transform="matrix(1,0,0,1,1157.1803278688526,642.935919760045) translate(45.44999999999999 14.6)"/><use xlink:href="#d" transform="matrix(1,0,0,1,1161.1803278688526,680.535919760045) translate(0 14.4)"/><use xlink:href="#t" transform="matrix(1,0,0,1,1161.1803278688526,680.535919760045) translate(0 36)"/><use xlink:href="#g" transform="matrix(1,0,0,1,1161.1803278688526,680.535919760045) translate(0 57.6)"/><path d="M1255.6 520l104.4 38.04-104.4 38.04-104.4-38.04z" stroke="#000" stroke-width="2" fill="#c7e8ac"/><use xlink:href="#u" transform="matrix(1,0,0,1,1156.2074401008826,525) translate(43.980000000000004 37.43125)"/><path d="M1255.6 517.94v-24.52" stroke="#000" stroke-width="2" fill="none"/><path d="M1256.6 519.3l-1-.36-1 .36v-1.4h2z"/><path d="M1255.6 478.15l4.64 14.27h-9.27z" stroke="#000" stroke-width="2"/><path d="M1255.6 598.15v17.3" stroke="#000" stroke-width="2" fill="none"/><path d="M1256.6 598.17h-2v-1.4l1 .38 1-.37z"/><path d="M1255.6 630.7l-4.63-14.27h9.27z" stroke="#000" stroke-width="2"/><path d="M708.75 398.92l128.75 38.04L708.75 475 580 436.96z" stroke="#000" stroke-width="2" fill="#ffdba9"/><use xlink:href="#v" transform="matrix(1,0,0,1,585,403.9166666666665) translate(60.05 26.299999999999997)"/><use xlink:href="#w" transform="matrix(1,0,0,1,585,403.9166666666665) translate(35.349999999999994 47.9)"/><path d="M988.75 398.92l128.75 38.04L988.75 475 860 436.96z" stroke="#000" stroke-width="2" fill="#ffdba9"/><use xlink:href="#x" transform="matrix(1,0,0,1,865,403.9166666666665) translate(59.555 37.43125)"/><path d="M575.47 436.96H570" stroke="#000" stroke-width="2" fill="none"/><path d="M579.47 436.07l-3 .9 3 .87v.12h-4.02v-2h4.02z"/><path d="M554.74 436.96l14.27-4.64v9.27z" stroke="#000" stroke-width="2"/><path d="M709.5 476.7l35.84 30.34" stroke="#000" stroke-width="2" fill="none"/><path d="M708.75 476.04l1.15-.34.28.24-1.3 1.53-2.5-2.13z"/><path d="M757 516.9l-13.9-5.68 6-7.07z" stroke="#000" stroke-width="2"/><path d="M988.02 476.72l-31.9 29.68" stroke="#000" stroke-width="2" fill="none"/><path d="M988.68 477.47l-1.36-1.46.32-.3 1.1.34 2.16-.63z"/><path d="M944.95 516.8l7.3-13.12 6.3 6.8z" stroke="#000" stroke-width="2"/><path d="M1122.03 436.92l7.66-.3" stroke="#000" stroke-width="2" fill="none"/><path d="M1122.1 437.92l-4.03.16v-.24l2.96-.88-2.98-.88 3.96-.16z"/><path d="M1144.95 436l-14.07 5.2-.37-9.26z" stroke="#000" stroke-width="2"/><defs><path d="M33-154v-36h34v36H33zM33 0v-36h34V0H33" id="y"/><path d="M30-248c87 1 191-15 191 75 0 78-77 80-158 76V0H30v-248zm33 125c57 0 124 11 124-50 0-59-68-47-124-48v98" id="z"/><path d="M114-163C36-179 61-72 57 0H25l-1-190h30c1 12-1 29 2 39 6-27 23-49 58-41v29" id="A"/><path d="M24-231v-30h32v30H24zM24 0v-190h32V0H24" id="B"/><path d="M210-169c-67 3-38 105-44 169h-31v-121c0-29-5-50-35-48C34-165 62-65 56 0H25l-1-190h30c1 10-1 24 2 32 10-44 99-50 107 0 11-21 27-35 58-36 85-2 47 119 55 194h-31v-121c0-29-5-49-35-48" id="C"/><path d="M59-47c-2 24 18 29 38 22v24C64 9 27 4 27-40v-127H5v-23h24l9-43h21v43h35v23H59v120" id="D"/><path d="M108 0H70L1-190h34L89-25l56-165h34" id="E"/><path d="M100-194c63 0 86 42 84 106H49c0 40 14 67 53 68 26 1 43-12 49-29l28 8c-11 28-37 45-77 45C44 4 14-33 15-96c1-61 26-98 85-98zm52 81c6-60-76-77-97-28-3 7-6 17-6 28h103" id="F"/><path d="M143 4C61 4 22-44 18-125c-5-107 100-154 193-111 17 8 29 25 37 43l-32 9c-13-25-37-40-76-40-61 0-88 39-88 99 0 61 29 100 91 101 35 0 62-11 79-27v-45h-74v-28h105v86C228-13 192 4 143 4" id="G"/><path d="M141-36C126-15 110 5 73 4 37 3 15-17 15-53c-1-64 63-63 125-63 3-35-9-54-41-54-24 1-41 7-42 31l-33-3c5-37 33-52 76-52 45 0 72 20 72 64v82c-1 20 7 32 28 27v20c-31 9-61-2-59-35zM48-53c0 20 12 33 32 33 41-3 63-29 60-74-43 2-92-5-92 41" id="H"/><path d="M115-194c55 1 70 41 70 98S169 2 115 4C84 4 66-9 55-30l1 105H24l-1-265h31l2 30c10-21 28-34 59-34zm-8 174c40 0 45-34 45-75s-6-73-45-74c-42 0-51 32-51 76 0 43 10 73 51 73" id="I"/><path d="M106-169C34-169 62-67 57 0H25v-261h32l-1 103c12-21 28-36 61-36 89 0 53 116 60 194h-32v-121c2-32-8-49-39-48" id="J"/><path d="M96-169c-40 0-48 33-48 73s9 75 48 75c24 0 41-14 43-38l32 2c-6 37-31 61-74 61-59 0-76-41-82-99-10-93 101-131 147-64 4 7 5 14 7 22l-32 3c-4-21-16-35-41-35" id="K"/><path d="M140-251c81 0 123 46 123 126C263-46 219 4 140 4 59 4 17-45 17-125s42-126 123-126zm0 227c63 0 89-41 89-101s-29-99-89-99c-61 0-89 39-89 99S79-25 140-24" id="L"/><path d="M115-194c53 0 69 39 70 98 0 66-23 100-70 100C84 3 66-7 56-30L54 0H23l1-261h32v101c10-23 28-34 59-34zm-8 174c40 0 45-34 45-75 0-40-5-75-45-74-42 0-51 32-51 76 0 43 10 73 51 73" id="M"/><path d="M24-231v-30h32v30H24zM-9 49c24 4 33-6 33-30v-209h32V24c2 40-23 58-65 49V49" id="N"/><g id="a"><use transform="matrix(0.05,0,0,0.05,0,0)" xlink:href="#y"/><use transform="matrix(0.05,0,0,0.05,5,0)" xlink:href="#z"/><use transform="matrix(0.05,0,0,0.05,17,0)" xlink:href="#A"/><use transform="matrix(0.05,0,0,0.05,22.95,0)" xlink:href="#B"/><use transform="matrix(0.05,0,0,0.05,26.899999999999995,0)" xlink:href="#C"/><use transform="matrix(0.05,0,0,0.05,41.85,0)" xlink:href="#B"/><use transform="matrix(0.05,0,0,0.05,45.800000000000004,0)" xlink:href="#D"/><use transform="matrix(0.05,0,0,0.05,50.800000000000004,0)" xlink:href="#B"/><use transform="matrix(0.05,0,0,0.05,54.75,0)" xlink:href="#E"/><use transform="matrix(0.05,0,0,0.05,63.75,0)" xlink:href="#F"/><use transform="matrix(0.05,0,0,0.05,73.75,0)" xlink:href="#G"/><use transform="matrix(0.05,0,0,0.05,87.75,0)" xlink:href="#A"/><use transform="matrix(0.05,0,0,0.05,93.7,0)" xlink:href="#H"/><use transform="matrix(0.05,0,0,0.05,103.7,0)" xlink:href="#I"/><use transform="matrix(0.05,0,0,0.05,113.7,0)" xlink:href="#J"/><use transform="matrix(0.05,0,0,0.05,123.7,0)" xlink:href="#B"/><use transform="matrix(0.05,0,0,0.05,127.65,0)" xlink:href="#K"/><use transform="matrix(0.05,0,0,0.05,136.65,0)" xlink:href="#L"/><use transform="matrix(0.05,0,0,0.05,150.65,0)" xlink:href="#M"/><use transform="matrix(0.05,0,0,0.05,160.65,0)" xlink:href="#N"/><use transform="matrix(0.05,0,0,0.05,164.6,0)" xlink:href="#F"/><use transform="matrix(0.05,0,0,0.05,174.6,0)" xlink:href="#K"/><use transform="matrix(0.05,0,0,0.05,183.6,0)" xlink:href="#D"/></g><path fill="#333" d="M135-143c-3-34-86-38-87 0 15 53 115 12 119 90S17 21 10-45l28-5c4 36 97 45 98 0-10-56-113-15-118-90-4-57 82-63 122-42 12 7 21 19 24 35" id="O"/><path fill="#333" d="M106-169C34-169 62-67 57 0H25v-261h32l-1 103c12-21 28-36 61-36 89 0 53 116 60 194h-32v-121c2-32-8-49-39-48" id="P"/><path fill="#333" d="M141-36C126-15 110 5 73 4 37 3 15-17 15-53c-1-64 63-63 125-63 3-35-9-54-41-54-24 1-41 7-42 31l-33-3c5-37 33-52 76-52 45 0 72 20 72 64v82c-1 20 7 32 28 27v20c-31 9-61-2-59-35zM48-53c0 20 12 33 32 33 41-3 63-29 60-74-43 2-92-5-92 41" id="Q"/><path fill="#333" d="M115-194c55 1 70 41 70 98S169 2 115 4C84 4 66-9 55-30l1 105H24l-1-265h31l2 30c10-21 28-34 59-34zm-8 174c40 0 45-34 45-75s-6-73-45-74c-42 0-51 32-51 76 0 43 10 73 51 73" id="R"/><path fill="#333" d="M100-194c63 0 86 42 84 106H49c0 40 14 67 53 68 26 1 43-12 49-29l28 8c-11 28-37 45-77 45C44 4 14-33 15-96c1-61 26-98 85-98zm52 81c6-60-76-77-97-28-3 7-6 17-6 28h103" id="S"/><path fill="#333" d="M18-150v-26h174v26H18zm0 90v-26h174v26H18" id="T"/><path fill="#333" d="M212-179c-10-28-35-45-73-45-59 0-87 40-87 99 0 60 29 101 89 101 43 0 62-24 78-52l27 14C228-24 195 4 139 4 59 4 22-46 18-125c-6-104 99-153 187-111 19 9 31 26 39 46" id="U"/><path fill="#333" d="M24-231v-30h32v30H24zM24 0v-190h32V0H24" id="V"/><path fill="#333" d="M114-163C36-179 61-72 57 0H25l-1-190h30c1 12-1 29 2 39 6-27 23-49 58-41v29" id="W"/><path fill="#333" d="M96-169c-40 0-48 33-48 73s9 75 48 75c24 0 41-14 43-38l32 2c-6 37-31 61-74 61-59 0-76-41-82-99-10-93 101-131 147-64 4 7 5 14 7 22l-32 3c-4-21-16-35-41-35" id="X"/><path fill="#333" d="M24 0v-261h32V0H24" id="Y"/><path fill="#333" d="M87 75C49 33 22-17 22-94c0-76 28-126 65-167h31c-38 41-64 92-64 168S80 34 118 75H87" id="Z"/><path fill="#333" d="M33 0v-38h34V0H33" id="aa"/><path fill="#333" d="M33-261c38 41 65 92 65 168S71 34 33 75H2C39 34 66-17 66-93S39-220 2-261h31" id="ab"/><g id="b"><use transform="matrix(0.05,0,0,0.05,0,0)" xlink:href="#O"/><use transform="matrix(0.05,0,0,0.05,9,0)" xlink:href="#P"/><use transform="matrix(0.05,0,0,0.05,19,0)" xlink:href="#Q"/><use transform="matrix(0.05,0,0,0.05,29,0)" xlink:href="#R"/><use transform="matrix(0.05,0,0,0.05,39,0)" xlink:href="#S"/><use transform="matrix(0.05,0,0,0.05,49,0)" xlink:href="#T"/><use transform="matrix(0.05,0,0,0.05,59.5,0)" xlink:href="#U"/><use transform="matrix(0.05,0,0,0.05,72.45,0)" xlink:href="#V"/><use transform="matrix(0.05,0,0,0.05,76.4,0)" xlink:href="#W"/><use transform="matrix(0.05,0,0,0.05,82.35000000000001,0)" xlink:href="#X"/><use transform="matrix(0.05,0,0,0.05,91.35000000000001,0)" xlink:href="#Y"/><use transform="matrix(0.05,0,0,0.05,95.30000000000001,0)" xlink:href="#S"/><use transform="matrix(0.05,0,0,0.05,105.30000000000001,0)" xlink:href="#Z"/><use transform="matrix(0.05,0,0,0.05,111.25,0)" xlink:href="#aa"/><use transform="matrix(0.05,0,0,0.05,116.25,0)" xlink:href="#aa"/><use transform="matrix(0.05,0,0,0.05,121.25,0)" xlink:href="#aa"/><use transform="matrix(0.05,0,0,0.05,126.25,0)" xlink:href="#ab"/></g><path d="M24 0v-261h32V0H24" id="ac"/><g id="c"><use transform="matrix(0.05,0,0,0.05,0,0)" xlink:href="#y"/><use transform="matrix(0.05,0,0,0.05,5,0)" xlink:href="#z"/><use transform="matrix(0.05,0,0,0.05,17,0)" xlink:href="#ac"/><use transform="matrix(0.05,0,0,0.05,20.95,0)" xlink:href="#H"/><use transform="matrix(0.05,0,0,0.05,30.950000000000003,0)" xlink:href="#K"/><use transform="matrix(0.05,0,0,0.05,39.95,0)" xlink:href="#F"/></g><path fill="#333" d="M117-194c89-4 53 116 60 194h-32v-121c0-31-8-49-39-48C34-167 62-67 57 0H25l-1-190h30c1 10-1 24 2 32 11-22 29-35 61-36" id="ad"/><path fill="#333" d="M210-169c-67 3-38 105-44 169h-31v-121c0-29-5-50-35-48C34-165 62-65 56 0H25l-1-190h30c1 10-1 24 2 32 10-44 99-50 107 0 11-21 27-35 58-36 85-2 47 119 55 194h-31v-121c0-29-5-49-35-48" id="ae"/><path fill="#333" d="M84 4C-5 8 30-112 23-190h32v120c0 31 7 50 39 49 72-2 45-101 50-169h31l1 190h-30c-1-10 1-25-2-33-11 22-28 36-60 37" id="af"/><g id="d"><use transform="matrix(0.05,0,0,0.05,0,0)" xlink:href="#ad"/><use transform="matrix(0.05,0,0,0.05,10,0)" xlink:href="#Q"/><use transform="matrix(0.05,0,0,0.05,20,0)" xlink:href="#ae"/><use transform="matrix(0.05,0,0,0.05,34.95,0)" xlink:href="#S"/><use transform="matrix(0.05,0,0,0.05,44.95,0)" xlink:href="#T"/><use transform="matrix(0.05,0,0,0.05,55.45,0)" xlink:href="#ad"/><use transform="matrix(0.05,0,0,0.05,65.45,0)" xlink:href="#af"/><use transform="matrix(0.05,0,0,0.05,75.45,0)" xlink:href="#Y"/><use transform="matrix(0.05,0,0,0.05,79.4,0)" xlink:href="#Y"/></g><path fill="#333" d="M59-47c-2 24 18 29 38 22v24C64 9 27 4 27-40v-127H5v-23h24l9-43h21v43h35v23H59v120" id="ag"/><path fill="#333" d="M100-194c62-1 85 37 85 99 1 63-27 99-86 99S16-35 15-95c0-66 28-99 85-99zM99-20c44 1 53-31 53-75 0-43-8-75-51-75s-53 32-53 75 10 74 51 75" id="ah"/><path fill="#333" d="M143 0L79-87 56-68V0H24v-261h32v163l83-92h37l-77 82L181 0h-38" id="ai"/><path fill="#333" d="M101-251c68 0 85 55 85 127S166 4 100 4C33 4 14-52 14-124c0-73 17-127 87-127zm-1 229c47 0 54-49 54-102s-4-102-53-102c-51 0-55 48-55 102 0 53 5 102 54 102" id="aj"/><g id="e"><use transform="matrix(0.05,0,0,0.05,0,0)" xlink:href="#ag"/><use transform="matrix(0.05,0,0,0.05,5,0)" xlink:href="#ah"/><use transform="matrix(0.05,0,0,0.05,15,0)" xlink:href="#ai"/><use transform="matrix(0.05,0,0,0.05,24,0)" xlink:href="#S"/><use transform="matrix(0.05,0,0,0.05,34,0)" xlink:href="#ad"/><use transform="matrix(0.05,0,0,0.05,44,0)" xlink:href="#O"/><use transform="matrix(0.05,0,0,0.05,53,0)" xlink:href="#T"/><use transform="matrix(0.05,0,0,0.05,63.5,0)" xlink:href="#aj"/></g><path fill="#333" d="M177-190C167-65 218 103 67 71c-23-6-38-20-44-43l32-5c15 47 100 32 89-28v-30C133-14 115 1 83 1 29 1 15-40 15-95c0-56 16-97 71-98 29-1 48 16 59 35 1-10 0-23 2-32h30zM94-22c36 0 50-32 50-73 0-42-14-75-50-75-39 0-46 34-46 75s6 73 46 73" id="ak"/><path fill="#333" d="M26 75v-336h71v23H56V52h41v23H26" id="al"/><path fill="#333" d="M127-220V0H93v-220H8v-28h204v28h-85" id="am"/><path fill="#333" d="M27 0v-27h64v-190l-56 39v-29l58-41h29v221h61V0H27" id="an"/><path fill="#333" d="M3 75V52h41v-290H3v-23h71V75H3" id="ao"/><g id="f"><use transform="matrix(0.05,0,0,0.05,0,0)" xlink:href="#V"/><use transform="matrix(0.05,0,0,0.05,3.95,0)" xlink:href="#ad"/><use transform="matrix(0.05,0,0,0.05,13.949999999999998,0)" xlink:href="#X"/><use transform="matrix(0.05,0,0,0.05,22.95,0)" xlink:href="#ah"/><use transform="matrix(0.05,0,0,0.05,32.95,0)" xlink:href="#ae"/><use transform="matrix(0.05,0,0,0.05,47.900000000000006,0)" xlink:href="#V"/><use transform="matrix(0.05,0,0,0.05,51.85,0)" xlink:href="#ad"/><use transform="matrix(0.05,0,0,0.05,61.85,0)" xlink:href="#ak"/><use transform="matrix(0.05,0,0,0.05,71.85000000000001,0)" xlink:href="#T"/><use transform="matrix(0.05,0,0,0.05,82.35000000000001,0)" xlink:href="#al"/><use transform="matrix(0.05,0,0,0.05,87.35000000000001,0)" xlink:href="#am"/><use transform="matrix(0.05,0,0,0.05,98.30000000000001,0)" xlink:href="#an"/><use transform="matrix(0.05,0,0,0.05,108.30000000000001,0)" xlink:href="#ao"/></g><g id="g"><use transform="matrix(0.05,0,0,0.05,0,0)" xlink:href="#ah"/><use transform="matrix(0.05,0,0,0.05,10,0)" xlink:href="#af"/><use transform="matrix(0.05,0,0,0.05,20,0)" xlink:href="#ag"/><use transform="matrix(0.05,0,0,0.05,25,0)" xlink:href="#ak"/><use transform="matrix(0.05,0,0,0.05,35,0)" xlink:href="#ah"/><use transform="matrix(0.05,0,0,0.05,45,0)" xlink:href="#V"/><use transform="matrix(0.05,0,0,0.05,48.95,0)" xlink:href="#ad"/><use transform="matrix(0.05,0,0,0.05,58.95,0)" xlink:href="#ak"/><use transform="matrix(0.05,0,0,0.05,68.95,0)" xlink:href="#T"/><use transform="matrix(0.05,0,0,0.05,79.45,0)" xlink:href="#al"/><use transform="matrix(0.05,0,0,0.05,84.45,0)" xlink:href="#ao"/></g><path d="M30-248c118-7 216 8 213 122C240-48 200 0 122 0H30v-248zM63-27c89 8 146-16 146-99s-60-101-146-95v194" id="ap"/><path d="M240 0l2-218c-23 76-54 145-80 218h-23L58-218 59 0H30v-248h44l77 211c21-75 51-140 76-211h43V0h-30" id="aq"/><g id="h"><use transform="matrix(0.05,0,0,0.05,0,0)" xlink:href="#y"/><use transform="matrix(0.05,0,0,0.05,5,0)" xlink:href="#z"/><use transform="matrix(0.05,0,0,0.05,17,0)" xlink:href="#ac"/><use transform="matrix(0.05,0,0,0.05,20.95,0)" xlink:href="#H"/><use transform="matrix(0.05,0,0,0.05,30.950000000000003,0)" xlink:href="#K"/><use transform="matrix(0.05,0,0,0.05,39.95,0)" xlink:href="#F"/><use transform="matrix(0.05,0,0,0.05,49.95,0)" xlink:href="#ap"/><use transform="matrix(0.05,0,0,0.05,62.900000000000006,0)" xlink:href="#aq"/></g><g id="i"><use transform="matrix(0.05,0,0,0.05,0,0)" xlink:href="#G"/><use transform="matrix(0.05,0,0,0.05,14,0)" xlink:href="#A"/><use transform="matrix(0.05,0,0,0.05,19.95,0)" xlink:href="#H"/><use transform="matrix(0.05,0,0,0.05,29.950000000000003,0)" xlink:href="#I"/><use transform="matrix(0.05,0,0,0.05,39.95,0)" xlink:href="#J"/><use transform="matrix(0.05,0,0,0.05,49.95,0)" xlink:href="#B"/><use transform="matrix(0.05,0,0,0.05,53.900000000000006,0)" xlink:href="#K"/><use transform="matrix(0.05,0,0,0.05,62.900000000000006,0)" xlink:href="#H"/><use transform="matrix(0.05,0,0,0.05,72.9,0)" xlink:href="#ac"/></g><path d="M185-189c-5-48-123-54-124 2 14 75 158 14 163 119 3 78-121 87-175 55-17-10-28-26-33-46l33-7c5 56 141 63 141-1 0-78-155-14-162-118-5-82 145-84 179-34 5 7 8 16 11 25" id="ar"/><g id="j"><use transform="matrix(0.05,0,0,0.05,0,0)" xlink:href="#ar"/><use transform="matrix(0.05,0,0,0.05,12,0)" xlink:href="#D"/><use transform="matrix(0.05,0,0,0.05,17,0)" xlink:href="#H"/><use transform="matrix(0.05,0,0,0.05,27,0)" xlink:href="#D"/><use transform="matrix(0.05,0,0,0.05,32,0)" xlink:href="#F"/></g><path d="M179-190L93 31C79 59 56 82 12 73V49c39 6 53-20 64-50L1-190h34L92-34l54-156h33" id="as"/><path d="M117-194c89-4 53 116 60 194h-32v-121c0-31-8-49-39-48C34-167 62-67 57 0H25l-1-190h30c1 10-1 24 2 32 11-22 29-35 61-36" id="at"/><path d="M100-194c62-1 85 37 85 99 1 63-27 99-86 99S16-35 15-95c0-66 28-99 85-99zM99-20c44 1 53-31 53-75 0-43-8-75-51-75s-53 32-53 75 10 74 51 75" id="au"/><path d="M135-143c-3-34-86-38-87 0 15 53 115 12 119 90S17 21 10-45l28-5c4 36 97 45 98 0-10-56-113-15-118-90-4-57 82-63 122-42 12 7 21 19 24 35" id="av"/><g id="k"><use transform="matrix(0.05,0,0,0.05,0,0)" xlink:href="#z"/><use transform="matrix(0.05,0,0,0.05,12,0)" xlink:href="#ac"/><use transform="matrix(0.05,0,0,0.05,15.949999999999998,0)" xlink:href="#H"/><use transform="matrix(0.05,0,0,0.05,25.950000000000003,0)" xlink:href="#K"/><use transform="matrix(0.05,0,0,0.05,34.95,0)" xlink:href="#F"/><use transform="matrix(0.05,0,0,0.05,44.95,0)" xlink:href="#ar"/><use transform="matrix(0.05,0,0,0.05,56.95,0)" xlink:href="#as"/><use transform="matrix(0.05,0,0,0.05,65.95,0)" xlink:href="#at"/><use transform="matrix(0.05,0,0,0.05,75.95,0)" xlink:href="#K"/><use transform="matrix(0.05,0,0,0.05,84.95,0)" xlink:href="#z"/><use transform="matrix(0.05,0,0,0.05,96.95,0)" xlink:href="#A"/><use transform="matrix(0.05,0,0,0.05,102.9,0)" xlink:href="#au"/><use transform="matrix(0.05,0,0,0.05,112.9,0)" xlink:href="#K"/><use transform="matrix(0.05,0,0,0.05,121.9,0)" xlink:href="#F"/><use transform="matrix(0.05,0,0,0.05,131.9,0)" xlink:href="#av"/><use transform="matrix(0.05,0,0,0.05,140.9,0)" xlink:href="#av"/><use transform="matrix(0.05,0,0,0.05,149.9,0)" xlink:href="#au"/><use transform="matrix(0.05,0,0,0.05,159.9,0)" xlink:href="#A"/></g><path d="M85-194c31 0 48 13 60 33l-1-100h32l1 261h-30c-2-10 0-23-3-31C134-8 116 4 85 4 32 4 16-35 15-94c0-66 23-100 70-100zm9 24c-40 0-46 34-46 75 0 40 6 74 45 74 42 0 51-32 51-76 0-42-9-74-50-73" id="aw"/><g id="l"><use transform="matrix(0.05,0,0,0.05,0,0)" xlink:href="#B"/><use transform="matrix(0.05,0,0,0.05,3.95,0)" xlink:href="#at"/><use transform="matrix(0.05,0,0,0.05,13.949999999999998,0)" xlink:href="#av"/><use transform="matrix(0.05,0,0,0.05,22.95,0)" xlink:href="#F"/><use transform="matrix(0.05,0,0,0.05,32.95,0)" xlink:href="#A"/><use transform="matrix(0.05,0,0,0.05,38.900000000000006,0)" xlink:href="#D"/><use transform="matrix(0.05,0,0,0.05,43.900000000000006,0)" xlink:href="#F"/><use transform="matrix(0.05,0,0,0.05,53.900000000000006,0)" xlink:href="#aw"/></g><g id="m"><use transform="matrix(0.05,0,0,0.05,0,0)" xlink:href="#M"/><use transform="matrix(0.05,0,0,0.05,10,0)" xlink:href="#as"/></g><g id="n"><use transform="matrix(0.05,0,0,0.05,0,0)" xlink:href="#z"/><use transform="matrix(0.05,0,0,0.05,12,0)" xlink:href="#A"/><use transform="matrix(0.05,0,0,0.05,17.95,0)" xlink:href="#au"/><use transform="matrix(0.05,0,0,0.05,27.950000000000003,0)" xlink:href="#K"/><use transform="matrix(0.05,0,0,0.05,36.95,0)" xlink:href="#F"/><use transform="matrix(0.05,0,0,0.05,46.95,0)" xlink:href="#av"/><use transform="matrix(0.05,0,0,0.05,55.95,0)" xlink:href="#av"/><use transform="matrix(0.05,0,0,0.05,64.95,0)" xlink:href="#au"/><use transform="matrix(0.05,0,0,0.05,74.95,0)" xlink:href="#A"/></g><path d="M141 0L90-78 38 0H4l68-98-65-92h35l48 74 47-74h35l-64 92 68 98h-35" id="ax"/><g id="o"><use transform="matrix(0.05,0,0,0.05,0,0)" xlink:href="#F"/><use transform="matrix(0.05,0,0,0.05,10,0)" xlink:href="#ax"/><use transform="matrix(0.05,0,0,0.05,19,0)" xlink:href="#D"/><use transform="matrix(0.05,0,0,0.05,24,0)" xlink:href="#F"/><use transform="matrix(0.05,0,0,0.05,34,0)" xlink:href="#A"/><use transform="matrix(0.05,0,0,0.05,39.95,0)" xlink:href="#at"/><use transform="matrix(0.05,0,0,0.05,49.95,0)" xlink:href="#H"/><use transform="matrix(0.05,0,0,0.05,59.95,0)" xlink:href="#ac"/><use transform="matrix(0.05,0,0,0.05,63.900000000000006,0)" xlink:href="#ac"/><use transform="matrix(0.05,0,0,0.05,67.85000000000001,0)" xlink:href="#as"/></g><path d="M177-190C167-65 218 103 67 71c-23-6-38-20-44-43l32-5c15 47 100 32 89-28v-30C133-14 115 1 83 1 29 1 15-40 15-95c0-56 16-97 71-98 29-1 48 16 59 35 1-10 0-23 2-32h30zM94-22c36 0 50-32 50-73 0-42-14-75-50-75-39 0-46 34-46 75s6 73 46 73" id="ay"/><g id="p"><use transform="matrix(0.05,0,0,0.05,0,0)" xlink:href="#K"/><use transform="matrix(0.05,0,0,0.05,9,0)" xlink:href="#J"/><use transform="matrix(0.05,0,0,0.05,19,0)" xlink:href="#H"/><use transform="matrix(0.05,0,0,0.05,29,0)" xlink:href="#at"/><use transform="matrix(0.05,0,0,0.05,39,0)" xlink:href="#ay"/><use transform="matrix(0.05,0,0,0.05,49,0)" xlink:href="#F"/><use transform="matrix(0.05,0,0,0.05,59,0)" xlink:href="#av"/></g><path fill="#333" d="M30 0v-248h33v221h125V0H30" id="az"/><g id="q"><use transform="matrix(0.05,0,0,0.05,0,0)" xlink:href="#O"/><use transform="matrix(0.05,0,0,0.05,9,0)" xlink:href="#P"/><use transform="matrix(0.05,0,0,0.05,19,0)" xlink:href="#Q"/><use transform="matrix(0.05,0,0,0.05,29,0)" xlink:href="#R"/><use transform="matrix(0.05,0,0,0.05,39,0)" xlink:href="#S"/><use transform="matrix(0.05,0,0,0.05,49,0)" xlink:href="#T"/><use transform="matrix(0.05,0,0,0.05,59.5,0)" xlink:href="#az"/><use transform="matrix(0.05,0,0,0.05,69.5,0)" xlink:href="#V"/><use transform="matrix(0.05,0,0,0.05,73.45,0)" xlink:href="#ad"/><use transform="matrix(0.05,0,0,0.05,83.45,0)" xlink:href="#S"/><use transform="matrix(0.05,0,0,0.05,93.45,0)" xlink:href="#Z"/><use transform="matrix(0.05,0,0,0.05,99.4,0)" xlink:href="#aa"/><use transform="matrix(0.05,0,0,0.05,104.4,0)" xlink:href="#aa"/><use transform="matrix(0.05,0,0,0.05,109.4,0)" xlink:href="#aa"/><use transform="matrix(0.05,0,0,0.05,114.4,0)" xlink:href="#ab"/></g><path fill="#333" d="M233-177c-1 41-23 64-60 70L243 0h-38l-65-103H63V0H30v-248c88 3 205-21 203 71zM63-129c60-2 137 13 137-47 0-61-80-42-137-45v92" id="aA"/><g id="r"><use transform="matrix(0.05,0,0,0.05,0,0)" xlink:href="#O"/><use transform="matrix(0.05,0,0,0.05,9,0)" xlink:href="#P"/><use transform="matrix(0.05,0,0,0.05,19,0)" xlink:href="#Q"/><use transform="matrix(0.05,0,0,0.05,29,0)" xlink:href="#R"/><use transform="matrix(0.05,0,0,0.05,39,0)" xlink:href="#S"/><use transform="matrix(0.05,0,0,0.05,49,0)" xlink:href="#T"/><use transform="matrix(0.05,0,0,0.05,59.5,0)" xlink:href="#aA"/><use transform="matrix(0.05,0,0,0.05,72.45,0)" xlink:href="#S"/><use transform="matrix(0.05,0,0,0.05,82.45,0)" xlink:href="#X"/><use transform="matrix(0.05,0,0,0.05,91.45,0)" xlink:href="#ag"/><use transform="matrix(0.05,0,0,0.05,96.45,0)" xlink:href="#Q"/><use transform="matrix(0.05,0,0,0.05,106.45,0)" xlink:href="#ad"/><use transform="matrix(0.05,0,0,0.05,116.45,0)" xlink:href="#ak"/><use transform="matrix(0.05,0,0,0.05,126.45,0)" xlink:href="#Y"/><use transform="matrix(0.05,0,0,0.05,130.4,0)" xlink:href="#S"/><use transform="matrix(0.05,0,0,0.05,140.4,0)" xlink:href="#Z"/><use transform="matrix(0.05,0,0,0.05,146.35,0)" xlink:href="#aa"/><use transform="matrix(0.05,0,0,0.05,151.35,0)" xlink:href="#aa"/><use transform="matrix(0.05,0,0,0.05,156.35,0)" xlink:href="#aa"/><use transform="matrix(0.05,0,0,0.05,161.35,0)" xlink:href="#ab"/></g><path d="M127-220V0H93v-220H8v-28h204v28h-85" id="aB"/><path d="M27 0v-27h64v-190l-56 39v-29l58-41h29v221h61V0H27" id="aC"/><g id="s"><use transform="matrix(0.05,0,0,0.05,0,0)" xlink:href="#aB"/><use transform="matrix(0.05,0,0,0.05,10.950000000000001,0)" xlink:href="#aC"/><use transform="matrix(0.05,0,0,0.05,20.950000000000003,0)" xlink:href="#y"/><use transform="matrix(0.05,0,0,0.05,25.950000000000003,0)" xlink:href="#aB"/><use transform="matrix(0.05,0,0,0.05,36.25000000000001,0)" xlink:href="#A"/><use transform="matrix(0.05,0,0,0.05,42.20000000000001,0)" xlink:href="#H"/><use transform="matrix(0.05,0,0,0.05,52.20000000000002,0)" xlink:href="#at"/><use transform="matrix(0.05,0,0,0.05,62.20000000000002,0)" xlink:href="#av"/><use transform="matrix(0.05,0,0,0.05,71.20000000000002,0)" xlink:href="#B"/><use transform="matrix(0.05,0,0,0.05,75.15000000000002,0)" xlink:href="#D"/><use transform="matrix(0.05,0,0,0.05,80.15000000000002,0)" xlink:href="#B"/><use transform="matrix(0.05,0,0,0.05,84.10000000000002,0)" xlink:href="#au"/><use transform="matrix(0.05,0,0,0.05,94.10000000000002,0)" xlink:href="#at"/></g><g id="t"><use transform="matrix(0.05,0,0,0.05,0,0)" xlink:href="#V"/><use transform="matrix(0.05,0,0,0.05,3.95,0)" xlink:href="#ad"/><use transform="matrix(0.05,0,0,0.05,13.949999999999998,0)" xlink:href="#X"/><use transform="matrix(0.05,0,0,0.05,22.95,0)" xlink:href="#ah"/><use transform="matrix(0.05,0,0,0.05,32.95,0)" xlink:href="#ae"/><use transform="matrix(0.05,0,0,0.05,47.900000000000006,0)" xlink:href="#V"/><use transform="matrix(0.05,0,0,0.05,51.85,0)" xlink:href="#ad"/><use transform="matrix(0.05,0,0,0.05,61.85,0)" xlink:href="#ak"/><use transform="matrix(0.05,0,0,0.05,71.85000000000001,0)" xlink:href="#T"/><use transform="matrix(0.05,0,0,0.05,82.35000000000001,0)" xlink:href="#al"/><use transform="matrix(0.05,0,0,0.05,87.35000000000001,0)" xlink:href="#ao"/></g><g id="u"><use transform="matrix(0.05,0,0,0.05,0,0)" xlink:href="#y"/><use transform="matrix(0.05,0,0,0.05,5,0)" xlink:href="#aB"/><use transform="matrix(0.05,0,0,0.05,15.3,0)" xlink:href="#A"/><use transform="matrix(0.05,0,0,0.05,21.25,0)" xlink:href="#H"/><use transform="matrix(0.05,0,0,0.05,31.25,0)" xlink:href="#at"/><use transform="matrix(0.05,0,0,0.05,41.25,0)" xlink:href="#av"/><use transform="matrix(0.05,0,0,0.05,50.25,0)" xlink:href="#B"/><use transform="matrix(0.05,0,0,0.05,54.2,0)" xlink:href="#D"/><use transform="matrix(0.05,0,0,0.05,59.2,0)" xlink:href="#B"/><use transform="matrix(0.05,0,0,0.05,63.150000000000006,0)" xlink:href="#au"/><use transform="matrix(0.05,0,0,0.05,73.15,0)" xlink:href="#at"/><use transform="matrix(0.05,0,0,0.05,83.15,0)" xlink:href="#ap"/><use transform="matrix(0.05,0,0,0.05,96.10000000000001,0)" xlink:href="#aq"/></g><path d="M212-179c-10-28-35-45-73-45-59 0-87 40-87 99 0 60 29 101 89 101 43 0 62-24 78-52l27 14C228-24 195 4 139 4 59 4 22-46 18-125c-6-104 99-153 187-111 19 9 31 26 39 46" id="aD"/><path d="M30 0v-248h187v28H63v79h144v27H63v87h162V0H30" id="aE"/><g id="v"><use transform="matrix(0.05,0,0,0.05,0,0)" xlink:href="#y"/><use transform="matrix(0.05,0,0,0.05,5,0)" xlink:href="#aD"/><use transform="matrix(0.05,0,0,0.05,17.950000000000003,0)" xlink:href="#au"/><use transform="matrix(0.05,0,0,0.05,27.950000000000003,0)" xlink:href="#at"/><use transform="matrix(0.05,0,0,0.05,37.95,0)" xlink:href="#at"/><use transform="matrix(0.05,0,0,0.05,47.95,0)" xlink:href="#F"/><use transform="matrix(0.05,0,0,0.05,57.95,0)" xlink:href="#K"/><use transform="matrix(0.05,0,0,0.05,66.95,0)" xlink:href="#D"/><use transform="matrix(0.05,0,0,0.05,71.95,0)" xlink:href="#B"/><use transform="matrix(0.05,0,0,0.05,75.9,0)" xlink:href="#au"/><use transform="matrix(0.05,0,0,0.05,85.9,0)" xlink:href="#at"/><use transform="matrix(0.05,0,0,0.05,95.9,0)" xlink:href="#aE"/><use transform="matrix(0.05,0,0,0.05,107.9,0)" xlink:href="#at"/><use transform="matrix(0.05,0,0,0.05,117.9,0)" xlink:href="#aw"/></g><path d="M18-150v-26h174v26H18zm0 90v-26h174v26H18" id="aF"/><path d="M84 4C-5 8 30-112 23-190h32v120c0 31 7 50 39 49 72-2 45-101 50-169h31l1 190h-30c-1-10 1-25-2-33-11 22-28 36-60 37" id="aG"/><g id="w"><use transform="matrix(0.05,0,0,0.05,0,0)" xlink:href="#B"/><use transform="matrix(0.05,0,0,0.05,3.95,0)" xlink:href="#av"/><use transform="matrix(0.05,0,0,0.05,12.949999999999998,0)" xlink:href="#aE"/><use transform="matrix(0.05,0,0,0.05,24.95,0)" xlink:href="#at"/><use transform="matrix(0.05,0,0,0.05,34.95,0)" xlink:href="#aw"/><use transform="matrix(0.05,0,0,0.05,44.95,0)" xlink:href="#aD"/><use transform="matrix(0.05,0,0,0.05,57.900000000000006,0)" xlink:href="#au"/><use transform="matrix(0.05,0,0,0.05,67.9,0)" xlink:href="#at"/><use transform="matrix(0.05,0,0,0.05,77.9,0)" xlink:href="#at"/><use transform="matrix(0.05,0,0,0.05,87.9,0)" xlink:href="#F"/><use transform="matrix(0.05,0,0,0.05,97.9,0)" xlink:href="#K"/><use transform="matrix(0.05,0,0,0.05,106.9,0)" xlink:href="#D"/><use transform="matrix(0.05,0,0,0.05,111.9,0)" xlink:href="#B"/><use transform="matrix(0.05,0,0,0.05,115.85000000000001,0)" xlink:href="#au"/><use transform="matrix(0.05,0,0,0.05,125.85000000000001,0)" xlink:href="#at"/><use transform="matrix(0.05,0,0,0.05,135.85000000000002,0)" xlink:href="#aF"/><use transform="matrix(0.05,0,0,0.05,146.35000000000002,0)" xlink:href="#D"/><use transform="matrix(0.05,0,0,0.05,151.35000000000002,0)" xlink:href="#A"/><use transform="matrix(0.05,0,0,0.05,157.3,0)" xlink:href="#aG"/><use transform="matrix(0.05,0,0,0.05,167.3,0)" xlink:href="#F"/></g><g id="x"><use transform="matrix(0.05,0,0,0.05,0,0)" xlink:href="#y"/><use transform="matrix(0.05,0,0,0.05,5,0)" xlink:href="#aD"/><use transform="matrix(0.05,0,0,0.05,17.950000000000003,0)" xlink:href="#au"/><use transform="matrix(0.05,0,0,0.05,27.950000000000003,0)" xlink:href="#at"/><use transform="matrix(0.05,0,0,0.05,37.95,0)" xlink:href="#at"/><use transform="matrix(0.05,0,0,0.05,47.95,0)" xlink:href="#F"/><use transform="matrix(0.05,0,0,0.05,57.95,0)" xlink:href="#K"/><use transform="matrix(0.05,0,0,0.05,66.95,0)" xlink:href="#D"/><use transform="matrix(0.05,0,0,0.05,71.95,0)" xlink:href="#B"/><use transform="matrix(0.05,0,0,0.05,75.9,0)" xlink:href="#au"/><use transform="matrix(0.05,0,0,0.05,85.9,0)" xlink:href="#at"/><use transform="matrix(0.05,0,0,0.05,95.9,0)" xlink:href="#aE"/><use transform="matrix(0.05,0,0,0.05,107.9,0)" xlink:href="#at"/><use transform="matrix(0.05,0,0,0.05,117.9,0)" xlink:href="#aw"/></g></defs></g></svg>