<svg xmlns="http://www.w3.org/2000/svg" xmlns:xlink="http://www.w3.org/1999/xlink" xmlns:lucid="lucid" width="600" height="169.88"><g transform="translate(-619.0118207345241 -470.11820734524076)" lucid:page-tab-id="a-ZBa3lgYFqe"><path d="M856 540c-8.84 0-16 7.16-16 16v48c0 8.84 7.16 16 16 16h128c8.84 0 16-7.16 16-16v-48c0-8.84-7.16-16-16-16z" stroke="#000" stroke-width="2" fill="#fff"/><path d="M799 530.12h240v60H799z" stroke="#000" stroke-opacity="0" stroke-width="2" fill="#fff" fill-opacity="0"/><use xlink:href="#a" transform="matrix(1,0,0,1,804.0118207345241,535.1182073452408) translate(109 30.025)"/><path d="M801 530.12h218.5" stroke="#000" stroke-width="2" fill="none"/><path d="M801.04 531.12H800v-2h1.04z"/><path d="M1034.78 530.12l-14.27 4.63v-9.27z" stroke="#000" stroke-width="2"/><path d="M655 490.12c-8.82 0-16 7.16-16 16v48c0 8.83 7.18 16 16 16h128c8.85 0 16-7.17 16-16v-48c0-8.84-7.15-16-16-16z" stroke="#000" stroke-width="2" fill="#fff"/><use xlink:href="#b" transform="matrix(1,0,0,1,647.0118207345241,498.11820734524076) translate(66 35.6)"/><path d="M1055 490.12c-8.82 0-16 7.16-16 16v48c0 8.83 7.18 16 16 16h128c8.85 0 16-7.17 16-16v-48c0-8.84-7.15-16-16-16z" stroke="#000" stroke-width="2" fill="#fff"/><use xlink:href="#c" transform="matrix(1,0,0,1,1047.011820734524,498.11820734524076) translate(65.525 35.6)"/><defs><path d="M205 0l-28-72H64L36 0H1l101-248h38L239 0h-34zm-38-99l-47-123c-12 45-31 82-46 123h93" id="d"/><use transform="matrix(0.05,0,0,0.05,0,0)" xlink:href="#d" id="a"/><path d="M160-131c35 5 61 23 61 61C221 17 115-2 30 0v-248c76 3 177-17 177 60 0 33-19 50-47 57zm-97-11c50-1 110 9 110-42 0-47-63-36-110-37v79zm0 115c55-2 124 14 124-45 0-56-70-42-124-44v89" id="e"/><use transform="matrix(0.05,0,0,0.05,0,0)" xlink:href="#e" id="b"/><path d="M212-179c-10-28-35-45-73-45-59 0-87 40-87 99 0 60 29 101 89 101 43 0 62-24 78-52l27 14C228-24 195 4 139 4 59 4 22-46 18-125c-6-104 99-153 187-111 19 9 31 26 39 46" id="f"/><use transform="matrix(0.05,0,0,0.05,0,0)" xlink:href="#f" id="c"/></defs></g></svg>