<svg xmlns="http://www.w3.org/2000/svg" xmlns:xlink="http://www.w3.org/1999/xlink" xmlns:lucid="lucid" width="1020" height="578"><g transform="translate(-160 -260)" lucid:page-tab-id="04Sx8Uo55a9l"><path d="M433 558c-28.72 0-52 23.28-52 52v156c0 28.72 23.28 52 52 52h316c28.72 0 52-23.28 52-52V610c0-28.72-23.28-52-52-52z" stroke="#000" stroke-width="2" fill="#fff"/><path d="M220 320c0 11.05-8.95 20-20 20s-20-8.95-20-20 8.95-20 20-20 20 8.95 20 20z" stroke="#000" stroke-width="2"/><path d="M356 280c-8.84 0-16 7.16-16 16v48c0 8.84 7.16 16 16 16h128c8.84 0 16-7.16 16-16v-48c0-8.84-7.16-16-16-16z" stroke="#000" stroke-width="2" fill="#fff"/><use xlink:href="#a" transform="matrix(1,0,0,1,348,288) translate(66 35.6)"/><path d="M222 320h98.5" stroke="#000" stroke-width="2" fill="none"/><path d="M222.03 321h-1.15l.12-.96-.03-1.04h1.06z"/><path d="M335.76 320l-14.26 4.64v-9.28z" stroke="#000" stroke-width="2"/><use xlink:href="#b" transform="matrix(1,0,0,1,238.47403955535705,294.4) translate(0 14.4)"/><use xlink:href="#c" transform="matrix(1,0,0,1,238.47403955535705,294.4) translate(35.95 14.4)"/><path d="M1160 390c0 11.05-8.95 20-20 20s-20-8.95-20-20 8.95-20 20-20 20 8.95 20 20z" stroke="#000" stroke-width="2" fill="#fff"/><path d="M1152 390c0 6.63-5.37 12-12 12s-12-5.37-12-12 5.37-12 12-12 12 5.37 12 12z" stroke="#000" stroke-width="2"/><path d="M684 280c-24.3 0-44 19.7-44 44v132c0 24.3 19.7 44 44 44h312c24.3 0 44-19.7 44-44V324c0-24.3-19.7-44-44-44z" stroke="#000" stroke-width="2" fill="#fff"/><path d="M720 280h240v60H720z" stroke="#000" stroke-opacity="0" stroke-width="2" fill="#fff" fill-opacity="0"/><use xlink:href="#d" transform="matrix(1,0,0,1,725,285) translate(109 30.025)"/><path d="M527 718c-8.84 0-16 7.16-16 16v48c0 8.84 7.16 16 16 16h128c8.84 0 16-7.16 16-16v-48c0-8.84-7.16-16-16-16z" stroke="#000" stroke-width="2" fill="#fff"/><use xlink:href="#e" transform="matrix(1,0,0,1,519,726) translate(66.525 35.6)"/><path d="M471 758c0 11.05-8.95 20-20 20s-20-8.95-20-20 8.95-20 20-20 20 8.95 20 20z" stroke="#000" stroke-width="2"/><path d="M473 758h18.5" stroke="#000" stroke-width="2" fill="none"/><path d="M473.03 759h-1.15l.12-.96-.03-1.04h1.06z"/><path d="M506.76 758l-14.26 4.64v-9.28z" stroke="#000" stroke-width="2"/><path d="M751 758c0 11.05-8.95 20-20 20s-20-8.95-20-20 8.95-20 20-20 20 8.95 20 20z" stroke="#000" stroke-width="2" fill="#fff"/><path d="M743 758c0 6.63-5.37 12-12 12s-12-5.37-12-12 5.37-12 12-12 12 5.37 12 12z" stroke="#000" stroke-width="2"/><path d="M673 758h18.5" stroke="#000" stroke-width="2" fill="none"/><path d="M673.03 759H672v-2h1.03z"/><path d="M706.76 758l-14.26 4.64v-9.28z" stroke="#000" stroke-width="2"/><path d="M1042 390h58.5" stroke="#000" stroke-width="2" fill="none"/><path d="M1042.03 391H1041v-2h1.03z"/><path d="M1115.76 390l-14.26 4.64v-9.28z" stroke="#000" stroke-width="2"/><path d="M502 320h68v70h50.5" stroke="#000" stroke-width="2" fill="none"/><path d="M502.03 321H501v-2h1.03z"/><path d="M635.76 390l-14.26 4.64v-9.28z" stroke="#000" stroke-width="2"/><use xlink:href="#f" transform="matrix(1,0,0,1,521.1015666072369,294.4) translate(0 14.4)"/><use xlink:href="#g" transform="matrix(1,0,0,1,521.1015666072369,294.4) translate(48.95 14.4)"/><path d="M381 682.2h10m10 0h20m10 0h20m10 0h20m10 0h20m10 0h20m10 0h20m10 0h20m10 0h20m10 0h20m10 0h20m10 0h20m10 0h20m10 0h20m10 0h10M381.03 682.2H380M800.97 682.2H802" stroke="#000" stroke-width="2" fill="none"/><path d="M776 380c-8.84 0-16 7.16-16 16v48c0 8.84 7.16 16 16 16h128c8.84 0 16-7.16 16-16v-48c0-8.84-7.16-16-16-16z" stroke="#000" stroke-width="2" fill="#fff"/><use xlink:href="#h" transform="matrix(1,0,0,1,768,388) translate(65.525 35.6)"/><path d="M720 420c0 11.05-8.95 20-20 20s-20-8.95-20-20 8.95-20 20-20 20 8.95 20 20z" stroke="#000" stroke-width="2"/><path d="M722 420h18.5" stroke="#000" stroke-width="2" fill="none"/><path d="M722.03 421h-1.15l.12-.96-.03-1.04h1.06z"/><path d="M755.76 420l-14.26 4.64v-9.28z" stroke="#000" stroke-width="2"/><path d="M1000 420c0 11.05-8.95 20-20 20s-20-8.95-20-20 8.95-20 20-20 20 8.95 20 20z" stroke="#000" stroke-width="2" fill="#fff"/><path d="M992 420c0 6.63-5.37 12-12 12s-12-5.37-12-12 5.37-12 12-12 12 5.37 12 12z" stroke="#000" stroke-width="2"/><path d="M922 420h18.5" stroke="#000" stroke-width="2" fill="none"/><path d="M922.03 421H921v-2h1.03z"/><path d="M955.76 420l-14.26 4.64v-9.28z" stroke="#000" stroke-width="2"/><path d="M527 578c-8.84 0-16 7.16-16 16v48c0 8.84 7.16 16 16 16h128c8.84 0 16-7.16 16-16v-48c0-8.84-7.16-16-16-16z" stroke="#000" stroke-width="2" fill="#fff"/><use xlink:href="#i" transform="matrix(1,0,0,1,519,586) translate(66 35.6)"/><path d="M471 618c0 11.05-8.95 20-20 20s-20-8.95-20-20 8.95-20 20-20 20 8.95 20 20z" stroke="#000" stroke-width="2"/><path d="M473 618h18.5" stroke="#000" stroke-width="2" fill="none"/><path d="M473.03 619h-1.15l.12-.96-.03-1.04h1.06z"/><path d="M506.76 618l-14.26 4.64v-9.28z" stroke="#000" stroke-width="2"/><path d="M751 618c0 11.05-8.95 20-20 20s-20-8.95-20-20 8.95-20 20-20 20 8.95 20 20z" stroke="#000" stroke-width="2" fill="#fff"/><path d="M743 618c0 6.63-5.37 12-12 12s-12-5.37-12-12 5.37-12 12-12 12 5.37 12 12z" stroke="#000" stroke-width="2"/><path d="M673 618h18.5" stroke="#000" stroke-width="2" fill="none"/><path d="M673.03 619H672v-2h1.03z"/><path d="M706.76 618l-14.26 4.64v-9.28z" stroke="#000" stroke-width="2"/><path d="M840 502v186h-19.5" stroke="#000" stroke-width="2" fill="none"/><path d="M841 502.03h-2V501h2z"/><path d="M805.24 688l14.26-4.64v9.28z" stroke="#000" stroke-width="2"/><use xlink:href="#f" transform="matrix(1,0,0,1,848,552.8107833529945) translate(0 14.4)"/><use xlink:href="#j" transform="matrix(1,0,0,1,848,552.8107833529945) translate(48.95 14.4)"/><path d="M379 688h-39V401h80v-21.5" stroke="#000" stroke-width="2" fill="none"/><path d="M380 689h-1.03v-2H380z"/><path d="M420 364.24l4.64 14.26h-9.28z" stroke="#000" stroke-width="2"/><g><use xlink:href="#k" transform="matrix(1,0,0,1,348.00000000000006,453.99095450133603) translate(0 14.4)"/><use xlink:href="#l" transform="matrix(1,0,0,1,348.00000000000006,453.99095450133603) translate(0 36)"/></g><defs><path d="M205 0l-28-72H64L36 0H1l101-248h38L239 0h-34zm-38-99l-47-123c-12 45-31 82-46 123h93" id="m"/><use transform="matrix(0.05,0,0,0.05,0,0)" xlink:href="#m" id="a"/><path d="M59-47c-2 24 18 29 38 22v24C64 9 27 4 27-40v-127H5v-23h24l9-43h21v43h35v23H59v120" id="n"/><path d="M84 4C-5 8 30-112 23-190h32v120c0 31 7 50 39 49 72-2 45-101 50-169h31l1 190h-30c-1-10 1-25-2-33-11 22-28 36-60 37" id="o"/><path d="M114-163C36-179 61-72 57 0H25l-1-190h30c1 12-1 29 2 39 6-27 23-49 58-41v29" id="p"/><path d="M117-194c89-4 53 116 60 194h-32v-121c0-31-8-49-39-48C34-167 62-67 57 0H25l-1-190h30c1 10-1 24 2 32 11-22 29-35 61-36" id="q"/><g id="b"><use transform="matrix(0.05,0,0,0.05,0,0)" xlink:href="#n"/><use transform="matrix(0.05,0,0,0.05,5,0)" xlink:href="#o"/><use transform="matrix(0.05,0,0,0.05,15,0)" xlink:href="#p"/><use transform="matrix(0.05,0,0,0.05,20.95,0)" xlink:href="#q"/></g><path d="M140-251c81 0 123 46 123 126C263-46 219 4 140 4 59 4 17-45 17-125s42-126 123-126zm0 227c63 0 89-41 89-101s-29-99-89-99c-61 0-89 39-89 99S79-25 140-24" id="r"/><g id="c"><use transform="matrix(0.05,0,0,0.05,0,0)" xlink:href="#r"/><use transform="matrix(0.05,0,0,0.05,14,0)" xlink:href="#q"/></g><path d="M160-131c35 5 61 23 61 61C221 17 115-2 30 0v-248c76 3 177-17 177 60 0 33-19 50-47 57zm-97-11c50-1 110 9 110-42 0-47-63-36-110-37v79zm0 115c55-2 124 14 124-45 0-56-70-42-124-44v89" id="s"/><use transform="matrix(0.05,0,0,0.05,0,0)" xlink:href="#s" id="d"/><path d="M63-220v92h138v28H63V0H30v-248h175v28H63" id="t"/><use transform="matrix(0.05,0,0,0.05,0,0)" xlink:href="#t" id="e"/><path d="M115-194c55 1 70 41 70 98S169 2 115 4C84 4 66-9 55-30l1 105H24l-1-265h31l2 30c10-21 28-34 59-34zm-8 174c40 0 45-34 45-75s-6-73-45-74c-42 0-51 32-51 76 0 43 10 73 51 73" id="u"/><path d="M100-194c63 0 86 42 84 106H49c0 40 14 67 53 68 26 1 43-12 49-29l28 8c-11 28-37 45-77 45C44 4 14-33 15-96c1-61 26-98 85-98zm52 81c6-60-76-77-97-28-3 7-6 17-6 28h103" id="v"/><path d="M135-143c-3-34-86-38-87 0 15 53 115 12 119 90S17 21 10-45l28-5c4 36 97 45 98 0-10-56-113-15-118-90-4-57 82-63 122-42 12 7 21 19 24 35" id="w"/><g id="f"><use transform="matrix(0.05,0,0,0.05,0,0)" xlink:href="#u"/><use transform="matrix(0.05,0,0,0.05,10,0)" xlink:href="#p"/><use transform="matrix(0.05,0,0,0.05,15.949999999999998,0)" xlink:href="#v"/><use transform="matrix(0.05,0,0,0.05,25.950000000000003,0)" xlink:href="#w"/><use transform="matrix(0.05,0,0,0.05,34.95,0)" xlink:href="#w"/></g><path d="M185-189c-5-48-123-54-124 2 14 75 158 14 163 119 3 78-121 87-175 55-17-10-28-26-33-46l33-7c5 56 141 63 141-1 0-78-155-14-162-118-5-82 145-84 179-34 5 7 8 16 11 25" id="x"/><path d="M141-36C126-15 110 5 73 4 37 3 15-17 15-53c-1-64 63-63 125-63 3-35-9-54-41-54-24 1-41 7-42 31l-33-3c5-37 33-52 76-52 45 0 72 20 72 64v82c-1 20 7 32 28 27v20c-31 9-61-2-59-35zM48-53c0 20 12 33 32 33 41-3 63-29 60-74-43 2-92-5-92 41" id="y"/><g id="g"><use transform="matrix(0.05,0,0,0.05,0,0)" xlink:href="#x"/><use transform="matrix(0.05,0,0,0.05,12,0)" xlink:href="#n"/><use transform="matrix(0.05,0,0,0.05,17,0)" xlink:href="#y"/><use transform="matrix(0.05,0,0,0.05,27,0)" xlink:href="#p"/><use transform="matrix(0.05,0,0,0.05,32.95,0)" xlink:href="#n"/></g><path d="M212-179c-10-28-35-45-73-45-59 0-87 40-87 99 0 60 29 101 89 101 43 0 62-24 78-52l27 14C228-24 195 4 139 4 59 4 22-46 18-125c-6-104 99-153 187-111 19 9 31 26 39 46" id="z"/><use transform="matrix(0.05,0,0,0.05,0,0)" xlink:href="#z" id="h"/><path d="M30 0v-248h187v28H63v79h144v27H63v87h162V0H30" id="A"/><use transform="matrix(0.05,0,0,0.05,0,0)" xlink:href="#A" id="i"/><path d="M96-169c-40 0-48 33-48 73s9 75 48 75c24 0 41-14 43-38l32 2c-6 37-31 61-74 61-59 0-76-41-82-99-10-93 101-131 147-64 4 7 5 14 7 22l-32 3c-4-21-16-35-41-35" id="B"/><path d="M24-231v-30h32v30H24zM24 0v-190h32V0H24" id="C"/><path d="M100-194c62-1 85 37 85 99 1 63-27 99-86 99S16-35 15-95c0-66 28-99 85-99zM99-20c44 1 53-31 53-75 0-43-8-75-51-75s-53 32-53 75 10 74 51 75" id="D"/><g id="j"><use transform="matrix(0.05,0,0,0.05,0,0)" xlink:href="#y"/><use transform="matrix(0.05,0,0,0.05,10,0)" xlink:href="#B"/><use transform="matrix(0.05,0,0,0.05,19,0)" xlink:href="#n"/><use transform="matrix(0.05,0,0,0.05,24,0)" xlink:href="#C"/><use transform="matrix(0.05,0,0,0.05,27.950000000000003,0)" xlink:href="#D"/><use transform="matrix(0.05,0,0,0.05,37.95,0)" xlink:href="#q"/></g><g id="k"><use transform="matrix(0.05,0,0,0.05,0,0)" xlink:href="#y"/><use transform="matrix(0.05,0,0,0.05,10,0)" xlink:href="#B"/><use transform="matrix(0.05,0,0,0.05,19,0)" xlink:href="#n"/><use transform="matrix(0.05,0,0,0.05,24,0)" xlink:href="#C"/><use transform="matrix(0.05,0,0,0.05,27.950000000000003,0)" xlink:href="#D"/><use transform="matrix(0.05,0,0,0.05,37.95,0)" xlink:href="#q"/></g><path d="M24 0v-261h32V0H24" id="E"/><path d="M85-194c31 0 48 13 60 33l-1-100h32l1 261h-30c-2-10 0-23-3-31C134-8 116 4 85 4 32 4 16-35 15-94c0-66 23-100 70-100zm9 24c-40 0-46 34-46 75 0 40 6 74 45 74 42 0 51-32 51-76 0-42-9-74-50-73" id="F"/><g id="l"><use transform="matrix(0.05,0,0,0.05,0,0)" xlink:href="#B"/><use transform="matrix(0.05,0,0,0.05,9,0)" xlink:href="#y"/><use transform="matrix(0.05,0,0,0.05,19,0)" xlink:href="#E"/><use transform="matrix(0.05,0,0,0.05,22.95,0)" xlink:href="#B"/><use transform="matrix(0.05,0,0,0.05,31.950000000000003,0)" xlink:href="#o"/><use transform="matrix(0.05,0,0,0.05,41.95,0)" xlink:href="#E"/><use transform="matrix(0.05,0,0,0.05,45.900000000000006,0)" xlink:href="#y"/><use transform="matrix(0.05,0,0,0.05,55.900000000000006,0)" xlink:href="#n"/><use transform="matrix(0.05,0,0,0.05,60.900000000000006,0)" xlink:href="#v"/><use transform="matrix(0.05,0,0,0.05,70.9,0)" xlink:href="#F"/></g></defs></g></svg>