<svg xmlns="http://www.w3.org/2000/svg" xmlns:xlink="http://www.w3.org/1999/xlink" xmlns:lucid="lucid" width="1095" height="472"><g transform="translate(-125 -524)" lucid:page-tab-id="gJvti0G8YP9Q"><path d="M505.33 549c0-2.76 2.24-5 5-5H1195c2.76 0 5 2.24 5 5v422c0 2.76-2.24 5-5 5H510.33c-2.76 0-5-2.24-5-5z" stroke="#000" stroke-width="2" fill="#fff"/><path d="M1190 554h-15v20h15z" stroke="#000" fill="#fff"/><path d="M1180 557.33h-10v3.34h10zm0 10h-10v3.34h10z" stroke="#000" fill="#fff"/><use xlink:href="#a" transform="matrix(1,0,0,1,525.3333333333333,544) translate(327.5 14.4)"/><use xlink:href="#b" transform="matrix(1,0,0,1,525.3333333333333,544) translate(248.55 36)"/><use xlink:href="#c" transform="matrix(1,0,0,1,525.3333333333333,544) translate(336.45000000000005 36)"/><path d="M528 750c0-2.76 2.24-5 5-5h262c2.76 0 5 2.24 5 5v54c0 2.76-2.24 5-5 5H533c-2.76 0-5-2.24-5-5z" stroke="#000" stroke-width="2" fill="#f0f0f0"/><path d="M790 755h-15v20h15z" stroke="#000" fill="#f0f0f0"/><path d="M780 758.33h-10v3.34h10zm0 10h-10v3.34h10z" stroke="#000" fill="#f0f0f0"/><use xlink:href="#d" transform="matrix(1,0,0,1,548,745) translate(17.150000000000006 35.6)"/><path d="M528 613c0-2.76 2.24-5 5-5h262c2.76 0 5 2.24 5 5v54c0 2.76-2.24 5-5 5H533c-2.76 0-5-2.24-5-5z" stroke="#000" stroke-width="2" fill="#ffdba9"/><path d="M790 618h-15v20h15z" stroke="#000" fill="#ffdba9"/><path d="M780 621.33h-10v3.34h10zm0 10h-10v3.34h10z" stroke="#000" fill="#ffdba9"/><use xlink:href="#e" transform="matrix(1,0,0,1,548,608) translate(48.099999999999994 35.6)"/><path d="M912 750c0-2.76 2.24-5 5-5h262c2.76 0 5 2.24 5 5v54c0 2.76-2.24 5-5 5H917c-2.76 0-5-2.24-5-5z" stroke="#000" stroke-width="2" fill="#ffdba9"/><path d="M1174 755h-15v20h15z" stroke="#000" fill="#ffdba9"/><path d="M1164 758.33h-10v3.34h10zm0 10h-10v3.34h10z" stroke="#000" fill="#ffdba9"/><use xlink:href="#f" transform="matrix(1,0,0,1,932,745) translate(14.100000000000009 35.6)"/><path d="M881 777h-11M836 777h-5" stroke="#000" stroke-width="2" fill="none"/><path d="M856 791c-7.73 0-14-6.27-14-14s6.27-14 14-14 14 6.27 14 14-6.27 14-14 14z" stroke="#000" stroke-width="2" fill="#fff"/><path d="M856 757c-11.05 0-20 8.95-20 20s8.95 20 20 20" stroke="#000" stroke-width="2" fill="none"/><path d="M881 777c0 .44-.36.8-.8.8h-9.4c-.44 0-.8-.36-.8-.8 0-.44.36-.8.8-.8h9.4c.44 0 .8.36.8.8z" fill="none"/><path d="M830 777h-28" stroke="#000" stroke-width="2" fill="none"/><path d="M831 778h3-4.03v-2H831zM802.03 778H801v-2h1.03z"/><path d="M910 777h-28" stroke="#000" stroke-width="2" fill="none"/><path d="M911 778h-1.03v-2H911zM882.03 778H881v-2h1.03z"/><path d="M664 683.5v11M664 728.5v5" stroke="#000" stroke-width="2" fill="none"/><path d="M678 708.5c0 7.73-6.27 14-14 14s-14-6.27-14-14 6.27-14 14-14 14 6.27 14 14z" stroke="#000" stroke-width="2" fill="#fff"/><path d="M644 708.5c0 11.05 8.95 20 20 20s20-8.95 20-20" stroke="#000" stroke-width="2" fill="none"/><path d="M664 683.5c.44 0 .8.36.8.8v9.4c0 .44-.36.8-.8.8-.44 0-.8-.36-.8-.8v-9.4c0-.44.36-.8.8-.8z" fill="none"/><path d="M664 734.5v8.5" stroke="#000" stroke-width="2" fill="none"/><path d="M665 734.53h-2v-1.03h2v-3zM665 744h-2v-1.03h2z"/><path d="M664 674v8.5" stroke="#000" stroke-width="2" fill="none"/><path d="M665 674.03h-2V673h2zM663 683.5v-1.03h2v1.03z"/><path d="M432 777h11M477 777h5" stroke="#000" stroke-width="2" fill="none"/><path d="M457 763c7.73 0 14 6.27 14 14s-6.27 14-14 14-14-6.27-14-14 6.27-14 14-14z" stroke="#000" stroke-width="2" fill="#fff"/><path d="M457 797c11.05 0 20-8.96 20-20 0-11.05-8.95-20-20-20" stroke="#000" stroke-width="2" fill="none"/><path d="M432 777c0-.44.36-.8.8-.8h9.4c.44 0 .8.36.8.8 0 .44-.36.8-.8.8h-9.4c-.44 0-.8-.36-.8-.8z" fill="none"/><path d="M483 777h12" stroke="#000" stroke-width="2" fill="none"/><path d="M483.03 778H482v-2h-3 4.03zM496 778h-1.03v-2H496z"/><path d="M515 777h11" stroke="#000" stroke-width="2" fill="none"/><path d="M515.03 778H514v-2h1.03zM527 778h-1.03v-2H527z"/><path d="M145 750c0-2.76 2.24-5 5-5h262c2.76 0 5 2.24 5 5v54c0 2.76-2.24 5-5 5H150c-2.76 0-5-2.24-5-5z" stroke="#000" stroke-width="2" fill="#f9d2de"/><path d="M407 755h-15v20h15z" stroke="#000" fill="#f9d2de"/><path d="M397 758.33h-10v3.34h10zm0 10h-10v3.34h10z" stroke="#000" fill="#f9d2de"/><use xlink:href="#g" transform="matrix(1,0,0,1,165,745) translate(36.099999999999994 35.6)"/><use xlink:href="#h" transform="matrix(1,0,0,1,165,745) translate(124 35.6)"/><path d="M419 777h12" stroke="#000" stroke-width="2" fill="none"/><path d="M419.03 778H418v-2h1.03zM432 778h-1.03v-2H432z"/><path d="M497 769h16v16h-16z" stroke="#000" stroke-width="2" fill="#fff"/><path d="M528 897c0-2.76 2.24-5 5-5h262c2.76 0 5 2.24 5 5v54c0 2.76-2.24 5-5 5H533c-2.76 0-5-2.24-5-5z" stroke="#000" stroke-width="2" fill="#c1e4f7"/><path d="M790 902h-15v20h15z" stroke="#000" fill="#c1e4f7"/><path d="M780 905.33h-10v3.34h10zm0 10h-10v3.34h10z" stroke="#000" fill="#c1e4f7"/><g><use xlink:href="#i" transform="matrix(1,0,0,1,548,892) translate(54.55 35.6)"/></g><g><path d="M664 875.5v-11M664 830.5v-5" stroke="#000" stroke-width="2" fill="none"/><path d="M650 850.5c0-7.73 6.27-14 14-14s14 6.27 14 14-6.27 14-14 14-14-6.27-14-14z" stroke="#000" stroke-width="2" fill="#fff"/><path d="M684 850.5c0-11.05-8.95-20-20-20s-20 8.95-20 20" stroke="#000" stroke-width="2" fill="none"/><path d="M664 875.5c-.44 0-.8-.36-.8-.8v-9.4c0-.44.36-.8.8-.8.44 0 .8.36.8.8v9.4c0 .44-.36.8-.8.8z" fill="none"/></g><path d="M664 824.5V811" stroke="#000" stroke-width="2" fill="none"/><path d="M665 825.5h-2v3-4.03h2zM665 811.03h-2V810h2z"/><path d="M664 876.5V890" stroke="#000" stroke-width="2" fill="none"/><path d="M663 875.5h2v1.03h-2v-4.03zM665 891h-2v-1.03h2z"/><defs><path d="M212-179c-10-28-35-45-73-45-59 0-87 40-87 99 0 60 29 101 89 101 43 0 62-24 78-52l27 14C228-24 195 4 139 4 59 4 22-46 18-125c-6-104 99-153 187-111 19 9 31 26 39 46" id="j"/><path d="M100-194c62-1 85 37 85 99 1 63-27 99-86 99S16-35 15-95c0-66 28-99 85-99zM99-20c44 1 53-31 53-75 0-43-8-75-51-75s-53 32-53 75 10 74 51 75" id="k"/><path d="M84 4C-5 8 30-112 23-190h32v120c0 31 7 50 39 49 72-2 45-101 50-169h31l1 190h-30c-1-10 1-25-2-33-11 22-28 36-60 37" id="l"/><path d="M96-169c-40 0-48 33-48 73s9 75 48 75c24 0 41-14 43-38l32 2c-6 37-31 61-74 61-59 0-76-41-82-99-10-93 101-131 147-64 4 7 5 14 7 22l-32 3c-4-21-16-35-41-35" id="m"/><path d="M106-169C34-169 62-67 57 0H25v-261h32l-1 103c12-21 28-36 61-36 89 0 53 116 60 194h-32v-121c2-32-8-49-39-48" id="n"/><path d="M30 0v-248h187v28H63v79h144v27H63v87h162V0H30" id="o"/><path d="M85-194c31 0 48 13 60 33l-1-100h32l1 261h-30c-2-10 0-23-3-31C134-8 116 4 85 4 32 4 16-35 15-94c0-66 23-100 70-100zm9 24c-40 0-46 34-46 75 0 40 6 74 45 74 42 0 51-32 51-76 0-42-9-74-50-73" id="p"/><path d="M24-231v-30h32v30H24zM24 0v-190h32V0H24" id="q"/><path d="M59-47c-2 24 18 29 38 22v24C64 9 27 4 27-40v-127H5v-23h24l9-43h21v43h35v23H59v120" id="r"/><g id="b"><use transform="matrix(0.05,0,0,0.05,0,0)" xlink:href="#j"/><use transform="matrix(0.05,0,0,0.05,12.950000000000001,0)" xlink:href="#k"/><use transform="matrix(0.05,0,0,0.05,22.950000000000003,0)" xlink:href="#l"/><use transform="matrix(0.05,0,0,0.05,32.95,0)" xlink:href="#m"/><use transform="matrix(0.05,0,0,0.05,41.95,0)" xlink:href="#n"/><use transform="matrix(0.05,0,0,0.05,51.95,0)" xlink:href="#o"/><use transform="matrix(0.05,0,0,0.05,63.95,0)" xlink:href="#p"/><use transform="matrix(0.05,0,0,0.05,73.95,0)" xlink:href="#q"/><use transform="matrix(0.05,0,0,0.05,77.9,0)" xlink:href="#r"/></g><path d="M160-131c35 5 61 23 61 61C221 17 115-2 30 0v-248c76 3 177-17 177 60 0 33-19 50-47 57zm-97-11c50-1 110 9 110-42 0-47-63-36-110-37v79zm0 115c55-2 124 14 124-45 0-56-70-42-124-44v89" id="s"/><path d="M141-36C126-15 110 5 73 4 37 3 15-17 15-53c-1-64 63-63 125-63 3-35-9-54-41-54-24 1-41 7-42 31l-33-3c5-37 33-52 76-52 45 0 72 20 72 64v82c-1 20 7 32 28 27v20c-31 9-61-2-59-35zM48-53c0 20 12 33 32 33 41-3 63-29 60-74-43 2-92-5-92 41" id="t"/><path d="M143 0L79-87 56-68V0H24v-261h32v163l83-92h37l-77 82L181 0h-38" id="u"/><path d="M100-194c63 0 86 42 84 106H49c0 40 14 67 53 68 26 1 43-12 49-29l28 8c-11 28-37 45-77 45C44 4 14-33 15-96c1-61 26-98 85-98zm52 81c6-60-76-77-97-28-3 7-6 17-6 28h103" id="v"/><path d="M117-194c89-4 53 116 60 194h-32v-121c0-31-8-49-39-48C34-167 62-67 57 0H25l-1-190h30c1 10-1 24 2 32 11-22 29-35 61-36" id="w"/><g id="c"><use transform="matrix(0.05,0,0,0.05,0,0)" xlink:href="#s"/><use transform="matrix(0.05,0,0,0.05,12,0)" xlink:href="#t"/><use transform="matrix(0.05,0,0,0.05,22,0)" xlink:href="#m"/><use transform="matrix(0.05,0,0,0.05,31,0)" xlink:href="#u"/><use transform="matrix(0.05,0,0,0.05,40,0)" xlink:href="#v"/><use transform="matrix(0.05,0,0,0.05,50,0)" xlink:href="#w"/><use transform="matrix(0.05,0,0,0.05,60,0)" xlink:href="#p"/></g><path d="M240 0l2-218c-23 76-54 145-80 218h-23L58-218 59 0H30v-248h44l77 211c21-75 51-140 76-211h43V0h-30" id="x"/><path d="M101-234c-31-9-42 10-38 44h38v23H63V0H32v-167H5v-23h27c-7-52 17-82 69-68v24" id="y"/><path d="M135-143c-3-34-86-38-87 0 15 53 115 12 119 90S17 21 10-45l28-5c4 36 97 45 98 0-10-56-113-15-118-90-4-57 82-63 122-42 12 7 21 19 24 35" id="z"/><path d="M177-190C167-65 218 103 67 71c-23-6-38-20-44-43l32-5c15 47 100 32 89-28v-30C133-14 115 1 83 1 29 1 15-40 15-95c0-56 16-97 71-98 29-1 48 16 59 35 1-10 0-23 2-32h30zM94-22c36 0 50-32 50-73 0-42-14-75-50-75-39 0-46 34-46 75s6 73 46 73" id="A"/><path d="M114-163C36-179 61-72 57 0H25l-1-190h30c1 12-1 29 2 39 6-27 23-49 58-41v29" id="B"/><g id="d"><use transform="matrix(0.05,0,0,0.05,0,0)" xlink:href="#x"/><use transform="matrix(0.05,0,0,0.05,14.950000000000001,0)" xlink:href="#k"/><use transform="matrix(0.05,0,0,0.05,24.950000000000003,0)" xlink:href="#p"/><use transform="matrix(0.05,0,0,0.05,34.95,0)" xlink:href="#q"/><use transform="matrix(0.05,0,0,0.05,38.900000000000006,0)" xlink:href="#y"/><use transform="matrix(0.05,0,0,0.05,43.900000000000006,0)" xlink:href="#q"/><use transform="matrix(0.05,0,0,0.05,47.85000000000001,0)" xlink:href="#m"/><use transform="matrix(0.05,0,0,0.05,56.85,0)" xlink:href="#t"/><use transform="matrix(0.05,0,0,0.05,66.85000000000001,0)" xlink:href="#r"/><use transform="matrix(0.05,0,0,0.05,71.85000000000001,0)" xlink:href="#q"/><use transform="matrix(0.05,0,0,0.05,75.80000000000001,0)" xlink:href="#k"/><use transform="matrix(0.05,0,0,0.05,85.80000000000001,0)" xlink:href="#w"/><use transform="matrix(0.05,0,0,0.05,95.80000000000001,0)" xlink:href="#s"/><use transform="matrix(0.05,0,0,0.05,107.80000000000001,0)" xlink:href="#l"/><use transform="matrix(0.05,0,0,0.05,117.80000000000001,0)" xlink:href="#z"/><use transform="matrix(0.05,0,0,0.05,126.80000000000001,0)" xlink:href="#x"/><use transform="matrix(0.05,0,0,0.05,141.75,0)" xlink:href="#t"/><use transform="matrix(0.05,0,0,0.05,151.75,0)" xlink:href="#w"/><use transform="matrix(0.05,0,0,0.05,161.75,0)" xlink:href="#t"/><use transform="matrix(0.05,0,0,0.05,171.75,0)" xlink:href="#A"/><use transform="matrix(0.05,0,0,0.05,181.75,0)" xlink:href="#v"/><use transform="matrix(0.05,0,0,0.05,191.75,0)" xlink:href="#B"/></g><path d="M185-189c-5-48-123-54-124 2 14 75 158 14 163 119 3 78-121 87-175 55-17-10-28-26-33-46l33-7c5 56 141 63 141-1 0-78-155-14-162-118-5-82 145-84 179-34 5 7 8 16 11 25" id="C"/><path d="M115-194c55 1 70 41 70 98S169 2 115 4C84 4 66-9 55-30l1 105H24l-1-265h31l2 30c10-21 28-34 59-34zm-8 174c40 0 45-34 45-75s-6-73-45-74c-42 0-51 32-51 76 0 43 10 73 51 73" id="D"/><path d="M24 0v-261h32V0H24" id="E"/><path d="M30-248c87 1 191-15 191 75 0 78-77 80-158 76V0H30v-248zm33 125c57 0 124 11 124-50 0-59-68-47-124-48v98" id="F"/><g id="e"><use transform="matrix(0.05,0,0,0.05,0,0)" xlink:href="#C"/><use transform="matrix(0.05,0,0,0.05,12,0)" xlink:href="#D"/><use transform="matrix(0.05,0,0,0.05,22,0)" xlink:href="#t"/><use transform="matrix(0.05,0,0,0.05,32,0)" xlink:href="#r"/><use transform="matrix(0.05,0,0,0.05,37,0)" xlink:href="#q"/><use transform="matrix(0.05,0,0,0.05,40.95,0)" xlink:href="#t"/><use transform="matrix(0.05,0,0,0.05,50.95,0)" xlink:href="#E"/><use transform="matrix(0.05,0,0,0.05,54.900000000000006,0)" xlink:href="#F"/><use transform="matrix(0.05,0,0,0.05,66.9,0)" xlink:href="#B"/><use transform="matrix(0.05,0,0,0.05,72.85000000000001,0)" xlink:href="#k"/><use transform="matrix(0.05,0,0,0.05,82.85000000000001,0)" xlink:href="#m"/><use transform="matrix(0.05,0,0,0.05,91.85000000000001,0)" xlink:href="#v"/><use transform="matrix(0.05,0,0,0.05,101.85000000000001,0)" xlink:href="#z"/><use transform="matrix(0.05,0,0,0.05,110.85000000000001,0)" xlink:href="#z"/><use transform="matrix(0.05,0,0,0.05,119.85000000000001,0)" xlink:href="#k"/><use transform="matrix(0.05,0,0,0.05,129.85000000000002,0)" xlink:href="#B"/></g><g id="f"><use transform="matrix(0.05,0,0,0.05,0,0)" xlink:href="#j"/><use transform="matrix(0.05,0,0,0.05,12.950000000000001,0)" xlink:href="#k"/><use transform="matrix(0.05,0,0,0.05,22.950000000000003,0)" xlink:href="#w"/><use transform="matrix(0.05,0,0,0.05,32.95,0)" xlink:href="#w"/><use transform="matrix(0.05,0,0,0.05,42.95,0)" xlink:href="#v"/><use transform="matrix(0.05,0,0,0.05,52.95,0)" xlink:href="#m"/><use transform="matrix(0.05,0,0,0.05,61.95,0)" xlink:href="#r"/><use transform="matrix(0.05,0,0,0.05,66.95,0)" xlink:href="#q"/><use transform="matrix(0.05,0,0,0.05,70.9,0)" xlink:href="#k"/><use transform="matrix(0.05,0,0,0.05,80.9,0)" xlink:href="#w"/><use transform="matrix(0.05,0,0,0.05,90.9,0)" xlink:href="#o"/><use transform="matrix(0.05,0,0,0.05,102.9,0)" xlink:href="#w"/><use transform="matrix(0.05,0,0,0.05,112.9,0)" xlink:href="#p"/><use transform="matrix(0.05,0,0,0.05,122.9,0)" xlink:href="#F"/><use transform="matrix(0.05,0,0,0.05,134.9,0)" xlink:href="#B"/><use transform="matrix(0.05,0,0,0.05,140.85,0)" xlink:href="#k"/><use transform="matrix(0.05,0,0,0.05,150.85,0)" xlink:href="#m"/><use transform="matrix(0.05,0,0,0.05,159.85,0)" xlink:href="#v"/><use transform="matrix(0.05,0,0,0.05,169.85,0)" xlink:href="#z"/><use transform="matrix(0.05,0,0,0.05,178.85,0)" xlink:href="#z"/><use transform="matrix(0.05,0,0,0.05,187.85,0)" xlink:href="#k"/><use transform="matrix(0.05,0,0,0.05,197.85,0)" xlink:href="#B"/></g><g id="g"><use transform="matrix(0.05,0,0,0.05,0,0)" xlink:href="#j"/><use transform="matrix(0.05,0,0,0.05,12.950000000000001,0)" xlink:href="#k"/><use transform="matrix(0.05,0,0,0.05,22.950000000000003,0)" xlink:href="#l"/><use transform="matrix(0.05,0,0,0.05,32.95,0)" xlink:href="#m"/><use transform="matrix(0.05,0,0,0.05,41.95,0)" xlink:href="#n"/><use transform="matrix(0.05,0,0,0.05,51.95,0)" xlink:href="#o"/><use transform="matrix(0.05,0,0,0.05,63.95,0)" xlink:href="#p"/><use transform="matrix(0.05,0,0,0.05,73.95,0)" xlink:href="#q"/><use transform="matrix(0.05,0,0,0.05,77.9,0)" xlink:href="#r"/></g><path d="M63-220v92h138v28H63V0H30v-248h175v28H63" id="G"/><g id="h"><use transform="matrix(0.05,0,0,0.05,0,0)" xlink:href="#G"/><use transform="matrix(0.05,0,0,0.05,10.950000000000001,0)" xlink:href="#B"/><use transform="matrix(0.05,0,0,0.05,16.900000000000002,0)" xlink:href="#k"/><use transform="matrix(0.05,0,0,0.05,26.900000000000002,0)" xlink:href="#w"/><use transform="matrix(0.05,0,0,0.05,36.900000000000006,0)" xlink:href="#r"/><use transform="matrix(0.05,0,0,0.05,41.900000000000006,0)" xlink:href="#v"/><use transform="matrix(0.05,0,0,0.05,51.900000000000006,0)" xlink:href="#w"/><use transform="matrix(0.05,0,0,0.05,61.900000000000006,0)" xlink:href="#p"/></g><g id="i"><use transform="matrix(0.05,0,0,0.05,0,0)" xlink:href="#C"/><use transform="matrix(0.05,0,0,0.05,12,0)" xlink:href="#r"/><use transform="matrix(0.05,0,0,0.05,17,0)" xlink:href="#t"/><use transform="matrix(0.05,0,0,0.05,27,0)" xlink:href="#r"/><use transform="matrix(0.05,0,0,0.05,32,0)" xlink:href="#v"/><use transform="matrix(0.05,0,0,0.05,42,0)" xlink:href="#F"/><use transform="matrix(0.05,0,0,0.05,54,0)" xlink:href="#B"/><use transform="matrix(0.05,0,0,0.05,59.95,0)" xlink:href="#k"/><use transform="matrix(0.05,0,0,0.05,69.95,0)" xlink:href="#m"/><use transform="matrix(0.05,0,0,0.05,78.95,0)" xlink:href="#v"/><use transform="matrix(0.05,0,0,0.05,88.95,0)" xlink:href="#z"/><use transform="matrix(0.05,0,0,0.05,97.95,0)" xlink:href="#z"/><use transform="matrix(0.05,0,0,0.05,106.95,0)" xlink:href="#k"/><use transform="matrix(0.05,0,0,0.05,116.95,0)" xlink:href="#B"/></g></defs></g></svg>