<svg xmlns="http://www.w3.org/2000/svg" xmlns:xlink="http://www.w3.org/1999/xlink" xmlns:lucid="lucid" width="1127.95" height="328"><g transform="translate(-119.1 -108)" lucid:page-tab-id="kN8NAcibBwfu"><path d="M299.05 133c0-2.76 2.24-5 5-5h566c2.76 0 5 2.24 5 5v278c0 2.76-2.24 5-5 5h-566c-2.76 0-5-2.24-5-5z" stroke="#000" stroke-width="2" fill="#fff"/><path d="M865.05 138h-15v20h15z" stroke="#000" fill="#fff"/><path d="M855.05 141.33h-10v3.34h10zm0 10h-10v3.34h10z" stroke="#000" fill="#fff"/><path d="M907.05 355c0-2.76 2.24-5 5-5h112.4c2.77 0 5 2.24 5 5v50c0 2.76-2.23 5-5 5h-112.4c-2.76 0-5-2.24-5-5z" fill="none"/><use xlink:href="#a" transform="matrix(1,0,0,1,907.0491014450612,350) translate(-0.8750000000000071 22.799999999999997)"/><use xlink:href="#b" transform="matrix(1,0,0,1,907.0491014450612,350) translate(28.049999999999997 44.4)"/><path d="M533.52 345c0-2.76 2.24-5 5-5h99.94c2.76 0 5 2.24 5 5v50c0 2.76-2.24 5-5 5h-99.94c-2.76 0-5-2.24-5-5z" fill="none"/><use xlink:href="#c" transform="matrix(1,0,0,1,533.5245507225308,340) translate(10.049999999999997 33.6)"/><path d="M1051.05 245c0-2.76 2.24-5 5-5h166c2.76 0 5 2.24 5 5v86c0 2.76-2.24 5-5 5h-166c-2.76 0-5-2.24-5-5z" stroke="#000" stroke-width="2" fill="#ffbbb1"/><path d="M1217.05 250h-15v20h15z" stroke="#000" fill="#ffbbb1"/><path d="M1207.05 253.33h-10v3.34h10zm0 10h-10v3.34h10z" stroke="#000" fill="#ffbbb1"/><use xlink:href="#d" transform="matrix(1,0,0,1,1071.0491014450613,240) translate(26.549999999999997 40.8)"/><use xlink:href="#e" transform="matrix(1,0,0,1,1071.0491014450613,240) translate(32.05 62.4)"/><path d="M476.05 133c0-2.76 2.24-5 5-5h230c2.76 0 5 2.24 5 5v50c0 2.76-2.24 5-5 5h-230c-2.76 0-5-2.24-5-5z" fill="none"/><use xlink:href="#f" transform="matrix(1,0,0,1,476.0491014450613,128) translate(41.05 33.6)"/><use xlink:href="#g" transform="matrix(1,0,0,1,476.0491014450613,128) translate(128.95 33.6)"/><path d="M352 221.27c0-2.76 2.24-5 5-5h166c2.76 0 5 2.24 5 5v86c0 2.76-2.24 5-5 5H357c-2.76 0-5-2.24-5-5z" stroke="#000" stroke-width="2" fill="#c1e4f7"/><path d="M518 226.27h-15v20h15z" stroke="#000" fill="#c1e4f7"/><path d="M508 229.6h-10v3.34h10zm0 10h-10v3.34h10z" stroke="#000" fill="#c1e4f7"/><use xlink:href="#h" transform="matrix(1,0,0,1,372,216.27272727272725) translate(14.599999999999994 40.8)"/><use xlink:href="#i" transform="matrix(1,0,0,1,372,216.27272727272725) translate(26.574999999999996 62.4)"/><path d="M655.55 293c0-2.76 2.24-5 5-5h166c2.76 0 5 2.24 5 5v86c0 2.76-2.24 5-5 5h-166c-2.76 0-5-2.24-5-5z" stroke="#000" stroke-width="2" fill="#f0f0f0"/><path d="M821.55 298h-15v20h15z" stroke="#000" fill="#f0f0f0"/><path d="M811.55 301.33h-10v3.34h10zm0 10h-10v3.34h10z" stroke="#000" fill="#f0f0f0"/><use xlink:href="#j" transform="matrix(1,0,0,1,675.5491014450613,288) translate(24.074999999999996 40.8)"/><use xlink:href="#k" transform="matrix(1,0,0,1,675.5491014450613,288) translate(46.525 62.4)"/><path d="M571.05 336h11M616.05 336h5" stroke="#000" stroke-width="2" fill="none"/><path d="M596.05 322c7.73 0 14 6.27 14 14s-6.27 14-14 14-14-6.27-14-14 6.27-14 14-14z" stroke="#000" stroke-width="2" fill="#fff"/><path d="M596.05 356c11.04 0 20-8.95 20-20s-8.96-20-20-20" stroke="#000" stroke-width="2" fill="none"/><path d="M571.05 336c0-.44.36-.8.8-.8h9.4c.44 0 .8.36.8.8 0 .44-.36.8-.8.8h-9.4c-.44 0-.8-.36-.8-.8z" fill="none"/><path d="M530 288.55h17c2.76 0 5 2.23 5 5V331c0 2.76 2.24 5 5 5h13.05" stroke="#000" stroke-width="2" fill="none"/><path d="M530.03 289.55H529v-2h1.03zM571.05 337h-1.03v-2h1.03z"/><path d="M622.05 336h31.5" stroke="#000" stroke-width="2" fill="none"/><path d="M622.07 337h-1.02v-2h-3 4.02zM654.55 337h-1.03v-2h1.03z"/><path d="M859.05 226h32v28h-32zM859.05 322h32v28h-32z" stroke="#000" stroke-width="2" fill="#fff"/><path d="M530 240h327.05" stroke="#000" stroke-width="2" fill="none"/><path d="M530.03 241H529v-2h1.03zM858.05 241h-1.03v-2h1.03z"/><path d="M833.55 336h23.5" stroke="#000" stroke-width="2" fill="none"/><path d="M833.57 337h-1.02v-2h1.02zM858.05 337h-1.03v-2h1.03z"/><path d="M939.05 336h11M984.05 336h5" stroke="#000" stroke-width="2" fill="none"/><path d="M964.05 322c7.73 0 14 6.27 14 14s-6.27 14-14 14-14-6.27-14-14 6.27-14 14-14z" stroke="#000" stroke-width="2" fill="#fff"/><path d="M964.05 356c11.04 0 20-8.95 20-20s-8.96-20-20-20" stroke="#000" stroke-width="2" fill="none"/><path d="M939.05 336c0-.44.36-.8.8-.8h9.4c.44 0 .8.36.8.8 0 .44-.36.8-.8.8h-9.4c-.44 0-.8-.36-.8-.8z" fill="none"/><path d="M939.05 240h11M984.05 240h5" stroke="#000" stroke-width="2" fill="none"/><path d="M964.05 226c7.73 0 14 6.27 14 14s-6.27 14-14 14-14-6.27-14-14 6.27-14 14-14z" stroke="#000" stroke-width="2" fill="#fff"/><path d="M964.05 260c11.04 0 20-8.95 20-20s-8.96-20-20-20" stroke="#000" stroke-width="2" fill="none"/><path d="M939.05 240c0-.44.36-.8.8-.8h9.4c.44 0 .8.36.8.8 0 .44-.36.8-.8.8h-9.4c-.44 0-.8-.36-.8-.8z" fill="none"/><path d="M893.05 240h45" stroke="#000" stroke-width="2" fill="none"/><path d="M893.07 241h-1.02v-2h1.02zM939.05 241h-1.03v-2h1.03z"/><path d="M990.05 240h24.5c2.76 0 5 2.24 5 5v13.73c0 2.76 2.24 5 5 5h24.5" stroke="#000" stroke-width="2" fill="none"/><path d="M990.07 241h-1.02v-2h1.02zM1050.05 264.73h-1.03v-2h1.03z"/><path d="M893.05 336h45" stroke="#000" stroke-width="2" fill="none"/><path d="M893.07 337h-1.02v-2h1.02zM939.05 337h-1.03v-2h1.03z"/><path d="M990.05 336h24.5c2.76 0 5-2.24 5-5v-13.73c0-2.76 2.24-5 5-5h24.5" stroke="#000" stroke-width="2" fill="none"/><path d="M990.07 337h-1.02v-2h-3 4.02zM1050.05 313.27h-1.03v-2h1.03z"/><path d="M144 285c0-2.76 2.24-5 5-5h90.95c2.76 0 5 2.24 5 5v50c0 2.76-2.24 5-5 5H149c-2.76 0-5-2.24-5-5z" fill="none"/><use xlink:href="#h" transform="matrix(1,0,0,1,144,280) translate(-2.9000000000000057 22.799999999999997)"/><use xlink:href="#l" transform="matrix(1,0,0,1,144,280) translate(-0.42500000000000426 44.4)"/><path d="M199.48 264.27h10m-30-20c11.04 0 20 8.96 20 20 0 11.05-8.96 20-20 20" stroke="#000" stroke-width="2" fill="none"/><path d="M179.48 244.27c11.04 0 20 8.96 20 20 0 11.05-8.96 20-20 20zM199.48 264.27c0-.44.35-.8.8-.8h8.4c.44 0 .8.36.8.8 0 .44-.36.8-.8.8h-8.4c-.45 0-.8-.36-.8-.8z" fill="none"/><path d="M287.38 250.27h32v28h-32z" stroke="#000" stroke-width="2" fill="#fff"/><path d="M321.38 264.27H350" stroke="#000" stroke-width="2" fill="none"/><path d="M321.4 265.27h-1.02v-2h1.03zM351 265.27h-1.03v-2H351z"/><path d="M210.48 264.28h74.9" stroke="#000" stroke-width="2" fill="none"/><path d="M210.5 265.28h-4.02 3v-2h1.02zM286.38 265.28h-1.02v-2h1.02z"/><path d="M907.05 171c0-2.76 2.24-5 5-5h99.93c2.77 0 5 2.24 5 5v50c0 2.76-2.23 5-5 5h-99.93c-2.76 0-5-2.24-5-5z" fill="none"/><g><use xlink:href="#m" transform="matrix(1,0,0,1,907.0491014450614,166) translate(41 22.799999999999997)"/><use xlink:href="#n" transform="matrix(1,0,0,1,907.0491014450614,166) translate(13.099999999999994 44.4)"/></g><defs><path d="M212-179c-10-28-35-45-73-45-59 0-87 40-87 99 0 60 29 101 89 101 43 0 62-24 78-52l27 14C228-24 195 4 139 4 59 4 22-46 18-125c-6-104 99-153 187-111 19 9 31 26 39 46" id="o"/><path d="M100-194c62-1 85 37 85 99 1 63-27 99-86 99S16-35 15-95c0-66 28-99 85-99zM99-20c44 1 53-31 53-75 0-43-8-75-51-75s-53 32-53 75 10 74 51 75" id="p"/><path d="M210-169c-67 3-38 105-44 169h-31v-121c0-29-5-50-35-48C34-165 62-65 56 0H25l-1-190h30c1 10-1 24 2 32 10-44 99-50 107 0 11-21 27-35 58-36 85-2 47 119 55 194h-31v-121c0-29-5-49-35-48" id="q"/><path d="M84 4C-5 8 30-112 23-190h32v120c0 31 7 50 39 49 72-2 45-101 50-169h31l1 190h-30c-1-10 1-25-2-33-11 22-28 36-60 37" id="r"/><path d="M117-194c89-4 53 116 60 194h-32v-121c0-31-8-49-39-48C34-167 62-67 57 0H25l-1-190h30c1 10-1 24 2 32 11-22 29-35 61-36" id="s"/><path d="M24-231v-30h32v30H24zM24 0v-190h32V0H24" id="t"/><path d="M96-169c-40 0-48 33-48 73s9 75 48 75c24 0 41-14 43-38l32 2c-6 37-31 61-74 61-59 0-76-41-82-99-10-93 101-131 147-64 4 7 5 14 7 22l-32 3c-4-21-16-35-41-35" id="u"/><path d="M141-36C126-15 110 5 73 4 37 3 15-17 15-53c-1-64 63-63 125-63 3-35-9-54-41-54-24 1-41 7-42 31l-33-3c5-37 33-52 76-52 45 0 72 20 72 64v82c-1 20 7 32 28 27v20c-31 9-61-2-59-35zM48-53c0 20 12 33 32 33 41-3 63-29 60-74-43 2-92-5-92 41" id="v"/><path d="M59-47c-2 24 18 29 38 22v24C64 9 27 4 27-40v-127H5v-23h24l9-43h21v43h35v23H59v120" id="w"/><g id="a"><use transform="matrix(0.05,0,0,0.05,0,0)" xlink:href="#o"/><use transform="matrix(0.05,0,0,0.05,12.950000000000001,0)" xlink:href="#p"/><use transform="matrix(0.05,0,0,0.05,22.950000000000003,0)" xlink:href="#q"/><use transform="matrix(0.05,0,0,0.05,37.900000000000006,0)" xlink:href="#q"/><use transform="matrix(0.05,0,0,0.05,52.85,0)" xlink:href="#r"/><use transform="matrix(0.05,0,0,0.05,62.85,0)" xlink:href="#s"/><use transform="matrix(0.05,0,0,0.05,72.85000000000001,0)" xlink:href="#t"/><use transform="matrix(0.05,0,0,0.05,76.80000000000001,0)" xlink:href="#u"/><use transform="matrix(0.05,0,0,0.05,85.80000000000001,0)" xlink:href="#v"/><use transform="matrix(0.05,0,0,0.05,95.80000000000001,0)" xlink:href="#w"/><use transform="matrix(0.05,0,0,0.05,100.80000000000001,0)" xlink:href="#t"/><use transform="matrix(0.05,0,0,0.05,104.75,0)" xlink:href="#p"/><use transform="matrix(0.05,0,0,0.05,114.75,0)" xlink:href="#s"/></g><path d="M106-169C34-169 62-67 57 0H25v-261h32l-1 103c12-21 28-36 61-36 89 0 53 116 60 194h-32v-121c2-32-8-49-39-48" id="x"/><path d="M100-194c63 0 86 42 84 106H49c0 40 14 67 53 68 26 1 43-12 49-29l28 8c-11 28-37 45-77 45C44 4 14-33 15-96c1-61 26-98 85-98zm52 81c6-60-76-77-97-28-3 7-6 17-6 28h103" id="y"/><path d="M24 0v-261h32V0H24" id="z"/><g id="b"><use transform="matrix(0.05,0,0,0.05,0,0)" xlink:href="#o"/><use transform="matrix(0.05,0,0,0.05,12.950000000000001,0)" xlink:href="#x"/><use transform="matrix(0.05,0,0,0.05,22.950000000000003,0)" xlink:href="#v"/><use transform="matrix(0.05,0,0,0.05,32.95,0)" xlink:href="#s"/><use transform="matrix(0.05,0,0,0.05,42.95,0)" xlink:href="#s"/><use transform="matrix(0.05,0,0,0.05,52.95,0)" xlink:href="#y"/><use transform="matrix(0.05,0,0,0.05,62.95,0)" xlink:href="#z"/></g><path d="M30-248c87 1 191-15 191 75 0 78-77 80-158 76V0H30v-248zm33 125c57 0 124 11 124-50 0-59-68-47-124-48v98" id="A"/><path d="M114-163C36-179 61-72 57 0H25l-1-190h30c1 12-1 29 2 39 6-27 23-49 58-41v29" id="B"/><path d="M135-143c-3-34-86-38-87 0 15 53 115 12 119 90S17 21 10-45l28-5c4 36 97 45 98 0-10-56-113-15-118-90-4-57 82-63 122-42 12 7 21 19 24 35" id="C"/><g id="c"><use transform="matrix(0.05,0,0,0.05,0,0)" xlink:href="#A"/><use transform="matrix(0.05,0,0,0.05,12,0)" xlink:href="#B"/><use transform="matrix(0.05,0,0,0.05,17.95,0)" xlink:href="#p"/><use transform="matrix(0.05,0,0,0.05,27.950000000000003,0)" xlink:href="#u"/><use transform="matrix(0.05,0,0,0.05,36.95,0)" xlink:href="#y"/><use transform="matrix(0.05,0,0,0.05,46.95,0)" xlink:href="#C"/><use transform="matrix(0.05,0,0,0.05,55.95,0)" xlink:href="#C"/><use transform="matrix(0.05,0,0,0.05,64.95,0)" xlink:href="#p"/><use transform="matrix(0.05,0,0,0.05,74.95,0)" xlink:href="#B"/><use transform="matrix(0.05,0,0,0.05,80.9,0)" xlink:href="#C"/></g><path d="M30 0v-248h187v28H63v79h144v27H63v87h162V0H30" id="D"/><path d="M85-194c31 0 48 13 60 33l-1-100h32l1 261h-30c-2-10 0-23-3-31C134-8 116 4 85 4 32 4 16-35 15-94c0-66 23-100 70-100zm9 24c-40 0-46 34-46 75 0 40 6 74 45 74 42 0 51-32 51-76 0-42-9-74-50-73" id="E"/><g id="d"><use transform="matrix(0.05,0,0,0.05,0,0)" xlink:href="#o"/><use transform="matrix(0.05,0,0,0.05,12.950000000000001,0)" xlink:href="#p"/><use transform="matrix(0.05,0,0,0.05,22.950000000000003,0)" xlink:href="#r"/><use transform="matrix(0.05,0,0,0.05,32.95,0)" xlink:href="#u"/><use transform="matrix(0.05,0,0,0.05,41.95,0)" xlink:href="#x"/><use transform="matrix(0.05,0,0,0.05,51.95,0)" xlink:href="#D"/><use transform="matrix(0.05,0,0,0.05,63.95,0)" xlink:href="#E"/><use transform="matrix(0.05,0,0,0.05,73.95,0)" xlink:href="#t"/><use transform="matrix(0.05,0,0,0.05,77.9,0)" xlink:href="#w"/></g><path d="M63-220v92h138v28H63V0H30v-248h175v28H63" id="F"/><g id="e"><use transform="matrix(0.05,0,0,0.05,0,0)" xlink:href="#F"/><use transform="matrix(0.05,0,0,0.05,10.950000000000001,0)" xlink:href="#B"/><use transform="matrix(0.05,0,0,0.05,16.900000000000002,0)" xlink:href="#p"/><use transform="matrix(0.05,0,0,0.05,26.900000000000002,0)" xlink:href="#s"/><use transform="matrix(0.05,0,0,0.05,36.900000000000006,0)" xlink:href="#w"/><use transform="matrix(0.05,0,0,0.05,41.900000000000006,0)" xlink:href="#y"/><use transform="matrix(0.05,0,0,0.05,51.900000000000006,0)" xlink:href="#s"/><use transform="matrix(0.05,0,0,0.05,61.900000000000006,0)" xlink:href="#E"/></g><g id="f"><use transform="matrix(0.05,0,0,0.05,0,0)" xlink:href="#o"/><use transform="matrix(0.05,0,0,0.05,12.950000000000001,0)" xlink:href="#p"/><use transform="matrix(0.05,0,0,0.05,22.950000000000003,0)" xlink:href="#r"/><use transform="matrix(0.05,0,0,0.05,32.95,0)" xlink:href="#u"/><use transform="matrix(0.05,0,0,0.05,41.95,0)" xlink:href="#x"/><use transform="matrix(0.05,0,0,0.05,51.95,0)" xlink:href="#D"/><use transform="matrix(0.05,0,0,0.05,63.95,0)" xlink:href="#E"/><use transform="matrix(0.05,0,0,0.05,73.95,0)" xlink:href="#t"/><use transform="matrix(0.05,0,0,0.05,77.9,0)" xlink:href="#w"/></g><path d="M160-131c35 5 61 23 61 61C221 17 115-2 30 0v-248c76 3 177-17 177 60 0 33-19 50-47 57zm-97-11c50-1 110 9 110-42 0-47-63-36-110-37v79zm0 115c55-2 124 14 124-45 0-56-70-42-124-44v89" id="G"/><path d="M143 0L79-87 56-68V0H24v-261h32v163l83-92h37l-77 82L181 0h-38" id="H"/><g id="g"><use transform="matrix(0.05,0,0,0.05,0,0)" xlink:href="#G"/><use transform="matrix(0.05,0,0,0.05,12,0)" xlink:href="#v"/><use transform="matrix(0.05,0,0,0.05,22,0)" xlink:href="#u"/><use transform="matrix(0.05,0,0,0.05,31,0)" xlink:href="#H"/><use transform="matrix(0.05,0,0,0.05,40,0)" xlink:href="#y"/><use transform="matrix(0.05,0,0,0.05,50,0)" xlink:href="#s"/><use transform="matrix(0.05,0,0,0.05,60,0)" xlink:href="#E"/></g><path d="M101-234c-31-9-42 10-38 44h38v23H63V0H32v-167H5v-23h27c-7-52 17-82 69-68v24" id="I"/><path d="M177-190C167-65 218 103 67 71c-23-6-38-20-44-43l32-5c15 47 100 32 89-28v-30C133-14 115 1 83 1 29 1 15-40 15-95c0-56 16-97 71-98 29-1 48 16 59 35 1-10 0-23 2-32h30zM94-22c36 0 50-32 50-73 0-42-14-75-50-75-39 0-46 34-46 75s6 73 46 73" id="J"/><g id="h"><use transform="matrix(0.05,0,0,0.05,0,0)" xlink:href="#o"/><use transform="matrix(0.05,0,0,0.05,12.950000000000001,0)" xlink:href="#p"/><use transform="matrix(0.05,0,0,0.05,22.950000000000003,0)" xlink:href="#s"/><use transform="matrix(0.05,0,0,0.05,32.95,0)" xlink:href="#I"/><use transform="matrix(0.05,0,0,0.05,37.95,0)" xlink:href="#t"/><use transform="matrix(0.05,0,0,0.05,41.900000000000006,0)" xlink:href="#J"/><use transform="matrix(0.05,0,0,0.05,51.900000000000006,0)" xlink:href="#r"/><use transform="matrix(0.05,0,0,0.05,61.900000000000006,0)" xlink:href="#B"/><use transform="matrix(0.05,0,0,0.05,67.85000000000001,0)" xlink:href="#v"/><use transform="matrix(0.05,0,0,0.05,77.85000000000001,0)" xlink:href="#w"/><use transform="matrix(0.05,0,0,0.05,82.85000000000001,0)" xlink:href="#t"/><use transform="matrix(0.05,0,0,0.05,86.80000000000001,0)" xlink:href="#p"/><use transform="matrix(0.05,0,0,0.05,96.80000000000001,0)" xlink:href="#s"/></g><path d="M33 0v-248h34V0H33" id="K"/><path d="M115-194c55 1 70 41 70 98S169 2 115 4C84 4 66-9 55-30l1 105H24l-1-265h31l2 30c10-21 28-34 59-34zm-8 174c40 0 45-34 45-75s-6-73-45-74c-42 0-51 32-51 76 0 43 10 73 51 73" id="L"/><g id="i"><use transform="matrix(0.05,0,0,0.05,0,0)" xlink:href="#K"/><use transform="matrix(0.05,0,0,0.05,5,0)" xlink:href="#s"/><use transform="matrix(0.05,0,0,0.05,15,0)" xlink:href="#w"/><use transform="matrix(0.05,0,0,0.05,20,0)" xlink:href="#y"/><use transform="matrix(0.05,0,0,0.05,30,0)" xlink:href="#B"/><use transform="matrix(0.05,0,0,0.05,35.95,0)" xlink:href="#L"/><use transform="matrix(0.05,0,0,0.05,45.95,0)" xlink:href="#B"/><use transform="matrix(0.05,0,0,0.05,51.900000000000006,0)" xlink:href="#y"/><use transform="matrix(0.05,0,0,0.05,61.900000000000006,0)" xlink:href="#w"/><use transform="matrix(0.05,0,0,0.05,66.9,0)" xlink:href="#y"/><use transform="matrix(0.05,0,0,0.05,76.9,0)" xlink:href="#B"/></g><path d="M205 0l-28-72H64L36 0H1l101-248h38L239 0h-34zm-38-99l-47-123c-12 45-31 82-46 123h93" id="M"/><g id="j"><use transform="matrix(0.05,0,0,0.05,0,0)" xlink:href="#M"/><use transform="matrix(0.05,0,0,0.05,12,0)" xlink:href="#L"/><use transform="matrix(0.05,0,0,0.05,22,0)" xlink:href="#L"/><use transform="matrix(0.05,0,0,0.05,32,0)" xlink:href="#z"/><use transform="matrix(0.05,0,0,0.05,35.95,0)" xlink:href="#t"/><use transform="matrix(0.05,0,0,0.05,39.900000000000006,0)" xlink:href="#u"/><use transform="matrix(0.05,0,0,0.05,48.900000000000006,0)" xlink:href="#v"/><use transform="matrix(0.05,0,0,0.05,58.900000000000006,0)" xlink:href="#w"/><use transform="matrix(0.05,0,0,0.05,63.900000000000006,0)" xlink:href="#t"/><use transform="matrix(0.05,0,0,0.05,67.85000000000001,0)" xlink:href="#p"/><use transform="matrix(0.05,0,0,0.05,77.85000000000001,0)" xlink:href="#s"/></g><path d="M30 0v-248h33v221h125V0H30" id="N"/><g id="k"><use transform="matrix(0.05,0,0,0.05,0,0)" xlink:href="#N"/><use transform="matrix(0.05,0,0,0.05,10,0)" xlink:href="#p"/><use transform="matrix(0.05,0,0,0.05,20,0)" xlink:href="#J"/><use transform="matrix(0.05,0,0,0.05,30,0)" xlink:href="#t"/><use transform="matrix(0.05,0,0,0.05,33.95,0)" xlink:href="#u"/></g><path d="M185-189c-5-48-123-54-124 2 14 75 158 14 163 119 3 78-121 87-175 55-17-10-28-26-33-46l33-7c5 56 141 63 141-1 0-78-155-14-162-118-5-82 145-84 179-34 5 7 8 16 11 25" id="O"/><g id="l"><use transform="matrix(0.05,0,0,0.05,0,0)" xlink:href="#O"/><use transform="matrix(0.05,0,0,0.05,12,0)" xlink:href="#L"/><use transform="matrix(0.05,0,0,0.05,22,0)" xlink:href="#y"/><use transform="matrix(0.05,0,0,0.05,32,0)" xlink:href="#u"/><use transform="matrix(0.05,0,0,0.05,41,0)" xlink:href="#t"/><use transform="matrix(0.05,0,0,0.05,44.95,0)" xlink:href="#I"/><use transform="matrix(0.05,0,0,0.05,49.95,0)" xlink:href="#t"/><use transform="matrix(0.05,0,0,0.05,53.900000000000006,0)" xlink:href="#u"/><use transform="matrix(0.05,0,0,0.05,62.900000000000006,0)" xlink:href="#v"/><use transform="matrix(0.05,0,0,0.05,72.9,0)" xlink:href="#w"/><use transform="matrix(0.05,0,0,0.05,77.9,0)" xlink:href="#t"/><use transform="matrix(0.05,0,0,0.05,81.85000000000001,0)" xlink:href="#p"/><use transform="matrix(0.05,0,0,0.05,91.85000000000001,0)" xlink:href="#s"/></g><path d="M143 4C61 4 22-44 18-125c-5-107 100-154 193-111 17 8 29 25 37 43l-32 9c-13-25-37-40-76-40-61 0-88 39-88 99 0 61 29 100 91 101 35 0 62-11 79-27v-45h-74v-28h105v86C228-13 192 4 143 4" id="P"/><path d="M140-251c81 0 123 46 123 126C263-46 219 4 140 4 59 4 17-45 17-125s42-126 123-126zm0 227c63 0 89-41 89-101s-29-99-89-99c-61 0-89 39-89 99S79-25 140-24" id="Q"/><g id="m"><use transform="matrix(0.05,0,0,0.05,0,0)" xlink:href="#P"/><use transform="matrix(0.05,0,0,0.05,14,0)" xlink:href="#Q"/></g><path d="M30-248c118-7 216 8 213 122C240-48 200 0 122 0H30v-248zM63-27c89 8 146-16 146-99s-60-101-146-95v194" id="R"/><g id="n"><use transform="matrix(0.05,0,0,0.05,0,0)" xlink:href="#R"/><use transform="matrix(0.05,0,0,0.05,12.950000000000001,0)" xlink:href="#y"/><use transform="matrix(0.05,0,0,0.05,22.950000000000003,0)" xlink:href="#I"/><use transform="matrix(0.05,0,0,0.05,27.950000000000003,0)" xlink:href="#t"/><use transform="matrix(0.05,0,0,0.05,31.900000000000002,0)" xlink:href="#s"/><use transform="matrix(0.05,0,0,0.05,41.900000000000006,0)" xlink:href="#t"/><use transform="matrix(0.05,0,0,0.05,45.85000000000001,0)" xlink:href="#w"/><use transform="matrix(0.05,0,0,0.05,50.85000000000001,0)" xlink:href="#t"/><use transform="matrix(0.05,0,0,0.05,54.80000000000001,0)" xlink:href="#p"/><use transform="matrix(0.05,0,0,0.05,64.80000000000001,0)" xlink:href="#s"/><use transform="matrix(0.05,0,0,0.05,74.80000000000001,0)" xlink:href="#C"/></g></defs></g></svg>