<svg xmlns="http://www.w3.org/2000/svg" xmlns:xlink="http://www.w3.org/1999/xlink" xmlns:lucid="lucid" width="973.92" height="488"><g transform="translate(-32.099999999999994 -124)" lucid:page-tab-id="Vq7N_unJtlm6"><path d="M240 149c0-2.76 2.24-5 5-5h563.75c2.76 0 5 2.24 5 5v438c0 2.76-2.24 5-5 5H245c-2.76 0-5-2.24-5-5z" stroke="#000" stroke-width="2" fill="#fff"/><path d="M803.75 154h-15v20h15z" stroke="#000" fill="#fff"/><path d="M793.75 157.33h-10v3.34h10zm0 10h-10v3.34h10z" stroke="#000" fill="#fff"/><path d="M80 445h54.74v47.5H80z" fill="none"/><use xlink:href="#a" transform="matrix(1,0,0,1,80,445.0053294790208) translate(-12.5 16.799999999999997)"/><use xlink:href="#b" transform="matrix(1,0,0,1,80,445.0053294790208) translate(-25.900000000000006 38.4)"/><path d="M408 144h240v60H408z" fill="none"/><use xlink:href="#c" transform="matrix(1,0,0,1,408,144) translate(34.64999999999999 33.6)"/><use xlink:href="#d" transform="matrix(1,0,0,1,408,144) translate(146.45 33.6)"/><path d="M474.16 492.5h107.68v60H474.16z" fill="none"/><use xlink:href="#e" transform="matrix(1,0,0,1,474.1577150430726,492.5026647395104) translate(9.574999999999996 22.799999999999997)"/><use xlink:href="#f" transform="matrix(1,0,0,1,474.1577150430726,492.5026647395104) translate(20 44.4)"/><path d="M278 433.25c0-2.76 2.24-5 5-5h166c2.76 0 5 2.24 5 5v78.5c0 2.76-2.24 5-5 5H283c-2.76 0-5-2.24-5-5z" stroke="#000" stroke-width="2" fill="#ffeca9"/><path d="M444 438.25h-15v20h15z" stroke="#000" fill="#ffeca9"/><path d="M434 441.58h-10v3.34h10zm0 10h-10v3.34h10z" stroke="#000" fill="#ffeca9"/><use xlink:href="#g" transform="matrix(1,0,0,1,298.00133236975523,428.25) translate(50.525 48.1)"/><path d="M602 433.25c0-2.76 2.24-5 5-5h166c2.76 0 5 2.24 5 5v78.5c0 2.76-2.24 5-5 5H607c-2.76 0-5-2.24-5-5z" stroke="#000" stroke-width="2" fill="#ffeca9"/><path d="M768 438.25h-15v20h15z" stroke="#000" fill="#ffeca9"/><path d="M758 441.58h-10v3.34h10zm0 10h-10v3.34h10z" stroke="#000" fill="#ffeca9"/><use xlink:href="#h" transform="matrix(1,0,0,1,621.9986676302449,428.25) translate(3.5749999999999886 48.1)"/><use xlink:href="#i" transform="matrix(1,0,0,1,621.9986676302449,428.25) translate(51.52499999999999 48.1)"/><path d="M438 209c0-2.76 2.24-5 5-5h166c2.76 0 5 2.24 5 5v82.25c0 2.76-2.24 5-5 5H443c-2.76 0-5-2.24-5-5z" stroke="#000" stroke-width="2" fill="#ffeca9"/><path d="M604 214h-15v20h15z" stroke="#000" fill="#ffeca9"/><path d="M594 217.33h-10v3.34h10zm0 10h-10v3.34h10z" stroke="#000" fill="#ffeca9"/><use xlink:href="#j" transform="matrix(1,0,0,1,457.9986676302449,204) translate(23.574999999999996 50.1)"/><path d="M501 472.5h11M546 472.5h5" stroke="#000" stroke-width="2" fill="none"/><path d="M526 458.5c7.73 0 14 6.27 14 14s-6.27 14-14 14-14-6.27-14-14 6.27-14 14-14z" stroke="#000" stroke-width="2" fill="#fff"/><path d="M526 492.5c11.04 0 20-8.95 20-20 0-11.04-8.96-20-20-20" stroke="#000" stroke-width="2" fill="none"/><path d="M501 472.5c0-.44.36-.8.8-.8h9.4c.44 0 .8.36.8.8 0 .44-.36.8-.8.8h-9.4c-.44 0-.8-.36-.8-.8z" fill="none"/><path d="M690 320v11M690 365v5" stroke="#000" stroke-width="2" fill="none"/><path d="M704 345c0 7.73-6.27 14-14 14s-14-6.27-14-14 6.27-14 14-14 14 6.27 14 14z" stroke="#000" stroke-width="2" fill="#fff"/><path d="M670 345c0 11.05 8.95 20 20 20 11.04 0 20-8.95 20-20" stroke="#000" stroke-width="2" fill="none"/><path d="M690 320c.44 0 .8.36.8.8v9.4c0 .44-.36.8-.8.8-.44 0-.8-.36-.8-.8v-9.4c0-.44.36-.8.8-.8z" fill="none"/><path d="M616 249h69c2.76 0 5 2.24 5 5v65" stroke="#000" stroke-width="2" fill="none"/><path d="M616.02 250H615v-2h1.02zM689 320v-1.03h2V320z"/><path d="M690 426.25V371" stroke="#000" stroke-width="2" fill="none"/><path d="M691 427.25h-2v-1.03h2zM691 371.03h-2V370h2z"/><path d="M552 472.5h48" stroke="#000" stroke-width="2" fill="none"/><path d="M552.02 473.5H551v-2h-3 4.02zM601 473.5h-1.03v-2H601z"/><path d="M456 472.5h44" stroke="#000" stroke-width="2" fill="none"/><path d="M456.03 473.5H455v-2h1.03zM501 473.5h-1.03v-2H501z"/><path d="M366 320v11M366 365v5" stroke="#000" stroke-width="2" fill="none"/><path d="M380 345c0 7.73-6.27 14-14 14s-14-6.27-14-14 6.27-14 14-14 14 6.27 14 14z" stroke="#000" stroke-width="2" fill="#fff"/><path d="M346 345c0 11.05 8.95 20 20 20 11.04 0 20-8.95 20-20" stroke="#000" stroke-width="2" fill="none"/><path d="M366 320c.44 0 .8.36.8.8v9.4c0 .44-.36.8-.8.8-.44 0-.8-.36-.8-.8v-9.4c0-.44.36-.8.8-.8z" fill="none"/><path d="M436 250.13h-65c-2.76 0-5 2.23-5 5V319" stroke="#000" stroke-width="2" fill="none"/><path d="M437 251.13h-1.03v-2H437zM365 320v-1.03h2V320z"/><path d="M366 371v55.25" stroke="#000" stroke-width="2" fill="none"/><path d="M367 371.03h-2V370h2v-3zM367 427.25h-2v-1.03h2z"/><path d="M180 472.5h10m-30-20c11.05 0 20 8.96 20 20 0 11.05-8.95 20-20 20" stroke="#000" stroke-width="2" fill="none"/><path d="M160 452.5c11.05 0 20 8.96 20 20 0 11.05-8.95 20-20 20zM180 472.5c0-.44.36-.8.8-.8h8.4c.44 0 .8.36.8.8 0 .44-.36.8-.8.8h-8.4c-.44 0-.8-.36-.8-.8z" fill="none"/><path d="M258 472.5h18" stroke="#000" stroke-width="2" fill="none"/><path d="M258.03 473.5H257v-2h1.03zM277 473.5h-1.02v-2H277z"/><path d="M191 472.5h31" stroke="#000" stroke-width="2" fill="none"/><path d="M191.03 473.5H187h3v-2h1.03zM223 473.5h-1.03v-2H223z"/><path d="M866 472.5h10m40 0c0 11.05-8.95 20-20 20s-20-8.95-20-20c0-11.04 8.95-20 20-20s20 8.96 20 20z" stroke="#000" stroke-width="2" fill="#fff"/><path d="M866 471.7h10v1.6h-10z" fill="none"/><path d="M795 472.5h-15" stroke="#000" stroke-width="2" fill="none"/><path d="M796 473.5h-1.03v-2H796zM780.02 473.5H779v-2h1.02z"/><path d="M865 472.5h-34" stroke="#000" stroke-width="2" fill="none"/><path d="M866 473.5h-1.03v-2H866zM831.02 473.5H830v-2h1.02z"/><path d="M224 458.5h32v28h-32zM797 458.5h32v28h-32z" stroke="#000" stroke-width="2" fill="#fff"/><path d="M928 447.5c0-2.76 2.24-5 5-5h44.74c2.76 0 5 2.24 5 5v50c0 2.76-2.24 5-5 5H933c-2.76 0-5-2.24-5-5z" fill="none"/><g><use xlink:href="#k" transform="matrix(1,0,0,1,928,442.5026647395104) translate(5.050000000000001 14.4)"/><use xlink:href="#l" transform="matrix(1,0,0,1,928,442.5026647395104) translate(-0.9750000000000014 36)"/><use xlink:href="#m" transform="matrix(1,0,0,1,928,442.5026647395104) translate(6.024999999999999 57.6)"/></g><defs><path d="M30 0v-248h33v221h125V0H30" id="n"/><path d="M141-36C126-15 110 5 73 4 37 3 15-17 15-53c-1-64 63-63 125-63 3-35-9-54-41-54-24 1-41 7-42 31l-33-3c5-37 33-52 76-52 45 0 72 20 72 64v82c-1 20 7 32 28 27v20c-31 9-61-2-59-35zM48-53c0 20 12 33 32 33 41-3 63-29 60-74-43 2-92-5-92 41" id="o"/><path d="M117-194c89-4 53 116 60 194h-32v-121c0-31-8-49-39-48C34-167 62-67 57 0H25l-1-190h30c1 10-1 24 2 32 11-22 29-35 61-36" id="p"/><path d="M177-190C167-65 218 103 67 71c-23-6-38-20-44-43l32-5c15 47 100 32 89-28v-30C133-14 115 1 83 1 29 1 15-40 15-95c0-56 16-97 71-98 29-1 48 16 59 35 1-10 0-23 2-32h30zM94-22c36 0 50-32 50-73 0-42-14-75-50-75-39 0-46 34-46 75s6 73 46 73" id="q"/><path d="M84 4C-5 8 30-112 23-190h32v120c0 31 7 50 39 49 72-2 45-101 50-169h31l1 190h-30c-1-10 1-25-2-33-11 22-28 36-60 37" id="r"/><path d="M100-194c63 0 86 42 84 106H49c0 40 14 67 53 68 26 1 43-12 49-29l28 8c-11 28-37 45-77 45C44 4 14-33 15-96c1-61 26-98 85-98zm52 81c6-60-76-77-97-28-3 7-6 17-6 28h103" id="s"/><g id="a"><use transform="matrix(0.05,0,0,0.05,0,0)" xlink:href="#n"/><use transform="matrix(0.05,0,0,0.05,10,0)" xlink:href="#o"/><use transform="matrix(0.05,0,0,0.05,20,0)" xlink:href="#p"/><use transform="matrix(0.05,0,0,0.05,30,0)" xlink:href="#q"/><use transform="matrix(0.05,0,0,0.05,40,0)" xlink:href="#r"/><use transform="matrix(0.05,0,0,0.05,50,0)" xlink:href="#o"/><use transform="matrix(0.05,0,0,0.05,60,0)" xlink:href="#q"/><use transform="matrix(0.05,0,0,0.05,70,0)" xlink:href="#s"/></g><path d="M212-179c-10-28-35-45-73-45-59 0-87 40-87 99 0 60 29 101 89 101 43 0 62-24 78-52l27 14C228-24 195 4 139 4 59 4 22-46 18-125c-6-104 99-153 187-111 19 9 31 26 39 46" id="t"/><path d="M100-194c62-1 85 37 85 99 1 63-27 99-86 99S16-35 15-95c0-66 28-99 85-99zM99-20c44 1 53-31 53-75 0-43-8-75-51-75s-53 32-53 75 10 74 51 75" id="u"/><path d="M101-234c-31-9-42 10-38 44h38v23H63V0H32v-167H5v-23h27c-7-52 17-82 69-68v24" id="v"/><path d="M24-231v-30h32v30H24zM24 0v-190h32V0H24" id="w"/><path d="M114-163C36-179 61-72 57 0H25l-1-190h30c1 12-1 29 2 39 6-27 23-49 58-41v29" id="x"/><path d="M59-47c-2 24 18 29 38 22v24C64 9 27 4 27-40v-127H5v-23h24l9-43h21v43h35v23H59v120" id="y"/><g id="b"><use transform="matrix(0.05,0,0,0.05,0,0)" xlink:href="#t"/><use transform="matrix(0.05,0,0,0.05,12.950000000000001,0)" xlink:href="#u"/><use transform="matrix(0.05,0,0,0.05,22.950000000000003,0)" xlink:href="#p"/><use transform="matrix(0.05,0,0,0.05,32.95,0)" xlink:href="#v"/><use transform="matrix(0.05,0,0,0.05,37.95,0)" xlink:href="#w"/><use transform="matrix(0.05,0,0,0.05,41.900000000000006,0)" xlink:href="#q"/><use transform="matrix(0.05,0,0,0.05,51.900000000000006,0)" xlink:href="#r"/><use transform="matrix(0.05,0,0,0.05,61.900000000000006,0)" xlink:href="#x"/><use transform="matrix(0.05,0,0,0.05,67.85000000000001,0)" xlink:href="#o"/><use transform="matrix(0.05,0,0,0.05,77.85000000000001,0)" xlink:href="#y"/><use transform="matrix(0.05,0,0,0.05,82.85000000000001,0)" xlink:href="#w"/><use transform="matrix(0.05,0,0,0.05,86.80000000000001,0)" xlink:href="#u"/><use transform="matrix(0.05,0,0,0.05,96.80000000000001,0)" xlink:href="#p"/></g><g id="c"><use transform="matrix(0.05,0,0,0.05,0,0)" xlink:href="#t"/><use transform="matrix(0.05,0,0,0.05,12.950000000000001,0)" xlink:href="#u"/><use transform="matrix(0.05,0,0,0.05,22.950000000000003,0)" xlink:href="#p"/><use transform="matrix(0.05,0,0,0.05,32.95,0)" xlink:href="#v"/><use transform="matrix(0.05,0,0,0.05,37.95,0)" xlink:href="#w"/><use transform="matrix(0.05,0,0,0.05,41.900000000000006,0)" xlink:href="#q"/><use transform="matrix(0.05,0,0,0.05,51.900000000000006,0)" xlink:href="#r"/><use transform="matrix(0.05,0,0,0.05,61.900000000000006,0)" xlink:href="#x"/><use transform="matrix(0.05,0,0,0.05,67.85000000000001,0)" xlink:href="#o"/><use transform="matrix(0.05,0,0,0.05,77.85000000000001,0)" xlink:href="#y"/><use transform="matrix(0.05,0,0,0.05,82.85000000000001,0)" xlink:href="#w"/><use transform="matrix(0.05,0,0,0.05,86.80000000000001,0)" xlink:href="#u"/><use transform="matrix(0.05,0,0,0.05,96.80000000000001,0)" xlink:href="#p"/></g><path d="M240 0l2-218c-23 76-54 145-80 218h-23L58-218 59 0H30v-248h44l77 211c21-75 51-140 76-211h43V0h-30" id="z"/><path d="M85-194c31 0 48 13 60 33l-1-100h32l1 261h-30c-2-10 0-23-3-31C134-8 116 4 85 4 32 4 16-35 15-94c0-66 23-100 70-100zm9 24c-40 0-46 34-46 75 0 40 6 74 45 74 42 0 51-32 51-76 0-42-9-74-50-73" id="A"/><path d="M24 0v-261h32V0H24" id="B"/><g id="d"><use transform="matrix(0.05,0,0,0.05,0,0)" xlink:href="#z"/><use transform="matrix(0.05,0,0,0.05,14.950000000000001,0)" xlink:href="#u"/><use transform="matrix(0.05,0,0,0.05,24.950000000000003,0)" xlink:href="#A"/><use transform="matrix(0.05,0,0,0.05,34.95,0)" xlink:href="#r"/><use transform="matrix(0.05,0,0,0.05,44.95,0)" xlink:href="#B"/><use transform="matrix(0.05,0,0,0.05,48.900000000000006,0)" xlink:href="#s"/></g><path d="M210-169c-67 3-38 105-44 169h-31v-121c0-29-5-50-35-48C34-165 62-65 56 0H25l-1-190h30c1 10-1 24 2 32 10-44 99-50 107 0 11-21 27-35 58-36 85-2 47 119 55 194h-31v-121c0-29-5-49-35-48" id="C"/><g id="e"><use transform="matrix(0.05,0,0,0.05,0,0)" xlink:href="#z"/><use transform="matrix(0.05,0,0,0.05,14.950000000000001,0)" xlink:href="#s"/><use transform="matrix(0.05,0,0,0.05,24.950000000000003,0)" xlink:href="#y"/><use transform="matrix(0.05,0,0,0.05,29.950000000000003,0)" xlink:href="#o"/><use transform="matrix(0.05,0,0,0.05,39.95,0)" xlink:href="#C"/><use transform="matrix(0.05,0,0,0.05,54.900000000000006,0)" xlink:href="#u"/><use transform="matrix(0.05,0,0,0.05,64.9,0)" xlink:href="#A"/><use transform="matrix(0.05,0,0,0.05,74.9,0)" xlink:href="#s"/><use transform="matrix(0.05,0,0,0.05,84.9,0)" xlink:href="#B"/></g><path d="M33 0v-248h34V0H33" id="D"/><path d="M135-143c-3-34-86-38-87 0 15 53 115 12 119 90S17 21 10-45l28-5c4 36 97 45 98 0-10-56-113-15-118-90-4-57 82-63 122-42 12 7 21 19 24 35" id="E"/><path d="M96-169c-40 0-48 33-48 73s9 75 48 75c24 0 41-14 43-38l32 2c-6 37-31 61-74 61-59 0-76-41-82-99-10-93 101-131 147-64 4 7 5 14 7 22l-32 3c-4-21-16-35-41-35" id="F"/><g id="f"><use transform="matrix(0.05,0,0,0.05,0,0)" xlink:href="#D"/><use transform="matrix(0.05,0,0,0.05,5,0)" xlink:href="#p"/><use transform="matrix(0.05,0,0,0.05,15,0)" xlink:href="#E"/><use transform="matrix(0.05,0,0,0.05,24,0)" xlink:href="#y"/><use transform="matrix(0.05,0,0,0.05,29,0)" xlink:href="#o"/><use transform="matrix(0.05,0,0,0.05,39,0)" xlink:href="#p"/><use transform="matrix(0.05,0,0,0.05,49,0)" xlink:href="#F"/><use transform="matrix(0.05,0,0,0.05,58,0)" xlink:href="#s"/></g><path d="M30-248c118-7 216 8 213 122C240-48 200 0 122 0H30v-248zM63-27c89 8 146-16 146-99s-60-101-146-95v194" id="G"/><path d="M185-189c-5-48-123-54-124 2 14 75 158 14 163 119 3 78-121 87-175 55-17-10-28-26-33-46l33-7c5 56 141 63 141-1 0-78-155-14-162-118-5-82 145-84 179-34 5 7 8 16 11 25" id="H"/><g id="g"><use transform="matrix(0.05,0,0,0.05,0,0)" xlink:href="#G"/><use transform="matrix(0.05,0,0,0.05,12.950000000000001,0)" xlink:href="#H"/><use transform="matrix(0.05,0,0,0.05,24.950000000000003,0)" xlink:href="#n"/></g><g id="h"><use transform="matrix(0.05,0,0,0.05,0,0)" xlink:href="#t"/><use transform="matrix(0.05,0,0,0.05,12.950000000000001,0)" xlink:href="#u"/><use transform="matrix(0.05,0,0,0.05,22.950000000000003,0)" xlink:href="#A"/><use transform="matrix(0.05,0,0,0.05,32.95,0)" xlink:href="#s"/></g><path d="M143 4C61 4 22-44 18-125c-5-107 100-154 193-111 17 8 29 25 37 43l-32 9c-13-25-37-40-76-40-61 0-88 39-88 99 0 61 29 100 91 101 35 0 62-11 79-27v-45h-74v-28h105v86C228-13 192 4 143 4" id="I"/><g id="i"><use transform="matrix(0.05,0,0,0.05,0,0)" xlink:href="#I"/><use transform="matrix(0.05,0,0,0.05,14,0)" xlink:href="#s"/><use transform="matrix(0.05,0,0,0.05,24,0)" xlink:href="#p"/><use transform="matrix(0.05,0,0,0.05,34,0)" xlink:href="#s"/><use transform="matrix(0.05,0,0,0.05,44,0)" xlink:href="#x"/><use transform="matrix(0.05,0,0,0.05,49.95,0)" xlink:href="#o"/><use transform="matrix(0.05,0,0,0.05,59.95,0)" xlink:href="#y"/><use transform="matrix(0.05,0,0,0.05,64.95,0)" xlink:href="#u"/><use transform="matrix(0.05,0,0,0.05,74.95,0)" xlink:href="#x"/></g><g id="j"><use transform="matrix(0.05,0,0,0.05,0,0)" xlink:href="#z"/><use transform="matrix(0.05,0,0,0.05,14.950000000000001,0)" xlink:href="#s"/><use transform="matrix(0.05,0,0,0.05,24.950000000000003,0)" xlink:href="#y"/><use transform="matrix(0.05,0,0,0.05,29.950000000000003,0)" xlink:href="#o"/><use transform="matrix(0.05,0,0,0.05,39.95,0)" xlink:href="#C"/><use transform="matrix(0.05,0,0,0.05,54.900000000000006,0)" xlink:href="#u"/><use transform="matrix(0.05,0,0,0.05,64.9,0)" xlink:href="#A"/><use transform="matrix(0.05,0,0,0.05,74.9,0)" xlink:href="#s"/><use transform="matrix(0.05,0,0,0.05,84.9,0)" xlink:href="#B"/></g><path d="M194 0L95-120 63-95V0H30v-248h33v124l119-124h40L117-140 236 0h-42" id="J"/><g id="k"><use transform="matrix(0.05,0,0,0.05,0,0)" xlink:href="#J"/><use transform="matrix(0.05,0,0,0.05,12,0)" xlink:href="#u"/><use transform="matrix(0.05,0,0,0.05,22,0)" xlink:href="#y"/><use transform="matrix(0.05,0,0,0.05,27,0)" xlink:href="#B"/><use transform="matrix(0.05,0,0,0.05,30.950000000000003,0)" xlink:href="#w"/><use transform="matrix(0.05,0,0,0.05,34.9,0)" xlink:href="#p"/></g><g id="l"><use transform="matrix(0.05,0,0,0.05,0,0)" xlink:href="#H"/><use transform="matrix(0.05,0,0,0.05,12,0)" xlink:href="#u"/><use transform="matrix(0.05,0,0,0.05,22,0)" xlink:href="#r"/><use transform="matrix(0.05,0,0,0.05,32,0)" xlink:href="#x"/><use transform="matrix(0.05,0,0,0.05,37.95,0)" xlink:href="#F"/><use transform="matrix(0.05,0,0,0.05,46.95,0)" xlink:href="#s"/></g><g id="m"><use transform="matrix(0.05,0,0,0.05,0,0)" xlink:href="#t"/><use transform="matrix(0.05,0,0,0.05,12.950000000000001,0)" xlink:href="#u"/><use transform="matrix(0.05,0,0,0.05,22.950000000000003,0)" xlink:href="#A"/><use transform="matrix(0.05,0,0,0.05,32.95,0)" xlink:href="#s"/></g></defs></g></svg>