<svg xmlns="http://www.w3.org/2000/svg" xmlns:xlink="http://www.w3.org/1999/xlink" xmlns:lucid="lucid" width="1032.72" height="928"><g transform="translate(-290 -100)" lucid:page-tab-id="v1fuynK0_1KX"><path d="M500.93 120h220v60h-220z" stroke="#333" stroke-width="2" fill="#c1e4f7"/><use xlink:href="#a" transform="matrix(1,0,0,1,508.93120075460695,128) translate(26.575000000000003 25.6)"/><path d="M660 541h220v60H660z" stroke="#333" stroke-width="2" fill="#c1e4f7"/><use xlink:href="#b" transform="matrix(1,0,0,1,668,549) translate(65.125 25.6)"/><path d="M870 539.5V297.38" stroke="#333" fill="none"/><path d="M870.5 540h-1v-.5h1z" fill="#333"/><path d="M870 282.62l4.64 14.26h-9.28z" stroke="#333" fill="#fff"/><path d="M430 518.5V340h440v-42.62" stroke="#333" fill="none"/><path d="M430.5 519h-1v-.5h1z" fill="#333"/><path d="M870 282.62l4.64 14.26h-9.28z" stroke="#333" fill="#fff"/><path d="M560 400h220v60H560z" stroke="#333" stroke-width="2" fill="#c1e4f7"/><use xlink:href="#c" transform="matrix(1,0,0,1,568,408) translate(67 25.6)"/><path d="M752.24 398.5V340H870v-42.62" stroke="#333" fill="none"/><path d="M752.74 399h-1v-.5h1z" fill="#333"/><path d="M870 282.62l4.64 14.26h-9.28z" stroke="#333" fill="#fff"/><path d="M760 200h220v80H760z" stroke="#333" stroke-width="2" fill="#c1e4f7"/><path d="M760 237.6h220" stroke="#333" stroke-width="2" fill="none"/><use xlink:href="#d" transform="matrix(1,0,0,1,768,208) translate(40.099999999999994 14.6)"/><use xlink:href="#e" transform="matrix(1,0,0,1,772,245.6) translate(0 14.4)"/><use xlink:href="#f" transform="matrix(1,0,0,1,772,245.6) translate(65.45 14.4)"/><path d="M1192.72 477.5V340H870v-42.62" stroke="#333" fill="none"/><path d="M1193.22 478h-1v-.5h1z" fill="#333"/><path d="M870 282.62l4.64 14.26h-9.28z" stroke="#333" fill="#fff"/><path d="M1082.72 479h220v80h-220z" stroke="#333" stroke-width="2" fill="#c1e4f7"/><path d="M1082.72 516.6h220" stroke="#333" stroke-width="2" fill="none"/><use xlink:href="#g" transform="matrix(1,0,0,1,1090.7193370165746,487) translate(54.099999999999994 14.6)"/><use xlink:href="#h" transform="matrix(1,0,0,1,1094.7193370165746,524.6) translate(0 14.4)"/><use xlink:href="#i" transform="matrix(1,0,0,1,1094.7193370165746,524.6) translate(63.45 14.4)"/><path d="M684.8 539.5v-39h-41.2v-39" stroke="#333" fill="none"/><path d="M685.3 540h-1v-.5h1zM644.1 461.5h-1v-.5h1z" fill="#333"/><use xlink:href="#j" transform="matrix(1,0,0,1,692.8082309748205,513.9231899677196) translate(0 14.4)"/><use xlink:href="#k" transform="matrix(1,0,0,1,692.8082309748205,513.9231899677196) translate(42 14.4)"/><use xlink:href="#l" transform="matrix(1,0,0,1,567.5954577533872,462.4291314988971) translate(0 14.4)"/><path d="M655 671h220v102H655z" stroke="#333" stroke-width="2" fill="#c1e4f7"/><path d="M655 708.6h220" stroke="#333" stroke-width="2" fill="none"/><use xlink:href="#m" transform="matrix(1,0,0,1,663,679) translate(79.55 14.6)"/><use xlink:href="#n" transform="matrix(1,0,0,1,667,716.6) translate(0 14.4)"/><use xlink:href="#o" transform="matrix(1,0,0,1,667,716.6) translate(84.45 14.4)"/><use xlink:href="#p" transform="matrix(1,0,0,1,667,716.6) translate(0 36)"/><use xlink:href="#q" transform="matrix(1,0,0,1,667,716.6) translate(89.4 36)"/><path d="M830 774.5V814h86v-65.82h-23.62" stroke="#333" fill="none"/><path d="M830.5 774.5h-1v-.5h1z" fill="#333"/><path d="M877.62 748.18l14.26-4.63v9.27z" stroke="#333" fill="#333"/><use xlink:href="#r" transform="matrix(1,0,0,1,825.8307644057071,818.0000000000001) translate(0 14.4)"/><use xlink:href="#s" transform="matrix(1,0,0,1,825.8307644057071,818.0000000000001) translate(42 14.4)"/><path d="M610.93 211.38V335c-2.76 0-5 2.24-5 5s2.24 5 5 5v37.62" stroke="#333" fill="none"/><path d="M610.93 181.7l14.85 14.86-14.85 15.15-14.85-15.14zM610.93 397.38l-4.63-14.26h9.27z" stroke="#333" fill="#333"/><use xlink:href="#t" transform="matrix(1,0,0,1,534.931200754607,363.71994161537816) translate(0 14.4)"/><path d="M320 520h220v102H320z" stroke="#333" stroke-width="2" fill="#c1e4f7"/><path d="M320 557.6h220" stroke="#333" stroke-width="2" fill="none"/><use xlink:href="#u" transform="matrix(1,0,0,1,328,528) translate(44.574999999999996 14.6)"/><use xlink:href="#v" transform="matrix(1,0,0,1,332,565.6) translate(0 14.4)"/><use xlink:href="#w" transform="matrix(1,0,0,1,332,565.6) translate(104.85 14.4)"/><use xlink:href="#x" transform="matrix(1,0,0,1,332,565.6) translate(0 36)"/><use xlink:href="#i" transform="matrix(1,0,0,1,332,565.6) translate(107.95 36)"/><path d="M541.5 571h101.12" stroke="#333" fill="none"/><path d="M541.5 571.5h-.5v-1h.5z" fill="#333"/><path d="M657.38 571l-14.26 4.64v-9.28z" stroke="#333" fill="#333"/><use xlink:href="#y" transform="matrix(1,0,0,1,623.293705756456,545.4000000000001) translate(0 14.4)"/><path d="M310 671h240v80H310z" stroke="#333" stroke-width="2" fill="#c1e4f7"/><path d="M310 708.6h240" stroke="#333" stroke-width="2" fill="none"/><use xlink:href="#z" transform="matrix(1,0,0,1,318,679) translate(42.625 14.6)"/><use xlink:href="#A" transform="matrix(1,0,0,1,322,716.6) translate(0 14.4)"/><use xlink:href="#f" transform="matrix(1,0,0,1,322,716.6) translate(167.89999999999998 14.4)"/><path d="M430 669.5v-30.12" stroke="#333" fill="none"/><path d="M430.5 670h-1v-.5h1z" fill="#333"/><path d="M430 624.62l4.64 14.26h-9.28z" stroke="#333" fill="#fff"/><path d="M400.3 788h240v80h-240z" stroke="#333" stroke-width="2" fill="#c1e4f7"/><path d="M400.3 825.6h240" stroke="#333" stroke-width="2" fill="none"/><use xlink:href="#B" transform="matrix(1,0,0,1,408.30274736676097,796) translate(70.55 14.6)"/><use xlink:href="#C" transform="matrix(1,0,0,1,412.30274736676097,833.6) translate(0 14.4)"/><use xlink:href="#q" transform="matrix(1,0,0,1,412.30274736676097,833.6) translate(118.4 14.4)"/><path d="M765 669.5v-51.12" stroke="#333" fill="none"/><path d="M765.5 670h-1v-.5h1z" fill="#333"/><path d="M765 603.62l4.64 14.26h-9.28z" stroke="#333" fill="#fff"/><path d="M398.8 828h-39.1v-59.62" stroke="#333" fill="none"/><path d="M399.3 828.5h-.5v-1h.5z" fill="#333"/><path d="M359.7 753.62l4.63 14.26h-9.27z" stroke="#333" fill="#fff"/><path d="M408.8 978h-49.1V768.38" stroke="#333" fill="none"/><path d="M409.3 978.5h-.5v-1h.5z" fill="#333"/><path d="M359.7 753.62l4.63 14.26h-9.27z" stroke="#333" fill="#fff"/><path d="M940 671h220v60H940z" stroke="#333" stroke-width="2" fill="#c1e4f7"/><use xlink:href="#D" transform="matrix(1,0,0,1,948,679) translate(63.724999999999994 25.6)"/><path d="M1050 669.5V639H765v-20.62" stroke="#333" fill="none"/><path d="M1050.5 670h-1v-.5h1z" fill="#333"/><path d="M765 603.62l4.64 14.26h-9.28z" stroke="#333" fill="#fff"/><path d="M631.8 991.75h372.27V748.38" stroke="#333" fill="none"/><path d="M631.82 992.25h-.52v-1h.52z" fill="#333"/><path d="M1004.07 733.62l4.63 14.26h-9.27z" stroke="#333" fill="#333"/><use xlink:href="#E" transform="matrix(1,0,0,1,1012.0663886412752,756.027110009323) translate(0 14.4)"/><path d="M789.02 774.5v188.6H647.7" stroke="#333" fill="none"/><path d="M789.52 774.5h-1v-.5h1z" fill="#333"/><path d="M632.92 963.1l14.27-4.64v9.27z" stroke="#333" fill="#333"/><use xlink:href="#r" transform="matrix(1,0,0,1,630.9328016595398,937.496520334263) translate(0 14.4)"/><use xlink:href="#F" transform="matrix(1,0,0,1,630.9328016595398,937.496520334263) translate(42 14.4)"/><path d="M727.76 774.5v72H657.7" stroke="#333" fill="none"/><path d="M728.26 774.5h-1v-.5h1z" fill="#333"/><path d="M642.92 846.5l14.27-4.64v9.27z" stroke="#333" fill="#333"/><g><use xlink:href="#r" transform="matrix(1,0,0,1,640.8162749982329,850.4913670081031) translate(0 14.4)"/><use xlink:href="#G" transform="matrix(1,0,0,1,640.8162749982329,850.4913670081031) translate(42 14.4)"/></g><path d="M410.3 948h220v60h-220z" stroke="#333" stroke-width="2" fill="#c1e4f7"/><g><use xlink:href="#H" transform="matrix(1,0,0,1,418.30274736676097,956) translate(68.55 25.6)"/></g><path d="M1082.72 860h220v60h-220z" stroke="#333" stroke-width="2" fill="#c1e4f7"/><g><use xlink:href="#I" transform="matrix(1,0,0,1,1090.7193370165746,868) translate(78.525 25.6)"/></g><path d="M1125.54 858.5V748.38" stroke="#333" fill="none"/><path d="M1126.04 859h-1v-.5h1z" fill="#333"/><path d="M1125.54 733.62l4.63 14.26h-9.27z" stroke="#333" fill="#fff"/><path d="M1219.5 858.5V576.38" stroke="#333" fill="none"/><path d="M1220 859h-1v-.5h1z" fill="#333"/><path d="M1219.5 561.62l4.62 14.26h-9.27z" stroke="#333" fill="#333"/><g><use xlink:href="#r" transform="matrix(1,0,0,1,1117.6894685150285,583.7953046462217) translate(0 14.4)"/><use xlink:href="#J" transform="matrix(1,0,0,1,1117.6894685150285,583.7953046462217) translate(42 14.4)"/></g><defs><path d="M205 0l-28-72H64L36 0H1l101-248h38L239 0h-34zm-38-99l-47-123c-12 45-31 82-46 123h93" id="K"/><path d="M115-194c53 0 69 39 70 98 0 66-23 100-70 100C84 3 66-7 56-30L54 0H23l1-261h32v101c10-23 28-34 59-34zm-8 174c40 0 45-34 45-75 0-40-5-75-45-74-42 0-51 32-51 76 0 43 10 73 51 73" id="L"/><path d="M135-143c-3-34-86-38-87 0 15 53 115 12 119 90S17 21 10-45l28-5c4 36 97 45 98 0-10-56-113-15-118-90-4-57 82-63 122-42 12 7 21 19 24 35" id="M"/><path d="M59-47c-2 24 18 29 38 22v24C64 9 27 4 27-40v-127H5v-23h24l9-43h21v43h35v23H59v120" id="N"/><path d="M114-163C36-179 61-72 57 0H25l-1-190h30c1 12-1 29 2 39 6-27 23-49 58-41v29" id="O"/><path d="M141-36C126-15 110 5 73 4 37 3 15-17 15-53c-1-64 63-63 125-63 3-35-9-54-41-54-24 1-41 7-42 31l-33-3c5-37 33-52 76-52 45 0 72 20 72 64v82c-1 20 7 32 28 27v20c-31 9-61-2-59-35zM48-53c0 20 12 33 32 33 41-3 63-29 60-74-43 2-92-5-92 41" id="P"/><path d="M96-169c-40 0-48 33-48 73s9 75 48 75c24 0 41-14 43-38l32 2c-6 37-31 61-74 61-59 0-76-41-82-99-10-93 101-131 147-64 4 7 5 14 7 22l-32 3c-4-21-16-35-41-35" id="Q"/><path d="M185-189c-5-48-123-54-124 2 14 75 158 14 163 119 3 78-121 87-175 55-17-10-28-26-33-46l33-7c5 56 141 63 141-1 0-78-155-14-162-118-5-82 145-84 179-34 5 7 8 16 11 25" id="R"/><path d="M179-190L93 31C79 59 56 82 12 73V49c39 6 53-20 64-50L1-190h34L92-34l54-156h33" id="S"/><path d="M117-194c89-4 53 116 60 194h-32v-121c0-31-8-49-39-48C34-167 62-67 57 0H25l-1-190h30c1 10-1 24 2 32 11-22 29-35 61-36" id="T"/><path d="M141 0L90-78 38 0H4l68-98-65-92h35l48 74 47-74h35l-64 92 68 98h-35" id="U"/><path d="M240 0l2-218c-23 76-54 145-80 218h-23L58-218 59 0H30v-248h44l77 211c21-75 51-140 76-211h43V0h-30" id="V"/><g id="a"><use transform="matrix(0.05,0,0,0.05,0,0)" xlink:href="#K"/><use transform="matrix(0.05,0,0,0.05,12,0)" xlink:href="#L"/><use transform="matrix(0.05,0,0,0.05,22,0)" xlink:href="#M"/><use transform="matrix(0.05,0,0,0.05,31,0)" xlink:href="#N"/><use transform="matrix(0.05,0,0,0.05,36,0)" xlink:href="#O"/><use transform="matrix(0.05,0,0,0.05,41.95,0)" xlink:href="#P"/><use transform="matrix(0.05,0,0,0.05,51.95,0)" xlink:href="#Q"/><use transform="matrix(0.05,0,0,0.05,60.95,0)" xlink:href="#N"/><use transform="matrix(0.05,0,0,0.05,65.95,0)" xlink:href="#R"/><use transform="matrix(0.05,0,0,0.05,77.95,0)" xlink:href="#S"/><use transform="matrix(0.05,0,0,0.05,86.95,0)" xlink:href="#T"/><use transform="matrix(0.05,0,0,0.05,96.95,0)" xlink:href="#N"/><use transform="matrix(0.05,0,0,0.05,101.95,0)" xlink:href="#P"/><use transform="matrix(0.05,0,0,0.05,111.95,0)" xlink:href="#U"/><use transform="matrix(0.05,0,0,0.05,120.95,0)" xlink:href="#V"/><use transform="matrix(0.05,0,0,0.05,135.9,0)" xlink:href="#V"/></g><path d="M125-24c46 0 70-25 89-51l25 16C214-24 183 4 123 4 8 4-5-146 60-208c32-50 158-61 191-5 5 7 9 14 11 22l-32 10c-9-28-33-43-69-43-74 0-108 51-108 125 0 46 24 75 72 75" id="W"/><path d="M6 0l50-261h32L37 0H6" id="X"/><path d="M165-48c-4 18 1 34 23 27l-3 20c-29 8-62 0-52-35h-2C116-14 99 4 63 4 30 4 8-16 8-49c0-68 71-67 138-67 10-26 0-56-31-54-26 1-42 9-47 31l-32-5c8-67 160-71 144 15-5 28-9 54-15 81zM42-50c3 52 80 24 89-6 7-12 7-24 11-38-47 1-103-4-100 44" id="Y"/><path d="M55-144c13 50 104 24 104 88C159 21 15 23 1-39l26-10c6 40 102 42 102-4-13-50-104-23-104-87 0-71 143-71 148-8l-29 4c-5-35-85-37-89 0" id="Z"/><path d="M50-231l6-30h32l-6 30H50zM6 0l37-190h31L37 0H6" id="aa"/><path d="M76-167L44 0H12l33-167H18l4-23h27c3-47 25-81 82-69l-4 24c-35-8-44 15-46 45h37l-5 23H76" id="ab"/><path d="M111-194c62-3 86 47 72 106H45c-7 38 6 69 45 68 27-1 43-14 53-32l24 11C152-15 129 4 87 4 38 3 12-23 12-71c0-70 32-119 99-123zm44 81c14-66-71-72-95-28-4 8-8 17-11 28h106" id="ac"/><path d="M66-151c12-25 30-51 66-40l-6 26C45-176 58-65 38 0H6l36-190h30" id="ad"/><g id="b"><use transform="matrix(0.05,0,0,0.05,0,0)" xlink:href="#W"/><use transform="matrix(0.05,0,0,0.05,12.950000000000001,0)" xlink:href="#X"/><use transform="matrix(0.05,0,0,0.05,16.900000000000002,0)" xlink:href="#Y"/><use transform="matrix(0.05,0,0,0.05,26.900000000000002,0)" xlink:href="#Z"/><use transform="matrix(0.05,0,0,0.05,35.900000000000006,0)" xlink:href="#Z"/><use transform="matrix(0.05,0,0,0.05,44.900000000000006,0)" xlink:href="#aa"/><use transform="matrix(0.05,0,0,0.05,48.85000000000001,0)" xlink:href="#ab"/><use transform="matrix(0.05,0,0,0.05,53.85,0)" xlink:href="#aa"/><use transform="matrix(0.05,0,0,0.05,57.80000000000001,0)" xlink:href="#ac"/><use transform="matrix(0.05,0,0,0.05,67.80000000000001,0)" xlink:href="#ad"/></g><path d="M238-179c0 84-86 86-175 82L45 0H11l48-248c82 0 179-12 179 69zm-34 1c0-53-64-42-116-43l-19 98c63 0 135 9 135-55" id="ae"/><path d="M44-68c0 29 11 47 38 47 30 0 42-19 51-41l28 9C148-21 126 4 82 4 31 4 10-29 12-85c3-77 74-140 146-93 12 8 15 23 18 40l-31 5c-1-22-13-36-36-36-52 0-65 49-65 101" id="af"/><path d="M127 0L80-88 50-66 37 0H6l51-261h31L57-100l99-90h39l-93 82L161 0h-34" id="ag"/><path d="M103-194c29 0 47 14 56 36 2-11 5-23 8-32h30L160-5C157 61 82 97 21 62 9 55 4 45 1 30l28-7c7 42 83 31 92-3 4-16 9-38 13-55-13 20-29 36-62 36-40 0-60-25-60-64 0-71 23-131 91-131zm4 24c-53 0-58 54-61 104-2 27 10 44 36 44 49 0 65-50 67-102 1-29-15-46-42-46" id="ah"/><g id="c"><use transform="matrix(0.05,0,0,0.05,0,0)" xlink:href="#ae"/><use transform="matrix(0.05,0,0,0.05,12,0)" xlink:href="#Y"/><use transform="matrix(0.05,0,0,0.05,22,0)" xlink:href="#af"/><use transform="matrix(0.05,0,0,0.05,31,0)" xlink:href="#ag"/><use transform="matrix(0.05,0,0,0.05,40,0)" xlink:href="#Y"/><use transform="matrix(0.05,0,0,0.05,50,0)" xlink:href="#ah"/><use transform="matrix(0.05,0,0,0.05,60,0)" xlink:href="#ac"/></g><path d="M190 0L58-211 59 0H30v-248h39L202-35l-2-213h31V0h-41" id="ai"/><path d="M210-169c-67 3-38 105-44 169h-31v-121c0-29-5-50-35-48C34-165 62-65 56 0H25l-1-190h30c1 10-1 24 2 32 10-44 99-50 107 0 11-21 27-35 58-36 85-2 47 119 55 194h-31v-121c0-29-5-49-35-48" id="aj"/><path d="M100-194c63 0 86 42 84 106H49c0 40 14 67 53 68 26 1 43-12 49-29l28 8c-11 28-37 45-77 45C44 4 14-33 15-96c1-61 26-98 85-98zm52 81c6-60-76-77-97-28-3 7-6 17-6 28h103" id="ak"/><path d="M85-194c31 0 48 13 60 33l-1-100h32l1 261h-30c-2-10 0-23-3-31C134-8 116 4 85 4 32 4 16-35 15-94c0-66 23-100 70-100zm9 24c-40 0-46 34-46 75 0 40 6 74 45 74 42 0 51-32 51-76 0-42-9-74-50-73" id="al"/><path d="M30 0v-248h187v28H63v79h144v27H63v87h162V0H30" id="am"/><path d="M24 0v-261h32V0H24" id="an"/><g id="d"><use transform="matrix(0.05,0,0,0.05,0,0)" xlink:href="#ai"/><use transform="matrix(0.05,0,0,0.05,12.950000000000001,0)" xlink:href="#P"/><use transform="matrix(0.05,0,0,0.05,22.950000000000003,0)" xlink:href="#aj"/><use transform="matrix(0.05,0,0,0.05,37.900000000000006,0)" xlink:href="#ak"/><use transform="matrix(0.05,0,0,0.05,47.900000000000006,0)" xlink:href="#al"/><use transform="matrix(0.05,0,0,0.05,57.900000000000006,0)" xlink:href="#am"/><use transform="matrix(0.05,0,0,0.05,69.9,0)" xlink:href="#an"/><use transform="matrix(0.05,0,0,0.05,73.85000000000001,0)" xlink:href="#ak"/><use transform="matrix(0.05,0,0,0.05,83.85000000000001,0)" xlink:href="#aj"/><use transform="matrix(0.05,0,0,0.05,98.80000000000001,0)" xlink:href="#ak"/><use transform="matrix(0.05,0,0,0.05,108.80000000000001,0)" xlink:href="#T"/><use transform="matrix(0.05,0,0,0.05,118.80000000000001,0)" xlink:href="#N"/></g><path fill="#333" d="M118-107v75H92v-75H18v-26h74v-75h26v75h74v26h-74" id="ao"/><path fill="#333" d="M117-194c89-4 53 116 60 194h-32v-121c0-31-8-49-39-48C34-167 62-67 57 0H25l-1-190h30c1 10-1 24 2 32 11-22 29-35 61-36" id="ap"/><path fill="#333" d="M141-36C126-15 110 5 73 4 37 3 15-17 15-53c-1-64 63-63 125-63 3-35-9-54-41-54-24 1-41 7-42 31l-33-3c5-37 33-52 76-52 45 0 72 20 72 64v82c-1 20 7 32 28 27v20c-31 9-61-2-59-35zM48-53c0 20 12 33 32 33 41-3 63-29 60-74-43 2-92-5-92 41" id="aq"/><path fill="#333" d="M210-169c-67 3-38 105-44 169h-31v-121c0-29-5-50-35-48C34-165 62-65 56 0H25l-1-190h30c1 10-1 24 2 32 10-44 99-50 107 0 11-21 27-35 58-36 85-2 47 119 55 194h-31v-121c0-29-5-49-35-48" id="ar"/><path fill="#333" d="M100-194c63 0 86 42 84 106H49c0 40 14 67 53 68 26 1 43-12 49-29l28 8c-11 28-37 45-77 45C44 4 14-33 15-96c1-61 26-98 85-98zm52 81c6-60-76-77-97-28-3 7-6 17-6 28h103" id="as"/><path fill="#333" d="M33-154v-36h34v36H33zM33 0v-36h34V0H33" id="at"/><g id="e"><use transform="matrix(0.05,0,0,0.05,0,0)" xlink:href="#ao"/><use transform="matrix(0.05,0,0,0.05,10.5,0)" xlink:href="#ap"/><use transform="matrix(0.05,0,0,0.05,20.5,0)" xlink:href="#aq"/><use transform="matrix(0.05,0,0,0.05,30.5,0)" xlink:href="#ar"/><use transform="matrix(0.05,0,0,0.05,45.45,0)" xlink:href="#as"/><use transform="matrix(0.05,0,0,0.05,55.45,0)" xlink:href="#at"/></g><path fill="#333" d="M185-189c-5-48-123-54-124 2 14 75 158 14 163 119 3 78-121 87-175 55-17-10-28-26-33-46l33-7c5 56 141 63 141-1 0-78-155-14-162-118-5-82 145-84 179-34 5 7 8 16 11 25" id="au"/><path fill="#333" d="M59-47c-2 24 18 29 38 22v24C64 9 27 4 27-40v-127H5v-23h24l9-43h21v43h35v23H59v120" id="av"/><path fill="#333" d="M114-163C36-179 61-72 57 0H25l-1-190h30c1 12-1 29 2 39 6-27 23-49 58-41v29" id="aw"/><path fill="#333" d="M24-231v-30h32v30H24zM24 0v-190h32V0H24" id="ax"/><path fill="#333" d="M177-190C167-65 218 103 67 71c-23-6-38-20-44-43l32-5c15 47 100 32 89-28v-30C133-14 115 1 83 1 29 1 15-40 15-95c0-56 16-97 71-98 29-1 48 16 59 35 1-10 0-23 2-32h30zM94-22c36 0 50-32 50-73 0-42-14-75-50-75-39 0-46 34-46 75s6 73 46 73" id="ay"/><g id="f"><use transform="matrix(0.05,0,0,0.05,0,0)" xlink:href="#au"/><use transform="matrix(0.05,0,0,0.05,12,0)" xlink:href="#av"/><use transform="matrix(0.05,0,0,0.05,17,0)" xlink:href="#aw"/><use transform="matrix(0.05,0,0,0.05,22.95,0)" xlink:href="#ax"/><use transform="matrix(0.05,0,0,0.05,26.899999999999995,0)" xlink:href="#ap"/><use transform="matrix(0.05,0,0,0.05,36.9,0)" xlink:href="#ay"/></g><path d="M84 4C-5 8 30-112 23-190h32v120c0 31 7 50 39 49 72-2 45-101 50-169h31l1 190h-30c-1-10 1-25-2-33-11 22-28 36-60 37" id="az"/><path d="M30 0v-248h33v221h125V0H30" id="aA"/><path d="M24-231v-30h32v30H24zM24 0v-190h32V0H24" id="aB"/><g id="g"><use transform="matrix(0.05,0,0,0.05,0,0)" xlink:href="#am"/><use transform="matrix(0.05,0,0,0.05,12,0)" xlink:href="#T"/><use transform="matrix(0.05,0,0,0.05,22,0)" xlink:href="#az"/><use transform="matrix(0.05,0,0,0.05,32,0)" xlink:href="#aj"/><use transform="matrix(0.05,0,0,0.05,46.95,0)" xlink:href="#aA"/><use transform="matrix(0.05,0,0,0.05,56.95,0)" xlink:href="#aB"/><use transform="matrix(0.05,0,0,0.05,60.900000000000006,0)" xlink:href="#N"/><use transform="matrix(0.05,0,0,0.05,65.9,0)" xlink:href="#ak"/><use transform="matrix(0.05,0,0,0.05,75.9,0)" xlink:href="#O"/><use transform="matrix(0.05,0,0,0.05,81.85000000000001,0)" xlink:href="#P"/><use transform="matrix(0.05,0,0,0.05,91.85000000000001,0)" xlink:href="#an"/></g><path fill="#333" d="M108 0H70L1-190h34L89-25l56-165h34" id="aC"/><path fill="#333" d="M24 0v-261h32V0H24" id="aD"/><path fill="#333" d="M84 4C-5 8 30-112 23-190h32v120c0 31 7 50 39 49 72-2 45-101 50-169h31l1 190h-30c-1-10 1-25-2-33-11 22-28 36-60 37" id="aE"/><g id="h"><use transform="matrix(0.05,0,0,0.05,0,0)" xlink:href="#ao"/><use transform="matrix(0.05,0,0,0.05,10.5,0)" xlink:href="#aC"/><use transform="matrix(0.05,0,0,0.05,19.5,0)" xlink:href="#aq"/><use transform="matrix(0.05,0,0,0.05,29.5,0)" xlink:href="#aD"/><use transform="matrix(0.05,0,0,0.05,33.45,0)" xlink:href="#aE"/><use transform="matrix(0.05,0,0,0.05,43.45,0)" xlink:href="#as"/><use transform="matrix(0.05,0,0,0.05,53.45,0)" xlink:href="#at"/></g><path fill="#333" d="M33 0v-248h34V0H33" id="aF"/><g id="i"><use transform="matrix(0.05,0,0,0.05,0,0)" xlink:href="#aF"/><use transform="matrix(0.05,0,0,0.05,5,0)" xlink:href="#ap"/><use transform="matrix(0.05,0,0,0.05,15,0)" xlink:href="#av"/></g><path d="M26 75v-336h71v23H56V52h41v23H26" id="aG"/><path d="M101-251c68 0 85 55 85 127S166 4 100 4C33 4 14-52 14-124c0-73 17-127 87-127zm-1 229c47 0 54-49 54-102s-4-102-53-102c-51 0-55 48-55 102 0 53 5 102 54 102" id="aH"/><path d="M33 0v-38h34V0H33" id="aI"/><path d="M80-196l47-18 7 23-49 13 32 44-20 13-27-46-27 45-21-12 33-44-49-13 8-23 47 19-2-53h23" id="aJ"/><path d="M3 75V52h41v-290H3v-23h71V75H3" id="aK"/><g id="j"><use transform="matrix(0.05,0,0,0.05,0,0)" xlink:href="#aG"/><use transform="matrix(0.05,0,0,0.05,5,0)" xlink:href="#aH"/><use transform="matrix(0.05,0,0,0.05,15,0)" xlink:href="#aI"/><use transform="matrix(0.05,0,0,0.05,20,0)" xlink:href="#aI"/><use transform="matrix(0.05,0,0,0.05,25,0)" xlink:href="#aJ"/><use transform="matrix(0.05,0,0,0.05,32,0)" xlink:href="#aK"/></g><path d="M101-234c-31-9-42 10-38 44h38v23H63V0H32v-167H5v-23h27c-7-52 17-82 69-68v24" id="aL"/><g id="k"><use transform="matrix(0.05,0,0,0.05,0,0)" xlink:href="#Q"/><use transform="matrix(0.05,0,0,0.05,9,0)" xlink:href="#an"/><use transform="matrix(0.05,0,0,0.05,12.949999999999998,0)" xlink:href="#P"/><use transform="matrix(0.05,0,0,0.05,22.95,0)" xlink:href="#M"/><use transform="matrix(0.05,0,0,0.05,31.950000000000003,0)" xlink:href="#M"/><use transform="matrix(0.05,0,0,0.05,40.95,0)" xlink:href="#aB"/><use transform="matrix(0.05,0,0,0.05,44.900000000000006,0)" xlink:href="#aL"/><use transform="matrix(0.05,0,0,0.05,49.900000000000006,0)" xlink:href="#aB"/><use transform="matrix(0.05,0,0,0.05,53.85,0)" xlink:href="#ak"/><use transform="matrix(0.05,0,0,0.05,63.85,0)" xlink:href="#O"/><use transform="matrix(0.05,0,0,0.05,69.80000000000001,0)" xlink:href="#M"/></g><path d="M115-194c55 1 70 41 70 98S169 2 115 4C84 4 66-9 55-30l1 105H24l-1-265h31l2 30c10-21 28-34 59-34zm-8 174c40 0 45-34 45-75s-6-73-45-74c-42 0-51 32-51 76 0 43 10 73 51 73" id="aM"/><path d="M143 0L79-87 56-68V0H24v-261h32v163l83-92h37l-77 82L181 0h-38" id="aN"/><path d="M177-190C167-65 218 103 67 71c-23-6-38-20-44-43l32-5c15 47 100 32 89-28v-30C133-14 115 1 83 1 29 1 15-40 15-95c0-56 16-97 71-98 29-1 48 16 59 35 1-10 0-23 2-32h30zM94-22c36 0 50-32 50-73 0-42-14-75-50-75-39 0-46 34-46 75s6 73 46 73" id="aO"/><g id="l"><use transform="matrix(0.05,0,0,0.05,0,0)" xlink:href="#aM"/><use transform="matrix(0.05,0,0,0.05,10,0)" xlink:href="#P"/><use transform="matrix(0.05,0,0,0.05,20,0)" xlink:href="#Q"/><use transform="matrix(0.05,0,0,0.05,29,0)" xlink:href="#aN"/><use transform="matrix(0.05,0,0,0.05,38,0)" xlink:href="#P"/><use transform="matrix(0.05,0,0,0.05,48,0)" xlink:href="#aO"/><use transform="matrix(0.05,0,0,0.05,58,0)" xlink:href="#ak"/></g><path d="M212-179c-10-28-35-45-73-45-59 0-87 40-87 99 0 60 29 101 89 101 43 0 62-24 78-52l27 14C228-24 195 4 139 4 59 4 22-46 18-125c-6-104 99-153 187-111 19 9 31 26 39 46" id="aP"/><g id="m"><use transform="matrix(0.05,0,0,0.05,0,0)" xlink:href="#aP"/><use transform="matrix(0.05,0,0,0.05,12.950000000000001,0)" xlink:href="#an"/><use transform="matrix(0.05,0,0,0.05,16.900000000000002,0)" xlink:href="#P"/><use transform="matrix(0.05,0,0,0.05,26.900000000000002,0)" xlink:href="#M"/><use transform="matrix(0.05,0,0,0.05,35.900000000000006,0)" xlink:href="#M"/></g><path fill="#333" d="M115-194c53 0 69 39 70 98 0 66-23 100-70 100C84 3 66-7 56-30L54 0H23l1-261h32v101c10-23 28-34 59-34zm-8 174c40 0 45-34 45-75 0-40-5-75-45-74-42 0-51 32-51 76 0 43 10 73 51 73" id="aQ"/><path fill="#333" d="M135-143c-3-34-86-38-87 0 15 53 115 12 119 90S17 21 10-45l28-5c4 36 97 45 98 0-10-56-113-15-118-90-4-57 82-63 122-42 12 7 21 19 24 35" id="aR"/><path fill="#333" d="M96-169c-40 0-48 33-48 73s9 75 48 75c24 0 41-14 43-38l32 2c-6 37-31 61-74 61-59 0-76-41-82-99-10-93 101-131 147-64 4 7 5 14 7 22l-32 3c-4-21-16-35-41-35" id="aS"/><g id="n"><use transform="matrix(0.05,0,0,0.05,0,0)" xlink:href="#ao"/><use transform="matrix(0.05,0,0,0.05,10.5,0)" xlink:href="#aq"/><use transform="matrix(0.05,0,0,0.05,20.5,0)" xlink:href="#aQ"/><use transform="matrix(0.05,0,0,0.05,30.5,0)" xlink:href="#aR"/><use transform="matrix(0.05,0,0,0.05,39.5,0)" xlink:href="#av"/><use transform="matrix(0.05,0,0,0.05,44.5,0)" xlink:href="#aw"/><use transform="matrix(0.05,0,0,0.05,50.45,0)" xlink:href="#aq"/><use transform="matrix(0.05,0,0,0.05,60.45,0)" xlink:href="#aS"/><use transform="matrix(0.05,0,0,0.05,69.45,0)" xlink:href="#av"/><use transform="matrix(0.05,0,0,0.05,74.45,0)" xlink:href="#at"/></g><path fill="#333" d="M160-131c35 5 61 23 61 61C221 17 115-2 30 0v-248c76 3 177-17 177 60 0 33-19 50-47 57zm-97-11c50-1 110 9 110-42 0-47-63-36-110-37v79zm0 115c55-2 124 14 124-45 0-56-70-42-124-44v89" id="aT"/><path fill="#333" d="M100-194c62-1 85 37 85 99 1 63-27 99-86 99S16-35 15-95c0-66 28-99 85-99zM99-20c44 1 53-31 53-75 0-43-8-75-51-75s-53 32-53 75 10 74 51 75" id="aU"/><g id="o"><use transform="matrix(0.05,0,0,0.05,0,0)" xlink:href="#aT"/><use transform="matrix(0.05,0,0,0.05,12,0)" xlink:href="#aU"/><use transform="matrix(0.05,0,0,0.05,22,0)" xlink:href="#aU"/><use transform="matrix(0.05,0,0,0.05,32,0)" xlink:href="#aD"/><use transform="matrix(0.05,0,0,0.05,35.95,0)" xlink:href="#as"/><use transform="matrix(0.05,0,0,0.05,45.95,0)" xlink:href="#aq"/><use transform="matrix(0.05,0,0,0.05,55.95,0)" xlink:href="#ap"/></g><path fill="#333" d="M101-234c-31-9-42 10-38 44h38v23H63V0H32v-167H5v-23h27c-7-52 17-82 69-68v24" id="aV"/><g id="p"><use transform="matrix(0.05,0,0,0.05,0,0)" xlink:href="#ao"/><use transform="matrix(0.05,0,0,0.05,10.5,0)" xlink:href="#ax"/><use transform="matrix(0.05,0,0,0.05,14.449999999999998,0)" xlink:href="#ap"/><use transform="matrix(0.05,0,0,0.05,24.45,0)" xlink:href="#av"/><use transform="matrix(0.05,0,0,0.05,29.450000000000003,0)" xlink:href="#as"/><use transform="matrix(0.05,0,0,0.05,39.45,0)" xlink:href="#aw"/><use transform="matrix(0.05,0,0,0.05,45.400000000000006,0)" xlink:href="#aV"/><use transform="matrix(0.05,0,0,0.05,50.400000000000006,0)" xlink:href="#aq"/><use transform="matrix(0.05,0,0,0.05,60.400000000000006,0)" xlink:href="#aS"/><use transform="matrix(0.05,0,0,0.05,69.4,0)" xlink:href="#as"/><use transform="matrix(0.05,0,0,0.05,79.4,0)" xlink:href="#at"/></g><g id="q"><use transform="matrix(0.05,0,0,0.05,0,0)" xlink:href="#aT"/><use transform="matrix(0.05,0,0,0.05,12,0)" xlink:href="#aU"/><use transform="matrix(0.05,0,0,0.05,22,0)" xlink:href="#aU"/><use transform="matrix(0.05,0,0,0.05,32,0)" xlink:href="#aD"/><use transform="matrix(0.05,0,0,0.05,35.95,0)" xlink:href="#as"/><use transform="matrix(0.05,0,0,0.05,45.95,0)" xlink:href="#aq"/><use transform="matrix(0.05,0,0,0.05,55.95,0)" xlink:href="#ap"/></g><g id="r"><use transform="matrix(0.05,0,0,0.05,0,0)" xlink:href="#aG"/><use transform="matrix(0.05,0,0,0.05,5,0)" xlink:href="#aH"/><use transform="matrix(0.05,0,0,0.05,15,0)" xlink:href="#aI"/><use transform="matrix(0.05,0,0,0.05,20,0)" xlink:href="#aI"/><use transform="matrix(0.05,0,0,0.05,25,0)" xlink:href="#aJ"/><use transform="matrix(0.05,0,0,0.05,32,0)" xlink:href="#aK"/></g><g id="s"><use transform="matrix(0.05,0,0,0.05,0,0)" xlink:href="#M"/><use transform="matrix(0.05,0,0,0.05,9,0)" xlink:href="#az"/><use transform="matrix(0.05,0,0,0.05,19,0)" xlink:href="#aM"/><use transform="matrix(0.05,0,0,0.05,29,0)" xlink:href="#ak"/><use transform="matrix(0.05,0,0,0.05,39,0)" xlink:href="#O"/><use transform="matrix(0.05,0,0,0.05,44.95,0)" xlink:href="#N"/><use transform="matrix(0.05,0,0,0.05,49.95,0)" xlink:href="#S"/><use transform="matrix(0.05,0,0,0.05,58.95,0)" xlink:href="#aM"/><use transform="matrix(0.05,0,0,0.05,68.95,0)" xlink:href="#ak"/><use transform="matrix(0.05,0,0,0.05,78.95,0)" xlink:href="#M"/></g><g id="t"><use transform="matrix(0.05,0,0,0.05,0,0)" xlink:href="#aM"/><use transform="matrix(0.05,0,0,0.05,10,0)" xlink:href="#P"/><use transform="matrix(0.05,0,0,0.05,20,0)" xlink:href="#Q"/><use transform="matrix(0.05,0,0,0.05,29,0)" xlink:href="#aN"/><use transform="matrix(0.05,0,0,0.05,38,0)" xlink:href="#P"/><use transform="matrix(0.05,0,0,0.05,48,0)" xlink:href="#aO"/><use transform="matrix(0.05,0,0,0.05,58,0)" xlink:href="#ak"/></g><path d="M127-220V0H93v-220H8v-28h204v28h-85" id="aW"/><g id="u"><use transform="matrix(0.05,0,0,0.05,0,0)" xlink:href="#aW"/><use transform="matrix(0.05,0,0,0.05,9.950000000000001,0)" xlink:href="#S"/><use transform="matrix(0.05,0,0,0.05,18.950000000000003,0)" xlink:href="#aM"/><use transform="matrix(0.05,0,0,0.05,28.950000000000003,0)" xlink:href="#ak"/><use transform="matrix(0.05,0,0,0.05,38.95,0)" xlink:href="#al"/><use transform="matrix(0.05,0,0,0.05,48.95,0)" xlink:href="#am"/><use transform="matrix(0.05,0,0,0.05,60.95,0)" xlink:href="#an"/><use transform="matrix(0.05,0,0,0.05,64.9,0)" xlink:href="#ak"/><use transform="matrix(0.05,0,0,0.05,74.9,0)" xlink:href="#aj"/><use transform="matrix(0.05,0,0,0.05,89.85000000000001,0)" xlink:href="#ak"/><use transform="matrix(0.05,0,0,0.05,99.85000000000001,0)" xlink:href="#T"/><use transform="matrix(0.05,0,0,0.05,109.85000000000001,0)" xlink:href="#N"/></g><path fill="#333" d="M206 0h-36l-40-164L89 0H53L-1-190h32L70-26l43-164h34l41 164 42-164h31" id="aX"/><path fill="#333" d="M85-194c31 0 48 13 60 33l-1-100h32l1 261h-30c-2-10 0-23-3-31C134-8 116 4 85 4 32 4 16-35 15-94c0-66 23-100 70-100zm9 24c-40 0-46 34-46 75 0 40 6 74 45 74 42 0 51-32 51-76 0-42-9-74-50-73" id="aY"/><g id="v"><use transform="matrix(0.05,0,0,0.05,0,0)" xlink:href="#aD"/><use transform="matrix(0.05,0,0,0.05,3.95,0)" xlink:href="#aU"/><use transform="matrix(0.05,0,0,0.05,13.949999999999998,0)" xlink:href="#aX"/><use transform="matrix(0.05,0,0,0.05,26.899999999999995,0)" xlink:href="#as"/><use transform="matrix(0.05,0,0,0.05,36.9,0)" xlink:href="#aw"/><use transform="matrix(0.05,0,0,0.05,42.85,0)" xlink:href="#aT"/><use transform="matrix(0.05,0,0,0.05,54.85,0)" xlink:href="#aU"/><use transform="matrix(0.05,0,0,0.05,64.85,0)" xlink:href="#aE"/><use transform="matrix(0.05,0,0,0.05,74.85,0)" xlink:href="#ap"/><use transform="matrix(0.05,0,0,0.05,84.85,0)" xlink:href="#aY"/><use transform="matrix(0.05,0,0,0.05,94.85,0)" xlink:href="#at"/></g><g id="w"><use transform="matrix(0.05,0,0,0.05,0,0)" xlink:href="#aF"/><use transform="matrix(0.05,0,0,0.05,5,0)" xlink:href="#ap"/><use transform="matrix(0.05,0,0,0.05,15,0)" xlink:href="#av"/></g><path fill="#333" d="M115-194c55 1 70 41 70 98S169 2 115 4C84 4 66-9 55-30l1 105H24l-1-265h31l2 30c10-21 28-34 59-34zm-8 174c40 0 45-34 45-75s-6-73-45-74c-42 0-51 32-51 76 0 43 10 73 51 73" id="aZ"/><g id="x"><use transform="matrix(0.05,0,0,0.05,0,0)" xlink:href="#aE"/><use transform="matrix(0.05,0,0,0.05,10,0)" xlink:href="#aZ"/><use transform="matrix(0.05,0,0,0.05,20,0)" xlink:href="#aZ"/><use transform="matrix(0.05,0,0,0.05,30,0)" xlink:href="#as"/><use transform="matrix(0.05,0,0,0.05,40,0)" xlink:href="#aw"/><use transform="matrix(0.05,0,0,0.05,45.95,0)" xlink:href="#aT"/><use transform="matrix(0.05,0,0,0.05,57.95,0)" xlink:href="#aU"/><use transform="matrix(0.05,0,0,0.05,67.95,0)" xlink:href="#aE"/><use transform="matrix(0.05,0,0,0.05,77.95,0)" xlink:href="#ap"/><use transform="matrix(0.05,0,0,0.05,87.95,0)" xlink:href="#aY"/><use transform="matrix(0.05,0,0,0.05,97.95,0)" xlink:href="#at"/></g><g id="y"><use transform="matrix(0.05,0,0,0.05,0,0)" xlink:href="#N"/><use transform="matrix(0.05,0,0,0.05,5,0)" xlink:href="#S"/><use transform="matrix(0.05,0,0,0.05,14,0)" xlink:href="#aM"/><use transform="matrix(0.05,0,0,0.05,24,0)" xlink:href="#ak"/></g><path d="M63-220v92h138v28H63V0H30v-248h175v28H63" id="ba"/><g id="z"><use transform="matrix(0.05,0,0,0.05,0,0)" xlink:href="#R"/><use transform="matrix(0.05,0,0,0.05,12,0)" xlink:href="#N"/><use transform="matrix(0.05,0,0,0.05,17,0)" xlink:href="#O"/><use transform="matrix(0.05,0,0,0.05,22.95,0)" xlink:href="#az"/><use transform="matrix(0.05,0,0,0.05,32.95,0)" xlink:href="#Q"/><use transform="matrix(0.05,0,0,0.05,41.95,0)" xlink:href="#N"/><use transform="matrix(0.05,0,0,0.05,46.95,0)" xlink:href="#az"/><use transform="matrix(0.05,0,0,0.05,56.95,0)" xlink:href="#O"/><use transform="matrix(0.05,0,0,0.05,62.900000000000006,0)" xlink:href="#P"/><use transform="matrix(0.05,0,0,0.05,72.9,0)" xlink:href="#an"/><use transform="matrix(0.05,0,0,0.05,76.85000000000001,0)" xlink:href="#ba"/><use transform="matrix(0.05,0,0,0.05,87.80000000000001,0)" xlink:href="#ak"/><use transform="matrix(0.05,0,0,0.05,97.80000000000001,0)" xlink:href="#P"/><use transform="matrix(0.05,0,0,0.05,107.80000000000001,0)" xlink:href="#N"/><use transform="matrix(0.05,0,0,0.05,112.80000000000001,0)" xlink:href="#az"/><use transform="matrix(0.05,0,0,0.05,122.80000000000001,0)" xlink:href="#O"/><use transform="matrix(0.05,0,0,0.05,128.75,0)" xlink:href="#ak"/></g><path fill="#333" d="M137 0h-34L2-248h35l83 218 83-218h36" id="bb"/><path fill="#333" d="M30 0v-248h33v221h125V0H30" id="bc"/><g id="A"><use transform="matrix(0.05,0,0,0.05,0,0)" xlink:href="#ao"/><use transform="matrix(0.05,0,0,0.05,10.5,0)" xlink:href="#aY"/><use transform="matrix(0.05,0,0,0.05,20.5,0)" xlink:href="#as"/><use transform="matrix(0.05,0,0,0.05,30.5,0)" xlink:href="#aV"/><use transform="matrix(0.05,0,0,0.05,35.5,0)" xlink:href="#aq"/><use transform="matrix(0.05,0,0,0.05,45.5,0)" xlink:href="#aE"/><use transform="matrix(0.05,0,0,0.05,55.5,0)" xlink:href="#aD"/><use transform="matrix(0.05,0,0,0.05,59.45,0)" xlink:href="#av"/><use transform="matrix(0.05,0,0,0.05,64.45,0)" xlink:href="#bb"/><use transform="matrix(0.05,0,0,0.05,75.1,0)" xlink:href="#aq"/><use transform="matrix(0.05,0,0,0.05,85.1,0)" xlink:href="#aD"/><use transform="matrix(0.05,0,0,0.05,89.05,0)" xlink:href="#aE"/><use transform="matrix(0.05,0,0,0.05,99.05,0)" xlink:href="#as"/><use transform="matrix(0.05,0,0,0.05,109.05000000000001,0)" xlink:href="#bc"/><use transform="matrix(0.05,0,0,0.05,119.05000000000001,0)" xlink:href="#ax"/><use transform="matrix(0.05,0,0,0.05,123,0)" xlink:href="#av"/><use transform="matrix(0.05,0,0,0.05,128,0)" xlink:href="#as"/><use transform="matrix(0.05,0,0,0.05,138,0)" xlink:href="#aw"/><use transform="matrix(0.05,0,0,0.05,143.95,0)" xlink:href="#aq"/><use transform="matrix(0.05,0,0,0.05,153.95,0)" xlink:href="#aD"/><use transform="matrix(0.05,0,0,0.05,157.89999999999998,0)" xlink:href="#at"/></g><path d="M233-177c-1 41-23 64-60 70L243 0h-38l-65-103H63V0H30v-248c88 3 205-21 203 71zM63-129c60-2 137 13 137-47 0-61-80-42-137-45v92" id="bd"/><g id="B"><use transform="matrix(0.05,0,0,0.05,0,0)" xlink:href="#bd"/><use transform="matrix(0.05,0,0,0.05,12.950000000000001,0)" xlink:href="#ak"/><use transform="matrix(0.05,0,0,0.05,22.950000000000003,0)" xlink:href="#aL"/><use transform="matrix(0.05,0,0,0.05,27.950000000000003,0)" xlink:href="#ak"/><use transform="matrix(0.05,0,0,0.05,37.95,0)" xlink:href="#O"/><use transform="matrix(0.05,0,0,0.05,43.900000000000006,0)" xlink:href="#ak"/><use transform="matrix(0.05,0,0,0.05,53.900000000000006,0)" xlink:href="#T"/><use transform="matrix(0.05,0,0,0.05,63.900000000000006,0)" xlink:href="#Q"/><use transform="matrix(0.05,0,0,0.05,72.9,0)" xlink:href="#ak"/></g><g id="C"><use transform="matrix(0.05,0,0,0.05,0,0)" xlink:href="#ao"/><use transform="matrix(0.05,0,0,0.05,10.5,0)" xlink:href="#aS"/><use transform="matrix(0.05,0,0,0.05,19.5,0)" xlink:href="#aU"/><use transform="matrix(0.05,0,0,0.05,29.5,0)" xlink:href="#ap"/><use transform="matrix(0.05,0,0,0.05,39.5,0)" xlink:href="#av"/><use transform="matrix(0.05,0,0,0.05,44.5,0)" xlink:href="#aq"/><use transform="matrix(0.05,0,0,0.05,54.5,0)" xlink:href="#ax"/><use transform="matrix(0.05,0,0,0.05,58.45,0)" xlink:href="#ap"/><use transform="matrix(0.05,0,0,0.05,68.45,0)" xlink:href="#ar"/><use transform="matrix(0.05,0,0,0.05,83.4,0)" xlink:href="#as"/><use transform="matrix(0.05,0,0,0.05,93.4,0)" xlink:href="#ap"/><use transform="matrix(0.05,0,0,0.05,103.4,0)" xlink:href="#av"/><use transform="matrix(0.05,0,0,0.05,108.4,0)" xlink:href="#at"/></g><path d="M248-139C247-14 144 9 11 0l48-248c105-6 190 8 189 109zm-34 0c1-70-52-87-126-82L50-27c98 7 163-21 164-112" id="be"/><path d="M51-54c-9 22 5 41 31 30L79-1C43 14 10-4 19-52l22-115H19l5-23h22l19-43h21l-9 43h35l-4 23H73" id="bf"/><path d="M151-220L108 0H75l42-220H32l6-28h203l-5 28h-85" id="bg"/><path d="M198-190L69 30C53 58 25 83-20 72c4-11-1-27 19-22 33-1 43-29 59-52L20-190h32L79-34l84-156h35" id="bh"/><path d="M67-162c32-53 139-36 121 50C175-51 163 2 97 4 68 4 52-11 42-31 38 6 28 39 22 75H-9l50-265h29c-1 10 0 20-3 28zm89 36c0-26-10-43-35-43-54 0-67 50-69 103-1 29 14 45 42 46 53 0 62-58 62-106" id="bi"/><g id="D"><use transform="matrix(0.05,0,0,0.05,0,0)" xlink:href="#be"/><use transform="matrix(0.05,0,0,0.05,12.950000000000001,0)" xlink:href="#Y"/><use transform="matrix(0.05,0,0,0.05,22.950000000000003,0)" xlink:href="#bf"/><use transform="matrix(0.05,0,0,0.05,27.950000000000003,0)" xlink:href="#Y"/><use transform="matrix(0.05,0,0,0.05,37.95,0)" xlink:href="#bg"/><use transform="matrix(0.05,0,0,0.05,47.550000000000004,0)" xlink:href="#bh"/><use transform="matrix(0.05,0,0,0.05,56.550000000000004,0)" xlink:href="#bi"/><use transform="matrix(0.05,0,0,0.05,66.55000000000001,0)" xlink:href="#ac"/></g><g id="E"><use transform="matrix(0.05,0,0,0.05,0,0)" xlink:href="#al"/><use transform="matrix(0.05,0,0,0.05,10,0)" xlink:href="#P"/><use transform="matrix(0.05,0,0,0.05,20,0)" xlink:href="#N"/><use transform="matrix(0.05,0,0,0.05,25,0)" xlink:href="#P"/><use transform="matrix(0.05,0,0,0.05,35,0)" xlink:href="#aW"/><use transform="matrix(0.05,0,0,0.05,44.95,0)" xlink:href="#S"/><use transform="matrix(0.05,0,0,0.05,53.95,0)" xlink:href="#aM"/><use transform="matrix(0.05,0,0,0.05,63.95,0)" xlink:href="#ak"/></g><g id="F"><use transform="matrix(0.05,0,0,0.05,0,0)" xlink:href="#P"/><use transform="matrix(0.05,0,0,0.05,10,0)" xlink:href="#N"/><use transform="matrix(0.05,0,0,0.05,15,0)" xlink:href="#N"/><use transform="matrix(0.05,0,0,0.05,20,0)" xlink:href="#O"/><use transform="matrix(0.05,0,0,0.05,25.950000000000003,0)" xlink:href="#aB"/><use transform="matrix(0.05,0,0,0.05,29.899999999999995,0)" xlink:href="#L"/><use transform="matrix(0.05,0,0,0.05,39.9,0)" xlink:href="#az"/><use transform="matrix(0.05,0,0,0.05,49.9,0)" xlink:href="#N"/><use transform="matrix(0.05,0,0,0.05,54.900000000000006,0)" xlink:href="#ak"/><use transform="matrix(0.05,0,0,0.05,64.9,0)" xlink:href="#M"/></g><g id="G"><use transform="matrix(0.05,0,0,0.05,0,0)" xlink:href="#O"/><use transform="matrix(0.05,0,0,0.05,5.95,0)" xlink:href="#ak"/><use transform="matrix(0.05,0,0,0.05,15.949999999999998,0)" xlink:href="#aL"/><use transform="matrix(0.05,0,0,0.05,20.95,0)" xlink:href="#ak"/><use transform="matrix(0.05,0,0,0.05,30.950000000000003,0)" xlink:href="#O"/><use transform="matrix(0.05,0,0,0.05,36.9,0)" xlink:href="#ak"/><use transform="matrix(0.05,0,0,0.05,46.9,0)" xlink:href="#T"/><use transform="matrix(0.05,0,0,0.05,56.900000000000006,0)" xlink:href="#Q"/><use transform="matrix(0.05,0,0,0.05,65.9,0)" xlink:href="#ak"/><use transform="matrix(0.05,0,0,0.05,75.9,0)" xlink:href="#M"/></g><path d="M187 0l-14-72H61L19 0h-37l149-248h38L221 0h-34zm-19-99l-22-123L76-99h92" id="bj"/><path d="M68-162c25-46 127-43 121 31C183-60 169 1 98 4 69 5 53-11 43-31L36 0H5l52-261h31zm88 36c2-27-9-43-34-43-55 0-70 51-70 103 0 29 15 45 43 46 52 0 58-58 61-106" id="bk"/><path d="M67 3c-93-2-31-127-26-193h32L48-50c-3 39 53 32 70 12 30-34 30-101 43-152h32L157 0h-30c1-10 6-24 4-33-14 20-29 37-64 36" id="bl"/><g id="H"><use transform="matrix(0.05,0,0,0.05,0,0)" xlink:href="#bj"/><use transform="matrix(0.05,0,0,0.05,12,0)" xlink:href="#bf"/><use transform="matrix(0.05,0,0,0.05,17,0)" xlink:href="#bf"/><use transform="matrix(0.05,0,0,0.05,22,0)" xlink:href="#ad"/><use transform="matrix(0.05,0,0,0.05,27.950000000000003,0)" xlink:href="#aa"/><use transform="matrix(0.05,0,0,0.05,31.899999999999995,0)" xlink:href="#bk"/><use transform="matrix(0.05,0,0,0.05,41.9,0)" xlink:href="#bl"/><use transform="matrix(0.05,0,0,0.05,51.900000000000006,0)" xlink:href="#bf"/><use transform="matrix(0.05,0,0,0.05,56.900000000000006,0)" xlink:href="#ac"/></g><path d="M11 0l48-248h184l-5 28H87l-15 79h140l-5 27H67L50-27h158l-5 27H11" id="bm"/><path d="M67-158c22-48 132-52 116 29L158 0h-32l25-140c3-38-53-32-70-12C52-117 51-52 38 0H6l36-190h30" id="bn"/><path d="M248-111c6-24 9-61-24-58-72 9-57 108-77 169h-31l26-142c3-37-50-30-64-10C52-115 50-51 37 0H6l36-190h30c-1 10-6 24-4 32 13-43 101-52 105 5 13-22 29-41 61-41 90 0 28 129 23 194h-31" id="bo"/><g id="I"><use transform="matrix(0.05,0,0,0.05,0,0)" xlink:href="#bm"/><use transform="matrix(0.05,0,0,0.05,12,0)" xlink:href="#bn"/><use transform="matrix(0.05,0,0,0.05,22,0)" xlink:href="#bl"/><use transform="matrix(0.05,0,0,0.05,32,0)" xlink:href="#bo"/></g><g id="J"><use transform="matrix(0.05,0,0,0.05,0,0)" xlink:href="#an"/><use transform="matrix(0.05,0,0,0.05,3.95,0)" xlink:href="#aB"/><use transform="matrix(0.05,0,0,0.05,7.9,0)" xlink:href="#N"/><use transform="matrix(0.05,0,0,0.05,12.9,0)" xlink:href="#ak"/><use transform="matrix(0.05,0,0,0.05,22.9,0)" xlink:href="#O"/><use transform="matrix(0.05,0,0,0.05,28.849999999999994,0)" xlink:href="#P"/><use transform="matrix(0.05,0,0,0.05,38.849999999999994,0)" xlink:href="#an"/><use transform="matrix(0.05,0,0,0.05,42.8,0)" xlink:href="#M"/></g></defs></g></svg>