<svg xmlns="http://www.w3.org/2000/svg" xmlns:xlink="http://www.w3.org/1999/xlink" xmlns:lucid="lucid" width="1400" height="740"><g transform="translate(-549.0666666666666 -140)" lucid:page-tab-id="5pguzXtDN9Lp"><path d="M569.07 166c0-3.3 2.68-6 6-6h1348c3.3 0 6 2.7 6 6v688c0 3.3-2.7 6-6 6h-1348c-3.32 0-6-2.7-6-6z" stroke="#fff" stroke-width="3" fill="#fff"/><path d="M1125.6 304.88v43.37H1480v57.37" stroke="#333" fill="none"/><path d="M1125.6 275.2l14.85 14.86-14.84 15.15-14.84-15.14zM1480 420.38l-4.64-14.26h9.28z" stroke="#333" fill="#333"/><use xlink:href="#a" transform="matrix(1,0,0,1,1267.3844965161725,322.65) translate(0 14.4)"/><use xlink:href="#b" transform="matrix(1,0,0,1,1267.3844965161725,322.65) translate(42 14.4)"/><path d="M660 425h160v60H660z" stroke="#333" stroke-width="2" fill="#c7e8ac"/><use xlink:href="#c" transform="matrix(1,0,0,1,668,433) translate(11.124999999999993 25.6)"/><path d="M1086.93 304.88V380h84v26.62" stroke="#333" fill="none"/><path d="M1086.93 275.2l14.85 14.86-14.85 15.15-14.85-15.14zM1170.93 421.38l-4.63-14.26h9.27z" stroke="#333" fill="#333"/><use xlink:href="#a" transform="matrix(1,0,0,1,1050.5500305710611,384) translate(0 14.4)"/><use xlink:href="#d" transform="matrix(1,0,0,1,1050.5500305710611,384) translate(42 14.4)"/><path d="M965.6 304.88v44.37H740v58.37" stroke="#333" fill="none"/><path d="M965.6 275.2l14.85 14.86-14.85 15.15-14.85-15.14zM740 422.38l-4.64-14.26h9.28z" stroke="#333" fill="#333"/><use xlink:href="#a" transform="matrix(1,0,0,1,771.5841748430711,323.65) translate(0 14.4)"/><use xlink:href="#e" transform="matrix(1,0,0,1,771.5841748430711,323.65) translate(42 14.4)"/><path d="M1400 658h160v60h-160z" stroke="#333" stroke-width="2" fill="#c7e8ac"/><use xlink:href="#f" transform="matrix(1,0,0,1,1408,666) translate(53.55 25.6)"/><path d="M1090.93 424h160v80h-160z" stroke="#333" stroke-width="2" fill="#c7e8ac"/><path d="M1090.93 461.6h160" stroke="#333" stroke-width="2" fill="none"/><use xlink:href="#g" transform="matrix(1,0,0,1,1098.9333333333334,432) translate(43.025 14.6)"/><use xlink:href="#h" transform="matrix(1,0,0,1,1102.9333333333334,469.6) translate(0 14.4)"/><use xlink:href="#i" transform="matrix(1,0,0,1,1102.9333333333334,469.6) translate(65.45 14.4)"/><path d="M1169.07 657h160v60h-160z" stroke="#333" stroke-width="2" fill="#c7e8ac"/><use xlink:href="#j" transform="matrix(1,0,0,1,1177.0666666666666,665) translate(31.074999999999996 25.6)"/><path d="M1170.93 535.38v45.12h78.14v59.12" stroke="#333" fill="none"/><path d="M1170.93 505.7l14.85 14.86-14.85 15.15-14.85-15.14zM1249.07 654.38l-4.64-14.26h9.27z" stroke="#333" fill="#333"/><use xlink:href="#k" transform="matrix(1,0,0,1,1189.9096197692234,555.3478635170358) translate(0 14.4)"/><use xlink:href="#l" transform="matrix(1,0,0,1,1189.9096197692234,555.3478635170358) translate(42 14.4)"/><path d="M1480 514.38V640.6" stroke="#333" fill="none"/><path d="M1480 484.7l14.85 14.86L1480 514.7l-14.85-15.14zM1480 655.38l-4.64-14.26h9.28z" stroke="#333" fill="#333"/><use xlink:href="#a" transform="matrix(1,0,0,1,1488,573.5333333333334) translate(0 14.4)"/><use xlink:href="#m" transform="matrix(1,0,0,1,1488,573.5333333333334) translate(42 14.4)"/><path d="M940 213.5h220v60H940z" stroke="#333" stroke-width="2" fill="#c7e8ac"/><use xlink:href="#n" transform="matrix(1,0,0,1,948,221.5) translate(23.10000000000001 25.6)"/><path d="M870.93 425h160v60h-160z" stroke="#333" stroke-width="2" fill="#c7e8ac"/><use xlink:href="#o" transform="matrix(1,0,0,1,878.9333333333334,433) translate(47.05 25.6)"/><path d="M1010.93 304.88V389h-60v18.62" stroke="#333" fill="none"/><path d="M1010.93 275.2l14.85 14.86-14.85 15.15-14.85-15.14zM950.93 422.38l-4.63-14.26h9.27z" stroke="#333" fill="#333"/><use xlink:href="#a" transform="matrix(1,0,0,1,904.0333333333334,362.65975908467954) translate(0 14.4)"/><use xlink:href="#p" transform="matrix(1,0,0,1,904.0333333333334,362.65975908467954) translate(42 14.4)"/><path d="M1400 423h160v60h-160z" stroke="#333" stroke-width="2" fill="#c7e8ac"/><use xlink:href="#q" transform="matrix(1,0,0,1,1408,430.99999999999994) translate(7.125 25.6)"/><path d="M1398.5 453h-130.18" stroke="#333" fill="none"/><path d="M1399 453.5h-.5v-1h.5z" fill="#333"/><path d="M1253.55 453l14.27-4.64v9.28z" stroke="#333" fill="#333"/><use xlink:href="#r" transform="matrix(1,0,0,1,1274.9916666666668,427.3999999999999) translate(0 14.4)"/><use xlink:href="#s" transform="matrix(1,0,0,1,1274.9916666666668,427.3999999999999) translate(45 14.4)"/><path d="M720 541h160v60H720z" stroke="#333" stroke-width="2" fill="#c7e8ac"/><use xlink:href="#t" transform="matrix(1,0,0,1,728,549) translate(1.5999999999999943 25.6)"/><path d="M930.93 541h160v60h-160z" stroke="#333" stroke-width="2" fill="#c7e8ac"/><use xlink:href="#u" transform="matrix(1,0,0,1,938.9333333333334,549) translate(25.074999999999996 25.6)"/><path d="M800 539.5V513h150.93v-10.62" stroke="#333" fill="none"/><path d="M800.5 540h-1v-.5h1z" fill="#333"/><path d="M950.93 487.62l4.64 14.26h-9.27z" stroke="#333" fill="#fff"/><path d="M1010.93 539.5V513h-60v-10.62" stroke="#333" fill="none"/><path d="M1011.43 540h-1v-.5h1z" fill="#333"/><path d="M950.93 487.62l4.64 14.26h-9.27z" stroke="#333" fill="#fff"/><path d="M930.93 718h160v60h-160z" stroke="#333" stroke-width="2" fill="#c7e8ac"/><use xlink:href="#v" transform="matrix(1,0,0,1,938.9333333333334,726) translate(24.074999999999996 25.6)"/><path d="M1010.93 632.38v68.24" stroke="#333" fill="none"/><path d="M1010.93 602.7l14.85 14.86-14.85 15.15-14.85-15.14zM1010.93 715.38l-4.63-14.26h9.27z" stroke="#333" fill="#333"/><g><use xlink:href="#w" transform="matrix(1,0,0,1,1018.9333333333335,679.9066836782642) translate(0 14.4)"/><use xlink:href="#x" transform="matrix(1,0,0,1,1018.9333333333335,679.9066836782642) translate(45 14.4)"/></g><path d="M1640 213.5h220v60h-220z" stroke="#333" stroke-width="2" fill="#c1e4f7"/><g><use xlink:href="#y" transform="matrix(1,0,0,1,1648,221.5) translate(26.575000000000003 25.6)"/></g><path d="M1561.5 453h5.02m5.02 0h10.04m5.02 0h10.03m3.37-1.65V441.3m0-5v-10.05m0-5.02V411.2m0-5.03v-10.03m0-5.02v-10.04m0-5.02v-10.04m0-5.02v-10.04m0-5.02V335.9m0-5v-10.05m0-5.02V305.8m0-5.03v-10.04m0-5v-10.05m0-5.02v-10.04m0-5.02v-10.04m2.96-2.06H1613m5 0h10.05m5.02 0h5.02" stroke="#333" fill="none"/><path d="M1561.5 453.5h-.5v-1h.5z" fill="#333"/><path d="M1620.8 253.68l17.22-10.18-17.22-10.18" stroke="#333" fill="none"/><g><use xlink:href="#z" transform="matrix(1,0,0,1,1607.9999999999998,317.2) translate(0 14.4)"/></g><defs><path d="M26 75v-336h71v23H56V52h41v23H26" id="A"/><path d="M101-251c68 0 85 55 85 127S166 4 100 4C33 4 14-52 14-124c0-73 17-127 87-127zm-1 229c47 0 54-49 54-102s-4-102-53-102c-51 0-55 48-55 102 0 53 5 102 54 102" id="B"/><path d="M33 0v-38h34V0H33" id="C"/><path d="M80-196l47-18 7 23-49 13 32 44-20 13-27-46-27 45-21-12 33-44-49-13 8-23 47 19-2-53h23" id="D"/><path d="M3 75V52h41v-290H3v-23h71V75H3" id="E"/><g id="a"><use transform="matrix(0.05,0,0,0.05,0,0)" xlink:href="#A"/><use transform="matrix(0.05,0,0,0.05,5,0)" xlink:href="#B"/><use transform="matrix(0.05,0,0,0.05,15,0)" xlink:href="#C"/><use transform="matrix(0.05,0,0,0.05,20,0)" xlink:href="#C"/><use transform="matrix(0.05,0,0,0.05,25,0)" xlink:href="#D"/><use transform="matrix(0.05,0,0,0.05,32,0)" xlink:href="#E"/></g><path d="M115-194c55 1 70 41 70 98S169 2 115 4C84 4 66-9 55-30l1 105H24l-1-265h31l2 30c10-21 28-34 59-34zm-8 174c40 0 45-34 45-75s-6-73-45-74c-42 0-51 32-51 76 0 43 10 73 51 73" id="F"/><path d="M114-163C36-179 61-72 57 0H25l-1-190h30c1 12-1 29 2 39 6-27 23-49 58-41v29" id="G"/><path d="M100-194c62-1 85 37 85 99 1 63-27 99-86 99S16-35 15-95c0-66 28-99 85-99zM99-20c44 1 53-31 53-75 0-43-8-75-51-75s-53 32-53 75 10 74 51 75" id="H"/><path d="M96-169c-40 0-48 33-48 73s9 75 48 75c24 0 41-14 43-38l32 2c-6 37-31 61-74 61-59 0-76-41-82-99-10-93 101-131 147-64 4 7 5 14 7 22l-32 3c-4-21-16-35-41-35" id="I"/><path d="M100-194c63 0 86 42 84 106H49c0 40 14 67 53 68 26 1 43-12 49-29l28 8c-11 28-37 45-77 45C44 4 14-33 15-96c1-61 26-98 85-98zm52 81c6-60-76-77-97-28-3 7-6 17-6 28h103" id="J"/><path d="M135-143c-3-34-86-38-87 0 15 53 115 12 119 90S17 21 10-45l28-5c4 36 97 45 98 0-10-56-113-15-118-90-4-57 82-63 122-42 12 7 21 19 24 35" id="K"/><g id="b"><use transform="matrix(0.05,0,0,0.05,0,0)" xlink:href="#F"/><use transform="matrix(0.05,0,0,0.05,10,0)" xlink:href="#G"/><use transform="matrix(0.05,0,0,0.05,15.949999999999998,0)" xlink:href="#H"/><use transform="matrix(0.05,0,0,0.05,25.950000000000003,0)" xlink:href="#I"/><use transform="matrix(0.05,0,0,0.05,34.95,0)" xlink:href="#J"/><use transform="matrix(0.05,0,0,0.05,44.95,0)" xlink:href="#K"/><use transform="matrix(0.05,0,0,0.05,53.95,0)" xlink:href="#K"/><use transform="matrix(0.05,0,0,0.05,62.95,0)" xlink:href="#H"/><use transform="matrix(0.05,0,0,0.05,72.95,0)" xlink:href="#G"/><use transform="matrix(0.05,0,0,0.05,78.9,0)" xlink:href="#K"/></g><path d="M197 0v-115H63V0H30v-248h33v105h134v-105h34V0h-34" id="L"/><path d="M24 0v-261h32V0H24" id="M"/><path d="M63-220v92h138v28H63V0H30v-248h175v28H63" id="N"/><path d="M84 4C-5 8 30-112 23-190h32v120c0 31 7 50 39 49 72-2 45-101 50-169h31l1 190h-30c-1-10 1-25-2-33-11 22-28 36-60 37" id="O"/><path d="M117-194c89-4 53 116 60 194h-32v-121c0-31-8-49-39-48C34-167 62-67 57 0H25l-1-190h30c1 10-1 24 2 32 11-22 29-35 61-36" id="P"/><path d="M59-47c-2 24 18 29 38 22v24C64 9 27 4 27-40v-127H5v-23h24l9-43h21v43h35v23H59v120" id="Q"/><path d="M24-231v-30h32v30H24zM24 0v-190h32V0H24" id="R"/><g id="c"><use transform="matrix(0.05,0,0,0.05,0,0)" xlink:href="#L"/><use transform="matrix(0.05,0,0,0.05,12.950000000000001,0)" xlink:href="#J"/><use transform="matrix(0.05,0,0,0.05,22.950000000000003,0)" xlink:href="#M"/><use transform="matrix(0.05,0,0,0.05,26.900000000000002,0)" xlink:href="#F"/><use transform="matrix(0.05,0,0,0.05,36.900000000000006,0)" xlink:href="#J"/><use transform="matrix(0.05,0,0,0.05,46.900000000000006,0)" xlink:href="#G"/><use transform="matrix(0.05,0,0,0.05,52.85,0)" xlink:href="#N"/><use transform="matrix(0.05,0,0,0.05,63.80000000000001,0)" xlink:href="#O"/><use transform="matrix(0.05,0,0,0.05,73.80000000000001,0)" xlink:href="#P"/><use transform="matrix(0.05,0,0,0.05,83.80000000000001,0)" xlink:href="#I"/><use transform="matrix(0.05,0,0,0.05,92.80000000000001,0)" xlink:href="#Q"/><use transform="matrix(0.05,0,0,0.05,97.80000000000001,0)" xlink:href="#R"/><use transform="matrix(0.05,0,0,0.05,101.75000000000001,0)" xlink:href="#H"/><use transform="matrix(0.05,0,0,0.05,111.75,0)" xlink:href="#P"/></g><path d="M141-36C126-15 110 5 73 4 37 3 15-17 15-53c-1-64 63-63 125-63 3-35-9-54-41-54-24 1-41 7-42 31l-33-3c5-37 33-52 76-52 45 0 72 20 72 64v82c-1 20 7 32 28 27v20c-31 9-61-2-59-35zM48-53c0 20 12 33 32 33 41-3 63-29 60-74-43 2-92-5-92 41" id="S"/><g id="d"><use transform="matrix(0.05,0,0,0.05,0,0)" xlink:href="#F"/><use transform="matrix(0.05,0,0,0.05,10,0)" xlink:href="#S"/><use transform="matrix(0.05,0,0,0.05,20,0)" xlink:href="#Q"/><use transform="matrix(0.05,0,0,0.05,25,0)" xlink:href="#Q"/><use transform="matrix(0.05,0,0,0.05,30,0)" xlink:href="#J"/><use transform="matrix(0.05,0,0,0.05,40,0)" xlink:href="#G"/><use transform="matrix(0.05,0,0,0.05,45.95,0)" xlink:href="#P"/><use transform="matrix(0.05,0,0,0.05,55.95,0)" xlink:href="#K"/></g><path d="M106-169C34-169 62-67 57 0H25v-261h32l-1 103c12-21 28-36 61-36 89 0 53 116 60 194h-32v-121c2-32-8-49-39-48" id="T"/><g id="e"><use transform="matrix(0.05,0,0,0.05,0,0)" xlink:href="#T"/><use transform="matrix(0.05,0,0,0.05,10,0)" xlink:href="#J"/><use transform="matrix(0.05,0,0,0.05,20,0)" xlink:href="#M"/><use transform="matrix(0.05,0,0,0.05,23.95,0)" xlink:href="#F"/><use transform="matrix(0.05,0,0,0.05,33.95,0)" xlink:href="#J"/><use transform="matrix(0.05,0,0,0.05,43.95,0)" xlink:href="#G"/><use transform="matrix(0.05,0,0,0.05,49.900000000000006,0)" xlink:href="#K"/></g><path d="M233-177c-1 41-23 64-60 70L243 0h-38l-65-103H63V0H30v-248c88 3 205-21 203 71zM63-129c60-2 137 13 137-47 0-61-80-42-137-45v92" id="U"/><g id="f"><use transform="matrix(0.05,0,0,0.05,0,0)" xlink:href="#U"/><use transform="matrix(0.05,0,0,0.05,12.950000000000001,0)" xlink:href="#O"/><use transform="matrix(0.05,0,0,0.05,22.950000000000003,0)" xlink:href="#M"/><use transform="matrix(0.05,0,0,0.05,26.900000000000002,0)" xlink:href="#J"/></g><path d="M30-248c87 1 191-15 191 75 0 78-77 80-158 76V0H30v-248zm33 125c57 0 124 11 124-50 0-59-68-47-124-48v98" id="V"/><g id="g"><use transform="matrix(0.05,0,0,0.05,0,0)" xlink:href="#V"/><use transform="matrix(0.05,0,0,0.05,12,0)" xlink:href="#S"/><use transform="matrix(0.05,0,0,0.05,22,0)" xlink:href="#Q"/><use transform="matrix(0.05,0,0,0.05,27,0)" xlink:href="#Q"/><use transform="matrix(0.05,0,0,0.05,32,0)" xlink:href="#J"/><use transform="matrix(0.05,0,0,0.05,42,0)" xlink:href="#G"/><use transform="matrix(0.05,0,0,0.05,47.95,0)" xlink:href="#P"/></g><path fill="#333" d="M118-107v75H92v-75H18v-26h74v-75h26v75h74v26h-74" id="W"/><path fill="#333" d="M117-194c89-4 53 116 60 194h-32v-121c0-31-8-49-39-48C34-167 62-67 57 0H25l-1-190h30c1 10-1 24 2 32 11-22 29-35 61-36" id="X"/><path fill="#333" d="M141-36C126-15 110 5 73 4 37 3 15-17 15-53c-1-64 63-63 125-63 3-35-9-54-41-54-24 1-41 7-42 31l-33-3c5-37 33-52 76-52 45 0 72 20 72 64v82c-1 20 7 32 28 27v20c-31 9-61-2-59-35zM48-53c0 20 12 33 32 33 41-3 63-29 60-74-43 2-92-5-92 41" id="Y"/><path fill="#333" d="M210-169c-67 3-38 105-44 169h-31v-121c0-29-5-50-35-48C34-165 62-65 56 0H25l-1-190h30c1 10-1 24 2 32 10-44 99-50 107 0 11-21 27-35 58-36 85-2 47 119 55 194h-31v-121c0-29-5-49-35-48" id="Z"/><path fill="#333" d="M100-194c63 0 86 42 84 106H49c0 40 14 67 53 68 26 1 43-12 49-29l28 8c-11 28-37 45-77 45C44 4 14-33 15-96c1-61 26-98 85-98zm52 81c6-60-76-77-97-28-3 7-6 17-6 28h103" id="aa"/><path fill="#333" d="M33-154v-36h34v36H33zM33 0v-36h34V0H33" id="ab"/><g id="h"><use transform="matrix(0.05,0,0,0.05,0,0)" xlink:href="#W"/><use transform="matrix(0.05,0,0,0.05,10.5,0)" xlink:href="#X"/><use transform="matrix(0.05,0,0,0.05,20.5,0)" xlink:href="#Y"/><use transform="matrix(0.05,0,0,0.05,30.5,0)" xlink:href="#Z"/><use transform="matrix(0.05,0,0,0.05,45.45,0)" xlink:href="#aa"/><use transform="matrix(0.05,0,0,0.05,55.45,0)" xlink:href="#ab"/></g><path fill="#333" d="M185-189c-5-48-123-54-124 2 14 75 158 14 163 119 3 78-121 87-175 55-17-10-28-26-33-46l33-7c5 56 141 63 141-1 0-78-155-14-162-118-5-82 145-84 179-34 5 7 8 16 11 25" id="ac"/><path fill="#333" d="M59-47c-2 24 18 29 38 22v24C64 9 27 4 27-40v-127H5v-23h24l9-43h21v43h35v23H59v120" id="ad"/><path fill="#333" d="M114-163C36-179 61-72 57 0H25l-1-190h30c1 12-1 29 2 39 6-27 23-49 58-41v29" id="ae"/><path fill="#333" d="M24-231v-30h32v30H24zM24 0v-190h32V0H24" id="af"/><path fill="#333" d="M177-190C167-65 218 103 67 71c-23-6-38-20-44-43l32-5c15 47 100 32 89-28v-30C133-14 115 1 83 1 29 1 15-40 15-95c0-56 16-97 71-98 29-1 48 16 59 35 1-10 0-23 2-32h30zM94-22c36 0 50-32 50-73 0-42-14-75-50-75-39 0-46 34-46 75s6 73 46 73" id="ag"/><g id="i"><use transform="matrix(0.05,0,0,0.05,0,0)" xlink:href="#ac"/><use transform="matrix(0.05,0,0,0.05,12,0)" xlink:href="#ad"/><use transform="matrix(0.05,0,0,0.05,17,0)" xlink:href="#ae"/><use transform="matrix(0.05,0,0,0.05,22.95,0)" xlink:href="#af"/><use transform="matrix(0.05,0,0,0.05,26.899999999999995,0)" xlink:href="#X"/><use transform="matrix(0.05,0,0,0.05,36.9,0)" xlink:href="#ag"/></g><path d="M212-179c-10-28-35-45-73-45-59 0-87 40-87 99 0 60 29 101 89 101 43 0 62-24 78-52l27 14C228-24 195 4 139 4 59 4 22-46 18-125c-6-104 99-153 187-111 19 9 31 26 39 46" id="ah"/><g id="j"><use transform="matrix(0.05,0,0,0.05,0,0)" xlink:href="#ah"/><use transform="matrix(0.05,0,0,0.05,12.950000000000001,0)" xlink:href="#H"/><use transform="matrix(0.05,0,0,0.05,22.950000000000003,0)" xlink:href="#P"/><use transform="matrix(0.05,0,0,0.05,32.95,0)" xlink:href="#K"/><use transform="matrix(0.05,0,0,0.05,41.95,0)" xlink:href="#Q"/><use transform="matrix(0.05,0,0,0.05,46.95,0)" xlink:href="#G"/><use transform="matrix(0.05,0,0,0.05,52.900000000000006,0)" xlink:href="#S"/><use transform="matrix(0.05,0,0,0.05,62.900000000000006,0)" xlink:href="#R"/><use transform="matrix(0.05,0,0,0.05,66.85000000000001,0)" xlink:href="#P"/><use transform="matrix(0.05,0,0,0.05,76.85000000000001,0)" xlink:href="#Q"/></g><path d="M27 0v-27h64v-190l-56 39v-29l58-41h29v221h61V0H27" id="ai"/><g id="k"><use transform="matrix(0.05,0,0,0.05,0,0)" xlink:href="#A"/><use transform="matrix(0.05,0,0,0.05,5,0)" xlink:href="#ai"/><use transform="matrix(0.05,0,0,0.05,15,0)" xlink:href="#C"/><use transform="matrix(0.05,0,0,0.05,20,0)" xlink:href="#C"/><use transform="matrix(0.05,0,0,0.05,25,0)" xlink:href="#D"/><use transform="matrix(0.05,0,0,0.05,32,0)" xlink:href="#E"/></g><g id="l"><use transform="matrix(0.05,0,0,0.05,0,0)" xlink:href="#I"/><use transform="matrix(0.05,0,0,0.05,9,0)" xlink:href="#H"/><use transform="matrix(0.05,0,0,0.05,19,0)" xlink:href="#P"/><use transform="matrix(0.05,0,0,0.05,29,0)" xlink:href="#K"/><use transform="matrix(0.05,0,0,0.05,38,0)" xlink:href="#Q"/><use transform="matrix(0.05,0,0,0.05,43,0)" xlink:href="#G"/><use transform="matrix(0.05,0,0,0.05,48.95,0)" xlink:href="#S"/><use transform="matrix(0.05,0,0,0.05,58.95,0)" xlink:href="#R"/><use transform="matrix(0.05,0,0,0.05,62.900000000000006,0)" xlink:href="#P"/><use transform="matrix(0.05,0,0,0.05,72.9,0)" xlink:href="#Q"/><use transform="matrix(0.05,0,0,0.05,77.9,0)" xlink:href="#K"/></g><g id="m"><use transform="matrix(0.05,0,0,0.05,0,0)" xlink:href="#G"/><use transform="matrix(0.05,0,0,0.05,5.95,0)" xlink:href="#O"/><use transform="matrix(0.05,0,0,0.05,15.949999999999998,0)" xlink:href="#M"/><use transform="matrix(0.05,0,0,0.05,19.9,0)" xlink:href="#J"/><use transform="matrix(0.05,0,0,0.05,29.899999999999995,0)" xlink:href="#K"/></g><path fill="#333" d="M212-179c-10-28-35-45-73-45-59 0-87 40-87 99 0 60 29 101 89 101 43 0 62-24 78-52l27 14C228-24 195 4 139 4 59 4 22-46 18-125c-6-104 99-153 187-111 19 9 31 26 39 46" id="aj"/><path fill="#333" d="M100-194c62-1 85 37 85 99 1 63-27 99-86 99S16-35 15-95c0-66 28-99 85-99zM99-20c44 1 53-31 53-75 0-43-8-75-51-75s-53 32-53 75 10 74 51 75" id="ak"/><path fill="#333" d="M96-169c-40 0-48 33-48 73s9 75 48 75c24 0 41-14 43-38l32 2c-6 37-31 61-74 61-59 0-76-41-82-99-10-93 101-131 147-64 4 7 5 14 7 22l-32 3c-4-21-16-35-41-35" id="al"/><path fill="#333" d="M179-190L93 31C79 59 56 82 12 73V49c39 6 53-20 64-50L1-190h34L92-34l54-156h33" id="am"/><path fill="#333" d="M141 0L90-78 38 0H4l68-98-65-92h35l48 74 47-74h35l-64 92 68 98h-35" id="an"/><path fill="#333" d="M240 0l2-218c-23 76-54 145-80 218h-23L58-218 59 0H30v-248h44l77 211c21-75 51-140 76-211h43V0h-30" id="ao"/><g id="n"><use transform="matrix(0.05,0,0,0.05,0,0)" xlink:href="#aj"/><use transform="matrix(0.05,0,0,0.05,12.950000000000001,0)" xlink:href="#ak"/><use transform="matrix(0.05,0,0,0.05,22.950000000000003,0)" xlink:href="#X"/><use transform="matrix(0.05,0,0,0.05,32.95,0)" xlink:href="#al"/><use transform="matrix(0.05,0,0,0.05,41.95,0)" xlink:href="#ae"/><use transform="matrix(0.05,0,0,0.05,47.900000000000006,0)" xlink:href="#aa"/><use transform="matrix(0.05,0,0,0.05,57.900000000000006,0)" xlink:href="#ad"/><use transform="matrix(0.05,0,0,0.05,62.900000000000006,0)" xlink:href="#aa"/><use transform="matrix(0.05,0,0,0.05,72.9,0)" xlink:href="#ac"/><use transform="matrix(0.05,0,0,0.05,84.9,0)" xlink:href="#am"/><use transform="matrix(0.05,0,0,0.05,93.9,0)" xlink:href="#X"/><use transform="matrix(0.05,0,0,0.05,103.9,0)" xlink:href="#ad"/><use transform="matrix(0.05,0,0,0.05,108.9,0)" xlink:href="#Y"/><use transform="matrix(0.05,0,0,0.05,118.9,0)" xlink:href="#an"/><use transform="matrix(0.05,0,0,0.05,127.9,0)" xlink:href="#ao"/><use transform="matrix(0.05,0,0,0.05,142.85,0)" xlink:href="#ao"/></g><path d="M238-179c0 84-86 86-175 82L45 0H11l48-248c82 0 179-12 179 69zm-34 1c0-53-64-42-116-43l-19 98c63 0 135 9 135-55" id="ap"/><path d="M6 0l50-261h32L37 0H6" id="aq"/><path d="M67 3c-93-2-31-127-26-193h32L48-50c-3 39 53 32 70 12 30-34 30-101 43-152h32L157 0h-30c1-10 6-24 4-33-14 20-29 37-64 36" id="ar"/><path d="M103-194c29 0 47 14 56 36 2-11 5-23 8-32h30L160-5C157 61 82 97 21 62 9 55 4 45 1 30l28-7c7 42 83 31 92-3 4-16 9-38 13-55-13 20-29 36-62 36-40 0-60-25-60-64 0-71 23-131 91-131zm4 24c-53 0-58 54-61 104-2 27 10 44 36 44 49 0 65-50 67-102 1-29-15-46-42-46" id="as"/><path d="M50-231l6-30h32l-6 30H50zM6 0l37-190h31L37 0H6" id="at"/><path d="M67-158c22-48 132-52 116 29L158 0h-32l25-140c3-38-53-32-70-12C52-117 51-52 38 0H6l36-190h30" id="au"/><g id="o"><use transform="matrix(0.05,0,0,0.05,0,0)" xlink:href="#ap"/><use transform="matrix(0.05,0,0,0.05,12,0)" xlink:href="#aq"/><use transform="matrix(0.05,0,0,0.05,15.949999999999998,0)" xlink:href="#ar"/><use transform="matrix(0.05,0,0,0.05,25.950000000000003,0)" xlink:href="#as"/><use transform="matrix(0.05,0,0,0.05,35.95,0)" xlink:href="#at"/><use transform="matrix(0.05,0,0,0.05,39.900000000000006,0)" xlink:href="#au"/></g><path d="M177-190C167-65 218 103 67 71c-23-6-38-20-44-43l32-5c15 47 100 32 89-28v-30C133-14 115 1 83 1 29 1 15-40 15-95c0-56 16-97 71-98 29-1 48 16 59 35 1-10 0-23 2-32h30zM94-22c36 0 50-32 50-73 0-42-14-75-50-75-39 0-46 34-46 75s6 73 46 73" id="av"/><g id="p"><use transform="matrix(0.05,0,0,0.05,0,0)" xlink:href="#F"/><use transform="matrix(0.05,0,0,0.05,10,0)" xlink:href="#M"/><use transform="matrix(0.05,0,0,0.05,13.949999999999998,0)" xlink:href="#O"/><use transform="matrix(0.05,0,0,0.05,23.95,0)" xlink:href="#av"/><use transform="matrix(0.05,0,0,0.05,33.95,0)" xlink:href="#R"/><use transform="matrix(0.05,0,0,0.05,37.900000000000006,0)" xlink:href="#P"/><use transform="matrix(0.05,0,0,0.05,47.900000000000006,0)" xlink:href="#K"/></g><path d="M30-248c118-7 216 8 213 122C240-48 200 0 122 0H30v-248zM63-27c89 8 146-16 146-99s-60-101-146-95v194" id="aw"/><path d="M179-190L93 31C79 59 56 82 12 73V49c39 6 53-20 64-50L1-190h34L92-34l54-156h33" id="ax"/><path d="M240 0l2-218c-23 76-54 145-80 218h-23L58-218 59 0H30v-248h44l77 211c21-75 51-140 76-211h43V0h-30" id="ay"/><g id="q"><use transform="matrix(0.05,0,0,0.05,0,0)" xlink:href="#aw"/><use transform="matrix(0.05,0,0,0.05,12.950000000000001,0)" xlink:href="#R"/><use transform="matrix(0.05,0,0,0.05,16.900000000000002,0)" xlink:href="#K"/><use transform="matrix(0.05,0,0,0.05,25.900000000000002,0)" xlink:href="#F"/><use transform="matrix(0.05,0,0,0.05,35.900000000000006,0)" xlink:href="#M"/><use transform="matrix(0.05,0,0,0.05,39.85000000000001,0)" xlink:href="#S"/><use transform="matrix(0.05,0,0,0.05,49.85000000000001,0)" xlink:href="#ax"/><use transform="matrix(0.05,0,0,0.05,58.85,0)" xlink:href="#ay"/><use transform="matrix(0.05,0,0,0.05,73.80000000000001,0)" xlink:href="#S"/><use transform="matrix(0.05,0,0,0.05,83.80000000000001,0)" xlink:href="#P"/><use transform="matrix(0.05,0,0,0.05,93.80000000000001,0)" xlink:href="#S"/><use transform="matrix(0.05,0,0,0.05,103.80000000000001,0)" xlink:href="#av"/><use transform="matrix(0.05,0,0,0.05,113.80000000000001,0)" xlink:href="#J"/><use transform="matrix(0.05,0,0,0.05,123.80000000000001,0)" xlink:href="#G"/></g><g id="r"><use transform="matrix(0.05,0,0,0.05,0,0)" xlink:href="#A"/><use transform="matrix(0.05,0,0,0.05,5,0)" xlink:href="#B"/><use transform="matrix(0.05,0,0,0.05,15,0)" xlink:href="#C"/><use transform="matrix(0.05,0,0,0.05,20,0)" xlink:href="#C"/><use transform="matrix(0.05,0,0,0.05,25,0)" xlink:href="#ai"/><use transform="matrix(0.05,0,0,0.05,35,0)" xlink:href="#E"/></g><g id="s"><use transform="matrix(0.05,0,0,0.05,0,0)" xlink:href="#F"/><use transform="matrix(0.05,0,0,0.05,10,0)" xlink:href="#S"/><use transform="matrix(0.05,0,0,0.05,20,0)" xlink:href="#Q"/><use transform="matrix(0.05,0,0,0.05,25,0)" xlink:href="#Q"/><use transform="matrix(0.05,0,0,0.05,30,0)" xlink:href="#J"/><use transform="matrix(0.05,0,0,0.05,40,0)" xlink:href="#G"/><use transform="matrix(0.05,0,0,0.05,45.95,0)" xlink:href="#P"/></g><g id="t"><use transform="matrix(0.05,0,0,0.05,0,0)" xlink:href="#ah"/><use transform="matrix(0.05,0,0,0.05,12.950000000000001,0)" xlink:href="#H"/><use transform="matrix(0.05,0,0,0.05,22.950000000000003,0)" xlink:href="#P"/><use transform="matrix(0.05,0,0,0.05,32.95,0)" xlink:href="#P"/><use transform="matrix(0.05,0,0,0.05,42.95,0)" xlink:href="#J"/><use transform="matrix(0.05,0,0,0.05,52.95,0)" xlink:href="#I"/><use transform="matrix(0.05,0,0,0.05,61.95,0)" xlink:href="#Q"/><use transform="matrix(0.05,0,0,0.05,66.95,0)" xlink:href="#R"/><use transform="matrix(0.05,0,0,0.05,70.9,0)" xlink:href="#H"/><use transform="matrix(0.05,0,0,0.05,80.9,0)" xlink:href="#P"/><use transform="matrix(0.05,0,0,0.05,90.9,0)" xlink:href="#V"/><use transform="matrix(0.05,0,0,0.05,102.9,0)" xlink:href="#M"/><use transform="matrix(0.05,0,0,0.05,106.85000000000001,0)" xlink:href="#O"/><use transform="matrix(0.05,0,0,0.05,116.85000000000001,0)" xlink:href="#av"/><use transform="matrix(0.05,0,0,0.05,126.85000000000001,0)" xlink:href="#R"/><use transform="matrix(0.05,0,0,0.05,130.8,0)" xlink:href="#P"/></g><path d="M30 0v-248h33v221h125V0H30" id="az"/><path d="M115-194c53 0 69 39 70 98 0 66-23 100-70 100C84 3 66-7 56-30L54 0H23l1-261h32v101c10-23 28-34 59-34zm-8 174c40 0 45-34 45-75 0-40-5-75-45-74-42 0-51 32-51 76 0 43 10 73 51 73" id="aA"/><g id="u"><use transform="matrix(0.05,0,0,0.05,0,0)" xlink:href="#az"/><use transform="matrix(0.05,0,0,0.05,10,0)" xlink:href="#S"/><use transform="matrix(0.05,0,0,0.05,20,0)" xlink:href="#aA"/><use transform="matrix(0.05,0,0,0.05,30,0)" xlink:href="#J"/><use transform="matrix(0.05,0,0,0.05,40,0)" xlink:href="#M"/><use transform="matrix(0.05,0,0,0.05,43.95,0)" xlink:href="#V"/><use transform="matrix(0.05,0,0,0.05,55.95,0)" xlink:href="#M"/><use transform="matrix(0.05,0,0,0.05,59.900000000000006,0)" xlink:href="#O"/><use transform="matrix(0.05,0,0,0.05,69.9,0)" xlink:href="#av"/><use transform="matrix(0.05,0,0,0.05,79.9,0)" xlink:href="#R"/><use transform="matrix(0.05,0,0,0.05,83.85000000000001,0)" xlink:href="#P"/></g><path d="M101-234c-31-9-42 10-38 44h38v23H63V0H32v-167H5v-23h27c-7-52 17-82 69-68v24" id="aB"/><g id="v"><use transform="matrix(0.05,0,0,0.05,0,0)" xlink:href="#az"/><use transform="matrix(0.05,0,0,0.05,10,0)" xlink:href="#S"/><use transform="matrix(0.05,0,0,0.05,20,0)" xlink:href="#aA"/><use transform="matrix(0.05,0,0,0.05,30,0)" xlink:href="#J"/><use transform="matrix(0.05,0,0,0.05,40,0)" xlink:href="#M"/><use transform="matrix(0.05,0,0,0.05,43.95,0)" xlink:href="#ah"/><use transform="matrix(0.05,0,0,0.05,56.900000000000006,0)" xlink:href="#H"/><use transform="matrix(0.05,0,0,0.05,66.9,0)" xlink:href="#P"/><use transform="matrix(0.05,0,0,0.05,76.9,0)" xlink:href="#aB"/><use transform="matrix(0.05,0,0,0.05,81.9,0)" xlink:href="#R"/><use transform="matrix(0.05,0,0,0.05,85.85000000000001,0)" xlink:href="#av"/></g><g id="w"><use transform="matrix(0.05,0,0,0.05,0,0)" xlink:href="#A"/><use transform="matrix(0.05,0,0,0.05,5,0)" xlink:href="#ai"/><use transform="matrix(0.05,0,0,0.05,15,0)" xlink:href="#C"/><use transform="matrix(0.05,0,0,0.05,20,0)" xlink:href="#C"/><use transform="matrix(0.05,0,0,0.05,25,0)" xlink:href="#ai"/><use transform="matrix(0.05,0,0,0.05,35,0)" xlink:href="#E"/></g><g id="x"><use transform="matrix(0.05,0,0,0.05,0,0)" xlink:href="#I"/><use transform="matrix(0.05,0,0,0.05,9,0)" xlink:href="#H"/><use transform="matrix(0.05,0,0,0.05,19,0)" xlink:href="#P"/><use transform="matrix(0.05,0,0,0.05,29,0)" xlink:href="#aB"/><use transform="matrix(0.05,0,0,0.05,34,0)" xlink:href="#R"/><use transform="matrix(0.05,0,0,0.05,37.95,0)" xlink:href="#av"/></g><path fill="#333" d="M205 0l-28-72H64L36 0H1l101-248h38L239 0h-34zm-38-99l-47-123c-12 45-31 82-46 123h93" id="aC"/><path fill="#333" d="M115-194c53 0 69 39 70 98 0 66-23 100-70 100C84 3 66-7 56-30L54 0H23l1-261h32v101c10-23 28-34 59-34zm-8 174c40 0 45-34 45-75 0-40-5-75-45-74-42 0-51 32-51 76 0 43 10 73 51 73" id="aD"/><path fill="#333" d="M135-143c-3-34-86-38-87 0 15 53 115 12 119 90S17 21 10-45l28-5c4 36 97 45 98 0-10-56-113-15-118-90-4-57 82-63 122-42 12 7 21 19 24 35" id="aE"/><g id="y"><use transform="matrix(0.05,0,0,0.05,0,0)" xlink:href="#aC"/><use transform="matrix(0.05,0,0,0.05,12,0)" xlink:href="#aD"/><use transform="matrix(0.05,0,0,0.05,22,0)" xlink:href="#aE"/><use transform="matrix(0.05,0,0,0.05,31,0)" xlink:href="#ad"/><use transform="matrix(0.05,0,0,0.05,36,0)" xlink:href="#ae"/><use transform="matrix(0.05,0,0,0.05,41.95,0)" xlink:href="#Y"/><use transform="matrix(0.05,0,0,0.05,51.95,0)" xlink:href="#al"/><use transform="matrix(0.05,0,0,0.05,60.95,0)" xlink:href="#ad"/><use transform="matrix(0.05,0,0,0.05,65.95,0)" xlink:href="#ac"/><use transform="matrix(0.05,0,0,0.05,77.95,0)" xlink:href="#am"/><use transform="matrix(0.05,0,0,0.05,86.95,0)" xlink:href="#X"/><use transform="matrix(0.05,0,0,0.05,96.95,0)" xlink:href="#ad"/><use transform="matrix(0.05,0,0,0.05,101.95,0)" xlink:href="#Y"/><use transform="matrix(0.05,0,0,0.05,111.95,0)" xlink:href="#an"/><use transform="matrix(0.05,0,0,0.05,120.95,0)" xlink:href="#ao"/><use transform="matrix(0.05,0,0,0.05,135.9,0)" xlink:href="#ao"/></g><path d="M210-169c-67 3-38 105-44 169h-31v-121c0-29-5-50-35-48C34-165 62-65 56 0H25l-1-190h30c1 10-1 24 2 32 10-44 99-50 107 0 11-21 27-35 58-36 85-2 47 119 55 194h-31v-121c0-29-5-49-35-48" id="aF"/><path d="M85-194c31 0 48 13 60 33l-1-100h32l1 261h-30c-2-10 0-23-3-31C134-8 116 4 85 4 32 4 16-35 15-94c0-66 23-100 70-100zm9 24c-40 0-46 34-46 75 0 40 6 74 45 74 42 0 51-32 51-76 0-42-9-74-50-73" id="aG"/><path d="M30 0v-248h187v28H63v79h144v27H63v87h162V0H30" id="aH"/><g id="z"><use transform="matrix(0.05,0,0,0.05,0,0)" xlink:href="#aF"/><use transform="matrix(0.05,0,0,0.05,14.950000000000001,0)" xlink:href="#H"/><use transform="matrix(0.05,0,0,0.05,24.950000000000003,0)" xlink:href="#aG"/><use transform="matrix(0.05,0,0,0.05,34.95,0)" xlink:href="#J"/><use transform="matrix(0.05,0,0,0.05,44.95,0)" xlink:href="#M"/><use transform="matrix(0.05,0,0,0.05,48.900000000000006,0)" xlink:href="#aH"/><use transform="matrix(0.05,0,0,0.05,60.900000000000006,0)" xlink:href="#M"/><use transform="matrix(0.05,0,0,0.05,64.85000000000001,0)" xlink:href="#J"/><use transform="matrix(0.05,0,0,0.05,74.85000000000001,0)" xlink:href="#aF"/><use transform="matrix(0.05,0,0,0.05,89.80000000000001,0)" xlink:href="#J"/><use transform="matrix(0.05,0,0,0.05,99.80000000000001,0)" xlink:href="#P"/><use transform="matrix(0.05,0,0,0.05,109.80000000000001,0)" xlink:href="#Q"/></g></defs></g></svg>