<svg xmlns="http://www.w3.org/2000/svg" xmlns:xlink="http://www.w3.org/1999/xlink" xmlns:lucid="lucid" width="2851.31" height="1360"><g transform="translate(0 0)" lucid:page-tab-id="HWEp-vi-RSFO"><path d="M1120 60h220v60h-220z" stroke="#333" stroke-width="2" fill="#fff"/><use xlink:href="#a" transform="matrix(1,0,0,1,1128,68) translate(12.150000000000006 25.6)"/><path d="M1371.38 90h482.17" stroke="#333" fill="none"/><path d="M1341.7 90l14.86-14.85L1371.7 90l-15.14 14.85zM1868.3 90l-14.25 4.64v-9.28z" stroke="#333" fill="#333"/><use xlink:href="#b" transform="matrix(1,0,0,1,1341,94) translate(0 14.4)"/><use xlink:href="#c" transform="matrix(1,0,0,1,1674.7276492281735,64.4) translate(0.005000000000002558 14.4)"/><path d="M1088.63 90H557.38" stroke="#333" fill="none"/><path d="M1118.3 90l-14.86 14.85L1088.3 90l15.14-14.85zM542.62 90l14.26-4.64v9.28z" stroke="#333" fill="#333"/><use xlink:href="#d" transform="matrix(1,0,0,1,616.0928520815839,64.4) translate(0 14.4)"/><path d="M1230 151.38v15.37h-180v29.37" stroke="#333" fill="none"/><path d="M1230 121.7l14.85 14.86L1230 151.7l-14.85-15.14zM1050 210.88l-4.64-14.26h9.28z" stroke="#333" fill="#333"/><use xlink:href="#e" transform="matrix(1,0,0,1,999.2966115616833,141.14999999999998) translate(0 14.4)"/><path d="M380 60h160v60H380z" stroke="#333" stroke-width="2" fill="#ffbbb1"/><use xlink:href="#f" transform="matrix(1,0,0,1,388,68) translate(27.599999999999994 25.6)"/><path d="M360 219h200v39H360z" stroke="#333" stroke-width="2" fill="#ffbbb1"/><use xlink:href="#g" transform="matrix(1,0,0,1,368,227) translate(-2.8249999999999886 15.1)"/><path d="M460.5 201.62h-1v-11.7h1zm0-33.3h-1V151.4h1z" fill="#333"/><path d="M474.85 136.56L460 151.7l-14.85-15.14L460 121.7z" fill="#333"/><path d="M475.55 136.55L460 152.42l-15.55-15.87L460 121zm-29.7 0L460 151l14.15-14.44L460 122.4zM460 216.38l-4.64-14.26h9.28z" fill="#333"/><path d="M460 218l-5.32-16.38h10.64zm-3.95-15.38l3.95 12.14 3.95-12.14z" fill="#333"/><use xlink:href="#h" transform="matrix(1,0,0,1,398.575,168.3340136054421) translate(0 14.4)"/><use xlink:href="#i" transform="matrix(1,0,0,1,398.575,168.3340136054421) translate(42 14.4)"/><path d="M460 356.5v-81.12" stroke="#333" fill="none"/><path d="M460.5 357h-1v-.5h1z" fill="#333"/><path d="M460 260.62l4.64 14.26h-9.28z" stroke="#333" fill="#fff"/><path d="M340 358h240v80H340z" stroke="#333" stroke-width="2" fill="#ffbbb1"/><path d="M340 395.6h240" stroke="#333" stroke-width="2" fill="none"/><use xlink:href="#j" transform="matrix(1,0,0,1,348,366) translate(14.250000000000014 14.6)"/><use xlink:href="#k" transform="matrix(1,0,0,1,352,403.6) translate(0 14.4)"/><use xlink:href="#l" transform="matrix(1,0,0,1,352,403.6) translate(44 14.4)"/><path d="M100 97h200v183H100z" stroke="#333" stroke-width="2" fill="#ffbbb1"/><path d="M100 156.2h200" stroke="#333" stroke-width="2" fill="none"/><use xlink:href="#m" transform="matrix(1,0,0,1,108,105) translate(20.07499999999999 14.799999999999999)"/><use xlink:href="#n" transform="matrix(1,0,0,1,108,105) translate(6.699999999999989 36.4)"/><use xlink:href="#o" transform="matrix(1,0,0,1,112,164.2) translate(0 14.4)"/><use xlink:href="#p" transform="matrix(1,0,0,1,112,164.2) translate(0 36)"/><use xlink:href="#q" transform="matrix(1,0,0,1,112,164.2) translate(0 57.6)"/><use xlink:href="#r" transform="matrix(1,0,0,1,112,164.2) translate(0 79.20000000000002)"/><use xlink:href="#s" transform="matrix(1,0,0,1,112,164.2) translate(0 100.80000000000001)"/><path d="M1870.93 60h220v60h-220z" stroke="#333" stroke-width="2" fill="#c1e4f7"/><use xlink:href="#t" transform="matrix(1,0,0,1,1878.9312007546068,68) translate(26.575000000000003 25.6)"/><path d="M2030 481h220v60h-220z" stroke="#333" stroke-width="2" fill="#c1e4f7"/><use xlink:href="#u" transform="matrix(1,0,0,1,2038,489) translate(65.125 25.6)"/><path d="M2240 479.5V237.38" stroke="#333" fill="none"/><path d="M2240.5 480h-1v-.5h1z" fill="#333"/><path d="M2240 222.62l4.64 14.26h-9.28z" stroke="#333" fill="#fff"/><path d="M1800 458.5V280h440v-42.62" stroke="#333" fill="none"/><path d="M1800.5 459h-1v-.5h1z" fill="#333"/><path d="M2240 222.62l4.64 14.26h-9.28z" stroke="#333" fill="#fff"/><path d="M1930 340h220v60h-220z" stroke="#333" stroke-width="2" fill="#c1e4f7"/><use xlink:href="#v" transform="matrix(1,0,0,1,1938,348) translate(67 25.6)"/><path d="M2122.24 338.5V280H2240v-42.62" stroke="#333" fill="none"/><path d="M2122.74 339h-1v-.5h1z" fill="#333"/><path d="M2240 222.62l4.64 14.26h-9.28z" stroke="#333" fill="#fff"/><path d="M2130 140h220v80h-220z" stroke="#333" stroke-width="2" fill="#c1e4f7"/><path d="M2130 177.6h220" stroke="#333" stroke-width="2" fill="none"/><use xlink:href="#w" transform="matrix(1,0,0,1,2138,148) translate(40.099999999999994 14.6)"/><use xlink:href="#x" transform="matrix(1,0,0,1,2142,185.6) translate(0 14.4)"/><use xlink:href="#y" transform="matrix(1,0,0,1,2142,185.6) translate(65.45 14.4)"/><path d="M2562.72 417.5V280H2240v-42.62" stroke="#333" fill="none"/><path d="M2563.22 418h-1v-.5h1z" fill="#333"/><path d="M2240 222.62l4.64 14.26h-9.28z" stroke="#333" fill="#fff"/><path d="M2452.72 419h220v80h-220z" stroke="#333" stroke-width="2" fill="#c1e4f7"/><path d="M2452.72 456.6h220" stroke="#333" stroke-width="2" fill="none"/><use xlink:href="#z" transform="matrix(1,0,0,1,2460.7193370165746,427) translate(54.099999999999994 14.6)"/><use xlink:href="#A" transform="matrix(1,0,0,1,2464.7193370165746,464.6) translate(0 14.4)"/><use xlink:href="#B" transform="matrix(1,0,0,1,2464.7193370165746,464.6) translate(63.45 14.4)"/><path d="M2054.8 479.5v-39h-41.2v-39" stroke="#333" fill="none"/><path d="M2055.3 480h-1v-.5h1zM2014.1 401.5h-1v-.5h1z" fill="#333"/><use xlink:href="#C" transform="matrix(1,0,0,1,2062.8082309748206,453.9231899677195) translate(0 14.4)"/><use xlink:href="#D" transform="matrix(1,0,0,1,2062.8082309748206,453.9231899677195) translate(42 14.4)"/><use xlink:href="#E" transform="matrix(1,0,0,1,1937.595457753387,402.4291314988971) translate(0 14.4)"/><path d="M2025 611h220v102h-220z" stroke="#333" stroke-width="2" fill="#c1e4f7"/><path d="M2025 648.6h220" stroke="#333" stroke-width="2" fill="none"/><use xlink:href="#F" transform="matrix(1,0,0,1,2033,619) translate(79.55 14.6)"/><use xlink:href="#G" transform="matrix(1,0,0,1,2037,656.6) translate(0 14.4)"/><use xlink:href="#H" transform="matrix(1,0,0,1,2037,656.6) translate(84.45 14.4)"/><use xlink:href="#I" transform="matrix(1,0,0,1,2037,656.6) translate(0 36)"/><use xlink:href="#J" transform="matrix(1,0,0,1,2037,656.6) translate(89.4 36)"/><path d="M2200 714.5V754h86v-65.82h-23.62" stroke="#333" fill="none"/><path d="M2200.5 714.5h-1v-.5h1z" fill="#333"/><path d="M2247.62 688.18l14.26-4.63v9.27z" stroke="#333" fill="#333"/><use xlink:href="#K" transform="matrix(1,0,0,1,2195.830764405707,758) translate(0 14.4)"/><use xlink:href="#L" transform="matrix(1,0,0,1,2195.830764405707,758) translate(42 14.4)"/><path d="M1980.93 151.38V275c-2.76 0-5 2.24-5 5s2.24 5 5 5v37.62" stroke="#333" fill="none"/><path d="M1980.93 121.7l14.85 14.86-14.85 15.15-14.85-15.14zM1980.93 337.38l-4.63-14.26h9.27z" stroke="#333" fill="#333"/><use xlink:href="#M" transform="matrix(1,0,0,1,1904.931200754607,303.71894161537864) translate(0 14.4)"/><path d="M1690 460h220v102h-220z" stroke="#333" stroke-width="2" fill="#c1e4f7"/><path d="M1690 497.6h220" stroke="#333" stroke-width="2" fill="none"/><use xlink:href="#N" transform="matrix(1,0,0,1,1698,468) translate(44.574999999999996 14.6)"/><use xlink:href="#O" transform="matrix(1,0,0,1,1702,505.6) translate(0 14.4)"/><use xlink:href="#P" transform="matrix(1,0,0,1,1702,505.6) translate(104.85 14.4)"/><use xlink:href="#Q" transform="matrix(1,0,0,1,1702,505.6) translate(0 36)"/><use xlink:href="#B" transform="matrix(1,0,0,1,1702,505.6) translate(107.95 36)"/><path d="M1911.5 511h101.12" stroke="#333" fill="none"/><path d="M1911.5 511.5h-.5v-1h.5z" fill="#333"/><path d="M2027.38 511l-14.26 4.64v-9.28z" stroke="#333" fill="#333"/><use xlink:href="#R" transform="matrix(1,0,0,1,1993.2937057564561,485.4) translate(0 14.4)"/><path d="M1680 611h240v80h-240z" stroke="#333" stroke-width="2" fill="#c1e4f7"/><path d="M1680 648.6h240" stroke="#333" stroke-width="2" fill="none"/><use xlink:href="#S" transform="matrix(1,0,0,1,1688,619) translate(42.625 14.6)"/><use xlink:href="#T" transform="matrix(1,0,0,1,1692,656.6) translate(0 14.4)"/><use xlink:href="#y" transform="matrix(1,0,0,1,1692,656.6) translate(167.89999999999998 14.4)"/><path d="M1800 609.5v-30.12" stroke="#333" fill="none"/><path d="M1800.5 610h-1v-.5h1z" fill="#333"/><path d="M1800 564.62l4.64 14.26h-9.28z" stroke="#333" fill="#fff"/><path d="M1770.3 728h240v80h-240z" stroke="#333" stroke-width="2" fill="#c1e4f7"/><path d="M1770.3 765.6h240" stroke="#333" stroke-width="2" fill="none"/><use xlink:href="#U" transform="matrix(1,0,0,1,1778.3027473667607,736) translate(70.55 14.6)"/><use xlink:href="#V" transform="matrix(1,0,0,1,1782.3027473667607,773.6) translate(0 14.4)"/><use xlink:href="#J" transform="matrix(1,0,0,1,1782.3027473667607,773.6) translate(118.4 14.4)"/><path d="M2135 609.5v-51.12" stroke="#333" fill="none"/><path d="M2135.5 610h-1v-.5h1z" fill="#333"/><path d="M2135 543.62l4.64 14.26h-9.28z" stroke="#333" fill="#fff"/><path d="M1768.8 768h-39.1v-59.62" stroke="#333" fill="none"/><path d="M1769.3 768.5h-.5v-1h.5z" fill="#333"/><path d="M1729.7 693.62l4.63 14.26h-9.27z" stroke="#333" fill="#fff"/><path d="M1778.8 918h-49.1V708.38" stroke="#333" fill="none"/><path d="M1779.3 918.5h-.5v-1h.5z" fill="#333"/><path d="M1729.7 693.62l4.63 14.26h-9.27z" stroke="#333" fill="#fff"/><path d="M2310 611h220v60h-220z" stroke="#333" stroke-width="2" fill="#c1e4f7"/><use xlink:href="#W" transform="matrix(1,0,0,1,2318,619) translate(63.724999999999994 25.6)"/><path d="M2420 609.5V579h-285v-20.62" stroke="#333" fill="none"/><path d="M2420.5 610h-1v-.5h1z" fill="#333"/><path d="M2135 543.62l4.64 14.26h-9.28z" stroke="#333" fill="#fff"/><path d="M2001.8 931.75h372.27V688.38" stroke="#333" fill="none"/><path d="M2001.82 932.25h-.52v-1h.52z" fill="#333"/><path d="M2374.07 673.62l4.63 14.26h-9.27z" stroke="#333" fill="#333"/><use xlink:href="#X" transform="matrix(1,0,0,1,2382.0663886412754,696.027110009323) translate(0 14.4)"/><path d="M2159.02 714.5v188.6H2017.7" stroke="#333" fill="none"/><path d="M2159.52 714.5h-1v-.5h1z" fill="#333"/><path d="M2002.92 903.1l14.27-4.64v9.27z" stroke="#333" fill="#333"/><use xlink:href="#K" transform="matrix(1,0,0,1,2000.9328016595398,877.496520334263) translate(0 14.4)"/><use xlink:href="#Y" transform="matrix(1,0,0,1,2000.9328016595398,877.496520334263) translate(42 14.4)"/><path d="M2097.76 714.5v72h-70.07" stroke="#333" fill="none"/><path d="M2098.26 714.5h-1v-.5h1z" fill="#333"/><path d="M2012.92 786.5l14.27-4.64v9.27z" stroke="#333" fill="#333"/><use xlink:href="#K" transform="matrix(1,0,0,1,2010.8162749982328,790.491367008103) translate(0 14.4)"/><use xlink:href="#Z" transform="matrix(1,0,0,1,2010.8162749982328,790.491367008103) translate(42 14.4)"/><path d="M1780.3 888h220v60h-220z" stroke="#333" stroke-width="2" fill="#c1e4f7"/><use xlink:href="#aa" transform="matrix(1,0,0,1,1788.3027473667607,896) translate(68.55 25.6)"/><path d="M2452.72 800h220v60h-220z" stroke="#333" stroke-width="2" fill="#c1e4f7"/><use xlink:href="#ab" transform="matrix(1,0,0,1,2460.7193370165746,808) translate(78.525 25.6)"/><path d="M2495.54 798.5V688.38" stroke="#333" fill="none"/><path d="M2496.04 799h-1v-.5h1z" fill="#333"/><path d="M2495.54 673.62l4.63 14.26h-9.27z" stroke="#333" fill="#fff"/><path d="M2589.5 798.5V516.38" stroke="#333" fill="none"/><path d="M2590 799h-1v-.5h1z" fill="#333"/><path d="M2589.5 501.62l4.62 14.26h-9.27z" stroke="#333" fill="#333"/><use xlink:href="#K" transform="matrix(1,0,0,1,2487.6894685150287,523.7953046462217) translate(0 14.4)"/><use xlink:href="#ac" transform="matrix(1,0,0,1,2487.6894685150287,523.7953046462217) translate(42 14.4)"/><path d="M1561.5 436H1795c0-2.76 2.24-5 5-5s5 2.24 5 5h145v70c-2.76 0-5 2.24-5 5s2.24 5 5 5v146h57.62" stroke="#333" fill="none"/><path d="M1561.5 436.5h-.5v-1h.5z" fill="#333"/><path d="M2022.38 662l-14.26 4.64v-9.28z" stroke="#333" fill="#333"/><use xlink:href="#ad" transform="matrix(1,0,0,1,1633.4194154229626,410.4000000000005) translate(0 14.4)"/><path d="M1125.6 304.88v43.37H1480v57.37" stroke="#333" fill="none"/><path d="M1125.6 275.2l14.85 14.86-14.84 15.15-14.84-15.14zM1480 420.38l-4.64-14.26h9.28z" stroke="#333" fill="#333"/><use xlink:href="#K" transform="matrix(1,0,0,1,1244.753884141808,322.65) translate(0 14.4)"/><use xlink:href="#ae" transform="matrix(1,0,0,1,1244.753884141808,322.65) translate(42 14.4)"/><path d="M660 425h160v60H660z" stroke="#333" stroke-width="2" fill="#c7e8ac"/><use xlink:href="#af" transform="matrix(1,0,0,1,668,433) translate(11.124999999999993 25.6)"/><path d="M1086.93 304.88V380h84v26.62" stroke="#333" fill="none"/><path d="M1086.93 275.2l14.85 14.86-14.85 15.15-14.85-15.14zM1170.93 421.38l-4.63-14.26h9.27z" stroke="#333" fill="#333"/><use xlink:href="#ag" transform="matrix(1,0,0,1,1050.5500305710611,384) translate(0 14.4)"/><use xlink:href="#ah" transform="matrix(1,0,0,1,1050.5500305710611,384) translate(42 14.4)"/><path d="M965.6 304.88v44.37H740v58.37" stroke="#333" fill="none"/><path d="M965.6 275.2l14.85 14.86-14.85 15.15-14.85-15.14zM740 422.38l-4.64-14.26h9.28z" stroke="#333" fill="#333"/><use xlink:href="#K" transform="matrix(1,0,0,1,771.5841748430711,323.65) translate(0 14.4)"/><use xlink:href="#ai" transform="matrix(1,0,0,1,771.5841748430711,323.65) translate(42 14.4)"/><path d="M1400 658h160v60h-160z" stroke="#333" stroke-width="2" fill="#c7e8ac"/><use xlink:href="#aj" transform="matrix(1,0,0,1,1408,666) translate(53.55 25.6)"/><path d="M1090.93 424h160v80h-160z" stroke="#333" stroke-width="2" fill="#c7e8ac"/><path d="M1090.93 461.6h160" stroke="#333" stroke-width="2" fill="none"/><use xlink:href="#ak" transform="matrix(1,0,0,1,1098.9333333333334,432) translate(43.025 14.6)"/><use xlink:href="#x" transform="matrix(1,0,0,1,1102.9333333333334,469.6) translate(0 14.4)"/><use xlink:href="#y" transform="matrix(1,0,0,1,1102.9333333333334,469.6) translate(65.45 14.4)"/><path d="M1160 658h160v60h-160z" stroke="#333" stroke-width="2" fill="#c7e8ac"/><use xlink:href="#al" transform="matrix(1,0,0,1,1168,666) translate(31.074999999999996 25.6)"/><path d="M1170.93 535.38V581H1240v59.62" stroke="#333" fill="none"/><path d="M1170.93 505.7l14.85 14.86-14.85 15.15-14.85-15.14zM1240 655.38l-4.64-14.26h9.28z" stroke="#333" fill="#333"/><use xlink:href="#h" transform="matrix(1,0,0,1,1186.539979994933,556.3299177599563) translate(0 14.4)"/><use xlink:href="#am" transform="matrix(1,0,0,1,1186.539979994933,556.3299177599563) translate(42 14.4)"/><path d="M1480 514.38V640.6" stroke="#333" fill="none"/><path d="M1480 484.7l14.85 14.86L1480 514.7l-14.85-15.14zM1480 655.38l-4.64-14.26h9.28z" stroke="#333" fill="#333"/><use xlink:href="#K" transform="matrix(1,0,0,1,1488,573.5333333333334) translate(0 14.4)"/><use xlink:href="#an" transform="matrix(1,0,0,1,1488,573.5333333333334) translate(42 14.4)"/><path d="M940 213.5h220v60H940z" stroke="#333" stroke-width="2" fill="#c7e8ac"/><use xlink:href="#ao" transform="matrix(1,0,0,1,948,221.5) translate(23.10000000000001 25.6)"/><path d="M870.93 425h160v60h-160z" stroke="#333" stroke-width="2" fill="#c7e8ac"/><g><use xlink:href="#ap" transform="matrix(1,0,0,1,878.9333333333334,433) translate(47.05 25.6)"/></g><path d="M1010.93 304.88V389h-60v18.62" stroke="#333" fill="none"/><path d="M1010.93 275.2l14.85 14.86-14.85 15.15-14.85-15.14zM950.93 422.38l-4.63-14.26h9.27z" stroke="#333" fill="#333"/><g><use xlink:href="#K" transform="matrix(1,0,0,1,904.0333333333334,362.65975908467954) translate(0 14.4)"/><use xlink:href="#aq" transform="matrix(1,0,0,1,904.0333333333334,362.65975908467954) translate(42 14.4)"/></g><path d="M1400 423h160v60h-160z" stroke="#333" stroke-width="2" fill="#c7e8ac"/><g><use xlink:href="#ar" transform="matrix(1,0,0,1,1408,430.99999999999994) translate(7.125 25.6)"/></g><path d="M1398.5 453h-130.18" stroke="#333" fill="none"/><path d="M1399 453.5h-.5v-1h.5z" fill="#333"/><path d="M1253.55 453l14.27-4.64v9.28z" stroke="#333" fill="#333"/><g><use xlink:href="#as" transform="matrix(1,0,0,1,1274.9916666666668,427.3999999999999) translate(0 14.4)"/><use xlink:href="#at" transform="matrix(1,0,0,1,1274.9916666666668,427.3999999999999) translate(45 14.4)"/></g><path d="M720 541h160v60H720z" stroke="#333" stroke-width="2" fill="#c7e8ac"/><g><use xlink:href="#au" transform="matrix(1,0,0,1,728,549) translate(1.5999999999999943 25.6)"/></g><path d="M930.93 541h160v60h-160z" stroke="#333" stroke-width="2" fill="#c7e8ac"/><g><use xlink:href="#av" transform="matrix(1,0,0,1,938.9333333333334,549) translate(25.074999999999996 25.6)"/></g><path d="M800 539.5V513h150.93v-10.62" stroke="#333" fill="none"/><path d="M800.5 540h-1v-.5h1z" fill="#333"/><path d="M950.93 487.62l4.64 14.26h-9.27z" stroke="#333" fill="#fff"/><path d="M1010.93 539.5V513h-60v-10.62" stroke="#333" fill="none"/><path d="M1011.43 540h-1v-.5h1z" fill="#333"/><path d="M950.93 487.62l4.64 14.26h-9.27z" stroke="#333" fill="#fff"/><path d="M930.93 718h160v60h-160z" stroke="#333" stroke-width="2" fill="#c7e8ac"/><g><use xlink:href="#aw" transform="matrix(1,0,0,1,938.9333333333334,726) translate(24.074999999999996 25.6)"/></g><path d="M1010.93 632.38v68.24" stroke="#333" fill="none"/><path d="M1010.93 602.7l14.85 14.86-14.85 15.15-14.85-15.14zM1010.93 715.38l-4.63-14.26h9.27z" stroke="#333" fill="#333"/><g><use xlink:href="#ax" transform="matrix(1,0,0,1,1018.9333333333335,679.9066836782642) translate(0 14.4)"/><use xlink:href="#ay" transform="matrix(1,0,0,1,1018.9333333333335,679.9066836782642) translate(45 14.4)"/></g><defs><path fill="#333" d="M212-179c-10-28-35-45-73-45-59 0-87 40-87 99 0 60 29 101 89 101 43 0 62-24 78-52l27 14C228-24 195 4 139 4 59 4 22-46 18-125c-6-104 99-153 187-111 19 9 31 26 39 46" id="az"/><path fill="#333" d="M100-194c62-1 85 37 85 99 1 63-27 99-86 99S16-35 15-95c0-66 28-99 85-99zM99-20c44 1 53-31 53-75 0-43-8-75-51-75s-53 32-53 75 10 74 51 75" id="aA"/><path fill="#333" d="M84 4C-5 8 30-112 23-190h32v120c0 31 7 50 39 49 72-2 45-101 50-169h31l1 190h-30c-1-10 1-25-2-33-11 22-28 36-60 37" id="aB"/><path fill="#333" d="M96-169c-40 0-48 33-48 73s9 75 48 75c24 0 41-14 43-38l32 2c-6 37-31 61-74 61-59 0-76-41-82-99-10-93 101-131 147-64 4 7 5 14 7 22l-32 3c-4-21-16-35-41-35" id="aC"/><path fill="#333" d="M106-169C34-169 62-67 57 0H25v-261h32l-1 103c12-21 28-36 61-36 89 0 53 116 60 194h-32v-121c2-32-8-49-39-48" id="aD"/><path fill="#333" d="M30 0v-248h187v28H63v79h144v27H63v87h162V0H30" id="aE"/><path fill="#333" d="M85-194c31 0 48 13 60 33l-1-100h32l1 261h-30c-2-10 0-23-3-31C134-8 116 4 85 4 32 4 16-35 15-94c0-66 23-100 70-100zm9 24c-40 0-46 34-46 75 0 40 6 74 45 74 42 0 51-32 51-76 0-42-9-74-50-73" id="aF"/><path fill="#333" d="M24-231v-30h32v30H24zM24 0v-190h32V0H24" id="aG"/><path fill="#333" d="M59-47c-2 24 18 29 38 22v24C64 9 27 4 27-40v-127H5v-23h24l9-43h21v43h35v23H59v120" id="aH"/><path fill="#333" d="M101-234c-31-9-42 10-38 44h38v23H63V0H32v-167H5v-23h27c-7-52 17-82 69-68v24" id="aI"/><path fill="#333" d="M177-190C167-65 218 103 67 71c-23-6-38-20-44-43l32-5c15 47 100 32 89-28v-30C133-14 115 1 83 1 29 1 15-40 15-95c0-56 16-97 71-98 29-1 48 16 59 35 1-10 0-23 2-32h30zM94-22c36 0 50-32 50-73 0-42-14-75-50-75-39 0-46 34-46 75s6 73 46 73" id="aJ"/><path fill="#333" d="M114-163C36-179 61-72 57 0H25l-1-190h30c1 12-1 29 2 39 6-27 23-49 58-41v29" id="aK"/><path fill="#333" d="M141-36C126-15 110 5 73 4 37 3 15-17 15-53c-1-64 63-63 125-63 3-35-9-54-41-54-24 1-41 7-42 31l-33-3c5-37 33-52 76-52 45 0 72 20 72 64v82c-1 20 7 32 28 27v20c-31 9-61-2-59-35zM48-53c0 20 12 33 32 33 41-3 63-29 60-74-43 2-92-5-92 41" id="aL"/><path fill="#333" d="M117-194c89-4 53 116 60 194h-32v-121c0-31-8-49-39-48C34-167 62-67 57 0H25l-1-190h30c1 10-1 24 2 32 11-22 29-35 61-36" id="aM"/><g id="a"><use transform="matrix(0.05,0,0,0.05,0,0)" xlink:href="#az"/><use transform="matrix(0.05,0,0,0.05,12.950000000000001,0)" xlink:href="#aA"/><use transform="matrix(0.05,0,0,0.05,22.950000000000003,0)" xlink:href="#aB"/><use transform="matrix(0.05,0,0,0.05,32.95,0)" xlink:href="#aC"/><use transform="matrix(0.05,0,0,0.05,41.95,0)" xlink:href="#aD"/><use transform="matrix(0.05,0,0,0.05,51.95,0)" xlink:href="#aE"/><use transform="matrix(0.05,0,0,0.05,63.95,0)" xlink:href="#aF"/><use transform="matrix(0.05,0,0,0.05,73.95,0)" xlink:href="#aG"/><use transform="matrix(0.05,0,0,0.05,77.9,0)" xlink:href="#aH"/><use transform="matrix(0.05,0,0,0.05,82.9,0)" xlink:href="#az"/><use transform="matrix(0.05,0,0,0.05,95.85000000000001,0)" xlink:href="#aA"/><use transform="matrix(0.05,0,0,0.05,105.85000000000001,0)" xlink:href="#aI"/><use transform="matrix(0.05,0,0,0.05,110.85000000000001,0)" xlink:href="#aG"/><use transform="matrix(0.05,0,0,0.05,114.80000000000001,0)" xlink:href="#aJ"/><use transform="matrix(0.05,0,0,0.05,124.80000000000001,0)" xlink:href="#aB"/><use transform="matrix(0.05,0,0,0.05,134.8,0)" xlink:href="#aK"/><use transform="matrix(0.05,0,0,0.05,140.75,0)" xlink:href="#aL"/><use transform="matrix(0.05,0,0,0.05,150.75,0)" xlink:href="#aH"/><use transform="matrix(0.05,0,0,0.05,155.75,0)" xlink:href="#aG"/><use transform="matrix(0.05,0,0,0.05,159.7,0)" xlink:href="#aA"/><use transform="matrix(0.05,0,0,0.05,169.7,0)" xlink:href="#aM"/></g><path fill="#333" d="M115-194c53 0 69 39 70 98 0 66-23 100-70 100C84 3 66-7 56-30L54 0H23l1-261h32v101c10-23 28-34 59-34zm-8 174c40 0 45-34 45-75 0-40-5-75-45-74-42 0-51 32-51 76 0 43 10 73 51 73" id="aN"/><path fill="#333" d="M135-143c-3-34-86-38-87 0 15 53 115 12 119 90S17 21 10-45l28-5c4 36 97 45 98 0-10-56-113-15-118-90-4-57 82-63 122-42 12 7 21 19 24 35" id="aO"/><path fill="#333" d="M185-189c-5-48-123-54-124 2 14 75 158 14 163 119 3 78-121 87-175 55-17-10-28-26-33-46l33-7c5 56 141 63 141-1 0-78-155-14-162-118-5-82 145-84 179-34 5 7 8 16 11 25" id="aP"/><path fill="#333" d="M179-190L93 31C79 59 56 82 12 73V49c39 6 53-20 64-50L1-190h34L92-34l54-156h33" id="aQ"/><path fill="#333" d="M141 0L90-78 38 0H4l68-98-65-92h35l48 74 47-74h35l-64 92 68 98h-35" id="aR"/><g id="c"><use transform="matrix(0.05,0,0,0.05,0,0)" xlink:href="#aL"/><use transform="matrix(0.05,0,0,0.05,10,0)" xlink:href="#aN"/><use transform="matrix(0.05,0,0,0.05,20,0)" xlink:href="#aO"/><use transform="matrix(0.05,0,0,0.05,29,0)" xlink:href="#aH"/><use transform="matrix(0.05,0,0,0.05,34,0)" xlink:href="#aK"/><use transform="matrix(0.05,0,0,0.05,39.95,0)" xlink:href="#aL"/><use transform="matrix(0.05,0,0,0.05,49.95,0)" xlink:href="#aC"/><use transform="matrix(0.05,0,0,0.05,58.95,0)" xlink:href="#aP"/><use transform="matrix(0.05,0,0,0.05,70.95,0)" xlink:href="#aQ"/><use transform="matrix(0.05,0,0,0.05,79.95,0)" xlink:href="#aM"/><use transform="matrix(0.05,0,0,0.05,89.95,0)" xlink:href="#aH"/><use transform="matrix(0.05,0,0,0.05,94.95,0)" xlink:href="#aL"/><use transform="matrix(0.05,0,0,0.05,104.95,0)" xlink:href="#aR"/></g><path d="M114-163C36-179 61-72 57 0H25l-1-190h30c1 12-1 29 2 39 6-27 23-49 58-41v29" id="aS"/><path d="M100-194c63 0 86 42 84 106H49c0 40 14 67 53 68 26 1 43-12 49-29l28 8c-11 28-37 45-77 45C44 4 14-33 15-96c1-61 26-98 85-98zm52 81c6-60-76-77-97-28-3 7-6 17-6 28h103" id="aT"/><path d="M117-194c89-4 53 116 60 194h-32v-121c0-31-8-49-39-48C34-167 62-67 57 0H25l-1-190h30c1 10-1 24 2 32 11-22 29-35 61-36" id="aU"/><path d="M85-194c31 0 48 13 60 33l-1-100h32l1 261h-30c-2-10 0-23-3-31C134-8 116 4 85 4 32 4 16-35 15-94c0-66 23-100 70-100zm9 24c-40 0-46 34-46 75 0 40 6 74 45 74 42 0 51-32 51-76 0-42-9-74-50-73" id="aV"/><path d="M185-189c-5-48-123-54-124 2 14 75 158 14 163 119 3 78-121 87-175 55-17-10-28-26-33-46l33-7c5 56 141 63 141-1 0-78-155-14-162-118-5-82 145-84 179-34 5 7 8 16 11 25" id="aW"/><path d="M179-190L93 31C79 59 56 82 12 73V49c39 6 53-20 64-50L1-190h34L92-34l54-156h33" id="aX"/><path d="M59-47c-2 24 18 29 38 22v24C64 9 27 4 27-40v-127H5v-23h24l9-43h21v43h35v23H59v120" id="aY"/><path d="M141-36C126-15 110 5 73 4 37 3 15-17 15-53c-1-64 63-63 125-63 3-35-9-54-41-54-24 1-41 7-42 31l-33-3c5-37 33-52 76-52 45 0 72 20 72 64v82c-1 20 7 32 28 27v20c-31 9-61-2-59-35zM48-53c0 20 12 33 32 33 41-3 63-29 60-74-43 2-92-5-92 41" id="aZ"/><path d="M141 0L90-78 38 0H4l68-98-65-92h35l48 74 47-74h35l-64 92 68 98h-35" id="ba"/><g id="d"><use transform="matrix(0.05,0,0,0.05,0,0)" xlink:href="#aS"/><use transform="matrix(0.05,0,0,0.05,5.95,0)" xlink:href="#aT"/><use transform="matrix(0.05,0,0,0.05,15.949999999999998,0)" xlink:href="#aU"/><use transform="matrix(0.05,0,0,0.05,25.950000000000003,0)" xlink:href="#aV"/><use transform="matrix(0.05,0,0,0.05,35.95,0)" xlink:href="#aT"/><use transform="matrix(0.05,0,0,0.05,45.95,0)" xlink:href="#aS"/><use transform="matrix(0.05,0,0,0.05,51.900000000000006,0)" xlink:href="#aW"/><use transform="matrix(0.05,0,0,0.05,63.900000000000006,0)" xlink:href="#aX"/><use transform="matrix(0.05,0,0,0.05,72.9,0)" xlink:href="#aU"/><use transform="matrix(0.05,0,0,0.05,82.9,0)" xlink:href="#aY"/><use transform="matrix(0.05,0,0,0.05,87.9,0)" xlink:href="#aZ"/><use transform="matrix(0.05,0,0,0.05,97.9,0)" xlink:href="#ba"/></g><path d="M96-169c-40 0-48 33-48 73s9 75 48 75c24 0 41-14 43-38l32 2c-6 37-31 61-74 61-59 0-76-41-82-99-10-93 101-131 147-64 4 7 5 14 7 22l-32 3c-4-21-16-35-41-35" id="bb"/><path d="M100-194c62-1 85 37 85 99 1 63-27 99-86 99S16-35 15-95c0-66 28-99 85-99zM99-20c44 1 53-31 53-75 0-43-8-75-51-75s-53 32-53 75 10 74 51 75" id="bc"/><g id="e"><use transform="matrix(0.05,0,0,0.05,0,0)" xlink:href="#bb"/><use transform="matrix(0.05,0,0,0.05,9,0)" xlink:href="#bc"/><use transform="matrix(0.05,0,0,0.05,19,0)" xlink:href="#aU"/><use transform="matrix(0.05,0,0,0.05,29,0)" xlink:href="#bb"/><use transform="matrix(0.05,0,0,0.05,38,0)" xlink:href="#aS"/><use transform="matrix(0.05,0,0,0.05,43.95,0)" xlink:href="#aT"/><use transform="matrix(0.05,0,0,0.05,53.95,0)" xlink:href="#aY"/><use transform="matrix(0.05,0,0,0.05,58.95,0)" xlink:href="#aT"/><use transform="matrix(0.05,0,0,0.05,68.95,0)" xlink:href="#aW"/><use transform="matrix(0.05,0,0,0.05,80.95,0)" xlink:href="#aX"/><use transform="matrix(0.05,0,0,0.05,89.95,0)" xlink:href="#aU"/><use transform="matrix(0.05,0,0,0.05,99.95,0)" xlink:href="#aY"/><use transform="matrix(0.05,0,0,0.05,104.95,0)" xlink:href="#aZ"/><use transform="matrix(0.05,0,0,0.05,114.95,0)" xlink:href="#ba"/></g><path d="M233-177c-1 41-23 64-60 70L243 0h-38l-65-103H63V0H30v-248c88 3 205-21 203 71zM63-129c60-2 137 13 137-47 0-61-80-42-137-45v92" id="bd"/><path d="M240 0l2-218c-23 76-54 145-80 218h-23L58-218 59 0H30v-248h44l77 211c21-75 51-140 76-211h43V0h-30" id="be"/><g id="f"><use transform="matrix(0.05,0,0,0.05,0,0)" xlink:href="#bd"/><use transform="matrix(0.05,0,0,0.05,12.950000000000001,0)" xlink:href="#aT"/><use transform="matrix(0.05,0,0,0.05,22.950000000000003,0)" xlink:href="#aU"/><use transform="matrix(0.05,0,0,0.05,32.95,0)" xlink:href="#aV"/><use transform="matrix(0.05,0,0,0.05,42.95,0)" xlink:href="#aT"/><use transform="matrix(0.05,0,0,0.05,52.95,0)" xlink:href="#aS"/><use transform="matrix(0.05,0,0,0.05,58.900000000000006,0)" xlink:href="#be"/><use transform="matrix(0.05,0,0,0.05,73.85000000000001,0)" xlink:href="#be"/></g><path d="M52-101C46-14 166-7 216-51l9-45h-74l6-28h105l-18 87C217-12 181 4 130 4 60 4 18-31 18-101c0-106 78-167 188-146 30 6 48 27 59 54l-34 9c-10-26-31-41-67-40-75 1-107 50-112 123" id="bf"/><path d="M66-151c12-25 30-51 66-40l-6 26C45-176 58-65 38 0H6l36-190h30" id="bg"/><path d="M165-48c-4 18 1 34 23 27l-3 20c-29 8-62 0-52-35h-2C116-14 99 4 63 4 30 4 8-16 8-49c0-68 71-67 138-67 10-26 0-56-31-54-26 1-42 9-47 31l-32-5c8-67 160-71 144 15-5 28-9 54-15 81zM42-50c3 52 80 24 89-6 7-12 7-24 11-38-47 1-103-4-100 44" id="bh"/><path d="M67-162c32-53 139-36 121 50C175-51 163 2 97 4 68 4 52-11 42-31 38 6 28 39 22 75H-9l50-265h29c-1 10 0 20-3 28zm89 36c0-26-10-43-35-43-54 0-67 50-69 103-1 29 14 45 42 46 53 0 62-58 62-106" id="bi"/><path d="M67-158c15-20 31-36 64-36 94 0 33 127 27 194h-32l25-140c3-38-53-32-70-12C52-117 51-51 37 0H6l51-261h31" id="bj"/><path d="M50-231l6-30h32l-6 30H50zM6 0l37-190h31L37 0H6" id="bk"/><path d="M44-68c0 29 11 47 38 47 30 0 42-19 51-41l28 9C148-21 126 4 82 4 31 4 10-29 12-85c3-77 74-140 146-93 12 8 15 23 18 40l-31 5c-1-22-13-36-36-36-52 0-65 49-65 101" id="bl"/><path d="M20-101c0-91 52-143 145-150 126-9 127 168 53 223-23 17-55 32-93 32C57 4 20-33 20-101zm216-33c5-57-18-91-73-90-77 1-110 51-110 125 0 49 23 75 73 75 72-1 104-45 110-110" id="bm"/><path d="M68-162c25-46 127-43 121 31C183-60 169 1 98 4 69 5 53-11 43-31L36 0H5l52-261h31zm88 36c2-27-9-43-34-43-55 0-70 51-70 103 0 29 15 45 43 46 52 0 58-58 61-106" id="bn"/><path d="M51-231l6-30h31l-6 30H51zM33 24C28 60 2 84-40 72c3-12-1-29 18-22C-5 49-1 37 2 19l41-209h32" id="bo"/><path d="M111-194c62-3 86 47 72 106H45c-7 38 6 69 45 68 27-1 43-14 53-32l24 11C152-15 129 4 87 4 38 3 12-23 12-71c0-70 32-119 99-123zm44 81c14-66-71-72-95-28-4 8-8 17-11 28h106" id="bp"/><path d="M51-54c-9 22 5 41 31 30L79-1C43 14 10-4 19-52l22-115H19l5-23h22l19-43h21l-9 43h35l-4 23H73" id="bq"/><path d="M248-139C247-14 144 9 11 0l48-248c105-6 190 8 189 109zm-34 0c1-70-52-87-126-82L50-27c98 7 163-21 164-112" id="br"/><path d="M76-167L44 0H12l33-167H18l4-23h27c3-47 25-81 82-69l-4 24c-35-8-44 15-46 45h37l-5 23H76" id="bs"/><path d="M67-158c22-48 132-52 116 29L158 0h-32l25-140c3-38-53-32-70-12C52-117 51-52 38 0H6l36-190h30" id="bt"/><path d="M30-147c31-64 166-65 159 27C183-49 158 1 86 4 9 8 1-88 30-147zM88-20c53 0 68-48 68-100 0-31-11-51-44-50-52 1-68 46-68 97 0 32 13 53 44 53" id="bu"/><g id="g"><use transform="matrix(0.05,0,0,0.05,0,0)" xlink:href="#bf"/><use transform="matrix(0.05,0,0,0.05,14,0)" xlink:href="#bg"/><use transform="matrix(0.05,0,0,0.05,19.95,0)" xlink:href="#bh"/><use transform="matrix(0.05,0,0,0.05,29.950000000000003,0)" xlink:href="#bi"/><use transform="matrix(0.05,0,0,0.05,39.95,0)" xlink:href="#bj"/><use transform="matrix(0.05,0,0,0.05,49.95,0)" xlink:href="#bk"/><use transform="matrix(0.05,0,0,0.05,53.900000000000006,0)" xlink:href="#bl"/><use transform="matrix(0.05,0,0,0.05,62.900000000000006,0)" xlink:href="#bm"/><use transform="matrix(0.05,0,0,0.05,76.9,0)" xlink:href="#bn"/><use transform="matrix(0.05,0,0,0.05,86.9,0)" xlink:href="#bo"/><use transform="matrix(0.05,0,0,0.05,90.85000000000001,0)" xlink:href="#bp"/><use transform="matrix(0.05,0,0,0.05,100.85000000000001,0)" xlink:href="#bl"/><use transform="matrix(0.05,0,0,0.05,109.85000000000001,0)" xlink:href="#bq"/><use transform="matrix(0.05,0,0,0.05,114.85000000000001,0)" xlink:href="#br"/><use transform="matrix(0.05,0,0,0.05,127.80000000000001,0)" xlink:href="#bp"/><use transform="matrix(0.05,0,0,0.05,137.8,0)" xlink:href="#bs"/><use transform="matrix(0.05,0,0,0.05,142.8,0)" xlink:href="#bk"/><use transform="matrix(0.05,0,0,0.05,146.75,0)" xlink:href="#bt"/><use transform="matrix(0.05,0,0,0.05,156.75,0)" xlink:href="#bk"/><use transform="matrix(0.05,0,0,0.05,160.7,0)" xlink:href="#bq"/><use transform="matrix(0.05,0,0,0.05,165.7,0)" xlink:href="#bk"/><use transform="matrix(0.05,0,0,0.05,169.64999999999998,0)" xlink:href="#bu"/><use transform="matrix(0.05,0,0,0.05,179.64999999999998,0)" xlink:href="#bt"/></g><path d="M26 75v-336h71v23H56V52h41v23H26" id="bv"/><path d="M27 0v-27h64v-190l-56 39v-29l58-41h29v221h61V0H27" id="bw"/><path d="M33 0v-38h34V0H33" id="bx"/><path d="M80-196l47-18 7 23-49 13 32 44-20 13-27-46-27 45-21-12 33-44-49-13 8-23 47 19-2-53h23" id="by"/><path d="M3 75V52h41v-290H3v-23h71V75H3" id="bz"/><g id="h"><use transform="matrix(0.05,0,0,0.05,0,0)" xlink:href="#bv"/><use transform="matrix(0.05,0,0,0.05,5,0)" xlink:href="#bw"/><use transform="matrix(0.05,0,0,0.05,15,0)" xlink:href="#bx"/><use transform="matrix(0.05,0,0,0.05,20,0)" xlink:href="#bx"/><use transform="matrix(0.05,0,0,0.05,25,0)" xlink:href="#by"/><use transform="matrix(0.05,0,0,0.05,32,0)" xlink:href="#bz"/></g><path d="M101-234c-31-9-42 10-38 44h38v23H63V0H32v-167H5v-23h27c-7-52 17-82 69-68v24" id="bA"/><path d="M24-231v-30h32v30H24zM24 0v-190h32V0H24" id="bB"/><path d="M135-143c-3-34-86-38-87 0 15 53 115 12 119 90S17 21 10-45l28-5c4 36 97 45 98 0-10-56-113-15-118-90-4-57 82-63 122-42 12 7 21 19 24 35" id="bC"/><g id="i"><use transform="matrix(0.05,0,0,0.05,0,0)" xlink:href="#aV"/><use transform="matrix(0.05,0,0,0.05,10,0)" xlink:href="#aT"/><use transform="matrix(0.05,0,0,0.05,20,0)" xlink:href="#bA"/><use transform="matrix(0.05,0,0,0.05,25,0)" xlink:href="#bB"/><use transform="matrix(0.05,0,0,0.05,28.950000000000003,0)" xlink:href="#aU"/><use transform="matrix(0.05,0,0,0.05,38.95,0)" xlink:href="#bB"/><use transform="matrix(0.05,0,0,0.05,42.900000000000006,0)" xlink:href="#aY"/><use transform="matrix(0.05,0,0,0.05,47.900000000000006,0)" xlink:href="#bB"/><use transform="matrix(0.05,0,0,0.05,51.85,0)" xlink:href="#bc"/><use transform="matrix(0.05,0,0,0.05,61.85,0)" xlink:href="#aU"/><use transform="matrix(0.05,0,0,0.05,71.85000000000001,0)" xlink:href="#bC"/></g><path d="M30-248c87 1 191-15 191 75 0 78-77 80-158 76V0H30v-248zm33 125c57 0 124 11 124-50 0-59-68-47-124-48v98" id="bD"/><path d="M210-169c-67 3-38 105-44 169h-31v-121c0-29-5-50-35-48C34-165 62-65 56 0H25l-1-190h30c1 10-1 24 2 32 10-44 99-50 107 0 11-21 27-35 58-36 85-2 47 119 55 194h-31v-121c0-29-5-49-35-48" id="bE"/><path d="M108 0H70L1-190h34L89-25l56-165h34" id="bF"/><path d="M140-251c81 0 123 46 123 126C263-46 219 4 140 4 59 4 17-45 17-125s42-126 123-126zm0 227c63 0 89-41 89-101s-29-99-89-99c-61 0-89 39-89 99S79-25 140-24" id="bG"/><path d="M115-194c53 0 69 39 70 98 0 66-23 100-70 100C84 3 66-7 56-30L54 0H23l1-261h32v101c10-23 28-34 59-34zm-8 174c40 0 45-34 45-75 0-40-5-75-45-74-42 0-51 32-51 76 0 43 10 73 51 73" id="bH"/><path d="M24-231v-30h32v30H24zM-9 49c24 4 33-6 33-30v-209h32V24c2 40-23 58-65 49V49" id="bI"/><path d="M30-248c118-7 216 8 213 122C240-48 200 0 122 0H30v-248zM63-27c89 8 146-16 146-99s-60-101-146-95v194" id="bJ"/><g id="j"><use transform="matrix(0.05,0,0,0.05,0,0)" xlink:href="#bD"/><use transform="matrix(0.05,0,0,0.05,12,0)" xlink:href="#aS"/><use transform="matrix(0.05,0,0,0.05,17.95,0)" xlink:href="#bB"/><use transform="matrix(0.05,0,0,0.05,21.9,0)" xlink:href="#bE"/><use transform="matrix(0.05,0,0,0.05,36.85,0)" xlink:href="#bB"/><use transform="matrix(0.05,0,0,0.05,40.800000000000004,0)" xlink:href="#aY"/><use transform="matrix(0.05,0,0,0.05,45.800000000000004,0)" xlink:href="#bB"/><use transform="matrix(0.05,0,0,0.05,49.75000000000001,0)" xlink:href="#bF"/><use transform="matrix(0.05,0,0,0.05,58.75,0)" xlink:href="#aT"/><use transform="matrix(0.05,0,0,0.05,68.75,0)" xlink:href="#bG"/><use transform="matrix(0.05,0,0,0.05,82.75,0)" xlink:href="#bH"/><use transform="matrix(0.05,0,0,0.05,92.75,0)" xlink:href="#bI"/><use transform="matrix(0.05,0,0,0.05,96.7,0)" xlink:href="#aT"/><use transform="matrix(0.05,0,0,0.05,106.7,0)" xlink:href="#bb"/><use transform="matrix(0.05,0,0,0.05,115.7,0)" xlink:href="#aY"/><use transform="matrix(0.05,0,0,0.05,120.7,0)" xlink:href="#bJ"/><use transform="matrix(0.05,0,0,0.05,133.65,0)" xlink:href="#aT"/><use transform="matrix(0.05,0,0,0.05,143.65,0)" xlink:href="#bA"/><use transform="matrix(0.05,0,0,0.05,148.65,0)" xlink:href="#bB"/><use transform="matrix(0.05,0,0,0.05,152.6,0)" xlink:href="#aU"/><use transform="matrix(0.05,0,0,0.05,162.6,0)" xlink:href="#bB"/><use transform="matrix(0.05,0,0,0.05,166.54999999999998,0)" xlink:href="#aY"/><use transform="matrix(0.05,0,0,0.05,171.54999999999998,0)" xlink:href="#bB"/><use transform="matrix(0.05,0,0,0.05,175.49999999999997,0)" xlink:href="#bc"/><use transform="matrix(0.05,0,0,0.05,185.49999999999997,0)" xlink:href="#aU"/></g><path fill="#333" d="M115-194c55 1 70 41 70 98S169 2 115 4C84 4 66-9 55-30l1 105H24l-1-265h31l2 30c10-21 28-34 59-34zm-8 174c40 0 45-34 45-75s-6-73-45-74c-42 0-51 32-51 76 0 43 10 73 51 73" id="bK"/><path fill="#333" d="M100-194c63 0 86 42 84 106H49c0 40 14 67 53 68 26 1 43-12 49-29l28 8c-11 28-37 45-77 45C44 4 14-33 15-96c1-61 26-98 85-98zm52 81c6-60-76-77-97-28-3 7-6 17-6 28h103" id="bL"/><path fill="#333" d="M33-154v-36h34v36H33zM33 0v-36h34V0H33" id="bM"/><g id="k"><use transform="matrix(0.05,0,0,0.05,0,0)" xlink:href="#aH"/><use transform="matrix(0.05,0,0,0.05,5,0)" xlink:href="#aQ"/><use transform="matrix(0.05,0,0,0.05,14,0)" xlink:href="#bK"/><use transform="matrix(0.05,0,0,0.05,24,0)" xlink:href="#bL"/><use transform="matrix(0.05,0,0,0.05,34,0)" xlink:href="#bM"/></g><path fill="#333" d="M143 4C61 4 22-44 18-125c-5-107 100-154 193-111 17 8 29 25 37 43l-32 9c-13-25-37-40-76-40-61 0-88 39-88 99 0 61 29 100 91 101 35 0 62-11 79-27v-45h-74v-28h105v86C228-13 192 4 143 4" id="bN"/><path fill="#333" d="M30-248c87 1 191-15 191 75 0 78-77 80-158 76V0H30v-248zm33 125c57 0 124 11 124-50 0-59-68-47-124-48v98" id="bO"/><path fill="#333" d="M210-169c-67 3-38 105-44 169h-31v-121c0-29-5-50-35-48C34-165 62-65 56 0H25l-1-190h30c1 10-1 24 2 32 10-44 99-50 107 0 11-21 27-35 58-36 85-2 47 119 55 194h-31v-121c0-29-5-49-35-48" id="bP"/><path fill="#333" d="M108 0H70L1-190h34L89-25l56-165h34" id="bQ"/><path fill="#333" d="M127-220V0H93v-220H8v-28h204v28h-85" id="bR"/><g id="l"><use transform="matrix(0.05,0,0,0.05,0,0)" xlink:href="#bN"/><use transform="matrix(0.05,0,0,0.05,14,0)" xlink:href="#aK"/><use transform="matrix(0.05,0,0,0.05,19.95,0)" xlink:href="#aL"/><use transform="matrix(0.05,0,0,0.05,29.950000000000003,0)" xlink:href="#bK"/><use transform="matrix(0.05,0,0,0.05,39.95,0)" xlink:href="#aD"/><use transform="matrix(0.05,0,0,0.05,49.95,0)" xlink:href="#aG"/><use transform="matrix(0.05,0,0,0.05,53.900000000000006,0)" xlink:href="#aC"/><use transform="matrix(0.05,0,0,0.05,62.900000000000006,0)" xlink:href="#bO"/><use transform="matrix(0.05,0,0,0.05,74.9,0)" xlink:href="#aK"/><use transform="matrix(0.05,0,0,0.05,80.85000000000001,0)" xlink:href="#aG"/><use transform="matrix(0.05,0,0,0.05,84.80000000000001,0)" xlink:href="#bP"/><use transform="matrix(0.05,0,0,0.05,99.75000000000001,0)" xlink:href="#aG"/><use transform="matrix(0.05,0,0,0.05,103.7,0)" xlink:href="#aH"/><use transform="matrix(0.05,0,0,0.05,108.7,0)" xlink:href="#aG"/><use transform="matrix(0.05,0,0,0.05,112.65000000000003,0)" xlink:href="#bQ"/><use transform="matrix(0.05,0,0,0.05,121.65000000000003,0)" xlink:href="#bL"/><use transform="matrix(0.05,0,0,0.05,131.65000000000003,0)" xlink:href="#bR"/><use transform="matrix(0.05,0,0,0.05,141.60000000000002,0)" xlink:href="#aQ"/><use transform="matrix(0.05,0,0,0.05,150.60000000000002,0)" xlink:href="#bK"/><use transform="matrix(0.05,0,0,0.05,160.60000000000002,0)" xlink:href="#bL"/></g><path d="M18-100v-36l175-74v27L42-118l151 64v27" id="bS"/><path d="M30 0v-248h187v28H63v79h144v27H63v87h162V0H30" id="bT"/><path d="M84 4C-5 8 30-112 23-190h32v120c0 31 7 50 39 49 72-2 45-101 50-169h31l1 190h-30c-1-10 1-25-2-33-11 22-28 36-60 37" id="bU"/><path d="M18-27v-27l151-64-151-65v-27l175 74v36" id="bV"/><g id="m"><use transform="matrix(0.05,0,0,0.05,0,0)" xlink:href="#bS"/><use transform="matrix(0.05,0,0,0.05,10.5,0)" xlink:href="#bS"/><use transform="matrix(0.05,0,0,0.05,21,0)" xlink:href="#bT"/><use transform="matrix(0.05,0,0,0.05,33,0)" xlink:href="#aU"/><use transform="matrix(0.05,0,0,0.05,43,0)" xlink:href="#bU"/><use transform="matrix(0.05,0,0,0.05,53,0)" xlink:href="#bE"/><use transform="matrix(0.05,0,0,0.05,67.95,0)" xlink:href="#aT"/><use transform="matrix(0.05,0,0,0.05,77.95,0)" xlink:href="#aS"/><use transform="matrix(0.05,0,0,0.05,83.9,0)" xlink:href="#aZ"/><use transform="matrix(0.05,0,0,0.05,93.9,0)" xlink:href="#aY"/><use transform="matrix(0.05,0,0,0.05,98.9,0)" xlink:href="#bB"/><use transform="matrix(0.05,0,0,0.05,102.85000000000001,0)" xlink:href="#bc"/><use transform="matrix(0.05,0,0,0.05,112.85000000000001,0)" xlink:href="#aU"/><use transform="matrix(0.05,0,0,0.05,122.85000000000001,0)" xlink:href="#bV"/><use transform="matrix(0.05,0,0,0.05,133.35000000000002,0)" xlink:href="#bV"/></g><path d="M143 4C61 4 22-44 18-125c-5-107 100-154 193-111 17 8 29 25 37 43l-32 9c-13-25-37-40-76-40-61 0-88 39-88 99 0 61 29 100 91 101 35 0 62-11 79-27v-45h-74v-28h105v86C228-13 192 4 143 4" id="bW"/><path d="M115-194c55 1 70 41 70 98S169 2 115 4C84 4 66-9 55-30l1 105H24l-1-265h31l2 30c10-21 28-34 59-34zm-8 174c40 0 45-34 45-75s-6-73-45-74c-42 0-51 32-51 76 0 43 10 73 51 73" id="bX"/><path d="M106-169C34-169 62-67 57 0H25v-261h32l-1 103c12-21 28-36 61-36 89 0 53 116 60 194h-32v-121c2-32-8-49-39-48" id="bY"/><path d="M127-220V0H93v-220H8v-28h204v28h-85" id="bZ"/><g id="n"><use transform="matrix(0.05,0,0,0.05,0,0)" xlink:href="#bW"/><use transform="matrix(0.05,0,0,0.05,14,0)" xlink:href="#aS"/><use transform="matrix(0.05,0,0,0.05,19.95,0)" xlink:href="#aZ"/><use transform="matrix(0.05,0,0,0.05,29.950000000000003,0)" xlink:href="#bX"/><use transform="matrix(0.05,0,0,0.05,39.95,0)" xlink:href="#bY"/><use transform="matrix(0.05,0,0,0.05,49.95,0)" xlink:href="#bB"/><use transform="matrix(0.05,0,0,0.05,53.900000000000006,0)" xlink:href="#bb"/><use transform="matrix(0.05,0,0,0.05,62.900000000000006,0)" xlink:href="#bD"/><use transform="matrix(0.05,0,0,0.05,74.9,0)" xlink:href="#aS"/><use transform="matrix(0.05,0,0,0.05,80.85000000000001,0)" xlink:href="#bB"/><use transform="matrix(0.05,0,0,0.05,84.80000000000001,0)" xlink:href="#bE"/><use transform="matrix(0.05,0,0,0.05,99.75000000000001,0)" xlink:href="#bB"/><use transform="matrix(0.05,0,0,0.05,103.7,0)" xlink:href="#aY"/><use transform="matrix(0.05,0,0,0.05,108.7,0)" xlink:href="#bB"/><use transform="matrix(0.05,0,0,0.05,112.65000000000003,0)" xlink:href="#bF"/><use transform="matrix(0.05,0,0,0.05,121.65000000000003,0)" xlink:href="#aT"/><use transform="matrix(0.05,0,0,0.05,131.65000000000003,0)" xlink:href="#bZ"/><use transform="matrix(0.05,0,0,0.05,141.60000000000002,0)" xlink:href="#aX"/><use transform="matrix(0.05,0,0,0.05,150.60000000000002,0)" xlink:href="#bX"/><use transform="matrix(0.05,0,0,0.05,160.60000000000002,0)" xlink:href="#aT"/></g><path fill="#333" d="M30 0v-248h33v221h125V0H30" id="ca"/><g id="o"><use transform="matrix(0.05,0,0,0.05,0,0)" xlink:href="#ca"/><use transform="matrix(0.05,0,0,0.05,10,0)" xlink:href="#aG"/><use transform="matrix(0.05,0,0,0.05,13.949999999999998,0)" xlink:href="#aM"/><use transform="matrix(0.05,0,0,0.05,23.95,0)" xlink:href="#bL"/></g><path fill="#333" d="M233-177c-1 41-23 64-60 70L243 0h-38l-65-103H63V0H30v-248c88 3 205-21 203 71zM63-129c60-2 137 13 137-47 0-61-80-42-137-45v92" id="cb"/><path fill="#333" d="M24 0v-261h32V0H24" id="cc"/><g id="p"><use transform="matrix(0.05,0,0,0.05,0,0)" xlink:href="#cb"/><use transform="matrix(0.05,0,0,0.05,12.950000000000001,0)" xlink:href="#bL"/><use transform="matrix(0.05,0,0,0.05,22.950000000000003,0)" xlink:href="#aC"/><use transform="matrix(0.05,0,0,0.05,31.950000000000003,0)" xlink:href="#aH"/><use transform="matrix(0.05,0,0,0.05,36.95,0)" xlink:href="#aL"/><use transform="matrix(0.05,0,0,0.05,46.95,0)" xlink:href="#aM"/><use transform="matrix(0.05,0,0,0.05,56.95,0)" xlink:href="#aJ"/><use transform="matrix(0.05,0,0,0.05,66.95,0)" xlink:href="#cc"/><use transform="matrix(0.05,0,0,0.05,70.9,0)" xlink:href="#bL"/></g><g id="q"><use transform="matrix(0.05,0,0,0.05,0,0)" xlink:href="#ca"/><use transform="matrix(0.05,0,0,0.05,10,0)" xlink:href="#aL"/><use transform="matrix(0.05,0,0,0.05,20,0)" xlink:href="#aN"/><use transform="matrix(0.05,0,0,0.05,30,0)" xlink:href="#bL"/><use transform="matrix(0.05,0,0,0.05,40,0)" xlink:href="#cc"/></g><g id="r"><use transform="matrix(0.05,0,0,0.05,0,0)" xlink:href="#az"/><use transform="matrix(0.05,0,0,0.05,12.950000000000001,0)" xlink:href="#aG"/><use transform="matrix(0.05,0,0,0.05,16.900000000000002,0)" xlink:href="#aK"/><use transform="matrix(0.05,0,0,0.05,22.85,0)" xlink:href="#aC"/><use transform="matrix(0.05,0,0,0.05,31.85,0)" xlink:href="#cc"/><use transform="matrix(0.05,0,0,0.05,35.800000000000004,0)" xlink:href="#bL"/></g><path fill="#333" d="M33 0v-38h34V0H33" id="cd"/><g id="s"><use transform="matrix(0.05,0,0,0.05,0,0)" xlink:href="#cd"/><use transform="matrix(0.05,0,0,0.05,5,0)" xlink:href="#cd"/><use transform="matrix(0.05,0,0,0.05,10,0)" xlink:href="#cd"/></g><path d="M205 0l-28-72H64L36 0H1l101-248h38L239 0h-34zm-38-99l-47-123c-12 45-31 82-46 123h93" id="ce"/><g id="t"><use transform="matrix(0.05,0,0,0.05,0,0)" xlink:href="#ce"/><use transform="matrix(0.05,0,0,0.05,12,0)" xlink:href="#bH"/><use transform="matrix(0.05,0,0,0.05,22,0)" xlink:href="#bC"/><use transform="matrix(0.05,0,0,0.05,31,0)" xlink:href="#aY"/><use transform="matrix(0.05,0,0,0.05,36,0)" xlink:href="#aS"/><use transform="matrix(0.05,0,0,0.05,41.95,0)" xlink:href="#aZ"/><use transform="matrix(0.05,0,0,0.05,51.95,0)" xlink:href="#bb"/><use transform="matrix(0.05,0,0,0.05,60.95,0)" xlink:href="#aY"/><use transform="matrix(0.05,0,0,0.05,65.95,0)" xlink:href="#aW"/><use transform="matrix(0.05,0,0,0.05,77.95,0)" xlink:href="#aX"/><use transform="matrix(0.05,0,0,0.05,86.95,0)" xlink:href="#aU"/><use transform="matrix(0.05,0,0,0.05,96.95,0)" xlink:href="#aY"/><use transform="matrix(0.05,0,0,0.05,101.95,0)" xlink:href="#aZ"/><use transform="matrix(0.05,0,0,0.05,111.95,0)" xlink:href="#ba"/><use transform="matrix(0.05,0,0,0.05,120.95,0)" xlink:href="#be"/><use transform="matrix(0.05,0,0,0.05,135.9,0)" xlink:href="#be"/></g><path d="M125-24c46 0 70-25 89-51l25 16C214-24 183 4 123 4 8 4-5-146 60-208c32-50 158-61 191-5 5 7 9 14 11 22l-32 10c-9-28-33-43-69-43-74 0-108 51-108 125 0 46 24 75 72 75" id="cf"/><path d="M6 0l50-261h32L37 0H6" id="cg"/><path d="M55-144c13 50 104 24 104 88C159 21 15 23 1-39l26-10c6 40 102 42 102-4-13-50-104-23-104-87 0-71 143-71 148-8l-29 4c-5-35-85-37-89 0" id="ch"/><g id="u"><use transform="matrix(0.05,0,0,0.05,0,0)" xlink:href="#cf"/><use transform="matrix(0.05,0,0,0.05,12.950000000000001,0)" xlink:href="#cg"/><use transform="matrix(0.05,0,0,0.05,16.900000000000002,0)" xlink:href="#bh"/><use transform="matrix(0.05,0,0,0.05,26.900000000000002,0)" xlink:href="#ch"/><use transform="matrix(0.05,0,0,0.05,35.900000000000006,0)" xlink:href="#ch"/><use transform="matrix(0.05,0,0,0.05,44.900000000000006,0)" xlink:href="#bk"/><use transform="matrix(0.05,0,0,0.05,48.85000000000001,0)" xlink:href="#bs"/><use transform="matrix(0.05,0,0,0.05,53.85,0)" xlink:href="#bk"/><use transform="matrix(0.05,0,0,0.05,57.80000000000001,0)" xlink:href="#bp"/><use transform="matrix(0.05,0,0,0.05,67.80000000000001,0)" xlink:href="#bg"/></g><path d="M238-179c0 84-86 86-175 82L45 0H11l48-248c82 0 179-12 179 69zm-34 1c0-53-64-42-116-43l-19 98c63 0 135 9 135-55" id="ci"/><path d="M127 0L80-88 50-66 37 0H6l51-261h31L57-100l99-90h39l-93 82L161 0h-34" id="cj"/><path d="M103-194c29 0 47 14 56 36 2-11 5-23 8-32h30L160-5C157 61 82 97 21 62 9 55 4 45 1 30l28-7c7 42 83 31 92-3 4-16 9-38 13-55-13 20-29 36-62 36-40 0-60-25-60-64 0-71 23-131 91-131zm4 24c-53 0-58 54-61 104-2 27 10 44 36 44 49 0 65-50 67-102 1-29-15-46-42-46" id="ck"/><g id="v"><use transform="matrix(0.05,0,0,0.05,0,0)" xlink:href="#ci"/><use transform="matrix(0.05,0,0,0.05,12,0)" xlink:href="#bh"/><use transform="matrix(0.05,0,0,0.05,22,0)" xlink:href="#bl"/><use transform="matrix(0.05,0,0,0.05,31,0)" xlink:href="#cj"/><use transform="matrix(0.05,0,0,0.05,40,0)" xlink:href="#bh"/><use transform="matrix(0.05,0,0,0.05,50,0)" xlink:href="#ck"/><use transform="matrix(0.05,0,0,0.05,60,0)" xlink:href="#bp"/></g><path d="M190 0L58-211 59 0H30v-248h39L202-35l-2-213h31V0h-41" id="cl"/><path d="M24 0v-261h32V0H24" id="cm"/><g id="w"><use transform="matrix(0.05,0,0,0.05,0,0)" xlink:href="#cl"/><use transform="matrix(0.05,0,0,0.05,12.950000000000001,0)" xlink:href="#aZ"/><use transform="matrix(0.05,0,0,0.05,22.950000000000003,0)" xlink:href="#bE"/><use transform="matrix(0.05,0,0,0.05,37.900000000000006,0)" xlink:href="#aT"/><use transform="matrix(0.05,0,0,0.05,47.900000000000006,0)" xlink:href="#aV"/><use transform="matrix(0.05,0,0,0.05,57.900000000000006,0)" xlink:href="#bT"/><use transform="matrix(0.05,0,0,0.05,69.9,0)" xlink:href="#cm"/><use transform="matrix(0.05,0,0,0.05,73.85000000000001,0)" xlink:href="#aT"/><use transform="matrix(0.05,0,0,0.05,83.85000000000001,0)" xlink:href="#bE"/><use transform="matrix(0.05,0,0,0.05,98.80000000000001,0)" xlink:href="#aT"/><use transform="matrix(0.05,0,0,0.05,108.80000000000001,0)" xlink:href="#aU"/><use transform="matrix(0.05,0,0,0.05,118.80000000000001,0)" xlink:href="#aY"/></g><path fill="#333" d="M118-107v75H92v-75H18v-26h74v-75h26v75h74v26h-74" id="cn"/><g id="x"><use transform="matrix(0.05,0,0,0.05,0,0)" xlink:href="#cn"/><use transform="matrix(0.05,0,0,0.05,10.5,0)" xlink:href="#aM"/><use transform="matrix(0.05,0,0,0.05,20.5,0)" xlink:href="#aL"/><use transform="matrix(0.05,0,0,0.05,30.5,0)" xlink:href="#bP"/><use transform="matrix(0.05,0,0,0.05,45.45,0)" xlink:href="#bL"/><use transform="matrix(0.05,0,0,0.05,55.45,0)" xlink:href="#bM"/></g><g id="y"><use transform="matrix(0.05,0,0,0.05,0,0)" xlink:href="#aP"/><use transform="matrix(0.05,0,0,0.05,12,0)" xlink:href="#aH"/><use transform="matrix(0.05,0,0,0.05,17,0)" xlink:href="#aK"/><use transform="matrix(0.05,0,0,0.05,22.95,0)" xlink:href="#aG"/><use transform="matrix(0.05,0,0,0.05,26.899999999999995,0)" xlink:href="#aM"/><use transform="matrix(0.05,0,0,0.05,36.9,0)" xlink:href="#aJ"/></g><path d="M30 0v-248h33v221h125V0H30" id="co"/><g id="z"><use transform="matrix(0.05,0,0,0.05,0,0)" xlink:href="#bT"/><use transform="matrix(0.05,0,0,0.05,12,0)" xlink:href="#aU"/><use transform="matrix(0.05,0,0,0.05,22,0)" xlink:href="#bU"/><use transform="matrix(0.05,0,0,0.05,32,0)" xlink:href="#bE"/><use transform="matrix(0.05,0,0,0.05,46.95,0)" xlink:href="#co"/><use transform="matrix(0.05,0,0,0.05,56.95,0)" xlink:href="#bB"/><use transform="matrix(0.05,0,0,0.05,60.900000000000006,0)" xlink:href="#aY"/><use transform="matrix(0.05,0,0,0.05,65.9,0)" xlink:href="#aT"/><use transform="matrix(0.05,0,0,0.05,75.9,0)" xlink:href="#aS"/><use transform="matrix(0.05,0,0,0.05,81.85000000000001,0)" xlink:href="#aZ"/><use transform="matrix(0.05,0,0,0.05,91.85000000000001,0)" xlink:href="#cm"/></g><g id="A"><use transform="matrix(0.05,0,0,0.05,0,0)" xlink:href="#cn"/><use transform="matrix(0.05,0,0,0.05,10.5,0)" xlink:href="#bQ"/><use transform="matrix(0.05,0,0,0.05,19.5,0)" xlink:href="#aL"/><use transform="matrix(0.05,0,0,0.05,29.5,0)" xlink:href="#cc"/><use transform="matrix(0.05,0,0,0.05,33.45,0)" xlink:href="#aB"/><use transform="matrix(0.05,0,0,0.05,43.45,0)" xlink:href="#bL"/><use transform="matrix(0.05,0,0,0.05,53.45,0)" xlink:href="#bM"/></g><path fill="#333" d="M33 0v-248h34V0H33" id="cp"/><g id="B"><use transform="matrix(0.05,0,0,0.05,0,0)" xlink:href="#cp"/><use transform="matrix(0.05,0,0,0.05,5,0)" xlink:href="#aM"/><use transform="matrix(0.05,0,0,0.05,15,0)" xlink:href="#aH"/></g><path d="M101-251c68 0 85 55 85 127S166 4 100 4C33 4 14-52 14-124c0-73 17-127 87-127zm-1 229c47 0 54-49 54-102s-4-102-53-102c-51 0-55 48-55 102 0 53 5 102 54 102" id="cq"/><g id="C"><use transform="matrix(0.05,0,0,0.05,0,0)" xlink:href="#bv"/><use transform="matrix(0.05,0,0,0.05,5,0)" xlink:href="#cq"/><use transform="matrix(0.05,0,0,0.05,15,0)" xlink:href="#bx"/><use transform="matrix(0.05,0,0,0.05,20,0)" xlink:href="#bx"/><use transform="matrix(0.05,0,0,0.05,25,0)" xlink:href="#by"/><use transform="matrix(0.05,0,0,0.05,32,0)" xlink:href="#bz"/></g><g id="D"><use transform="matrix(0.05,0,0,0.05,0,0)" xlink:href="#bb"/><use transform="matrix(0.05,0,0,0.05,9,0)" xlink:href="#cm"/><use transform="matrix(0.05,0,0,0.05,12.949999999999998,0)" xlink:href="#aZ"/><use transform="matrix(0.05,0,0,0.05,22.95,0)" xlink:href="#bC"/><use transform="matrix(0.05,0,0,0.05,31.950000000000003,0)" xlink:href="#bC"/><use transform="matrix(0.05,0,0,0.05,40.95,0)" xlink:href="#bB"/><use transform="matrix(0.05,0,0,0.05,44.900000000000006,0)" xlink:href="#bA"/><use transform="matrix(0.05,0,0,0.05,49.900000000000006,0)" xlink:href="#bB"/><use transform="matrix(0.05,0,0,0.05,53.85,0)" xlink:href="#aT"/><use transform="matrix(0.05,0,0,0.05,63.85,0)" xlink:href="#aS"/><use transform="matrix(0.05,0,0,0.05,69.80000000000001,0)" xlink:href="#bC"/></g><path d="M143 0L79-87 56-68V0H24v-261h32v163l83-92h37l-77 82L181 0h-38" id="cr"/><path d="M177-190C167-65 218 103 67 71c-23-6-38-20-44-43l32-5c15 47 100 32 89-28v-30C133-14 115 1 83 1 29 1 15-40 15-95c0-56 16-97 71-98 29-1 48 16 59 35 1-10 0-23 2-32h30zM94-22c36 0 50-32 50-73 0-42-14-75-50-75-39 0-46 34-46 75s6 73 46 73" id="cs"/><g id="E"><use transform="matrix(0.05,0,0,0.05,0,0)" xlink:href="#bX"/><use transform="matrix(0.05,0,0,0.05,10,0)" xlink:href="#aZ"/><use transform="matrix(0.05,0,0,0.05,20,0)" xlink:href="#bb"/><use transform="matrix(0.05,0,0,0.05,29,0)" xlink:href="#cr"/><use transform="matrix(0.05,0,0,0.05,38,0)" xlink:href="#aZ"/><use transform="matrix(0.05,0,0,0.05,48,0)" xlink:href="#cs"/><use transform="matrix(0.05,0,0,0.05,58,0)" xlink:href="#aT"/></g><path d="M212-179c-10-28-35-45-73-45-59 0-87 40-87 99 0 60 29 101 89 101 43 0 62-24 78-52l27 14C228-24 195 4 139 4 59 4 22-46 18-125c-6-104 99-153 187-111 19 9 31 26 39 46" id="ct"/><g id="F"><use transform="matrix(0.05,0,0,0.05,0,0)" xlink:href="#ct"/><use transform="matrix(0.05,0,0,0.05,12.950000000000001,0)" xlink:href="#cm"/><use transform="matrix(0.05,0,0,0.05,16.900000000000002,0)" xlink:href="#aZ"/><use transform="matrix(0.05,0,0,0.05,26.900000000000002,0)" xlink:href="#bC"/><use transform="matrix(0.05,0,0,0.05,35.900000000000006,0)" xlink:href="#bC"/></g><g id="G"><use transform="matrix(0.05,0,0,0.05,0,0)" xlink:href="#cn"/><use transform="matrix(0.05,0,0,0.05,10.5,0)" xlink:href="#aL"/><use transform="matrix(0.05,0,0,0.05,20.5,0)" xlink:href="#aN"/><use transform="matrix(0.05,0,0,0.05,30.5,0)" xlink:href="#aO"/><use transform="matrix(0.05,0,0,0.05,39.5,0)" xlink:href="#aH"/><use transform="matrix(0.05,0,0,0.05,44.5,0)" xlink:href="#aK"/><use transform="matrix(0.05,0,0,0.05,50.45,0)" xlink:href="#aL"/><use transform="matrix(0.05,0,0,0.05,60.45,0)" xlink:href="#aC"/><use transform="matrix(0.05,0,0,0.05,69.45,0)" xlink:href="#aH"/><use transform="matrix(0.05,0,0,0.05,74.45,0)" xlink:href="#bM"/></g><path fill="#333" d="M160-131c35 5 61 23 61 61C221 17 115-2 30 0v-248c76 3 177-17 177 60 0 33-19 50-47 57zm-97-11c50-1 110 9 110-42 0-47-63-36-110-37v79zm0 115c55-2 124 14 124-45 0-56-70-42-124-44v89" id="cu"/><g id="H"><use transform="matrix(0.05,0,0,0.05,0,0)" xlink:href="#cu"/><use transform="matrix(0.05,0,0,0.05,12,0)" xlink:href="#aA"/><use transform="matrix(0.05,0,0,0.05,22,0)" xlink:href="#aA"/><use transform="matrix(0.05,0,0,0.05,32,0)" xlink:href="#cc"/><use transform="matrix(0.05,0,0,0.05,35.95,0)" xlink:href="#bL"/><use transform="matrix(0.05,0,0,0.05,45.95,0)" xlink:href="#aL"/><use transform="matrix(0.05,0,0,0.05,55.95,0)" xlink:href="#aM"/></g><g id="I"><use transform="matrix(0.05,0,0,0.05,0,0)" xlink:href="#cn"/><use transform="matrix(0.05,0,0,0.05,10.5,0)" xlink:href="#aG"/><use transform="matrix(0.05,0,0,0.05,14.449999999999998,0)" xlink:href="#aM"/><use transform="matrix(0.05,0,0,0.05,24.45,0)" xlink:href="#aH"/><use transform="matrix(0.05,0,0,0.05,29.450000000000003,0)" xlink:href="#bL"/><use transform="matrix(0.05,0,0,0.05,39.45,0)" xlink:href="#aK"/><use transform="matrix(0.05,0,0,0.05,45.400000000000006,0)" xlink:href="#aI"/><use transform="matrix(0.05,0,0,0.05,50.400000000000006,0)" xlink:href="#aL"/><use transform="matrix(0.05,0,0,0.05,60.400000000000006,0)" xlink:href="#aC"/><use transform="matrix(0.05,0,0,0.05,69.4,0)" xlink:href="#bL"/><use transform="matrix(0.05,0,0,0.05,79.4,0)" xlink:href="#bM"/></g><g id="J"><use transform="matrix(0.05,0,0,0.05,0,0)" xlink:href="#cu"/><use transform="matrix(0.05,0,0,0.05,12,0)" xlink:href="#aA"/><use transform="matrix(0.05,0,0,0.05,22,0)" xlink:href="#aA"/><use transform="matrix(0.05,0,0,0.05,32,0)" xlink:href="#cc"/><use transform="matrix(0.05,0,0,0.05,35.95,0)" xlink:href="#bL"/><use transform="matrix(0.05,0,0,0.05,45.95,0)" xlink:href="#aL"/><use transform="matrix(0.05,0,0,0.05,55.95,0)" xlink:href="#aM"/></g><g id="K"><use transform="matrix(0.05,0,0,0.05,0,0)" xlink:href="#bv"/><use transform="matrix(0.05,0,0,0.05,5,0)" xlink:href="#cq"/><use transform="matrix(0.05,0,0,0.05,15,0)" xlink:href="#bx"/><use transform="matrix(0.05,0,0,0.05,20,0)" xlink:href="#bx"/><use transform="matrix(0.05,0,0,0.05,25,0)" xlink:href="#by"/><use transform="matrix(0.05,0,0,0.05,32,0)" xlink:href="#bz"/></g><g id="L"><use transform="matrix(0.05,0,0,0.05,0,0)" xlink:href="#bC"/><use transform="matrix(0.05,0,0,0.05,9,0)" xlink:href="#bU"/><use transform="matrix(0.05,0,0,0.05,19,0)" xlink:href="#bX"/><use transform="matrix(0.05,0,0,0.05,29,0)" xlink:href="#aT"/><use transform="matrix(0.05,0,0,0.05,39,0)" xlink:href="#aS"/><use transform="matrix(0.05,0,0,0.05,44.95,0)" xlink:href="#aY"/><use transform="matrix(0.05,0,0,0.05,49.95,0)" xlink:href="#aX"/><use transform="matrix(0.05,0,0,0.05,58.95,0)" xlink:href="#bX"/><use transform="matrix(0.05,0,0,0.05,68.95,0)" xlink:href="#aT"/><use transform="matrix(0.05,0,0,0.05,78.95,0)" xlink:href="#bC"/></g><g id="M"><use transform="matrix(0.05,0,0,0.05,0,0)" xlink:href="#bX"/><use transform="matrix(0.05,0,0,0.05,10,0)" xlink:href="#aZ"/><use transform="matrix(0.05,0,0,0.05,20,0)" xlink:href="#bb"/><use transform="matrix(0.05,0,0,0.05,29,0)" xlink:href="#cr"/><use transform="matrix(0.05,0,0,0.05,38,0)" xlink:href="#aZ"/><use transform="matrix(0.05,0,0,0.05,48,0)" xlink:href="#cs"/><use transform="matrix(0.05,0,0,0.05,58,0)" xlink:href="#aT"/></g><g id="N"><use transform="matrix(0.05,0,0,0.05,0,0)" xlink:href="#bZ"/><use transform="matrix(0.05,0,0,0.05,9.950000000000001,0)" xlink:href="#aX"/><use transform="matrix(0.05,0,0,0.05,18.950000000000003,0)" xlink:href="#bX"/><use transform="matrix(0.05,0,0,0.05,28.950000000000003,0)" xlink:href="#aT"/><use transform="matrix(0.05,0,0,0.05,38.95,0)" xlink:href="#aV"/><use transform="matrix(0.05,0,0,0.05,48.95,0)" xlink:href="#bT"/><use transform="matrix(0.05,0,0,0.05,60.95,0)" xlink:href="#cm"/><use transform="matrix(0.05,0,0,0.05,64.9,0)" xlink:href="#aT"/><use transform="matrix(0.05,0,0,0.05,74.9,0)" xlink:href="#bE"/><use transform="matrix(0.05,0,0,0.05,89.85000000000001,0)" xlink:href="#aT"/><use transform="matrix(0.05,0,0,0.05,99.85000000000001,0)" xlink:href="#aU"/><use transform="matrix(0.05,0,0,0.05,109.85000000000001,0)" xlink:href="#aY"/></g><path fill="#333" d="M206 0h-36l-40-164L89 0H53L-1-190h32L70-26l43-164h34l41 164 42-164h31" id="cv"/><g id="O"><use transform="matrix(0.05,0,0,0.05,0,0)" xlink:href="#cc"/><use transform="matrix(0.05,0,0,0.05,3.95,0)" xlink:href="#aA"/><use transform="matrix(0.05,0,0,0.05,13.949999999999998,0)" xlink:href="#cv"/><use transform="matrix(0.05,0,0,0.05,26.899999999999995,0)" xlink:href="#bL"/><use transform="matrix(0.05,0,0,0.05,36.9,0)" xlink:href="#aK"/><use transform="matrix(0.05,0,0,0.05,42.85,0)" xlink:href="#cu"/><use transform="matrix(0.05,0,0,0.05,54.85,0)" xlink:href="#aA"/><use transform="matrix(0.05,0,0,0.05,64.85,0)" xlink:href="#aB"/><use transform="matrix(0.05,0,0,0.05,74.85,0)" xlink:href="#aM"/><use transform="matrix(0.05,0,0,0.05,84.85,0)" xlink:href="#aF"/><use transform="matrix(0.05,0,0,0.05,94.85,0)" xlink:href="#bM"/></g><g id="P"><use transform="matrix(0.05,0,0,0.05,0,0)" xlink:href="#cp"/><use transform="matrix(0.05,0,0,0.05,5,0)" xlink:href="#aM"/><use transform="matrix(0.05,0,0,0.05,15,0)" xlink:href="#aH"/></g><g id="Q"><use transform="matrix(0.05,0,0,0.05,0,0)" xlink:href="#aB"/><use transform="matrix(0.05,0,0,0.05,10,0)" xlink:href="#bK"/><use transform="matrix(0.05,0,0,0.05,20,0)" xlink:href="#bK"/><use transform="matrix(0.05,0,0,0.05,30,0)" xlink:href="#bL"/><use transform="matrix(0.05,0,0,0.05,40,0)" xlink:href="#aK"/><use transform="matrix(0.05,0,0,0.05,45.95,0)" xlink:href="#cu"/><use transform="matrix(0.05,0,0,0.05,57.95,0)" xlink:href="#aA"/><use transform="matrix(0.05,0,0,0.05,67.95,0)" xlink:href="#aB"/><use transform="matrix(0.05,0,0,0.05,77.95,0)" xlink:href="#aM"/><use transform="matrix(0.05,0,0,0.05,87.95,0)" xlink:href="#aF"/><use transform="matrix(0.05,0,0,0.05,97.95,0)" xlink:href="#bM"/></g><g id="R"><use transform="matrix(0.05,0,0,0.05,0,0)" xlink:href="#aY"/><use transform="matrix(0.05,0,0,0.05,5,0)" xlink:href="#aX"/><use transform="matrix(0.05,0,0,0.05,14,0)" xlink:href="#bX"/><use transform="matrix(0.05,0,0,0.05,24,0)" xlink:href="#aT"/></g><path d="M63-220v92h138v28H63V0H30v-248h175v28H63" id="cw"/><g id="S"><use transform="matrix(0.05,0,0,0.05,0,0)" xlink:href="#aW"/><use transform="matrix(0.05,0,0,0.05,12,0)" xlink:href="#aY"/><use transform="matrix(0.05,0,0,0.05,17,0)" xlink:href="#aS"/><use transform="matrix(0.05,0,0,0.05,22.95,0)" xlink:href="#bU"/><use transform="matrix(0.05,0,0,0.05,32.95,0)" xlink:href="#bb"/><use transform="matrix(0.05,0,0,0.05,41.95,0)" xlink:href="#aY"/><use transform="matrix(0.05,0,0,0.05,46.95,0)" xlink:href="#bU"/><use transform="matrix(0.05,0,0,0.05,56.95,0)" xlink:href="#aS"/><use transform="matrix(0.05,0,0,0.05,62.900000000000006,0)" xlink:href="#aZ"/><use transform="matrix(0.05,0,0,0.05,72.9,0)" xlink:href="#cm"/><use transform="matrix(0.05,0,0,0.05,76.85000000000001,0)" xlink:href="#cw"/><use transform="matrix(0.05,0,0,0.05,87.80000000000001,0)" xlink:href="#aT"/><use transform="matrix(0.05,0,0,0.05,97.80000000000001,0)" xlink:href="#aZ"/><use transform="matrix(0.05,0,0,0.05,107.80000000000001,0)" xlink:href="#aY"/><use transform="matrix(0.05,0,0,0.05,112.80000000000001,0)" xlink:href="#bU"/><use transform="matrix(0.05,0,0,0.05,122.80000000000001,0)" xlink:href="#aS"/><use transform="matrix(0.05,0,0,0.05,128.75,0)" xlink:href="#aT"/></g><path fill="#333" d="M137 0h-34L2-248h35l83 218 83-218h36" id="cx"/><g id="T"><use transform="matrix(0.05,0,0,0.05,0,0)" xlink:href="#cn"/><use transform="matrix(0.05,0,0,0.05,10.5,0)" xlink:href="#aF"/><use transform="matrix(0.05,0,0,0.05,20.5,0)" xlink:href="#bL"/><use transform="matrix(0.05,0,0,0.05,30.5,0)" xlink:href="#aI"/><use transform="matrix(0.05,0,0,0.05,35.5,0)" xlink:href="#aL"/><use transform="matrix(0.05,0,0,0.05,45.5,0)" xlink:href="#aB"/><use transform="matrix(0.05,0,0,0.05,55.5,0)" xlink:href="#cc"/><use transform="matrix(0.05,0,0,0.05,59.45,0)" xlink:href="#aH"/><use transform="matrix(0.05,0,0,0.05,64.45,0)" xlink:href="#cx"/><use transform="matrix(0.05,0,0,0.05,75.1,0)" xlink:href="#aL"/><use transform="matrix(0.05,0,0,0.05,85.1,0)" xlink:href="#cc"/><use transform="matrix(0.05,0,0,0.05,89.05,0)" xlink:href="#aB"/><use transform="matrix(0.05,0,0,0.05,99.05,0)" xlink:href="#bL"/><use transform="matrix(0.05,0,0,0.05,109.05000000000001,0)" xlink:href="#ca"/><use transform="matrix(0.05,0,0,0.05,119.05000000000001,0)" xlink:href="#aG"/><use transform="matrix(0.05,0,0,0.05,123,0)" xlink:href="#aH"/><use transform="matrix(0.05,0,0,0.05,128,0)" xlink:href="#bL"/><use transform="matrix(0.05,0,0,0.05,138,0)" xlink:href="#aK"/><use transform="matrix(0.05,0,0,0.05,143.95,0)" xlink:href="#aL"/><use transform="matrix(0.05,0,0,0.05,153.95,0)" xlink:href="#cc"/><use transform="matrix(0.05,0,0,0.05,157.89999999999998,0)" xlink:href="#bM"/></g><g id="U"><use transform="matrix(0.05,0,0,0.05,0,0)" xlink:href="#bd"/><use transform="matrix(0.05,0,0,0.05,12.950000000000001,0)" xlink:href="#aT"/><use transform="matrix(0.05,0,0,0.05,22.950000000000003,0)" xlink:href="#bA"/><use transform="matrix(0.05,0,0,0.05,27.950000000000003,0)" xlink:href="#aT"/><use transform="matrix(0.05,0,0,0.05,37.95,0)" xlink:href="#aS"/><use transform="matrix(0.05,0,0,0.05,43.900000000000006,0)" xlink:href="#aT"/><use transform="matrix(0.05,0,0,0.05,53.900000000000006,0)" xlink:href="#aU"/><use transform="matrix(0.05,0,0,0.05,63.900000000000006,0)" xlink:href="#bb"/><use transform="matrix(0.05,0,0,0.05,72.9,0)" xlink:href="#aT"/></g><g id="V"><use transform="matrix(0.05,0,0,0.05,0,0)" xlink:href="#cn"/><use transform="matrix(0.05,0,0,0.05,10.5,0)" xlink:href="#aC"/><use transform="matrix(0.05,0,0,0.05,19.5,0)" xlink:href="#aA"/><use transform="matrix(0.05,0,0,0.05,29.5,0)" xlink:href="#aM"/><use transform="matrix(0.05,0,0,0.05,39.5,0)" xlink:href="#aH"/><use transform="matrix(0.05,0,0,0.05,44.5,0)" xlink:href="#aL"/><use transform="matrix(0.05,0,0,0.05,54.5,0)" xlink:href="#aG"/><use transform="matrix(0.05,0,0,0.05,58.45,0)" xlink:href="#aM"/><use transform="matrix(0.05,0,0,0.05,68.45,0)" xlink:href="#bP"/><use transform="matrix(0.05,0,0,0.05,83.4,0)" xlink:href="#bL"/><use transform="matrix(0.05,0,0,0.05,93.4,0)" xlink:href="#aM"/><use transform="matrix(0.05,0,0,0.05,103.4,0)" xlink:href="#aH"/><use transform="matrix(0.05,0,0,0.05,108.4,0)" xlink:href="#bM"/></g><path d="M151-220L108 0H75l42-220H32l6-28h203l-5 28h-85" id="cy"/><path d="M198-190L69 30C53 58 25 83-20 72c4-11-1-27 19-22 33-1 43-29 59-52L20-190h32L79-34l84-156h35" id="cz"/><g id="W"><use transform="matrix(0.05,0,0,0.05,0,0)" xlink:href="#br"/><use transform="matrix(0.05,0,0,0.05,12.950000000000001,0)" xlink:href="#bh"/><use transform="matrix(0.05,0,0,0.05,22.950000000000003,0)" xlink:href="#bq"/><use transform="matrix(0.05,0,0,0.05,27.950000000000003,0)" xlink:href="#bh"/><use transform="matrix(0.05,0,0,0.05,37.95,0)" xlink:href="#cy"/><use transform="matrix(0.05,0,0,0.05,47.550000000000004,0)" xlink:href="#cz"/><use transform="matrix(0.05,0,0,0.05,56.550000000000004,0)" xlink:href="#bi"/><use transform="matrix(0.05,0,0,0.05,66.55000000000001,0)" xlink:href="#bp"/></g><g id="X"><use transform="matrix(0.05,0,0,0.05,0,0)" xlink:href="#aV"/><use transform="matrix(0.05,0,0,0.05,10,0)" xlink:href="#aZ"/><use transform="matrix(0.05,0,0,0.05,20,0)" xlink:href="#aY"/><use transform="matrix(0.05,0,0,0.05,25,0)" xlink:href="#aZ"/><use transform="matrix(0.05,0,0,0.05,35,0)" xlink:href="#bZ"/><use transform="matrix(0.05,0,0,0.05,44.95,0)" xlink:href="#aX"/><use transform="matrix(0.05,0,0,0.05,53.95,0)" xlink:href="#bX"/><use transform="matrix(0.05,0,0,0.05,63.95,0)" xlink:href="#aT"/></g><g id="Y"><use transform="matrix(0.05,0,0,0.05,0,0)" xlink:href="#aZ"/><use transform="matrix(0.05,0,0,0.05,10,0)" xlink:href="#aY"/><use transform="matrix(0.05,0,0,0.05,15,0)" xlink:href="#aY"/><use transform="matrix(0.05,0,0,0.05,20,0)" xlink:href="#aS"/><use transform="matrix(0.05,0,0,0.05,25.950000000000003,0)" xlink:href="#bB"/><use transform="matrix(0.05,0,0,0.05,29.899999999999995,0)" xlink:href="#bH"/><use transform="matrix(0.05,0,0,0.05,39.9,0)" xlink:href="#bU"/><use transform="matrix(0.05,0,0,0.05,49.9,0)" xlink:href="#aY"/><use transform="matrix(0.05,0,0,0.05,54.900000000000006,0)" xlink:href="#aT"/><use transform="matrix(0.05,0,0,0.05,64.9,0)" xlink:href="#bC"/></g><g id="Z"><use transform="matrix(0.05,0,0,0.05,0,0)" xlink:href="#aS"/><use transform="matrix(0.05,0,0,0.05,5.95,0)" xlink:href="#aT"/><use transform="matrix(0.05,0,0,0.05,15.949999999999998,0)" xlink:href="#bA"/><use transform="matrix(0.05,0,0,0.05,20.95,0)" xlink:href="#aT"/><use transform="matrix(0.05,0,0,0.05,30.950000000000003,0)" xlink:href="#aS"/><use transform="matrix(0.05,0,0,0.05,36.9,0)" xlink:href="#aT"/><use transform="matrix(0.05,0,0,0.05,46.9,0)" xlink:href="#aU"/><use transform="matrix(0.05,0,0,0.05,56.900000000000006,0)" xlink:href="#bb"/><use transform="matrix(0.05,0,0,0.05,65.9,0)" xlink:href="#aT"/><use transform="matrix(0.05,0,0,0.05,75.9,0)" xlink:href="#bC"/></g><path d="M187 0l-14-72H61L19 0h-37l149-248h38L221 0h-34zm-19-99l-22-123L76-99h92" id="cA"/><path d="M67 3c-93-2-31-127-26-193h32L48-50c-3 39 53 32 70 12 30-34 30-101 43-152h32L157 0h-30c1-10 6-24 4-33-14 20-29 37-64 36" id="cB"/><g id="aa"><use transform="matrix(0.05,0,0,0.05,0,0)" xlink:href="#cA"/><use transform="matrix(0.05,0,0,0.05,12,0)" xlink:href="#bq"/><use transform="matrix(0.05,0,0,0.05,17,0)" xlink:href="#bq"/><use transform="matrix(0.05,0,0,0.05,22,0)" xlink:href="#bg"/><use transform="matrix(0.05,0,0,0.05,27.950000000000003,0)" xlink:href="#bk"/><use transform="matrix(0.05,0,0,0.05,31.899999999999995,0)" xlink:href="#bn"/><use transform="matrix(0.05,0,0,0.05,41.9,0)" xlink:href="#cB"/><use transform="matrix(0.05,0,0,0.05,51.900000000000006,0)" xlink:href="#bq"/><use transform="matrix(0.05,0,0,0.05,56.900000000000006,0)" xlink:href="#bp"/></g><path d="M11 0l48-248h184l-5 28H87l-15 79h140l-5 27H67L50-27h158l-5 27H11" id="cC"/><path d="M248-111c6-24 9-61-24-58-72 9-57 108-77 169h-31l26-142c3-37-50-30-64-10C52-115 50-51 37 0H6l36-190h30c-1 10-6 24-4 32 13-43 101-52 105 5 13-22 29-41 61-41 90 0 28 129 23 194h-31" id="cD"/><g id="ab"><use transform="matrix(0.05,0,0,0.05,0,0)" xlink:href="#cC"/><use transform="matrix(0.05,0,0,0.05,12,0)" xlink:href="#bt"/><use transform="matrix(0.05,0,0,0.05,22,0)" xlink:href="#cB"/><use transform="matrix(0.05,0,0,0.05,32,0)" xlink:href="#cD"/></g><g id="ac"><use transform="matrix(0.05,0,0,0.05,0,0)" xlink:href="#cm"/><use transform="matrix(0.05,0,0,0.05,3.95,0)" xlink:href="#bB"/><use transform="matrix(0.05,0,0,0.05,7.9,0)" xlink:href="#aY"/><use transform="matrix(0.05,0,0,0.05,12.9,0)" xlink:href="#aT"/><use transform="matrix(0.05,0,0,0.05,22.9,0)" xlink:href="#aS"/><use transform="matrix(0.05,0,0,0.05,28.849999999999994,0)" xlink:href="#aZ"/><use transform="matrix(0.05,0,0,0.05,38.849999999999994,0)" xlink:href="#cm"/><use transform="matrix(0.05,0,0,0.05,42.8,0)" xlink:href="#bC"/></g><g id="ad"><use transform="matrix(0.05,0,0,0.05,0,0)" xlink:href="#bE"/><use transform="matrix(0.05,0,0,0.05,14.950000000000001,0)" xlink:href="#bc"/><use transform="matrix(0.05,0,0,0.05,24.950000000000003,0)" xlink:href="#aV"/><use transform="matrix(0.05,0,0,0.05,34.95,0)" xlink:href="#aT"/><use transform="matrix(0.05,0,0,0.05,44.95,0)" xlink:href="#cm"/><use transform="matrix(0.05,0,0,0.05,48.900000000000006,0)" xlink:href="#bT"/><use transform="matrix(0.05,0,0,0.05,60.900000000000006,0)" xlink:href="#cm"/><use transform="matrix(0.05,0,0,0.05,64.85000000000001,0)" xlink:href="#aT"/><use transform="matrix(0.05,0,0,0.05,74.85000000000001,0)" xlink:href="#bE"/><use transform="matrix(0.05,0,0,0.05,89.80000000000001,0)" xlink:href="#aT"/><use transform="matrix(0.05,0,0,0.05,99.80000000000001,0)" xlink:href="#aU"/><use transform="matrix(0.05,0,0,0.05,109.80000000000001,0)" xlink:href="#aY"/></g><g id="ae"><use transform="matrix(0.05,0,0,0.05,0,0)" xlink:href="#bX"/><use transform="matrix(0.05,0,0,0.05,10,0)" xlink:href="#aS"/><use transform="matrix(0.05,0,0,0.05,15.949999999999998,0)" xlink:href="#bc"/><use transform="matrix(0.05,0,0,0.05,25.950000000000003,0)" xlink:href="#bb"/><use transform="matrix(0.05,0,0,0.05,34.95,0)" xlink:href="#aT"/><use transform="matrix(0.05,0,0,0.05,44.95,0)" xlink:href="#bC"/><use transform="matrix(0.05,0,0,0.05,53.95,0)" xlink:href="#bC"/><use transform="matrix(0.05,0,0,0.05,62.95,0)" xlink:href="#bc"/><use transform="matrix(0.05,0,0,0.05,72.95,0)" xlink:href="#aS"/><use transform="matrix(0.05,0,0,0.05,78.9,0)" xlink:href="#bC"/></g><path d="M197 0v-115H63V0H30v-248h33v105h134v-105h34V0h-34" id="cE"/><g id="af"><use transform="matrix(0.05,0,0,0.05,0,0)" xlink:href="#cE"/><use transform="matrix(0.05,0,0,0.05,12.950000000000001,0)" xlink:href="#aT"/><use transform="matrix(0.05,0,0,0.05,22.950000000000003,0)" xlink:href="#cm"/><use transform="matrix(0.05,0,0,0.05,26.900000000000002,0)" xlink:href="#bX"/><use transform="matrix(0.05,0,0,0.05,36.900000000000006,0)" xlink:href="#aT"/><use transform="matrix(0.05,0,0,0.05,46.900000000000006,0)" xlink:href="#aS"/><use transform="matrix(0.05,0,0,0.05,52.85,0)" xlink:href="#cw"/><use transform="matrix(0.05,0,0,0.05,63.80000000000001,0)" xlink:href="#bU"/><use transform="matrix(0.05,0,0,0.05,73.80000000000001,0)" xlink:href="#aU"/><use transform="matrix(0.05,0,0,0.05,83.80000000000001,0)" xlink:href="#bb"/><use transform="matrix(0.05,0,0,0.05,92.80000000000001,0)" xlink:href="#aY"/><use transform="matrix(0.05,0,0,0.05,97.80000000000001,0)" xlink:href="#bB"/><use transform="matrix(0.05,0,0,0.05,101.75000000000001,0)" xlink:href="#bc"/><use transform="matrix(0.05,0,0,0.05,111.75,0)" xlink:href="#aU"/></g><g id="ag"><use transform="matrix(0.05,0,0,0.05,0,0)" xlink:href="#bv"/><use transform="matrix(0.05,0,0,0.05,5,0)" xlink:href="#cq"/><use transform="matrix(0.05,0,0,0.05,15,0)" xlink:href="#bx"/><use transform="matrix(0.05,0,0,0.05,20,0)" xlink:href="#bx"/><use transform="matrix(0.05,0,0,0.05,25,0)" xlink:href="#by"/><use transform="matrix(0.05,0,0,0.05,32,0)" xlink:href="#bz"/></g><g id="ah"><use transform="matrix(0.05,0,0,0.05,0,0)" xlink:href="#bX"/><use transform="matrix(0.05,0,0,0.05,10,0)" xlink:href="#aZ"/><use transform="matrix(0.05,0,0,0.05,20,0)" xlink:href="#aY"/><use transform="matrix(0.05,0,0,0.05,25,0)" xlink:href="#aY"/><use transform="matrix(0.05,0,0,0.05,30,0)" xlink:href="#aT"/><use transform="matrix(0.05,0,0,0.05,40,0)" xlink:href="#aS"/><use transform="matrix(0.05,0,0,0.05,45.95,0)" xlink:href="#aU"/><use transform="matrix(0.05,0,0,0.05,55.95,0)" xlink:href="#bC"/></g><g id="ai"><use transform="matrix(0.05,0,0,0.05,0,0)" xlink:href="#bY"/><use transform="matrix(0.05,0,0,0.05,10,0)" xlink:href="#aT"/><use transform="matrix(0.05,0,0,0.05,20,0)" xlink:href="#cm"/><use transform="matrix(0.05,0,0,0.05,23.95,0)" xlink:href="#bX"/><use transform="matrix(0.05,0,0,0.05,33.95,0)" xlink:href="#aT"/><use transform="matrix(0.05,0,0,0.05,43.95,0)" xlink:href="#aS"/><use transform="matrix(0.05,0,0,0.05,49.900000000000006,0)" xlink:href="#bC"/></g><g id="aj"><use transform="matrix(0.05,0,0,0.05,0,0)" xlink:href="#bd"/><use transform="matrix(0.05,0,0,0.05,12.950000000000001,0)" xlink:href="#bU"/><use transform="matrix(0.05,0,0,0.05,22.950000000000003,0)" xlink:href="#cm"/><use transform="matrix(0.05,0,0,0.05,26.900000000000002,0)" xlink:href="#aT"/></g><g id="ak"><use transform="matrix(0.05,0,0,0.05,0,0)" xlink:href="#bD"/><use transform="matrix(0.05,0,0,0.05,12,0)" xlink:href="#aZ"/><use transform="matrix(0.05,0,0,0.05,22,0)" xlink:href="#aY"/><use transform="matrix(0.05,0,0,0.05,27,0)" xlink:href="#aY"/><use transform="matrix(0.05,0,0,0.05,32,0)" xlink:href="#aT"/><use transform="matrix(0.05,0,0,0.05,42,0)" xlink:href="#aS"/><use transform="matrix(0.05,0,0,0.05,47.95,0)" xlink:href="#aU"/></g><g id="al"><use transform="matrix(0.05,0,0,0.05,0,0)" xlink:href="#ct"/><use transform="matrix(0.05,0,0,0.05,12.950000000000001,0)" xlink:href="#bc"/><use transform="matrix(0.05,0,0,0.05,22.950000000000003,0)" xlink:href="#aU"/><use transform="matrix(0.05,0,0,0.05,32.95,0)" xlink:href="#bC"/><use transform="matrix(0.05,0,0,0.05,41.95,0)" xlink:href="#aY"/><use transform="matrix(0.05,0,0,0.05,46.95,0)" xlink:href="#aS"/><use transform="matrix(0.05,0,0,0.05,52.900000000000006,0)" xlink:href="#aZ"/><use transform="matrix(0.05,0,0,0.05,62.900000000000006,0)" xlink:href="#bB"/><use transform="matrix(0.05,0,0,0.05,66.85000000000001,0)" xlink:href="#aU"/><use transform="matrix(0.05,0,0,0.05,76.85000000000001,0)" xlink:href="#aY"/></g><g id="am"><use transform="matrix(0.05,0,0,0.05,0,0)" xlink:href="#bb"/><use transform="matrix(0.05,0,0,0.05,9,0)" xlink:href="#bc"/><use transform="matrix(0.05,0,0,0.05,19,0)" xlink:href="#aU"/><use transform="matrix(0.05,0,0,0.05,29,0)" xlink:href="#bC"/><use transform="matrix(0.05,0,0,0.05,38,0)" xlink:href="#aY"/><use transform="matrix(0.05,0,0,0.05,43,0)" xlink:href="#aS"/><use transform="matrix(0.05,0,0,0.05,48.95,0)" xlink:href="#aZ"/><use transform="matrix(0.05,0,0,0.05,58.95,0)" xlink:href="#bB"/><use transform="matrix(0.05,0,0,0.05,62.900000000000006,0)" xlink:href="#aU"/><use transform="matrix(0.05,0,0,0.05,72.9,0)" xlink:href="#aY"/><use transform="matrix(0.05,0,0,0.05,77.9,0)" xlink:href="#bC"/></g><g id="an"><use transform="matrix(0.05,0,0,0.05,0,0)" xlink:href="#aS"/><use transform="matrix(0.05,0,0,0.05,5.95,0)" xlink:href="#bU"/><use transform="matrix(0.05,0,0,0.05,15.949999999999998,0)" xlink:href="#cm"/><use transform="matrix(0.05,0,0,0.05,19.9,0)" xlink:href="#aT"/><use transform="matrix(0.05,0,0,0.05,29.899999999999995,0)" xlink:href="#bC"/></g><path fill="#333" d="M240 0l2-218c-23 76-54 145-80 218h-23L58-218 59 0H30v-248h44l77 211c21-75 51-140 76-211h43V0h-30" id="cF"/><g id="ao"><use transform="matrix(0.05,0,0,0.05,0,0)" xlink:href="#az"/><use transform="matrix(0.05,0,0,0.05,12.950000000000001,0)" xlink:href="#aA"/><use transform="matrix(0.05,0,0,0.05,22.950000000000003,0)" xlink:href="#aM"/><use transform="matrix(0.05,0,0,0.05,32.95,0)" xlink:href="#aC"/><use transform="matrix(0.05,0,0,0.05,41.95,0)" xlink:href="#aK"/><use transform="matrix(0.05,0,0,0.05,47.900000000000006,0)" xlink:href="#bL"/><use transform="matrix(0.05,0,0,0.05,57.900000000000006,0)" xlink:href="#aH"/><use transform="matrix(0.05,0,0,0.05,62.900000000000006,0)" xlink:href="#bL"/><use transform="matrix(0.05,0,0,0.05,72.9,0)" xlink:href="#aP"/><use transform="matrix(0.05,0,0,0.05,84.9,0)" xlink:href="#aQ"/><use transform="matrix(0.05,0,0,0.05,93.9,0)" xlink:href="#aM"/><use transform="matrix(0.05,0,0,0.05,103.9,0)" xlink:href="#aH"/><use transform="matrix(0.05,0,0,0.05,108.9,0)" xlink:href="#aL"/><use transform="matrix(0.05,0,0,0.05,118.9,0)" xlink:href="#aR"/><use transform="matrix(0.05,0,0,0.05,127.9,0)" xlink:href="#cF"/><use transform="matrix(0.05,0,0,0.05,142.85,0)" xlink:href="#cF"/></g><g id="ap"><use transform="matrix(0.05,0,0,0.05,0,0)" xlink:href="#ci"/><use transform="matrix(0.05,0,0,0.05,12,0)" xlink:href="#cg"/><use transform="matrix(0.05,0,0,0.05,15.949999999999998,0)" xlink:href="#cB"/><use transform="matrix(0.05,0,0,0.05,25.950000000000003,0)" xlink:href="#ck"/><use transform="matrix(0.05,0,0,0.05,35.95,0)" xlink:href="#bk"/><use transform="matrix(0.05,0,0,0.05,39.900000000000006,0)" xlink:href="#bt"/></g><g id="aq"><use transform="matrix(0.05,0,0,0.05,0,0)" xlink:href="#bX"/><use transform="matrix(0.05,0,0,0.05,10,0)" xlink:href="#cm"/><use transform="matrix(0.05,0,0,0.05,13.949999999999998,0)" xlink:href="#bU"/><use transform="matrix(0.05,0,0,0.05,23.95,0)" xlink:href="#cs"/><use transform="matrix(0.05,0,0,0.05,33.95,0)" xlink:href="#bB"/><use transform="matrix(0.05,0,0,0.05,37.900000000000006,0)" xlink:href="#aU"/><use transform="matrix(0.05,0,0,0.05,47.900000000000006,0)" xlink:href="#bC"/></g><g id="ar"><use transform="matrix(0.05,0,0,0.05,0,0)" xlink:href="#bJ"/><use transform="matrix(0.05,0,0,0.05,12.950000000000001,0)" xlink:href="#bB"/><use transform="matrix(0.05,0,0,0.05,16.900000000000002,0)" xlink:href="#bC"/><use transform="matrix(0.05,0,0,0.05,25.900000000000002,0)" xlink:href="#bX"/><use transform="matrix(0.05,0,0,0.05,35.900000000000006,0)" xlink:href="#cm"/><use transform="matrix(0.05,0,0,0.05,39.85000000000001,0)" xlink:href="#aZ"/><use transform="matrix(0.05,0,0,0.05,49.85000000000001,0)" xlink:href="#aX"/><use transform="matrix(0.05,0,0,0.05,58.85,0)" xlink:href="#be"/><use transform="matrix(0.05,0,0,0.05,73.80000000000001,0)" xlink:href="#aZ"/><use transform="matrix(0.05,0,0,0.05,83.80000000000001,0)" xlink:href="#aU"/><use transform="matrix(0.05,0,0,0.05,93.80000000000001,0)" xlink:href="#aZ"/><use transform="matrix(0.05,0,0,0.05,103.80000000000001,0)" xlink:href="#cs"/><use transform="matrix(0.05,0,0,0.05,113.80000000000001,0)" xlink:href="#aT"/><use transform="matrix(0.05,0,0,0.05,123.80000000000001,0)" xlink:href="#aS"/></g><g id="as"><use transform="matrix(0.05,0,0,0.05,0,0)" xlink:href="#bv"/><use transform="matrix(0.05,0,0,0.05,5,0)" xlink:href="#cq"/><use transform="matrix(0.05,0,0,0.05,15,0)" xlink:href="#bx"/><use transform="matrix(0.05,0,0,0.05,20,0)" xlink:href="#bx"/><use transform="matrix(0.05,0,0,0.05,25,0)" xlink:href="#bw"/><use transform="matrix(0.05,0,0,0.05,35,0)" xlink:href="#bz"/></g><g id="at"><use transform="matrix(0.05,0,0,0.05,0,0)" xlink:href="#bX"/><use transform="matrix(0.05,0,0,0.05,10,0)" xlink:href="#aZ"/><use transform="matrix(0.05,0,0,0.05,20,0)" xlink:href="#aY"/><use transform="matrix(0.05,0,0,0.05,25,0)" xlink:href="#aY"/><use transform="matrix(0.05,0,0,0.05,30,0)" xlink:href="#aT"/><use transform="matrix(0.05,0,0,0.05,40,0)" xlink:href="#aS"/><use transform="matrix(0.05,0,0,0.05,45.95,0)" xlink:href="#aU"/></g><g id="au"><use transform="matrix(0.05,0,0,0.05,0,0)" xlink:href="#ct"/><use transform="matrix(0.05,0,0,0.05,12.950000000000001,0)" xlink:href="#bc"/><use transform="matrix(0.05,0,0,0.05,22.950000000000003,0)" xlink:href="#aU"/><use transform="matrix(0.05,0,0,0.05,32.95,0)" xlink:href="#aU"/><use transform="matrix(0.05,0,0,0.05,42.95,0)" xlink:href="#aT"/><use transform="matrix(0.05,0,0,0.05,52.95,0)" xlink:href="#bb"/><use transform="matrix(0.05,0,0,0.05,61.95,0)" xlink:href="#aY"/><use transform="matrix(0.05,0,0,0.05,66.95,0)" xlink:href="#bB"/><use transform="matrix(0.05,0,0,0.05,70.9,0)" xlink:href="#bc"/><use transform="matrix(0.05,0,0,0.05,80.9,0)" xlink:href="#aU"/><use transform="matrix(0.05,0,0,0.05,90.9,0)" xlink:href="#bD"/><use transform="matrix(0.05,0,0,0.05,102.9,0)" xlink:href="#cm"/><use transform="matrix(0.05,0,0,0.05,106.85000000000001,0)" xlink:href="#bU"/><use transform="matrix(0.05,0,0,0.05,116.85000000000001,0)" xlink:href="#cs"/><use transform="matrix(0.05,0,0,0.05,126.85000000000001,0)" xlink:href="#bB"/><use transform="matrix(0.05,0,0,0.05,130.8,0)" xlink:href="#aU"/></g><g id="av"><use transform="matrix(0.05,0,0,0.05,0,0)" xlink:href="#co"/><use transform="matrix(0.05,0,0,0.05,10,0)" xlink:href="#aZ"/><use transform="matrix(0.05,0,0,0.05,20,0)" xlink:href="#bH"/><use transform="matrix(0.05,0,0,0.05,30,0)" xlink:href="#aT"/><use transform="matrix(0.05,0,0,0.05,40,0)" xlink:href="#cm"/><use transform="matrix(0.05,0,0,0.05,43.95,0)" xlink:href="#bD"/><use transform="matrix(0.05,0,0,0.05,55.95,0)" xlink:href="#cm"/><use transform="matrix(0.05,0,0,0.05,59.900000000000006,0)" xlink:href="#bU"/><use transform="matrix(0.05,0,0,0.05,69.9,0)" xlink:href="#cs"/><use transform="matrix(0.05,0,0,0.05,79.9,0)" xlink:href="#bB"/><use transform="matrix(0.05,0,0,0.05,83.85000000000001,0)" xlink:href="#aU"/></g><g id="aw"><use transform="matrix(0.05,0,0,0.05,0,0)" xlink:href="#co"/><use transform="matrix(0.05,0,0,0.05,10,0)" xlink:href="#aZ"/><use transform="matrix(0.05,0,0,0.05,20,0)" xlink:href="#bH"/><use transform="matrix(0.05,0,0,0.05,30,0)" xlink:href="#aT"/><use transform="matrix(0.05,0,0,0.05,40,0)" xlink:href="#cm"/><use transform="matrix(0.05,0,0,0.05,43.95,0)" xlink:href="#ct"/><use transform="matrix(0.05,0,0,0.05,56.900000000000006,0)" xlink:href="#bc"/><use transform="matrix(0.05,0,0,0.05,66.9,0)" xlink:href="#aU"/><use transform="matrix(0.05,0,0,0.05,76.9,0)" xlink:href="#bA"/><use transform="matrix(0.05,0,0,0.05,81.9,0)" xlink:href="#bB"/><use transform="matrix(0.05,0,0,0.05,85.85000000000001,0)" xlink:href="#cs"/></g><g id="ax"><use transform="matrix(0.05,0,0,0.05,0,0)" xlink:href="#bv"/><use transform="matrix(0.05,0,0,0.05,5,0)" xlink:href="#bw"/><use transform="matrix(0.05,0,0,0.05,15,0)" xlink:href="#bx"/><use transform="matrix(0.05,0,0,0.05,20,0)" xlink:href="#bx"/><use transform="matrix(0.05,0,0,0.05,25,0)" xlink:href="#bw"/><use transform="matrix(0.05,0,0,0.05,35,0)" xlink:href="#bz"/></g><g id="ay"><use transform="matrix(0.05,0,0,0.05,0,0)" xlink:href="#bb"/><use transform="matrix(0.05,0,0,0.05,9,0)" xlink:href="#bc"/><use transform="matrix(0.05,0,0,0.05,19,0)" xlink:href="#aU"/><use transform="matrix(0.05,0,0,0.05,29,0)" xlink:href="#bA"/><use transform="matrix(0.05,0,0,0.05,34,0)" xlink:href="#bB"/><use transform="matrix(0.05,0,0,0.05,37.95,0)" xlink:href="#cs"/></g></defs></g></svg>