<svg xmlns="http://www.w3.org/2000/svg" xmlns:xlink="http://www.w3.org/1999/xlink" xmlns:lucid="lucid" width="160" height="120"><g transform="translate(-440 -260)" lucid:page-tab-id="Cwvtkf3PTCTz"><path d="M540 320c0 22.1-17.9 40-40 40s-40-17.9-40-40 17.9-40 40-40 40 17.9 40 40z" stroke="#000" stroke-width="2" fill="#fff"/><path d="M540 300h40v40h-40z" stroke="#000" stroke-opacity="0" stroke-width="2" fill="#fff" fill-opacity="0"/><use xlink:href="#a" transform="matrix(1,0,0,1,545,305) translate(4 18.15)"/><path d="M510 320c0 5.52-4.48 10-10 10s-10-4.48-10-10 4.48-10 10-10 10 4.48 10 10z" stroke="#000" stroke-width="2"/><defs><path d="M30-248c87 1 191-15 191 75 0 78-77 80-158 76V0H30v-248zm33 125c57 0 124 11 124-50 0-59-68-47-124-48v98" id="b"/><path d="M27 0v-27h64v-190l-56 39v-29l58-41h29v221h61V0H27" id="c"/><g id="a"><use transform="matrix(0.05,0,0,0.05,0,0)" xlink:href="#b"/><use transform="matrix(0.05,0,0,0.05,12,0)" xlink:href="#c"/></g></defs></g></svg>