<svg xmlns="http://www.w3.org/2000/svg" xmlns:xlink="http://www.w3.org/1999/xlink" xmlns:lucid="lucid" width="1100" height="246"><g transform="translate(-180 -257)" lucid:page-tab-id="Q4POVygTnGGh"><path d="M1040 331.5h220v97h-220z" stroke="#333" stroke-width="2" fill="#c1e4f7"/><path d="M1040 369.1h220" stroke="#333" stroke-width="2" fill="none"/><use xlink:href="#a" transform="matrix(1,0,0,1,1048,339.5) translate(77.025 14.6)"/><use xlink:href="#b" transform="matrix(1,0,0,1,1052,377.1) translate(0 14.4)"/><use xlink:href="#c" transform="matrix(1,0,0,1,1052,377.1) translate(0 36)"/><path d="M749 331.5h220v97H749z" stroke="#333" stroke-width="2" fill="#c7e8ac"/><use xlink:href="#d" transform="matrix(1,0,0,1,757,339.5) translate(65.57499999999999 44.1)"/><path d="M458 332.5h220v97H458z" stroke="#333" stroke-width="2" fill="#c7e8ac"/><use xlink:href="#e" transform="matrix(1,0,0,1,466,340.5) translate(27.64999999999999 44.1)"/><path d="M200 359h160v44H200z" stroke="#333" stroke-width="2" fill="#ffbbb1"/><use xlink:href="#f" transform="matrix(1,0,0,1,208,367) translate(31.025 17.6)"/><path d="M426.63 381h-49.25" stroke="#333" fill="none"/><path d="M456.3 381l-14.86 14.85L426.3 381l15.14-14.85zM362.62 381l14.26-4.64v9.28z" stroke="#333" fill="#333"/><use xlink:href="#g" transform="matrix(1,0,0,1,364.0155982905982,355.4) translate(0 14.4)"/><use xlink:href="#h" transform="matrix(1,0,0,1,369.3025641025641,385) translate(0 14.4)"/><path d="M747.5 380h-34v1h-18.12" stroke="#333" fill="none"/><path d="M748 380.5h-.5v-1h.5z" fill="#333"/><path d="M680.62 381l14.26-4.64v9.28z" stroke="#333" fill="#333"/><use xlink:href="#i" transform="matrix(1,0,0,1,689.0921825039794,385) translate(0 14.4)"/><use xlink:href="#j" transform="matrix(1,0,0,1,689.0921825039794,385) translate(15 14.4)"/><path d="M970.5 380h68" stroke="#333" fill="none"/><path d="M970.5 380.5h-.5v-1h.5zM1039 380.5h-.5v-1h.5z" fill="#333"/><use xlink:href="#k" transform="matrix(1,0,0,1,975.0525862068965,384.00000000000006) translate(0 14.4)"/><use xlink:href="#l" transform="matrix(1,0,0,1,1022.1827586206896,354.4000000000001) translate(0 14.4)"/><use xlink:href="#m" transform="matrix(1,0,0,1,977.7689655172413,354.4000000000001) translate(0 14.4)"/><use xlink:href="#n" transform="matrix(1,0,0,1,1011.5353448275861,384.00000000000006) translate(0 14.4)"/><path d="M200 277h160v44H200z" stroke="#333" stroke-width="2" fill="#ffbbb1"/><use xlink:href="#o" transform="matrix(1,0,0,1,208,285) translate(30.099999999999994 17.6)"/><path d="M456.5 381H409v-82h-31.62" stroke="#333" fill="none"/><path d="M457 381.5h-.5v-1h.5z" fill="#333"/><path d="M362.62 299l14.26-4.64v9.28z" stroke="#333" fill="#333"/><use xlink:href="#p" transform="matrix(1,0,0,1,374.3432915305531,273.4) translate(0 14.4)"/><use xlink:href="#m" transform="matrix(1,0,0,1,385.9472536145129,303) translate(0 14.4)"/><path d="M200 439h160v44H200z" stroke="#333" stroke-width="2" fill="#ffbbb1"/><use xlink:href="#o" transform="matrix(1,0,0,1,208,447) translate(30.099999999999994 17.6)"/><path d="M456.5 381H409v80h-31.62" stroke="#333" fill="none"/><path d="M457 381.5h-.5v-1h.5z" fill="#333"/><path d="M362.62 461l14.26-4.64v9.28z" stroke="#333" fill="#333"/><use xlink:href="#q" transform="matrix(1,0,0,1,364.11850916173285,464.99999999999994) translate(0.004999999999999005 14.4)"/><g><use xlink:href="#r" transform="matrix(1,0,0,1,372.31675386460665,435.4) translate(0 14.4)"/></g><defs><path d="M33-154v-36h34v36H33zM33 0v-36h34V0H33" id="s"/><path d="M30-248c87 1 191-15 191 75 0 78-77 80-158 76V0H30v-248zm33 125c57 0 124 11 124-50 0-59-68-47-124-48v98" id="t"/><path d="M24 0v-261h32V0H24" id="u"/><path d="M141-36C126-15 110 5 73 4 37 3 15-17 15-53c-1-64 63-63 125-63 3-35-9-54-41-54-24 1-41 7-42 31l-33-3c5-37 33-52 76-52 45 0 72 20 72 64v82c-1 20 7 32 28 27v20c-31 9-61-2-59-35zM48-53c0 20 12 33 32 33 41-3 63-29 60-74-43 2-92-5-92 41" id="v"/><path d="M96-169c-40 0-48 33-48 73s9 75 48 75c24 0 41-14 43-38l32 2c-6 37-31 61-74 61-59 0-76-41-82-99-10-93 101-131 147-64 4 7 5 14 7 22l-32 3c-4-21-16-35-41-35" id="w"/><path d="M100-194c63 0 86 42 84 106H49c0 40 14 67 53 68 26 1 43-12 49-29l28 8c-11 28-37 45-77 45C44 4 14-33 15-96c1-61 26-98 85-98zm52 81c6-60-76-77-97-28-3 7-6 17-6 28h103" id="x"/><g id="a"><use transform="matrix(0.05,0,0,0.05,0,0)" xlink:href="#s"/><use transform="matrix(0.05,0,0,0.05,5,0)" xlink:href="#t"/><use transform="matrix(0.05,0,0,0.05,17,0)" xlink:href="#u"/><use transform="matrix(0.05,0,0,0.05,20.95,0)" xlink:href="#v"/><use transform="matrix(0.05,0,0,0.05,30.950000000000003,0)" xlink:href="#w"/><use transform="matrix(0.05,0,0,0.05,39.95,0)" xlink:href="#x"/></g><path fill="#333" d="M117-194c89-4 53 116 60 194h-32v-121c0-31-8-49-39-48C34-167 62-67 57 0H25l-1-190h30c1 10-1 24 2 32 11-22 29-35 61-36" id="y"/><path fill="#333" d="M141-36C126-15 110 5 73 4 37 3 15-17 15-53c-1-64 63-63 125-63 3-35-9-54-41-54-24 1-41 7-42 31l-33-3c5-37 33-52 76-52 45 0 72 20 72 64v82c-1 20 7 32 28 27v20c-31 9-61-2-59-35zM48-53c0 20 12 33 32 33 41-3 63-29 60-74-43 2-92-5-92 41" id="z"/><path fill="#333" d="M210-169c-67 3-38 105-44 169h-31v-121c0-29-5-50-35-48C34-165 62-65 56 0H25l-1-190h30c1 10-1 24 2 32 10-44 99-50 107 0 11-21 27-35 58-36 85-2 47 119 55 194h-31v-121c0-29-5-49-35-48" id="A"/><path fill="#333" d="M100-194c63 0 86 42 84 106H49c0 40 14 67 53 68 26 1 43-12 49-29l28 8c-11 28-37 45-77 45C44 4 14-33 15-96c1-61 26-98 85-98zm52 81c6-60-76-77-97-28-3 7-6 17-6 28h103" id="B"/><path fill="#333" d="M18-150v-26h174v26H18zm0 90v-26h174v26H18" id="C"/><path fill="#333" d="M30-248c87 1 191-15 191 75 0 78-77 80-158 76V0H30v-248zm33 125c57 0 124 11 124-50 0-59-68-47-124-48v98" id="D"/><path fill="#333" d="M27 0v-27h64v-190l-56 39v-29l58-41h29v221h61V0H27" id="E"/><g id="b"><use transform="matrix(0.05,0,0,0.05,0,0)" xlink:href="#y"/><use transform="matrix(0.05,0,0,0.05,10,0)" xlink:href="#z"/><use transform="matrix(0.05,0,0,0.05,20,0)" xlink:href="#A"/><use transform="matrix(0.05,0,0,0.05,34.95,0)" xlink:href="#B"/><use transform="matrix(0.05,0,0,0.05,44.95,0)" xlink:href="#C"/><use transform="matrix(0.05,0,0,0.05,55.45,0)" xlink:href="#D"/><use transform="matrix(0.05,0,0,0.05,67.45,0)" xlink:href="#E"/></g><path fill="#333" d="M59-47c-2 24 18 29 38 22v24C64 9 27 4 27-40v-127H5v-23h24l9-43h21v43h35v23H59v120" id="F"/><path fill="#333" d="M100-194c62-1 85 37 85 99 1 63-27 99-86 99S16-35 15-95c0-66 28-99 85-99zM99-20c44 1 53-31 53-75 0-43-8-75-51-75s-53 32-53 75 10 74 51 75" id="G"/><path fill="#333" d="M143 0L79-87 56-68V0H24v-261h32v163l83-92h37l-77 82L181 0h-38" id="H"/><path fill="#333" d="M135-143c-3-34-86-38-87 0 15 53 115 12 119 90S17 21 10-45l28-5c4 36 97 45 98 0-10-56-113-15-118-90-4-57 82-63 122-42 12 7 21 19 24 35" id="I"/><g id="c"><use transform="matrix(0.05,0,0,0.05,0,0)" xlink:href="#F"/><use transform="matrix(0.05,0,0,0.05,5,0)" xlink:href="#G"/><use transform="matrix(0.05,0,0,0.05,15,0)" xlink:href="#H"/><use transform="matrix(0.05,0,0,0.05,24,0)" xlink:href="#B"/><use transform="matrix(0.05,0,0,0.05,34,0)" xlink:href="#y"/><use transform="matrix(0.05,0,0,0.05,44,0)" xlink:href="#I"/><use transform="matrix(0.05,0,0,0.05,53,0)" xlink:href="#C"/><use transform="matrix(0.05,0,0,0.05,63.5,0)" xlink:href="#E"/></g><path d="M30-248c118-7 216 8 213 122C240-48 200 0 122 0H30v-248zM63-27c89 8 146-16 146-99s-60-101-146-95v194" id="J"/><path d="M240 0l2-218c-23 76-54 145-80 218h-23L58-218 59 0H30v-248h44l77 211c21-75 51-140 76-211h43V0h-30" id="K"/><g id="d"><use transform="matrix(0.05,0,0,0.05,0,0)" xlink:href="#t"/><use transform="matrix(0.05,0,0,0.05,12,0)" xlink:href="#u"/><use transform="matrix(0.05,0,0,0.05,15.949999999999998,0)" xlink:href="#v"/><use transform="matrix(0.05,0,0,0.05,25.950000000000003,0)" xlink:href="#w"/><use transform="matrix(0.05,0,0,0.05,34.95,0)" xlink:href="#x"/><use transform="matrix(0.05,0,0,0.05,44.95,0)" xlink:href="#J"/><use transform="matrix(0.05,0,0,0.05,57.900000000000006,0)" xlink:href="#K"/></g><path d="M24-231v-30h32v30H24zM24 0v-190h32V0H24" id="L"/><path d="M135-143c-3-34-86-38-87 0 15 53 115 12 119 90S17 21 10-45l28-5c4 36 97 45 98 0-10-56-113-15-118-90-4-57 82-63 122-42 12 7 21 19 24 35" id="M"/><path d="M115-194c55 1 70 41 70 98S169 2 115 4C84 4 66-9 55-30l1 105H24l-1-265h31l2 30c10-21 28-34 59-34zm-8 174c40 0 45-34 45-75s-6-73-45-74c-42 0-51 32-51 76 0 43 10 73 51 73" id="N"/><path d="M179-190L93 31C79 59 56 82 12 73V49c39 6 53-20 64-50L1-190h34L92-34l54-156h33" id="O"/><path d="M212-179c-10-28-35-45-73-45-59 0-87 40-87 99 0 60 29 101 89 101 43 0 62-24 78-52l27 14C228-24 195 4 139 4 59 4 22-46 18-125c-6-104 99-153 187-111 19 9 31 26 39 46" id="P"/><g id="e"><use transform="matrix(0.05,0,0,0.05,0,0)" xlink:href="#t"/><use transform="matrix(0.05,0,0,0.05,12,0)" xlink:href="#u"/><use transform="matrix(0.05,0,0,0.05,15.949999999999998,0)" xlink:href="#v"/><use transform="matrix(0.05,0,0,0.05,25.950000000000003,0)" xlink:href="#w"/><use transform="matrix(0.05,0,0,0.05,34.95,0)" xlink:href="#x"/><use transform="matrix(0.05,0,0,0.05,44.95,0)" xlink:href="#J"/><use transform="matrix(0.05,0,0,0.05,57.900000000000006,0)" xlink:href="#L"/><use transform="matrix(0.05,0,0,0.05,61.85,0)" xlink:href="#M"/><use transform="matrix(0.05,0,0,0.05,70.85000000000001,0)" xlink:href="#N"/><use transform="matrix(0.05,0,0,0.05,80.85000000000001,0)" xlink:href="#u"/><use transform="matrix(0.05,0,0,0.05,84.80000000000001,0)" xlink:href="#v"/><use transform="matrix(0.05,0,0,0.05,94.80000000000001,0)" xlink:href="#O"/><use transform="matrix(0.05,0,0,0.05,103.80000000000001,0)" xlink:href="#P"/><use transform="matrix(0.05,0,0,0.05,116.75,0)" xlink:href="#u"/><use transform="matrix(0.05,0,0,0.05,120.7,0)" xlink:href="#v"/><use transform="matrix(0.05,0,0,0.05,130.70000000000002,0)" xlink:href="#M"/><use transform="matrix(0.05,0,0,0.05,139.70000000000002,0)" xlink:href="#M"/></g><path d="M185-189c-5-48-123-54-124 2 14 75 158 14 163 119 3 78-121 87-175 55-17-10-28-26-33-46l33-7c5 56 141 63 141-1 0-78-155-14-162-118-5-82 145-84 179-34 5 7 8 16 11 25" id="Q"/><path d="M137 0h-34L2-248h35l83 218 83-218h36" id="R"/><path d="M143 4C61 4 22-44 18-125c-5-107 100-154 193-111 17 8 29 25 37 43l-32 9c-13-25-37-40-76-40-61 0-88 39-88 99 0 61 29 100 91 101 35 0 62-11 79-27v-45h-74v-28h105v86C228-13 192 4 143 4" id="S"/><path d="M30 0v-248h33v221h125V0H30" id="T"/><path d="M115-194c53 0 69 39 70 98 0 66-23 100-70 100C84 3 66-7 56-30L54 0H23l1-261h32v101c10-23 28-34 59-34zm-8 174c40 0 45-34 45-75 0-40-5-75-45-74-42 0-51 32-51 76 0 43 10 73 51 73" id="U"/><g id="f"><use transform="matrix(0.05,0,0,0.05,0,0)" xlink:href="#Q"/><use transform="matrix(0.05,0,0,0.05,12,0)" xlink:href="#R"/><use transform="matrix(0.05,0,0,0.05,24,0)" xlink:href="#S"/><use transform="matrix(0.05,0,0,0.05,38,0)" xlink:href="#T"/><use transform="matrix(0.05,0,0,0.05,48,0)" xlink:href="#v"/><use transform="matrix(0.05,0,0,0.05,58,0)" xlink:href="#U"/><use transform="matrix(0.05,0,0,0.05,68,0)" xlink:href="#x"/><use transform="matrix(0.05,0,0,0.05,78,0)" xlink:href="#u"/></g><path d="M117-194c89-4 53 116 60 194h-32v-121c0-31-8-49-39-48C34-167 62-67 57 0H25l-1-190h30c1 10-1 24 2 32 11-22 29-35 61-36" id="V"/><path d="M210-169c-67 3-38 105-44 169h-31v-121c0-29-5-50-35-48C34-165 62-65 56 0H25l-1-190h30c1 10-1 24 2 32 10-44 99-50 107 0 11-21 27-35 58-36 85-2 47 119 55 194h-31v-121c0-29-5-49-35-48" id="W"/><g id="g"><use transform="matrix(0.05,0,0,0.05,0,0)" xlink:href="#V"/><use transform="matrix(0.05,0,0,0.05,10,0)" xlink:href="#v"/><use transform="matrix(0.05,0,0,0.05,20,0)" xlink:href="#W"/><use transform="matrix(0.05,0,0,0.05,34.95,0)" xlink:href="#x"/></g><path d="M101-251c68 0 85 55 85 127S166 4 100 4C33 4 14-52 14-124c0-73 17-127 87-127zm-1 229c47 0 54-49 54-102s-4-102-53-102c-51 0-55 48-55 102 0 53 5 102 54 102" id="X"/><path d="M33 0v-38h34V0H33" id="Y"/><path d="M27 0v-27h64v-190l-56 39v-29l58-41h29v221h61V0H27" id="Z"/><g id="h"><use transform="matrix(0.05,0,0,0.05,0,0)" xlink:href="#X"/><use transform="matrix(0.05,0,0,0.05,10,0)" xlink:href="#Y"/><use transform="matrix(0.05,0,0,0.05,15,0)" xlink:href="#Y"/><use transform="matrix(0.05,0,0,0.05,20,0)" xlink:href="#Z"/></g><use transform="matrix(0.05,0,0,0.05,0,0)" xlink:href="#Z" id="i"/><path d="M108 0H70L1-190h34L89-25l56-165h34" id="aa"/><path d="M100-194c62-1 85 37 85 99 1 63-27 99-86 99S16-35 15-95c0-66 28-99 85-99zM99-20c44 1 53-31 53-75 0-43-8-75-51-75s-53 32-53 75 10 74 51 75" id="ab"/><g id="j"><use transform="matrix(0.05,0,0,0.05,0,0)" xlink:href="#aa"/><use transform="matrix(0.05,0,0,0.05,9,0)" xlink:href="#ab"/></g><path d="M85-194c31 0 48 13 60 33l-1-100h32l1 261h-30c-2-10 0-23-3-31C134-8 116 4 85 4 32 4 16-35 15-94c0-66 23-100 70-100zm9 24c-40 0-46 34-46 75 0 40 6 74 45 74 42 0 51-32 51-76 0-42-9-74-50-73" id="ac"/><g id="k"><use transform="matrix(0.05,0,0,0.05,0,0)" xlink:href="#ac"/><use transform="matrix(0.05,0,0,0.05,10,0)" xlink:href="#W"/></g><use transform="matrix(0.05,0,0,0.05,0,0)" xlink:href="#Z" id="l"/><use transform="matrix(0.05,0,0,0.05,0,0)" xlink:href="#Z" id="m"/><g id="n"><use transform="matrix(0.05,0,0,0.05,0,0)" xlink:href="#W"/><use transform="matrix(0.05,0,0,0.05,14.950000000000001,0)" xlink:href="#x"/></g><path d="M114-163C36-179 61-72 57 0H25l-1-190h30c1 12-1 29 2 39 6-27 23-49 58-41v29" id="ad"/><g id="o"><use transform="matrix(0.05,0,0,0.05,0,0)" xlink:href="#Q"/><use transform="matrix(0.05,0,0,0.05,12,0)" xlink:href="#R"/><use transform="matrix(0.05,0,0,0.05,24,0)" xlink:href="#S"/><use transform="matrix(0.05,0,0,0.05,38,0)" xlink:href="#P"/><use transform="matrix(0.05,0,0,0.05,50.95,0)" xlink:href="#L"/><use transform="matrix(0.05,0,0,0.05,54.900000000000006,0)" xlink:href="#ad"/><use transform="matrix(0.05,0,0,0.05,60.85,0)" xlink:href="#w"/><use transform="matrix(0.05,0,0,0.05,69.85000000000001,0)" xlink:href="#u"/><use transform="matrix(0.05,0,0,0.05,73.80000000000001,0)" xlink:href="#x"/></g><g id="p"><use transform="matrix(0.05,0,0,0.05,0,0)" xlink:href="#U"/><use transform="matrix(0.05,0,0,0.05,10,0)" xlink:href="#ab"/><use transform="matrix(0.05,0,0,0.05,20,0)" xlink:href="#ac"/><use transform="matrix(0.05,0,0,0.05,30,0)" xlink:href="#O"/></g><path d="M59-47c-2 24 18 29 38 22v24C64 9 27 4 27-40v-127H5v-23h24l9-43h21v43h35v23H59v120" id="ae"/><path d="M143 0L79-87 56-68V0H24v-261h32v163l83-92h37l-77 82L181 0h-38" id="af"/><g id="q"><use transform="matrix(0.05,0,0,0.05,0,0)" xlink:href="#ae"/><use transform="matrix(0.05,0,0,0.05,5,0)" xlink:href="#ab"/><use transform="matrix(0.05,0,0,0.05,15,0)" xlink:href="#af"/><use transform="matrix(0.05,0,0,0.05,24,0)" xlink:href="#x"/><use transform="matrix(0.05,0,0,0.05,34,0)" xlink:href="#V"/><use transform="matrix(0.05,0,0,0.05,44,0)" xlink:href="#M"/></g><path d="M80-196l47-18 7 23-49 13 32 44-20 13-27-46-27 45-21-12 33-44-49-13 8-23 47 19-2-53h23" id="ag"/><g id="r"><use transform="matrix(0.05,0,0,0.05,0,0)" xlink:href="#X"/><use transform="matrix(0.05,0,0,0.05,10,0)" xlink:href="#Y"/><use transform="matrix(0.05,0,0,0.05,15,0)" xlink:href="#Y"/><use transform="matrix(0.05,0,0,0.05,20,0)" xlink:href="#ag"/></g></defs></g></svg>