<svg xmlns="http://www.w3.org/2000/svg" xmlns:xlink="http://www.w3.org/1999/xlink" xmlns:lucid="lucid" width="1160" height="740"><g transform="translate(140 -180)" lucid:page-tab-id="ijvt~l7z.G3s"><path d="M-120 206c0-3.3 2.7-6 6-6H994c3.3 0 6 2.7 6 6v688c0 3.3-2.7 6-6 6H-114c-3.3 0-6-2.7-6-6z" stroke="#000" stroke-opacity="0" stroke-width="3" fill-opacity="0"/><path d="M559 640l79 37.5-79 37.5-79-37.5z" stroke="#5e5e5e" stroke-width="3" fill="#c7e8ac"/><use xlink:href="#a" transform="matrix(1,0,0,1,485,645) translate(46.893888888888895 36.56597222222222)"/><path d="M642.5 677.5h38" stroke="#5e5e5e" stroke-width="2" fill="none"/><path d="M642.52 678.5h-3.13l2.1-1-2.1-1h3.12z" fill="#5e5e5e"/><path d="M695.76 677.5l-14.26 4.64v-9.28z" stroke="#5e5e5e" stroke-width="2" fill="#5e5e5e"/><path d="M461.5 677.5H420" stroke="#5e5e5e" stroke-width="2" fill="none"/><path d="M476.76 677.5l-14.26 4.64v-9.28z" stroke="#5e5e5e" stroke-width="2" fill="#5e5e5e"/><path d="M420.03 678.5H419v-2h1.03z" fill="#5e5e5e"/><path d="M700 640h220v75H700z" stroke="#333" stroke-width="2" fill="#c1e4f7"/><path d="M700 677.6h220" stroke="#333" stroke-width="2" fill="none"/><use xlink:href="#b" transform="matrix(1,0,0,1,708,648) translate(78.5 14.6)"/><use xlink:href="#c" transform="matrix(1,0,0,1,712,685.6) translate(0 14.4)"/><path d="M218 640h200v75H218z" stroke="#333" stroke-width="2" fill="#ffbbb1"/><path d="M218 677.6h200" stroke="#333" stroke-width="2" fill="none"/><use xlink:href="#d" transform="matrix(1,0,0,1,226,648) translate(32.074999999999996 14.6)"/><use xlink:href="#e" transform="matrix(1,0,0,1,230,685.6) translate(2.3500000000000085 14.6)"/><path d="M99 715l79 37.5L99 790l-79-37.5z" stroke="#5e5e5e" stroke-width="3" fill="#c7e8ac"/><use xlink:href="#f" transform="matrix(1,0,0,1,25,720) translate(36.52351851851853 36.56597222222222)"/><path d="M218 796.66h200v75H218z" stroke="#333" stroke-width="2" fill="#ffbbb1"/><path d="M218 834.26h200" stroke="#333" stroke-width="2" fill="none"/><use xlink:href="#d" transform="matrix(1,0,0,1,226,804.6604156260629) translate(32.074999999999996 14.6)"/><use xlink:href="#g" transform="matrix(1,0,0,1,230,842.2604156260629) translate(4.575000000000003 14.6)"/><path d="M163.3 727.5l52.8-27.7" stroke="#5e5e5e" stroke-width="2" fill="none"/><path d="M149.8 734.58l10.47-10.73 4.3 8.2z" stroke="#5e5e5e" stroke-width="2" fill="#5e5e5e"/><path d="M217 700.46l-.44.23-.93-1.78 1.37-.72z" fill="#5e5e5e"/><path d="M143.52 771.46l57.85 36.64" stroke="#5e5e5e" stroke-width="2" fill="none"/><path d="M144.08 770.63l-1.07 1.7-1.4-.9 2.14-1z" fill="#5e5e5e"/><path d="M214.27 816.26l-14.54-3.7 4.96-7.85z" stroke="#5e5e5e" stroke-width="2" fill="#5e5e5e"/><path d="M559 796.66l79 37.5-79 37.5-79-37.5z" stroke="#5e5e5e" stroke-width="3" fill="#c7e8ac"/><use xlink:href="#h" transform="matrix(1,0,0,1,485,801.6604156260629) translate(48.8691975308642 36.56597222222222)"/><path d="M458 834.16h-38" stroke="#5e5e5e" stroke-width="2" fill="none"/><path d="M473.27 834.16L459 838.8v-9.27z" stroke="#5e5e5e" stroke-width="2" fill="#5e5e5e"/><path d="M420.03 835.16H419v-2h1.03z" fill="#5e5e5e"/><path d="M615.5 820.77l91.68-91.7" stroke="#5e5e5e" stroke-width="2" fill="none"/><path d="M616.22 821.46l-.48.48-1.9-.9.96-1z" fill="#5e5e5e"/><path d="M717.98 718.3l-6.8 13.35-6.57-6.55z" stroke="#5e5e5e" stroke-width="2" fill="#5e5e5e"/><path d="M218 483.34h200v75H218z" stroke="#333" stroke-width="2" fill="#ffbbb1"/><path d="M218 520.94h200" stroke="#333" stroke-width="2" fill="none"/><use xlink:href="#d" transform="matrix(1,0,0,1,226,491.3395843739371) translate(32.074999999999996 14.6)"/><use xlink:href="#i" transform="matrix(1,0,0,1,230,528.9395843739371) translate(30.324999999999996 14.6)"/><path d="M218 320h200v75H218z" stroke="#333" stroke-width="2" fill="#ffbbb1"/><path d="M218 357.6h200" stroke="#333" stroke-width="2" fill="none"/><use xlink:href="#d" transform="matrix(1,0,0,1,226,328) translate(32.074999999999996 14.6)"/><use xlink:href="#j" transform="matrix(1,0,0,1,230,365.6) translate(24.39999999999999 14.6)"/><path d="M700 483.34h220v75H700z" stroke="#333" stroke-width="2" fill="#c1e4f7"/><path d="M700 520.94h220" stroke="#333" stroke-width="2" fill="none"/><use xlink:href="#k" transform="matrix(1,0,0,1,708,491.3395843739371) translate(60.425 14.6)"/><path d="M559 483.34l79 37.5-79 37.5-79-37.5z" stroke="#5e5e5e" stroke-width="3" fill="#c7e8ac"/><use xlink:href="#l" transform="matrix(1,0,0,1,485,488.3395843739371) translate(53.98030864197531 36.56597222222222)"/><path d="M458 520.84h-38" stroke="#5e5e5e" stroke-width="2" fill="none"/><path d="M473.27 520.84L459 525.47v-9.27z" stroke="#5e5e5e" stroke-width="2" fill="#5e5e5e"/><path d="M420.03 521.84H419v-2h1.03z" fill="#5e5e5e"/><path d="M642.5 520.84h38" stroke="#5e5e5e" stroke-width="2" fill="none"/><path d="M642.52 521.84h-3.13l2.1-1-2.1-1h3.12z" fill="#5e5e5e"/><path d="M695.76 520.84l-14.26 4.63v-9.27z" stroke="#5e5e5e" stroke-width="2" fill="#5e5e5e"/><path d="M700 320h220v75H700z" stroke="#333" stroke-width="2" fill="#c1e4f7"/><path d="M700 357.6h220" stroke="#333" stroke-width="2" fill="none"/><use xlink:href="#m" transform="matrix(1,0,0,1,708,328) translate(48 14.6)"/><use xlink:href="#n" transform="matrix(1,0,0,1,712,365.6) translate(0 14.4)"/><path d="M810 397v84.34" stroke="#5e5e5e" stroke-width="2" fill="none"/><path d="M811 397.03h-2V396h2zM811 482.34h-2v-1.03h2z" fill="#5e5e5e"/><use xlink:href="#o" transform="matrix(1,0,0,1,818,402.6666666666669) translate(0 14.222222222222223)"/><path d="M810 560.34V638" stroke="#5e5e5e" stroke-width="2" fill="none"/><path d="M811 560.37h-2v-1.03h2zM811 639h-2v-1.03h2z" fill="#5e5e5e"/><use xlink:href="#p" transform="matrix(1,0,0,1,818,610.6666666666671) translate(0 14.222222222222223)"/><path d="M559 320l79 37.5-79 37.5-79-37.5z" stroke="#5e5e5e" stroke-width="3" fill="#c7e8ac"/><use xlink:href="#q" transform="matrix(1,0,0,1,485,325) translate(47.363024691358035 36.56597222222222)"/><path d="M458 357.5h-38" stroke="#5e5e5e" stroke-width="2" fill="none"/><path d="M473.27 357.5L459 362.14v-9.28z" stroke="#5e5e5e" stroke-width="2" fill="#5e5e5e"/><path d="M420.03 358.5H419v-2h1.03z" fill="#5e5e5e"/><path d="M642.5 357.5h38" stroke="#5e5e5e" stroke-width="2" fill="none"/><path d="M642.52 358.5h-3.13l2.1-1-2.1-1h3.12z" fill="#5e5e5e"/><path d="M695.76 357.5l-14.26 4.64v-9.28z" stroke="#5e5e5e" stroke-width="2" fill="#5e5e5e"/><path d="M99 555.67l79 37.5-79 37.5-79-37.5z" stroke="#5e5e5e" stroke-width="3" fill="#c7e8ac"/><use xlink:href="#r" transform="matrix(1,0,0,1,25,560.6729177072704) translate(10.83950617283952 36.05555555555556)"/><path d="M158.2 566.5l57.9-26.1" stroke="#5e5e5e" stroke-width="2" fill="none"/><path d="M144.27 572.77l11.1-10.08 3.8 8.44z" stroke="#5e5e5e" stroke-width="2" fill="#5e5e5e"/><path d="M216.06 540.42l.94-.42M143.52 612.14l57.85 36.63" stroke="#5e5e5e" stroke-width="2" fill="none"/><path d="M144.08 611.3L143 613l-1.4-.9 2.14-1z" fill="#5e5e5e"/><path d="M214.27 656.94l-14.54-3.72 4.96-7.83z" stroke="#5e5e5e" stroke-width="2" fill="#5e5e5e"/><path d="M99 395.67l79 37.5-79 37.5-79-37.5z" stroke="#5e5e5e" stroke-width="3" fill="#c7e8ac"/><use xlink:href="#r" transform="matrix(1,0,0,1,25,400.67291770727036) translate(10.83950617283952 36.05555555555556)"/><path d="M142.23 413.7l57.9-26.1" stroke="#5e5e5e" stroke-width="2" fill="none"/><path d="M142.67 414.6l-.16.06-2.36-1.12 1.7-.77z" fill="#5e5e5e"/><path d="M214.05 381.33l-11.1 10.1-3.8-8.47z" stroke="#5e5e5e" stroke-width="2" fill="#5e5e5e"/><path d="M158.3 461.5l57.86 36.63" stroke="#5e5e5e" stroke-width="2" fill="none"/><path d="M145.4 453.33l14.54 3.72-4.96 7.83z" stroke="#5e5e5e" stroke-width="2" fill="#5e5e5e"/><path d="M216.13 498.12l.87.55" stroke="#5e5e5e" stroke-width="2" fill="none"/><path d="M-100 220h200v75h-200z" stroke="#333" stroke-width="2" fill="#ffbbb1"/><path d="M-100 257.6h200" stroke="#333" stroke-width="2" fill="none"/><use xlink:href="#s" transform="matrix(1,0,0,1,-92,228) translate(28.64999999999999 14.6)"/><use xlink:href="#t" transform="matrix(1,0,0,1,-88,265.6) translate(52.35 14.6)"/><path d="M219 220l79 37.5-79 37.5-79-37.5z" stroke="#5e5e5e" stroke-width="3" fill="#ffbbb1"/><use xlink:href="#u" transform="matrix(1,0,0,1,145,225) translate(20.770432098765436 34.23222222222222)"/><path d="M118 257.5h-16" stroke="#5e5e5e" stroke-width="2" fill="none"/><path d="M133.27 257.5L119 262.14v-9.28z" stroke="#5e5e5e" stroke-width="2" fill="#5e5e5e"/><path d="M102.03 258.5H101v-2h1.03z" fill="#5e5e5e"/><path d="M260.23 278.2l11.88 24.2" stroke="#5e5e5e" stroke-width="2" fill="none"/><path d="M261.14 277.78l-1.8.88-.45-.94 1.8-.85z" fill="#5e5e5e"/><path d="M278.84 316.1l-10.45-10.77 8.32-4.08z" stroke="#5e5e5e" stroke-width="2" fill="#5e5e5e"/><defs><path fill="#333" d="M33-154v-36h34v36H33zM33 0v-36h34V0H33" id="v"/><path fill="#333" d="M233-177c-1 41-23 64-60 70L243 0h-38l-65-103H63V0H30v-248c88 3 205-21 203 71zM63-129c60-2 137 13 137-47 0-61-80-42-137-45v92" id="w"/><path fill="#333" d="M185-189c-5-48-123-54-124 2 14 75 158 14 163 119 3 78-121 87-175 55-17-10-28-26-33-46l33-7c5 56 141 63 141-1 0-78-155-14-162-118-5-82 145-84 179-34 5 7 8 16 11 25" id="x"/><path fill="#333" d="M197 0v-115H63V0H30v-248h33v105h134v-105h34V0h-34" id="y"/><path fill="#333" d="M30 0v-248h187v28H63v79h144v27H63v87h162V0H30" id="z"/><g id="a"><use transform="matrix(0.049382716049382706,0,0,0.049382716049382706,0,0)" xlink:href="#v"/><use transform="matrix(0.049382716049382706,0,0,0.049382716049382706,4.93827160493827,0)" xlink:href="#w"/><use transform="matrix(0.049382716049382706,0,0,0.049382716049382706,17.728395061728392,0)" xlink:href="#x"/><use transform="matrix(0.049382716049382706,0,0,0.049382716049382706,29.58024691358024,0)" xlink:href="#y"/><use transform="matrix(0.049382716049382706,0,0,0.049382716049382706,42.37037037037036,0)" xlink:href="#z"/></g><path d="M33-154v-36h34v36H33zM33 0v-36h34V0H33" id="A"/><path d="M185-189c-5-48-123-54-124 2 14 75 158 14 163 119 3 78-121 87-175 55-17-10-28-26-33-46l33-7c5 56 141 63 141-1 0-78-155-14-162-118-5-82 145-84 179-34 5 7 8 16 11 25" id="B"/><path d="M59-47c-2 24 18 29 38 22v24C64 9 27 4 27-40v-127H5v-23h24l9-43h21v43h35v23H59v120" id="C"/><path d="M141-36C126-15 110 5 73 4 37 3 15-17 15-53c-1-64 63-63 125-63 3-35-9-54-41-54-24 1-41 7-42 31l-33-3c5-37 33-52 76-52 45 0 72 20 72 64v82c-1 20 7 32 28 27v20c-31 9-61-2-59-35zM48-53c0 20 12 33 32 33 41-3 63-29 60-74-43 2-92-5-92 41" id="D"/><path d="M100-194c63 0 86 42 84 106H49c0 40 14 67 53 68 26 1 43-12 49-29l28 8c-11 28-37 45-77 45C44 4 14-33 15-96c1-61 26-98 85-98zm52 81c6-60-76-77-97-28-3 7-6 17-6 28h103" id="E"/><g id="b"><use transform="matrix(0.05,0,0,0.05,0,0)" xlink:href="#A"/><use transform="matrix(0.05,0,0,0.05,5,0)" xlink:href="#B"/><use transform="matrix(0.05,0,0,0.05,17,0)" xlink:href="#C"/><use transform="matrix(0.05,0,0,0.05,22,0)" xlink:href="#D"/><use transform="matrix(0.05,0,0,0.05,32,0)" xlink:href="#C"/><use transform="matrix(0.05,0,0,0.05,37,0)" xlink:href="#E"/></g><path fill="#333" d="M117-194c89-4 53 116 60 194h-32v-121c0-31-8-49-39-48C34-167 62-67 57 0H25l-1-190h30c1 10-1 24 2 32 11-22 29-35 61-36" id="F"/><path fill="#333" d="M141-36C126-15 110 5 73 4 37 3 15-17 15-53c-1-64 63-63 125-63 3-35-9-54-41-54-24 1-41 7-42 31l-33-3c5-37 33-52 76-52 45 0 72 20 72 64v82c-1 20 7 32 28 27v20c-31 9-61-2-59-35zM48-53c0 20 12 33 32 33 41-3 63-29 60-74-43 2-92-5-92 41" id="G"/><path fill="#333" d="M210-169c-67 3-38 105-44 169h-31v-121c0-29-5-50-35-48C34-165 62-65 56 0H25l-1-190h30c1 10-1 24 2 32 10-44 99-50 107 0 11-21 27-35 58-36 85-2 47 119 55 194h-31v-121c0-29-5-49-35-48" id="H"/><path fill="#333" d="M100-194c63 0 86 42 84 106H49c0 40 14 67 53 68 26 1 43-12 49-29l28 8c-11 28-37 45-77 45C44 4 14-33 15-96c1-61 26-98 85-98zm52 81c6-60-76-77-97-28-3 7-6 17-6 28h103" id="I"/><path fill="#333" d="M18-150v-26h174v26H18zm0 90v-26h174v26H18" id="J"/><path fill="#333" d="M205 0l-28-72H64L36 0H1l101-248h38L239 0h-34zm-38-99l-47-123c-12 45-31 82-46 123h93" id="K"/><g id="c"><use transform="matrix(0.05,0,0,0.05,0,0)" xlink:href="#F"/><use transform="matrix(0.05,0,0,0.05,10,0)" xlink:href="#G"/><use transform="matrix(0.05,0,0,0.05,20,0)" xlink:href="#H"/><use transform="matrix(0.05,0,0,0.05,34.95,0)" xlink:href="#I"/><use transform="matrix(0.05,0,0,0.05,44.95,0)" xlink:href="#J"/><use transform="matrix(0.05,0,0,0.05,55.45,0)" xlink:href="#K"/></g><path d="M143 4C61 4 22-44 18-125c-5-107 100-154 193-111 17 8 29 25 37 43l-32 9c-13-25-37-40-76-40-61 0-88 39-88 99 0 61 29 100 91 101 35 0 62-11 79-27v-45h-74v-28h105v86C228-13 192 4 143 4" id="L"/><path d="M114-163C36-179 61-72 57 0H25l-1-190h30c1 12-1 29 2 39 6-27 23-49 58-41v29" id="M"/><path d="M115-194c55 1 70 41 70 98S169 2 115 4C84 4 66-9 55-30l1 105H24l-1-265h31l2 30c10-21 28-34 59-34zm-8 174c40 0 45-34 45-75s-6-73-45-74c-42 0-51 32-51 76 0 43 10 73 51 73" id="N"/><path d="M106-169C34-169 62-67 57 0H25v-261h32l-1 103c12-21 28-36 61-36 89 0 53 116 60 194h-32v-121c2-32-8-49-39-48" id="O"/><path d="M24-231v-30h32v30H24zM24 0v-190h32V0H24" id="P"/><path d="M96-169c-40 0-48 33-48 73s9 75 48 75c24 0 41-14 43-38l32 2c-6 37-31 61-74 61-59 0-76-41-82-99-10-93 101-131 147-64 4 7 5 14 7 22l-32 3c-4-21-16-35-41-35" id="Q"/><path d="M140-251c81 0 123 46 123 126C263-46 219 4 140 4 59 4 17-45 17-125s42-126 123-126zm0 227c63 0 89-41 89-101s-29-99-89-99c-61 0-89 39-89 99S79-25 140-24" id="R"/><path d="M115-194c53 0 69 39 70 98 0 66-23 100-70 100C84 3 66-7 56-30L54 0H23l1-261h32v101c10-23 28-34 59-34zm-8 174c40 0 45-34 45-75 0-40-5-75-45-74-42 0-51 32-51 76 0 43 10 73 51 73" id="S"/><path d="M24-231v-30h32v30H24zM-9 49c24 4 33-6 33-30v-209h32V24c2 40-23 58-65 49V49" id="T"/><g id="d"><use transform="matrix(0.05,0,0,0.05,0,0)" xlink:href="#A"/><use transform="matrix(0.05,0,0,0.05,5,0)" xlink:href="#L"/><use transform="matrix(0.05,0,0,0.05,19,0)" xlink:href="#M"/><use transform="matrix(0.05,0,0,0.05,24.95,0)" xlink:href="#D"/><use transform="matrix(0.05,0,0,0.05,34.95,0)" xlink:href="#N"/><use transform="matrix(0.05,0,0,0.05,44.95,0)" xlink:href="#O"/><use transform="matrix(0.05,0,0,0.05,54.95,0)" xlink:href="#P"/><use transform="matrix(0.05,0,0,0.05,58.900000000000006,0)" xlink:href="#Q"/><use transform="matrix(0.05,0,0,0.05,67.9,0)" xlink:href="#R"/><use transform="matrix(0.05,0,0,0.05,81.9,0)" xlink:href="#S"/><use transform="matrix(0.05,0,0,0.05,91.9,0)" xlink:href="#T"/><use transform="matrix(0.05,0,0,0.05,95.85000000000001,0)" xlink:href="#E"/><use transform="matrix(0.05,0,0,0.05,105.85000000000001,0)" xlink:href="#Q"/><use transform="matrix(0.05,0,0,0.05,114.85000000000001,0)" xlink:href="#C"/></g><path fill="#333" d="M135-143c-3-34-86-38-87 0 15 53 115 12 119 90S17 21 10-45l28-5c4 36 97 45 98 0-10-56-113-15-118-90-4-57 82-63 122-42 12 7 21 19 24 35" id="U"/><path fill="#333" d="M106-169C34-169 62-67 57 0H25v-261h32l-1 103c12-21 28-36 61-36 89 0 53 116 60 194h-32v-121c2-32-8-49-39-48" id="V"/><path fill="#333" d="M115-194c55 1 70 41 70 98S169 2 115 4C84 4 66-9 55-30l1 105H24l-1-265h31l2 30c10-21 28-34 59-34zm-8 174c40 0 45-34 45-75s-6-73-45-74c-42 0-51 32-51 76 0 43 10 73 51 73" id="W"/><path fill="#333" d="M100-194c62-1 85 37 85 99 1 63-27 99-86 99S16-35 15-95c0-66 28-99 85-99zM99-20c44 1 53-31 53-75 0-43-8-75-51-75s-53 32-53 75 10 74 51 75" id="X"/><path fill="#333" d="M84 4C-5 8 30-112 23-190h32v120c0 31 7 50 39 49 72-2 45-101 50-169h31l1 190h-30c-1-10 1-25-2-33-11 22-28 36-60 37" id="Y"/><path fill="#333" d="M85-194c31 0 48 13 60 33l-1-100h32l1 261h-30c-2-10 0-23-3-31C134-8 116 4 85 4 32 4 16-35 15-94c0-66 23-100 70-100zm9 24c-40 0-46 34-46 75 0 40 6 74 45 74 42 0 51-32 51-76 0-42-9-74-50-73" id="Z"/><path fill="#333" d="M96-169c-40 0-48 33-48 73s9 75 48 75c24 0 41-14 43-38l32 2c-6 37-31 61-74 61-59 0-76-41-82-99-10-93 101-131 147-64 4 7 5 14 7 22l-32 3c-4-21-16-35-41-35" id="aa"/><path fill="#333" d="M59-47c-2 24 18 29 38 22v24C64 9 27 4 27-40v-127H5v-23h24l9-43h21v43h35v23H59v120" id="ab"/><path fill="#333" d="M87 75C49 33 22-17 22-94c0-76 28-126 65-167h31c-38 41-64 92-64 168S80 34 118 75H87" id="ac"/><path fill="#333" d="M33 0v-38h34V0H33" id="ad"/><path fill="#333" d="M33-261c38 41 65 92 65 168S71 34 33 75H2C39 34 66-17 66-93S39-220 2-261h31" id="ae"/><g id="e"><use transform="matrix(0.05,0,0,0.05,0,0)" xlink:href="#U"/><use transform="matrix(0.05,0,0,0.05,9,0)" xlink:href="#V"/><use transform="matrix(0.05,0,0,0.05,19,0)" xlink:href="#G"/><use transform="matrix(0.05,0,0,0.05,29,0)" xlink:href="#W"/><use transform="matrix(0.05,0,0,0.05,39,0)" xlink:href="#I"/><use transform="matrix(0.05,0,0,0.05,49,0)" xlink:href="#J"/><use transform="matrix(0.05,0,0,0.05,59.5,0)" xlink:href="#w"/><use transform="matrix(0.05,0,0,0.05,72.45,0)" xlink:href="#X"/><use transform="matrix(0.05,0,0,0.05,82.45,0)" xlink:href="#Y"/><use transform="matrix(0.05,0,0,0.05,92.45,0)" xlink:href="#F"/><use transform="matrix(0.05,0,0,0.05,102.45,0)" xlink:href="#Z"/><use transform="matrix(0.05,0,0,0.05,112.45,0)" xlink:href="#w"/><use transform="matrix(0.05,0,0,0.05,125.4,0)" xlink:href="#I"/><use transform="matrix(0.05,0,0,0.05,135.4,0)" xlink:href="#aa"/><use transform="matrix(0.05,0,0,0.05,144.4,0)" xlink:href="#ab"/><use transform="matrix(0.05,0,0,0.05,149.4,0)" xlink:href="#ac"/><use transform="matrix(0.05,0,0,0.05,155.35,0)" xlink:href="#ad"/><use transform="matrix(0.05,0,0,0.05,160.35,0)" xlink:href="#ad"/><use transform="matrix(0.05,0,0,0.05,165.35,0)" xlink:href="#ae"/></g><path fill="#333" d="M212-179c-10-28-35-45-73-45-59 0-87 40-87 99 0 60 29 101 89 101 43 0 62-24 78-52l27 14C228-24 195 4 139 4 59 4 22-46 18-125c-6-104 99-153 187-111 19 9 31 26 39 46" id="af"/><path fill="#333" d="M24-231v-30h32v30H24zM24 0v-190h32V0H24" id="ag"/><g id="f"><use transform="matrix(0.049382716049382706,0,0,0.049382716049382706,0,0)" xlink:href="#v"/><use transform="matrix(0.049382716049382706,0,0,0.049382716049382706,4.93827160493827,0)" xlink:href="#af"/><use transform="matrix(0.049382716049382706,0,0,0.049382716049382706,17.728395061728392,0)" xlink:href="#X"/><use transform="matrix(0.049382716049382706,0,0,0.049382716049382706,27.604938271604933,0)" xlink:href="#F"/><use transform="matrix(0.049382716049382706,0,0,0.049382716049382706,37.481481481481474,0)" xlink:href="#ab"/><use transform="matrix(0.049382716049382706,0,0,0.049382716049382706,42.419753086419746,0)" xlink:href="#G"/><use transform="matrix(0.049382716049382706,0,0,0.049382716049382706,52.29629629629628,0)" xlink:href="#ag"/><use transform="matrix(0.049382716049382706,0,0,0.049382716049382706,56.19753086419752,0)" xlink:href="#F"/><use transform="matrix(0.049382716049382706,0,0,0.049382716049382706,66.07407407407406,0)" xlink:href="#U"/></g><path fill="#333" d="M30 0v-248h33v221h125V0H30" id="ah"/><path fill="#333" d="M115-194c53 0 69 39 70 98 0 66-23 100-70 100C84 3 66-7 56-30L54 0H23l1-261h32v101c10-23 28-34 59-34zm-8 174c40 0 45-34 45-75 0-40-5-75-45-74-42 0-51 32-51 76 0 43 10 73 51 73" id="ai"/><path fill="#333" d="M24 0v-261h32V0H24" id="aj"/><path fill="#333" d="M141 0L90-78 38 0H4l68-98-65-92h35l48 74 47-74h35l-64 92 68 98h-35" id="ak"/><g id="g"><use transform="matrix(0.05,0,0,0.05,0,0)" xlink:href="#U"/><use transform="matrix(0.05,0,0,0.05,9,0)" xlink:href="#V"/><use transform="matrix(0.05,0,0,0.05,19,0)" xlink:href="#G"/><use transform="matrix(0.05,0,0,0.05,29,0)" xlink:href="#W"/><use transform="matrix(0.05,0,0,0.05,39,0)" xlink:href="#I"/><use transform="matrix(0.05,0,0,0.05,49,0)" xlink:href="#J"/><use transform="matrix(0.05,0,0,0.05,59.5,0)" xlink:href="#ah"/><use transform="matrix(0.05,0,0,0.05,69.5,0)" xlink:href="#G"/><use transform="matrix(0.05,0,0,0.05,79.5,0)" xlink:href="#ai"/><use transform="matrix(0.05,0,0,0.05,89.5,0)" xlink:href="#I"/><use transform="matrix(0.05,0,0,0.05,99.5,0)" xlink:href="#aj"/><use transform="matrix(0.05,0,0,0.05,103.45,0)" xlink:href="#ac"/><use transform="matrix(0.05,0,0,0.05,109.4,0)" xlink:href="#ab"/><use transform="matrix(0.05,0,0,0.05,114.4,0)" xlink:href="#I"/><use transform="matrix(0.05,0,0,0.05,124.4,0)" xlink:href="#ak"/><use transform="matrix(0.05,0,0,0.05,133.4,0)" xlink:href="#ab"/><use transform="matrix(0.05,0,0,0.05,138.4,0)" xlink:href="#J"/><use transform="matrix(0.05,0,0,0.05,148.9,0)" xlink:href="#K"/><use transform="matrix(0.05,0,0,0.05,160.9,0)" xlink:href="#ae"/></g><path fill="#333" d="M63-220v92h138v28H63V0H30v-248h175v28H63" id="al"/><g id="h"><use transform="matrix(0.049382716049382706,0,0,0.049382716049382706,0,0)" xlink:href="#v"/><use transform="matrix(0.049382716049382706,0,0,0.049382716049382706,4.93827160493827,0)" xlink:href="#ah"/><use transform="matrix(0.049382716049382706,0,0,0.049382716049382706,14.814814814814811,0)" xlink:href="#al"/><use transform="matrix(0.049382716049382706,0,0,0.049382716049382706,25.629629629629626,0)" xlink:href="#y"/><use transform="matrix(0.049382716049382706,0,0,0.049382716049382706,38.419753086419746,0)" xlink:href="#z"/></g><g id="i"><use transform="matrix(0.05,0,0,0.05,0,0)" xlink:href="#U"/><use transform="matrix(0.05,0,0,0.05,9,0)" xlink:href="#V"/><use transform="matrix(0.05,0,0,0.05,19,0)" xlink:href="#G"/><use transform="matrix(0.05,0,0,0.05,29,0)" xlink:href="#W"/><use transform="matrix(0.05,0,0,0.05,39,0)" xlink:href="#I"/><use transform="matrix(0.05,0,0,0.05,49,0)" xlink:href="#J"/><use transform="matrix(0.05,0,0,0.05,59.5,0)" xlink:href="#ah"/><use transform="matrix(0.05,0,0,0.05,69.5,0)" xlink:href="#ag"/><use transform="matrix(0.05,0,0,0.05,73.45,0)" xlink:href="#F"/><use transform="matrix(0.05,0,0,0.05,83.45,0)" xlink:href="#I"/><use transform="matrix(0.05,0,0,0.05,93.45,0)" xlink:href="#ac"/><use transform="matrix(0.05,0,0,0.05,99.4,0)" xlink:href="#ad"/><use transform="matrix(0.05,0,0,0.05,104.4,0)" xlink:href="#ad"/><use transform="matrix(0.05,0,0,0.05,109.4,0)" xlink:href="#ae"/></g><path fill="#333" d="M114-163C36-179 61-72 57 0H25l-1-190h30c1 12-1 29 2 39 6-27 23-49 58-41v29" id="am"/><g id="j"><use transform="matrix(0.05,0,0,0.05,0,0)" xlink:href="#U"/><use transform="matrix(0.05,0,0,0.05,9,0)" xlink:href="#V"/><use transform="matrix(0.05,0,0,0.05,19,0)" xlink:href="#G"/><use transform="matrix(0.05,0,0,0.05,29,0)" xlink:href="#W"/><use transform="matrix(0.05,0,0,0.05,39,0)" xlink:href="#I"/><use transform="matrix(0.05,0,0,0.05,49,0)" xlink:href="#J"/><use transform="matrix(0.05,0,0,0.05,59.5,0)" xlink:href="#af"/><use transform="matrix(0.05,0,0,0.05,72.45,0)" xlink:href="#ag"/><use transform="matrix(0.05,0,0,0.05,76.4,0)" xlink:href="#am"/><use transform="matrix(0.05,0,0,0.05,82.35000000000001,0)" xlink:href="#aa"/><use transform="matrix(0.05,0,0,0.05,91.35000000000001,0)" xlink:href="#aj"/><use transform="matrix(0.05,0,0,0.05,95.30000000000001,0)" xlink:href="#I"/><use transform="matrix(0.05,0,0,0.05,105.30000000000001,0)" xlink:href="#ac"/><use transform="matrix(0.05,0,0,0.05,111.25,0)" xlink:href="#ad"/><use transform="matrix(0.05,0,0,0.05,116.25,0)" xlink:href="#ad"/><use transform="matrix(0.05,0,0,0.05,121.25,0)" xlink:href="#ae"/></g><path d="M127-220V0H93v-220H8v-28h204v28h-85" id="an"/><path d="M117-194c89-4 53 116 60 194h-32v-121c0-31-8-49-39-48C34-167 62-67 57 0H25l-1-190h30c1 10-1 24 2 32 11-22 29-35 61-36" id="ao"/><path d="M135-143c-3-34-86-38-87 0 15 53 115 12 119 90S17 21 10-45l28-5c4 36 97 45 98 0-10-56-113-15-118-90-4-57 82-63 122-42 12 7 21 19 24 35" id="ap"/><path d="M100-194c62-1 85 37 85 99 1 63-27 99-86 99S16-35 15-95c0-66 28-99 85-99zM99-20c44 1 53-31 53-75 0-43-8-75-51-75s-53 32-53 75 10 74 51 75" id="aq"/><g id="k"><use transform="matrix(0.05,0,0,0.05,0,0)" xlink:href="#A"/><use transform="matrix(0.05,0,0,0.05,5,0)" xlink:href="#an"/><use transform="matrix(0.05,0,0,0.05,15.3,0)" xlink:href="#M"/><use transform="matrix(0.05,0,0,0.05,21.25,0)" xlink:href="#D"/><use transform="matrix(0.05,0,0,0.05,31.25,0)" xlink:href="#ao"/><use transform="matrix(0.05,0,0,0.05,41.25,0)" xlink:href="#ap"/><use transform="matrix(0.05,0,0,0.05,50.25,0)" xlink:href="#P"/><use transform="matrix(0.05,0,0,0.05,54.2,0)" xlink:href="#C"/><use transform="matrix(0.05,0,0,0.05,59.2,0)" xlink:href="#P"/><use transform="matrix(0.05,0,0,0.05,63.150000000000006,0)" xlink:href="#aq"/><use transform="matrix(0.05,0,0,0.05,73.15,0)" xlink:href="#ao"/></g><path fill="#333" d="M127-220V0H93v-220H8v-28h204v28h-85" id="ar"/><g id="l"><use transform="matrix(0.049382716049382706,0,0,0.049382716049382706,0,0)" xlink:href="#v"/><use transform="matrix(0.049382716049382706,0,0,0.049382716049382706,4.93827160493827,0)" xlink:href="#w"/><use transform="matrix(0.049382716049382706,0,0,0.049382716049382706,17.382716049382715,0)" xlink:href="#ar"/><use transform="matrix(0.049382716049382706,0,0,0.049382716049382706,28.19753086419753,0)" xlink:href="#z"/></g><path d="M30-248c87 1 191-15 191 75 0 78-77 80-158 76V0H30v-248zm33 125c57 0 124 11 124-50 0-59-68-47-124-48v98" id="as"/><path d="M84 4C-5 8 30-112 23-190h32v120c0 31 7 50 39 49 72-2 45-101 50-169h31l1 190h-30c-1-10 1-25-2-33-11 22-28 36-60 37" id="at"/><path d="M85-194c31 0 48 13 60 33l-1-100h32l1 261h-30c-2-10 0-23-3-31C134-8 116 4 85 4 32 4 16-35 15-94c0-66 23-100 70-100zm9 24c-40 0-46 34-46 75 0 40 6 74 45 74 42 0 51-32 51-76 0-42-9-74-50-73" id="au"/><g id="m"><use transform="matrix(0.05,0,0,0.05,0,0)" xlink:href="#A"/><use transform="matrix(0.05,0,0,0.05,5,0)" xlink:href="#as"/><use transform="matrix(0.05,0,0,0.05,17,0)" xlink:href="#ap"/><use transform="matrix(0.05,0,0,0.05,26,0)" xlink:href="#E"/><use transform="matrix(0.05,0,0,0.05,36,0)" xlink:href="#at"/><use transform="matrix(0.05,0,0,0.05,46,0)" xlink:href="#au"/><use transform="matrix(0.05,0,0,0.05,56,0)" xlink:href="#aq"/><use transform="matrix(0.05,0,0,0.05,66,0)" xlink:href="#B"/><use transform="matrix(0.05,0,0,0.05,78,0)" xlink:href="#C"/><use transform="matrix(0.05,0,0,0.05,83,0)" xlink:href="#D"/><use transform="matrix(0.05,0,0,0.05,93,0)" xlink:href="#C"/><use transform="matrix(0.05,0,0,0.05,98,0)" xlink:href="#E"/></g><path fill="#333" d="M143 0L79-87 56-68V0H24v-261h32v163l83-92h37l-77 82L181 0h-38" id="av"/><path fill="#333" d="M33 0v-248h34V0H33" id="aw"/><path fill="#333" d="M190 0L58-211 59 0H30v-248h39L202-35l-2-213h31V0h-41" id="ax"/><g id="n"><use transform="matrix(0.05,0,0,0.05,0,0)" xlink:href="#av"/><use transform="matrix(0.05,0,0,0.05,9,0)" xlink:href="#ag"/><use transform="matrix(0.05,0,0,0.05,12.949999999999998,0)" xlink:href="#F"/><use transform="matrix(0.05,0,0,0.05,22.95,0)" xlink:href="#Z"/><use transform="matrix(0.05,0,0,0.05,32.95,0)" xlink:href="#J"/><use transform="matrix(0.05,0,0,0.05,43.45,0)" xlink:href="#aw"/><use transform="matrix(0.05,0,0,0.05,48.45,0)" xlink:href="#ax"/><use transform="matrix(0.05,0,0,0.05,61.400000000000006,0)" xlink:href="#aw"/><use transform="matrix(0.05,0,0,0.05,66.4,0)" xlink:href="#ar"/><use transform="matrix(0.05,0,0,0.05,77.35000000000001,0)" xlink:href="#aw"/><use transform="matrix(0.05,0,0,0.05,82.35000000000001,0)" xlink:href="#K"/><use transform="matrix(0.05,0,0,0.05,94.35000000000001,0)" xlink:href="#ah"/></g><path fill="#333" d="M115-3C79 11 28 4 28-45v-112H4v-33h27l15-45h31v45h36v33H77v99c-1 23 16 31 38 25v30" id="ay"/><path fill="#333" d="M110-194c64 0 96 36 96 99 0 64-35 99-97 99-61 0-95-36-95-99 0-62 34-99 96-99zm-1 164c35 0 45-28 45-65 0-40-10-65-43-65-34 0-45 26-45 65 0 36 10 65 43 65" id="az"/><g id="o"><use transform="matrix(0.04938271604938272,0,0,0.04938271604938272,0,0)" xlink:href="#ay"/><use transform="matrix(0.04938271604938272,0,0,0.04938271604938272,5.8765432098765435,0)" xlink:href="#az"/></g><path fill="#333" d="M121-226c-27-7-43 5-38 36h38v33H83V0H34v-157H6v-33h28c-9-59 32-81 87-68v32" id="aA"/><path fill="#333" d="M135-150c-39-12-60 13-60 57V0H25l-1-190h47c2 13-1 29 3 40 6-28 27-53 61-41v41" id="aB"/><path fill="#333" d="M220-157c-53 9-28 100-34 157h-49v-107c1-27-5-49-29-50C55-147 81-57 75 0H25l-1-190h47c2 12-1 28 3 38 10-53 101-56 108 0 13-22 24-43 59-42 82 1 51 116 57 194h-49v-107c-1-25-5-48-29-50" id="aC"/><g id="p"><use transform="matrix(0.04938271604938272,0,0,0.04938271604938272,0,0)" xlink:href="#aA"/><use transform="matrix(0.04938271604938272,0,0,0.04938271604938272,5.8765432098765435,0)" xlink:href="#aB"/><use transform="matrix(0.04938271604938272,0,0,0.04938271604938272,12.790123456790125,0)" xlink:href="#az"/><use transform="matrix(0.04938271604938272,0,0,0.04938271604938272,23.604938271604937,0)" xlink:href="#aC"/></g><path fill="#333" d="M30-248c87 1 191-15 191 75 0 78-77 80-158 76V0H30v-248zm33 125c57 0 124 11 124-50 0-59-68-47-124-48v98" id="aD"/><g id="q"><use transform="matrix(0.049382716049382706,0,0,0.049382716049382706,0,0)" xlink:href="#v"/><use transform="matrix(0.049382716049382706,0,0,0.049382716049382706,4.93827160493827,0)" xlink:href="#w"/><use transform="matrix(0.049382716049382706,0,0,0.049382716049382706,17.728395061728392,0)" xlink:href="#aD"/><use transform="matrix(0.049382716049382706,0,0,0.049382716049382706,29.58024691358024,0)" xlink:href="#x"/><use transform="matrix(0.049382716049382706,0,0,0.049382716049382706,41.43209876543209,0)" xlink:href="#z"/></g><g id="r"><use transform="matrix(0.049382716049382706,0,0,0.049382716049382706,0,0)" xlink:href="#v"/><use transform="matrix(0.049382716049382706,0,0,0.049382716049382706,4.93827160493827,0)" xlink:href="#af"/><use transform="matrix(0.049382716049382706,0,0,0.049382716049382706,17.728395061728392,0)" xlink:href="#X"/><use transform="matrix(0.049382716049382706,0,0,0.049382716049382706,27.604938271604933,0)" xlink:href="#F"/><use transform="matrix(0.049382716049382706,0,0,0.049382716049382706,37.481481481481474,0)" xlink:href="#F"/><use transform="matrix(0.049382716049382706,0,0,0.049382716049382706,47.35802469135801,0)" xlink:href="#I"/><use transform="matrix(0.049382716049382706,0,0,0.049382716049382706,57.234567901234556,0)" xlink:href="#aa"/><use transform="matrix(0.049382716049382706,0,0,0.049382716049382706,66.12345679012344,0)" xlink:href="#ab"/><use transform="matrix(0.049382716049382706,0,0,0.049382716049382706,71.0617283950617,0)" xlink:href="#ag"/><use transform="matrix(0.049382716049382706,0,0,0.049382716049382706,74.96296296296293,0)" xlink:href="#X"/><use transform="matrix(0.049382716049382706,0,0,0.049382716049382706,84.83950617283948,0)" xlink:href="#F"/><use transform="matrix(0.049382716049382706,0,0,0.049382716049382706,94.71604938271602,0)" xlink:href="#z"/><use transform="matrix(0.049382716049382706,0,0,0.049382716049382706,106.56790123456788,0)" xlink:href="#F"/><use transform="matrix(0.049382716049382706,0,0,0.049382716049382706,116.44444444444443,0)" xlink:href="#Z"/></g><path d="M212-179c-10-28-35-45-73-45-59 0-87 40-87 99 0 60 29 101 89 101 43 0 62-24 78-52l27 14C228-24 195 4 139 4 59 4 22-46 18-125c-6-104 99-153 187-111 19 9 31 26 39 46" id="aE"/><path d="M24 0v-261h32V0H24" id="aF"/><path d="M205 0l-28-72H64L36 0H1l101-248h38L239 0h-34zm-38-99l-47-123c-12 45-31 82-46 123h93" id="aG"/><g id="s"><use transform="matrix(0.05,0,0,0.05,0,0)" xlink:href="#A"/><use transform="matrix(0.05,0,0,0.05,5,0)" xlink:href="#aE"/><use transform="matrix(0.05,0,0,0.05,17.950000000000003,0)" xlink:href="#P"/><use transform="matrix(0.05,0,0,0.05,21.900000000000002,0)" xlink:href="#M"/><use transform="matrix(0.05,0,0,0.05,27.85,0)" xlink:href="#Q"/><use transform="matrix(0.05,0,0,0.05,36.85,0)" xlink:href="#aF"/><use transform="matrix(0.05,0,0,0.05,40.800000000000004,0)" xlink:href="#E"/><use transform="matrix(0.05,0,0,0.05,50.800000000000004,0)" xlink:href="#aG"/><use transform="matrix(0.05,0,0,0.05,62.800000000000004,0)" xlink:href="#C"/><use transform="matrix(0.05,0,0,0.05,67.80000000000001,0)" xlink:href="#C"/><use transform="matrix(0.05,0,0,0.05,72.80000000000001,0)" xlink:href="#M"/><use transform="matrix(0.05,0,0,0.05,78.75000000000001,0)" xlink:href="#P"/><use transform="matrix(0.05,0,0,0.05,82.70000000000002,0)" xlink:href="#S"/><use transform="matrix(0.05,0,0,0.05,92.70000000000002,0)" xlink:href="#at"/><use transform="matrix(0.05,0,0,0.05,102.7,0)" xlink:href="#C"/><use transform="matrix(0.05,0,0,0.05,107.7,0)" xlink:href="#E"/><use transform="matrix(0.05,0,0,0.05,117.7,0)" xlink:href="#ap"/></g><path fill="#333" d="M101-234c-31-9-42 10-38 44h38v23H63V0H32v-167H5v-23h27c-7-52 17-82 69-68v24" id="aH"/><path fill="#333" d="M160-131c35 5 61 23 61 61C221 17 115-2 30 0v-248c76 3 177-17 177 60 0 33-19 50-47 57zm-97-11c50-1 110 9 110-42 0-47-63-36-110-37v79zm0 115c55-2 124 14 124-45 0-56-70-42-124-44v89" id="aI"/><g id="t"><use transform="matrix(0.05,0,0,0.05,0,0)" xlink:href="#aH"/><use transform="matrix(0.05,0,0,0.05,5,0)" xlink:href="#ag"/><use transform="matrix(0.05,0,0,0.05,8.95,0)" xlink:href="#aj"/><use transform="matrix(0.05,0,0,0.05,12.899999999999999,0)" xlink:href="#aj"/><use transform="matrix(0.05,0,0,0.05,16.849999999999998,0)" xlink:href="#J"/><use transform="matrix(0.05,0,0,0.05,27.349999999999994,0)" xlink:href="#aI"/><use transform="matrix(0.05,0,0,0.05,39.349999999999994,0)" xlink:href="#aj"/><use transform="matrix(0.05,0,0,0.05,43.3,0)" xlink:href="#G"/><use transform="matrix(0.05,0,0,0.05,53.29999999999999,0)" xlink:href="#aa"/><use transform="matrix(0.05,0,0,0.05,62.29999999999999,0)" xlink:href="#av"/></g><g id="u"><use transform="matrix(0.049382716049382706,0,0,0.049382716049382706,0,0)" xlink:href="#v"/><use transform="matrix(0.049382716049382706,0,0,0.049382716049382706,4.93827160493827,0)" xlink:href="#K"/><use transform="matrix(0.049382716049382706,0,0,0.049382716049382706,16.79012345679012,0)" xlink:href="#ab"/><use transform="matrix(0.049382716049382706,0,0,0.049382716049382706,21.728395061728392,0)" xlink:href="#ab"/><use transform="matrix(0.049382716049382706,0,0,0.049382716049382706,26.666666666666668,0)" xlink:href="#am"/><use transform="matrix(0.049382716049382706,0,0,0.049382716049382706,32.54320987654321,0)" xlink:href="#ag"/><use transform="matrix(0.049382716049382706,0,0,0.049382716049382706,36.44444444444444,0)" xlink:href="#ai"/><use transform="matrix(0.049382716049382706,0,0,0.049382716049382706,46.32098765432099,0)" xlink:href="#Y"/><use transform="matrix(0.049382716049382706,0,0,0.049382716049382706,56.19753086419753,0)" xlink:href="#ab"/><use transform="matrix(0.049382716049382706,0,0,0.049382716049382706,61.135802469135804,0)" xlink:href="#I"/><use transform="matrix(0.049382716049382706,0,0,0.049382716049382706,71.01234567901234,0)" xlink:href="#U"/><use transform="matrix(0.049382716049382706,0,0,0.049382716049382706,79.90123456790123,0)" xlink:href="#al"/><use transform="matrix(0.049382716049382706,0,0,0.049382716049382706,90.71604938271604,0)" xlink:href="#X"/><use transform="matrix(0.049382716049382706,0,0,0.049382716049382706,100.59259259259258,0)" xlink:href="#am"/></g></defs></g></svg>