<svg xmlns="http://www.w3.org/2000/svg" xmlns:xlink="http://www.w3.org/1999/xlink" xmlns:lucid="lucid" width="1020" height="355"><g transform="translate(280 -240)" lucid:page-tab-id="UMltYCT7xEyH"><path d="M359 380l79 37.5-79 37.5-79-37.5z" stroke="#5e5e5e" stroke-width="3" fill="#c7e8ac"/><use xlink:href="#a" transform="matrix(1,0,0,1,285,385) translate(35.56055555555557 36.56597222222222)"/><path d="M442.5 417.5h38" stroke="#5e5e5e" stroke-width="2" fill="none"/><path d="M442.52 418.5h-3.13l2.1-1-2.1-1h3.12z" fill="#5e5e5e"/><path d="M495.76 417.5l-14.26 4.64v-9.28z" stroke="#5e5e5e" stroke-width="2" fill="#5e5e5e"/><use xlink:href="#b" transform="matrix(1,0,0,1,451.7652143995614,421.5000000000001) translate(0 14.222222222222223)"/><path d="M279 417.5h-41.5" stroke="#5e5e5e" stroke-width="2" fill="none"/><path fill="#5e5e5e"/><path d="M222.24 417.5l14.26-4.64v9.28z" stroke="#5e5e5e" stroke-width="2" fill="#5e5e5e"/><use xlink:href="#c" transform="matrix(1,0,0,1,235.2489992431164,421.5) translate(0 14.222222222222223)"/><path d="M500 369h220v97H500z" stroke="#333" stroke-width="2" fill="#c1e4f7"/><path d="M500 406.6h220" stroke="#333" stroke-width="2" fill="none"/><use xlink:href="#d" transform="matrix(1,0,0,1,508,377) translate(77.025 14.6)"/><use xlink:href="#e" transform="matrix(1,0,0,1,512,414.6) translate(0 14.4)"/><use xlink:href="#f" transform="matrix(1,0,0,1,512,414.6) translate(0 36)"/><path d="M18 380h200v75H18z" stroke="#333" stroke-width="2" fill="#ffbbb1"/><path d="M18 417.6h200" stroke="#333" stroke-width="2" fill="none"/><use xlink:href="#g" transform="matrix(1,0,0,1,26,388) translate(32.074999999999996 14.6)"/><use xlink:href="#h" transform="matrix(1,0,0,1,30,425.6) translate(24.39999999999999 14.6)"/><path d="M-260 500h240v75h-240z" stroke="#333" stroke-width="2" fill="#ffbbb1"/><path d="M-260 537.6h240" stroke="#333" stroke-width="2" fill="none"/><use xlink:href="#g" transform="matrix(1,0,0,1,-252,508) translate(52.074999999999996 14.6)"/><use xlink:href="#h" transform="matrix(1,0,0,1,-248,545.6) translate(44.39999999999999 14.4)"/><path d="M118 500l79 37.5-79 37.5-79-37.5z" stroke="#5e5e5e" stroke-width="3" fill="#c7e8ac"/><use xlink:href="#i" transform="matrix(1,0,0,1,44,505) translate(36.52351851851853 36.56597222222222)"/><path d="M34.5 537.5h-35" stroke="#5e5e5e" stroke-width="2" fill="none"/><path d="M35.5 537.5l2.1 1H34.5v-2h3.13z" fill="#5e5e5e"/><path d="M-15.76 537.5l14.26-4.64v9.28z" stroke="#5e5e5e" stroke-width="2" fill="#5e5e5e"/><use xlink:href="#j" transform="matrix(1,0,0,1,-1.5348173509985115,541.5000000000002) translate(0 14.222222222222223)"/><path d="M118 497.34V474.5" stroke="#5e5e5e" stroke-width="2" fill="none"/><path d="M119 498.8l-1-.46-1 .47v-1.5h2z" fill="#5e5e5e"/><path d="M118 459.24l4.64 14.26h-9.28z" stroke="#5e5e5e" stroke-width="2" fill="#5e5e5e"/><use xlink:href="#k" transform="matrix(1,0,0,1,126,466.5031255203019) translate(0 14.222222222222223)"/><path d="M-260 260h240v75h-240z" stroke="#333" stroke-width="2" fill="#ffbbb1"/><path d="M-260 297.6h240" stroke="#333" stroke-width="2" fill="none"/><use xlink:href="#g" transform="matrix(1,0,0,1,-252,268) translate(52.074999999999996 14.6)"/><use xlink:href="#l" transform="matrix(1,0,0,1,-248,305.6) translate(13.225000000000009 14.4)"/><path d="M118 260l79 37.5-79 37.5-79-37.5z" stroke="#5e5e5e" stroke-width="3" fill="#c7e8ac"/><use xlink:href="#m" transform="matrix(1,0,0,1,44,265) translate(36.54820987654321 36.56597222222222)"/><path d="M34.5 297.5h-35" stroke="#5e5e5e" stroke-width="2" fill="none"/><path d="M35.5 297.5l2.1 1H34.5v-2h3.13z" fill="#5e5e5e"/><path d="M-15.76 297.5l14.26-4.64v9.28z" stroke="#5e5e5e" stroke-width="2" fill="#5e5e5e"/><use xlink:href="#k" transform="matrix(1,0,0,1,-1.0656815485293762,301.50000000000006) translate(0 14.222222222222223)"/><path d="M118 337.66V360.5" stroke="#5e5e5e" stroke-width="2" fill="none"/><path d="M119 337.7h-2v-1.5l1 .46 1-.47z" fill="#5e5e5e"/><path d="M118 375.76l-4.64-14.26h9.28z" stroke="#5e5e5e" stroke-width="2" fill="#5e5e5e"/><use xlink:href="#j" transform="matrix(1,0,0,1,126.00000000000001,347.16354114636476) translate(0 14.222222222222223)"/><defs><path fill="#333" d="M33-154v-36h34v36H33zM33 0v-36h34V0H33" id="n"/><path fill="#333" d="M30-248c87 1 191-15 191 75 0 78-77 80-158 76V0H30v-248zm33 125c57 0 124 11 124-50 0-59-68-47-124-48v98" id="o"/><path fill="#333" d="M24 0v-261h32V0H24" id="p"/><path fill="#333" d="M141-36C126-15 110 5 73 4 37 3 15-17 15-53c-1-64 63-63 125-63 3-35-9-54-41-54-24 1-41 7-42 31l-33-3c5-37 33-52 76-52 45 0 72 20 72 64v82c-1 20 7 32 28 27v20c-31 9-61-2-59-35zM48-53c0 20 12 33 32 33 41-3 63-29 60-74-43 2-92-5-92 41" id="q"/><path fill="#333" d="M96-169c-40 0-48 33-48 73s9 75 48 75c24 0 41-14 43-38l32 2c-6 37-31 61-74 61-59 0-76-41-82-99-10-93 101-131 147-64 4 7 5 14 7 22l-32 3c-4-21-16-35-41-35" id="r"/><path fill="#333" d="M100-194c63 0 86 42 84 106H49c0 40 14 67 53 68 26 1 43-12 49-29l28 8c-11 28-37 45-77 45C44 4 14-33 15-96c1-61 26-98 85-98zm52 81c6-60-76-77-97-28-3 7-6 17-6 28h103" id="s"/><path fill="#333" d="M30-248c118-7 216 8 213 122C240-48 200 0 122 0H30v-248zM63-27c89 8 146-16 146-99s-60-101-146-95v194" id="t"/><path fill="#333" d="M240 0l2-218c-23 76-54 145-80 218h-23L58-218 59 0H30v-248h44l77 211c21-75 51-140 76-211h43V0h-30" id="u"/><g id="a"><use transform="matrix(0.049382716049382706,0,0,0.049382716049382706,0,0)" xlink:href="#n"/><use transform="matrix(0.049382716049382706,0,0,0.049382716049382706,4.93827160493827,0)" xlink:href="#o"/><use transform="matrix(0.049382716049382706,0,0,0.049382716049382706,16.79012345679012,0)" xlink:href="#p"/><use transform="matrix(0.049382716049382706,0,0,0.049382716049382706,20.691358024691354,0)" xlink:href="#q"/><use transform="matrix(0.049382716049382706,0,0,0.049382716049382706,30.567901234567895,0)" xlink:href="#r"/><use transform="matrix(0.049382716049382706,0,0,0.049382716049382706,39.456790123456784,0)" xlink:href="#s"/><use transform="matrix(0.049382716049382706,0,0,0.049382716049382706,49.33333333333333,0)" xlink:href="#t"/><use transform="matrix(0.049382716049382706,0,0,0.049382716049382706,62.12345679012344,0)" xlink:href="#u"/></g><path fill="#333" d="M220-157c-53 9-28 100-34 157h-49v-107c1-27-5-49-29-50C55-147 81-57 75 0H25l-1-190h47c2 12-1 28 3 38 10-53 101-56 108 0 13-22 24-43 59-42 82 1 51 116 57 194h-49v-107c-1-25-5-48-29-50" id="v"/><path fill="#333" d="M185-48c-13 30-37 53-82 52C43 2 14-33 14-96s30-98 90-98c62 0 83 45 84 108H66c0 31 8 55 39 56 18 0 30-7 34-22zm-45-69c5-46-57-63-70-21-2 6-4 13-4 21h74" id="w"/><g id="b"><use transform="matrix(0.04938271604938272,0,0,0.04938271604938272,0,0)" xlink:href="#v"/><use transform="matrix(0.04938271604938272,0,0,0.04938271604938272,15.80246913580247,0)" xlink:href="#w"/></g><path fill="#333" d="M195-6C206 82 75 100 31 46c-4-6-6-13-8-21l49-6c3 16 16 24 34 25 40 0 42-37 40-79-11 22-30 35-61 35-53 0-70-43-70-97 0-56 18-96 73-97 30 0 46 14 59 34l2-30h47zm-90-29c32 0 41-27 41-63 0-35-9-62-40-62-32 0-39 29-40 63 0 36 9 62 39 62" id="x"/><path fill="#333" d="M110-194c64 0 96 36 96 99 0 64-35 99-97 99-61 0-95-36-95-99 0-62 34-99 96-99zm-1 164c35 0 45-28 45-65 0-40-10-65-43-65-34 0-45 26-45 65 0 36 10 65 43 65" id="y"/><g id="c"><use transform="matrix(0.04938271604938272,0,0,0.04938271604938272,0,0)" xlink:href="#x"/><use transform="matrix(0.04938271604938272,0,0,0.04938271604938272,10.814814814814815,0)" xlink:href="#y"/></g><path d="M33-154v-36h34v36H33zM33 0v-36h34V0H33" id="z"/><path d="M30-248c87 1 191-15 191 75 0 78-77 80-158 76V0H30v-248zm33 125c57 0 124 11 124-50 0-59-68-47-124-48v98" id="A"/><path d="M24 0v-261h32V0H24" id="B"/><path d="M141-36C126-15 110 5 73 4 37 3 15-17 15-53c-1-64 63-63 125-63 3-35-9-54-41-54-24 1-41 7-42 31l-33-3c5-37 33-52 76-52 45 0 72 20 72 64v82c-1 20 7 32 28 27v20c-31 9-61-2-59-35zM48-53c0 20 12 33 32 33 41-3 63-29 60-74-43 2-92-5-92 41" id="C"/><path d="M96-169c-40 0-48 33-48 73s9 75 48 75c24 0 41-14 43-38l32 2c-6 37-31 61-74 61-59 0-76-41-82-99-10-93 101-131 147-64 4 7 5 14 7 22l-32 3c-4-21-16-35-41-35" id="D"/><path d="M100-194c63 0 86 42 84 106H49c0 40 14 67 53 68 26 1 43-12 49-29l28 8c-11 28-37 45-77 45C44 4 14-33 15-96c1-61 26-98 85-98zm52 81c6-60-76-77-97-28-3 7-6 17-6 28h103" id="E"/><g id="d"><use transform="matrix(0.05,0,0,0.05,0,0)" xlink:href="#z"/><use transform="matrix(0.05,0,0,0.05,5,0)" xlink:href="#A"/><use transform="matrix(0.05,0,0,0.05,17,0)" xlink:href="#B"/><use transform="matrix(0.05,0,0,0.05,20.95,0)" xlink:href="#C"/><use transform="matrix(0.05,0,0,0.05,30.950000000000003,0)" xlink:href="#D"/><use transform="matrix(0.05,0,0,0.05,39.95,0)" xlink:href="#E"/></g><path fill="#333" d="M117-194c89-4 53 116 60 194h-32v-121c0-31-8-49-39-48C34-167 62-67 57 0H25l-1-190h30c1 10-1 24 2 32 11-22 29-35 61-36" id="F"/><path fill="#333" d="M210-169c-67 3-38 105-44 169h-31v-121c0-29-5-50-35-48C34-165 62-65 56 0H25l-1-190h30c1 10-1 24 2 32 10-44 99-50 107 0 11-21 27-35 58-36 85-2 47 119 55 194h-31v-121c0-29-5-49-35-48" id="G"/><path fill="#333" d="M18-150v-26h174v26H18zm0 90v-26h174v26H18" id="H"/><path fill="#333" d="M109-170H84l-4-78h32zm-65 0H19l-4-78h33" id="I"/><path fill="#333" d="M27 0v-27h64v-190l-56 39v-29l58-41h29v221h61V0H27" id="J"/><g id="e"><use transform="matrix(0.05,0,0,0.05,0,0)" xlink:href="#F"/><use transform="matrix(0.05,0,0,0.05,10,0)" xlink:href="#q"/><use transform="matrix(0.05,0,0,0.05,20,0)" xlink:href="#G"/><use transform="matrix(0.05,0,0,0.05,34.95,0)" xlink:href="#s"/><use transform="matrix(0.05,0,0,0.05,44.95,0)" xlink:href="#H"/><use transform="matrix(0.05,0,0,0.05,55.45,0)" xlink:href="#I"/><use transform="matrix(0.05,0,0,0.05,61.800000000000004,0)" xlink:href="#o"/><use transform="matrix(0.05,0,0,0.05,73.80000000000001,0)" xlink:href="#J"/><use transform="matrix(0.05,0,0,0.05,83.80000000000001,0)" xlink:href="#I"/></g><path fill="#333" d="M59-47c-2 24 18 29 38 22v24C64 9 27 4 27-40v-127H5v-23h24l9-43h21v43h35v23H59v120" id="K"/><path fill="#333" d="M100-194c62-1 85 37 85 99 1 63-27 99-86 99S16-35 15-95c0-66 28-99 85-99zM99-20c44 1 53-31 53-75 0-43-8-75-51-75s-53 32-53 75 10 74 51 75" id="L"/><path fill="#333" d="M143 0L79-87 56-68V0H24v-261h32v163l83-92h37l-77 82L181 0h-38" id="M"/><path fill="#333" d="M135-143c-3-34-86-38-87 0 15 53 115 12 119 90S17 21 10-45l28-5c4 36 97 45 98 0-10-56-113-15-118-90-4-57 82-63 122-42 12 7 21 19 24 35" id="N"/><g id="f"><use transform="matrix(0.05,0,0,0.05,0,0)" xlink:href="#K"/><use transform="matrix(0.05,0,0,0.05,5,0)" xlink:href="#L"/><use transform="matrix(0.05,0,0,0.05,15,0)" xlink:href="#M"/><use transform="matrix(0.05,0,0,0.05,24,0)" xlink:href="#s"/><use transform="matrix(0.05,0,0,0.05,34,0)" xlink:href="#F"/><use transform="matrix(0.05,0,0,0.05,44,0)" xlink:href="#N"/><use transform="matrix(0.05,0,0,0.05,53,0)" xlink:href="#H"/><use transform="matrix(0.05,0,0,0.05,63.5,0)" xlink:href="#J"/></g><path d="M143 4C61 4 22-44 18-125c-5-107 100-154 193-111 17 8 29 25 37 43l-32 9c-13-25-37-40-76-40-61 0-88 39-88 99 0 61 29 100 91 101 35 0 62-11 79-27v-45h-74v-28h105v86C228-13 192 4 143 4" id="O"/><path d="M114-163C36-179 61-72 57 0H25l-1-190h30c1 12-1 29 2 39 6-27 23-49 58-41v29" id="P"/><path d="M115-194c55 1 70 41 70 98S169 2 115 4C84 4 66-9 55-30l1 105H24l-1-265h31l2 30c10-21 28-34 59-34zm-8 174c40 0 45-34 45-75s-6-73-45-74c-42 0-51 32-51 76 0 43 10 73 51 73" id="Q"/><path d="M106-169C34-169 62-67 57 0H25v-261h32l-1 103c12-21 28-36 61-36 89 0 53 116 60 194h-32v-121c2-32-8-49-39-48" id="R"/><path d="M24-231v-30h32v30H24zM24 0v-190h32V0H24" id="S"/><path d="M140-251c81 0 123 46 123 126C263-46 219 4 140 4 59 4 17-45 17-125s42-126 123-126zm0 227c63 0 89-41 89-101s-29-99-89-99c-61 0-89 39-89 99S79-25 140-24" id="T"/><path d="M115-194c53 0 69 39 70 98 0 66-23 100-70 100C84 3 66-7 56-30L54 0H23l1-261h32v101c10-23 28-34 59-34zm-8 174c40 0 45-34 45-75 0-40-5-75-45-74-42 0-51 32-51 76 0 43 10 73 51 73" id="U"/><path d="M24-231v-30h32v30H24zM-9 49c24 4 33-6 33-30v-209h32V24c2 40-23 58-65 49V49" id="V"/><path d="M59-47c-2 24 18 29 38 22v24C64 9 27 4 27-40v-127H5v-23h24l9-43h21v43h35v23H59v120" id="W"/><g id="g"><use transform="matrix(0.05,0,0,0.05,0,0)" xlink:href="#z"/><use transform="matrix(0.05,0,0,0.05,5,0)" xlink:href="#O"/><use transform="matrix(0.05,0,0,0.05,19,0)" xlink:href="#P"/><use transform="matrix(0.05,0,0,0.05,24.95,0)" xlink:href="#C"/><use transform="matrix(0.05,0,0,0.05,34.95,0)" xlink:href="#Q"/><use transform="matrix(0.05,0,0,0.05,44.95,0)" xlink:href="#R"/><use transform="matrix(0.05,0,0,0.05,54.95,0)" xlink:href="#S"/><use transform="matrix(0.05,0,0,0.05,58.900000000000006,0)" xlink:href="#D"/><use transform="matrix(0.05,0,0,0.05,67.9,0)" xlink:href="#T"/><use transform="matrix(0.05,0,0,0.05,81.9,0)" xlink:href="#U"/><use transform="matrix(0.05,0,0,0.05,91.9,0)" xlink:href="#V"/><use transform="matrix(0.05,0,0,0.05,95.85000000000001,0)" xlink:href="#E"/><use transform="matrix(0.05,0,0,0.05,105.85000000000001,0)" xlink:href="#D"/><use transform="matrix(0.05,0,0,0.05,114.85000000000001,0)" xlink:href="#W"/></g><path fill="#333" d="M106-169C34-169 62-67 57 0H25v-261h32l-1 103c12-21 28-36 61-36 89 0 53 116 60 194h-32v-121c2-32-8-49-39-48" id="X"/><path fill="#333" d="M115-194c55 1 70 41 70 98S169 2 115 4C84 4 66-9 55-30l1 105H24l-1-265h31l2 30c10-21 28-34 59-34zm-8 174c40 0 45-34 45-75s-6-73-45-74c-42 0-51 32-51 76 0 43 10 73 51 73" id="Y"/><path fill="#333" d="M212-179c-10-28-35-45-73-45-59 0-87 40-87 99 0 60 29 101 89 101 43 0 62-24 78-52l27 14C228-24 195 4 139 4 59 4 22-46 18-125c-6-104 99-153 187-111 19 9 31 26 39 46" id="Z"/><path fill="#333" d="M24-231v-30h32v30H24zM24 0v-190h32V0H24" id="aa"/><path fill="#333" d="M114-163C36-179 61-72 57 0H25l-1-190h30c1 12-1 29 2 39 6-27 23-49 58-41v29" id="ab"/><path fill="#333" d="M87 75C49 33 22-17 22-94c0-76 28-126 65-167h31c-38 41-64 92-64 168S80 34 118 75H87" id="ac"/><path fill="#333" d="M33 0v-38h34V0H33" id="ad"/><path fill="#333" d="M33-261c38 41 65 92 65 168S71 34 33 75H2C39 34 66-17 66-93S39-220 2-261h31" id="ae"/><g id="h"><use transform="matrix(0.05,0,0,0.05,0,0)" xlink:href="#N"/><use transform="matrix(0.05,0,0,0.05,9,0)" xlink:href="#X"/><use transform="matrix(0.05,0,0,0.05,19,0)" xlink:href="#q"/><use transform="matrix(0.05,0,0,0.05,29,0)" xlink:href="#Y"/><use transform="matrix(0.05,0,0,0.05,39,0)" xlink:href="#s"/><use transform="matrix(0.05,0,0,0.05,49,0)" xlink:href="#H"/><use transform="matrix(0.05,0,0,0.05,59.5,0)" xlink:href="#Z"/><use transform="matrix(0.05,0,0,0.05,72.45,0)" xlink:href="#aa"/><use transform="matrix(0.05,0,0,0.05,76.4,0)" xlink:href="#ab"/><use transform="matrix(0.05,0,0,0.05,82.35000000000001,0)" xlink:href="#r"/><use transform="matrix(0.05,0,0,0.05,91.35000000000001,0)" xlink:href="#p"/><use transform="matrix(0.05,0,0,0.05,95.30000000000001,0)" xlink:href="#s"/><use transform="matrix(0.05,0,0,0.05,105.30000000000001,0)" xlink:href="#ac"/><use transform="matrix(0.05,0,0,0.05,111.25,0)" xlink:href="#ad"/><use transform="matrix(0.05,0,0,0.05,116.25,0)" xlink:href="#ad"/><use transform="matrix(0.05,0,0,0.05,121.25,0)" xlink:href="#ae"/></g><g id="i"><use transform="matrix(0.049382716049382706,0,0,0.049382716049382706,0,0)" xlink:href="#n"/><use transform="matrix(0.049382716049382706,0,0,0.049382716049382706,4.93827160493827,0)" xlink:href="#Z"/><use transform="matrix(0.049382716049382706,0,0,0.049382716049382706,17.728395061728392,0)" xlink:href="#L"/><use transform="matrix(0.049382716049382706,0,0,0.049382716049382706,27.604938271604933,0)" xlink:href="#F"/><use transform="matrix(0.049382716049382706,0,0,0.049382716049382706,37.481481481481474,0)" xlink:href="#K"/><use transform="matrix(0.049382716049382706,0,0,0.049382716049382706,42.419753086419746,0)" xlink:href="#q"/><use transform="matrix(0.049382716049382706,0,0,0.049382716049382706,52.29629629629628,0)" xlink:href="#aa"/><use transform="matrix(0.049382716049382706,0,0,0.049382716049382706,56.19753086419752,0)" xlink:href="#F"/><use transform="matrix(0.049382716049382706,0,0,0.049382716049382706,66.07407407407406,0)" xlink:href="#N"/></g><path fill="#333" d="M135-194c52 0 70 43 70 98 0 56-19 99-73 100-30 1-46-15-58-35L72 0H24l1-261h50v104c11-23 29-37 60-37zM114-30c31 0 40-27 40-66 0-37-7-63-39-63s-41 28-41 65c0 36 8 64 40 64" id="af"/><use transform="matrix(0.04938271604938272,0,0,0.04938271604938272,0,0)" xlink:href="#af" id="j"/><path fill="#333" d="M133-34C117-15 103 5 69 4 32 3 11-16 11-54c-1-60 55-63 116-61 1-26-3-47-28-47-18 1-26 9-28 27l-52-2c7-38 36-58 82-57s74 22 75 68l1 82c-1 14 12 18 25 15v27c-30 8-71 5-69-32zm-48 3c29 0 43-24 42-57-32 0-66-3-65 30 0 17 8 27 23 27" id="ag"/><use transform="matrix(0.04938271604938272,0,0,0.04938271604938272,0,0)" xlink:href="#ag" id="k"/><path fill="#333" d="M30 0v-248h33v221h125V0H30" id="ah"/><path fill="#333" d="M115-194c53 0 69 39 70 98 0 66-23 100-70 100C84 3 66-7 56-30L54 0H23l1-261h32v101c10-23 28-34 59-34zm-8 174c40 0 45-34 45-75 0-40-5-75-45-74-42 0-51 32-51 76 0 43 10 73 51 73" id="ai"/><path fill="#333" d="M141 0L90-78 38 0H4l68-98-65-92h35l48 74 47-74h35l-64 92 68 98h-35" id="aj"/><g id="l"><use transform="matrix(0.05,0,0,0.05,0,0)" xlink:href="#N"/><use transform="matrix(0.05,0,0,0.05,9,0)" xlink:href="#X"/><use transform="matrix(0.05,0,0,0.05,19,0)" xlink:href="#q"/><use transform="matrix(0.05,0,0,0.05,29,0)" xlink:href="#Y"/><use transform="matrix(0.05,0,0,0.05,39,0)" xlink:href="#s"/><use transform="matrix(0.05,0,0,0.05,49,0)" xlink:href="#H"/><use transform="matrix(0.05,0,0,0.05,59.5,0)" xlink:href="#ah"/><use transform="matrix(0.05,0,0,0.05,69.5,0)" xlink:href="#q"/><use transform="matrix(0.05,0,0,0.05,79.5,0)" xlink:href="#ai"/><use transform="matrix(0.05,0,0,0.05,89.5,0)" xlink:href="#s"/><use transform="matrix(0.05,0,0,0.05,99.5,0)" xlink:href="#p"/><use transform="matrix(0.05,0,0,0.05,103.45,0)" xlink:href="#ac"/><use transform="matrix(0.05,0,0,0.05,109.4,0)" xlink:href="#K"/><use transform="matrix(0.05,0,0,0.05,114.4,0)" xlink:href="#s"/><use transform="matrix(0.05,0,0,0.05,124.4,0)" xlink:href="#aj"/><use transform="matrix(0.05,0,0,0.05,133.4,0)" xlink:href="#K"/><use transform="matrix(0.05,0,0,0.05,138.4,0)" xlink:href="#H"/><use transform="matrix(0.05,0,0,0.05,148.9,0)" xlink:href="#I"/><use transform="matrix(0.05,0,0,0.05,155.25,0)" xlink:href="#o"/><use transform="matrix(0.05,0,0,0.05,167.25,0)" xlink:href="#J"/><use transform="matrix(0.05,0,0,0.05,177.25,0)" xlink:href="#I"/><use transform="matrix(0.05,0,0,0.05,183.6,0)" xlink:href="#ae"/></g><path fill="#333" d="M63-220v92h138v28H63V0H30v-248h175v28H63" id="ak"/><g id="m"><use transform="matrix(0.049382716049382706,0,0,0.049382716049382706,0,0)" xlink:href="#n"/><use transform="matrix(0.049382716049382706,0,0,0.049382716049382706,4.93827160493827,0)" xlink:href="#ah"/><use transform="matrix(0.049382716049382706,0,0,0.049382716049382706,14.814814814814811,0)" xlink:href="#q"/><use transform="matrix(0.049382716049382706,0,0,0.049382716049382706,24.691358024691354,0)" xlink:href="#ai"/><use transform="matrix(0.049382716049382706,0,0,0.049382716049382706,34.5679012345679,0)" xlink:href="#s"/><use transform="matrix(0.049382716049382706,0,0,0.049382716049382706,44.44444444444444,0)" xlink:href="#p"/><use transform="matrix(0.049382716049382706,0,0,0.049382716049382706,48.34567901234568,0)" xlink:href="#ak"/><use transform="matrix(0.049382716049382706,0,0,0.049382716049382706,59.160493827160494,0)" xlink:href="#L"/><use transform="matrix(0.049382716049382706,0,0,0.049382716049382706,69.03703703703704,0)" xlink:href="#ab"/></g></defs></g></svg>